<svg id="Layer_1" enable-background="new 0 0 512 512" height="512" viewBox="0 0 512 512" width="512" xmlns="http://www.w3.org/2000/svg"><g id="XMLID_1_"><g id="XMLID_5004_"><g id="XMLID_1525_"><path id="XMLID_1761_" d="m88 512h-10c0-21.1 9.1-32 17.2-41.7 8-9.6 14.8-17.9 14.8-35.3s-6.9-25.7-14.8-35.3c-8.1-9.7-17.2-20.6-17.2-41.7s9.1-32 17.2-41.7c8-9.6 14.8-17.9 14.8-35.3v-20h10v20c0 21.1-9.1 32-17.2 41.7-8 9.6-14.8 17.9-14.8 35.3s6.9 25.7 14.8 35.3c8 9.7 17.2 20.6 17.2 41.7s-9.1 32-17.2 41.7c-7.9 9.6-14.8 17.9-14.8 35.3z" fill="#b23998"/></g><path id="XMLID_1531_" d="m135 281h-40l20-40z" fill="#ffb233"/><ellipse id="XMLID_1530_" cx="115" cy="133" fill="#ffc970" rx="110" ry="128"/><path id="XMLID_2061_" d="m163 112.5c-23.9 27.8-37 64.6-37 103.5 0 15 1.9 29.6 5.7 43.5 52.8-9.4 93.3-62.4 93.3-126.5 0-20.5-4.1-39.8-11.5-57-18.8 7.4-36.1 19.7-50.5 36.5z" fill="#ffb233"/><g id="XMLID_1523_"><path id="XMLID_1763_" d="m261 512h-10c0-17-4.6-25.6-9.4-34.6-5.2-9.7-10.6-19.6-10.6-39.4s5.4-29.7 10.6-39.4c4.8-9 9.4-17.4 9.4-34.6v-20h10v20c0 19.8-5.4 29.7-10.6 39.4-4.8 9-9.4 17.4-9.4 34.7s4.6 25.6 9.4 34.6c5.2 9.6 10.6 19.3 10.6 39.3z" fill="#b23998"/></g><path id="XMLID_1527_" d="m276 363.8h-40l20-40z" fill="#c12944"/><g id="XMLID_1524_"><path id="XMLID_1762_" d="m402 512h-10c0-25.4 7.5-38.1 14.7-50.5 6.8-11.7 13.3-22.8 13.3-45.5s-6.5-33.7-13.3-45.5c-7.2-12.4-14.7-25.2-14.7-50.5v-20h10v20c0 22.6 6.5 33.7 13.3 45.5 7.2 12.4 14.7 25.2 14.7 50.5s-7.5 38.1-14.7 50.5c-6.8 11.8-13.3 22.9-13.3 45.5z" fill="#b23998"/></g><ellipse id="XMLID_1774_" cx="256" cy="216" fill="#d84861" rx="110" ry="128"/><path id="XMLID_2068_" d="m286.9 93.1c-12.9 23.4-19.9 50.6-19.9 78.9 0 39 13.2 75.7 37 103.5 9.7 11.2 20.6 20.5 32.5 27.6 18.3-22.9 29.4-53.5 29.4-87.2.1-58.1-33.3-107.2-79-122.8z" fill="#c12944"/><g id="XMLID_1169_"><path id="XMLID_1170_" d="m311 382h20c0-12.5-8.4-18.8-14-23-5-3.8-6-4.9-6-7s1-3.2 6-7c5.6-4.2 14-10.5 14-23s-8.4-18.8-14-23c-5-3.8-6-4.9-6-7h-20c0 12.5 8.4 18.8 14 23 5 3.8 6 4.9 6 7s-1 3.2-6 7c-5.6 4.2-14 10.5-14 23s8.4 18.8 14 23c5 3.8 6 4.9 6 7z" fill="#ffc970"/></g><path id="XMLID_1529_" d="m417 320h-40l20-40z" fill="#6abdfb"/><ellipse id="XMLID_1773_" cx="397" cy="172" fill="#9cd3fc" rx="110" ry="128"/><path id="XMLID_2091_" d="m498.7 123c-5-14.2-26.1-9.7-25 5.3.2 3.5.4 7.1.4 10.7 0 70.7-49.2 128-110 128-.2 0-.4 0-.6 0-14.1-.1-18.2 19.1-5.4 24.7 12.1 5.3 25.2 8.3 38.9 8.3 60.8 0 110-57.3 110-128 0-17.3-3-33.9-8.3-49z" fill="#6abdfb"/><g id="XMLID_1173_"><path id="XMLID_1174_" d="m425 95h20c0-12.5-8.4-18.8-14-23-5-3.8-6-4.9-6-7s1-3.2 6-7c5.6-4.2 14-10.5 14-23s-8.4-18.8-14-23c-5-3.8-6-4.9-6-7h-20c0 12.5 8.4 18.8 14 23 5 3.8 6 4.9 6 7s-1 3.2-6 7c-5.6 4.2-14 10.5-14 23s8.4 18.8 14 23c5 3.8 6 4.9 6 7z" fill="#d84861"/></g><circle id="XMLID_2059_" cx="364" cy="139" fill="#cde9fe" r="33"/><circle id="XMLID_2129_" cx="223" cy="183" fill="#e17084" r="33"/><circle id="XMLID_2130_" cx="82" cy="100" fill="#ffdca3" r="33"/><g id="XMLID_1171_"><path id="XMLID_1172_" d="m74 178h-20c0-12.5 8.4-18.8 14-23 5-3.8 6-4.9 6-7s-1-3.2-6-7c-5.6-4.2-14-10.5-14-23s8.4-18.8 14-23c5-3.8 6-4.9 6-7h20c0 12.5-8.4 18.8-14 23-5 3.8-6 4.9-6 7s1 3.2 6 7c5.6 4.2 14 10.5 14 23s-8.4 18.8-14 23c-5 3.8-6 4.9-6 7z" fill="#9cd3fc"/></g></g><g id="XMLID_2367_"><g id="XMLID_355_"><path id="XMLID_4243_" d="m88 512h-10c0-21.1 9.1-32 17.2-41.7 8-9.6 14.8-17.9 14.8-35.3s-6.9-25.7-14.8-35.3c-8.1-9.7-17.2-20.6-17.2-41.7s9.1-32 17.2-41.7c8-9.6 14.8-17.9 14.8-35.3h10c0 21.1-9.1 32-17.2 41.7-8 9.6-14.8 17.9-14.8 35.3s6.9 25.7 14.8 35.3c8 9.7 17.2 20.6 17.2 41.7s-9.1 32-17.2 41.7c-7.9 9.6-14.8 17.9-14.8 35.3z" fill="#4d2162"/></g><g id="XMLID_354_"><path id="XMLID_4242_" d="m402 512h-10c0-25.4 7.5-38.1 14.7-50.5 6.8-11.7 13.3-22.8 13.3-45.5s-6.5-33.7-13.3-45.5c-7.2-12.4-14.7-25.2-14.7-50.5h10c0 22.6 6.5 33.7 13.3 45.5 7.2 12.4 14.7 25.2 14.7 50.5s-7.5 38.1-14.7 50.5c-6.8 11.8-13.3 22.9-13.3 45.5z" fill="#4d2162"/></g><g id="XMLID_358_"><path id="XMLID_4241_" d="m261 512h-10c0-17.2-4.6-25.7-9.4-34.6-5.2-9.6-10.6-19.6-10.6-39.4s5.4-29.7 10.6-39.4c4.8-8.9 9.4-17.4 9.4-34.6h10c0 19.8-5.4 29.7-10.6 39.4-4.8 8.9-9.4 17.4-9.4 34.6s4.6 25.7 9.4 34.6c5.2 9.7 10.6 19.6 10.6 39.4z" fill="#4d2162"/></g><g id="XMLID_792_"><g id="XMLID_832_"><path id="XMLID_2556_" d="m445 100h-20c-2.7 0-4.8-2.1-5-4.7-.5-.6-1.9-1.7-4-3.3-6-4.5-16-12-16-27s10-22.5 16-27c1.8-1.4 3.1-2.4 3.7-3-.6-.6-1.9-1.6-3.7-3-6-4.5-16-12-16-27 0-2.8 2.2-5 5-5h20c2.7 0 4.8 2.1 5 4.7.5.6 1.9 1.7 4 3.3 6 4.5 16 12 16 27s-10 22.5-16 27c-1.8 1.4-3.1 2.4-3.7 3 .6.6 1.9 1.6 3.7 3 6 4.5 16 12 16 27 0 2.8-2.2 5-5 5zm-16.5-10h10.8c-1.8-6.8-7-10.7-11.4-14-5.1-3.8-8-6.2-8-11s2.9-7.2 8-11c5.3-4 12-9 12-19s-6.7-15-12-19c-3-2.2-5.2-4-6.5-6h-10.8c1.8 6.8 7 10.7 11.4 14 5.1 3.8 8 6.2 8 11s-2.9 7.2-8 11c-5.3 4-12 9-12 19s6.7 15 12 19c3 2.2 5.2 4 6.5 6z" fill="#4d2162"/></g></g><g id="XMLID_828_"><g id="XMLID_831_"><path id="XMLID_2553_" d="m74 183h-20c-2.8 0-5-2.2-5-5 0-15 10-22.5 16-27 1.8-1.4 3.1-2.4 3.7-3-.6-.6-1.9-1.6-3.7-3-6-4.5-16-12-16-27s10-22.5 16-27c2.1-1.6 3.5-2.7 4-3.3.2-2.6 2.3-4.7 5-4.7h20c2.8 0 5 2.2 5 5 0 15-10 22.5-16 27-1.8 1.4-3.1 2.4-3.7 3 .6.6 1.9 1.6 3.7 3 6 4.5 16 12 16 27s-10 22.5-16 27c-2.1 1.6-3.5 2.7-4 3.3-.2 2.6-2.4 4.7-5 4.7zm-14.4-10h10.8c1.3-2 3.6-3.8 6.5-6 5.3-4 12-9 12-19s-6.7-15-12-19c-5.1-3.8-8-6.2-8-11s2.9-7.2 8-11c4.4-3.3 9.6-7.2 11.4-14h-10.8c-1.3 2-3.6 3.8-6.5 6-5.3 4-12 9-12 19s6.7 15 12 19c5.1 3.8 8 6.2 8 11s-2.9 7.2-8 11c-4.4 3.3-9.6 7.2-11.4 14z" fill="#4d2162"/></g></g><g id="XMLID_829_"><g id="XMLID_830_"><path id="XMLID_2550_" d="m331 387h-20c-2.7 0-4.8-2.1-5-4.7-.5-.6-1.9-1.7-4-3.3-6-4.5-16-12-16-27s10-22.5 16-27c1.8-1.4 3.1-2.4 3.7-3-.6-.6-1.9-1.6-3.7-3-6-4.5-16-12-16-27 0-2.8 2.2-5 5-5h20c2.7 0 4.8 2.1 5 4.7.5.6 1.9 1.7 4 3.3 6 4.5 16 12 16 27s-10 22.5-16 27c-1.8 1.4-3.1 2.4-3.7 3 .6.6 1.9 1.6 3.7 3 6 4.5 16 12 16 27 0 2.8-2.2 5-5 5zm-16.5-10h10.8c-1.8-6.8-7-10.7-11.4-14-5.1-3.8-8-6.2-8-11s2.9-7.2 8-11c5.3-4 12-9 12-19s-6.7-15-12-19c-3-2.2-5.2-4-6.5-6h-10.8c1.8 6.8 7 10.7 11.4 14 5.1 3.8 8 6.2 8 11s-2.9 7.2-8 11c-5.3 4-12 9-12 19s6.7 15 12 19c3 2.2 5.2 4 6.5 6z" fill="#4d2162"/></g></g><g id="XMLID_1560_"><path id="XMLID_2497_" d="m135 286h-40c-1.7 0-3.3-.9-4.3-2.4-.9-1.5-1-3.3-.2-4.9l7.1-14.3c-55.2-9.6-97.6-64.9-97.6-131.4 0-73.3 51.6-133 115-133 25.2 0 49.1 9.2 69.1 26.7 19.5 17 33.6 40.1 40.8 67l-9.7 2.6c-13.8-51.6-54-86.3-100.2-86.3-57.9 0-105 55.2-105 123s47.1 123 105 123c3.1 0 6.2-.2 9.2-.5 2.1-.2 4 .9 5 2.7l10.3 20.5c.8 1.5.7 3.4-.2 4.9-1 1.5-2.6 2.4-4.3 2.4zm-31.9-10h23.8l-5.1-10.2c-4.5.3-9.1.3-13.6 0z" fill="#4d2162"/></g><g id="XMLID_353_"><path id="XMLID_2495_" d="m276 368.8h-40c-1.7 0-3.3-.9-4.3-2.4-.9-1.5-1-3.3-.2-4.9l10.2-20.5 8.9 4.5-6.6 13.3h23.8l-6.6-13.3 8.9-4.5 10.2 20.5c.8 1.5.7 3.4-.2 4.9-.8 1.5-2.4 2.4-4.1 2.4z" fill="#4d2162"/></g><g id="XMLID_360_"><path id="XMLID_2494_" d="m417 325h-40c-1.7 0-3.3-.9-4.3-2.4-.9-1.5-1-3.3-.2-4.9l10.3-20.5 8.9 4.5-6.6 13.3h23.8l-6.6-13.3 8.9-4.5 10.2 20.5c.8 1.5.7 3.4-.2 4.9s-2.5 2.4-4.2 2.4z" fill="#4d2162"/></g><g id="XMLID_359_"><path id="XMLID_2493_" d="m332.4 315.3-7.2-7c6.9-7.1 13.1-15.3 18.2-24.3l8.7 5c-5.6 9.7-12.2 18.5-19.7 26.3z" fill="#4d2162"/></g><g id="XMLID_357_"><path id="XMLID_2392_" d="m332.6 315.3-7.2-7c6.9-7.1 13-15.2 18-24.2l8.7 4.9c-5.5 9.8-12.1 18.6-19.5 26.3z" fill="#4d2162"/></g><g id="XMLID_1526_"><path id="XMLID_2388_" d="m397 305c-63.4 0-115-59.7-115-133s51.6-133 115-133c6.2 0 12.3.6 18.4 1.7l-1.8 9.8c-5.4-1-11-1.5-16.5-1.5-57.9 0-105 55.2-105 123s47.1 123 105 123 105-55.2 105-123c0-50.8-26-95.7-66.3-114.4l4.2-9.1c21.1 9.8 39.1 26.5 52 48.3 13 22.2 20 48.2 20 75.2 0 73.3-51.6 133-115 133z" fill="#4d2162"/></g><g id="XMLID_788_"><path id="XMLID_2387_" d="m256 349c-63.4 0-115-59.7-115-133s51.6-133 115-133c10.4 0 20.8 1.6 30.7 4.8l-3 9.5c-9-2.9-18.3-4.3-27.7-4.3-57.9 0-105 55.2-105 123s47.1 123 105 123c14.2 0 28-3.3 41-9.7l4.5 9c-14.4 7.1-29.7 10.7-45.5 10.7z" fill="#4d2162"/></g></g></g></svg>