<svg id="Layer_1" enable-background="new 0 0 512 512" height="512" viewBox="0 0 512 512" width="512" xmlns="http://www.w3.org/2000/svg"><g id="XMLID_1_"><g id="XMLID_5032_"><path id="XMLID_1500_" d="m241 361h30v146h-30z" fill="#9cd3fc"/><path id="XMLID_2052_" d="m241 361h15v146h-15z" fill="#cde9fe"/><path id="XMLID_8_" d="m241 361h30v40h-30z" fill="#6abdfb"/><circle id="XMLID_1498_" cx="144" cy="99" fill="#ffc970" r="69"/><circle id="XMLID_1497_" cx="144" cy="99" fill="#ffb233" r="49"/><g id="XMLID_1495_"><path id="XMLID_1952_" d="m139 45h10v108h-10z" fill="#ffc970" transform="matrix(.707 .707 -.707 .707 112.18 -72.827)"/></g><g id="XMLID_1494_"><path id="XMLID_1951_" d="m90 94h108v10h-108z" fill="#ffc970"/></g><g id="XMLID_1493_"><path id="XMLID_1950_" d="m90 94h108v10h-108z" fill="#ffc970" transform="matrix(.707 .707 -.707 .707 112.18 -72.827)"/></g><g id="XMLID_1496_"><path id="XMLID_1947_" d="m139 45h10v108h-10z" fill="#ffc970"/></g><path id="XMLID_1501_" d="m322.8 507h-133.6c-6.8 0-12.2-5.5-12.2-12.2 0-4.7 2.7-9.1 7-11.1l57-26.7h30l57 26.7c4.3 2 7 6.3 7 11.1 0 6.7-5.5 12.2-12.2 12.2z" fill="#6abdfb"/><path id="XMLID_2051_" d="m273 507h-83.7c-6.8 0-12.2-5.5-12.2-12.2 0-4.7 2.7-9.1 7-11.1l57-26.7h15l26.7 25.9c2.7 2.6 4.3 6.3 4.3 10.1-.1 7.7-6.4 14-14.1 14z" fill="#9cd3fc"/><path id="XMLID_1499_" d="m271 381h-30l-67.8-66.6c-57.8-56.7-69.8-145.4-29.2-215.4h224c40.6 70 28.6 158.7-29.2 215.4z" fill="#cde9fe"/><path id="XMLID_582_" d="m368 99h-23.1l5.8 10c36 62.1 25.4 140.8-25.9 191.1l-62 60.9h-13.6l-62-60.9c-51.3-50.3-61.9-128.9-25.9-191.1l5.8-10h-23.1c-40.6 70-28.6 158.7 29.2 215.4l67.8 66.6h30l67.8-66.6c57.8-56.7 69.8-145.4 29.2-215.4z" fill="#9cd3fc"/><g id="XMLID_1491_"><path id="XMLID_1492_" d="m293.7 234.4-19.4-4.7 51.1-209.4c2.2-9 10.2-15.3 19.4-15.3h92.2v20h-84.3c-4.6 0-8.6 3.2-9.7 7.6z" fill="#ffc970"/></g><path id="XMLID_1144_" d="m306.2 99-31.9 130.6 19.4 4.8 33.1-135.4z" fill="#ffb233"/><path id="XMLID_1490_" d="m140.5 199c2.6 37.3 18.5 73.5 46.7 101.1l62 60.9h13.6l62-60.9c28.2-27.7 44.1-63.8 46.7-101.1z" fill="#8b2d77"/><path id="XMLID_2019_" d="m187.2 300.1c22.1 21.7 57.6 21.7 79.7 0 28.2-27.7 44.1-63.8 46.7-101.1h-173.1c2.6 37.3 18.5 73.5 46.7 101.1z" fill="#b23998"/><g id="XMLID_1488_"><path id="XMLID_1489_" d="m231.2 206.1-14.1 14.1c-3.9 3.9-10.2 3.9-14.1 0l-14.1-14.1c-3.9-3.9-3.9-10.2 0-14.1l14.1-14.1c3.9-3.9 10.2-3.9 14.1 0l14.1 14.1c3.9 3.8 3.9 10.2 0 14.1z" fill="#6abdfb"/></g><g id="XMLID_1486_"><path id="XMLID_1487_" d="m260 283.1h-20c-5.5 0-10-4.5-10-10v-20c0-5.5 4.5-10 10-10h20c5.5 0 10 4.5 10 10v20c0 5.6-4.5 10-10 10z" fill="#6abdfb"/></g></g><g id="XMLID_4266_"><g id="XMLID_1141_"><path id="XMLID_4136_" d="m322.8 512h-133.6c-9.5 0-17.2-7.7-17.2-17.2 0-6.7 3.9-12.8 9.9-15.6l54.1-25.4v-70.7l-66.4-65.2c-59.4-58.3-71.7-149.4-30-221.5.9-1.5 2.5-2.5 4.3-2.5h224c1.8 0 3.4.9 4.3 2.5 41.8 72 29.4 163.1-30 221.5l-66.2 65.2v70.7l54.1 25.4c6 2.8 9.9 8.9 9.9 15.6 0 9.5-7.7 17.2-17.2 17.2zm-175.9-408c-37.8 67.7-25.7 152.3 29.7 206.8l67.8 66.6c1 .9 1.5 2.2 1.5 3.6v76c0 1.9-1.1 3.7-2.9 4.5l-57 26.7c-2.5 1.2-4.2 3.8-4.2 6.5 0 4 3.2 7.2 7.2 7.2h133.5c4 0 7.2-3.2 7.2-7.2 0-2.8-1.6-5.4-4.2-6.5l-57-26.7c-1.8-.8-2.9-2.6-2.9-4.5v-76c0-1.3.5-2.6 1.5-3.6l67.8-66.6c55.5-54.5 67.5-139.1 29.7-206.8z" fill="#4d2162"/></g><g id="XMLID_1680_"><path id="XMLID_4135_" d="m120 169c-29.9-10.2-50-38.4-50-70 0-40.8 33.2-74 74-74 16.2 0 31.6 5.1 44.5 14.9 12.5 9.4 21.8 22.8 26.3 37.7l-9.6 2.9c-8-26.8-33.2-45.5-61.2-45.5-35.3 0-64 28.7-64 64 0 27.4 17.4 51.7 43.3 60.6z" fill="#4d2162"/></g><g id="XMLID_1581_"><path id="XMLID_4134_" d="m123.6 149c-20.4-8.3-33.6-28-33.6-50 0-29.8 24.2-54 54-54s54 24.2 54 54h-10c0-24.3-19.7-44-44-44s-44 19.7-44 44c0 18 10.7 34 27.4 40.8z" fill="#4d2162"/></g><g id="XMLID_573_"><path id="XMLID_4133_" d="m139 50h10v49h-10z" fill="#4d2162"/></g><g id="XMLID_574_"><path id="XMLID_4132_" d="m139 50h10v98h-10z" fill="#4d2162" transform="matrix(.707 .707 -.707 .707 112.18 -72.827)"/></g><g id="XMLID_575_"><path id="XMLID_4131_" d="m95 94h49v10h-49z" fill="#4d2162"/></g><g id="XMLID_576_"><path id="XMLID_4130_" d="m102.2 76.7h49v10h-49z" fill="#4d2162" transform="matrix(.707 .707 -.707 .707 94.856 -65.651)"/></g><g id="XMLID_579_"><g id="XMLID_3_"><path id="XMLID_4127_" d="m210 228.1c-3.8 0-7.7-1.5-10.6-4.4l-14.1-14.1c-5.8-5.8-5.8-15.4 0-21.2l14.1-14.1c5.8-5.8 15.4-5.8 21.2 0l14.1 14.1c5.8 5.8 5.8 15.4 0 21.2l-14.1 14.1c-2.9 3-6.8 4.4-10.6 4.4zm0-48.2c-1.3 0-2.6.5-3.5 1.5l-14.1 14.1c-1.9 1.9-1.9 5.1 0 7.1l14.1 14.1c1.9 2 5.1 2 7.1 0l14.1-14.1c1.9-1.9 1.9-5.1 0-7.1l-14.1-14.1c-1-1.1-2.3-1.5-3.6-1.5z" fill="#4d2162"/></g></g><g id="XMLID_578_"><g id="XMLID_580_"><path id="XMLID_4121_" d="m260 288.1h-20c-8.3 0-15-6.7-15-15v-20c0-8.3 6.7-15 15-15h20c8.3 0 15 6.7 15 15v20c0 8.3-6.7 15-15 15zm-20-40c-2.8 0-5 2.2-5 5v20c0 2.8 2.2 5 5 5h20c2.8 0 5-2.2 5-5v-20c0-2.8-2.2-5-5-5z" fill="#4d2162"/></g></g><g id="XMLID_569_"><path id="XMLID_2489_" d="m262.8 366h-13.6c-1.3 0-2.6-.5-3.5-1.4l-62-60.9c-28.3-27.8-45.4-64.8-48.2-104.3-.1-1.4.4-2.7 1.3-3.8s2.3-1.6 3.7-1.6h45.5v10h-40.1c3.7 35.1 19.5 67.7 44.7 92.5l60.6 59.5h9.6l60.6-59.5c25.3-24.8 41-57.5 44.7-92.5h-132.1v-10h137.5c1.4 0 2.7.6 3.7 1.6.9 1 1.4 2.4 1.3 3.8-2.8 39.5-19.9 76.6-48.2 104.3l-62 60.9c-.9.9-2.2 1.4-3.5 1.4z" fill="#4d2162"/></g><g id="XMLID_571_"><g id="XMLID_581_"><path id="XMLID_2488_" d="m286.6 200.2-9.7-2.4 43.7-178.7c2.7-11.3 12.7-19.1 24.3-19.1h92.1c2.8 0 5 2.2 5 5v20c0 2.8-2.2 5-5 5h-84.3c-2.3 0-4.3 1.6-4.9 3.8l-35.7 146.4-9.7-2.4 35.7-146.4c1.6-6.7 7.6-11.4 14.6-11.4h79.3v-10h-87.1c-6.9 0-12.9 4.7-14.6 11.4z" fill="#4d2162"/></g></g></g></g></svg>