<svg id="Layer_1" enable-background="new 0 0 512 512" height="512" viewBox="0 0 512 512" width="512" xmlns="http://www.w3.org/2000/svg"><g id="XMLID_1_"><g id="XMLID_5046_"><path id="XMLID_1544_" d="m487 437h-462c-11 0-20-9-20-20v-322c0-11 9-20 20-20h462c11 0 20 9 20 20v322c0 11-9 20-20 20z" fill="#4893cc"/><path id="XMLID_2331_" d="m477 417h-442c-5.5 0-10-4.5-10-10v-302c0-5.5 4.5-10 10-10h442c5.5 0 10 4.5 10 10v302c0 5.5-4.5 10-10 10z" fill="#3179af"/><circle id="XMLID_2302_" cx="105" cy="246" fill="#265e87" r="90"/><circle id="XMLID_2305_" cx="407" cy="246" fill="#265e87" r="90"/><circle id="XMLID_1454_" cx="105" cy="246" fill="#b23998" r="80"/><path id="XMLID_2276_" d="m105 246-32.2-73.2c-8.8 3.9-17.1 9.4-24.3 16.6s-12.8 15.5-16.6 24.3l73.1 32.3 32.2 73.2c8.8-3.9 17.1-9.4 24.3-16.6s12.8-15.5 16.6-24.3z" fill="#c955b0"/><circle id="XMLID_1453_" cx="105" cy="246" fill="#8b2d77" r="30"/><circle id="XMLID_1452_" cx="105" cy="246" fill="#b23998" r="15"/><path id="XMLID_1451_" d="m25 347h160v70h-160z" fill="#ffc970"/><g id="XMLID_1450_"><path id="XMLID_2642_" d="m25 377h160v10h-160z" fill="#ffb233"/></g><g id="XMLID_1449_"><path id="XMLID_2641_" d="m60 347h10v70h-10z" fill="#ffb233"/></g><g id="XMLID_1448_"><path id="XMLID_2640_" d="m100 347h10v70h-10z" fill="#ffb233"/></g><g id="XMLID_1447_"><path id="XMLID_2639_" d="m140 347h10v70h-10z" fill="#ffb233"/></g><circle id="XMLID_1446_" cx="407" cy="246" fill="#b23998" r="80"/><path id="XMLID_2303_" d="m407 246-32.2-73.2c-8.8 3.9-17.1 9.4-24.3 16.6s-12.8 15.5-16.6 24.3l73.1 32.3 32.2 73.2c8.8-3.9 17.1-9.4 24.3-16.6s12.8-15.5 16.6-24.3z" fill="#c955b0"/><circle id="XMLID_1445_" cx="407" cy="246" fill="#8b2d77" r="30"/><circle id="XMLID_1444_" cx="407" cy="246" fill="#b23998" r="15"/><path id="XMLID_1443_" d="m327 347h160v70h-160z" fill="#ffc970"/><g id="XMLID_1442_"><path id="XMLID_2638_" d="m327 377h160v10h-160z" fill="#ffb233"/></g><g id="XMLID_1441_"><path id="XMLID_2637_" d="m362 347h10v70h-10z" fill="#ffb233"/></g><g id="XMLID_1440_"><path id="XMLID_2636_" d="m402 347h10v70h-10z" fill="#ffb233"/></g><g id="XMLID_1439_"><path id="XMLID_2635_" d="m442 347h10v70h-10z" fill="#ffb233"/></g><g id="XMLID_1426_"><g id="XMLID_1437_"><path id="XMLID_1438_" d="m209 186h10v140h-10z" fill="#265e87"/></g><g id="XMLID_1431_"><path id="XMLID_1436_" d="m237 186h10v140h-10z" fill="#265e87"/></g><g id="XMLID_1432_"><path id="XMLID_1435_" d="m265 186h10v140h-10z" fill="#265e87"/></g><g id="XMLID_1433_"><path id="XMLID_1434_" d="m293 186h10v140h-10z" fill="#265e87"/></g><g fill="#9cd3fc"><path id="XMLID_1430_" d="m260 276h20v20h-20z"/><path id="XMLID_1429_" d="m232 246h20v20h-20z"/><path id="XMLID_1428_" d="m204 216h20v20h-20z"/><path id="XMLID_1427_" d="m288 216h20v20h-20z"/></g></g><path id="XMLID_1425_" d="m195 95h122v50h-122z" fill="#ffc970"/><path id="XMLID_2362_" d="m195 95h122v20h-122z" fill="#ffb233"/><g fill="#9cd3fc"><circle id="XMLID_1424_" cx="59" cy="120" r="15"/><circle id="XMLID_1423_" cx="105" cy="120" r="15"/><circle id="XMLID_1422_" cx="151" cy="120" r="15"/></g><g id="XMLID_1421_"><path id="XMLID_1937_" d="m46.2 109.7h15v10h-15z" fill="#6abdfb" transform="matrix(.707 .707 -.707 .707 96.83 -4.375)"/></g><g id="XMLID_1420_"><path id="XMLID_1936_" d="m100 105h10v15h-10z" fill="#6abdfb"/></g><g id="XMLID_1419_"><path id="XMLID_1935_" d="m138.2 109.7h15v10h-15z" fill="#6abdfb" transform="matrix(.707 .707 -.707 .707 123.777 -69.429)"/></g><circle id="XMLID_1418_" cx="361" cy="120" fill="#9cd3fc" r="15"/><circle id="XMLID_1417_" cx="407" cy="120" fill="#9cd3fc" r="15"/><circle id="XMLID_1416_" cx="453" cy="120" fill="#9cd3fc" r="15"/><g id="XMLID_1415_"><path id="XMLID_2266_" d="m361 115h15v10h-15z" fill="#6abdfb"/></g><g id="XMLID_1414_"><path id="XMLID_2265_" d="m402 105h10v15h-10z" fill="#6abdfb"/></g><g id="XMLID_1413_"><path id="XMLID_2264_" d="m453.3 107.2h10v15h-10z" fill="#6abdfb" transform="matrix(.707 .707 -.707 .707 215.365 -290.492)"/></g></g><g id="XMLID_4280_"><g id="XMLID_4_"><path id="XMLID_4262_" d="m487 442h-462c-13.8 0-25-11.2-25-25v-322c0-13.8 11.2-25 25-25h462c13.8 0 25 11.2 25 25v322c0 13.8-11.2 25-25 25zm-462-362c-8.3 0-15 6.7-15 15v322c0 8.3 6.7 15 15 15h462c8.3 0 15-6.7 15-15v-322c0-8.3-6.7-15-15-15z" fill="#4d2162"/></g><g id="XMLID_1752_"><path id="XMLID_4039_" d="m105 331c-46.9 0-85-38.1-85-85s38.1-85 85-85 85 38.1 85 85c0 38.8-26.2 72.7-63.8 82.3l-2.5-9.7c33.1-8.5 56.2-38.4 56.2-72.6 0-41.4-33.6-75-75-75s-75 33.6-75 75 33.6 75 75 75v10z" fill="#4d2162"/></g><g id="XMLID_388_"><path id="XMLID_4036_" d="m105 281c-19.3 0-35-15.7-35-35s15.7-35 35-35 35 15.7 35 35-15.7 35-35 35zm0-60c-13.8 0-25 11.2-25 25s11.2 25 25 25 25-11.2 25-25-11.2-25-25-25z" fill="#4d2162"/></g><g id="XMLID_389_"><path id="XMLID_4033_" d="m105 266c-11 0-20-9-20-20s9-20 20-20 20 9 20 20-9 20-20 20zm0-30c-5.5 0-10 4.5-10 10s4.5 10 10 10 10-4.5 10-10-4.5-10-10-10z" fill="#4d2162"/></g><g id="XMLID_20_"><path id="XMLID_4030_" d="m185 422h-160c-2.8 0-5-2.2-5-5v-70c0-2.8 2.2-5 5-5h160c2.8 0 5 2.2 5 5v70c0 2.8-2.2 5-5 5zm-155-10h150v-60h-150z" fill="#4d2162"/></g><g id="XMLID_92_"><path id="XMLID_4029_" d="m25 377h160v10h-160z" fill="#4d2162"/></g><g id="XMLID_390_"><path id="XMLID_4028_" d="m60 347h10v70h-10z" fill="#4d2162"/></g><g id="XMLID_392_"><path id="XMLID_4027_" d="m100 347h10v70h-10z" fill="#4d2162"/></g><g id="XMLID_393_"><path id="XMLID_4026_" d="m140 347h10v70h-10z" fill="#4d2162"/></g><g id="XMLID_412_"><path id="XMLID_4023_" d="m407 331c-46.9 0-85-38.1-85-85s38.1-85 85-85 85 38.1 85 85-38.1 85-85 85zm0-160c-41.4 0-75 33.6-75 75s33.6 75 75 75 75-33.6 75-75-33.6-75-75-75z" fill="#4d2162"/></g><g id="XMLID_411_"><path id="XMLID_4020_" d="m407 281c-19.3 0-35-15.7-35-35s15.7-35 35-35 35 15.7 35 35-15.7 35-35 35zm0-60c-13.8 0-25 11.2-25 25s11.2 25 25 25 25-11.2 25-25-11.2-25-25-25z" fill="#4d2162"/></g><g id="XMLID_410_"><path id="XMLID_3924_" d="m407 266c-11 0-20-9-20-20s9-20 20-20 20 9 20 20-9 20-20 20zm0-30c-5.5 0-10 4.5-10 10s4.5 10 10 10 10-4.5 10-10-4.5-10-10-10z" fill="#4d2162"/></g><g id="XMLID_409_"><path id="XMLID_3921_" d="m487 422h-160c-2.8 0-5-2.2-5-5v-70c0-2.8 2.2-5 5-5h160c2.8 0 5 2.2 5 5v70c0 2.8-2.2 5-5 5zm-155-10h150v-60h-150z" fill="#4d2162"/></g><g id="XMLID_408_"><path id="XMLID_3920_" d="m327 377h160v10h-160z" fill="#4d2162"/></g><g id="XMLID_407_"><path id="XMLID_3919_" d="m362 347h10v70h-10z" fill="#4d2162"/></g><g id="XMLID_406_"><path id="XMLID_3918_" d="m402 347h10v70h-10z" fill="#4d2162"/></g><g id="XMLID_396_"><path id="XMLID_3917_" d="m442 347h10v70h-10z" fill="#4d2162"/></g><g id="XMLID_5_"><g id="XMLID_416_"><path id="XMLID_3916_" d="m209 186h10v30h-10z" fill="#4d2162"/></g><g id="XMLID_13_"><path id="XMLID_3915_" d="m209 236h10v90h-10z" fill="#4d2162"/></g><g id="XMLID_17_"><path id="XMLID_3914_" d="m293 186h10v30h-10z" fill="#4d2162"/></g><g id="XMLID_16_"><path id="XMLID_3913_" d="m293 236h10v90h-10z" fill="#4d2162"/></g><g id="XMLID_417_"><path id="XMLID_3912_" d="m237 186h10v60h-10z" fill="#4d2162"/></g><g id="XMLID_18_"><path id="XMLID_3911_" d="m237 266h10v60h-10z" fill="#4d2162"/></g><g id="XMLID_419_"><path id="XMLID_3910_" d="m265 186h10v90h-10z" fill="#4d2162"/></g><g id="XMLID_19_"><path id="XMLID_3909_" d="m265 296h10v30h-10z" fill="#4d2162"/></g><g id="XMLID_394_"><path id="XMLID_3906_" d="m280 301h-20c-2.8 0-5-2.2-5-5v-20c0-2.8 2.2-5 5-5h20c2.8 0 5 2.2 5 5v20c0 2.8-2.2 5-5 5zm-15-10h10v-10h-10z" fill="#4d2162"/></g><g id="XMLID_421_"><path id="XMLID_3903_" d="m252 271h-20c-2.8 0-5-2.2-5-5v-20c0-2.8 2.2-5 5-5h20c2.8 0 5 2.2 5 5v20c0 2.8-2.2 5-5 5zm-15-10h10v-10h-10z" fill="#4d2162"/></g><g id="XMLID_422_"><path id="XMLID_3900_" d="m224 241h-20c-2.8 0-5-2.2-5-5v-20c0-2.8 2.2-5 5-5h20c2.8 0 5 2.2 5 5v20c0 2.8-2.2 5-5 5zm-15-10h10v-10h-10z" fill="#4d2162"/></g><g id="XMLID_423_"><path id="XMLID_3897_" d="m308 241h-20c-2.8 0-5-2.2-5-5v-20c0-2.8 2.2-5 5-5h20c2.8 0 5 2.2 5 5v20c0 2.8-2.2 5-5 5zm-15-10h10v-10h-10z" fill="#4d2162"/></g></g><g id="XMLID_24_"><path id="XMLID_3896_" d="m298 150h-103c-2.8 0-5-2.2-5-5v-50c0-2.8 2.2-5 5-5h122c2.8 0 5 2.2 5 5v50h-10v-45h-112v40h98z" fill="#4d2162"/></g><g id="XMLID_424_"><path id="XMLID_3893_" d="m59 140c-11 0-20-9-20-20s9-20 20-20 20 9 20 20-9 20-20 20zm0-30c-5.5 0-10 4.5-10 10s4.5 10 10 10 10-4.5 10-10-4.5-10-10-10z" fill="#4d2162"/></g><g id="XMLID_427_"><path id="XMLID_3890_" d="m105 140c-11 0-20-9-20-20s9-20 20-20 20 9 20 20-9 20-20 20zm0-30c-5.5 0-10 4.5-10 10s4.5 10 10 10 10-4.5 10-10-4.5-10-10-10z" fill="#4d2162"/></g><g id="XMLID_428_"><path id="XMLID_3887_" d="m151 140c-11 0-20-9-20-20s9-20 20-20 20 9 20 20-9 20-20 20zm0-30c-5.5 0-10 4.5-10 10s4.5 10 10 10 10-4.5 10-10-4.5-10-10-10z" fill="#4d2162"/></g><g id="XMLID_425_"><path id="XMLID_3886_" d="m46.2 109.7h15v10h-15z" fill="#4d2162" transform="matrix(.707 .707 -.707 .707 96.83 -4.375)"/></g><g id="XMLID_432_"><path id="XMLID_3885_" d="m100 105h10v15h-10z" fill="#4d2162"/></g><g id="XMLID_433_"><path id="XMLID_3884_" d="m138.2 109.7h15v10h-15z" fill="#4d2162" transform="matrix(.707 .707 -.707 .707 123.777 -69.429)"/></g><g id="XMLID_439_"><path id="XMLID_3881_" d="m361 140c-11 0-20-9-20-20s9-20 20-20 20 9 20 20-9 20-20 20zm0-30c-5.5 0-10 4.5-10 10s4.5 10 10 10 10-4.5 10-10-4.5-10-10-10z" fill="#4d2162"/></g><g id="XMLID_438_"><path id="XMLID_3878_" d="m407 140c-11 0-20-9-20-20s9-20 20-20 20 9 20 20-9 20-20 20zm0-30c-5.5 0-10 4.5-10 10s4.5 10 10 10 10-4.5 10-10-4.5-10-10-10z" fill="#4d2162"/></g><g id="XMLID_437_"><path id="XMLID_3875_" d="m453 140c-11 0-20-9-20-20s9-20 20-20 20 9 20 20-9 20-20 20zm0-30c-5.5 0-10 4.5-10 10s4.5 10 10 10 10-4.5 10-10-4.5-10-10-10z" fill="#4d2162"/></g><g id="XMLID_431_"><path id="XMLID_3874_" d="m361 115h15v10h-15z" fill="#4d2162"/></g><g id="XMLID_430_"><path id="XMLID_3873_" d="m402 105h10v15h-10z" fill="#4d2162"/></g><g id="XMLID_429_"><path id="XMLID_3872_" d="m453.3 107.2h10v15h-10z" fill="#4d2162" transform="matrix(.707 .707 -.707 .707 215.365 -290.492)"/></g></g></g></svg>