<svg id="Layer_1" enable-background="new 0 0 512 512" height="512" viewBox="0 0 512 512" width="512" xmlns="http://www.w3.org/2000/svg"><g id="XMLID_1_"><g id="XMLID_5088_"><path id="XMLID_1468_" d="m447 107h-382l60 400h382z" fill="#9cd3fc"/><path id="XMLID_1469_" d="m65 107h382l-60 400h-382z" fill="#cde9fe"/><path id="XMLID_1508_" d="m127 297c0-11-9-20-20-20 11 0 20-9 20-20 0 11 9 20 20 20-11 0-20 9-20 20z" fill="#ffb233"/><path id="XMLID_1507_" d="m267 477c0-11-9-20-20-20 11 0 20-9 20-20 0 11 9 20 20 20-11 0-20 9-20 20z" fill="#ffb233"/><path id="XMLID_1467_" d="m429 227 18-120h-382l-18 120z" fill="#d84861"/><circle id="XMLID_1462_" cx="167" cy="167" fill="#6abdfb" r="25"/><circle id="XMLID_1461_" cx="327" cy="167" fill="#6abdfb" r="25"/><path id="XMLID_1466_" d="m276 91c0-36.4 26.9-66 60-66s60 29.6 60 66c0 5.5-.6 10.9-1.8 16h20.4c.9-5.2 1.4-10.5 1.4-16 0-47.4-35.9-86-80-86s-80 38.6-80 86c0 43.3 29.9 79.2 68.6 85.1 6 .9 11.4-3.8 11.4-9.9 0-5-3.7-9.1-8.6-9.9-29-4.6-51.4-32.1-51.4-65.3z" fill="#9cd3fc"/><path id="XMLID_1465_" d="m116 91c0-36.4 26.9-66 60-66s60 29.6 60 66c0 5.5-.6 10.9-1.8 16h20.4c.9-5.2 1.4-10.5 1.4-16 0-47.4-35.9-86-80-86s-80 38.6-80 86c0 43.3 29.9 79.2 68.6 85.1 6 .9 11.4-3.8 11.4-9.9 0-5-3.7-9.1-8.6-9.9-29-4.6-51.4-32.1-51.4-65.3z" fill="#9cd3fc"/><path id="XMLID_1464_" d="m447 447-60 60h120z" fill="#6abdfb"/><path id="XMLID_1460_" d="m107 477 154-77-77-77z" fill="#b23998"/><path id="XMLID_1567_" d="m153 454 10-5v-84l-10 20z" fill="#ffc970"/><path id="XMLID_1568_" d="m205 428 10-5v-69l-10-10z" fill="#ffc970"/><g id="XMLID_1457_"><path id="XMLID_2837_" d="m284.5 241.5h10v106.1h-10z" fill="#d84861" transform="matrix(.707 .707 -.707 .707 293.036 -118.45)"/></g><g id="XMLID_1456_"><path id="XMLID_2836_" d="m224.5 316.9-9-4.3 18.8-39.7c.5-1 .7-2.2.7-3.3 0-4.2-3.4-7.7-7.7-7.7-4.6 0-8.3 3.7-8.3 8.3v4.7h-10v-4.7c0-10.1 8.2-18.3 18.3-18.3 9.7 0 17.7 7.9 17.7 17.7 0 2.6-.6 5.2-1.7 7.6z" fill="#d84861"/></g><g id="XMLID_1455_"><path id="XMLID_2835_" d="m263.6 371.1-5.7-8.2 31.5-21.6c7.8-5.4 17-8.2 26.5-8.2 8.8 0 16 7.2 16 16s-7.2 16-16 16h-9v-10h9c3.3 0 6-2.7 6-6s-2.7-6-6-6c-7.5 0-14.7 2.2-20.9 6.5z" fill="#d84861"/></g><path id="XMLID_818_" d="m415.9 87h-20c.1 1.3.1 2.7.1 4 0 5.5-.6 10.9-1.8 16h20.4c.9-5.2 1.4-10.5 1.4-16 0-1.3 0-2.7-.1-4z" fill="#6abdfb"/><path id="XMLID_819_" d="m255.9 87h-20c.1 1.3.1 2.7.1 4 0 5.5-.6 10.9-1.8 16h20.4c.9-5.2 1.4-10.5 1.4-16 0-1.3 0-2.7-.1-4z" fill="#6abdfb"/><g fill="#cde9fe"><path id="XMLID_824_" d="m170.5 5.2c-29 2.1-53.9 21-66.2 47.6 4.5 5.1 10.3 9.1 16.8 11.4 9.4-23 30.5-39.2 54.9-39.2-.1-7.2-2.1-13.9-5.5-19.8z"/><path id="XMLID_816_" d="m330.5 5.2c-29 2.1-53.9 21-66.2 47.6 4.5 5.1 10.3 9.1 16.8 11.4 9.4-23 30.5-39.2 54.9-39.2-.1-7.2-2.1-13.9-5.5-19.8z"/></g></g><g id="XMLID_4737_"><g id="XMLID_15_"><path id="XMLID_4218_" d="m127 302c-2.8 0-5-2.2-5-5 0-8.3-6.7-15-15-15-2.8 0-5-2.2-5-5s2.2-5 5-5c8.3 0 15-6.7 15-15 0-2.8 2.2-5 5-5s5 2.2 5 5c0 8.3 6.7 15 15 15 2.8 0 5 2.2 5 5s-2.2 5-5 5c-8.3 0-15 6.7-15 15 0 2.8-2.2 5-5 5zm-5-25c1.9 1.4 3.6 3.1 5 5 1.4-1.9 3.1-3.6 5-5-1.9-1.4-3.6-3.1-5-5-1.4 1.9-3.1 3.6-5 5z" fill="#4d2162"/></g><g id="XMLID_383_"><path id="XMLID_4215_" d="m267 482c-2.8 0-5-2.2-5-5 0-8.3-6.7-15-15-15-2.8 0-5-2.2-5-5s2.2-5 5-5c8.3 0 15-6.7 15-15 0-2.8 2.2-5 5-5s5 2.2 5 5c0 8.3 6.7 15 15 15 2.8 0 5 2.2 5 5s-2.2 5-5 5c-8.3 0-15 6.7-15 15 0 2.8-2.2 5-5 5zm-5-25c1.9 1.4 3.6 3.1 5 5 1.4-1.9 3.1-3.6 5-5-1.9-1.4-3.6-3.1-5-5-1.4 1.9-3.1 3.6-5 5z" fill="#4d2162"/></g><g id="XMLID_1594_"><path id="XMLID_4059_" d="m274.8 302h404.5v10h-404.5z" fill="#4d2162" transform="matrix(.148 .989 -.989 .148 709.845 -210.263)"/></g><g id="XMLID_1195_"><path id="XMLID_4058_" d="m67 222h362v10h-362z" fill="#4d2162"/></g><g id="XMLID_1193_"><path id="XMLID_4057_" d="m326.1 181.2c-.7 0-1.5-.1-2.2-.2-41.6-6.3-72.9-45-72.9-90 0-50.2 38.1-91 85-91s85 40.8 85 91c0 5.6-.5 11.3-1.5 16.9l-9.8-1.7c.9-5 1.3-10.1 1.3-15.1 0-44.7-33.6-81-75-81s-75 36.3-75 81c0 40.1 27.7 74.5 64.4 80.2 1.9.3 3.2-.6 3.9-1.1 1.1-1 1.8-2.4 1.8-3.8 0-2.5-1.8-4.6-4.4-5-31.8-5.1-55.7-35.4-55.7-70.4 0-39.1 29.2-71 65-71 34.3 0 62.8 29.3 64.9 66.7l-10 .5c-1.8-32-25.9-57.2-54.9-57.2-30.3 0-55 27.4-55 61 0 30.2 20.3 56.1 47.2 60.4 7.4 1.2 12.8 7.4 12.8 14.8 0 4.4-1.9 8.6-5.3 11.4-2.7 2.4-6.1 3.6-9.6 3.6z" fill="#4d2162"/></g><g id="XMLID_1192_"><path id="XMLID_4054_" d="m166.1 181.2c-.7 0-1.5-.1-2.2-.2-41.6-6.3-72.9-45-72.9-90 0-50.2 38.1-91 85-91s85 40.8 85 91c0 5.6-.5 11.3-1.5 16.9-.4 2.4-2.5 4.1-4.9 4.1h-20.4c-1.5 0-3-.7-3.9-1.9s-1.3-2.7-1-4.2c1.1-4.9 1.7-9.9 1.7-14.9 0-33.6-24.7-61-55-61s-55 27.4-55 61c0 30.2 20.3 56.1 47.2 60.4 7.4 1.2 12.8 7.4 12.8 14.8 0 4.4-1.9 8.6-5.3 11.4-2.7 2.4-6.1 3.6-9.6 3.6zm9.9-171.2c-41.4 0-75 36.3-75 81 0 40.1 27.7 74.5 64.4 80.2 1.9.3 3.2-.6 3.9-1.1 1.1-1 1.8-2.4 1.8-3.8 0-2.5-1.8-4.6-4.4-5-31.8-5-55.7-35.3-55.7-70.3 0-39.1 29.2-71 65-71s65 31.9 65 71c0 3.7-.3 7.4-.8 11h10.1c.5-3.7.7-7.4.7-11 0-44.7-33.6-81-75-81z" fill="#4d2162"/></g><g id="XMLID_1191_"><path id="XMLID_4051_" d="m507 512h-120c-2 0-3.8-1.2-4.6-3.1s-.3-4 1.1-5.4l60-60c2-2 5.1-2 7.1 0l60 60c1.4 1.4 1.9 3.6 1.1 5.4-.9 1.9-2.7 3.1-4.7 3.1zm-107.9-10h95.9l-48-47.9z" fill="#4d2162"/></g><g id="XMLID_1190_"><path id="XMLID_4050_" d="m396 442h51v10h-51z" fill="#4d2162"/></g><g id="XMLID_2500_"><path id="XMLID_4049_" d="m167 197c-15.6 0-28.8-12.2-29.9-27.7l10-.7c.8 10.4 9.5 18.5 19.9 18.5 11 0 20-9 20-20s-9-20-20-20c-5.6 0-10.7 2.2-14.5 6.3l-7.3-6.9c5.6-6 13.6-9.4 21.8-9.4 16.5 0 30 13.5 30 30s-13.5 29.9-30 29.9z" fill="#4d2162"/></g><g id="XMLID_1189_"><path id="XMLID_4048_" d="m327 197c-15.6 0-28.8-12.2-29.9-27.8l10-.7c.8 10.4 9.5 18.5 19.9 18.5 11 0 20-9 20-20s-9-20-20-20c-5.6 0-10.7 2.2-14.5 6.3l-7.3-6.9c5.6-6 13.6-9.4 21.8-9.4 16.5 0 30 13.5 30 30s-13.5 30-30 30z" fill="#4d2162"/></g><g id="XMLID_23_"><path id="XMLID_4045_" d="m107 482c-1.3 0-2.6-.5-3.5-1.5-1.5-1.5-1.9-3.8-.9-5.8l77-154c.7-1.4 2.1-2.4 3.7-2.7s3.2.3 4.3 1.4l77 77c1.1 1.1 1.7 2.8 1.4 4.3s-1.3 3-2.7 3.7l-154 77c-.8.4-1.5.6-2.3.6zm78.4-150.6-67.2 134.4 134.4-67.2z" fill="#4d2162"/></g><g id="XMLID_10_"><path id="XMLID_4044_" d="m153 375h10v76h-10z" fill="#4d2162"/></g><g id="XMLID_11_"><path id="XMLID_4043_" d="m205 349h10v76h-10z" fill="#4d2162"/></g><g id="XMLID_6_"><path id="XMLID_4042_" d="m284.5 241.5h10v106.1h-10z" fill="#4d2162" transform="matrix(.707 .707 -.707 .707 293.036 -118.45)"/></g><g id="XMLID_9_"><path id="XMLID_4041_" d="m224.5 316.9-9-4.3 18.8-39.7c.5-1 .7-2.2.7-3.3 0-4.2-3.4-7.7-7.7-7.7-4.6 0-8.3 3.7-8.3 8.3v4.7h-10v-4.7c0-10.1 8.2-18.3 18.3-18.3 9.7 0 17.7 7.9 17.7 17.7 0 2.6-.6 5.2-1.7 7.6z" fill="#4d2162"/></g><g id="XMLID_12_"><path id="XMLID_4040_" d="m263.6 371.1-5.7-8.2 31.5-21.6c7.8-5.4 17-8.2 26.5-8.2 8.8 0 16 7.2 16 16s-7.2 16-16 16h-9v-10h9c3.3 0 6-2.7 6-6s-2.7-6-6-6c-7.5 0-14.7 2.2-20.9 6.5z" fill="#4d2162"/></g><g id="XMLID_1621_"><path id="XMLID_2487_" d="m387 512h-382c-1.5 0-2.8-.6-3.8-1.7s-1.4-2.6-1.2-4l60-400c.4-2.4 2.5-4.3 4.9-4.3h32.4v10h-28l-58.5 390h371.9l58.5-390h-163.4v-10h169.2c1.5 0 2.8.6 3.8 1.7s1.4 2.6 1.2 4l-60 400c-.4 2.5-2.5 4.3-5 4.3z" fill="#4d2162"/></g><g id="XMLID_1196_"><path id="XMLID_2486_" d="m117.8 102h139.6v10h-139.6z" fill="#4d2162"/></g></g></g></svg>