<svg id="Layer_1" enable-background="new 0 0 512 512" height="512" viewBox="0 0 512 512" width="512" xmlns="http://www.w3.org/2000/svg"><g id="XMLID_1_"><g id="XMLID_5102_"><path id="XMLID_1256_" d="m69 5c11.8 0 23.3 3.3 33.2 9.6l47.8 30.4v50h-81c-24.9 0-45-20.1-45-45 0-24.9 20.1-45 45-45z" fill="#d84861"/><path id="XMLID_1254_" d="m231 5c-11.8 0-23.3 3.3-33.2 9.6l-47.8 30.4v50h81c24.9 0 45-20.1 45-45 0-24.9-20.1-45-45-45z" fill="#d84861"/><path id="XMLID_1539_" d="m276 507h-242c-5.5 0-10-4.5-10-10v-402h252z" fill="#ffc970"/><path id="XMLID_1959_" d="m24 95h252v91h-252z" fill="#ffb233"/><path id="XMLID_1541_" d="m285 166h-270c-5.5 0-10-4.5-10-10v-51c0-5.5 4.5-10 10-10h270c5.5 0 10 4.5 10 10v51c0 5.5-4.5 10-10 10z" fill="#ffc970"/><path id="XMLID_1569_" d="m276 121.2c-33.5 2.5-60 30.6-60 64.8v1.2.6c.2 8.7 2 17 5.3 24.6-14.6 2.4-25.3 14.1-25.3 28.5v51c0 12.3 8.1 23.5 19 28.4v176.7c0 3.5.6 6.8 1.8 10h59.2z" fill="#ffb233"/><path id="XMLID_1557_" d="m295 156v-33.7c-4.7-.8-9.4-1.3-14.2-1.3-28.8 0-53.2 18.9-61.7 45h65.9c5.5 0 10-4.5 10-10z" fill="#ffb233"/><path id="XMLID_1538_" d="m125 95h50v412h-50z" fill="#d84861"/><path id="XMLID_1518_" d="m78 95h47l-8-26.6-13-7.9c-11.1-6.9-23.9-10.5-37-10.5-9.4 0-17 7.6-17 17 0 15.5 12.5 28 28 28z" fill="#c12944"/><path id="XMLID_1994_" d="m222 95h-47l8-26.6 12.9-7.9c11.1-6.8 24-10.5 37-10.5 9.4 0 17 7.6 17 17 .1 15.5-12.4 28-27.9 28z" fill="#c12944"/><path id="XMLID_1991_" d="m125 166h50v20h-50z" fill="#c12944"/><path id="XMLID_1543_" d="m478 507h-232c-5.5 0-10-4.5-10-10v-266h252v266c0 5.5-4.5 10-10 10z" fill="#9cd3fc"/><path id="XMLID_1920_" d="m236 231h252v91h-252z" fill="#6abdfb"/><path id="XMLID_1540_" d="m497 302h-270c-5.5 0-10-4.5-10-10v-51c0-5.5 4.5-10 10-10h270c5.5 0 10 4.5 10 10v51c0 5.5-4.5 10-10 10z" fill="#9cd3fc"/><g fill="#d84861"><path id="XMLID_1542_" d="m337 231h50v276h-50z"/><path id="XMLID_1261_" d="m281 141c11.8 0 23.3 3.3 33.2 9.6l47.8 30.4v50h-81c-24.9 0-45-20.1-45-45 0-24.9 20.1-45 45-45z"/><path id="XMLID_1259_" d="m443 141c-11.8 0-23.3 3.3-33.2 9.6l-47.8 30.4v50h81c24.9 0 45-20.1 45-45 0-24.9-20.1-45-45-45z"/></g><path id="XMLID_495_" d="m337 302h50v20h-50z" fill="#c12944"/><path id="XMLID_1257_" d="m150 45c-19.3 0-35 15.7-35 35v15h70v-15c0-19.3-15.7-35-35-35z" fill="#e17084"/><path id="XMLID_1996_" d="m290 231h47l-8-26.6-12.9-7.9c-11.1-6.8-24-10.5-37-10.5-9.4 0-17 7.6-17 17-.1 15.5 12.4 28 27.9 28z" fill="#c12944"/><path id="XMLID_1685_" d="m434 231h-47l8-26.6 12.9-7.9c11.1-6.8 24-10.5 37-10.5 9.4 0 17 7.6 17 17 .1 15.5-12.4 28-27.9 28z" fill="#c12944"/><path id="XMLID_1537_" d="m362 181c-19.3 0-35 15.7-35 35v15h70v-15c0-19.3-15.7-35-35-35z" fill="#e17084"/></g><g id="XMLID_4751_"><g id="XMLID_2023_"><path id="XMLID_4261_" d="m478 512h-232c-8.3 0-15-6.7-15-15v-195h10v195c0 2.8 2.2 5 5 5h232c2.8 0 5-2.2 5-5v-175h10v175c0 8.3-6.7 15-15 15z" fill="#4d2162"/></g><g id="XMLID_650_"><path id="XMLID_4258_" d="m387 512h-50c-2.8 0-5-2.2-5-5v-276c0-2.8 2.2-5 5-5h50c2.8 0 5 2.2 5 5v276c0 2.8-2.2 5-5 5zm-45-10h40v-266h-40z" fill="#4d2162"/></g><g id="XMLID_666_"><path id="XMLID_4255_" d="m497 307h-270c-8.3 0-15-6.7-15-15v-51c0-8.3 6.7-15 15-15h270c8.3 0 15 6.7 15 15v51c0 8.3-6.7 15-15 15zm-270-71c-2.8 0-5 2.2-5 5v51c0 2.8 2.2 5 5 5h270c2.8 0 5-2.2 5-5v-51c0-2.8-2.2-5-5-5z" fill="#4d2162"/></g><g id="XMLID_659_"><path id="XMLID_4254_" d="m276 512h-242c-8.3 0-15-6.7-15-15v-331h10v331c0 2.8 2.2 5 5 5h242z" fill="#4d2162"/></g><g id="XMLID_658_"><path id="XMLID_4251_" d="m175 512h-50c-2.8 0-5-2.2-5-5v-412c0-2.8 2.2-5 5-5h50c2.8 0 5 2.2 5 5v412c0 2.8-2.2 5-5 5zm-45-10h40v-402h-40z" fill="#4d2162"/></g><g id="XMLID_652_"><path id="XMLID_4248_" d="m397 236h-70c-2.8 0-5-2.2-5-5v-15c0-22.1 17.9-40 40-40s40 17.9 40 40v15c0 2.8-2.2 5-5 5zm-65-10h60v-10c0-16.5-13.5-30-30-30s-30 13.5-30 30z" fill="#4d2162"/></g><g id="XMLID_656_"><path id="XMLID_2815_" d="m281 236c-27.6 0-50-22.4-50-50s22.4-50 50-50c12.7 0 25.1 3.6 35.9 10.4l47.8 30.4-5.4 8.4-47.8-30.4c-9.1-5.8-19.7-8.9-30.5-8.9-22.1 0-40 17.9-40 40s17.9 40 40 40z" fill="#4d2162"/></g><g id="XMLID_655_"><path id="XMLID_2814_" d="m326.4 208.7-12.9-7.9c-10.4-6.4-22.3-9.7-34.4-9.7-6.6 0-12 5.4-12 12h-10c0-12.1 9.9-22 22-22 14 0 27.7 3.9 39.7 11.2l12.9 7.9z" fill="#4d2162"/></g><g id="XMLID_664_"><path id="XMLID_2798_" d="m443 236v-10c22.1 0 40-17.9 40-40s-17.9-40-40-40c-10.8 0-21.4 3.1-30.5 8.9l-47.8 30.4-5.4-8.4 47.8-30.4c10.7-6.8 23.1-10.4 35.9-10.4 27.6 0 50 22.4 50 50s-22.4 49.9-50 49.9z" fill="#4d2162"/></g><g id="XMLID_654_"><path id="XMLID_2794_" d="m397.6 208.7-5.2-8.5 12.9-7.9c12-7.4 25.7-11.3 39.7-11.3 12.1 0 22 9.9 22 22h-10c0-6.6-5.4-12-12-12-12.2 0-24.1 3.4-34.4 9.7z" fill="#4d2162"/></g><g id="XMLID_665_"><path id="XMLID_2775_" d="m185 100h-70c-2.8 0-5-2.2-5-5v-15c0-22.1 17.9-40 40-40s40 17.9 40 40v15c0 2.8-2.2 5-5 5zm-65-10h60v-10c0-16.5-13.5-30-30-30s-30 13.5-30 30z" fill="#4d2162"/></g><g id="XMLID_662_"><path id="XMLID_2763_" d="m69 100c-27.6 0-50-22.4-50-50s22.4-50 50-50c12.7 0 25.1 3.6 35.9 10.4l47.8 30.4-5.4 8.4-47.8-30.3c-9.1-5.8-19.7-8.9-30.5-8.9-22.1 0-40 17.9-40 40s17.9 40 40 40z" fill="#4d2162"/></g><g id="XMLID_663_"><path id="XMLID_2756_" d="m114.4 72.7-12.9-7.9c-10.4-6.4-22.3-9.8-34.5-9.8-6.6 0-12 5.4-12 12h-10c0-12.1 9.9-22 22-22 14 0 27.7 3.9 39.7 11.2l12.9 7.9z" fill="#4d2162"/></g><g id="XMLID_1634_"><path id="XMLID_2753_" d="m231 100v-10c22.1 0 40-17.9 40-40s-17.9-40-40-40c-10.8 0-21.4 3.1-30.5 8.9l-47.8 30.4-5.4-8.4 47.8-30.4c10.8-6.9 23.2-10.5 35.9-10.5 27.6 0 50 22.4 50 50s-22.4 50-50 50z" fill="#4d2162"/></g><g id="XMLID_661_"><path id="XMLID_2752_" d="m185.6 72.7-5.2-8.5 12.9-7.9c12-7.4 25.7-11.3 39.7-11.3 12.1 0 22 9.9 22 22h-10c0-6.6-5.4-12-12-12-12.2 0-24.1 3.4-34.4 9.7z" fill="#4d2162"/></g><g id="XMLID_653_"><path id="XMLID_2485_" d="m240.7 171h-225.7c-8.3 0-15-6.7-15-15v-51c0-8.3 6.7-15 15-15h270c8.3 0 15 6.7 15 15v17.6h-10v-17.6c0-2.8-2.2-5-5-5h-270c-2.8 0-5 2.2-5 5v51c0 2.8 2.2 5 5 5h225.7z" fill="#4d2162"/></g></g></g></svg>