<svg id="Layer_1" enable-background="new 0 0 512 512" height="512" viewBox="0 0 512 512" width="512" xmlns="http://www.w3.org/2000/svg"><g id="XMLID_1_"><g id="XMLID_5158_"><path id="XMLID_1168_" d="m35 237.8h-30v254.2c0 8.3 6.7 15 15 15 8.3 0 15-6.7 15-15z" fill="#b23998"/><path id="XMLID_1262_" d="m16.4 302.4 18.6 14.6v-79h-30v53.5c3.4 4 7.2 7.6 11.4 10.9z" fill="#8b2d77"/><path id="XMLID_1178_" d="m107 5c0 24.6 13.6 47.2 35.4 58.6 12.6 6.6 28.1 3.5 37-7.6l19.5-23.9c14-17.1 35-27.1 57.1-27.1 22.1 0 43.1 10 57.1 27.1l19.5 23.9c9 11 24.5 14.2 37 7.6 21.8-11.4 35.4-34 35.4-58.6l49 45.1c30.5 28.1 36.1 74.3 13 108.9l29.6 44.4c6.8 10.2 10.4 22.2 10.4 34.5 0 19.1-8.8 37.1-23.7 48.8l-102.3 80.3-41.6-51.8c-20.2-25.2-56-31.3-83.4-14.2-27.4-17.1-63.2-11-83.4 14.2l-41.6 51.8-102.3-80.3c-14.9-11.8-23.7-29.8-23.7-48.9 0-12.3 3.6-24.3 10.4-34.5l29.6-44.3c-23-34.6-17.5-80.7 13-108.9z" fill="#ffc970"/><path id="XMLID_1140_" d="m454 50.1-49-45.1c0 24.6-13.6 47.2-35.4 58.6-12.6 6.6-28.1 3.5-37-7.6l-19.5-23.9c-14-17.1-35-27.1-57.1-27.1-22.1 0-43.1 10-57.1 27.1l-19.5 23.9c-9 11-24.5 14.2-37 7.6-21.8-11.4-35.4-34-35.4-58.6l-49 45.1c-30.5 28.2-36 74.3-13 108.9v.2l10.5-8.6 196.1 71.4h8.7l196.2-71.4 10.5 8.7c23-34.6 17.5-81-13-109.2z" fill="#ffdca3"/><path id="XMLID_834_" d="m169.3 244.3c-16.4 0-32.8-3.6-48.1-10.7-27.6-12.9-48.5-35.7-58.9-64.3l-6.8-18.8 43.2-15.7c28.6-10.4 59.6-9.1 87.2 3.8s48.5 35.7 58.9 64.3l6.8 18.8-43.2 15.7c-12.7 4.6-25.9 6.9-39.1 6.9z" fill="#ffc970"/><path id="XMLID_1477_" d="m121.2 233.5c15.3 7.1 31.7 10.7 48.1 10.7 13.1 0 26.3-2.3 39.1-6.9l43.2-15.7-25.6-11.6-144.9-47.6-25.6-12 6.8 18.8c10.4 28.6 31.3 51.5 58.9 64.3z" fill="#ffb233"/><g id="XMLID_833_"><path id="XMLID_1307_" d="m303.6 237.3-43.2-15.7 6.8-18.8c10.4-28.6 31.3-51.5 58.9-64.3 27.6-12.9 58.6-14.2 87.2-3.8l43.2 15.7-6.8 18.8c-10.4 28.6-31.3 51.5-58.9 64.3-15.3 7.1-31.7 10.7-48.1 10.7-13.2.1-26.4-2.2-39.1-6.9z" fill="#ffc970"/></g><path id="XMLID_1186_" d="m226 209.6-24.4 8.9c-48.8 17.8-102.7-7.4-120.5-56.2l24.4-8.9c48.8-17.7 102.7 7.5 120.5 56.2z" fill="#b23998"/><g id="XMLID_1182_"><path id="XMLID_3313_" d="m385.8 330.1c-1.4 0-2.8-.6-3.8-1.7l-30.8-35c-23.3-26.5-60.8-35.1-93.3-21.2-1.3.5-2.7.5-3.9 0-32.5-13.9-70-5.4-93.3 21.2l-30.8 35c-1.8 2-4.8 2.3-6.8.6l-30.1-23.7c-14.3-11.2-17-32.2-6-46.7 7.3-9.6 20.7-11.7 30.6-4.8 5.1 3.5 8.4 8.9 9.3 15s-.6 12.2-4.4 17.1l-4.8 6.2-7.9-6.1 4.8-6.2c2.1-2.7 3-6.1 2.4-9.4s-2.3-6.3-5.1-8.3c-5.5-3.8-12.9-2.6-16.9 2.7-7.7 10.2-5.8 24.9 4.2 32.8l26.4 20.8 27.6-31.4c25.7-29.3 66.8-39 102.8-24.6 36-14.4 77.1-4.7 102.8 24.6l27.6 31.4 26.4-20.8c10-7.9 11.9-22.6 4.2-32.8-4-5.3-11.5-6.5-16.9-2.7-2.8 2-4.6 4.9-5.1 8.3s.4 6.7 2.4 9.4l4.8 6.2-7.9 6.1-4.8-6.2c-3.8-4.9-5.4-11-4.4-17.1.9-6.1 4.2-11.4 9.3-15 9.9-6.9 23.3-4.8 30.6 4.8 11 14.5 8.3 35.4-6 46.7l-30.1 23.7c-.9.7-2 1.1-3.1 1.1z" fill="#ffb233"/></g><g id="XMLID_1180_"><path id="XMLID_3311_" d="m251 94h10v175h-10z" fill="#ffb233"/></g><g id="XMLID_1179_"><path id="XMLID_3310_" d="m65.3 283.6-21-16.5c-14.6-11.5-17.9-32.5-7.6-47.9l27.5-41 8.3 5.6-27.5 41c-7.4 11.1-5 26.2 5.5 34.5l21 16.5z" fill="#ffb233"/></g><g id="XMLID_1177_"><path id="XMLID_3309_" d="m446.7 283.6-6.2-7.9 21-16.5c10.5-8.3 12.9-23.4 5.5-34.5l-27.5-41 8.3-5.6 27.5 41c10.3 15.4 7 36.5-7.6 47.9z" fill="#ffb233"/></g><path id="XMLID_3304_" d="m256 94 10.6-10.6c5.9-5.9 5.9-15.4 0-21.2-5.9-5.9-15.4-5.9-21.2 0-5.9 5.9-5.9 15.4 0 21.2z" fill="#9cd3fc"/><path id="XMLID_3305_" d="m256 99c-1.3 0-2.6-.5-3.5-1.5l-10.6-10.6c-3.8-3.8-5.9-8.8-5.9-14.1s2.1-10.4 5.9-14.1c3.8-3.8 8.8-5.9 14.1-5.9s10.4 2.1 14.1 5.9c3.8 3.8 5.9 8.8 5.9 14.1s-2.1 10.4-5.9 14.1l-10.6 10.6c-.9 1-2.2 1.5-3.5 1.5zm0-36.2c-2.6 0-5.1 1-7.1 2.9-3.9 3.9-3.9 10.2 0 14.1l7.1 7.1 7.1-7.1c3.9-3.9 3.9-10.2 0-14.1-2-1.9-4.5-2.9-7.1-2.9z" fill="#ffb233"/><g id="XMLID_1181_"><path id="XMLID_1764_" d="m291 147c-.8 0-1.6-.2-2.3-.5-1.7-.9-2.7-2.6-2.7-4.5v-72c0-16.5-13.5-30-30-30s-30 13.5-30 30v72c0 1.9-1.1 3.6-2.7 4.5-1.7.9-3.7.7-5.2-.4l-18.1-13.1c-23.4-16.9-52-23.9-80.5-19.6l-22.5 3.4c-11.1 1.6-22.3-3.3-28.5-12.6-7.1-10.5-6.6-24.3 1.1-34.3l19.7-25.4c1-1.3 2.7-2.1 4.4-1.9 1.7.1 3.2 1.1 4 2.6l5.7 10.5c4 7.3 4.2 15.8.6 23.2-3.6 7.5-10.3 12.6-18.5 14.1l-1.8-9.8c5-.9 9.1-4 11.3-8.5s2.1-9.7-.4-14.1l-2.1-3.8-15.1 19.2c-5.1 6.6-5.4 15.7-.8 22.6 4.1 6.1 11.5 9.4 18.8 8.3l22.5-3.4c31.1-4.6 62.3 3 87.8 21.4l10.2 7.4v-62.3c0-22.1 17.9-40 40-40s40 17.9 40 40v62.2l10.2-7.4c25.5-18.4 56.7-26 87.8-21.4l22.5 3.4c7.3 1.1 14.7-2.2 18.8-8.3 4.7-6.9 4.4-16-.8-22.6l-15-19.4-2.1 3.8c-2.4 4.4-2.5 9.6-.4 14.1s6.3 7.7 11.3 8.5l-1.8 9.8c-8.2-1.5-14.9-6.6-18.5-14.1s-3.4-15.9.6-23.2l5.7-10.5c.8-1.5 2.3-2.5 4-2.6s3.3.6 4.4 1.9l19.7 25.4c7.8 10 8.2 23.8 1.1 34.3-6.3 9.3-17.5 14.2-28.5 12.6l-22.5-3.4c-28.5-4.3-57.1 2.7-80.5 19.6l-18.1 13.1c-.7.9-1.8 1.2-2.8 1.2z" fill="#ffc970"/></g><path id="XMLID_813_" d="m390.8 233.5c-15.3 7.1-31.7 10.7-48.1 10.7-13.1 0-26.3-2.3-39.1-6.9l-43.2-15.7 25.6-11.6 144.9-47.6 25.6-12-6.8 18.8c-10.4 28.6-31.3 51.5-58.9 64.3z" fill="#ffb233"/><path id="XMLID_1185_" d="m286 209.6 24.4 8.9c48.8 17.8 102.7-7.4 120.5-56.2l-24.4-8.9c-48.8-17.7-102.7 7.5-120.5 56.2z" fill="#b23998"/></g><g id="XMLID_4808_"><g id="XMLID_520_"><path id="XMLID_2573_" d="m169.5 229.2c-40.5 0-78.5-25-93.1-65.1-.9-2.6.4-5.5 3-6.4l24.4-8.9c51.3-18.7 108.2 7.9 126.9 59.2.5 1.2.4 2.6-.2 3.8s-1.6 2.1-2.8 2.6l-24.4 8.9c-11.2 4-22.6 5.9-33.8 5.9zm-81.9-63.9c8.6 20.2 24.2 36.2 44.2 45.6 21.5 10 45.7 11.1 68.1 3l19.6-7.1c-8.6-20.2-24.2-36.2-44.2-45.6-21.5-10-45.7-11.1-68.1-3z" fill="#4d2162"/></g><g id="XMLID_522_"><path id="XMLID_2570_" d="m342.6 229.3c-11.4 0-22.9-2-33.9-6l-24.4-8.9c-2.6-.9-3.9-3.8-3-6.4 9-24.8 27.2-44.7 51.2-55.9s50.8-12.4 75.7-3.3l24.4 8.9c2.6.9 3.9 3.8 3 6.4-9 24.8-27.2 44.7-51.2 55.9-13.3 6.1-27.5 9.3-41.8 9.3zm-50.1-22.6 19.6 7.1c44.5 16.2 93.8-5.5 112.2-48.5l-19.6-7.1c-44.5-16.2-93.7 5.5-112.2 48.5z" fill="#4d2162"/></g><g id="XMLID_521_"><path id="XMLID_2569_" d="m385.8 330.1c-1.4 0-2.8-.6-3.8-1.7l-30.8-35c-23.3-26.5-60.8-35.1-93.3-21.2-1.3.5-2.7.5-3.9 0-32.5-13.9-70-5.4-93.3 21.2l-30.8 35c-1.8 2-4.8 2.3-6.8.6l-30.1-23.7c-14.3-11.2-17-32.2-6-46.7 7.3-9.6 20.7-11.7 30.6-4.8 5.1 3.5 8.4 8.9 9.3 15s-.6 12.2-4.4 17.1l-4.8 6.2-7.9-6.1 4.8-6.2c2.1-2.7 3-6.1 2.4-9.4s-2.3-6.3-5.1-8.3c-5.5-3.8-12.9-2.6-16.9 2.7-7.7 10.2-5.8 24.9 4.2 32.8l26.4 20.8 27.6-31.4c25.7-29.3 66.8-39 102.8-24.6 36-14.4 77.1-4.7 102.8 24.6l27.6 31.4 26.4-20.8c10-7.9 11.9-22.6 4.2-32.8-4-5.3-11.5-6.5-16.9-2.7-2.8 2-4.6 4.9-5.1 8.3s.4 6.7 2.4 9.4l4.8 6.2-7.9 6.1-4.8-6.2c-3.8-4.9-5.4-11-4.4-17.1.9-6.1 4.2-11.4 9.3-15 9.9-6.9 23.3-4.8 30.6 4.8 11 14.5 8.3 35.4-6 46.7l-30.1 23.7c-.9.7-2 1.1-3.1 1.1z" fill="#4d2162"/></g><g id="XMLID_557_"><path id="XMLID_2568_" d="m291 147c-.8 0-1.6-.2-2.3-.5-1.7-.9-2.7-2.6-2.7-4.5v-72c0-16.5-13.5-30-30-30s-30 13.5-30 30v72c0 1.9-1.1 3.6-2.7 4.5-1.7.9-3.7.7-5.2-.4l-18.1-13.1c-23.4-16.9-52-23.9-80.5-19.6l-22.5 3.4c-11.1 1.6-22.3-3.3-28.5-12.6-7.1-10.5-6.6-24.3 1.1-34.3l19.7-25.4c1-1.3 2.7-2.1 4.4-1.9 1.7.1 3.2 1.1 4 2.6l5.7 10.5c4 7.3 4.2 15.8.6 23.2-3.6 7.5-10.3 12.6-18.5 14.1l-1.8-9.8c5-.9 9.1-4 11.3-8.5s2.1-9.7-.4-14.1l-2.1-3.8-15.1 19.2c-5.1 6.6-5.4 15.7-.8 22.6 4.1 6.1 11.5 9.4 18.8 8.3l22.5-3.4c31.1-4.6 62.3 3 87.8 21.4l10.2 7.4v-62.3c0-22.1 17.9-40 40-40s40 17.9 40 40v62.2l10.2-7.4c25.5-18.4 56.7-26 87.8-21.4l22.5 3.4c7.3 1.1 14.7-2.2 18.8-8.3 4.7-6.9 4.4-16-.8-22.6l-15-19.4-2.1 3.8c-2.4 4.4-2.5 9.6-.4 14.1s6.3 7.7 11.3 8.5l-1.8 9.8c-8.2-1.5-14.9-6.6-18.5-14.1s-3.4-15.9.6-23.2l5.7-10.5c.8-1.5 2.3-2.5 4-2.6s3.3.6 4.4 1.9l19.7 25.4c7.8 10 8.2 23.8 1.1 34.3-6.3 9.3-17.5 14.2-28.5 12.6l-22.5-3.4c-28.5-4.3-57.1 2.7-80.5 19.6l-18.1 13.1c-.7.9-1.8 1.2-2.8 1.2z" fill="#4d2162"/></g><g id="XMLID_640_"><path id="XMLID_2567_" d="m251 94h10v175h-10z" fill="#4d2162"/></g><g id="XMLID_641_"><path id="XMLID_2565_" d="m65.3 283.6-21-16.5c-14.6-11.5-17.9-32.5-7.6-47.9l27.5-41 8.3 5.6-27.5 41c-7.4 11.1-5 26.2 5.5 34.5l21 16.5z" fill="#4d2162"/></g><g id="XMLID_642_"><path id="XMLID_2564_" d="m446.7 283.6-6.2-7.9 21-16.5c10.5-8.3 12.9-23.4 5.5-34.5l-27.5-41 8.3-5.6 27.5 41c10.3 15.4 7 36.5-7.6 47.9z" fill="#4d2162"/></g><g id="XMLID_80_"><path id="XMLID_2561_" d="m256 99c-1.3 0-2.6-.5-3.5-1.5l-10.6-10.6c-3.8-3.8-5.9-8.8-5.9-14.1s2.1-10.4 5.9-14.1c3.8-3.8 8.8-5.9 14.1-5.9s10.4 2.1 14.1 5.9c3.8 3.8 5.9 8.8 5.9 14.1s-2.1 10.4-5.9 14.1l-10.6 10.6c-.9 1-2.2 1.5-3.5 1.5zm0-36.2c-2.6 0-5.1 1-7.1 2.9-3.9 3.9-3.9 10.2 0 14.1l7.1 7.1 7.1-7.1c3.9-3.9 3.9-10.2 0-14.1-2-1.9-4.5-2.9-7.1-2.9z" fill="#4d2162"/></g><g id="XMLID_1691_"><path id="XMLID_2549_" d="m20 512c-11 0-20-9-20-20v-254.2h10v254.2c0 5.5 4.5 10 10 10s10-4.5 10-10v-180.4h10v180.4c0 11-9 20-20 20z" fill="#4d2162"/></g><g id="XMLID_2248_"><path id="XMLID_2381_" d="m381 372c-1.5 0-2.9-.6-3.9-1.9l-41.6-51.8c-18.6-23.2-51.7-28.8-76.9-13-1.6 1-3.7 1-5.3 0-25.2-15.8-58.3-10.2-76.9 13l-41.6 51.8c-1.7 2.1-4.8 2.5-7 .8l-102.1-80.3c-16.4-12.8-25.7-32.1-25.7-52.8 0-13.3 3.9-26.2 11.3-37.2l27.7-41.7c-10.5-17.1-15-37.4-12.6-57.4 2.6-21.1 12.6-40.6 28.2-55l49-45.1c1.5-1.3 3.6-1.7 5.4-.9s3 2.6 3 4.6c0 22.8 12.5 43.6 32.7 54.2 10.4 5.5 23.4 2.8 30.8-6.3l19.5-24c15-18.4 37.2-29 61-29s46 10.6 61 29l19.5 23.9c7.4 9.1 20.4 11.8 30.8 6.3 20.2-10.6 32.7-31.4 32.7-54.2 0-2 1.2-3.8 3-4.6s3.9-.4 5.4.9l49 45.1c15.6 14.4 25.7 34 28.2 55.1s-2.6 42.5-14.4 60.2l-8.3-5.5c21.8-32.7 16.6-75.8-12.3-102.4l-41.4-38.1c-3.3 22.2-17 41.7-37.3 52.4-14.6 7.7-32.8 4-43.2-8.8l-19.5-23.9c-13.1-16.2-32.5-25.4-53.2-25.4s-40.1 9.2-53.2 25.3l-19.5 23.9c-10.4 12.8-28.6 16.5-43.2 8.8-20.3-10.7-33.9-30.2-37.3-52.4l-41.4 38.2c-28.9 26.6-34.1 69.7-12.3 102.4 1.1 1.7 1.1 3.9 0 5.5l-29.6 44.4c-6.3 9.4-9.6 20.4-9.6 31.7 0 17.6 8 34 21.8 44.9l98.4 77.3 38.5-48c21.1-26.3 58.2-33.3 87.3-16.8 29.1-16.5 66.2-9.5 87.3 16.8l38.5 48 98.4-77.3c13.9-10.9 21.8-27.3 21.8-44.9 0-11.3-3.3-22.3-9.6-31.7l-17.8-26.6 8.3-5.5 17.8 26.6c7.4 11.1 11.3 23.9 11.3 37.2 0 20.7-9.3 40-25.7 52.8l-102.3 80.3c-.7.8-1.8 1.1-2.9 1.1z" fill="#4d2162"/></g></g></g></svg>