<svg id="Layer_1" enable-background="new 0 0 512 512" height="512" viewBox="0 0 512 512" width="512" xmlns="http://www.w3.org/2000/svg"><g id="XMLID_1_"><g id="XMLID_5172_"><path id="XMLID_1361_" d="m217 5v60l-207.2 383.1c-3.2 5.8-4.8 12.4-4.8 19 0 22 17.9 39.9 39.9 39.9 6.6 0 13.2-1.7 19-4.8l383.1-207.2h60c0-160.2-129.8-290-290-290z" fill="#d84861"/><g id="XMLID_1244_"><path id="XMLID_1245_" d="m231.6 96.5c5.3 4.1 12.1 5.7 18.7 4.6l16.8-2.9c9.1-1.6 18.4 2.2 23.8 9.8l9.9 13.9c3.9 5.4 9.9 9 16.5 9.9l17.2 2.3c9.1 1.2 16.7 7.4 19.7 16.1l6.5 18.9c2 5.9 6.3 10.8 11.8 13.6l18.1 9.3c8 4.1 13 12.3 13.1 21.2l.2 20.4c.1 6.3 2.6 12.3 7 16.7 11.3 11.5 8.5 30.6-5.7 38.3l-87.2 47.1c-8.2 4.4-13.5 12.7-14.2 22l-7.8 105.2c-.6 8.5-7.7 15.1-16.3 15.1-8.4 0-15.5-6.4-16.2-14.8l-4.8-52.2c-1.8-19.5-22.9-30.8-40.1-21.5-8.4 4.6-13.7 13.4-13.7 23v28.4c0 8.4-6.8 15.1-15.1 15.1-4.4 0-8.5-1.9-11.4-5.2l-9.6-11c-8.1-9.3-21.5-11.6-32.3-5.7l-93.5 51.8c-17 9.5-38-2.9-38-22.4 0-4.3 1.1-8.5 3.1-12.2l187.7-347c7-13.1 24-16.7 35.8-7.8z" fill="#ffc970"/></g><g id="XMLID_1362_"><path id="XMLID_1363_" d="m477 325c-16.6 0-30-13.4-30-30 0-127-103-230-230-230-16.6 0-30-13.4-30-30 0-16.6 13.4-30 30-30 160.2 0 290 129.8 290 290 0 16.6-13.4 30-30 30z" fill="#ffc970"/></g><g fill="#d84861"><path id="XMLID_1360_" d="m158.8 172.6c7.3 11.1 19.9 18.4 34.2 18.4 22.6 0 41-18.4 41-41s-18.2-40.9-40.8-41z"/><circle id="XMLID_1359_" cx="314" cy="265" r="41"/><circle id="XMLID_1358_" cx="182" cy="290" r="41"/></g><g id="XMLID_1357_"><path id="XMLID_2030_" d="m99 420.8c-1.4 0-2.8-.1-4.3-.4-6.8-1.1-13.5-4.7-19-10.2s-9.1-12.2-10.2-19c-1.2-7.4.7-13.9 5.2-18.5s11.1-6.4 18.5-5.2c6.8 1.1 13.5 4.7 19 10.2s9.1 12.2 10.2 19c1.2 7.4-.7 13.9-5.2 18.5-3.6 3.7-8.6 5.6-14.2 5.6zm-13.9-43.6c-2.3 0-5.1.5-7.2 2.6-3 3-2.8 7.5-2.4 9.8.8 4.6 3.4 9.6 7.4 13.5s8.8 6.6 13.5 7.4c2.4.4 6.8.6 9.8-2.4s2.8-7.5 2.4-9.8c-.8-4.6-3.4-9.6-7.4-13.5s-8.8-6.6-13.5-7.4c-.7-.1-1.6-.2-2.6-.2z" fill="#b23998"/></g><g id="XMLID_1356_"><path id="XMLID_2027_" d="m300 204.8c-5.6 0-10.6-1.9-14.2-5.6-4.6-4.6-6.4-11.1-5.2-18.5 1.1-6.8 4.7-13.5 10.2-19s12.2-9.1 19-10.2c7.4-1.2 13.9.7 18.5 5.2 4.6 4.6 6.4 11.1 5.2 18.5-1.1 6.8-4.7 13.5-10.2 19s-12.2 9.1-19 10.2c-1.5.3-2.9.4-4.3.4zm13.9-43.6c-1 0-1.9.1-2.6.2-4.6.8-9.6 3.4-13.5 7.4s-6.6 8.8-7.4 13.5c-.4 2.4-.6 6.8 2.4 9.8s7.5 2.8 9.8 2.4c4.6-.8 9.6-3.4 13.5-7.4s6.6-8.8 7.4-13.5c.4-2.4.6-6.8-2.4-9.8-2.1-2-4.9-2.6-7.2-2.6z" fill="#b23998"/></g><g id="XMLID_1355_"><path id="XMLID_2026_" d="m135.3 373.6-1.7-9.8 1.9-.3c9.3-1.6 17.9-6.3 24.3-13.3l7.4 6.8c-7.9 8.5-18.5 14.3-29.9 16.3z" fill="#b23998"/></g><g id="XMLID_1354_"><path id="XMLID_2025_" d="m249.2 238.2c-8.5-7.9-14.3-18.5-16.3-29.9l-.3-1.9 9.8-1.7.3 1.9c1.6 9.3 6.3 17.9 13.3 24.3z" fill="#b23998"/></g><circle id="XMLID_1353_" cx="477" cy="295" fill="#ffdca3" r="30"/></g><g id="XMLID_4822_"><g id="XMLID_591_"><g id="XMLID_620_"><path id="XMLID_3516_" d="m477 330c-19.3 0-35-15.7-35-35 0-124.1-100.9-225-225-225-19.3 0-35-15.7-35-35s15.7-35 35-35c78.8 0 152.9 30.7 208.6 86.4s86.4 129.8 86.4 208.6c0 19.3-15.7 35-35 35zm-260-320c-13.8 0-25 11.2-25 25s11.2 25 25 25c62.8 0 121.8 24.4 166.2 68.8s68.8 103.4 68.8 166.2c0 13.8 11.2 25 25 25s25-11.2 25-25c0-157.1-127.9-285-285-285z" fill="#4d2162"/></g></g><g id="XMLID_1706_"><path id="XMLID_3515_" d="m359.9 268.8h10v141.2h-10z" fill="#4d2162" transform="matrix(.476 .88 -.88 .476 489.84 -143.005)"/></g><g id="XMLID_619_"><path id="XMLID_3514_" d="m224.9 384.1h10v56.6h-10z" fill="#4d2162" transform="matrix(.476 .88 -.88 .476 483.317 14.04)"/></g><g id="XMLID_1704_"><path id="XMLID_3513_" d="m44.9 512c-24.8 0-44.9-20.1-44.9-44.9 0-7.4 1.9-14.8 5.4-21.4l207.2-383.1 8.8 4.8-207.2 383.1c-2.7 5.1-4.2 10.8-4.2 16.6 0 19.2 15.7 34.9 34.9 34.9 5.8 0 11.5-1.5 16.6-4.2l108.3-58.6 4.8 8.8-108.3 58.6c-6.6 3.5-14 5.4-21.4 5.4z" fill="#4d2162"/></g><g id="XMLID_634_"><path id="XMLID_3512_" d="m193 196c-5.9 0-11.6-1.1-17-3.3l3.7-9.3c4.2 1.7 8.7 2.5 13.3 2.5 19.9 0 36-16.1 36-36 0-19.8-16.1-35.9-35.8-36v-10c25.2.1 45.8 20.8 45.8 46 0 25.5-20.6 46.1-46 46.1z" fill="#4d2162"/></g><g id="XMLID_628_"><path id="XMLID_3509_" d="m314 311c-25.4 0-46-20.6-46-46s20.6-46 46-46 46 20.6 46 46-20.6 46-46 46zm0-82c-19.9 0-36 16.1-36 36s16.1 36 36 36 36-16.1 36-36-16.1-36-36-36z" fill="#4d2162"/></g><g id="XMLID_629_"><path id="XMLID_3506_" d="m182 336c-25.4 0-46-20.6-46-46s20.6-46 46-46 46 20.6 46 46-20.6 46-46 46zm0-82c-19.9 0-36 16.1-36 36s16.1 36 36 36 36-16.1 36-36-16.1-36-36-36z" fill="#4d2162"/></g><g id="XMLID_622_"><path id="XMLID_3502_" d="m99 420.8c-1.4 0-2.8-.1-4.3-.4-6.8-1.1-13.5-4.7-19-10.2s-9.1-12.2-10.2-19c-1.2-7.4.7-13.9 5.2-18.5s11.1-6.4 18.5-5.2c6.8 1.1 13.5 4.7 19 10.2s9.1 12.2 10.2 19c1.2 7.4-.7 13.9-5.2 18.5-3.6 3.7-8.6 5.6-14.2 5.6zm-13.9-43.6c-2.3 0-5.1.5-7.2 2.6-3 3-2.8 7.5-2.4 9.8.8 4.6 3.4 9.6 7.4 13.5s8.8 6.6 13.5 7.4c2.4.4 6.8.6 9.8-2.4s2.8-7.5 2.4-9.8c-.8-4.6-3.4-9.6-7.4-13.5s-8.8-6.6-13.5-7.4c-.7-.1-1.6-.2-2.6-.2z" fill="#4d2162"/></g><g id="XMLID_631_"><path id="XMLID_3498_" d="m300 204.8c-5.6 0-10.6-1.9-14.2-5.6-4.6-4.6-6.4-11.1-5.2-18.5 1.1-6.8 4.7-13.5 10.2-19s12.2-9.1 19-10.2c7.4-1.2 13.9.7 18.5 5.2 4.6 4.6 6.4 11.1 5.2 18.5-1.1 6.8-4.7 13.5-10.2 19s-12.2 9.1-19 10.2c-1.5.3-2.9.4-4.3.4zm13.9-43.6c-1 0-1.9.1-2.6.2-4.6.8-9.6 3.4-13.5 7.4s-6.6 8.8-7.4 13.5c-.4 2.4-.6 6.8 2.4 9.8s7.5 2.8 9.8 2.4c4.6-.8 9.6-3.4 13.5-7.4s6.6-8.8 7.4-13.5c.4-2.4.6-6.8-2.4-9.8-2.1-2-4.9-2.6-7.2-2.6z" fill="#4d2162"/></g><g id="XMLID_630_"><path id="XMLID_3497_" d="m135.3 373.6-1.7-9.8 1.9-.3c9.3-1.6 17.9-6.3 24.3-13.3l7.4 6.8c-7.9 8.5-18.5 14.3-29.9 16.3z" fill="#4d2162"/></g><g id="XMLID_632_"><path id="XMLID_3496_" d="m249.2 238.2c-8.5-7.9-14.3-18.5-16.3-29.9l-.3-1.9 9.8-1.7.3 1.9c1.6 9.3 6.3 17.9 13.3 24.3z" fill="#4d2162"/></g><g id="XMLID_27_"><path id="XMLID_3493_" d="m477 330c-19.3 0-35-15.7-35-35s15.7-35 35-35 35 15.7 35 35-15.7 35-35 35zm0-60c-13.8 0-25 11.2-25 25s11.2 25 25 25 25-11.2 25-25-11.2-25-25-25z" fill="#4d2162"/></g><g id="XMLID_740_"><g id="XMLID_1705_"><path id="XMLID_2667_" d="m30.6 494.2c-5.4 0-10.7-1.4-15.5-4.3-9.5-5.6-15.1-15.4-15.1-26.4h10c0 7.4 3.8 14 10.2 17.8 6.4 3.7 14 3.9 20.5.3l93.5-51.8c12.7-7.1 28.9-4.2 38.5 6.8l9.6 11c1.9 2.2 4.7 3.5 7.6 3.5 5.6 0 10.1-4.5 10.1-10.1v-28.4c0-11.4 6.2-21.9 16.3-27.3 9.6-5.2 21-5.2 30.6-.1s15.9 14.7 16.9 25.5l4.8 52.2c.5 5.8 5.4 10.3 11.3 10.3s10.8-4.6 11.3-10.5l7.8-105.2c.8-11 7.1-20.7 16.8-26l87.2-47.1c5.4-2.9 8.9-8 9.8-14s-1-12-5.3-16.3c0 0-.1-.1-.1-.1-5.3-5.3-8.2-12.5-8.3-20.1l-.2-20.4c-.1-7.1-4.1-13.6-10.4-16.8l-18.1-9.3c-6.7-3.5-11.8-9.3-14.2-16.4l-6.5-18.9c-2.4-6.9-8.4-11.8-15.6-12.8l-17.2-2.3c-8-1.1-15.2-5.4-19.9-11.9l-9.9-13.9c-4.3-5.9-11.7-9-18.9-7.7l-16.8 2.9c-7.9 1.4-16.2-.6-22.6-5.5-4.5-3.4-10.2-4.7-15.7-3.5s-10.2 4.7-12.8 9.6l-8.8-4.8c4.1-7.5 11.2-12.8 19.5-14.6s17 .1 23.8 5.3c4.2 3.2 9.6 4.5 14.9 3.6l16.8-2.9c11-1.9 22.2 2.7 28.7 11.8l9.9 13.9c3.1 4.3 7.8 7.2 13.1 7.9l17.2 2.3c11 1.5 20.1 8.9 23.7 19.4l6.5 18.9c1.6 4.7 4.9 8.5 9.3 10.8l18.1 9.3c9.6 5 15.7 14.8 15.8 25.6l.2 20.4c.1 5 2 9.7 5.5 13.3 0 0 .1.1.1.1 6.4 6.5 9.4 15.6 8 24.7-1.4 9.2-6.8 16.9-15 21.4l-87.2 47.1c-6.7 3.6-11.1 10.3-11.6 17.9l-7.8 105.2c-.8 11.1-10.1 19.7-21.2 19.7s-20.2-8.3-21.2-19.3l-4.8-52.2c-.7-7.6-5-14-11.7-17.6s-14.4-3.6-21.1 0c-6.8 3.7-11.1 10.8-11.1 18.6v28.4c0 11.1-9 20.1-20.1 20.1-5.8 0-11.3-2.5-15.2-6.9l-9.6-11c-6.5-7.4-17.5-9.4-26.1-4.6l-93.5 51.8c-4.6 2.3-9.7 3.6-14.8 3.6z" fill="#4d2162"/></g></g></g></g></svg>