<svg id="Layer_1" enable-background="new 0 0 512 512" height="512" viewBox="0 0 512 512" width="512" xmlns="http://www.w3.org/2000/svg"><g id="XMLID_1_"><g id="XMLID_5214_"><path id="XMLID_1533_" d="m75 487v-462c0-11 9-20 20-20h322c11 0 20 9 20 20v462c0 11-9 20-20 20h-322c-11 0-20-9-20-20z" fill="#8b2d77"/><path id="XMLID_2151_" d="m75 487v-462c0-11 9-20 20-20h260c11 0 20 9 20 20v462c0 11-9 20-20 20h-260c-11 0-20-9-20-20z" fill="#b23998"/><g fill="#ffb233"><path id="XMLID_1301_" d="m322.5 269.5c5.9 5.9 15.4 5.9 21.2 0l16.3-16.3c5.9-5.9 5.9-15.4 0-21.2-5.9-5.9-15.4-5.9-21.2 0l-16.3 16.3c-5.9 5.9-5.9 15.4 0 21.2z"/><path id="XMLID_1300_" d="m152.1 439.9c5.9 5.9 15.4 5.9 21.2 0l16.3-16.3c5.9-5.9 5.9-15.4 0-21.2-5.9-5.9-15.4-5.9-21.2 0l-16.3 16.3c-5.9 5.9-5.9 15.4 0 21.2z"/><path id="XMLID_1299_" d="m189.5 269.5c5.9-5.9 5.9-15.4 0-21.2l-16.3-16.3c-5.9-5.9-15.4-5.9-21.2 0-5.9 5.9-5.9 15.4 0 21.2l16.3 16.3c5.9 5.9 15.4 5.9 21.2 0z"/><path id="XMLID_1298_" d="m359.9 439.9c5.9-5.9 5.9-15.4 0-21.2l-16.3-16.3c-5.9-5.9-15.4-5.9-21.2 0-5.9 5.9-5.9 15.4 0 21.2l16.3 16.3c5.9 5.9 15.4 5.9 21.2 0z"/></g><circle id="XMLID_1306_" cx="256" cy="336" fill="#ffc970" r="119"/><circle id="XMLID_1305_" cx="256" cy="336" fill="#3179af" r="94"/><path id="XMLID_2154_" d="m255.8 430h.9c7.6-.1 10.3-10 3.8-14-26.7-16.6-44.6-46.2-44.6-80s17.8-63.4 44.6-80c6.5-4 3.8-14-3.8-14-.2 0-.5 0-.7 0-52.3 0-94.6 42.6-94 95 .6 51.2 42.6 92.9 93.8 93z" fill="#265e87"/><circle id="XMLID_1304_" cx="256" cy="336" fill="#265e87" r="40"/><circle id="XMLID_1303_" cx="256" cy="117" fill="#ffc970" r="60"/><circle id="XMLID_1302_" cx="256" cy="117" fill="#3179af" r="35"/><path id="XMLID_2155_" d="m251.8 151.7c1.4.2 2.8.3 4.2.3 4.2 0 6.1-5.2 2.8-7.9-7.8-6.4-12.8-16.2-12.8-27.1s5-20.7 12.9-27.1c3.2-2.6 1.4-7.9-2.7-7.9h-.1c-20.1 0-36.2 16.9-34.9 37.3.9 16.7 14 30.5 30.6 32.4z" fill="#265e87"/><circle id="XMLID_1297_" cx="106" cy="36" fill="#ffc970" r="15"/><circle id="XMLID_1296_" cx="406" cy="36" fill="#ffc970" r="15"/><circle id="XMLID_1295_" cx="106" cy="476" fill="#ffc970" r="15"/><circle id="XMLID_1294_" cx="406" cy="476" fill="#ffc970" r="15"/></g><g id="XMLID_4864_"><g id="XMLID_86_"><path id="XMLID_4245_" d="m417 512h-322c-13.8 0-25-11.2-25-25v-462c0-13.8 11.2-25 25-25h322c13.8 0 25 11.2 25 25v462c0 13.8-11.2 25-25 25zm-322-502c-8.3 0-15 6.7-15 15v462c0 8.3 6.7 15 15 15h322c8.3 0 15-6.7 15-15v-462c0-8.3-6.7-15-15-15z" fill="#4d2162"/></g><g id="XMLID_477_"><path id="XMLID_3391_" d="m256 435c-54.6 0-99-44.4-99-99s44.4-99 99-99 99 44.4 99 99-44.4 99-99 99zm0-188c-49.1 0-89 39.9-89 89s39.9 89 89 89 89-39.9 89-89-39.9-89-89-89z" fill="#4d2162"/></g><g id="XMLID_480_"><path id="XMLID_3388_" d="m256 381c-24.8 0-45-20.2-45-45s20.2-45 45-45 45 20.2 45 45-20.2 45-45 45zm0-80c-19.3 0-35 15.7-35 35s15.7 35 35 35 35-15.7 35-35-15.7-35-35-35z" fill="#4d2162"/></g><g id="XMLID_483_"><path id="XMLID_3383_" d="m256 182c-35.8 0-65-29.2-65-65s29.2-65 65-65 65 29.2 65 65-29.2 65-65 65zm0-120c-30.3 0-55 24.7-55 55s24.7 55 55 55 55-24.7 55-55-24.7-55-55-55z" fill="#4d2162"/></g><g id="XMLID_479_"><path id="XMLID_3382_" d="m256 157c-13.6 0-26.1-6.8-33.5-18.2l8.4-5.5c5.6 8.6 15 13.7 25.2 13.7 16.5 0 30-13.5 30-30s-13.5-30-30-30-30 13.5-30 30h-10c0-22.1 17.9-40 40-40s40 17.9 40 40-18 40-40.1 40z" fill="#4d2162"/></g><g id="XMLID_489_"><path id="XMLID_3378_" d="m256 460c-68.4 0-124-55.6-124-124s55.6-124 124-124c26.5 0 51.6 8.2 72.4 23.3l6.8-6.8c3.8-3.8 8.8-5.9 14.1-5.9s10.4 2.1 14.1 5.9c3.8 3.8 5.9 8.8 5.9 14.1s-2.1 10.4-5.9 14.1l-9.9 9.9c-1 1-2.4 1.6-3.8 1.5s-2.8-.8-3.6-1.9c-21.7-28.1-54.6-44.2-90.1-44.2-62.9 0-114 51.1-114 114s51.1 114 114 114 114-51.1 114-114c0-18.3-4.5-36.6-12.9-52.7l8.9-4.6c9.2 17.6 14 37.4 14 57.4 0 68.3-55.6 123.9-124 123.9zm80.4-218.5c5 4.3 9.8 9 14.1 14.2l5.9-5.9c1.9-1.9 2.9-4.4 2.9-7.1s-1-5.2-2.9-7.1-4.4-2.9-7.1-2.9-5.2 1-7.1 2.9z" fill="#4d2162"/></g><g id="XMLID_496_"><path id="XMLID_3377_" d="m162.7 449.3c-5.3 0-10.4-2.1-14.1-5.9-3.8-3.8-5.9-8.8-5.9-14.1s2.1-10.4 5.9-14.1l9.8-9.8 7.1 7.1-9.8 9.8c-1.9 1.9-2.9 4.4-2.9 7.1s1 5.2 2.9 7.1 4.4 2.9 7.1 2.9 5.2-1 7.1-2.9l9.8-9.8 7.1 7.1-9.8 9.8c-4 3.7-9 5.7-14.3 5.7z" fill="#4d2162"/></g><g id="XMLID_1737_"><path id="XMLID_3375_" d="m158.4 266.7-9.9-9.9c-3.8-3.8-5.9-8.8-5.9-14.1s2.1-10.4 5.9-14.1c3.8-3.8 8.8-5.9 14.1-5.9s10.4 2.1 14.1 5.9l9.9 9.9-7.1 7.1-9.9-9.9c-1.9-1.9-4.4-2.9-7.1-2.9s-5.2 1-7.1 2.9-2.9 4.4-2.9 7.1 1 5.2 2.9 7.1l9.9 9.9z" fill="#4d2162"/></g><g id="XMLID_478_"><path id="XMLID_3372_" d="m349.3 449.3c-5.3 0-10.4-2.1-14.1-5.9l-9.9-9.9 7.1-7.1 9.9 9.9c1.9 1.9 4.4 2.9 7.1 2.9s5.2-1 7.1-2.9 2.9-4.4 2.9-7.1-1-5.2-2.9-7.1l-9.9-9.9 7.1-7.1 9.9 9.9c3.8 3.8 5.9 8.8 5.9 14.1s-2.1 10.4-5.9 14.1c-3.9 4.1-8.9 6.1-14.3 6.1z" fill="#4d2162"/></g><g id="XMLID_500_"><path id="XMLID_3368_" d="m106 56c-11 0-20-9-20-20s9-20 20-20 20 9 20 20-9 20-20 20zm0-30c-5.5 0-10 4.5-10 10s4.5 10 10 10 10-4.5 10-10-4.5-10-10-10z" fill="#4d2162"/></g><g id="XMLID_502_"><path id="XMLID_3364_" d="m406 56c-11 0-20-9-20-20s9-20 20-20 20 9 20 20-9 20-20 20zm0-30c-5.5 0-10 4.5-10 10s4.5 10 10 10 10-4.5 10-10-4.5-10-10-10z" fill="#4d2162"/></g><g id="XMLID_504_"><path id="XMLID_3358_" d="m106 496c-11 0-20-9-20-20s9-20 20-20 20 9 20 20-9 20-20 20zm0-30c-5.5 0-10 4.5-10 10s4.5 10 10 10 10-4.5 10-10-4.5-10-10-10z" fill="#4d2162"/></g><g id="XMLID_503_"><path id="XMLID_3353_" d="m406 496c-11 0-20-9-20-20s9-20 20-20 20 9 20 20-9 20-20 20zm0-30c-5.5 0-10 4.5-10 10s4.5 10 10 10 10-4.5 10-10-4.5-10-10-10z" fill="#4d2162"/></g></g></g></svg>