<svg id="Layer_1" enable-background="new 0 0 512 512" height="512" viewBox="0 0 512 512" width="512" xmlns="http://www.w3.org/2000/svg"><g id="XMLID_1_"><g id="XMLID_5228_"><g id="XMLID_1160_"><path id="XMLID_2427_" d="m169.1 320.8h10v218.2h-10z" fill="#b23998" transform="matrix(.707 .707 -.707 .707 354.93 2.751)"/></g><path id="XMLID_482_" d="m287.4 316.6c-19.5-19.5-41.7-29-49.5-21.2l-42.4 42.4c-7.8 7.8 1.7 30 21.2 49.5s41.7 29 49.5 21.2l42.4-42.4c7.8-7.8-1.7-29.9-21.2-49.5z" fill="#c12944"/><ellipse id="XMLID_1152_" cx="273.2" cy="330.8" fill="#d84861" rx="50" ry="20" transform="matrix(.707 .707 -.707 .707 313.924 -96.306)"/><g id="XMLID_1159_"><path id="XMLID_2426_" d="m301.6 250.2h10v94.5h-10z" fill="#b23998" transform="matrix(.707 .707 -.707 .707 300.063 -129.699)"/></g><path id="XMLID_1153_" d="m375.4 228.6c-19.5-19.5-41.7-29-49.5-21.2l-42.4 42.4c-7.8 7.8 1.7 30 21.2 49.5s41.7 29 49.5 21.2l42.4-42.4c7.8-7.8-1.7-29.9-21.2-49.5z" fill="#c12944"/><ellipse id="XMLID_1154_" cx="361.2" cy="242.8" fill="#d84861" rx="50" ry="20" transform="matrix(.707 .707 -.707 .707 277.473 -184.306)"/><g id="XMLID_1158_"><path id="XMLID_2425_" d="m389.6 162.2h10v94.5h-10z" fill="#b23998" transform="matrix(.707 .707 -.707 .707 263.612 -217.69)"/></g><g id="XMLID_1164_"><path id="XMLID_1555_" d="m76 231.5h10v215h-10z" fill="#b23998" transform="matrix(.707 .707 -.707 .707 263.412 42.001)"/></g><path id="XMLID_1166_" d="m213.6 248.9-42.4-42.4c-7.8-7.8-20.5-7.8-28.3 0l-42.4 42.4c-7.8 7.8-7.8 20.5 0 28.3l42.4 42.4c7.8 7.8 20.5 7.8 28.3 0l42.4-42.4c7.8-7.9 7.8-20.5 0-28.3z" fill="#ffb233"/><path id="XMLID_1165_" d="m213.6 248.9-42.4-42.4c-7.8-7.8-20.5-7.8-28.3 0l-7.1 7.1c-7.8 7.8-7.8 20.5 0 28.3l42.4 42.4c7.8 7.8 20.5 7.8 28.3 0l7.1-7.1c7.8-7.9 7.8-20.5 0-28.3z" fill="#ffc970"/><g id="XMLID_1163_"><path id="XMLID_1554_" d="m205.3 159.2h10v100.9h-10z" fill="#b23998" transform="matrix(.707 .707 -.707 .707 209.839 -87.323)"/></g><path id="XMLID_1738_" d="m302.6 159.9-42.4-42.4c-7.8-7.8-20.5-7.8-28.3 0l-42.4 42.4c-7.8 7.8-7.8 20.5 0 28.3l42.4 42.4c7.8 7.8 20.5 7.8 28.3 0l42.4-42.4c7.8-7.9 7.8-20.5 0-28.3z" fill="#ffb233"/><path id="XMLID_1167_" d="m302.6 159.9-42.4-42.4c-7.8-7.8-20.5-7.8-28.3 0l-7.1 7.1c-7.8 7.8-7.8 20.5 0 28.3l42.4 42.4c7.8 7.8 20.5 7.8 28.3 0l7.1-7.1c7.8-7.9 7.8-20.5 0-28.3z" fill="#ffc970"/><g id="XMLID_1162_"><path id="XMLID_1553_" d="m294.3 70.2h10v100.9h-10z" fill="#b23998" transform="matrix(.707 .707 -.707 .707 172.977 -176.307)"/></g><path id="XMLID_1155_" d="m463.4 140.6c-19.5-19.5-41.7-29-49.5-21.2l-42.4 42.4c-7.8 7.8 1.7 30 21.2 49.5s41.7 29 49.5 21.2l42.4-42.4c7.8-7.8-1.7-29.9-21.2-49.5z" fill="#c12944"/><ellipse id="XMLID_1156_" cx="449.2" cy="154.8" fill="#d84861" rx="50" ry="20" transform="matrix(.707 .707 -.707 .707 241.022 -272.306)"/><path id="XMLID_1740_" d="m391.6 70.9-42.4-42.4c-7.8-7.8-20.5-7.8-28.3 0l-42.4 42.4c-7.8 7.8-7.8 20.5 0 28.3l42.4 42.4c7.8 7.8 20.5 7.8 28.3 0l42.4-42.4c7.8-7.9 7.8-20.5 0-28.3z" fill="#ffb233"/><path id="XMLID_1739_" d="m391.6 70.9-42.4-42.4c-7.8-7.8-20.5-7.8-28.3 0l-7.1 7.1c-7.8 7.8-7.8 20.5 0 28.3l42.4 42.4c7.8 7.8 20.5 7.8 28.3 0l7.1-7.1c7.8-7.9 7.8-20.5 0-28.3z" fill="#ffc970"/><g id="XMLID_1161_"><path id="XMLID_1552_" d="m378.8-7.9h10v88.2h-10z" fill="#b23998" transform="matrix(.707 .707 -.707 .707 137.975 -260.801)"/></g><g id="XMLID_1157_"><path id="XMLID_2424_" d="m473.1 85h10v81.7h-10z" fill="#b23998" transform="matrix(.707 .707 -.707 .707 229.025 -301.182)"/></g></g><g id="XMLID_4878_"><g id="XMLID_770_"><path id="XMLID_2546_" d="m335 152.4c-6.4 0-12.8-2.4-17.7-7.3l-42.4-42.4c-4.7-4.7-7.3-11-7.3-17.7s2.6-13 7.3-17.7l42.4-42.4c4.7-4.7 11-7.3 17.7-7.3s13 2.6 17.7 7.3l42.4 42.4c9.7 9.7 9.7 25.6 0 35.4l-42.4 42.4c-4.9 4.9-11.3 7.3-17.7 7.3zm0-124.8c-3.8 0-7.7 1.5-10.6 4.4l-42.4 42.4c-5.8 5.8-5.8 15.4 0 21.2l42.4 42.4c5.8 5.8 15.4 5.8 21.2 0l42.4-42.4c5.8-5.8 5.8-15.4 0-21.2l-42.4-42.4c-2.9-2.9-6.8-4.4-10.6-4.4z" fill="#4d2162"/></g><g id="XMLID_762_"><path id="XMLID_2543_" d="m370.3 117.1c-6.4 0-12.8-2.4-17.7-7.3l-42.4-42.4c-9.7-9.7-9.7-25.6 0-35.4l7.1-7.1c9.7-9.7 25.6-9.7 35.4 0l42.4 42.4c9.7 9.7 9.7 25.6 0 35.4l-7.1 7.1c-4.9 4.8-11.3 7.3-17.7 7.3zm-35.3-89.5c-4 0-7.8 1.6-10.6 4.4l-7.1 7.1c-2.8 2.8-4.4 6.6-4.4 10.6s1.6 7.8 4.4 10.6l42.4 42.4c2.8 2.8 6.6 4.4 10.6 4.4s7.8-1.6 10.6-4.4l7.1-7.1c5.8-5.8 5.8-15.4 0-21.2l-42.4-42.4c-2.8-2.9-6.6-4.4-10.6-4.4z" fill="#4d2162"/></g><g id="XMLID_772_"><path id="XMLID_2540_" d="m246 241.4c-6.4 0-12.8-2.4-17.7-7.3l-42.4-42.4c-4.7-4.7-7.3-11-7.3-17.7s2.6-13 7.3-17.7l42.4-42.4c4.7-4.7 11-7.3 17.7-7.3s13 2.6 17.7 7.3l42.4 42.4c9.7 9.7 9.7 25.6 0 35.4l-42.4 42.4c-4.9 4.9-11.3 7.3-17.7 7.3zm0-124.8c-3.8 0-7.7 1.5-10.6 4.4l-42.4 42.4c-5.8 5.8-5.8 15.4 0 21.2l42.4 42.4c5.8 5.8 15.4 5.8 21.2 0l42.4-42.4c5.8-5.8 5.8-15.4 0-21.2l-42.4-42.4c-2.9-3-6.8-4.4-10.6-4.4z" fill="#4d2162"/></g><g id="XMLID_771_"><path id="XMLID_2537_" d="m281.4 206.1c-6.4 0-12.8-2.4-17.7-7.3l-42.4-42.4c-9.7-9.7-9.7-25.6 0-35.4l7.1-7.1c9.7-9.7 25.6-9.7 35.4 0l42.4 42.4c9.7 9.7 9.7 25.6 0 35.4l-7.1 7.1c-4.9 4.8-11.3 7.3-17.7 7.3zm-35.4-89.5c-4 0-7.8 1.6-10.6 4.4l-7.1 7.1c-2.8 2.8-4.4 6.6-4.4 10.6s1.6 7.8 4.4 10.6l42.4 42.4c2.8 2.8 6.6 4.4 10.6 4.4s7.8-1.6 10.6-4.4l7.1-7.1c5.8-5.8 5.8-15.4 0-21.2l-42.4-42.4c-2.8-2.9-6.6-4.4-10.6-4.4z" fill="#4d2162"/></g><g id="XMLID_774_"><path id="XMLID_2534_" d="m157 330.4c-6.7 0-13-2.6-17.7-7.3l-42.4-42.4c-4.7-4.7-7.3-11-7.3-17.7s2.6-13 7.3-17.7l42.4-42.4c9.7-9.7 25.6-9.7 35.4 0l42.4 42.4c9.7 9.7 9.7 25.6 0 35.4l-42.4 42.4c-4.7 4.7-11 7.3-17.7 7.3zm0-124.8c-3.8 0-7.7 1.5-10.6 4.4l-42.4 42.4c-5.8 5.8-5.8 15.4 0 21.2l42.4 42.4c5.8 5.8 15.4 5.8 21.2 0l42.4-42.4c5.8-5.8 5.8-15.4 0-21.2l-42.4-42.4c-2.9-3-6.8-4.4-10.6-4.4z" fill="#4d2162"/></g><g id="XMLID_485_"><path id="XMLID_2533_" d="m174.7 287.7-42.4-42.4c-4.7-4.7-7.3-11-7.3-17.7s2.6-13 7.3-17.7l7.1 7.1c-2.8 2.8-4.4 6.6-4.4 10.6s1.6 7.8 4.4 10.6l42.4 42.4z" fill="#4d2162"/></g><g id="XMLID_759_"><path id="XMLID_2532_" d="m58.8 273.1h10v166.2h-10z" fill="#4d2162" transform="matrix(.707 .707 -.707 .707 270.55 59.232)"/></g><g id="XMLID_1547_"><path id="XMLID_2531_" d="m187.7 201.9h10v50.9h-10z" fill="#4d2162" transform="matrix(.707 .707 -.707 .707 217.162 -69.647)"/></g><g id="XMLID_775_"><path id="XMLID_2530_" d="m276.7 112.9h10v50.9h-10z" fill="#4d2162" transform="matrix(.707 .707 -.707 .707 180.299 -158.632)"/></g><g id="XMLID_761_"><path id="XMLID_2529_" d="m378.8-7.9h10v88.2h-10z" fill="#4d2162" transform="matrix(.707 .707 -.707 .707 137.975 -260.801)"/></g><g id="XMLID_776_"><path id="XMLID_2528_" d="m151.6 363h10v168.7h-10z" fill="#4d2162" transform="matrix(.707 .707 -.707 .707 362.179 20.249)"/></g><g id="XMLID_1550_"><path id="XMLID_2527_" d="m283.9 292.8h10v44.5h-10z" fill="#4d2162" transform="matrix(.707 .707 -.707 .707 307.385 -112.023)"/></g><g id="XMLID_1549_"><path id="XMLID_2526_" d="m371.9 204.8h10v44.5h-10z" fill="#4d2162" transform="matrix(.707 .707 -.707 .707 270.934 -200.014)"/></g><g id="XMLID_1548_"><path id="XMLID_2523_" d="m473.1 85h10v81.7h-10z" fill="#4d2162" transform="matrix(.707 .707 -.707 .707 229.025 -301.182)"/></g><g id="XMLID_773_"><path id="XMLID_2522_" d="m457.2 191.9c-8.6-4.5-17.4-11.3-25.6-19.5-18.9-18.9-32.7-45.1-21.2-56.6l7.1 7.1c-4.3 4.3 1.8 23 21.2 42.4 7.5 7.5 15.5 13.6 23.2 17.7z" fill="#4d2162"/></g><g id="XMLID_873_"><path id="XMLID_2519_" d="m434.5 240.3c-13.1 0-31.3-11.3-45.4-25.4-18.9-18.9-32.7-45.1-21.2-56.6l42.4-42.4c5.3-5.3 14.5-5.6 25.9-.7 9.9 4.3 20.8 12 30.7 21.9 18.9 18.9 32.7 45.1 21.2 56.6l-42.4 42.4c-2.9 2.9-6.8 4.2-11.2 4.2zm-12.9-118.7c-1.9 0-3.4.4-4.3 1.3l-42.3 42.5c-4.3 4.3 1.8 23 21.2 42.4s38.1 25.5 42.4 21.2l42.4-42.4c4.3-4.3-1.8-23-21.2-42.4-15.5-15.5-30.5-22.6-38.2-22.6z" fill="#4d2162"/></g><g id="XMLID_874_"><path id="XMLID_2515_" d="m389 285.9c-13.1 0-31.3-11.3-45.4-25.4-18.9-18.9-32.7-45.1-21.2-56.6s37.7 2.4 56.6 21.2c18.9 18.9 32.7 45.1 21.2 56.6-3 2.9-6.8 4.2-11.2 4.2zm-55.4-76.3c-1.9 0-3.4.4-4.3 1.3-4.3 4.3 1.8 23 21.2 42.4s38.1 25.5 42.4 21.2-1.8-23-21.2-42.4c-15.4-15.4-30.4-22.5-38.1-22.5z" fill="#4d2162"/></g><g id="XMLID_872_"><path id="XMLID_2512_" d="m346.5 328.3c-13.1 0-31.3-11.3-45.4-25.4-9.9-9.9-17.7-20.8-21.9-30.7-4.9-11.4-4.6-20.5.7-25.9l42.4-42.4c5.3-5.3 14.5-5.6 25.9-.7 9.9 4.3 20.8 12 30.7 21.9 18.9 18.9 32.7 45.1 21.2 56.6l-42.4 42.4c-2.9 2.9-6.8 4.2-11.2 4.2zm-12.9-118.7c-1.9 0-3.4.4-4.3 1.3l-42.3 42.5c-4.3 4.3 1.8 23 21.2 42.4s38.1 25.5 42.4 21.2l42.4-42.4c4.3-4.3-1.8-23-21.2-42.4-15.5-15.5-30.5-22.6-38.2-22.6z" fill="#4d2162"/></g><g id="XMLID_885_"><path id="XMLID_2507_" d="m301 373.9c-13.1 0-31.3-11.3-45.4-25.4-18.9-18.9-32.7-45.1-21.2-56.6s37.7 2.4 56.6 21.2c18.9 18.9 32.7 45.1 21.2 56.6-3 2.9-6.8 4.2-11.2 4.2zm-55.4-76.3c-1.9 0-3.4.4-4.3 1.3-4.3 4.3 1.8 23 21.2 42.4s38.1 25.5 42.4 21.2-1.8-23-21.2-42.4c-15.4-15.4-30.4-22.5-38.1-22.5z" fill="#4d2162"/></g><g id="XMLID_875_"><path id="XMLID_2503_" d="m258.5 416.3c-13.1 0-31.3-11.3-45.4-25.4-9.9-9.9-17.7-20.8-21.9-30.7-4.9-11.4-4.6-20.5.7-25.9l42.4-42.4c5.3-5.3 14.5-5.6 25.9-.7 9.9 4.3 20.8 12 30.7 21.9 18.9 18.9 32.7 45.1 21.2 56.6l-42.4 42.4c-2.9 2.9-6.8 4.2-11.2 4.2zm-12.9-118.7c-1.9 0-3.4.4-4.3 1.3l-42.3 42.5c-4.3 4.3 1.8 23 21.2 42.4s38.1 25.5 42.4 21.2l42.4-42.4c4.3-4.3-1.8-23-21.2-42.4-15.5-15.5-30.5-22.6-38.2-22.6z" fill="#4d2162"/></g></g></g></svg>