<svg id="Layer_1" enable-background="new 0 0 512 512" height="512" viewBox="0 0 512 512" width="512" xmlns="http://www.w3.org/2000/svg"><g id="XMLID_1_"><g id="XMLID_5242_"><path id="XMLID_1210_" d="m507 267-251-187-251 187 251 240z" fill="#265e87"/><path id="XMLID_1207_" d="m419 507h-326v-482c0-11 9-20 20-20h286c11 0 20 9 20 20z" fill="#ffc970"/><g id="XMLID_1198_"><path id="XMLID_1206_" d="m166 96c0-11-9-20-20-20 11 0 20-9 20-20 0 11 9 20 20 20-11 0-20 9-20 20z" fill="#9cd3fc"/><path id="XMLID_1205_" d="m306 276c0-11-9-20-20-20 11 0 20-9 20-20 0 11 9 20 20 20-11 0-20 9-20 20z" fill="#9cd3fc"/><path id="XMLID_1204_" d="m146 276 154-77-77-77z" fill="#b23998"/><path id="XMLID_2076_" d="m192 253 10-5v-84l-10 20z" fill="#9cd3fc"/><path id="XMLID_2078_" d="m244 227 10-5v-69l-10-10z" fill="#9cd3fc"/><g id="XMLID_1201_"><path id="XMLID_2466_" d="m323.5 40.5h10v106.1h-10z" fill="#265e87" transform="matrix(.707 .707 -.707 .707 162.33 -204.899)"/></g><g id="XMLID_1200_"><path id="XMLID_2465_" d="m263.5 115.9-9-4.3 18.8-39.7c.5-1 .7-2.1.7-3.3 0-4.2-3.4-7.7-7.7-7.7-4.6 0-8.3 3.7-8.3 8.3v4.8h-10v-4.7c0-10.1 8.2-18.3 18.3-18.3 9.7 0 17.7 7.9 17.7 17.7 0 2.6-.6 5.2-1.7 7.6z" fill="#265e87"/></g><g id="XMLID_1199_"><path id="XMLID_2464_" d="m302.6 170.1-5.7-8.2 31.5-21.6c7.8-5.4 17-8.2 26.5-8.2 8.8 0 16 7.2 16 16s-7.2 16-16 16h-9v-10h9c3.3 0 6-2.7 6-6s-2.7-6-6-6c-7.5 0-14.7 2.2-20.9 6.5z" fill="#265e87"/></g></g><path id="XMLID_2110_" d="m345.4 362-89.6-66.9-90.3 67-72.5-53.9v198.8h326v-199.9z" fill="#ffb233"/><g id="XMLID_2337_"><path id="XMLID_2339_" d="m256 454-251-187v240h502v-240z" fill="#3179af"/></g><path id="XMLID_2566_" d="m507 483.1-145-108.1-106 79-106-79-145 108.1v23.9h502z" fill="#265e87"/><path id="XMLID_1209_" d="m507 507-251-187-251 187z" fill="#3179af"/></g><g id="XMLID_4892_"><g id="XMLID_1754_"><path id="XMLID_2605_" d="m507 512h-502c-2.8 0-5-2.2-5-5v-240h10v235h492v-235h10v240c0 2.8-2.2 5-5 5z" fill="#4d2162"/></g><g id="XMLID_1756_"><path id="XMLID_2604_" d="m163.1 391-161.1-120c-1.3-.9-2-2.4-2-4s.7-3.1 2-4l71.3-53.1 6 8-65.9 49.1 155.7 116z" fill="#4d2162"/></g><g id="XMLID_1208_"><path id="XMLID_2601_" d="m348.9 391.2-6-8 71.1-53v-128.8c0-1.9 1.1-3.6 2.8-4.5 1.7-.8 3.7-.7 5.2.5l88 65.7c1.3.9 2 2.4 2 4s-.7 3.1-2 4zm75.1-179.8v111.4l74.6-55.7z" fill="#4d2162"/></g><g id="XMLID_2201_"><path id="XMLID_2598_" d="m507 512h-502c-2.2 0-4.1-1.4-4.7-3.4-.7-2 0-4.3 1.8-5.6l251-187c1.8-1.3 4.2-1.3 6 0l251 187c1.7 1.3 2.4 3.5 1.8 5.6-.8 2-2.7 3.4-4.9 3.4zm-486.9-10h471.8l-235.9-175.8z" fill="#4d2162"/></g><g id="XMLID_572_"><path id="XMLID_2597_" d="m98 332.6h-10v-307.6c0-13.8 11.2-25 25-25h286c13.8 0 25 11.2 25 25v156.4h-10v-156.4c0-8.3-6.7-15-15-15h-286c-8.3 0-15 6.7-15 15z" fill="#4d2162"/></g><g id="XMLID_884_"><g id="XMLID_883_"><path id="XMLID_2594_" d="m166 101c-2.8 0-5-2.2-5-5 0-8.3-6.7-15-15-15-2.8 0-5-2.2-5-5s2.2-5 5-5c8.3 0 15-6.7 15-15 0-2.8 2.2-5 5-5s5 2.2 5 5c0 8.3 6.7 15 15 15 2.8 0 5 2.2 5 5s-2.2 5-5 5c-8.3 0-15 6.7-15 15 0 2.8-2.2 5-5 5zm-5-25c1.9 1.4 3.6 3.1 5 5 1.4-1.9 3.1-3.6 5-5-1.9-1.4-3.6-3.1-5-5-1.4 1.9-3.1 3.6-5 5z" fill="#4d2162"/></g><g id="XMLID_882_"><path id="XMLID_2591_" d="m306 281c-2.8 0-5-2.2-5-5 0-8.3-6.7-15-15-15-2.8 0-5-2.2-5-5s2.2-5 5-5c8.3 0 15-6.7 15-15 0-2.8 2.2-5 5-5s5 2.2 5 5c0 8.3 6.7 15 15 15 2.8 0 5 2.2 5 5s-2.2 5-5 5c-8.3 0-15 6.7-15 15 0 2.8-2.2 5-5 5zm-5-25c1.9 1.4 3.6 3.1 5 5 1.4-1.9 3.1-3.6 5-5-1.9-1.4-3.6-3.1-5-5-1.4 1.9-3.1 3.6-5 5z" fill="#4d2162"/></g><g id="XMLID_881_"><path id="XMLID_2588_" d="m146 281c-1.3 0-2.6-.5-3.5-1.5-1.5-1.5-1.9-3.8-.9-5.8l77-154c.7-1.4 2.1-2.4 3.7-2.7s3.2.3 4.3 1.4l77 77c1.1 1.1 1.7 2.8 1.4 4.3-.3 1.6-1.3 3-2.7 3.7l-154 77c-.8.4-1.5.6-2.3.6zm78.4-150.6-67.2 134.4 134.4-67.2z" fill="#4d2162"/></g><g id="XMLID_880_"><path id="XMLID_2587_" d="m192 174h10v76h-10z" fill="#4d2162"/></g><g id="XMLID_879_"><path id="XMLID_2586_" d="m244 148h10v76h-10z" fill="#4d2162"/></g><g id="XMLID_878_"><path id="XMLID_2585_" d="m323.5 40.5h10v106.1h-10z" fill="#4d2162" transform="matrix(.707 .707 -.707 .707 162.33 -204.899)"/></g><g id="XMLID_877_"><path id="XMLID_2584_" d="m263.5 115.9-9-4.3 18.8-39.7c.5-1 .7-2.1.7-3.3 0-4.2-3.4-7.7-7.7-7.7-4.6 0-8.3 3.7-8.3 8.3v4.8h-10v-4.7c0-10.1 8.2-18.3 18.3-18.3 9.7 0 17.7 7.9 17.7 17.7 0 2.6-.6 5.2-1.7 7.6z" fill="#4d2162"/></g><g id="XMLID_876_"><path id="XMLID_2583_" d="m302.6 170.1-5.7-8.2 31.5-21.6c7.8-5.4 17-8.2 26.5-8.2 8.8 0 16 7.2 16 16s-7.2 16-16 16h-9v-10h9c3.3 0 6-2.7 6-6s-2.7-6-6-6c-7.5 0-14.7 2.2-20.9 6.5z" fill="#4d2162"/></g></g></g></g></svg>