<svg id="Layer_1" enable-background="new 0 0 512 512" height="512" viewBox="0 0 512 512" width="512" xmlns="http://www.w3.org/2000/svg"><g id="XMLID_1_"><g id="XMLID_5308_"><path id="XMLID_1328_" d="m256 59c-58 0-105 47-105 105v156h210v-156c0-58-47-105-105-105z" fill="#3179af"/><path id="XMLID_1717_" d="m305 269v-20c0-68.9-56.1-125-125-125-7.5 0-14.8.7-21.9 1.9-4.6 11.8-7.1 24.6-7.1 38.1v105z" fill="#265e87"/><path id="XMLID_1686_" d="m207 249v20h130.4c1.9 13 11.6 24.1 23.6 28.2v-133.2c0-13.4-2.5-26.3-7.1-38.1-7.1-1.3-14.4-1.9-21.9-1.9-68.9 0-125 56.1-125 125z" fill="#265e87"/><path id="XMLID_1320_" d="m161.9 117.3 1.1.9c9.9 4.3 26.2-11.2 35.4-8.7 10.7 3 16.7 24.4 25.8 25.7 12.1 1.6 23.8-17.8 31.7-17.8 10.8 0 22.3 19.1 31.8 17.8 11-1.5 17-23.2 25.8-25.7 11.7-3.3 28.1 11.9 35.4 8.7l1.1-.9c-17.1-34.5-52.8-58.3-94-58.3-41.2 0-76.9 23.8-94.1 58.3z" fill="#4893cc"/><path id="XMLID_1326_" d="m193.2 234.9-28.2 10.3c-5.2 1.9-10.9-.8-12.8-6l-76.6-210.5c-1.9-5.2.8-10.9 6-12.8l28.2-10.3c5.2-1.9 10.9.8 12.8 6l76.6 210.5c1.9 5.2-.8 10.9-6 12.8z" fill="#ffc970"/><path id="XMLID_1712_" d="m116.6 141.3 35.6 97.9c1.9 5.2 7.6 7.9 12.8 6l28.2-10.3c5.2-1.9 7.9-7.6 6-12.8l-35.3-97c-17.1 2.1-33.1 7.8-47.3 16.2z" fill="#ffb233"/><path id="XMLID_1325_" d="m139.7 58.6-53.8-1.7-6.9-18.8 53.9 1.7z" fill="#d84861"/><path id="XMLID_1324_" d="m156.8 105.6-53.8-1.7-6.9-18.8 53.9 1.7z" fill="#d84861"/><path id="XMLID_1323_" d="m173.9 152.5-53.8-1.7-6.9-18.8 53.9 1.7z" fill="#c12944"/><path id="XMLID_1331_" d="m231 347h50v160h-50z" fill="#9cd3fc"/><path id="XMLID_2384_" d="m231 347h25v160h-25z" fill="#cde9fe"/><path id="XMLID_2383_" d="m231 347h50v70h-50z" fill="#6abdfb"/><path id="XMLID_1332_" d="m332.8 507h-153.6c-6.8 0-12.2-5.5-12.2-12.2 0-4.7 2.7-9.1 7-11.1l57-26.7h50l57 26.7c4.3 2 7 6.3 7 11.1 0 6.7-5.5 12.2-12.2 12.2z" fill="#6abdfb"/><path id="XMLID_2411_" d="m277.3 507h-98.1c-6.8 0-12.2-5.5-12.2-12.2 0-4.7 2.7-9.1 7-11.1l57-26.7h25l30.2 25.9c3 2.6 4.8 6.4 4.8 10.4 0 7.6-6.1 13.7-13.7 13.7z" fill="#9cd3fc"/><path id="XMLID_1329_" d="m180 144c-58 0-105 47-105 105l105 71 105-71c0-58-47-105-105-105z" fill="#b23998"/><path id="XMLID_1330_" d="m75 249h362c0 81.7-66.3 148-148 148h-66c-81.7 0-148-66.3-148-148z" fill="#9cd3fc"/><path id="XMLID_2359_" d="m393 249s-66.3 148-148 148h44c81.7 0 148-66 148-148z" fill="#6abdfb"/><path id="XMLID_1318_" d="m85.9 202.3 1.1.9c9.9 4.3 26.2-11.2 35.4-8.7 10.7 3 16.7 24.4 25.8 25.7 12.1 1.6 23.8-17.8 31.7-17.8 10.8 0 22.3 19.1 31.8 17.8 11-1.5 17-23.2 25.8-25.7 11.7-3.3 28.1 11.9 35.4 8.7l1.1-.9c-17.1-34.5-52.8-58.3-94-58.3-41.2 0-76.9 23.8-94.1 58.3z" fill="#c955b0"/><path id="XMLID_1693_" d="m285 249s-17.4-66.5-44.1-85.5c-21 22.4-33.9 52.5-33.9 85.5z" fill="#8b2d77"/><path id="XMLID_1687_" d="m210.4 220.2h1.4c11-1.5 17-23.2 25.8-25.7 11.7-3.3 28.1 11.9 35.4 8.7l1.1-.9c-7.7-15.5-19.2-28.9-33.2-38.8-14.7 15.7-25.4 35.1-30.5 56.7z" fill="#b23998"/><path id="XMLID_1327_" d="m227 249h115c8.3 0 15 6.7 15 15 0 8.3 6.7 15 15 15h1c13.3 0 24 10.7 24 24 0 11 9 20 20 20 11 0 20-9 20-20v-54c0-58-47-105-105-105-58 0-105 47-105 105z" fill="#d84861"/><path id="XMLID_1319_" d="m237.9 202.3 1.1.9c9.9 4.3 26.2-11.2 35.4-8.7 10.7 3 16.7 24.4 25.8 25.7 12.1 1.6 23.8-17.8 31.7-17.8 10.8 0 22.3 19.1 31.8 17.8 11-1.5 17-23.2 25.8-25.7 11.7-3.3 28.1 11.9 35.4 8.7l1.1-.9c-17.1-34.5-52.8-58.3-94-58.3-41.2 0-76.9 23.8-94.1 58.3z" fill="#e17084"/><path id="XMLID_1194_" d="m119 249c0 33.9 13.5 66.5 37.5 90.5l4.5 4.5c9 9 21.1 14 33.8 14 10.3 0 16.1-11.8 9.8-20-17.2-22.4-26.6-49.8-26.6-78.1v-10.9z" fill="#cde9fe"/></g><g id="XMLID_4906_"><g id="XMLID_525_"><path id="XMLID_3459_" d="m332.8 512h-153.6c-9.5 0-17.2-7.7-17.2-17.2 0-6.7 3.9-12.8 9.9-15.6l57-26.7c.7-.3 1.4-.5 2.1-.5h50c.7 0 1.5.2 2.1.5l57 26.7c6 2.8 9.9 8.9 9.9 15.6 0 9.5-7.7 17.2-17.2 17.2zm-100.7-50-56 26.2c-2.5 1.2-4.2 3.8-4.2 6.5 0 4 3.2 7.2 7.2 7.2h153.5c4 0 7.2-3.2 7.2-7.2 0-2.8-1.6-5.4-4.2-6.5l-56-26.2z" fill="#4d2162"/></g><g id="XMLID_404_"><path id="XMLID_3458_" d="m281 462h-50c-2.8 0-5-2.2-5-5v-40h10v35h40v-55h10v60c0 2.8-2.2 5-5 5z" fill="#4d2162"/></g><g id="XMLID_541_"><path id="XMLID_3457_" d="m289 402h-66c-84.4 0-153-68.6-153-153 0-2.8 2.2-5 5-5h152v10h-146.9c2.6 76.5 65.7 138 142.9 138h66c50.9 0 98.4-27.4 123.9-71.5l8.7 5c-27.4 47.2-78.1 76.5-132.6 76.5z" fill="#4d2162"/></g><g id="XMLID_543_"><path id="XMLID_3453_" d="m417 328c-13.8 0-25-11.2-25-25 0-10.5-8.5-19-19-19h-1c-11 0-20-9-20-20 0-5.5-4.5-10-10-10h-115c-2.8 0-5-2.2-5-5 0-60.7 49.3-110 110-110s110 49.3 110 110v54c0 13.8-11.2 25-25 25zm-184.9-84h109.9c11 0 20 9 20 20 0 5.5 4.5 10 10 10h1c16 0 29 13 29 29 0 8.3 6.7 15 15 15s15-6.7 15-15v-54c0-55.1-44.9-100-100-100-53.5 0-97.3 42.2-99.9 95z" fill="#4d2162"/></g><g id="XMLID_584_"><g id="XMLID_1562_"><path id="XMLID_3452_" d="m118.9 162.1-48-131.8c-1.4-3.8-1.2-7.8.5-11.5 1.7-3.6 4.7-6.4 8.5-7.8l28.2-10.3c7.8-2.8 16.4 1.2 19.2 9l48.3 132.8-9.4 3.4-48.3-132.6c-.9-2.6-3.8-3.9-6.4-3l-28.2 10.3c-2.6.9-3.9 3.8-3 6.4l48 131.8z" fill="#4d2162"/></g><g id="XMLID_1322_"><path id="XMLID_3451_" d="m85.9 52.7h53.9v10h-53.9z" fill="#4d2162" transform="matrix(1 .031 -.031 1 1.871 -3.518)"/></g><g id="XMLID_583_"><path id="XMLID_3450_" d="m79 33.9h53.9v10h-53.9z" fill="#4d2162" transform="matrix(1 .031 -.031 1 1.276 -3.312)"/></g><g id="XMLID_586_"><path id="XMLID_3448_" d="m103 99.7h53.9v10h-53.9z" fill="#4d2162" transform="matrix(1 .031 -.031 1 3.355 -4.03)"/></g><g id="XMLID_356_"><path id="XMLID_3447_" d="m96.1 80.9h53.9v10h-53.9z" fill="#4d2162" transform="matrix(1 .031 -.031 1 2.761 -3.824)"/></g><g id="XMLID_588_"><path id="XMLID_3446_" d="m120.1 146.2h20.9v10h-20.9z" fill="#4d2162" transform="matrix(1 .031 -.031 1 4.812 -4.024)"/></g><g id="XMLID_587_"><path id="XMLID_3445_" d="m113.2 127.9h53.9v10h-53.9z" fill="#4d2162" transform="matrix(1 .031 -.031 1 4.246 -4.339)"/></g></g><g id="XMLID_486_"><path id="XMLID_3444_" d="m225.7 140.3c-.7 0-1.4 0-2.1-.1-6.7-.9-11-7.3-15.6-14.1-3.4-5-7.2-10.7-10.9-11.7-2.5-.7-8.1 2-12.6 4.1-7.5 3.5-16 7.5-23.4 4.4-.4-.2-.7-.4-1.1-.6l-1.1-.9 6.1-8 .5.4c3.3 1 9.4-1.9 14.7-4.4 6.9-3.3 13.5-6.4 19.6-4.7 7.2 2 12.1 9.3 16.5 15.8 2.7 4 6.4 9.5 8.7 9.8 4.6.6 10.5-4.5 15.7-9.1 5.4-4.7 10.1-8.8 15.4-8.8 7.2 0 13.5 5.4 19.6 10.6 3.8 3.2 9 7.7 11.5 7.3 3.7-.5 7.7-6.5 11.2-11.8 4.2-6.3 8.1-12.2 13.9-13.8 8.1-2.2 16.6 1.7 24.2 5.2 3.2 1.5 8.4 3.9 10.3 3.8l.4-.3 6.1 8-1.1.9c-.3.2-.7.5-1.1.6-5.4 2.3-11.9-.6-18.7-3.8-6-2.8-12.8-5.9-17.3-4.7-2.3.6-5.6 5.7-8.3 9.7-4.7 7-10 15-18.2 16.1-6.9 1-13.2-4.4-19.3-9.6-4.5-3.8-9.6-8.2-13.1-8.2-1.6 0-6.1 4-8.8 6.4-6.1 5.1-13.4 11.5-21.7 11.5z" fill="#4d2162"/></g><g id="XMLID_487_"><path id="XMLID_3443_" d="m301.7 225.3c-.7 0-1.4 0-2.1-.1-6.7-.9-11-7.3-15.6-14.1-3.4-5-7.2-10.7-10.9-11.7-2.5-.7-8.1 2-12.6 4.1-7.5 3.5-16 7.5-23.4 4.4-.4-.2-.7-.4-1.1-.6l-1.1-.9 6.1-8 .5.4c3.3 1 9.4-1.9 14.7-4.4 6.9-3.3 13.5-6.4 19.6-4.7 7.2 2 12.1 9.3 16.5 15.8 2.7 4 6.4 9.5 8.7 9.8 4.6.6 10.5-4.5 15.7-9.1 5.4-4.7 10.1-8.8 15.4-8.8 7.2 0 13.5 5.4 19.6 10.6 3.8 3.2 9 7.7 11.5 7.3 3.7-.5 7.7-6.5 11.2-11.8 4.2-6.3 8.1-12.2 13.9-13.8 8.1-2.2 16.6 1.7 24.2 5.2 3.2 1.5 8.4 3.9 10.3 3.8l.4-.3 6.1 8-1.1.9c-.3.2-.7.5-1.1.6-5.4 2.3-11.9-.6-18.7-3.8-6-2.8-12.8-5.9-17.3-4.7-2.3.6-5.6 5.7-8.3 9.7-4.7 7-10 15-18.2 16.1-6.9.9-13.2-4.4-19.3-9.6-4.5-3.8-9.6-8.2-13.1-8.2-1.6 0-6.1 4-8.8 6.4-6.1 5.1-13.4 11.5-21.7 11.5z" fill="#4d2162"/></g><g id="XMLID_418_"><path id="XMLID_2461_" d="m349.9 129.4c-14.5-39.1-52.2-65.4-93.9-65.4-38.1 0-73.5 22.2-90.1 56.5l-9-4.4c8.9-18.3 22.7-33.8 39.9-44.9 17.7-11.2 38.1-17.2 59.2-17.2 45.9 0 87.4 28.9 103.2 72z" fill="#4d2162"/></g><g id="XMLID_540_"><path id="XMLID_2459_" d="m80 249h-10c0-60.7 49.3-110 110-110 30.4 0 58.7 12.1 79.6 34.1l-7.2 6.9c-19.1-20-44.8-31-72.4-31-55.1 0-100 44.9-100 100z" fill="#4d2162"/></g><g id="XMLID_488_"><path id="XMLID_2458_" d="m149.7 225.3c-.7 0-1.4 0-2.1-.1-6.7-.9-11-7.3-15.6-14.1-3.4-5-7.2-10.7-10.9-11.7-2.5-.7-8.1 2-12.6 4.1-7.5 3.5-16 7.5-23.4 4.4-.4-.2-.7-.4-1.1-.6l-1.1-.9 6.1-8 .5.4c3.3 1 9.4-1.9 14.7-4.4 6.9-3.3 13.5-6.4 19.6-4.7 7.2 2 12.1 9.3 16.5 15.8 2.7 4 6.4 9.5 8.7 9.8 4.6.6 10.5-4.5 15.7-9.1 5.4-4.7 10.1-8.8 15.4-8.8 7.2 0 13.5 5.4 19.6 10.6 3.8 3.2 9 7.7 11.5 7.3 3.7-.5 7.7-6.5 11.2-11.8 4.2-6.3 8.1-12.2 13.9-13.8 1.9-.5 4-.7 6.2-.6l-.6 10c-1.1-.1-2.1 0-3 .3-2.3.6-5.6 5.7-8.3 9.7-4.7 7-10 15-18.2 16.1-6.9.9-13.2-4.4-19.3-9.6-4.5-3.8-9.6-8.2-13.1-8.2-1.6 0-6.1 4-8.8 6.4-5.9 5.1-13.2 11.5-21.5 11.5z" fill="#4d2162"/></g></g></g></svg>