<svg id="Layer_1" enable-background="new 0 0 512 512" height="512" viewBox="0 0 512 512" width="512" xmlns="http://www.w3.org/2000/svg"><g id="XMLID_1_"><g id="XMLID_5322_"><path id="XMLID_1243_" d="m256 55-181 402c0 27.6 81 50 181 50s181-22.4 181-50z" fill="#265e87"/><path id="XMLID_1776_" d="m256 55-181 402c131.4 23.9 245.3-92.9 218.1-223.7z" fill="#3179af"/><path id="XMLID_1242_" d="m380.1 330.6c-12-7.6-25.3-14.8-38.6-11.1-13.1 3.6-19.9 17.4-26.5 30.7-2.1 4.3-6.2 12.5-9.2 16.2-3.3-2.6-8.1-8-11.3-11.5-10.7-11.8-21.7-23.9-36.5-23.9 0 0-.1 0-.2 0-15 .1-26.1 12.3-36.8 24.1-3.3 3.7-8.5 9.3-11.8 11.9-3.1-3.5-7.4-11.8-9.9-16.6-6.8-13.2-13.9-26.9-27.1-30.4-14.3-3.8-28.5 4.5-41.2 12.5l-18 39.9c10.7.2 21.5-6.6 31.9-13.3 5.2-3.3 14.5-9.2 18.9-10.1 2.5 2.8 6.4 10.4 8.8 15.1 7.6 14.8 16.3 31.5 33 33.6 1.1.1 2.2.2 3.2.2 13.7 0 24.2-11.5 34.3-22.7 3.7-4 11-12.1 14.7-14 3.6 1.9 10.8 9.8 14.4 13.8 10.9 12 22.1 24.4 37.3 22.3 16.6-2.3 24.9-19.1 32.2-33.9 2.3-4.6 5.9-11.8 8.3-14.8 4.3 1 13.2 6.8 18.2 10 10 6.4 20.2 13 30.5 13.3z" fill="#ffb233"/><path id="XMLID_1241_" d="m315 186.1c-5.1-1.2-10.3-1.4-15.5-.2-12.9 3.1-21 15.6-29 27.8-3.4 5.2-9.5 14.6-13 17-3.7-2.3-10.2-11.8-13.7-17.1-8.2-12-16.7-24.4-29.6-27.4-5.9-1.3-11.8-.8-17.7.8l-19.3 43c2.9-1.5 5.8-3.2 8.6-4.8 5.6-3.2 16.9-9.7 21.2-9.7h.1c2.9 1.9 8.5 10.1 11.8 15.1 9.7 14.3 20.8 30.5 38.6 30.5h.2c17.8 0 28.5-16.5 37.9-30.9 3.2-4.9 8.4-12.9 11.2-15 4.2.1 14.8 6.3 20.7 9.6 2.2 1.2 4.3 2.5 6.5 3.7z" fill="#ffb233"/><path id="XMLID_1777_" d="m258 331s-.1 0-.2 0c-15 .1-26.1 12.3-36.8 24.1-3.3 3.7-8.5 9.3-11.8 11.9-3.1-3.5-7.4-11.8-9.9-16.6-6.8-13.2-13.9-26.9-27.1-30.4-14.3-3.8-28.5 4.5-41.2 12.5l-18 39.9c10.7.2 21.5-6.6 31.9-13.3 5.2-3.3 14.5-9.2 18.9-10.1 2.5 2.8 6.4 10.4 8.8 15.1 7.6 14.8 16.3 31.5 33 33.6 1.1.1 2.2.2 3.2.2 13.7 0 24.2-11.5 34.3-22.7 3.7-4 11-12.1 14.7-14 2.6 1.4 7.1 6 10.8 9.9 5.6-8.9 10.4-18.3 14.5-28.1-7.4-6.8-15.4-12-25.1-12z" fill="#ffc970"/><path id="XMLID_1780_" d="m293.1 233.3-8.1-38.9c-5.4 5.3-10 12.3-14.5 19.2-3.4 5.2-9.5 14.6-13 17-3.7-2.3-10.2-11.8-13.7-17.1-8.2-12-16.7-24.4-29.6-27.4-5.9-1.3-11.8-.8-17.7.8l-19.3 43.1c2.9-1.5 5.8-3.2 8.6-4.8 5.6-3.2 16.9-9.7 21.2-9.7h.1c2.9 1.9 8.5 10.1 11.8 15.1 9.7 14.3 20.8 30.5 38.6 30.5h.2c16.3 0 26.5-13.7 35.4-27.1.1-.3 0-.5 0-.7z" fill="#ffc970"/><g id="XMLID_1238_"><path id="XMLID_1239_" d="m348.5 139-4.9-7.5c-21.2-32.2-53.2-56-90.2-66.9l-13.8-4.1 8.7-11.5c20.7-27.6 53.6-44 88.1-44h54.6v20h-54.6c-23.5 0-46.1 9.3-62.9 25.4 35.3 13.8 65.7 38.3 86.7 70.1l4.9 7.5z" fill="#9cd3fc"/></g><path id="XMLID_1240_" d="m256 5 11.9 33.7 36.1.7-28.8 21.5 10.5 34.1-29.7-20.3-29.7 20.3 10.5-34.1-28.8-21.5 36.1-.7z" fill="#ffc970"/></g><g id="XMLID_4920_"><g id="XMLID_760_"><path id="XMLID_2666_" d="m208.9 403c-1.3 0-2.6-.1-3.8-.3-19.3-2.5-29-21.2-36.8-36.3-1.6-3.1-4.2-8.1-6.3-11.4-4.4 2.1-11.3 6.4-14.3 8.3-11 7-22.5 14.3-34.7 14-1.7 0-3.2-.9-4.1-2.3s-1-3.2-.3-4.7l18-39.9c.4-.9 1.1-1.7 1.9-2.2 11.2-7.1 28.1-17.7 45.2-13.1 15.3 4.1 23.2 19.4 30.2 33 1.4 2.8 4 7.7 6.3 11.4 2.5-2.5 5.3-5.6 7.2-7.7 10.9-12 23.3-25.7 40.5-25.8h.2c17.1 0 29.4 13.6 40.2 25.5 1.8 2 4.3 4.7 6.7 7.1 2.1-3.7 4.3-8.1 5.6-10.7 6.8-13.6 14.4-29.1 29.7-33.3 15.5-4.3 30.1 3.8 42.6 11.7l-5.3 8.5c-10.7-6.8-23.1-13.7-34.6-10.5-11 3-17.3 15.7-23.4 28.1-3.1 6.3-6.7 13.3-9.7 17.1-.8 1-2 1.7-3.4 1.9-1.3.2-2.6-.2-3.7-1.1-3.6-2.9-8.6-8.4-11.9-12-10.5-11.5-20.3-22.3-32.9-22.3h-.2c-12.8.1-22.6 10.9-33.1 22.5-3.5 3.9-8.8 9.7-12.5 12.5-2.1 1.6-5.1 1.3-6.8-.7-3.2-3.7-7-10.7-10.5-17.6-6.3-12.3-12.9-24.9-23.9-27.9-11.5-3.1-23.6 3.4-36 11.1l-13.6 30.1c6.8-2.2 14-6.7 20.9-11.1 7.8-4.9 15.7-9.8 20.6-10.8 1.7-.3 3.5.3 4.7 1.6 2.7 3 6 9.3 9.5 16.1 7.4 14.3 15.1 29.1 29.2 31 .9.1 1.7.2 2.6.2 11.5 0 21.2-10.7 30.6-21.1 5.6-6.2 12-13 16.1-15.1 1.5-.8 3.2-.7 4.7 0 4 2.2 10.2 8.8 15.7 14.8 10.5 11.6 20.4 22.4 32.9 20.7 14-1.9 21.3-16.8 28.5-31.1 3.1-6.2 6.3-12.6 8.9-15.7 1.2-1.5 3.2-2.2 5.1-1.7 4.7 1.1 12.3 5.9 19.7 10.6 3.4 2.2 6.8 4.4 10.2 6.3l-4.9 8.7c-3.6-2.1-7.2-4.4-10.7-6.6-3.1-2-9.3-6-13.5-8.1-2 3.3-4.3 8-5.7 10.9-7.5 15.1-16.8 34-36 36.6-17.8 2.5-30.5-11.5-41.7-23.9-2-2.2-7.2-7.9-10.7-11-3.6 3.1-8.9 9-10.9 11.2-10.6 11.5-22.4 24.5-38.3 24.5z" fill="#4d2162"/></g><g id="XMLID_764_"><path id="XMLID_2661_" d="m257.8 266h-.2c-20.5 0-32.8-18.1-42.8-32.6-1.8-2.6-6.6-9.6-9.3-12.6-2.3.7-7.2 3-17.3 8.8-2.7 1.5-5.7 3.3-8.8 4.9-1.9 1-4.2.7-5.8-.8s-2-3.8-1.1-5.7l19.5-43c.6-1.4 1.8-2.4 3.2-2.8 7.3-2 13.9-2.3 20.1-.9 14.8 3.4 23.8 16.6 32.6 29.4 1.8 2.6 6.2 9.1 9.5 13 3.1-3.8 7.1-10 9-12.8 8.5-13 17.2-26.4 32-30 5.6-1.3 11.4-1.3 17.8.2 1.5.4 2.8 1.4 3.4 2.8l19 42.3c.9 2 .4 4.3-1.2 5.7-1.6 1.5-3.9 1.7-5.8.7-2.2-1.2-4.5-2.6-6.6-3.7-8.1-4.7-13.6-7.5-16.6-8.6-2.6 3.1-6.8 9.6-8.6 12.3l-.1.2c-9.5 14.9-21.4 33.2-41.9 33.2zm-50.8-55.5h.4c.9 0 1.8.3 2.6.8 3.4 2.3 8 8.8 13.2 16.4 9.5 13.9 19.3 28.3 34.5 28.3h.2c15 0 24.4-14.5 33.6-28.5l.1-.2c4.7-7.2 9.1-13.8 12.4-16.3.9-.7 2-1.1 3.1-1 3.6.1 8.8 2.4 16.2 6.4l-11.7-26c-3.9-.6-7.5-.6-10.8.2-10.9 2.6-18.5 14.3-25.9 25.7-5.1 7.8-10.4 15.7-14.4 18.4-1.6 1.1-3.8 1.2-5.5.1-4.2-2.6-9.8-10.6-15.2-18.5-7.6-11.2-15.6-22.8-26.5-25.3-4-.9-8.3-.8-13 .2l-12.3 27c8.7-4.8 15-7.7 19-7.7z" fill="#4d2162"/></g><g id="XMLID_22_"><path id="XMLID_2658_" d="m285.7 100c-1 0-2-.3-2.8-.9l-26.9-18.4-26.8 18.4c-1.8 1.2-4.1 1.2-5.8-.1s-2.4-3.5-1.8-5.5l9.4-30.7-26-19.4c-1.7-1.3-2.4-3.5-1.8-5.5.7-2 2.5-3.4 4.7-3.5l32.7-.7 10.7-30.4c.7-2 2.6-3.3 4.7-3.3s4 1.3 4.7 3.3l10.7 30.4 32.7.7c2.1 0 4 1.4 4.7 3.5.7 2-.1 4.3-1.8 5.5l-26 19.4 9.4 30.7c.6 2-.1 4.2-1.8 5.5-.9.7-1.9 1-2.9 1zm-29.7-30.3c1 0 2 .3 2.8.9l17.9 12.2-6.3-20.4c-.6-2 .1-4.2 1.8-5.5l17.1-12.8-21.6-.4c-2.1 0-3.9-1.4-4.6-3.3l-7.1-20.4-7.2 20.3c-.7 2-2.5 3.3-4.6 3.3l-21.6.4 17.1 12.8c1.7 1.3 2.4 3.5 1.8 5.5l-6.3 20.4 17.9-12.2c.9-.6 1.9-.8 2.9-.8z" fill="#4d2162"/></g><g id="XMLID_637_"><g id="XMLID_1566_"><path id="XMLID_2657_" d="m348.5 144c-1.6 0-3.2-.8-4.2-2.3l-4.9-7.5c-15.4-23.4-36.9-42.4-62.1-54.9l4.4-9c26.8 13.3 49.6 33.5 66 58.4l2.2 3.3 8.4-5.5-2.2-3.3c-18.4-27.9-44.2-50.1-74.6-64.1l4.2-9.1c32.1 14.8 59.3 38.2 78.8 67.6l4.9 7.5c.7 1.1 1 2.5.7 3.8s-1 2.4-2.1 3.2l-16.7 11c-.9.6-1.9.9-2.8.9z" fill="#4d2162"/></g><g id="XMLID_638_"><path id="XMLID_2656_" d="m290.7 43.3-5.3-8.5c15.4-9.7 33-14.8 51-14.8h49.6v-10h-49.6c-24.8 0-48.9 8.8-68 24.9l-6.4-7.7c20.9-17.5 47.3-27.2 74.4-27.2h54.6c2.8 0 5 2.2 5 5v20c0 2.8-2.2 5-5 5h-54.6c-16.1 0-31.9 4.6-45.7 13.3z" fill="#4d2162"/></g></g><g id="XMLID_1843_"><path id="XMLID_2457_" d="m256 512c-90.2 0-186-19.3-186-55 0-.7.2-1.4.4-2.1l121.6-269.9 9.1 4.1-121 268.9c1.1 10.3 19.3 21.3 49.3 29.6 33.8 9.3 78.7 14.5 126.7 14.5s92.9-5.1 126.7-14.5c30-8.3 48.2-19.3 49.3-29.6l-167.9-372.5 9.1-4.1 168.2 373.6c.3.6.4 1.3.4 2.1.1 35.6-95.7 54.9-185.9 54.9z" fill="#4d2162"/></g><g id="XMLID_698_"><path id="XMLID_2456_" d="m219.4 79.4h10v91.8h-10z" fill="#4d2162" transform="matrix(.912 .411 -.411 .912 71.2 -81.064)"/></g></g></g></svg>