<svg id="Layer_1" enable-background="new 0 0 512 512" height="512" viewBox="0 0 512 512" width="512" xmlns="http://www.w3.org/2000/svg"><g id="XMLID_1_"><g id="XMLID_5336_"><path id="XMLID_1197_" d="m387.2 148c0-16.6-13.4-30-30-30 16.6 0 30-13.4 30-30 0 16.6 13.4 30 30 30-16.5 0-30 13.4-30 30z" fill="#ffc970"/><path id="XMLID_1187_" d="m150 423.7c0-16.6-13.4-30-30-30 16.6 0 30-13.4 30-30 0 16.6 13.4 30 30 30-16.6 0-30 13.4-30 30z" fill="#ffc970"/><path id="XMLID_1151_" d="m95 39v208.6c-9.5-7.9-21.7-12.6-35-12.6-30.4 0-55 24.6-55 55s24.6 55 55 55 55-24.6 55-55v-151l160-34v108.6c-9.5-7.9-21.7-12.6-35-12.6-30.4 0-55 24.6-55 55s24.6 55 55 55 55-24.6 55-55v-251z" fill="#b23998"/><path id="XMLID_1150_" d="m453.7 240.1-21.4-24.1c-8.5-9.5-20.6-14.9-33.3-14.9h-20v208.6c-9.8-8.1-22.5-12.9-36.3-12.6-30.1.7-54.3 26.1-53.6 56.3.7 29.7 24.9 53.5 54.6 53.7 30.7.2 55.3-25.2 55.3-55.9v-180.2c12.7 0 24.8 5.4 33.3 14.9l21.4 24.1c8.5 9.5 20.6 14.9 33.3 14.9h20v-70h-20c-12.7.1-24.8-5.3-33.3-14.8z" fill="#3179af"/></g><g id="XMLID_4934_"><g id="XMLID_936_"><path id="XMLID_2580_" d="m387.2 153c-2.8 0-5-2.2-5-5 0-13.8-11.2-25-25-25-2.8 0-5-2.2-5-5s2.2-5 5-5c13.8 0 25-11.2 25-25 0-2.8 2.2-5 5-5s5 2.2 5 5c0 13.8 11.2 25 25 25 2.8 0 5 2.2 5 5s-2.2 5-5 5c-13.8 0-25 11.2-25 25 0 2.8-2.2 5-5 5zm-12-35c4.9 3 9 7.1 12 12 3-4.9 7.1-9 12-12-4.9-3-9-7.1-12-12-2.9 4.9-7.1 9-12 12z" fill="#4d2162"/></g><g id="XMLID_938_"><path id="XMLID_2576_" d="m150 428.7c-2.8 0-5-2.2-5-5 0-13.8-11.2-25-25-25-2.8 0-5-2.2-5-5s2.2-5 5-5c13.8 0 25-11.2 25-25 0-2.8 2.2-5 5-5s5 2.2 5 5c0 13.8 11.2 25 25 25 2.8 0 5 2.2 5 5s-2.2 5-5 5c-13.8 0-25 11.2-25 25 0 2.7-2.2 5-5 5zm-12-35c4.9 3 9 7.1 12 12 3-4.9 7.1-9 12-12-4.9-3-9-7.1-12-12-3 4.9-7.1 9-12 12z" fill="#4d2162"/></g><g id="XMLID_2389_"><path id="XMLID_2502_" d="m60 350c-33.1 0-60-26.9-60-60s26.9-60 60-60c10.6 0 20.9 2.8 30 8v-199c0-2.4 1.8-4.5 4.2-4.9l200-34c1.4-.2 2.9.2 4.1 1.1 1.1 1 1.8 2.3 1.8 3.8v251c0 33.1-26.9 60-60 60s-60-26.9-60-60 26.9-60 60-60c10.6 0 20.9 2.8 30 8v-79h10v88.6c0 1.9-1.1 3.7-2.9 4.5s-3.8.6-5.3-.7c-8.9-7.4-20.2-11.4-31.8-11.4-27.6 0-50 22.4-50 50s22.4 50 50 50 50-22.4 50-50v-245.1l-190.1 32.3v204.4c0 1.9-1.1 3.7-2.9 4.5s-3.8.6-5.3-.7c-8.9-7.3-20.2-11.4-31.8-11.4-27.6 0-50 22.4-50 50s22.4 50 50 50 50-22.4 50-50v-151c0-2.4 1.7-4.4 4-4.9l160-34 2.1 9.8-156.1 33.1v147c0 33.1-26.9 60-60 60z" fill="#4d2162"/></g><g id="XMLID_1926_"><path id="XMLID_2501_" d="m344 512c-.1 0-.2 0-.4 0-15.7-.1-30.5-6.2-41.7-17.2s-17.5-25.7-17.9-41.4c-.8-33.1 25.5-60.6 58.5-61.4 14.5-.3 28.5 4.5 39.6 13.7l-6.4 7.7c-9.3-7.6-21-11.7-33-11.4-27.5.7-49.4 23.6-48.8 51.2.6 27.2 22.4 48.7 49.7 48.8h.3c13.1 0 25.5-5.1 34.9-14.5 9.8-9.7 15.1-22.6 15.1-36.4v-180.1c0-2.8 2.2-5 5-5 14.1 0 27.6 6.1 37 16.6l21.4 24.1c7.5 8.4 18.3 13.3 29.6 13.3h15v-60h-15c-14.1 0-27.6-6.1-37-16.6l-21.4-24.1c-7.5-8.4-18.3-13.3-29.6-13.3h-15v183.6h-10v-188.6c0-2.8 2.2-5 5-5h20c14.1 0 27.6 6.1 37 16.6l21.4 24.1c7.5 8.4 18.3 13.3 29.6 13.3h20c2.8 0 5 2.2 5 5v70c0 2.8-2.2 5-5 5h-20c-14.1 0-27.6-6.1-37-16.6l-21.4-24.1c-6.4-7.2-15.1-11.7-24.6-13v174.8c0 16.5-6.4 31.9-18.1 43.5-11.2 11.2-26.1 17.4-41.8 17.4z" fill="#4d2162"/></g></g></g></svg>