<svg id="Layer_1" enable-background="new 0 0 512 512" height="512" viewBox="0 0 512 512" width="512" xmlns="http://www.w3.org/2000/svg"><g id="XMLID_1_"><g id="XMLID_5350_"><path id="XMLID_1335_" d="m251.8 53c5.3-27.9 29.7-48 58.1-48 108.9 0 197.1 88.2 197.1 197.1 0 168.4-136.5 304.9-304.9 304.9-108.9 0-197.1-88.2-197.1-197.1 0-28.4 20.2-52.7 48-58.1 100.8-19.2 179.6-98 198.8-198.8z" fill="#ffb233"/><path id="XMLID_1463_" d="m35 339.9c0-28.4 20.2-52.7 48-58.1 100.8-19.2 179.6-98 198.8-198.8 5.3-27.9 29.7-48 58.1-48 46.8 0 89.8 16.3 123.6 43.5-36.2-44.8-91.5-73.5-153.6-73.5-28.4 0-52.7 20.2-58.1 48-19.2 100.8-98 179.6-198.8 198.8-27.9 5.3-48 29.7-48 58.1 0 62.1 28.7 117.4 73.5 153.6-27.2-33.8-43.5-76.8-43.5-123.6z" fill="#ffc970"/><g id="XMLID_1337_"><path id="XMLID_1338_" d="m70 464.6c-35.9 0-65-29.1-65-65 0-35.9 29.1-65 65-65 145.8 0 264-118.2 264-264 0-35.9 29.1-65 65-65 35.9 0 65 29.1 65 65 0 217.6-176.4 394-394 394z" fill="#d84861"/></g><path id="XMLID_2397_" d="m460.4 124c-4.1-.7-8.3-1-12.5-1-37.9 0-70.6 27-77.7 64.3-17.8 93.3-89.6 165.1-182.9 182.9-37.3 7.1-64.3 39.8-64.3 77.7 0 4.4.4 8.8 1.1 13 174.6-23.9 312.7-162.2 336.3-336.9z" fill="#c12944"/><g id="XMLID_1333_"><path id="XMLID_1334_" d="m95.5 381.9c-5.5-1.4-8.7-7.1-7.1-12.6 1.9-6.3 4.8-14.8 8.5-23.6 10.5-25.3 21.9-39.3 34.7-42.6 11.7-3 23.6 7.9 38.7 21.7 6 5.5 12.2 11.2 17.7 15.2 4.5 3.3 7.1 4.5 8.5 4.9 1.6-5.2 1.3-18.9 1.1-27.3-.5-21.3-.9-41.3 10.9-49.5 10.5-7.3 26.1-1 45.8 7 8.7 3.5 24.5 9.9 30.1 9.4.5-5.6-5.9-21.4-9.4-30.1-8-19.7-14.3-35.3-7-45.8 8.2-11.8 28.2-11.4 49.5-10.9 8.5.2 22.1.5 27.3-1.1-.4-1.4-1.6-4.1-4.9-8.5-4.1-5.5-9.7-11.7-15.2-17.7-13.8-15.1-24.7-27-21.7-38.7 3.3-12.8 17.3-24.2 42.6-34.7 8.8-3.7 17.3-6.5 23.6-8.5 5.4-1.7 11.2 1.5 12.6 7.1 1.3 5.1-1.6 10.4-6.7 12-24.4 7.4-48.9 19.3-52.5 28.3 1.5 4.2 10.6 14.3 16.8 21 15.9 17.3 30.8 33.7 24 48.8-5.9 12.9-24.6 12.5-46.4 12-7.8-.2-15.9-.3-22.4.2-6.2.5-8.9 1.5-9.9 2-.2 4.9 5.4 18.6 8.8 27 8.5 21 16.5 40.8 5.3 52s-31 3.2-52-5.3c-8.4-3.4-22.1-8.9-27-8.8-.5 1-1.5 3.7-2 9.9-.5 6.5-.4 14.6-.2 22.4.5 21.7.9 40.5-12 46.4-2.6 1.2-5.2 1.7-7.9 1.7-12.9 0-26.6-12.5-41-25.7-6.7-6.2-16.8-15.3-21-16.8-9 3.6-21 28.1-28.3 52.5-1.4 5.1-6.7 8.1-11.9 6.7z" fill="#ffdca3"/></g><path id="XMLID_1336_" d="m389.8 191c5.3-27.9 29.7-48 58.1-48 32.6 0 59.1 26.5 59.1 59.1 0 168.4-136.5 304.9-304.9 304.9-32.6 0-59.1-26.5-59.1-59.1 0-28.4 20.2-52.7 48-58.1 100.8-19.2 179.6-98 198.8-198.8z" fill="#ffc970"/></g><g id="XMLID_4948_"><g id="XMLID_1582_"><path id="XMLID_3466_" d="m145.7 478.5c-5.1-9.3-7.7-19.9-7.7-30.6 0-30.7 21.9-57.2 52.1-63 99.4-19 175.9-95.4 194.8-194.8 5.8-30.2 32.2-52.1 63-52.1 10.5 0 20.8 2.6 30 7.5l-4.7 8.8c-7.7-4.1-16.5-6.3-25.3-6.3-25.9 0-48.3 18.5-53.1 44-9.6 50.4-33.9 96.3-70.2 132.6s-82.2 60.6-132.6 70.2c-25.5 4.9-44 27.2-44 53.1 0 9 2.3 17.9 6.5 25.8z" fill="#4d2162"/></g><g id="XMLID_755_"><g id="XMLID_756_"><path id="XMLID_3462_" d="m98 387.3c-1.2 0-2.5-.2-3.7-.5-4-1-7.3-3.6-9.4-7.2-2-3.6-2.5-7.8-1.2-11.7 1.8-5.9 4.8-14.8 8.6-24.1 11.2-26.9 23.6-41.8 38.1-45.5 14.3-3.7 27.1 8 43.3 22.8 5.9 5.4 12 11 17.3 14.9.6.4 1.1.8 1.6 1.1.3-6.1.2-14.3.1-19.4-.5-22.6-1-44 13.1-53.7 12.7-8.8 29.4-2.1 50.5 6.5h.1c4.7 1.9 15.3 6.2 22.2 8.1-1.9-6.9-6.2-17.6-8.1-22.3-8.5-21.1-15.3-37.8-6.5-50.5 9.7-14 31.1-13.6 53.7-13.1 5.2.1 13.4.3 19.4-.1-.3-.5-.7-1-1.1-1.6-3.9-5.3-9.5-11.4-14.9-17.3-14.8-16.2-26.5-29-22.8-43.3 3.8-14.4 18.6-26.9 45.5-38.1 9.3-3.8 18.2-6.8 24.1-8.6 4-1.2 8.1-.8 11.7 1.2s6.2 5.3 7.2 9.4c2 7.8-2.5 15.7-10.1 18-25 7.6-43.4 17.6-48.2 23.7 2.9 4.5 11 13.4 14.8 17.5 17 18.6 33.1 36.1 24.8 54.3-7.2 15.9-28.5 15.5-51 15-7.7-.2-15.6-.3-21.9.2-2 .2-3.6.4-4.7.6 1.5 6 5.8 16.5 7.8 21.6 9.1 22.6 17.8 43.9 4.2 57.5s-34.9 4.9-57.5-4.2c-4.6-1.9-15.5-6.3-21.6-7.8-.2 1.2-.4 2.7-.6 4.7-.5 6.3-.3 14.2-.2 21.9.5 22.6 1 43.8-15 51.1-3.1 1.4-6.5 2.2-9.9 2.2-14.8 0-29.1-13.1-44.3-27-4.1-3.8-13-11.9-17.5-14.8-6.1 4.9-16.1 23.2-23.7 48.2-1.9 6.1-7.7 10.3-14.2 10.3zm37.6-79.7c-.9 0-1.8.1-2.7.3-11 2.9-21.6 16.2-31.3 39.7-3.7 8.9-6.6 17.5-8.3 23.2-.4 1.3-.3 2.7.4 3.9s1.8 2 3.1 2.4c2.6.7 5.2-.8 6-3.3 1.5-5 15.3-49.3 31.3-55.6 1.1-.4 2.4-.5 3.5-.1 4.8 1.7 12.8 8.7 22.7 17.8 13.7 12.5 26.6 24.4 37.6 24.4 2 0 3.9-.4 5.8-1.3 9.9-4.5 9.6-21.8 9.1-41.7-.2-7.9-.4-16.1.2-22.9.4-5.3 1.3-9.3 2.5-11.7.8-1.6 2.5-2.7 4.3-2.7 5.1-.1 14.5 3.2 29 9.1 19.4 7.9 37.8 15.3 46.6 6.4 8.9-8.9 1.5-27.2-6.4-46.6-5.1-12.6-9.3-23.5-9.1-29.1.1-1.8 1.1-3.5 2.7-4.3 2.4-1.2 6.4-2.1 11.7-2.5 6.8-.6 15-.4 22.9-.2 20 .4 37.3.8 41.8-9.1 5.5-12.1-8.4-27.3-23.1-43.4-9.1-9.9-16.2-17.9-17.8-22.7-.4-1.1-.4-2.4.1-3.5 6.4-15.9 50.6-29.7 55.6-31.3 2.5-.8 4-3.4 3.3-6-.3-1.3-1.2-2.4-2.4-3.1s-2.6-.8-3.9-.4c-5.7 1.7-14.3 4.6-23.2 8.3-23.4 9.8-36.8 20.3-39.7 31.3-2.4 9.1 7.7 20.1 20.5 34.1 5.6 6.1 11.3 12.4 15.6 18.2 2.9 4 4.8 7.3 5.6 10 .4 1.3.3 2.7-.3 3.8-.6 1.2-1.7 2.1-3 2.5-5.5 1.7-16.8 1.6-28.8 1.3-20-.4-38.7-.8-45.3 8.7-5.7 8.3.1 22.8 7.5 41.1 6.6 16.2 10.3 26.7 9.8 32.4-.2 2.4-2.1 4.3-4.5 4.5-5.7.5-16.2-3.2-32.3-9.7h-.1c-18.3-7.4-32.8-13.3-41.1-7.5-9.6 6.6-9.2 25.4-8.7 45.3.3 12.1.4 23.4-1.3 28.9-.4 1.3-1.3 2.4-2.5 3s-2.6.8-3.8.3c-2.6-.8-6-2.7-10-5.6-5.8-4.2-12.1-10-18.1-15.5-12.7-11.7-22.9-21.1-31.5-21.1z" fill="#4d2162"/></g></g><g id="XMLID_754_"><path id="XMLID_2455_" d="m202.1 512c-46.4 0-90-15.3-126.2-44.2l6.2-7.8c34.4 27.5 75.8 42 119.9 42 165.5 0 300-134.5 300-299.9 0-44.1-14.5-85.5-42-119.9l7.8-6.2c28.9 36.1 44.2 79.8 44.2 126.1 0 82.8-32.2 160.6-90.8 219.1-58.5 58.6-136.3 90.8-219.1 90.8z" fill="#4d2162"/></g><g id="XMLID_2021_"><path id="XMLID_2379_" d="m8.6 368.5c-5.7-19-8.6-38.7-8.6-58.6 0-30.7 21.9-57.2 52.1-63 99.4-19 175.9-95.4 194.8-194.8 5.8-30.2 32.2-52.1 63-52.1 12.8 0 25.7 1.2 38.2 3.6l-1.9 9.8c-11.9-2.3-24.1-3.4-36.3-3.4-25.9 0-48.3 18.5-53.1 44-9.6 50.4-33.9 96.3-70.2 132.6s-82.2 60.5-132.6 70.2c-25.5 4.9-44 27.2-44 53.1 0 19 2.8 37.7 8.2 55.7z" fill="#4d2162"/></g><g id="XMLID_725_"><g id="XMLID_1583_"><path id="XMLID_2378_" d="m462 144.6-9.8-1.9c4.5-23.7 6.8-48.2 6.8-72.7 0-33.1-26.9-60-60-60s-60 26.9-60 60c0 11.3-.7 22.8-2.1 34l-9.9-1.3c1.4-10.8 2-21.8 2-32.7 0-38.6 31.4-70 70-70s70 31.4 70 70c0 25.1-2.3 50.2-7 74.6z" fill="#4d2162"/></g><g id="XMLID_435_"><path id="XMLID_2377_" d="m305.6 200-8.8-4.8c6.2-11.1 11.5-22.8 16-34.7l9.4 3.5c-4.7 12.3-10.2 24.4-16.6 36z" fill="#4d2162"/></g><g id="XMLID_660_"><path id="XMLID_2376_" d="m245.3 274-6.5-7.6c9.9-8.5 19.2-17.8 27.6-27.6l7.6 6.5c-8.8 10.3-18.4 19.9-28.7 28.7z" fill="#4d2162"/></g><g id="XMLID_724_"><path id="XMLID_2375_" d="m163.6 322.3-3.5-9.4c12-4.5 23.8-9.9 35-16.1l4.8 8.8c-11.6 6.4-23.8 12-36.3 16.7z" fill="#4d2162"/></g><g id="XMLID_651_"><path id="XMLID_2370_" d="m70 469c-38.6 0-70-31.4-70-70s31.4-70 70-70c10.9 0 21.9-.7 32.7-2l1.3 9.9c-11.2 1.4-22.6 2.1-34 2.1-33.1 0-60 26.9-60 60s26.9 60 60 60c17.7 0 35.6-1.2 53-3.6l1.4 9.9c-17.9 2.5-36.2 3.7-54.4 3.7z" fill="#4d2162"/></g></g></g></g></svg>