<svg id="Layer_1" enable-background="new 0 0 512 512" height="512" viewBox="0 0 512 512" width="512" xmlns="http://www.w3.org/2000/svg"><g id="XMLID_1_"><g id="XMLID_5378_"><path id="XMLID_1510_" d="m156.8 112.5c0-16.6-13.4-30-30-30 16.6 0 30-13.4 30-30 0 16.6 13.4 30 30 30-16.6 0-30 13.5-30 30z" fill="#ffc970"/><path id="XMLID_1509_" d="m434.8 361.9c0-16.6-13.4-30-30-30 16.6 0 30-13.4 30-30 0 16.6 13.4 30 30 30-16.5 0-30 13.4-30 30z" fill="#ffc970"/><path id="XMLID_1225_" d="m65.9 345.9h20v180.4h-20z" fill="#9cd3fc" transform="matrix(.707 .707 -.707 .707 330.613 74.093)"/><path id="XMLID_2141_" d="m113.7 365.7h20v45.2h-20z" fill="#6abdfb" transform="matrix(.707 .707 -.707 .707 310.802 26.266)"/><g id="XMLID_1224_"><path id="XMLID_2894_" d="m352 0h10v105h-10z" fill="#ffc970"/></g><g id="XMLID_1223_"><path id="XMLID_2893_" d="m352 205h10v105h-10z" fill="#ffc970"/></g><g id="XMLID_1222_"><path id="XMLID_2892_" d="m232 77.5h105v10h-105z" fill="#ffc970" transform="matrix(.707 .707 -.707 .707 141.686 -177.017)"/></g><g id="XMLID_1221_"><path id="XMLID_2891_" d="m377 222.5h105v10h-105z" fill="#ffc970" transform="matrix(.707 .707 -.707 .707 286.643 -237.06)"/></g><g id="XMLID_1220_"><path id="XMLID_2890_" d="m202 150h105v10h-105z" fill="#ffc970"/></g><g id="XMLID_1219_"><path id="XMLID_2889_" d="m407 150h105v10h-105z" fill="#ffc970"/></g><g id="XMLID_1218_"><path id="XMLID_2108_" d="m424.5 30h10v105h-10z" fill="#ffc970" transform="matrix(.707 .707 -.707 .707 184.143 -279.517)"/></g><g id="XMLID_1217_"><path id="XMLID_2107_" d="m293.7 57.6h50v10h-50z" fill="#ffb233" transform="matrix(.383 .924 -.924 .383 254.607 -255.819)"/></g><g id="XMLID_1216_"><path id="XMLID_2106_" d="m370.3 242.4h50v10h-50z" fill="#ffb233" transform="matrix(.383 .924 -.924 .383 472.567 -212.463)"/></g><g id="XMLID_1215_"><path id="XMLID_2105_" d="m239.6 111.7h50v10h-50z" fill="#ffb233" transform="matrix(.924 .383 -.383 .924 64.812 -92.375)"/></g><g id="XMLID_1214_"><path id="XMLID_2104_" d="m424.4 188.3h50v10h-50z" fill="#ffb233" transform="matrix(.924 .383 -.383 .924 108.165 -157.258)"/></g><g id="XMLID_1213_"><path id="XMLID_2103_" d="m444.4 91.7h10v50h-10z" fill="#ffb233" transform="matrix(.383 .924 -.924 .383 385.28 -343.123)"/></g><g id="XMLID_1212_"><path id="XMLID_2102_" d="m390.3 37.6h10v50h-10z" fill="#ffb233" transform="matrix(.924 .383 -.383 .924 54.04 -146.482)"/></g><path id="XMLID_1226_" d="m124.3 387.7c-7.2-7.2-7.2-18.8 0-26l224.2-224.2c7.2-7.2 18.8-7.2 26 0 7.2 7.2 7.2 18.8 0 26l-224.2 224.2c-7.1 7.1-18.8 7.1-26 0z" fill="#b23998"/><path id="XMLID_1999_" d="m312.2 199.8c-7.2-7.2-7.2-18.8 0-26l36.3-36.3c7.2-7.2 18.8-7.2 26 0 7.2 7.2 7.2 18.8 0 26l-36.3 36.3c-7.2 7.2-18.8 7.2-26 0z" fill="#c955b0"/></g><g id="XMLID_4976_"><g id="XMLID_470_"><path id="XMLID_4224_" d="m156.8 117.5c-2.8 0-5-2.2-5-5 0-13.8-11.2-25-25-25-2.8 0-5-2.2-5-5s2.2-5 5-5c13.8 0 25-11.2 25-25 0-2.8 2.2-5 5-5s5 2.2 5 5c0 13.8 11.2 25 25 25 2.8 0 5 2.2 5 5s-2.2 5-5 5c-13.8 0-25 11.2-25 25 0 2.8-2.2 5-5 5zm-12-35c4.9 3 9 7.1 12 12 3-4.9 7.1-9 12-12-4.9-3-9-7.1-12-12-3 4.9-7.1 9.1-12 12z" fill="#4d2162"/></g><g id="XMLID_691_"><path id="XMLID_4221_" d="m434.8 366.9c-2.7 0-4.9-2.2-5-4.9s0 0 0 0c0-13.8-11.2-25-25-25-2.8 0-5-2.2-5-5s2.2-5 5-5c13.8 0 25-11.2 25-25 0-2.8 2.2-5 5-5s5 2.2 5 5v.2c.1 13.7 11.3 24.8 25 24.8 2.8 0 5 2.2 5 5s-2.2 5-5 5c-13.8 0-25 11.2-25 25 0 2.6-2.2 4.9-5 4.9zm-12-35c4.9 3 9 7.1 12 12 3-4.9 7.1-9 12-12-4.9-3-9-7.1-12-12-2.9 4.9-7 9-12 12z" fill="#4d2162"/></g><g id="XMLID_810_"><path id="XMLID_2619_" d="m137.3 398.1c-6.2 0-12.1-2.4-16.5-6.8s-6.8-10.3-6.8-16.5 2.4-12.1 6.8-16.5l224.2-224.3c4.4-4.4 10.3-6.8 16.5-6.8s12.1 2.4 16.5 6.8 6.8 10.3 6.8 16.5-2.4 12.1-6.8 16.5l-224.1 224.2c-4.4 4.4-10.3 6.9-16.6 6.9zm224.2-261c-3.4 0-6.9 1.3-9.5 3.9l-224.1 224.2c-5.2 5.2-5.2 13.7 0 18.9s13.7 5.2 18.9 0l224.2-224.1c5.2-5.2 5.2-13.7 0-18.9-2.6-2.7-6.1-4-9.5-4z" fill="#4d2162"/></g><g id="XMLID_838_"><path id="XMLID_2618_" d="m352 0h10v105h-10z" fill="#4d2162"/></g><g id="XMLID_476_"><path id="XMLID_2617_" d="m352 205h10v105h-10z" fill="#4d2162"/></g><g id="XMLID_501_"><path id="XMLID_2616_" d="m232 77.5h105v10h-105z" fill="#4d2162" transform="matrix(.707 .707 -.707 .707 141.686 -177.017)"/></g><g id="XMLID_464_"><path id="XMLID_2615_" d="m377 222.5h105v10h-105z" fill="#4d2162" transform="matrix(.707 .707 -.707 .707 286.643 -237.06)"/></g><g id="XMLID_506_"><path id="XMLID_2614_" d="m202 150h105v10h-105z" fill="#4d2162"/></g><g id="XMLID_505_"><path id="XMLID_2613_" d="m407 150h105v10h-105z" fill="#4d2162"/></g><g id="XMLID_507_"><path id="XMLID_2612_" d="m424.5 30h10v105h-10z" fill="#4d2162" transform="matrix(.707 .707 -.707 .707 184.143 -279.517)"/></g><g id="XMLID_471_"><path id="XMLID_2611_" d="m293.7 57.6h50v10h-50z" fill="#4d2162" transform="matrix(.383 .924 -.924 .383 254.607 -255.819)"/></g><g id="XMLID_473_"><path id="XMLID_2610_" d="m370.3 242.4h50v10h-50z" fill="#4d2162" transform="matrix(.383 .924 -.924 .383 472.567 -212.463)"/></g><g id="XMLID_474_"><path id="XMLID_2609_" d="m239.6 111.7h50v10h-50z" fill="#4d2162" transform="matrix(.924 .383 -.383 .924 64.812 -92.375)"/></g><g id="XMLID_472_"><path id="XMLID_2608_" d="m424.4 188.3h50v10h-50z" fill="#4d2162" transform="matrix(.924 .383 -.383 .924 108.165 -157.258)"/></g><g id="XMLID_475_"><path id="XMLID_2607_" d="m444.4 91.7h10v50h-10z" fill="#4d2162" transform="matrix(.383 .924 -.924 .383 385.28 -343.123)"/></g><g id="XMLID_497_"><path id="XMLID_2606_" d="m390.3 37.6h10v50h-10z" fill="#4d2162" transform="matrix(.924 .383 -.383 .924 54.04 -146.482)"/></g><g id="XMLID_1611_"><path id="XMLID_2454_" d="m19.1 512c-1.3 0-2.6-.5-3.5-1.5l-14.1-14.1c-2-2-2-5.1 0-7.1l114.3-114.3 7.1 7.1-110.8 110.8 7.1 7.1 96.5-96.5 7.1 7.1-100.1 99.9c-1 1-2.3 1.5-3.6 1.5z" fill="#4d2162"/></g></g></g></svg>