<?xml version="1.0" encoding="iso-8859-1"?>
<!-- Generator: Adobe Illustrator 19.0.0, SVG Export Plug-In . SVG Version: 6.00 Build 0)  -->
<svg xmlns="http://www.w3.org/2000/svg" xmlns:xlink="http://www.w3.org/1999/xlink" version="1.1" id="Capa_1" x="0px" y="0px" viewBox="0 0 512 512" style="enable-background:new 0 0 512 512;" xml:space="preserve">
<path style="fill:#303C42;" d="M362.667,309.333c0-7.323-14.708-79.973-27.456-141.569l27.008-90.035  c1.49-4.958-0.813-10.292-5.448-12.604L320,46.75V10.667C320,4.771,315.229,0,309.333,0H202.667C196.771,0,192,4.771,192,10.667  V46.75l-36.771,18.375c-4.635,2.313-6.938,7.646-5.448,12.604l27.008,90.035c-12.747,61.596-27.456,134.246-27.456,141.569  c0,23.625,27.917,32,106.667,32S362.667,332.958,362.667,309.333z"/>
<path style="fill:#D7CCC8;" d="M172.792,80.188l34.646-17.313c3.615-1.813,5.896-5.5,5.896-9.542v-32h85.333v32  c0,4.042,2.281,7.729,5.896,9.542l34.646,17.313l-13.121,43.736c-2.517-12.03-4.723-22.539-6.316-30.111  c-1.042-4.938-5.396-8.479-10.438-8.479h-32V64c0-11.771-9.573-21.333-21.333-21.333c-11.76,0-21.333,9.563-21.333,21.333v21.333  h-32c-5.042,0-9.396,3.542-10.438,8.479c-1.594,7.572-3.799,18.081-6.316,30.111L172.792,80.188z"/>
<polygon style="fill:#303C42;" points="255.979,64 256,53.333 256,64 "/>
<path style="fill:#D7CCC8;" d="M256,320c-76.854,0-84.698-9.229-85.344-10.417c0.583-9.646,24.531-126.083,40.667-202.917h23.344  V128c0,11.771,9.573,21.333,21.333,21.333c11.76,0,21.333-9.563,21.333-21.333v-21.333h23.344  c16.135,76.833,40.073,193.292,40.656,203.063C340.698,310.771,332.854,320,256,320z"/>
<path style="fill:#303C42;" d="M292.292,213.333h-72.583c-5.073,0-9.438,3.563-10.448,8.542  c-4.927,24.167-9.344,46.146-12.458,62.292c-0.573,2.958,0.125,6,1.927,8.417c1.802,2.396,4.531,3.938,7.521,4.229  c12.896,1.229,29.635,1.854,49.75,1.854s36.854-0.625,49.75-1.854c2.99-0.292,5.719-1.833,7.521-4.229  c1.802-2.417,2.5-5.458,1.927-8.417c-3.115-16.146-7.531-38.125-12.458-62.292C301.729,216.896,297.365,213.333,292.292,213.333z"/>
<path style="fill:#D7CCC8;" d="M220.042,276.458c2.385-12.146,5.26-26.396,8.385-41.792h55.146c3.125,15.396,6,29.646,8.385,41.792  C271.583,277.625,240.417,277.625,220.042,276.458z"/>
<path style="opacity:0.1;enable-background:new    ;" d="M285.729,245.333c-0.721-3.566-1.402-6.953-2.156-10.667h-55.146  c-0.754,3.714-1.435,7.1-2.156,10.667H285.729z"/>
<path style="fill:#303C42;" d="M192,352c0,5.896,4.771,10.667,10.667,10.667h42.667c-5.896,0-10.667,4.771-10.667,10.667  S239.438,384,245.333,384h-42.667c-5.896,0-10.667,4.771-10.667,10.667c0,5.896,4.771,10.667,10.667,10.667h42.667  c-5.896,0-10.667,4.771-10.667,10.667c0,5.896,4.771,10.667,10.667,10.667h-42.667c-5.896,0-10.667,4.771-10.667,10.667  S196.771,448,202.667,448h42.667c-5.896,0-10.667,4.771-10.667,10.667c0,5.896,4.771,10.667,10.667,10.667h-42.667  c-5.896,0-10.667,4.771-10.667,10.667c0,5.896,4.771,10.667,10.667,10.667h42.667c-5.896,0-10.667,4.771-10.667,10.667  S239.438,512,245.333,512h64c5.896,0,10.667-4.771,10.667-10.667s-4.771-10.667-10.667-10.667h-42.667  c5.896,0,10.667-4.771,10.667-10.667c0-5.896-4.771-10.667-10.667-10.667h42.667c5.896,0,10.667-4.771,10.667-10.667  c0-5.896-4.771-10.667-10.667-10.667h-42.667c5.896,0,10.667-4.771,10.667-10.667s-4.771-10.667-10.667-10.667h42.667  c5.896,0,10.667-4.771,10.667-10.667c0-5.896-4.771-10.667-10.667-10.667h-42.667c5.896,0,10.667-4.771,10.667-10.667  c0-5.896-4.771-10.667-10.667-10.667h42.667c5.896,0,10.667-4.771,10.667-10.667s-4.771-10.667-10.667-10.667h-42.667  c5.896,0,10.667-4.771,10.667-10.667c0-5.896-4.771-10.667-10.667-10.667H256h-53.333C196.771,341.333,192,346.104,192,352z"/>
<linearGradient id="SVGID_1_" gradientUnits="userSpaceOnUse" x1="-34.2793" y1="640.9083" x2="-30.3151" y2="636.9441" gradientTransform="matrix(21.3333 0 0 -21.3333 996.3334 13791.667)">
	<stop offset="0" style="stop-color:#000000;stop-opacity:0.1"/>
	<stop offset="1" style="stop-color:#000000;stop-opacity:0"/>
</linearGradient>
<path style="fill:url(#SVGID_1_);" d="M256,149.333c-5.457,0-10.324-2.211-14.102-5.595l83.75,83.75  c-7.857-38.755-17.289-84.24-24.971-120.822h-23.344V128C277.333,139.771,267.76,149.333,256,149.333z"/>
<linearGradient id="SVGID_2_" gradientUnits="userSpaceOnUse" x1="-41.9296" y1="638.3204" x2="-27.613" y2="631.6445" gradientTransform="matrix(21.3333 0 0 -21.3333 996.3334 13791.667)">
	<stop offset="0" style="stop-color:#FFFFFF;stop-opacity:0.2"/>
	<stop offset="1" style="stop-color:#FFFFFF;stop-opacity:0"/>
</linearGradient>
<path style="fill:url(#SVGID_2_);" d="M362.667,309.333c0-7.323-14.708-79.973-27.456-141.569l27.008-90.035  c1.49-4.958-0.813-10.292-5.448-12.604L320,46.75V10.667C320,4.771,315.229,0,309.333,0H202.667C196.771,0,192,4.771,192,10.667  V46.75l-36.771,18.375c-4.635,2.313-6.938,7.646-5.448,12.604l27.008,90.035c-12.747,61.596-27.456,134.246-27.456,141.569  c0,23.625,27.917,32,106.667,32S362.667,332.958,362.667,309.333z M192,352c0,5.896,4.771,10.667,10.667,10.667h42.667  c-5.896,0-10.667,4.771-10.667,10.667S239.438,384,245.333,384h-42.667c-5.896,0-10.667,4.771-10.667,10.667  c0,5.896,4.771,10.667,10.667,10.667h42.667c-5.896,0-10.667,4.771-10.667,10.667c0,5.896,4.771,10.667,10.667,10.667h-42.667  c-5.896,0-10.667,4.771-10.667,10.667S196.771,448,202.667,448h42.667c-5.896,0-10.667,4.771-10.667,10.667  c0,5.896,4.771,10.667,10.667,10.667h-42.667c-5.896,0-10.667,4.771-10.667,10.667c0,5.896,4.771,10.667,10.667,10.667h42.667  c-5.896,0-10.667,4.771-10.667,10.667S239.438,512,245.333,512h64c5.896,0,10.667-4.771,10.667-10.667s-4.771-10.667-10.667-10.667  h-42.667c5.896,0,10.667-4.771,10.667-10.667c0-5.896-4.771-10.667-10.667-10.667h42.667c5.896,0,10.667-4.771,10.667-10.667  c0-5.896-4.771-10.667-10.667-10.667h-42.667c5.896,0,10.667-4.771,10.667-10.667s-4.771-10.667-10.667-10.667h42.667  c5.896,0,10.667-4.771,10.667-10.667c0-5.896-4.771-10.667-10.667-10.667h-42.667c5.896,0,10.667-4.771,10.667-10.667  c0-5.896-4.771-10.667-10.667-10.667h42.667c5.896,0,10.667-4.771,10.667-10.667s-4.771-10.667-10.667-10.667h-42.667  c5.896,0,10.667-4.771,10.667-10.667c0-5.896-4.771-10.667-10.667-10.667H256h-53.333C196.771,341.333,192,346.104,192,352z"/>
<g>
</g>
<g>
</g>
<g>
</g>
<g>
</g>
<g>
</g>
<g>
</g>
<g>
</g>
<g>
</g>
<g>
</g>
<g>
</g>
<g>
</g>
<g>
</g>
<g>
</g>
<g>
</g>
<g>
</g>
</svg>
