<?xml version="1.0" encoding="iso-8859-1"?>
<!-- Generator: Adobe Illustrator 19.0.0, SVG Export Plug-In . SVG Version: 6.00 Build 0)  -->
<svg xmlns="http://www.w3.org/2000/svg" xmlns:xlink="http://www.w3.org/1999/xlink" version="1.1" id="Capa_1" x="0px" y="0px" viewBox="0 0 512.002 512.002" style="enable-background:new 0 0 512.002 512.002;" xml:space="preserve">
<path style="fill:#303C42;" d="M506.107,406.46l-42.667-21.333c-3.302-1.646-7.229-1.479-10.375,0.469  c-3.146,1.948-5.063,5.375-5.063,9.073v10.667H277.336v-38.947c17.255-24.516,41.277-38.882,64.667-52.574  c32.563-19.073,63.333-37.094,63.333-79.146c0-34.667-8.625-56.938-14.927-73.198c-1.906-4.917-3.594-9.281-4.76-13.229  c14.417-2.823,20.781-10.573,23.563-17.302c3.625-8.74,2.365-18.615-1.167-27.792c0.146,0.135,0.281,0.26,0.417,0.396  c3.073,3.052,7.646,4.01,11.625,2.313c3.99-1.646,6.583-5.542,6.583-9.854c0-17.917-11.146-27.125-22.135-30.479  c-3.198-18.896-16.615-44.188-52.531-44.188c-49.49,0-53.333,24.49-53.333,32c0,10.844,9.115,16.292,19.875,18.958  c-11.49,16.542-18.438,38.51-24.365,57.24c-4.323,13.625-9.208,29.083-13.719,33.594c-8.552,8.552-26.677,14.052-38.76,16.719  c-21.219-57.146-54.135-83.844-103.031-83.844c-48.698,0-72.552,46.583-73.542,48.562c-2.333,4.677-0.938,10.365,3.302,13.427  c3.323,2.385,7.698,2.646,11.177,0.802c-8.198,9.083-15.604,20.75-15.604,33.208c0,4.313,2.594,8.208,6.583,9.854  c2.385,0.99,4.99,1.042,7.375,0.292c-2.01,6.156-3.292,13.406-3.292,21.854c0,4.865,3.302,9.125,8.01,10.333  c4.719,1.188,9.656-0.938,12-5.198c2.198-4,4.385-6.375,8.656-6.885c-2.073,9.969-2.719,24.167,4.458,38.521  c2.208,4.427,7.198,6.719,11.99,5.615c4.813-1.135,8.219-5.438,8.219-10.385c0-3.781,1.073-7.125,2.646-10  c5.906,25.813,19.74,46.802,20.479,47.917c2.594,3.906,7.479,5.677,11.969,4.292c4.5-1.365,7.573-5.51,7.573-10.208  c0-0.073,0.052-4.177,2.323-9.167c8.885,41.427,41.417,60.667,64.042,74.052c7.655,4.523,15.919,9.521,18.969,13.253v39.195H100.419  l-18.208-18.208c-2-2-4.708-3.125-7.542-3.125h-64c-4.312,0-8.208,2.594-9.854,6.583c-1.656,3.99-0.74,8.573,2.312,11.625  l13.792,13.792L3.127,429.793c-3.052,3.052-3.969,7.635-2.312,11.625c1.646,3.99,5.542,6.583,9.854,6.583h64  c2.833,0,5.542-1.125,7.542-3.125l18.208-18.208h155.583v53.333c0,5.896,4.771,10.667,10.667,10.667  c5.896,0,10.667-4.771,10.667-10.667v-53.333h170.667v10.667c0,3.698,1.917,7.125,5.063,9.073c1.708,1.063,3.656,1.594,5.604,1.594  c1.635,0,3.26-0.375,4.771-1.125l42.667-21.333c3.615-1.813,5.896-5.5,5.896-9.542S509.721,408.272,506.107,406.46z"/>
<path style="fill:#FFE0B2;" d="M247.898,334.522c-24.906-14.729-55.896-33.063-55.896-78.521c0-3.698-1.917-7.125-5.063-9.073  c-1.708-1.063-3.656-1.594-5.604-1.594c-1.635,0-3.26,0.375-4.771,1.125c-8.438,4.219-14.26,9.76-18.281,15.427  c-4.594-10.708-8.948-24.396-8.948-37.885c0-3.698-1.917-7.125-5.063-9.073c-3.167-1.969-7.083-2.135-10.375-0.469  c-0.365,0.188-3.51,1.792-7.542,4.875c0.302-0.781,0.51-1.208,0.521-1.229c1.438-2.885,1.5-6.26,0.167-9.188  c-1.333-2.938-3.927-5.104-7.042-5.917c-3.875-1-10.646-2.75-18.188-2.073c4.26-7.063,9.333-9.896,9.625-10.052  c4.427-2.208,6.75-7.177,5.615-11.99c-1.135-4.813-5.438-8.219-10.385-8.219c-0.958,0-4.656,0.052-9.615,0.75  c5.385-5.604,11.458-10.479,15.542-13.219c3.156-2.115,4.958-5.75,4.708-9.542c-0.24-3.781-2.469-7.167-5.865-8.865  c-1.188-0.594-6.229-3-12.844-4.552c9.167-9.031,22.615-17.906,40.073-17.906c29.604,0,62.958,9.271,85.885,78.042  c1.625,4.896,6.458,7.927,11.625,7.188c4.177-0.604,41.375-6.354,59.365-24.354c8.188-8.188,12.948-23.219,18.969-42.24  c7.385-23.302,16.563-52.312,32.74-63.094c3.906-2.604,5.646-7.458,4.292-11.958c-1.354-4.5-5.5-7.573-10.198-7.583  c-7.469-0.01-16.104-1.177-20.469-2.625c2.865-4.229,12.875-8.042,31.125-8.042c30.115,0,31.938,26.708,32,32  c-4.313,0-8.208,2.594-9.854,6.583c-1.656,3.99-0.74,8.573,2.313,11.625c9.24,9.24,15.583,23.771,13.042,29.906  c-1.958,4.708-11.958,5.219-16.167,5.219c-5.896,0-10.667,4.771-10.667,10.667c0,10.26,3.635,19.646,7.844,30.51  c6.01,15.51,13.49,34.813,13.49,65.49c0,28.438-19.073,40.99-52.781,60.729c-21.865,12.802-46.271,27.094-65.479,50.604  C260.815,342.157,254.721,338.553,247.898,334.522z"/>
<path style="opacity:0.4;fill:#FFFFFF;enable-background:new    ;" d="M117.304,148.657c0.087,1.332-0.368,2.559-0.757,3.793  c7.504-4.466,16.307-7.783,26.724-7.783c29.604,0,62.958,9.271,85.885,78.042c1.625,4.896,6.458,7.927,11.625,7.188  c4.177-0.604,41.375-6.354,59.365-24.354c8.188-8.188,12.948-23.219,18.969-42.24c7.385-23.302,16.563-52.313,32.74-63.094  c3.906-2.604,5.646-7.458,4.292-11.958c-1.354-4.5-5.5-7.573-10.198-7.583c-2.156-0.003-4.395-0.124-6.615-0.298  c-11.393,13.57-18.747,36.438-24.822,55.6c-6.021,19.021-10.781,34.052-18.969,42.24c-17.99,18-55.188,23.75-59.365,24.354  c-5.167,0.74-10-2.292-11.625-7.188c-22.927-68.771-56.281-78.042-85.885-78.042c-17.458,0-30.906,8.875-40.073,17.906  c6.615,1.552,11.656,3.958,12.844,4.552C114.836,141.491,117.065,144.876,117.304,148.657z"/>
<path style="opacity:0.1;enable-background:new    ;" d="M376.461,92.876c-3.052-3.052-3.969-7.635-2.313-11.625  c1.646-3.99,5.542-6.583,9.854-6.583c-0.056-4.71-1.638-26.275-23.193-30.982c5.659,7.905,6.427,17.378,6.462,20.315  c-4.313,0-8.208,2.594-9.854,6.583c-1.656,3.99-0.74,8.573,2.313,11.625c9.24,9.24,15.583,23.771,13.042,29.906  c-1.958,4.708-11.958,5.219-16.167,5.219c-5.896,0-10.667,4.771-10.667,10.667c0,10.26,3.635,19.646,7.844,30.51  c6.01,15.51,13.49,34.813,13.49,65.49c0,28.438-19.073,40.99-52.781,60.729c-21.835,12.784-46.199,27.063-65.393,50.514  c6.311,3.733,12.023,7.152,16.645,10.757c19.208-23.51,43.615-37.802,65.479-50.604c33.708-19.74,52.781-32.292,52.781-60.729  c0-30.677-7.479-49.979-13.49-65.49c-4.208-10.865-7.844-20.25-7.844-30.51c0-5.896,4.771-10.667,10.667-10.667  c4.208,0,14.208-0.51,16.167-5.219C392.044,116.647,385.7,102.116,376.461,92.876z"/>
<path style="fill:#E6E6E6;" d="M70.252,426.668H36.419l3.125-3.125c4.167-4.167,4.167-10.917,0-15.083l-3.125-3.125h33.833  l10.667,10.667L70.252,426.668z"/>
<linearGradient id="SVGID_1_" gradientUnits="userSpaceOnUse" x1="-44.2462" y1="638.4286" x2="-22.1229" y2="628.117" gradientTransform="matrix(21.3333 0 0 -21.3333 996.3095 13791.6934)">
	<stop offset="0" style="stop-color:#FFFFFF;stop-opacity:0.2"/>
	<stop offset="1" style="stop-color:#FFFFFF;stop-opacity:0"/>
</linearGradient>
<path style="fill:url(#SVGID_1_);" d="M506.107,406.46l-42.667-21.333c-3.302-1.646-7.229-1.479-10.375,0.469  c-3.146,1.948-5.063,5.375-5.063,9.073v10.667H277.336v-38.947c17.255-24.516,41.277-38.882,64.667-52.574  c32.563-19.073,63.333-37.094,63.333-79.146c0-34.667-8.625-56.938-14.927-73.198c-1.906-4.917-3.594-9.281-4.76-13.229  c14.417-2.823,20.781-10.573,23.563-17.302c3.625-8.74,2.365-18.615-1.167-27.792c0.146,0.135,0.281,0.26,0.417,0.396  c3.073,3.052,7.646,4.01,11.625,2.313c3.99-1.646,6.583-5.542,6.583-9.854c0-17.917-11.146-27.125-22.135-30.479  c-3.198-18.896-16.615-44.188-52.531-44.188c-49.49,0-53.333,24.49-53.333,32c0,10.844,9.115,16.292,19.875,18.958  c-11.49,16.542-18.438,38.51-24.365,57.24c-4.323,13.625-9.208,29.083-13.719,33.594c-8.552,8.552-26.677,14.052-38.76,16.719  c-21.219-57.146-54.135-83.844-103.031-83.844c-48.698,0-72.552,46.583-73.542,48.562c-2.333,4.677-0.938,10.365,3.302,13.427  c3.323,2.385,7.698,2.646,11.177,0.802c-8.198,9.083-15.604,20.75-15.604,33.208c0,4.313,2.594,8.208,6.583,9.854  c2.385,0.99,4.99,1.042,7.375,0.292c-2.01,6.156-3.292,13.406-3.292,21.854c0,4.865,3.302,9.125,8.01,10.333  c4.719,1.188,9.656-0.938,12-5.198c2.198-4,4.385-6.375,8.656-6.885c-2.073,9.969-2.719,24.167,4.458,38.521  c2.208,4.427,7.198,6.719,11.99,5.615c4.813-1.135,8.219-5.438,8.219-10.385c0-3.781,1.073-7.125,2.646-10  c5.906,25.813,19.74,46.802,20.479,47.917c2.594,3.906,7.479,5.677,11.969,4.292c4.5-1.365,7.573-5.51,7.573-10.208  c0-0.073,0.052-4.177,2.323-9.167c8.885,41.427,41.417,60.667,64.042,74.052c7.655,4.523,15.919,9.521,18.969,13.253v39.195H100.419  l-18.208-18.208c-2-2-4.708-3.125-7.542-3.125h-64c-4.312,0-8.208,2.594-9.854,6.583c-1.656,3.99-0.74,8.573,2.312,11.625  l13.792,13.792L3.127,429.793c-3.052,3.052-3.969,7.635-2.312,11.625c1.646,3.99,5.542,6.583,9.854,6.583h64  c2.833,0,5.542-1.125,7.542-3.125l18.208-18.208h155.583v53.333c0,5.896,4.771,10.667,10.667,10.667  c5.896,0,10.667-4.771,10.667-10.667v-53.333h170.667v10.667c0,3.698,1.917,7.125,5.063,9.073c1.708,1.063,3.656,1.594,5.604,1.594  c1.635,0,3.26-0.375,4.771-1.125l42.667-21.333c3.615-1.813,5.896-5.5,5.896-9.542S509.721,408.272,506.107,406.46z"/>
<g>
</g>
<g>
</g>
<g>
</g>
<g>
</g>
<g>
</g>
<g>
</g>
<g>
</g>
<g>
</g>
<g>
</g>
<g>
</g>
<g>
</g>
<g>
</g>
<g>
</g>
<g>
</g>
<g>
</g>
</svg>
