<?xml version="1.0" encoding="iso-8859-1"?>
<!-- Generator: Adobe Illustrator 19.0.0, SVG Export Plug-In . SVG Version: 6.00 Build 0)  -->
<svg xmlns="http://www.w3.org/2000/svg" xmlns:xlink="http://www.w3.org/1999/xlink" version="1.1" id="Capa_1" x="0px" y="0px" viewBox="0 0 512.006 512.006" style="enable-background:new 0 0 512.006 512.006;" xml:space="preserve">
<path style="fill:#303C42;" d="M512.006,138.669c0-29.406-23.917-53.333-53.333-53.333c-15.503,0-29.876,7.151-39.906,18.768  c-23.271-11.911-49.54-18.768-77.427-18.768h-10.667c-5.896,0-10.667,4.771-10.667,10.667v10.667h-48.917l-18.208-18.208  c-2-2-4.708-3.125-7.542-3.125H10.672c-3.438,0-6.646,1.646-8.646,4.427c-2.021,2.781-2.563,6.365-1.479,9.615l42.667,128  c1.458,4.354,5.542,7.292,10.125,7.292h97.396c5.208,0,10.104,2.031,13.792,5.719c3.979,3.99,6.167,9.406,6.146,15.615  c0,94.104,76.563,170.667,170.667,170.667s170.667-76.563,170.667-170.667c0-27.885-6.857-54.154-18.767-77.423  C504.858,168.552,512.006,154.175,512.006,138.669z M482.215,159.843c-12.005-17.531-27.185-32.712-44.717-44.717  c5.794-5.264,13.249-8.456,21.174-8.456c17.646,0,32,14.354,32,32C490.672,146.597,487.481,154.051,482.215,159.843z"/>
<path style="fill:#AEBCC4;" d="M341.339,405.336c-82.333,0-149.333-66.99-149.333-149.646c0.021-11.552-4.375-22.333-12.375-30.365  c-7.708-7.729-17.979-11.99-28.896-11.99H61.026L25.464,106.669h215.458l18.208,18.208c2,2,4.708,3.125,7.542,3.125h64  c5.896,0,10.667-4.771,10.667-10.667v-10.667c82.333,0,149.333,66.99,149.333,149.333S423.672,405.336,341.339,405.336z"/>
<path style="opacity:0.1;enable-background:new    ;" d="M341.339,389.336c-82.333,0-149.333-66.99-149.333-149.646  c0.021-11.552-4.375-22.333-12.375-30.365c-7.708-7.729-17.979-11.99-28.896-11.99H61.026l-30.228-90.667h-5.335l35.563,106.667  h89.708c10.917,0,21.188,4.26,28.896,11.99c8,8.031,12.396,18.813,12.375,30.365c0,82.656,67,149.646,149.333,149.646  s149.333-66.99,149.333-149.333c0-2.701-0.263-5.335-0.405-8C486.071,326.619,420.972,389.336,341.339,389.336z"/>
<path style="opacity:0.2;fill:#FFFFFF;enable-background:new    ;" d="M240.922,125.336l18.208,18.208c2,2,4.708,3.125,7.542,3.125  h64c5.896,0,10.667-4.771,10.667-10.667v-10.667c79.184,0,144.001,62.009,148.861,140c0.193-3.103,0.473-6.184,0.473-9.333  c0-82.344-67-149.333-149.333-149.333v10.667c0,5.896-4.771,10.667-10.667,10.667h-64c-2.833,0-5.542-1.125-7.542-3.125  l-18.208-18.208H25.464l6.224,18.667H240.922z"/>
<circle style="fill:#303C42;" cx="341.336" cy="256.003" r="64"/>
<circle style="fill:#BBC7CD;" cx="341.336" cy="256.003" r="42.667"/>
<path style="opacity:0.1;enable-background:new    ;" d="M362.166,218.996c0.198,1.661,0.507,3.292,0.507,5.007  c0,23.531-19.146,42.667-42.667,42.667c-7.599,0-14.639-2.161-20.827-5.66c2.513,21.151,20.353,37.66,42.16,37.66  c23.521,0,42.667-19.135,42.667-42.667C384.006,240.074,375.131,226.324,362.166,218.996z"/>
<linearGradient id="SVGID_1_" gradientUnits="userSpaceOnUse" x1="-30.6591" y1="634.4445" x2="-25.7601" y2="629.5435" gradientTransform="matrix(21.3333 0 0 -21.3333 996.2772 13791.7285)">
	<stop offset="0" style="stop-color:#000000;stop-opacity:0.1"/>
	<stop offset="1" style="stop-color:#000000;stop-opacity:0"/>
</linearGradient>
<path style="fill:url(#SVGID_1_);" d="M387.41,211.783c11.047,11.507,17.928,27.047,17.928,44.22c0,35.292-28.708,64-64,64  c-17.195,0-32.755-6.896-44.266-17.966l-0.046,0.049l94.417,94.417c42.014-15.035,75.309-48.313,90.367-90.319L387.41,211.783z"/>
<linearGradient id="SVGID_2_" gradientUnits="userSpaceOnUse" x1="-46.3752" y1="642.795" x2="-23.0678" y2="631.9263" gradientTransform="matrix(21.3333 0 0 -21.3333 996.2772 13791.7285)">
	<stop offset="0" style="stop-color:#FFFFFF;stop-opacity:0.2"/>
	<stop offset="1" style="stop-color:#FFFFFF;stop-opacity:0"/>
</linearGradient>
<path style="fill:url(#SVGID_2_);" d="M512.006,138.669c0-29.406-23.917-53.333-53.333-53.333c-15.503,0-29.876,7.151-39.906,18.768  c-23.271-11.911-49.54-18.768-77.427-18.768h-10.667c-5.896,0-10.667,4.771-10.667,10.667v10.667h-48.917l-18.208-18.208  c-2-2-4.708-3.125-7.542-3.125H10.672c-3.438,0-6.646,1.646-8.646,4.427c-2.021,2.781-2.563,6.365-1.479,9.615l42.667,128  c1.458,4.354,5.542,7.292,10.125,7.292h97.396c5.208,0,10.104,2.031,13.792,5.719c3.979,3.99,6.167,9.406,6.146,15.615  c0,94.104,76.563,170.667,170.667,170.667s170.667-76.563,170.667-170.667c0-27.885-6.857-54.154-18.767-77.423  C504.858,168.552,512.006,154.175,512.006,138.669z M482.215,159.843c-12.005-17.531-27.185-32.712-44.717-44.717  c5.794-5.264,13.249-8.456,21.174-8.456c17.646,0,32,14.354,32,32C490.672,146.597,487.481,154.051,482.215,159.843z"/>
<g>
</g>
<g>
</g>
<g>
</g>
<g>
</g>
<g>
</g>
<g>
</g>
<g>
</g>
<g>
</g>
<g>
</g>
<g>
</g>
<g>
</g>
<g>
</g>
<g>
</g>
<g>
</g>
<g>
</g>
</svg>
