<?xml version="1.0" encoding="iso-8859-1"?>
<!-- Generator: Adobe Illustrator 19.0.0, SVG Export Plug-In . SVG Version: 6.00 Build 0)  -->
<svg xmlns="http://www.w3.org/2000/svg" xmlns:xlink="http://www.w3.org/1999/xlink" version="1.1" id="Capa_1" x="0px" y="0px" viewBox="0 0 512 512" style="enable-background:new 0 0 512 512;" xml:space="preserve">
<path style="fill:#303C42;" d="M384,149.333h-64v-42.667c23.531,0,42.667-19.146,42.667-42.667c0-35.292-28.708-64-64-64h-85.333  c-35.292,0-64,28.708-64,64c0,23.521,19.135,42.667,42.667,42.667v42.667h-64c-23.531,0-42.667,19.146-42.667,42.667v277.333  C85.333,492.854,104.469,512,128,512h256c23.531,0,42.667-19.146,42.667-42.667V192C426.667,168.479,407.531,149.333,384,149.333z"/>
<g>
	<path style="fill:#546E7A;" d="M170.667,64c0-23.521,19.135-42.667,42.667-42.667h85.333c23.531,0,42.667,19.146,42.667,42.667   c0,11.771-9.573,21.333-21.333,21.333h-10.667H202.667H192C180.24,85.333,170.667,75.771,170.667,64z"/>
	<rect x="213.333" y="106.667" style="fill:#546E7A;" width="85.333" height="42.667"/>
	<path style="fill:#546E7A;" d="M405.333,469.333c0,11.771-9.573,21.333-21.333,21.333H128c-11.76,0-21.333-9.563-21.333-21.333V192   c0-11.771,9.573-21.333,21.333-21.333h256c11.76,0,21.333,9.563,21.333,21.333V469.333z"/>
</g>
<path style="opacity:0.2;fill:#FFFFFF;enable-background:new    ;" d="M202.667,64c0-23.521,11.96-42.667,26.667-42.667h-16  c-23.531,0-42.667,19.146-42.667,42.667c0,11.771,9.573,21.333,21.333,21.333h10.667H216C208.65,85.333,202.667,75.771,202.667,64z"/>
<path style="opacity:0.1;enable-background:new    ;" d="M298.667,21.333h-16c14.707,0,26.667,19.146,26.667,42.667  c0,11.771-5.983,21.333-13.333,21.333h13.333H320c11.76,0,21.333-9.563,21.333-21.333C341.333,40.479,322.198,21.333,298.667,21.333  z"/>
<path style="opacity:0.2;fill:#FFFFFF;enable-background:new    ;" d="M138.667,469.333V192c0-11.771,7.522-21.333,16.762-21.333  H128c-11.76,0-21.333,9.563-21.333,21.333v277.333c0,11.771,9.573,21.333,21.333,21.333h27.428  C146.189,490.667,138.667,481.104,138.667,469.333z"/>
<path style="opacity:0.1;enable-background:new    ;" d="M384,170.667h-27.428c9.24,0,16.762,9.563,16.762,21.333v277.333  c0,11.771-7.522,21.333-16.762,21.333H384c11.76,0,21.333-9.563,21.333-21.333V192C405.333,180.229,395.76,170.667,384,170.667z"/>
<g>
	<path style="fill:#303C42;" d="M234.667,277.333c-5.896,0-10.667,4.771-10.667,10.667v21.333c0,5.875-4.781,10.667-10.667,10.667   h-10.667v-32c0-5.896-4.771-10.667-10.667-10.667c-5.896,0-10.667,4.771-10.667,10.667v85.333c0,5.896,4.771,10.667,10.667,10.667   c5.896,0,10.667-4.771,10.667-10.667v-32h10.667c5.885,0,10.667,4.792,10.667,10.667v21.333c0,5.896,4.771,10.667,10.667,10.667   s10.667-4.771,10.667-10.667V352c0-8.225-3.206-15.659-8.323-21.333c5.117-5.674,8.323-13.108,8.323-21.333V288   C245.333,282.104,240.563,277.333,234.667,277.333z"/>
	<path style="fill:#303C42;" d="M298.667,298.667c5.885,0,10.667,4.792,10.667,10.667c0,5.896,4.771,10.667,10.667,10.667   c5.896,0,10.667-4.771,10.667-10.667c0-17.646-14.354-32-32-32c-17.646,0-32,14.354-32,32V352c0,17.646,14.354,32,32,32   c17.646,0,32-14.354,32-32v-10.667c0-5.896-4.771-10.667-10.667-10.667h-21.333c-5.896,0-10.667,4.771-10.667,10.667   S292.771,352,298.667,352h10.667c0,5.875-4.781,10.667-10.667,10.667c-5.885,0-10.667-4.792-10.667-10.667v-10.667v-32   C288,303.458,292.781,298.667,298.667,298.667z"/>
</g>
<linearGradient id="SVGID_1_" gradientUnits="userSpaceOnUse" x1="-35.7031" y1="642.4844" x2="-32.7031" y2="639.4844" gradientTransform="matrix(21.3333 0 0 -21.3333 996.3334 13791.667)">
	<stop offset="0" style="stop-color:#000000;stop-opacity:0.1"/>
	<stop offset="1" style="stop-color:#000000;stop-opacity:0"/>
</linearGradient>
<polygon style="fill:url(#SVGID_1_);" points="298.667,149.333 298.667,106.667 213.333,106.667 256,149.333 "/>
<linearGradient id="SVGID_2_" gradientUnits="userSpaceOnUse" x1="-42.9299" y1="637.4418" x2="-24.4696" y2="628.8273" gradientTransform="matrix(21.3333 0 0 -21.3333 996.3334 13791.667)">
	<stop offset="0" style="stop-color:#FFFFFF;stop-opacity:0.2"/>
	<stop offset="1" style="stop-color:#FFFFFF;stop-opacity:0"/>
</linearGradient>
<path style="fill:url(#SVGID_2_);" d="M384,149.333h-64v-42.667c23.531,0,42.667-19.146,42.667-42.667c0-35.292-28.708-64-64-64  h-85.333c-35.292,0-64,28.708-64,64c0,23.521,19.135,42.667,42.667,42.667v42.667h-64c-23.531,0-42.667,19.146-42.667,42.667  v277.333C85.333,492.854,104.469,512,128,512h256c23.531,0,42.667-19.146,42.667-42.667V192  C426.667,168.479,407.531,149.333,384,149.333z"/>
<g>
</g>
<g>
</g>
<g>
</g>
<g>
</g>
<g>
</g>
<g>
</g>
<g>
</g>
<g>
</g>
<g>
</g>
<g>
</g>
<g>
</g>
<g>
</g>
<g>
</g>
<g>
</g>
<g>
</g>
</svg>
