<?xml version="1.0" encoding="iso-8859-1"?>
<!-- Generator: Adobe Illustrator 19.0.0, SVG Export Plug-In . SVG Version: 6.00 Build 0)  -->
<svg xmlns="http://www.w3.org/2000/svg" xmlns:xlink="http://www.w3.org/1999/xlink" version="1.1" id="Capa_1" x="0px" y="0px" viewBox="0 0 512 512" style="enable-background:new 0 0 512 512;" xml:space="preserve">
<path style="fill:#303C42;" d="M266.559,21.868c0.01-0.188,0.108-0.345,0.108-0.535V10.667C266.667,4.771,261.896,0,256,0  c-5.896,0-10.667,4.771-10.667,10.667v10.667c0,0.19,0.098,0.348,0.108,0.535C109.189,27.467,0,139.741,0,277.333  C0,283.229,4.771,288,10.667,288s10.667-4.771,10.667-10.667c0-23.125,32.563-42.667,71.104-42.667  c38.563,0,71.125,19.542,71.125,42.667c0,5.896,4.771,10.667,10.667,10.667s10.667-4.771,10.667-10.667  c0-20.941,26.773-38.784,60.438-41.997v217.997c0,20.583-16.75,37.333-37.333,37.333s-37.333-16.75-37.333-37.333  c0-7.479,2.208-14.698,6.354-20.865c3.313-4.885,2.021-11.51-2.875-14.813c-4.813-3.24-11.479-2.01-14.792,2.875  c-6.563,9.708-10.021,21.052-10.021,32.802C149.333,485.688,175.646,512,208,512s58.667-26.313,58.667-58.667V235.336  c33.664,3.214,60.438,21.056,60.438,41.997c0,5.896,4.771,10.667,10.667,10.667s10.667-4.771,10.667-10.667  c0-23.125,32.563-42.667,71.125-42.667c38.542,0,71.104,19.542,71.104,42.667c0,5.896,4.771,10.667,10.667,10.667  S512,283.229,512,277.333C512,139.741,402.811,27.467,266.559,21.868z"/>
<path style="fill:#0288D1;" d="M419.563,213.333c-35.896,0-66.417,13.479-81.792,33.688c-15.375-20.208-45.875-33.688-81.771-33.688  s-66.396,13.479-81.771,33.688c-15.375-20.208-45.896-33.688-81.792-33.688c-26.542,0-50.146,7.375-66.854,19.385  C46.479,124.583,141.854,42.667,256,42.667s209.521,81.917,230.417,190.052C469.708,220.708,446.104,213.333,419.563,213.333z"/>
<path style="opacity:0.2;fill:#FFFFFF;enable-background:new    ;" d="M25.583,232.719c16.708-12.01,40.313-19.385,66.854-19.385  c5.866,0,11.518,0.483,17.055,1.173C127.345,115.53,186.242,42.667,256,42.667C141.854,42.667,46.479,124.583,25.583,232.719z"/>
<path style="opacity:0.1;enable-background:new    ;" d="M256,42.667c69.758,0,128.655,72.863,146.508,171.84  c5.536-0.69,11.189-1.173,17.055-1.173c26.542,0,50.146,7.375,66.854,19.385C465.521,124.583,370.146,42.667,256,42.667z"/>
<linearGradient id="SVGID_1_" gradientUnits="userSpaceOnUse" x1="-45.4056" y1="638.9214" x2="-24.633" y2="629.2347" gradientTransform="matrix(21.3333 0 0 -21.3333 996.3334 13791.667)">
	<stop offset="0" style="stop-color:#FFFFFF;stop-opacity:0.2"/>
	<stop offset="1" style="stop-color:#FFFFFF;stop-opacity:0"/>
</linearGradient>
<path style="fill:url(#SVGID_1_);" d="M266.559,21.868c0.01-0.188,0.108-0.345,0.108-0.535V10.667C266.667,4.771,261.896,0,256,0  c-5.896,0-10.667,4.771-10.667,10.667v10.667c0,0.19,0.098,0.348,0.108,0.535C109.189,27.467,0,139.741,0,277.333  C0,283.229,4.771,288,10.667,288s10.667-4.771,10.667-10.667c0-23.125,32.563-42.667,71.104-42.667  c38.563,0,71.125,19.542,71.125,42.667c0,5.896,4.771,10.667,10.667,10.667s10.667-4.771,10.667-10.667  c0-20.941,26.773-38.784,60.438-41.997v217.997c0,20.583-16.75,37.333-37.333,37.333s-37.333-16.75-37.333-37.333  c0-7.479,2.208-14.698,6.354-20.865c3.313-4.885,2.021-11.51-2.875-14.813c-4.813-3.24-11.479-2.01-14.792,2.875  c-6.563,9.708-10.021,21.052-10.021,32.802C149.333,485.688,175.646,512,208,512s58.667-26.313,58.667-58.667V235.336  c33.664,3.214,60.438,21.056,60.438,41.997c0,5.896,4.771,10.667,10.667,10.667s10.667-4.771,10.667-10.667  c0-23.125,32.563-42.667,71.125-42.667c38.542,0,71.104,19.542,71.104,42.667c0,5.896,4.771,10.667,10.667,10.667  S512,283.229,512,277.333C512,139.741,402.811,27.467,266.559,21.868z"/>
<g>
</g>
<g>
</g>
<g>
</g>
<g>
</g>
<g>
</g>
<g>
</g>
<g>
</g>
<g>
</g>
<g>
</g>
<g>
</g>
<g>
</g>
<g>
</g>
<g>
</g>
<g>
</g>
<g>
</g>
</svg>
