<?xml version="1.0" encoding="iso-8859-1"?>
<!-- Generator: Adobe Illustrator 19.0.0, SVG Export Plug-In . SVG Version: 6.00 Build 0)  -->
<svg xmlns="http://www.w3.org/2000/svg" xmlns:xlink="http://www.w3.org/1999/xlink" version="1.1" id="Capa_1" x="0px" y="0px" viewBox="0 0 512.003 512.003" style="enable-background:new 0 0 512.003 512.003;" xml:space="preserve">
<path style="fill:#303C42;" d="M509.533,89.168l-53.333-64c-2.031-2.427-5.031-3.833-8.198-3.833h-53.333  c-2.104,0-4.167,0.625-5.917,1.792l-64,42.667c-3.75,2.5-5.521,7.094-4.427,11.458l9,36.031l-45.079,36.057l-69.4,0.099  l-71.978-10.283l-40.47-30.353c-3.219-2.427-7.542-2.802-11.167-1.01l-64,32c-2.875,1.438-4.948,4.094-5.646,7.229l-21.333,96  c-0.698,3.156,0.073,6.458,2.094,8.99c2.031,2.521,5.083,3.99,8.323,3.99h42.667c5.083,0,9.458-3.594,10.458-8.573l10.031-50.167  l15.927-15.927h20.99l-13.615,27.229c-1.01,2.021-1.354,4.302-0.979,6.521l10.771,64.563l21.083,94.854v20.439  c-10.164,7.695-17.617,18.793-20.254,31.728H74.668c-5.896,0-10.667,4.771-10.667,10.667s4.771,10.667,10.667,10.667h33.079  c4.956,24.314,26.5,42.667,52.254,42.667s47.298-18.353,52.254-42.667h66.159c4.956,24.314,26.5,42.667,52.254,42.667  s47.298-18.353,52.254-42.667h33.079c5.896,0,10.667-4.771,10.667-10.667s-4.771-10.667-10.667-10.667h-33.079  c-2.637-12.935-10.09-24.033-20.254-31.728v-30.783l20.573-72.198l21.333-53.333c0.719-1.813,0.938-3.781,0.615-5.708l-9.531-57.198  l9.677-6.453v22.734c0,4.594,2.938,8.667,7.292,10.115l32,10.667c1.115,0.375,2.25,0.552,3.375,0.552  c3.948,0,7.688-2.198,9.542-5.896l53.333-106.667C512.773,96.981,512.241,92.428,509.533,89.168z M298.668,394.94  c-10.164,7.695-17.617,18.793-20.254,31.728h-66.159c-2.637-12.935-10.09-24.033-20.254-31.728v-29.751l27.927-55.854h69.333  l9.406,74.667V394.94z"/>
<g>
	<path style="fill:#6D4C41;" d="M85.335,160.001c-2.833,0-5.542,1.125-7.542,3.125L56.46,184.46c-1.49,1.49-2.5,3.385-2.917,5.448   l-8.948,44.76H23.97l17.344-78.063l53.563-26.781l30.271,22.699l-3.74,7.478H85.335z"/>
	<path style="fill:#6D4C41;" d="M442.595,189.626l-15.927-5.313V85.335c0-5.896-4.771-10.667-10.667-10.667   c-5.896,0-10.667,4.771-10.667,10.667v58.292l-27.25,18.167c-3.49,2.323-5.292,6.49-4.604,10.625l10.177,61.063l-20.583,51.594   l-21.333,74.667c-0.271,0.948-0.406,1.938-0.406,2.927v22.413c-3.448-0.703-7.014-1.079-10.667-1.079   c-3.677,0-7.268,0.375-10.738,1.087l-0.012-2.41l-10.667-85.333c-0.667-5.333-5.208-9.344-10.583-9.344h-85.333   c-4.042,0-7.729,2.281-9.542,5.896l-32,64c-0.74,1.479-1.125,3.115-1.125,4.771v22.413c-3.448-0.703-7.014-1.079-10.667-1.079   s-7.219,0.376-10.667,1.079v-11.746c0-0.781-0.083-1.552-0.25-2.313l-21.229-95.438l-10.094-60.583l27.01-54.031l68.563,9.698   h74.667v-0.16c2.335,0.004,4.69-0.592,6.667-2.173l53.333-42.667c3.25-2.615,4.698-6.875,3.677-10.917l-8.844-35.375l55.063-36.708   h45.104l45.677,54.802L442.595,189.626z"/>
</g>
<g>
	<path style="fill:#303C42;" d="M202.668,192.001h-21.333c-5.896,0-10.667,4.771-10.667,10.667v21.333   c0,5.896,4.771,10.667,10.667,10.667h21.333c5.896,0,10.667-4.771,10.667-10.667v-21.333   C213.335,196.772,208.564,192.001,202.668,192.001z"/>
	<path style="fill:#303C42;" d="M266.668,192.001h-21.333c-5.896,0-10.667,4.771-10.667,10.667v21.333   c0,5.896,4.771,10.667,10.667,10.667h21.333c5.896,0,10.667-4.771,10.667-10.667v-21.333   C277.335,196.772,272.564,192.001,266.668,192.001z"/>
	<path style="fill:#303C42;" d="M330.668,192.001h-21.333c-5.896,0-10.667,4.771-10.667,10.667v21.333   c0,5.896,4.771,10.667,10.667,10.667h21.333c5.896,0,10.667-4.771,10.667-10.667v-21.333   C341.335,196.772,336.564,192.001,330.668,192.001z"/>
</g>
<g>
	<circle style="fill:#7C5E54;" cx="160.001" cy="437.335" r="32"/>
	<circle style="fill:#7C5E54;" cx="160.001" cy="437.335" r="32"/>
	<circle style="fill:#7C5E54;" cx="330.668" cy="437.335" r="32"/>
</g>
<path style="opacity:0.1;enable-background:new    ;" d="M351.744,413.445c0.069,0.858,0.258,1.681,0.258,2.556  c0,17.646-14.354,32-32,32c-8.105,0-15.431-3.126-21.076-8.111c1.328,16.435,14.971,29.444,31.742,29.444c17.646,0,32-14.354,32-32  C362.668,427.794,358.387,419.313,351.744,413.445z"/>
<circle style="fill:#7C5E54;" cx="160.001" cy="437.335" r="32"/>
<path style="opacity:0.1;enable-background:new    ;" d="M181.077,413.445c0.069,0.858,0.258,1.681,0.258,2.556  c0,17.646-14.354,32-32,32c-8.105,0-15.431-3.126-21.076-8.111c1.328,16.435,14.971,29.444,31.742,29.444c17.646,0,32-14.354,32-32  C192.002,427.794,187.72,419.313,181.077,413.445z"/>
<g>
	<circle style="fill:#303C42;" cx="160.001" cy="437.335" r="10.667"/>
	<circle style="fill:#303C42;" cx="330.668" cy="437.335" r="10.667"/>
</g>
<linearGradient id="SVGID_1_" gradientUnits="userSpaceOnUse" x1="-36.2854" y1="637.8929" x2="-28.7635" y2="630.3741" gradientTransform="matrix(21.3333 0 0 -21.3333 996.3054 13791.6982)">
	<stop offset="0" style="stop-color:#000000;stop-opacity:0.1"/>
	<stop offset="1" style="stop-color:#000000;stop-opacity:0"/>
</linearGradient>
<path style="fill:url(#SVGID_1_);" d="M381.625,238.576l-43.332-43.332c1.87,1.921,3.042,4.529,3.042,7.424v21.333  c0,5.896-4.771,10.667-10.667,10.667h-21.333c-5.896,0-10.667-4.771-10.667-10.667v-4.383l-24.375-24.375  c1.87,1.921,3.042,4.529,3.042,7.424v21.333c0,5.896-4.771,10.667-10.667,10.667h-21.333c-5.896,0-10.667-4.771-10.667-10.667  v-4.383l-24.375-24.375c1.87,1.921,3.042,4.529,3.042,7.424v21.333c0,5.896-4.771,10.667-10.667,10.667h-21.333  c-2.859,0-5.427-1.158-7.341-2.986l56.319,56.319h68.355c5.375,0,9.917,4.01,10.583,9.344l10.667,85.333l0.012,2.41  c3.47-0.712,7.061-1.087,10.738-1.087c3.652,0,7.219,0.376,10.667,1.079v-22.413c0-0.99,0.135-1.979,0.406-2.927l21.333-74.667  L381.625,238.576z"/>
<linearGradient id="SVGID_2_" gradientUnits="userSpaceOnUse" x1="-45.3323" y1="640.389" x2="-24.4699" y2="630.6604" gradientTransform="matrix(21.3333 0 0 -21.3333 996.3054 13791.6982)">
	<stop offset="0" style="stop-color:#FFFFFF;stop-opacity:0.2"/>
	<stop offset="1" style="stop-color:#FFFFFF;stop-opacity:0"/>
</linearGradient>
<path style="fill:url(#SVGID_2_);" d="M509.533,89.168l-53.333-64c-2.031-2.427-5.031-3.833-8.198-3.833h-53.333  c-2.104,0-4.167,0.625-5.917,1.792l-64,42.667c-3.75,2.5-5.521,7.094-4.427,11.458l9,36.031l-45.079,36.057l-69.4,0.099  l-71.978-10.283l-40.47-30.353c-3.219-2.427-7.542-2.802-11.167-1.01l-64,32c-2.875,1.438-4.948,4.094-5.646,7.229l-21.333,96  c-0.698,3.156,0.073,6.458,2.094,8.99c2.031,2.521,5.083,3.99,8.323,3.99h42.667c5.083,0,9.458-3.594,10.458-8.573l10.031-50.167  l15.927-15.927h20.99l-13.615,27.229c-1.01,2.021-1.354,4.302-0.979,6.521l10.771,64.563l21.083,94.854v20.439  c-10.164,7.695-17.617,18.793-20.254,31.728H74.668c-5.896,0-10.667,4.771-10.667,10.667s4.771,10.667,10.667,10.667h33.079  c4.956,24.314,26.5,42.667,52.254,42.667s47.298-18.353,52.254-42.667h66.159c4.956,24.314,26.5,42.667,52.254,42.667  s47.298-18.353,52.254-42.667h33.079c5.896,0,10.667-4.771,10.667-10.667s-4.771-10.667-10.667-10.667h-33.079  c-2.637-12.935-10.09-24.033-20.254-31.728v-30.783l20.573-72.198l21.333-53.333c0.719-1.813,0.938-3.781,0.615-5.708l-9.531-57.198  l9.677-6.453v22.734c0,4.594,2.938,8.667,7.292,10.115l32,10.667c1.115,0.375,2.25,0.552,3.375,0.552  c3.948,0,7.688-2.198,9.542-5.896l53.333-106.667C512.773,96.981,512.241,92.428,509.533,89.168z M298.668,394.94  c-10.164,7.695-17.617,18.793-20.254,31.728h-66.159c-2.637-12.935-10.09-24.033-20.254-31.728v-29.751l27.927-55.854h69.333  l9.406,74.667V394.94z"/>
<g>
</g>
<g>
</g>
<g>
</g>
<g>
</g>
<g>
</g>
<g>
</g>
<g>
</g>
<g>
</g>
<g>
</g>
<g>
</g>
<g>
</g>
<g>
</g>
<g>
</g>
<g>
</g>
<g>
</g>
</svg>
