<?xml version="1.0" encoding="iso-8859-1"?>
<!-- Generator: Adobe Illustrator 19.0.0, SVG Export Plug-In . SVG Version: 6.00 Build 0)  -->
<svg xmlns="http://www.w3.org/2000/svg" xmlns:xlink="http://www.w3.org/1999/xlink" version="1.1" id="Capa_1" x="0px" y="0px" viewBox="0 0 512 512" style="enable-background:new 0 0 512 512;" xml:space="preserve">
<path style="fill:#303C42;" d="M320,355.951v-46.617c0-5.896-4.771-10.667-10.667-10.667h-10.667v-256  C298.667,19.146,279.521,0,256,0s-42.667,19.146-42.667,42.667v256h-10.667c-5.896,0-10.667,4.771-10.667,10.667v46.617  c-50.361,24.03-85.333,75.305-85.333,134.716v10.667c0,5.896,4.771,10.667,10.667,10.667h277.333  c5.896,0,10.667-4.771,10.667-10.667v-10.667C405.333,431.255,370.361,379.98,320,355.951z"/>
<path style="fill:#6D4C41;" d="M234.667,42.667c0-11.771,9.563-21.333,21.333-21.333c11.771,0,21.333,9.563,21.333,21.333v256  h-42.667V42.667z"/>
<g>
	<path style="fill:#546E7A;" d="M213.333,320h85.333v27.624c-13.533-4.046-27.836-6.29-42.667-6.29   c-14.831,0-29.133,2.245-42.667,6.29V320z"/>
	<path style="fill:#546E7A;" d="M128,490.667c0-70.583,57.417-128,128-128s128,57.417,128,128H128z"/>
</g>
<path style="opacity:0.2;fill:#FFFFFF;enable-background:new    ;" d="M128,490.667h42.667c0-70.583,38.277-128,85.333-128  C185.417,362.667,128,420.083,128,490.667z"/>
<path style="opacity:0.1;enable-background:new    ;" d="M256,362.667c47.056,0,85.333,57.417,85.333,128H384  C384,420.083,326.583,362.667,256,362.667z"/>
<path style="opacity:0.1;enable-background:new    ;" d="M256,21.333v277.333h21.333v-256C277.333,30.896,267.771,21.333,256,21.333  z"/>
<linearGradient id="SVGID_1_" gradientUnits="userSpaceOnUse" x1="-40.8965" y1="635.9341" x2="-25.0568" y2="628.5483" gradientTransform="matrix(21.3333 0 0 -21.3333 996.3334 13791.667)">
	<stop offset="0" style="stop-color:#FFFFFF;stop-opacity:0.2"/>
	<stop offset="1" style="stop-color:#FFFFFF;stop-opacity:0"/>
</linearGradient>
<path style="fill:url(#SVGID_1_);" d="M320,355.951v-46.617c0-5.896-4.771-10.667-10.667-10.667h-10.667v-256  C298.667,19.146,279.521,0,256,0s-42.667,19.146-42.667,42.667v256h-10.667c-5.896,0-10.667,4.771-10.667,10.667v46.617  c-50.361,24.03-85.333,75.305-85.333,134.716v10.667c0,5.896,4.771,10.667,10.667,10.667h277.333  c5.896,0,10.667-4.771,10.667-10.667v-10.667C405.333,431.255,370.361,379.98,320,355.951z"/>
<g>
</g>
<g>
</g>
<g>
</g>
<g>
</g>
<g>
</g>
<g>
</g>
<g>
</g>
<g>
</g>
<g>
</g>
<g>
</g>
<g>
</g>
<g>
</g>
<g>
</g>
<g>
</g>
<g>
</g>
</svg>
