<?xml version="1.0" encoding="iso-8859-1"?>
<!-- Generator: Adobe Illustrator 19.0.0, SVG Export Plug-In . SVG Version: 6.00 Build 0)  -->
<svg xmlns="http://www.w3.org/2000/svg" xmlns:xlink="http://www.w3.org/1999/xlink" version="1.1" id="Capa_1" x="0px" y="0px" viewBox="0 0 469.333 469.333" style="enable-background:new 0 0 469.333 469.333;" xml:space="preserve">
<path style="fill:#303C42;" d="M384,0H85.333C37.479,0,0,74.958,0,170.667v288c0,5.896,4.771,10.667,10.667,10.667h298.667  c5.896,0,10.667-4.771,10.667-10.667V341.333h64c47.854,0,85.333-74.958,85.333-170.667S431.854,0,384,0z"/>
<path style="fill:#F2F2F2;" d="M21.333,448V213.333H32c5.896,0,10.667-4.771,10.667-10.667S37.896,192,32,192H21.333v-21.333  c0-88,33.729-149.333,64-149.333H342.15c-26.133,28.852-43.483,84.26-43.483,149.333V192H288c-5.896,0-10.667,4.771-10.667,10.667  s4.771,10.667,10.667,10.667h10.667V448H21.333z"/>
<linearGradient id="SVGID_1_" gradientUnits="userSpaceOnUse" x1="-68.107" y1="609.7115" x2="-63.5679" y2="607.5945" gradientTransform="matrix(21.3333 0 0 -21.3333 1430.1112 13315.2227)">
	<stop offset="0" style="stop-color:#FFFFFF;stop-opacity:0.2"/>
	<stop offset="1" style="stop-color:#FFFFFF;stop-opacity:0"/>
</linearGradient>
<rect x="21.333" y="213.333" style="fill:url(#SVGID_1_);" width="8.491" height="234.581"/>
<linearGradient id="SVGID_2_" gradientUnits="userSpaceOnUse" x1="-64.6823" y1="622.0262" x2="-53.8737" y2="616.9854" gradientTransform="matrix(21.3333 0 0 -21.3333 1430.1112 13315.2227)">
	<stop offset="0" style="stop-color:#FFFFFF;stop-opacity:0.2"/>
	<stop offset="1" style="stop-color:#FFFFFF;stop-opacity:0"/>
</linearGradient>
<path style="fill:url(#SVGID_2_);" d="M36,192.806v-7.473C36,97.333,69.729,36,100,36h231.224  c3.454-5.379,7.059-10.397,10.926-14.667H85.333c-30.271,0-64,61.333-64,149.333V192H32C33.419,192,34.762,192.303,36,192.806z"/>
<path style="fill:#CCCCCC;" d="M320,284.421c6.299,14.217,13.746,26.302,22.15,35.579H320V284.421z"/>
<path style="fill:#E6E6E6;" d="M384,320c-30.271,0-64-61.333-64-149.333s33.729-149.333,64-149.333c30.271,0,64,61.333,64,149.333  S414.271,320,384,320z"/>
<path style="opacity:0.1;enable-background:new    ;" d="M384,320c-30.271,0-64-61.333-64-149.333s33.729-149.333,64-149.333  c30.271,0,64,61.333,64,149.333S414.271,320,384,320z"/>
<g>
	<path style="fill:#303C42;" d="M384,106.667c-14.146,0-21.333,21.542-21.333,64s7.188,64,21.333,64   c14.146,0,21.333-21.542,21.333-64S398.146,106.667,384,106.667z"/>
	<path style="fill:#303C42;" d="M228.938,192h-39.396c-5.896,0-10.667,4.771-10.667,10.667s4.771,10.667,10.667,10.667h39.396   c5.896,0,10.667-4.771,10.667-10.667S234.833,192,228.938,192z"/>
	<path style="fill:#303C42;" d="M130.458,192H91.083c-5.896,0-10.667,4.771-10.667,10.667s4.771,10.667,10.667,10.667h39.375   c5.896,0,10.667-4.771,10.667-10.667S136.354,192,130.458,192z"/>
</g>
<linearGradient id="SVGID_3_" gradientUnits="userSpaceOnUse" x1="-67.7276" y1="617.8732" x2="-47.2023" y2="608.3021" gradientTransform="matrix(21.3333 0 0 -21.3333 1430.1112 13315.2227)">
	<stop offset="0" style="stop-color:#FFFFFF;stop-opacity:0.2"/>
	<stop offset="1" style="stop-color:#FFFFFF;stop-opacity:0"/>
</linearGradient>
<path style="fill:url(#SVGID_3_);" d="M384,0H85.333C37.479,0,0,74.958,0,170.667v288c0,5.896,4.771,10.667,10.667,10.667h298.667  c5.896,0,10.667-4.771,10.667-10.667V341.333h64c47.854,0,85.333-74.958,85.333-170.667S431.854,0,384,0z"/>
<g>
</g>
<g>
</g>
<g>
</g>
<g>
</g>
<g>
</g>
<g>
</g>
<g>
</g>
<g>
</g>
<g>
</g>
<g>
</g>
<g>
</g>
<g>
</g>
<g>
</g>
<g>
</g>
<g>
</g>
</svg>
