<?xml version="1.0" encoding="iso-8859-1"?>
<!-- Generator: Adobe Illustrator 19.0.0, SVG Export Plug-In . SVG Version: 6.00 Build 0)  -->
<svg xmlns="http://www.w3.org/2000/svg" xmlns:xlink="http://www.w3.org/1999/xlink" version="1.1" id="Capa_1" x="0px" y="0px" viewBox="0 0 512.002 512.002" style="enable-background:new 0 0 512.002 512.002;" xml:space="preserve">
<path style="fill:#303C42;" d="M508.877,3.127c-2.865-2.854-7.063-3.865-10.917-2.573l-128,42.667  c-1.865,0.615-3.521,1.74-4.781,3.24L158.108,292.358l-54.564-54.564c-4.167-4.167-10.917-4.167-15.083,0l-21.333,21.333  c-3.458,3.458-4.125,8.833-1.604,13.031l45.599,75.999l-66.298,78.729c-0.729-0.038-1.417-0.217-2.155-0.217  c-23.531,0-42.667,19.135-42.667,42.667s19.135,42.667,42.667,42.667s42.667-19.135,42.667-42.667c0-0.738-0.18-1.426-0.217-2.155  l78.729-66.298l75.999,45.599c1.708,1.021,3.604,1.521,5.49,1.521c2.75,0,5.49-1.073,7.542-3.125l21.333-21.333  c4.167-4.167,4.167-10.917,0-15.083l-54.564-54.564l245.897-207.072c1.5-1.26,2.625-2.917,3.24-4.781l42.667-128  C512.731,10.21,511.731,5.981,508.877,3.127z"/>
<circle style="fill:#FFD54F;" cx="42.668" cy="469.334" r="21.333"/>
<circle style="opacity:0.2;fill:#FFFFFF;enable-background:new    ;" cx="49.665" cy="462.337" r="6.997"/>
<path style="fill:#FFD54F;" d="M77.92,445.35c-3.018-4.422-6.844-8.247-11.266-11.266l56.072-66.586l6.797,11.327  c0.896,1.5,2.156,2.76,3.656,3.656l11.327,6.797L77.92,445.35z"/>
<path style="opacity:0.1;enable-background:new    ;" d="M119.614,388.734c0.896,1.5,2.156,2.76,3.656,3.656l10.242,6.146  l10.993-9.258l-11.327-6.797c-1.5-0.896-2.76-2.156-3.656-3.656l-6.797-11.327l-9.258,10.993L119.614,388.734z"/>
<polygon style="fill:#FFD54F;" points="251.586,416.002 243.679,423.908 146.44,365.565 88.096,268.325 96.002,260.419 "/>
<polygon style="fill:#E4E9EB;" points="449.502,132.45 204.505,338.755 173.25,307.499 379.554,62.502 484.471,27.533 "/>
<polygon style="opacity:0.1;enable-background:new    ;" points="243.679,423.908 251.586,416.002 173.794,338.21 146.44,365.565   "/>
<polygon style="opacity:0.1;enable-background:new    ;" points="204.505,338.755 449.502,132.45 484.471,27.533 188.877,323.127   "/>
<linearGradient id="SVGID_1_" gradientUnits="userSpaceOnUse" x1="-41.8414" y1="638.0865" x2="-28.4479" y2="631.8413" gradientTransform="matrix(21.3333 0 0 -21.3333 996.3126 13791.6895)">
	<stop offset="0" style="stop-color:#FFFFFF;stop-opacity:0.2"/>
	<stop offset="1" style="stop-color:#FFFFFF;stop-opacity:0"/>
</linearGradient>
<path style="fill:url(#SVGID_1_);" d="M508.877,3.127c-2.865-2.854-7.063-3.865-10.917-2.573l-128,42.667  c-1.865,0.615-3.521,1.74-4.781,3.24L158.108,292.358l-54.564-54.564c-4.167-4.167-10.917-4.167-15.083,0l-21.333,21.333  c-3.458,3.458-4.125,8.833-1.604,13.031l45.599,75.999l-66.298,78.729c-0.729-0.038-1.417-0.217-2.155-0.217  c-23.531,0-42.667,19.135-42.667,42.667s19.135,42.667,42.667,42.667s42.667-19.135,42.667-42.667c0-0.738-0.18-1.426-0.217-2.155  l78.729-66.298l75.999,45.599c1.708,1.021,3.604,1.521,5.49,1.521c2.75,0,5.49-1.073,7.542-3.125l21.333-21.333  c4.167-4.167,4.167-10.917,0-15.083l-54.564-54.564l245.897-207.072c1.5-1.26,2.625-2.917,3.24-4.781l42.667-128  C512.731,10.21,511.731,5.981,508.877,3.127z"/>
<g>
</g>
<g>
</g>
<g>
</g>
<g>
</g>
<g>
</g>
<g>
</g>
<g>
</g>
<g>
</g>
<g>
</g>
<g>
</g>
<g>
</g>
<g>
</g>
<g>
</g>
<g>
</g>
<g>
</g>
</svg>
