<?xml version="1.0" encoding="iso-8859-1"?>
<!-- Generator: Adobe Illustrator 19.0.0, SVG Export Plug-In . SVG Version: 6.00 Build 0)  -->
<svg xmlns="http://www.w3.org/2000/svg" xmlns:xlink="http://www.w3.org/1999/xlink" version="1.1" id="Capa_1" x="0px" y="0px" viewBox="0 0 469.333 469.333" style="enable-background:new 0 0 469.333 469.333;" xml:space="preserve">
<path style="fill:#303C42;" d="M426.667,0h-384C19.135,0,0,19.135,0,42.667v384c0,23.531,19.135,42.667,42.667,42.667h384  c23.531,0,42.667-19.135,42.667-42.667v-384C469.333,19.135,450.198,0,426.667,0z"/>
<path style="fill:#F2F2F2;" d="M448,426.667c0,11.76-9.573,21.333-21.333,21.333h-384c-11.76,0-21.333-9.573-21.333-21.333v-384  c0-11.76,9.573-21.333,21.333-21.333h384c11.76,0,21.333,9.573,21.333,21.333V426.667z"/>
<path style="fill:#303C42;" d="M384,117.333c0-5.896-4.771-10.667-10.667-10.667H234.667H96c-5.896,0-10.667,4.771-10.667,10.667  V352c0,5.896,4.771,10.667,10.667,10.667h138.667h138.667c5.896,0,10.667-4.771,10.667-10.667V117.333z"/>
<linearGradient id="SVGID_1_" gradientUnits="userSpaceOnUse" x1="-56.5364" y1="613.6505" x2="-46.3305" y2="603.4435" gradientTransform="matrix(21.3333 0 0 -21.3333 1430.1112 13315.2227)">
	<stop offset="0" style="stop-color:#000000;stop-opacity:0.1"/>
	<stop offset="1" style="stop-color:#000000;stop-opacity:0"/>
</linearGradient>
<path style="fill:url(#SVGID_1_);" d="M380.943,109.885L380.943,109.885c1.882,1.923,3.057,4.542,3.057,7.448V352  c0,5.896-4.771,10.667-10.667,10.667H234.667H96c-2.948,0-5.615-1.193-7.544-3.122L176.911,448h249.755  c11.76,0,21.333-9.573,21.333-21.333V176.943L380.943,109.885z"/>
<g>
	<rect x="245.333" y="128" style="fill:#E6E6E6;" width="117.333" height="42.667"/>
	<rect x="106.667" y="128" style="fill:#E6E6E6;" width="117.333" height="149.333"/>
</g>
<rect x="106.667" y="266.667" style="opacity:0.2;fill:#FFFFFF;enable-background:new    ;" width="117.333" height="10.667"/>
<rect x="106.667" y="128" style="opacity:0.1;enable-background:new    ;" width="117.333" height="10.667"/>
<rect x="245.333" y="160" style="opacity:0.2;fill:#FFFFFF;enable-background:new    ;" width="117.333" height="10.667"/>
<rect x="245.333" y="128" style="opacity:0.1;enable-background:new    ;" width="117.333" height="10.667"/>
<g>
	<rect x="106.667" y="298.667" style="fill:#E6E6E6;" width="117.333" height="42.667"/>
	<rect x="245.333" y="192" style="fill:#E6E6E6;" width="117.333" height="149.333"/>
</g>
<rect x="106.667" y="298.667" style="opacity:0.1;enable-background:new    ;" width="117.333" height="10.667"/>
<rect x="245.333" y="192" style="opacity:0.1;enable-background:new    ;" width="117.333" height="10.667"/>
<g>
	<circle style="fill:#303C42;" cx="64" cy="64" r="21.333"/>
	<circle style="fill:#303C42;" cx="405.333" cy="64" r="21.333"/>
	<circle style="fill:#303C42;" cx="64" cy="405.333" r="21.333"/>
	<circle style="fill:#303C42;" cx="405.333" cy="405.333" r="21.333"/>
</g>
<linearGradient id="SVGID_2_" gradientUnits="userSpaceOnUse" x1="-68.6888" y1="619.0512" x2="-43.3842" y2="607.2509" gradientTransform="matrix(21.3333 0 0 -21.3333 1430.1112 13315.2227)">
	<stop offset="0" style="stop-color:#FFFFFF;stop-opacity:0.2"/>
	<stop offset="1" style="stop-color:#FFFFFF;stop-opacity:0"/>
</linearGradient>
<path style="fill:url(#SVGID_2_);" d="M426.667,0h-384C19.135,0,0,19.135,0,42.667v384c0,23.531,19.135,42.667,42.667,42.667h384  c23.531,0,42.667-19.135,42.667-42.667v-384C469.333,19.135,450.198,0,426.667,0z"/>
<g>
</g>
<g>
</g>
<g>
</g>
<g>
</g>
<g>
</g>
<g>
</g>
<g>
</g>
<g>
</g>
<g>
</g>
<g>
</g>
<g>
</g>
<g>
</g>
<g>
</g>
<g>
</g>
<g>
</g>
</svg>
