<?xml version="1.0" encoding="iso-8859-1"?>
<!-- Generator: Adobe Illustrator 19.0.0, SVG Export Plug-In . SVG Version: 6.00 Build 0)  -->
<svg xmlns="http://www.w3.org/2000/svg" xmlns:xlink="http://www.w3.org/1999/xlink" version="1.1" id="Capa_1" x="0px" y="0px" viewBox="0 0 469.333 469.333" style="enable-background:new 0 0 469.333 469.333;" xml:space="preserve">
<path style="fill:#303C42;" d="M426.667,0h-384C19.146,0,0,19.135,0,42.667v384c0,23.531,19.146,42.667,42.667,42.667h384  c23.521,0,42.667-19.135,42.667-42.667v-384C469.333,19.135,450.188,0,426.667,0z"/>
<path style="fill:#F2F2F2;" d="M448,426.667c0,11.76-9.563,21.333-21.333,21.333h-384c-11.771,0-21.333-9.573-21.333-21.333v-384  c0-11.76,9.563-21.333,21.333-21.333h384c11.771,0,21.333,9.573,21.333,21.333V426.667z"/>
<path style="fill:#303C42;" d="M391.458,192H384v-36.927c0-1.865-0.5-3.698-1.417-5.323C352.146,96.854,295.458,64,234.667,64  S117.188,96.854,86.75,149.75c-0.917,1.625-1.417,3.458-1.417,5.323V192h-7.458c-5.063,0-9.438,3.573-10.458,8.542  C65.146,211.708,64,223.188,64,234.667s1.146,22.958,3.417,34.125c1.021,4.969,5.396,8.542,10.458,8.542h7.458v36.927  c0,1.865,0.5,3.698,1.417,5.323c30.438,52.896,87.125,85.75,147.917,85.75s117.479-32.854,147.917-85.75  c0.917-1.625,1.417-3.458,1.417-5.323v-36.927h7.458c5.063,0,9.438-3.573,10.458-8.542c2.271-11.167,3.417-22.646,3.417-34.125  s-1.146-22.958-3.417-34.125C400.896,195.573,396.521,192,391.458,192z"/>
<path style="fill:#E6E6E6;" d="M382.479,256h-9.146c-5.896,0-10.667,4.771-10.667,10.667v44.688  c-26.958,44.885-75.75,72.646-128,72.646s-101.042-27.76-128-72.646v-44.688c0-5.896-4.771-10.667-10.667-10.667h-9.146  c-1.021-7.042-1.521-14.188-1.521-21.333s0.5-14.292,1.521-21.333H96c5.896,0,10.667-4.771,10.667-10.667v-44.688  c26.958-44.885,75.75-72.646,128-72.646s101.042,27.76,128,72.646v44.688c0,5.896,4.771,10.667,10.667,10.667h9.146  c1.021,7.042,1.521,14.188,1.521,21.333S383.5,248.958,382.479,256z"/>
<linearGradient id="SVGID_1_" gradientUnits="userSpaceOnUse" x1="-56.0365" y1="620.1511" x2="-56.0365" y2="606.1511" gradientTransform="matrix(21.3333 0 0 -21.3333 1430.1112 13315.2227)">
	<stop offset="0" style="stop-color:#000000;stop-opacity:0.1"/>
	<stop offset="0.136" style="stop-color:#000000;stop-opacity:0.086"/>
	<stop offset="1" style="stop-color:#000000;stop-opacity:0"/>
</linearGradient>
<path style="fill:url(#SVGID_1_);" d="M382.479,256h-9.146c-5.896,0-10.667,4.771-10.667,10.667v44.688  c-26.958,44.885-75.75,72.646-128,72.646s-101.042-27.76-128-72.646v-44.688c0-5.896-4.771-10.667-10.667-10.667h-9.146  c-1.021-7.042-1.521-14.188-1.521-21.333s0.5-14.292,1.521-21.333H96c5.896,0,10.667-4.771,10.667-10.667v-44.688  c26.958-44.885,75.75-72.646,128-72.646s101.042,27.76,128,72.646v44.688c0,5.896,4.771,10.667,10.667,10.667h9.146  c1.021,7.042,1.521,14.188,1.521,21.333S383.5,248.958,382.479,256z"/>
<path style="opacity:0.1;enable-background:new    ;" d="M86.854,230H96c5.896,0,10.667-4.771,10.667-10.667v-16.667  c0,5.896-4.771,10.667-10.667,10.667h-9.146c-1.021,7.042-1.521,14.188-1.521,21.333c0,2.792,0.44,5.548,0.594,8.333  C86.167,238.655,86.232,234.29,86.854,230z"/>
<path style="opacity:0.1;enable-background:new    ;" d="M362.667,219.333c0,5.896,4.771,10.667,10.667,10.667h9.146  c0.622,4.29,0.688,8.655,0.927,13c0.154-2.785,0.594-5.542,0.594-8.333c0-7.146-0.5-14.292-1.521-21.333h-9.146  c-5.896,0-10.667-4.771-10.667-10.667V219.333z"/>
<path style="opacity:0.1;enable-background:new    ;" d="M234.667,102c52.25,0,101.042,27.76,128,72.646v-16.667  c-26.958-44.885-75.75-72.646-128-72.646s-101.042,27.76-128,72.646v16.667C133.625,129.76,182.417,102,234.667,102z"/>
<g>
	<circle style="fill:#303C42;" cx="170.667" cy="234.667" r="21.333"/>
	<circle style="fill:#303C42;" cx="234.667" cy="234.667" r="10.667"/>
</g>
<path style="opacity:0.2;fill:#FFFFFF;enable-background:new    ;" d="M36,441.333v-384C36,45.573,45.563,36,57.333,36h384  c1.966,0,3.736,0.622,5.545,1.122c-2.491-9.014-10.408-15.789-20.211-15.789h-384c-11.771,0-21.333,9.573-21.333,21.333v384  c0,9.796,6.77,17.719,15.789,20.211C36.622,445.069,36,443.298,36,441.333z"/>
<circle style="fill:#303C42;" cx="298.667" cy="234.667" r="21.333"/>
<linearGradient id="SVGID_2_" gradientUnits="userSpaceOnUse" x1="-56.0715" y1="612.9924" x2="-46.4265" y2="603.3474" gradientTransform="matrix(21.3333 0 0 -21.3333 1430.1112 13315.2227)">
	<stop offset="0" style="stop-color:#000000;stop-opacity:0.1"/>
	<stop offset="1" style="stop-color:#000000;stop-opacity:0"/>
</linearGradient>
<path style="fill:url(#SVGID_2_);" d="M382.583,149.75c0.917,1.625,1.417,3.458,1.417,5.323V192h7.458  c5.063,0,9.438,3.573,10.458,8.542c2.271,11.167,3.417,22.646,3.417,34.125s-1.146,22.958-3.417,34.125  c-1.021,4.969-5.396,8.542-10.458,8.542H384v36.927c0,1.865-0.5,3.698-1.417,5.323c-30.438,52.896-87.125,85.75-147.917,85.75  c-44.98,0-87.645-18.069-119.16-48.852l-0.07,0.053L206.901,448h219.766c11.771,0,21.333-9.573,21.333-21.333v-211.5L382.583,149.75  z"/>
<linearGradient id="SVGID_3_" gradientUnits="userSpaceOnUse" x1="-68.6887" y1="619.0511" x2="-43.3842" y2="607.2509" gradientTransform="matrix(21.3333 0 0 -21.3333 1430.1112 13315.2227)">
	<stop offset="0" style="stop-color:#FFFFFF;stop-opacity:0.2"/>
	<stop offset="1" style="stop-color:#FFFFFF;stop-opacity:0"/>
</linearGradient>
<path style="fill:url(#SVGID_3_);" d="M426.667,0h-384C19.146,0,0,19.135,0,42.667v384c0,23.531,19.146,42.667,42.667,42.667h384  c23.521,0,42.667-19.135,42.667-42.667v-384C469.333,19.135,450.188,0,426.667,0z"/>
<g>
</g>
<g>
</g>
<g>
</g>
<g>
</g>
<g>
</g>
<g>
</g>
<g>
</g>
<g>
</g>
<g>
</g>
<g>
</g>
<g>
</g>
<g>
</g>
<g>
</g>
<g>
</g>
<g>
</g>
</svg>
