<?xml version="1.0" encoding="iso-8859-1"?>
<!-- Generator: Adobe Illustrator 19.0.0, SVG Export Plug-In . SVG Version: 6.00 Build 0)  -->
<svg xmlns="http://www.w3.org/2000/svg" xmlns:xlink="http://www.w3.org/1999/xlink" version="1.1" id="Capa_1" x="0px" y="0px" viewBox="0 0 469.333 469.333" style="enable-background:new 0 0 469.333 469.333;" xml:space="preserve">
<path style="fill:#303C42;" d="M426.667,0h-384C19.146,0,0,19.135,0,42.667v384c0,23.531,19.146,42.667,42.667,42.667h384  c23.521,0,42.667-19.135,42.667-42.667v-384C469.333,19.135,450.188,0,426.667,0z"/>
<path style="fill:#F2F2F2;" d="M448,426.667c0,11.76-9.563,21.333-21.333,21.333h-384c-11.771,0-21.333-9.573-21.333-21.333v-384  c0-11.76,9.563-21.333,21.333-21.333h384c11.771,0,21.333,9.573,21.333,21.333V426.667z"/>
<path style="opacity:0.2;fill:#FFFFFF;enable-background:new    ;" d="M36,441.333v-384C36,45.573,45.563,36,57.333,36h384  c1.966,0,3.736,0.622,5.544,1.122c-2.491-9.014-10.408-15.789-20.211-15.789h-384c-11.771,0-21.333,9.573-21.333,21.333v384  c0,9.796,6.77,17.719,15.789,20.211C36.622,445.069,36,443.298,36,441.333z"/>
<path style="fill:#303C42;" d="M356.521,106.667H112.792c-3.354,0-6.521,1.583-8.542,4.271C78.292,145.542,64,189.49,64,234.667  c0,45.208,14.313,89.146,40.292,123.74c2,2.677,5.167,4.26,8.521,4.26h243.729c3.354,0,6.521-1.583,8.542-4.271  c25.958-34.604,40.25-78.552,40.25-123.729c0-45.208-14.313-89.146-40.292-123.74C363.042,108.25,359.875,106.667,356.521,106.667z"/>
<path style="fill:#E6E6E6;" d="M351.104,341.333H118.25c-21.271-30.24-32.917-67.896-32.917-106.667  c0-38.75,11.646-76.406,32.896-106.667h232.854C372.354,158.24,384,195.896,384,234.667  C384,273.417,372.354,311.073,351.104,341.333z"/>
<linearGradient id="SVGID_1_" gradientUnits="userSpaceOnUse" x1="-59.5674" y1="619.2641" x2="-52.5055" y2="607.038" gradientTransform="matrix(21.3333 0 0 -21.3333 1430.1112 13315.2227)">
	<stop offset="0" style="stop-color:#000000;stop-opacity:0.1"/>
	<stop offset="0.136" style="stop-color:#000000;stop-opacity:0.086"/>
	<stop offset="1" style="stop-color:#000000;stop-opacity:0"/>
</linearGradient>
<path style="fill:url(#SVGID_1_);" d="M351.104,341.333H118.25c-21.271-30.24-32.917-67.896-32.917-106.667  c0-38.75,11.646-76.406,32.896-106.667h232.854C372.354,158.24,384,195.896,384,234.667  C384,273.417,372.354,311.073,351.104,341.333z"/>
<path style="opacity:0.1;enable-background:new    ;" d="M118.229,149.333h232.854c19.299,27.438,30.176,61.061,32.118,96.001  c0.199-3.569,0.798-7.074,0.798-10.668c0-38.771-11.646-76.427-32.917-106.667H118.229c-21.25,30.26-32.896,67.917-32.896,106.667  c0,3.594,0.599,7.099,0.798,10.669C88.074,210.413,98.949,176.789,118.229,149.333z"/>
<g>
	<circle style="fill:#303C42;" cx="170.667" cy="192" r="21.333"/>
	<circle style="fill:#303C42;" cx="298.667" cy="192" r="21.333"/>
	<path style="fill:#303C42;" d="M256,256h-42.667c-5.896,0-10.667,4.771-10.667,10.667c0,17.646,14.354,32,32,32s32-14.354,32-32   C266.667,260.771,261.896,256,256,256z"/>
</g>
<linearGradient id="SVGID_2_" gradientUnits="userSpaceOnUse" x1="-56.1607" y1="613.2753" x2="-46.2984" y2="603.413" gradientTransform="matrix(21.3333 0 0 -21.3333 1430.1112 13315.2227)">
	<stop offset="0" style="stop-color:#000000;stop-opacity:0.1"/>
	<stop offset="1" style="stop-color:#000000;stop-opacity:0"/>
</linearGradient>
<path style="fill:url(#SVGID_2_);" d="M365.708,111.594l-0.126,0.12c25.617,34.475,39.751,78.077,39.751,122.953  c0,45.177-14.292,89.125-40.25,123.729c-2.021,2.688-5.188,4.271-8.542,4.271H112.813c-3.029,0-5.79-1.43-7.793-3.652l-0.061,0.059  l89.594,89.594h232.781c11.771,0,21.333-9.573,21.333-21.333V194.552L365.708,111.594z"/>
<linearGradient id="SVGID_3_" gradientUnits="userSpaceOnUse" x1="-68.6887" y1="619.0511" x2="-43.3842" y2="607.2509" gradientTransform="matrix(21.3333 0 0 -21.3333 1430.1112 13315.2227)">
	<stop offset="0" style="stop-color:#FFFFFF;stop-opacity:0.2"/>
	<stop offset="1" style="stop-color:#FFFFFF;stop-opacity:0"/>
</linearGradient>
<path style="fill:url(#SVGID_3_);" d="M426.667,0h-384C19.146,0,0,19.135,0,42.667v384c0,23.531,19.146,42.667,42.667,42.667h384  c23.521,0,42.667-19.135,42.667-42.667v-384C469.333,19.135,450.188,0,426.667,0z"/>
<g>
</g>
<g>
</g>
<g>
</g>
<g>
</g>
<g>
</g>
<g>
</g>
<g>
</g>
<g>
</g>
<g>
</g>
<g>
</g>
<g>
</g>
<g>
</g>
<g>
</g>
<g>
</g>
<g>
</g>
</svg>
