<?xml version="1.0" encoding="iso-8859-1"?>
<!-- Generator: Adobe Illustrator 19.0.0, SVG Export Plug-In . SVG Version: 6.00 Build 0)  -->
<svg xmlns="http://www.w3.org/2000/svg" xmlns:xlink="http://www.w3.org/1999/xlink" version="1.1" id="Capa_1" x="0px" y="0px" viewBox="0 0 512.005 512.005" style="enable-background:new 0 0 512.005 512.005;" xml:space="preserve">
<path style="fill:#303C42;" d="M440.888,64.609l-64-22.583c-3.26-1.135-6.896-0.656-9.708,1.354c-2.833,2-4.51,5.25-4.51,8.708  v29.115l-42.667-14.219v-37.49c0-4.521-2.854-8.552-7.115-10.063L259.555,0.609c-2.292-0.812-4.813-0.812-7.104,0l-53.333,18.823  c-4.26,1.51-7.115,5.542-7.115,10.063v37.49l-42.667,14.219V52.089c0-3.458-1.677-6.708-4.51-8.708  c-2.823-2.01-6.458-2.49-9.708-1.354l-64,22.583c-4.26,1.51-7.115,5.542-7.115,10.063v128c0,165.646,24.563,226.188,187.198,308.188  c1.51,0.76,3.156,1.146,4.802,1.146c1.646,0,3.292-0.385,4.802-1.146c162.635-82,187.198-142.542,187.198-308.188v-128  C448.003,70.151,445.148,66.12,440.888,64.609z"/>
<path style="fill:#6D4C41;" d="M426.669,202.672c0,158.656-20.229,210.01-170.667,286.708  C105.565,412.682,85.336,361.328,85.336,202.672V82.224l42.667-15.063v28.844c0,3.427,1.646,6.646,4.427,8.656  c2.792,1.99,6.365,2.531,9.615,1.458l64-21.333c4.354-1.448,7.292-5.521,7.292-10.115V37.047l42.667-15.063l42.667,15.063v37.625  c0,4.594,2.938,8.667,7.292,10.115l64,21.333c3.229,1.073,6.813,0.531,9.615-1.458c2.781-2.01,4.427-5.229,4.427-8.656V67.161  l42.667,15.063V202.672z"/>
<path style="opacity:0.1;enable-background:new    ;" d="M256.003,21.984l42.667,15.063v37.625c0,4.594,2.938,8.667,7.292,10.115  l64,21.333c3.229,1.073,6.813,0.531,9.615-1.458c2.781-2.01,4.427-5.229,4.427-8.656V67.161l42.667,15.063v120.448  c0,158.656-20.229,210.01-170.667,286.708V21.984z"/>
<path style="fill:#303C42;" d="M376.982,149.984l-117.333-42.667c-2.354-0.854-4.938-0.854-7.292,0l-117.333,42.667  c-4.219,1.531-7.021,5.531-7.021,10.021v42.667c0,135.177,11.333,172.917,122.917,233.375c1.583,0.865,3.333,1.292,5.083,1.292  c1.75,0,3.5-0.427,5.083-1.292c111.583-60.458,122.917-98.198,122.917-233.375v-42.667  C384.003,155.516,381.201,151.516,376.982,149.984z"/>
<path style="fill:#546E7A;" d="M362.669,202.672c0,20.099-0.281,37.569-1.039,53.333h-94.961V132.57l96,34.904V202.672z"/>
<path style="fill:#7CB342;" d="M149.336,167.474l96-34.904v123.435h-94.961c-0.758-15.764-1.039-33.234-1.039-53.333V167.474z"/>
<path style="fill:#546E7A;" d="M151.857,277.339h93.479v131.103C178.956,370.34,158.026,341.665,151.857,277.339z"/>
<path style="fill:#7CB342;" d="M266.669,408.441V277.339h93.479C353.979,341.665,333.049,370.34,266.669,408.441z"/>
<path style="opacity:0.1;enable-background:new    ;" d="M159.889,277.339h-8.033c6.169,64.327,27.099,93.001,93.479,131.103  v-42.667C195.742,337.309,171.543,314.081,159.889,277.339z"/>
<path style="opacity:0.1;enable-background:new    ;" d="M266.669,365.775v42.667c66.38-38.102,87.31-66.776,93.479-131.103h-8.033  C340.462,314.081,316.263,337.309,266.669,365.775z"/>
<linearGradient id="SVGID_1_" gradientUnits="userSpaceOnUse" x1="-45.2066" y1="639.8678" x2="-25.9781" y2="630.9016" gradientTransform="matrix(21.3333 0 0 -21.3333 996.2804 13791.7256)">
	<stop offset="0" style="stop-color:#FFFFFF;stop-opacity:0.2"/>
	<stop offset="1" style="stop-color:#FFFFFF;stop-opacity:0"/>
</linearGradient>
<path style="fill:url(#SVGID_1_);" d="M440.888,64.609l-64-22.583c-3.26-1.135-6.896-0.656-9.708,1.354  c-2.833,2-4.51,5.25-4.51,8.708v29.115l-42.667-14.219v-37.49c0-4.521-2.854-8.552-7.115-10.063L259.555,0.609  c-2.292-0.812-4.813-0.812-7.104,0l-53.333,18.823c-4.26,1.51-7.115,5.542-7.115,10.063v37.49l-42.667,14.219V52.089  c0-3.458-1.677-6.708-4.51-8.708c-2.823-2.01-6.458-2.49-9.708-1.354l-64,22.583c-4.26,1.51-7.115,5.542-7.115,10.063v128  c0,165.646,24.563,226.188,187.198,308.188c1.51,0.76,3.156,1.146,4.802,1.146c1.646,0,3.292-0.385,4.802-1.146  c162.635-82,187.198-142.542,187.198-308.188v-128C448.003,70.151,445.148,66.12,440.888,64.609z"/>
<g>
</g>
<g>
</g>
<g>
</g>
<g>
</g>
<g>
</g>
<g>
</g>
<g>
</g>
<g>
</g>
<g>
</g>
<g>
</g>
<g>
</g>
<g>
</g>
<g>
</g>
<g>
</g>
<g>
</g>
</svg>
