<?xml version="1.0" encoding="iso-8859-1"?>
<!-- Generator: Adobe Illustrator 19.0.0, SVG Export Plug-In . SVG Version: 6.00 Build 0)  -->
<svg xmlns="http://www.w3.org/2000/svg" xmlns:xlink="http://www.w3.org/1999/xlink" version="1.1" id="Capa_1" x="0px" y="0px" viewBox="0 0 512 512" style="enable-background:new 0 0 512 512;" xml:space="preserve">
<path style="fill:#303C42;" d="M384,67.646C384,30.354,353.646,0,316.344,0H195.656C158.354,0,128,30.354,128,67.646  c0,5.521,0.677,11.042,2.021,16.417l38.355,153.401c-11.194,4.987-19.043,16.177-19.043,29.203c0,12.771,7.521,23.813,18.354,28.938  c-11.906,22.875-18.354,49.917-18.354,77.729s6.448,54.854,18.354,77.729c-10.833,5.125-18.354,16.167-18.354,28.938  c0,17.646,14.354,32,32,32h149.333c17.646,0,32-14.354,32-32c0-12.771-7.521-23.813-18.354-28.938  c11.906-22.875,18.354-49.917,18.354-77.729s-6.448-54.854-18.354-77.729c10.833-5.125,18.354-16.167,18.354-28.938  c0-13.026-7.848-24.214-19.042-29.202L381.99,84.063C383.323,78.688,384,73.167,384,67.646z"/>
<path style="fill:#6D4C41;" d="M318.563,293.958c14.688,21.854,22.771,50.042,22.771,79.375s-8.083,57.521-22.771,79.375  c-2.198,3.271-2.417,7.5-0.563,10.979c1.854,3.479,5.479,5.646,9.417,5.646h3.25c5.885,0,10.667,4.792,10.667,10.667  s-4.781,10.667-10.667,10.667H181.333c-5.885,0-10.667-4.792-10.667-10.667s4.781-10.667,10.667-10.667h3.25  c3.938,0,7.563-2.167,9.417-5.646c1.854-3.479,1.635-7.708-0.563-10.979c-14.688-21.854-22.771-50.042-22.771-79.375  s8.083-57.521,22.771-79.375c2.198-3.271,2.417-7.5,0.563-10.979c-1.854-3.479-5.479-5.646-9.417-5.646h-3.25  c-5.885,0-10.667-4.792-10.667-10.667S175.448,256,181.333,256h149.333c5.885,0,10.667,4.792,10.667,10.667  s-4.781,10.667-10.667,10.667h-3.25c-3.938,0-7.563,2.167-9.417,5.646C316.146,286.458,316.365,290.688,318.563,293.958z"/>
<path style="opacity:0.2;fill:#FFFFFF;enable-background:new    ;" d="M192,480c0-5.875,3.586-10.667,8-10.667h2.438  c2.953,0,5.672-2.167,7.063-5.646c1.391-3.479,1.227-7.708-0.422-10.979C198.063,430.854,192,402.667,192,373.333  s6.063-57.521,17.078-79.375c1.648-3.271,1.813-7.5,0.422-10.979c-1.391-3.479-4.109-5.646-7.063-5.646H200  c-4.414,0-8-4.792-8-10.667S195.586,256,200,256h-18.667c-5.885,0-10.667,4.792-10.667,10.667s4.781,10.667,10.667,10.667h3.25  c3.938,0,7.563,2.167,9.417,5.646c1.854,3.479,1.635,7.708-0.563,10.979c-14.688,21.854-22.771,50.042-22.771,79.375  s8.083,57.521,22.771,79.375c2.198,3.271,2.417,7.5,0.563,10.979c-1.854,3.479-5.479,5.646-9.417,5.646h-3.25  c-5.885,0-10.667,4.792-10.667,10.667s4.781,10.667,10.667,10.667H200C195.586,490.667,192,485.875,192,480z"/>
<path style="opacity:0.1;enable-background:new    ;" d="M341.333,373.333c0-29.333-8.083-57.521-22.771-79.375  c-2.198-3.271-2.417-7.5-0.563-10.979c1.854-3.479,5.479-5.646,9.417-5.646h3.25c5.885,0,10.667-4.792,10.667-10.667  S336.552,256,330.667,256H312c4.414,0,8,4.792,8,10.667s-3.586,10.667-8,10.667h-2.438c-2.953,0-5.672,2.167-7.063,5.646  c-1.391,3.479-1.227,7.708,0.422,10.979C313.938,315.813,320,344,320,373.333s-6.063,57.521-17.078,79.375  c-1.648,3.271-1.813,7.5-0.422,10.979c1.391,3.479,4.109,5.646,7.063,5.646H312c4.414,0,8,4.792,8,10.667s-3.586,10.667-8,10.667  h18.667c5.885,0,10.667-4.792,10.667-10.667s-4.781-10.667-10.667-10.667h-3.25c-3.938,0-7.563-2.167-9.417-5.646  c-1.854-3.479-1.635-7.708,0.563-10.979C333.25,430.854,341.333,402.667,341.333,373.333z"/>
<path style="fill:#FFE082;" d="M361.292,78.896l-38.948,155.771H189.656L150.719,78.896c-0.917-3.688-1.385-7.458-1.385-11.25  c0-25.542,20.781-46.313,46.323-46.313h120.688c25.542,0,46.323,20.771,46.323,46.313C362.667,71.438,362.198,75.208,361.292,78.896  z"/>
<path style="opacity:0.2;fill:#FFFFFF;enable-background:new    ;" d="M170.667,67.646c0-25.542,16.625-46.313,37.059-46.313  h-12.069c-25.542,0-46.323,20.771-46.323,46.313c0,3.792,0.469,7.563,1.385,11.25l38.938,155.771h13.268l-31.15-155.771  C171.042,75.208,170.667,71.438,170.667,67.646z"/>
<path style="opacity:0.1;enable-background:new    ;" d="M316.344,21.333h-12.069c20.434,0,37.059,20.771,37.059,46.313  c0,3.792-0.375,7.563-1.1,11.25l-31.158,155.771h13.268l38.948-155.771c0.906-3.688,1.375-7.458,1.375-11.25  C362.667,42.104,341.885,21.333,316.344,21.333z"/>
<linearGradient id="SVGID_1_" gradientUnits="userSpaceOnUse" x1="-43.3089" y1="638.4259" x2="-26.4744" y2="630.5781" gradientTransform="matrix(21.3333 0 0 -21.3333 996.3334 13791.667)">
	<stop offset="0" style="stop-color:#FFFFFF;stop-opacity:0.2"/>
	<stop offset="1" style="stop-color:#FFFFFF;stop-opacity:0"/>
</linearGradient>
<path style="fill:url(#SVGID_1_);" d="M384,67.646C384,30.354,353.646,0,316.344,0H195.656C158.354,0,128,30.354,128,67.646  c0,5.521,0.677,11.042,2.021,16.417l38.355,153.401c-11.194,4.987-19.043,16.177-19.043,29.203c0,12.771,7.521,23.813,18.354,28.938  c-11.906,22.875-18.354,49.917-18.354,77.729s6.448,54.854,18.354,77.729c-10.833,5.125-18.354,16.167-18.354,28.938  c0,17.646,14.354,32,32,32h149.333c17.646,0,32-14.354,32-32c0-12.771-7.521-23.813-18.354-28.938  c11.906-22.875,18.354-49.917,18.354-77.729s-6.448-54.854-18.354-77.729c10.833-5.125,18.354-16.167,18.354-28.938  c0-13.026-7.848-24.214-19.042-29.202L381.99,84.063C383.323,78.688,384,73.167,384,67.646z"/>
<g>
</g>
<g>
</g>
<g>
</g>
<g>
</g>
<g>
</g>
<g>
</g>
<g>
</g>
<g>
</g>
<g>
</g>
<g>
</g>
<g>
</g>
<g>
</g>
<g>
</g>
<g>
</g>
<g>
</g>
</svg>
