<?xml version="1.0" encoding="iso-8859-1"?>
<!-- Generator: Adobe Illustrator 19.0.0, SVG Export Plug-In . SVG Version: 6.00 Build 0)  -->
<svg xmlns="http://www.w3.org/2000/svg" xmlns:xlink="http://www.w3.org/1999/xlink" version="1.1" id="Capa_1" x="0px" y="0px" viewBox="0 0 512.006 512.006" style="enable-background:new 0 0 512.006 512.006;" xml:space="preserve">
<path style="fill:#303C42;" d="M506.625,364.076L317.497,256.003L506.625,147.93c3.208-1.833,5.25-5.198,5.375-8.896  c0.125-3.688-1.667-7.188-4.75-9.24l-8.563-5.708c-32.354-21.594-76.229-22.875-109.792-3.292l-152.418,88.911l-28.52-16.297  c-4.125-2.365-9.438-1.667-12.833,1.719c-9.146,9.156-23.354,10.969-34.479,4.458l-49.387-28.802  C121.552,159.422,128,144.507,128,128.003c0-35.292-28.708-64-64-64s-64,28.708-64,64c0,25.165,14.728,46.768,35.9,57.217  l-0.025,0.043l121.26,70.738l-121.26,70.741l0.025,0.043C14.728,337.235,0,358.838,0,384.003c0,35.292,28.708,64,64,64  s64-28.708,64-64c0-16.501-6.445-31.415-16.737-42.777l49.383-28.816c11.146-6.51,25.354-4.688,34.479,4.469  c3.375,3.396,8.688,4.094,12.833,1.719l28.533-16.302l152.405,88.906c15.833,9.25,33.917,14.135,52.271,14.135  c20.542,0,40.438-6.021,57.521-17.417l8.563-5.708c3.083-2.052,4.875-5.552,4.75-9.24  C511.875,369.274,509.833,365.909,506.625,364.076z M64,170.67c-5.857,0-11.44-1.193-16.526-3.339l-0.849-0.495l-0.022,0.036  c-14.855-6.678-25.27-21.548-25.27-38.87c0-23.531,19.146-42.667,42.667-42.667s42.667,19.135,42.667,42.667  S87.521,170.67,64,170.67z M64,426.67c-23.521,0-42.667-19.135-42.667-42.667c0-17.322,10.414-32.191,25.27-38.87l0.022,0.036  l0.848-0.495c5.087-2.146,10.671-3.339,16.527-3.339c23.521,0,42.667,19.135,42.667,42.667S87.521,426.67,64,426.67z"/>
<path style="fill:#78909C;" d="M399.646,139.222c24.604-14.344,56.313-14.688,81.125-1.083L296,243.719l-38.134-21.792  L399.646,139.222z"/>
<path style="opacity:0.2;fill:#FFFFFF;enable-background:new    ;" d="M471.475,133.831L287.583,238.909l8.417,4.81l184.771-105.581  C477.767,136.491,474.656,135.069,471.475,133.831z"/>
<g>
	<path style="fill:#78909C;" d="M203.813,296.388c-15.708-11.156-36.833-12.406-53.917-2.396L92.921,327.23   c-2.917-1.493-5.94-2.729-9.095-3.766l94.47-55.118l36.915,21.535L203.813,296.388z"/>
	<path style="fill:#78909C;" d="M399.646,372.784L83.828,188.54c3.148-1.036,6.169-2.268,9.082-3.759l56.986,33.233   c17.083,9.979,38.208,8.74,53.917-2.396l276.958,158.25C455.958,387.461,424.25,387.107,399.646,372.784z"/>
</g>
<path style="opacity:0.2;fill:#FFFFFF;enable-background:new    ;" d="M467.422,379.477c4.59-1.51,9.094-3.279,13.349-5.609  l-276.958-158.25c-3.794,2.689-7.926,4.738-12.219,6.255L467.422,379.477z"/>
<circle style="fill:#303C42;" cx="234.67" cy="256.003" r="10.667"/>
<linearGradient id="SVGID_1_" gradientUnits="userSpaceOnUse" x1="-39.2703" y1="633.7451" x2="-37.5184" y2="631.9932" gradientTransform="matrix(21.3333 0 0 -21.3333 996.271 13791.7354)">
	<stop offset="0" style="stop-color:#000000;stop-opacity:0.1"/>
	<stop offset="1" style="stop-color:#000000;stop-opacity:0"/>
</linearGradient>
<path style="fill:url(#SVGID_1_);" d="M139.171,291.174l5.732,5.732l4.993-2.913c17.083-10.01,38.208-8.76,53.917,2.396  l11.398-6.508l-36.915-21.535L139.171,291.174z"/>
<linearGradient id="SVGID_2_" gradientUnits="userSpaceOnUse" x1="-47.4853" y1="639.4682" x2="-23.069" y2="628.0851" gradientTransform="matrix(21.3333 0 0 -21.3333 996.271 13791.7354)">
	<stop offset="0" style="stop-color:#FFFFFF;stop-opacity:0.2"/>
	<stop offset="1" style="stop-color:#FFFFFF;stop-opacity:0"/>
</linearGradient>
<path style="fill:url(#SVGID_2_);" d="M506.625,364.076L317.497,256.003L506.625,147.93c3.208-1.833,5.25-5.198,5.375-8.896  c0.125-3.688-1.667-7.188-4.75-9.24l-8.563-5.708c-32.354-21.594-76.229-22.875-109.792-3.292l-152.418,88.911l-28.52-16.297  c-4.125-2.365-9.438-1.667-12.833,1.719c-9.146,9.156-23.354,10.969-34.479,4.458l-49.387-28.802  C121.552,159.422,128,144.507,128,128.003c0-35.292-28.708-64-64-64s-64,28.708-64,64c0,25.165,14.728,46.768,35.9,57.217  l-0.025,0.043l121.26,70.738l-121.26,70.741l0.025,0.043C14.728,337.235,0,358.838,0,384.003c0,35.292,28.708,64,64,64  s64-28.708,64-64c0-16.501-6.445-31.415-16.737-42.777l49.383-28.816c11.146-6.51,25.354-4.688,34.479,4.469  c3.375,3.396,8.688,4.094,12.833,1.719l28.533-16.302l152.405,88.906c15.833,9.25,33.917,14.135,52.271,14.135  c20.542,0,40.438-6.021,57.521-17.417l8.563-5.708c3.083-2.052,4.875-5.552,4.75-9.24  C511.875,369.274,509.833,365.909,506.625,364.076z M64,170.67c-5.857,0-11.44-1.193-16.526-3.339l-0.849-0.495l-0.022,0.036  c-14.855-6.678-25.27-21.548-25.27-38.87c0-23.531,19.146-42.667,42.667-42.667s42.667,19.135,42.667,42.667  S87.521,170.67,64,170.67z M64,426.67c-23.521,0-42.667-19.135-42.667-42.667c0-17.322,10.414-32.191,25.27-38.87l0.022,0.036  l0.848-0.495c5.087-2.146,10.671-3.339,16.527-3.339c23.521,0,42.667,19.135,42.667,42.667S87.521,426.67,64,426.67z"/>
<g>
</g>
<g>
</g>
<g>
</g>
<g>
</g>
<g>
</g>
<g>
</g>
<g>
</g>
<g>
</g>
<g>
</g>
<g>
</g>
<g>
</g>
<g>
</g>
<g>
</g>
<g>
</g>
<g>
</g>
</svg>
