<?xml version="1.0" encoding="iso-8859-1"?>
<!-- Generator: Adobe Illustrator 19.0.0, SVG Export Plug-In . SVG Version: 6.00 Build 0)  -->
<svg xmlns="http://www.w3.org/2000/svg" xmlns:xlink="http://www.w3.org/1999/xlink" version="1.1" id="Capa_1" x="0px" y="0px" viewBox="0 0 512.001 512.001" style="enable-background:new 0 0 512.001 512.001;" xml:space="preserve">
<path style="fill:#303C42;" d="M488.676,31.855c-17.9-19.823-42.431-31.125-69.082-31.823c-26.684-0.677-51.737,9.281-70.587,28.083  l-75.609,75.427c-2.036,2.021-3.165,4.781-3.134,7.646c0.033,2.865,1.212,5.594,3.28,7.583l18.484,17.74  c15.957,15.302,41.669,15.052,57.335-0.563l11.1-11.073c0.846-0.844,1.651-1.719,2.402-2.615l-4.992,38.479  c-3.049,23.354,5.086,47.24,21.785,63.885l1.911,1.904L128.268,448.605c0.003-0.206,0.061-0.397,0.061-0.604  c0-35.292-28.783-64-64.164-64c-3.872,0-7.622,0.48-11.307,1.139L255.059,58.949c3.102-5.021,1.556-11.594-3.467-14.688  c-5.034-3.094-11.613-1.552-14.725,3.458c0,0-228.03,368.32-228.246,368.841c-5.329,9.326-8.62,19.958-8.62,31.44  c0,35.292,28.781,64,64.164,64c16.025,0,30.715-5.871,41.971-15.594l291.102-255.214c1.495,0.742,3.074,1.234,4.707,1.234  c2.736,0,5.473-1.042,7.561-3.125l72.194-72C519.192,129.897,522.325,69.137,488.676,31.855z M64.001,490.668  c-23.531,0-42.667-19.135-42.667-42.667s19.135-42.667,42.667-42.667s42.667,19.135,42.667,42.667S87.532,490.668,64.001,490.668z   M373.334,106.668c-1.188,0-2.333,0.198-3.406,0.563c2.865-10.094,1.781-21.083-3.25-30.5c13.24-7.656,30.5-5.813,41.781,5.479  l24.458,24.458H373.334z"/>
<path style="fill:#AEBCC4;" d="M465.386,152.22l-64.469,64.458l-7.146-7.135c-12-12-17.854-29.219-15.667-46.042l4.604-35.5h75.958  c4.313,0,8.208-2.594,9.854-6.583c1.656-3.99,0.74-8.573-2.313-11.625l-42.667-42.667c-21.813-21.813-57.271-21.813-79.083,0  c-4.167,4.167-4.167,10.917,0,15.083c7.604,7.604,7.604,19.979,0,27.583l-11.073,11.073c-7.469,7.479-19.698,7.583-27.313,0.271  l-10.604-10.198l67.729-67.74c14.625-14.625,34.302-22.656,54.76-21.833c20.677,0.542,39.719,9.333,53.615,24.76  C497.667,75.116,494.886,122.709,465.386,152.22z"/>
<g>
	<path style="opacity:0.2;fill:#FFFFFF;enable-background:new    ;" d="M345.376,83.591c-0.363-0.434-0.509-0.974-0.917-1.382   c-4.167-4.167-4.167-10.917,0-15.083c9.466-9.466,21.525-14.57,33.901-15.82c14.163-12.424,32.098-19.414,50.882-18.659   c16.516,0.432,31.854,6.331,44.493,16.469c-0.776-0.965-1.326-2.061-2.161-2.99c-13.896-15.427-32.938-24.219-53.615-24.76   c-20.458-0.823-40.135,7.208-54.76,21.833l-67.729,67.74l10.604,10.198c0.319,0.306,0.742,0.405,1.077,0.685L345.376,83.591z"/>
	<path style="opacity:0.2;fill:#FFFFFF;enable-background:new    ;" d="M389.387,174.782l4.604-35.5h75.958   c3.719,0,6.849-2.176,8.772-5.264c0.388-0.695,0.792-1.382,1.158-2.086c1.255-3.802,0.474-7.996-2.388-10.858l-42.667-42.667   l-0.007-0.005l31.391,31.391c3.052,3.052,3.969,7.635,2.313,11.625c-1.646,3.99-5.542,6.583-9.854,6.583h-75.958l-4.604,35.5   c-2.188,16.823,3.667,34.042,15.667,46.042l7.146,7.135l0.48-0.48C392.093,204.591,387.455,189.638,389.387,174.782z"/>
</g>
<linearGradient id="SVGID_1_" gradientUnits="userSpaceOnUse" x1="-41.4538" y1="637.3762" x2="-27.4374" y2="630.8409" gradientTransform="matrix(21.3333 0 0 -21.3333 996.3217 13791.6797)">
	<stop offset="0" style="stop-color:#FFFFFF;stop-opacity:0.2"/>
	<stop offset="1" style="stop-color:#FFFFFF;stop-opacity:0"/>
</linearGradient>
<path style="fill:url(#SVGID_1_);" d="M488.676,31.855c-17.9-19.823-42.431-31.125-69.082-31.823  c-26.684-0.677-51.737,9.281-70.587,28.083l-75.609,75.427c-2.036,2.021-3.165,4.781-3.134,7.646  c0.033,2.865,1.212,5.594,3.28,7.583l18.484,17.74c15.957,15.302,41.669,15.052,57.335-0.563l11.1-11.073  c0.846-0.844,1.651-1.719,2.402-2.615l-4.992,38.479c-3.049,23.354,5.086,47.24,21.785,63.885l1.911,1.904L128.268,448.605  c0.003-0.206,0.061-0.397,0.061-0.604c0-35.292-28.783-64-64.164-64c-3.872,0-7.622,0.48-11.307,1.139L255.059,58.949  c3.102-5.021,1.556-11.594-3.467-14.688c-5.034-3.094-11.613-1.552-14.725,3.458c0,0-228.03,368.32-228.246,368.841  c-5.329,9.326-8.62,19.958-8.62,31.44c0,35.292,28.781,64,64.164,64c16.025,0,30.715-5.871,41.971-15.594l291.102-255.214  c1.495,0.742,3.074,1.234,4.707,1.234c2.736,0,5.473-1.042,7.561-3.125l72.194-72C519.192,129.897,522.325,69.137,488.676,31.855z   M64.001,490.668c-23.531,0-42.667-19.135-42.667-42.667s19.135-42.667,42.667-42.667s42.667,19.135,42.667,42.667  S87.532,490.668,64.001,490.668z M373.334,106.668c-1.188,0-2.333,0.198-3.406,0.563c2.865-10.094,1.781-21.083-3.25-30.5  c13.24-7.656,30.5-5.813,41.781,5.479l24.458,24.458H373.334z"/>
<g>
</g>
<g>
</g>
<g>
</g>
<g>
</g>
<g>
</g>
<g>
</g>
<g>
</g>
<g>
</g>
<g>
</g>
<g>
</g>
<g>
</g>
<g>
</g>
<g>
</g>
<g>
</g>
<g>
</g>
</svg>
