<?xml version="1.0" encoding="iso-8859-1"?>
<!-- Generator: Adobe Illustrator 19.0.0, SVG Export Plug-In . SVG Version: 6.00 Build 0)  -->
<svg xmlns="http://www.w3.org/2000/svg" xmlns:xlink="http://www.w3.org/1999/xlink" version="1.1" id="Capa_1" x="0px" y="0px" viewBox="0 0 512 512" style="enable-background:new 0 0 512 512;" xml:space="preserve">
<path style="fill:#303C42;" d="M488.71,31.851c-17.862-19.823-42.331-31.125-68.924-31.823  c-26.366-0.604-51.605,9.281-70.427,28.083l-75.47,75.427c-2.021,2.021-3.147,4.781-3.126,7.646c0.009,1.339,0.323,2.632,0.814,3.85  L15.59,406.133C5.866,417.359,0,432.015,0,447.997c0,35.292,28.72,64,64.027,64c15.988,0,30.641-5.874,41.872-15.594l290.964-255.62  c1.66,0.973,3.444,1.641,5.31,1.641c2.73,0,5.461-1.042,7.544-3.125l72.031-72C519.181,129.904,522.307,69.143,488.71,31.851z   M64,490.664c-23.521,0-42.667-19.135-42.667-42.667S40.479,405.331,64,405.331s42.667,19.135,42.667,42.667  S87.521,490.664,64,490.664z M127.94,448.594c0.001-0.203,0.06-0.392,0.06-0.596c0-35.292-28.708-64-64-64  c-0.202,0-0.389,0.059-0.591,0.06l222.793-253.462l6.152,5.923c15.896,15.26,41.542,15.042,57.188-0.573l11.083-11.073  c0.833-0.833,1.646-1.708,2.396-2.604l-4.979,38.458c-3.042,23.344,5.083,47.229,21.729,63.896l1.404,1.402L127.94,448.594z   M374.417,106.664c-1.167,0-2.313,0.188-3.375,0.542c1.021-3.594,1.542-7.365,1.542-11.208c0-6.844-1.667-13.427-4.813-19.292  c12.979-7.552,30.875-5.396,41.771,5.5L434,106.664H374.417z"/>
<path style="fill:#AEBCC4;" d="M466.458,152.216L402,216.674l-7.146-7.135c-12-12.01-17.854-29.229-15.646-46.042l4.583-35.5h75.958  c4.313,0,8.208-2.594,9.854-6.583c1.646-3.99,0.729-8.573-2.313-11.625l-42.667-42.667c-21.125-21.125-57.958-21.125-79.083,0  c-2,2-3.125,4.719-3.125,7.542c0,2.833,1.125,5.542,3.125,7.542c3.688,3.688,5.708,8.583,5.708,13.792s-2.021,10.104-5.708,13.792  l-11.083,11.073c-7.479,7.479-19.729,7.563-27.313,0.271l-10.604-10.198l67.75-67.74c14.625-14.615,34.417-22.448,54.75-21.833  c20.667,0.531,39.708,9.333,53.604,24.76C498.75,75.112,495.979,122.706,466.458,152.216z"/>
<g>
	<path style="opacity:0.2;fill:#FFFFFF;enable-background:new    ;" d="M346.02,82.919c-0.197-0.215-0.27-0.505-0.478-0.714   c-2-2-3.125-4.708-3.125-7.542c0-2.823,1.125-5.542,3.125-7.542c8.686-8.686,20.048-13.598,31.861-15.141   c14.371-13.23,33.055-20.475,52.367-19.892c16.714,0.43,32.208,6.5,44.934,16.879c-0.742-0.917-1.262-1.962-2.057-2.846   c-13.896-15.427-32.938-24.229-53.604-24.76c-20.333-0.615-40.125,7.219-54.75,21.833l-67.75,67.74l10.604,10.198   c0.118,0.113,0.28,0.145,0.4,0.254L346.02,82.919z"/>
	<path style="opacity:0.2;fill:#FFFFFF;enable-background:new    ;" d="M389.936,174.225l4.583-35.5h75.958   c4.313,0,8.208-2.594,9.854-6.583c1.646-3.99,0.729-8.573-2.313-11.625l-10.728-10.728c3.042,3.052,3.958,7.635,2.313,11.625   c-1.646,3.99-5.542,6.583-9.854,6.583h-75.958l-4.583,35.5c-2.208,16.812,3.646,34.031,15.646,46.042l7.146,7.135l0.415-0.415   C392.767,204.568,387.952,189.336,389.936,174.225z"/>
</g>
<linearGradient id="SVGID_1_" gradientUnits="userSpaceOnUse" x1="-41.4659" y1="637.3817" x2="-27.4384" y2="630.8399" gradientTransform="matrix(21.3333 0 0 -21.3333 996.3375 13791.6621)">
	<stop offset="0" style="stop-color:#FFFFFF;stop-opacity:0.2"/>
	<stop offset="1" style="stop-color:#FFFFFF;stop-opacity:0"/>
</linearGradient>
<path style="fill:url(#SVGID_1_);" d="M488.71,31.851c-17.862-19.823-42.331-31.125-68.924-31.823  c-26.366-0.604-51.605,9.281-70.427,28.083l-75.47,75.427c-2.021,2.021-3.147,4.781-3.126,7.646c0.009,1.339,0.323,2.632,0.814,3.85  L15.59,406.133C5.866,417.359,0,432.015,0,447.997c0,35.292,28.72,64,64.027,64c15.988,0,30.641-5.874,41.872-15.594l290.964-255.62  c1.66,0.973,3.444,1.641,5.31,1.641c2.73,0,5.461-1.042,7.544-3.125l72.031-72C519.181,129.904,522.307,69.143,488.71,31.851z   M64,490.664c-23.521,0-42.667-19.135-42.667-42.667S40.479,405.331,64,405.331s42.667,19.135,42.667,42.667  S87.521,490.664,64,490.664z M127.94,448.594c0.001-0.203,0.06-0.392,0.06-0.596c0-35.292-28.708-64-64-64  c-0.202,0-0.389,0.059-0.591,0.06l222.793-253.462l6.152,5.923c15.896,15.26,41.542,15.042,57.188-0.573l11.083-11.073  c0.833-0.833,1.646-1.708,2.396-2.604l-4.979,38.458c-3.042,23.344,5.083,47.229,21.729,63.896l1.404,1.402L127.94,448.594z   M374.417,106.664c-1.167,0-2.313,0.188-3.375,0.542c1.021-3.594,1.542-7.365,1.542-11.208c0-6.844-1.667-13.427-4.813-19.292  c12.979-7.552,30.875-5.396,41.771,5.5L434,106.664H374.417z"/>
<g>
</g>
<g>
</g>
<g>
</g>
<g>
</g>
<g>
</g>
<g>
</g>
<g>
</g>
<g>
</g>
<g>
</g>
<g>
</g>
<g>
</g>
<g>
</g>
<g>
</g>
<g>
</g>
<g>
</g>
</svg>
