<?xml version="1.0" encoding="iso-8859-1"?>
<!-- Generator: Adobe Illustrator 19.0.0, SVG Export Plug-In . SVG Version: 6.00 Build 0)  -->
<svg xmlns="http://www.w3.org/2000/svg" xmlns:xlink="http://www.w3.org/1999/xlink" version="1.1" id="Capa_1" x="0px" y="0px" viewBox="0 0 512 512" style="enable-background:new 0 0 512 512;" xml:space="preserve">
<path style="fill:#303C42;" d="M426.667,85.333c-46.142,0-89.975,45.329-119.85,85.438c-7.1,0.572-13.716,3.618-18.941,8.371  c-3.198-2.909-6.805-5.402-11.104-6.84c-11.366-3.775-23.289-0.684-31.566,6.836c-3.198-2.908-6.803-5.398-11.1-6.836  c-8.913-2.96-18.158-1.677-25.753,2.6c-31.199-42.99-75.878-89.569-123.018-89.569C23.167,85.333,0,176.927,0,234.667  S23.167,384,85.333,384c40.608,0,79.432-35.163,108.525-70.902c8.401,57.816,44.717,113.569,94.142,113.569  c17.646,0,32-14.354,32-32c0-17.635-14.333-31.99-31.75-31.99h-0.021c-6.436-1.089-28.671-27.039-31.642-66.243  c3.781-1.432,7.098-3.66,10.065-6.37c3.223,2.967,6.871,5.503,11.223,6.957c3.292,1.104,6.688,1.656,10.125,1.656  c5.645,0,10.846-1.779,15.527-4.415C334.695,337.259,379.419,384,426.667,384C488.833,384,512,292.406,512,234.667  S488.833,85.333,426.667,85.333z M87.146,319.885C80.563,313.75,64,281.677,64,234.667s16.563-79.083,23.146-85.219  c20.292,2.49,59.146,45,84.5,85.219C146.292,274.885,107.438,317.396,87.146,319.885z M424.854,319.885  c-20.292-2.49-59.146-45-84.5-85.219c25.354-40.219,64.208-82.729,84.5-85.219c6.583,6.135,23.146,38.208,23.146,85.219  S431.438,313.75,424.854,319.885z"/>
<g>
	<path style="fill:#7C5E54;" d="M85.333,362.667c-43.667,0-64-76.375-64-128s20.333-128,64-128   c30.931,0,70.324,31.059,108.676,85.069c-0.103,0.281-0.268,0.521-0.363,0.806l-8.13,24.389   C163.637,184.134,119.148,128,85.333,128c-21.125,0-42.667,53.833-42.667,106.667s21.542,106.667,42.667,106.667   c27.608,0,62.277-37.395,86.004-68.983c1.432,7.798,5.689,14.835,12.086,19.699C159.935,322.346,121.857,362.667,85.333,362.667z"/>
	<path style="fill:#7C5E54;" d="M288,384c5.875,0,10.667,4.781,10.667,10.667c0,5.885-4.792,10.667-10.667,10.667   c-39.849,0-71.186-56.655-74.353-108.76c3.895-1.432,7.296-3.73,10.339-6.509c3.223,2.967,6.871,5.503,11.223,6.957   c0.033,0.01,0.066,0.005,0.099,0.016C238.565,343.995,265.918,384,288,384z"/>
	<path style="fill:#7C5E54;" d="M426.667,362.667c-30.957,0-70.363-31.073-108.707-85.116c0.1-0.273,0.302-0.482,0.395-0.759   l8.13-24.389c21.879,32.797,66.367,88.931,100.182,88.931c21.125,0,42.667-53.833,42.667-106.667S447.792,128,426.667,128   c-27.608,0-62.277,37.395-86.004,68.983c-1.432-7.79-5.682-14.822-12.074-19.689c23.505-30.342,61.57-70.628,98.078-70.628   c43.667,0,64,76.375,64,128S470.333,362.667,426.667,362.667z"/>
</g>
<path style="opacity:0.1;enable-background:new    ;" d="M85.333,352c-42.203,0-62.551-71.279-63.871-122.667  c-0.046,1.783-0.129,3.603-0.129,5.333c0,51.625,20.333,128,64,128c36.523,0,74.602-40.32,98.09-70.617  c-1.839-1.398-3.076-3.306-4.544-5.03C155.208,316.458,119.664,352,85.333,352z"/>
<path style="opacity:0.1;enable-background:new    ;" d="M426.667,352c-30.27,0-68.613-29.868-106.146-81.708l-2.167,6.5  c-0.092,0.277-0.294,0.486-0.395,0.759c38.344,54.043,77.75,85.116,108.707,85.116c43.667,0,64-76.375,64-128  c0-1.73-0.083-3.551-0.129-5.333C489.217,280.721,468.87,352,426.667,352z"/>
<g>
	<path style="fill:#7C5E54;" d="M288,277.333c-1.125,0-2.25-0.177-3.375-0.552c-5.583-1.854-8.604-7.896-6.75-13.49l21.333-64   c1.896-5.583,7.938-8.583,13.5-6.74c5.583,1.854,8.604,7.896,6.75,13.49l-21.333,64C296.625,274.51,292.458,277.333,288,277.333z"/>
	<path style="fill:#7C5E54;" d="M245.338,277.333c-1.125,0-2.25-0.177-3.375-0.552c-5.583-1.854-8.604-7.896-6.75-13.49l21.333-64   c1.896-5.583,7.938-8.583,13.5-6.74c5.583,1.854,8.604,7.896,6.75,13.49l-21.333,64   C253.963,274.51,249.796,277.333,245.338,277.333z"/>
	<path style="fill:#7C5E54;" d="M202.675,277.333c-1.125,0-2.25-0.177-3.375-0.552c-5.583-1.854-8.604-7.896-6.75-13.49l21.333-64   c1.896-5.583,7.938-8.583,13.5-6.74c5.583,1.854,8.604,7.896,6.75,13.49l-21.333,64C211.3,274.51,207.134,277.333,202.675,277.333z   "/>
	<path style="fill:#7C5E54;" d="M287.996,277.333c-1.125,0-2.25-0.177-3.375-0.552c-5.583-1.854-8.604-7.896-6.75-13.49l21.333-64   c1.896-5.583,7.938-8.583,13.5-6.74c5.583,1.854,8.604,7.896,6.75,13.49l-21.333,64   C296.621,274.51,292.454,277.333,287.996,277.333z"/>
</g>
<path id="SVGCleanerId_0" style="fill:#7C5E54;" d="M245.333,277.333c-1.125,0-2.25-0.177-3.375-0.552  c-5.583-1.854-8.604-7.896-6.75-13.49l21.333-64c1.896-5.583,7.938-8.583,13.5-6.74c5.583,1.854,8.604,7.896,6.75,13.49l-21.333,64  C253.958,274.51,249.792,277.333,245.333,277.333z"/>
<path id="SVGCleanerId_1" style="fill:#7C5E54;" d="M202.671,277.333c-1.125,0-2.25-0.177-3.375-0.552  c-5.583-1.854-8.604-7.896-6.75-13.49l21.333-64c1.896-5.583,7.938-8.583,13.5-6.74c5.583,1.854,8.604,7.896,6.75,13.49l-21.333,64  C211.296,274.51,207.129,277.333,202.671,277.333z"/>
<g>
	<path id="SVGCleanerId_0_1_" style="fill:#7C5E54;" d="M245.333,277.333c-1.125,0-2.25-0.177-3.375-0.552   c-5.583-1.854-8.604-7.896-6.75-13.49l21.333-64c1.896-5.583,7.938-8.583,13.5-6.74c5.583,1.854,8.604,7.896,6.75,13.49l-21.333,64   C253.958,274.51,249.792,277.333,245.333,277.333z"/>
</g>
<g>
	<path id="SVGCleanerId_1_1_" style="fill:#7C5E54;" d="M202.671,277.333c-1.125,0-2.25-0.177-3.375-0.552   c-5.583-1.854-8.604-7.896-6.75-13.49l21.333-64c1.896-5.583,7.938-8.583,13.5-6.74c5.583,1.854,8.604,7.896,6.75,13.49l-21.333,64   C211.296,274.51,207.129,277.333,202.671,277.333z"/>
</g>
<path style="opacity:0.1;enable-background:new    ;" d="M284.621,276.79c5.563,1.844,11.604-1.156,13.5-6.74l1.964-5.892  c-1.953,5.487-7.91,8.435-13.423,6.608c-5.583-1.854-8.604-7.896-6.75-13.49l-2.04,6.023  C276.017,268.894,279.037,274.936,284.621,276.79z"/>
<path style="opacity:0.1;enable-background:new    ;" d="M241.958,276.79c5.563,1.844,11.604-1.156,13.5-6.74l1.964-5.892  c-1.953,5.487-7.91,8.435-13.423,6.608c-5.583-1.854-8.604-7.896-6.75-13.49l-2.04,6.023  C233.354,268.894,236.375,274.936,241.958,276.79z"/>
<path style="opacity:0.1;enable-background:new    ;" d="M199.296,276.79c5.563,1.844,11.604-1.156,13.5-6.74l1.964-5.892  c-1.953,5.487-7.91,8.435-13.423,6.608c-5.583-1.854-8.604-7.896-6.75-13.49l-2.04,6.023  C190.691,268.894,193.712,274.936,199.296,276.79z"/>
<linearGradient id="SVGID_1_" gradientUnits="userSpaceOnUse" x1="-36.7218" y1="632.5492" x2="-32.328" y2="628.1554" gradientTransform="matrix(21.3333 0 0 -21.3333 996.3334 13791.667)">
	<stop offset="0" style="stop-color:#000000;stop-opacity:0.1"/>
	<stop offset="1" style="stop-color:#000000;stop-opacity:0"/>
</linearGradient>
<path style="fill:url(#SVGID_1_);" d="M298.667,394.667c0-5.885-4.792-10.667-10.667-10.667c-22.082,0-49.435-40.005-52.693-86.964  c-0.033-0.01-0.066-0.005-0.099-0.016c-4.352-1.454-8-3.99-11.223-6.957c-3.043,2.779-6.444,5.077-10.339,6.509  c0.576,9.462,2.104,19.068,4.419,28.462l77.292,77.292C297.38,400.384,298.667,397.686,298.667,394.667z"/>
<linearGradient id="SVGID_2_" gradientUnits="userSpaceOnUse" x1="-45.5436" y1="640.5416" x2="-23.8626" y2="630.4271" gradientTransform="matrix(21.3333 0 0 -21.3333 996.3334 13791.667)">
	<stop offset="0" style="stop-color:#FFFFFF;stop-opacity:0.2"/>
	<stop offset="1" style="stop-color:#FFFFFF;stop-opacity:0"/>
</linearGradient>
<path style="fill:url(#SVGID_2_);" d="M426.667,85.333c-46.142,0-89.975,45.329-119.85,85.438c-7.1,0.572-13.716,3.618-18.941,8.371  c-3.198-2.909-6.805-5.402-11.104-6.84c-11.366-3.775-23.289-0.684-31.566,6.836c-3.198-2.908-6.803-5.398-11.1-6.836  c-8.913-2.96-18.158-1.677-25.753,2.6c-31.199-42.99-75.878-89.569-123.018-89.569C23.167,85.333,0,176.927,0,234.667  S23.167,384,85.333,384c40.608,0,79.432-35.163,108.525-70.902c8.401,57.816,44.717,113.569,94.142,113.569  c17.646,0,32-14.354,32-32c0-17.635-14.333-31.99-31.75-31.99h-0.021c-6.436-1.089-28.671-27.039-31.642-66.243  c3.781-1.432,7.098-3.66,10.065-6.37c3.223,2.967,6.871,5.503,11.223,6.957c3.292,1.104,6.688,1.656,10.125,1.656  c5.645,0,10.846-1.779,15.527-4.415C334.695,337.259,379.419,384,426.667,384C488.833,384,512,292.406,512,234.667  S488.833,85.333,426.667,85.333z M87.146,319.885C80.563,313.75,64,281.677,64,234.667s16.563-79.083,23.146-85.219  c20.292,2.49,59.146,45,84.5,85.219C146.292,274.885,107.438,317.396,87.146,319.885z M424.854,319.885  c-20.292-2.49-59.146-45-84.5-85.219c25.354-40.219,64.208-82.729,84.5-85.219c6.583,6.135,23.146,38.208,23.146,85.219  S431.438,313.75,424.854,319.885z"/>
<g>
</g>
<g>
</g>
<g>
</g>
<g>
</g>
<g>
</g>
<g>
</g>
<g>
</g>
<g>
</g>
<g>
</g>
<g>
</g>
<g>
</g>
<g>
</g>
<g>
</g>
<g>
</g>
<g>
</g>
</svg>
