<?xml version="1.0" encoding="iso-8859-1"?>
<!-- Generator: Adobe Illustrator 19.0.0, SVG Export Plug-In . SVG Version: 6.00 Build 0)  -->
<svg xmlns="http://www.w3.org/2000/svg" xmlns:xlink="http://www.w3.org/1999/xlink" version="1.1" id="Capa_1" x="0px" y="0px" viewBox="0 0 512 512" style="enable-background:new 0 0 512 512;" xml:space="preserve">
<path style="fill:#303C42;" d="M341.333,0H170.667c-35.292,0-64,28.708-64,64v298.667C106.667,445.01,173.656,512,256,512  s149.333-66.99,149.333-149.333V64C405.333,28.708,376.625,0,341.333,0z"/>
<path style="fill:#E6E6E6;" d="M384,362.667c0,70.583-57.417,128-128,128s-128-57.417-128-128V64  c0-23.531,19.135-42.667,42.667-42.667h170.667C364.865,21.333,384,40.469,384,64V362.667z"/>
<path style="opacity:0.2;fill:#FFFFFF;enable-background:new    ;" d="M160,362.667V64c0-23.531,14.352-42.667,32-42.667h-21.333  C147.135,21.333,128,40.469,128,64v298.667c0,70.583,57.417,128,128,128C203.063,490.667,160,433.25,160,362.667z"/>
<path style="opacity:0.1;enable-background:new    ;" d="M341.333,21.333H320c17.648,0,32,19.135,32,42.667v298.667  c0,70.583-43.063,128-96,128c70.583,0,128-57.417,128-128V64C384,40.469,364.865,21.333,341.333,21.333z"/>
<circle style="fill:#303C42;" cx="256" cy="362.667" r="85.333"/>
<g>
	<path style="fill:#546E7A;" d="M292.971,310.612l-15.432,15.432C271.194,322.298,263.889,320,256,320   c-7.889,0-15.194,2.298-21.539,6.044l-15.432-15.432c10.464-7.456,23.172-11.945,36.971-11.945   C269.799,298.667,282.508,303.156,292.971,310.612z"/>
	<circle style="fill:#546E7A;" cx="256" cy="362.667" r="21.333"/>
	<path style="fill:#546E7A;" d="M203.945,325.695l15.432,15.432c-3.746,6.345-6.044,13.65-6.044,21.539   c0,7.889,2.298,15.194,6.044,21.539l-15.432,15.432C196.49,389.174,192,376.466,192,362.667   C192,348.867,196.49,336.159,203.945,325.695z"/>
	<path style="fill:#546E7A;" d="M219.029,414.721l15.432-15.432c6.345,3.746,13.65,6.044,21.539,6.044   c7.889,0,15.194-2.298,21.539-6.044l15.432,15.432c-10.464,7.456-23.172,11.945-36.971,11.945   C242.201,426.667,229.492,422.177,219.029,414.721z"/>
	<path style="fill:#546E7A;" d="M308.055,399.638l-15.432-15.432c3.746-6.345,6.044-13.65,6.044-21.539   c0-7.889-2.298-15.194-6.044-21.539l15.432-15.432C315.51,336.159,320,348.867,320,362.667   C320,376.466,315.51,389.174,308.055,399.638z"/>
</g>
<g>
	<circle style="fill:#303C42;" cx="192" cy="85.333" r="21.333"/>
	<circle style="fill:#303C42;" cx="192" cy="149.333" r="21.333"/>
	<circle style="fill:#303C42;" cx="192" cy="213.333" r="21.333"/>
	<circle style="fill:#303C42;" cx="256" cy="149.333" r="21.333"/>
	<circle style="fill:#303C42;" cx="256" cy="213.333" r="21.333"/>
	<circle style="fill:#303C42;" cx="320" cy="85.333" r="21.333"/>
	<circle style="fill:#303C42;" cx="320" cy="149.333" r="21.333"/>
	<circle style="fill:#303C42;" cx="320" cy="213.333" r="21.333"/>
</g>
<linearGradient id="SVGID_1_" gradientUnits="userSpaceOnUse" x1="-34.6467" y1="629.4379" x2="-30.4617" y2="625.2539" gradientTransform="matrix(21.3333 0 0 -21.3333 996.3334 13791.667)">
	<stop offset="0" style="stop-color:#000000;stop-opacity:0.1"/>
	<stop offset="1" style="stop-color:#000000;stop-opacity:0"/>
</linearGradient>
<path style="fill:url(#SVGID_1_);" d="M321.78,307.887l-0.276,0.257c12.333,14.801,20.057,33.57,20.057,54.296  c0,47.052-38.281,85.333-85.333,85.333c-22.961,0-43.743-9.217-59.098-24.021l-0.083,0.078l66.251,66.251  c64.785-3.565,116.763-55.4,120.549-120.126L321.78,307.887z"/>
<linearGradient id="SVGID_2_" gradientUnits="userSpaceOnUse" x1="-43.8766" y1="639.4882" x2="-26.1661" y2="631.2294" gradientTransform="matrix(21.3333 0 0 -21.3333 996.3334 13791.667)">
	<stop offset="0" style="stop-color:#FFFFFF;stop-opacity:0.2"/>
	<stop offset="1" style="stop-color:#FFFFFF;stop-opacity:0"/>
</linearGradient>
<path style="fill:url(#SVGID_2_);" d="M341.333,0H170.667c-35.292,0-64,28.708-64,64v298.667C106.667,445.01,173.656,512,256,512  s149.333-66.99,149.333-149.333V64C405.333,28.708,376.625,0,341.333,0z"/>
<g>
</g>
<g>
</g>
<g>
</g>
<g>
</g>
<g>
</g>
<g>
</g>
<g>
</g>
<g>
</g>
<g>
</g>
<g>
</g>
<g>
</g>
<g>
</g>
<g>
</g>
<g>
</g>
<g>
</g>
</svg>
