<?xml version="1.0" encoding="iso-8859-1"?>
<!-- Generator: Adobe Illustrator 19.0.0, SVG Export Plug-In . SVG Version: 6.00 Build 0)  -->
<svg xmlns="http://www.w3.org/2000/svg" xmlns:xlink="http://www.w3.org/1999/xlink" version="1.1" id="Capa_1" x="0px" y="0px" viewBox="0 0 512 512" style="enable-background:new 0 0 512 512;" xml:space="preserve">
<path style="fill:#303C42;" d="M489.54,48.563l-7.521-15.042C471.675,12.854,450.904,0,427.79,0c-9.344,0-18.719,2.208-27.115,6.396  L156.839,128.319c-26.254,1.572-47.253,22.073-49.677,48.1l-9.872,9.872c-17.438,17.438-40.625,27.042-65.292,27.042  c-5.896,0-10.667,4.771-10.667,10.667c0,5.896,4.771,10.667,10.667,10.667h18.125c17.719,0,35.448-4.188,51.26-12.104l5.281-2.639  v238.743c0,29.417,23.927,53.333,53.333,53.333s53.333-23.917,53.333-53.333V181.333c0-4.776-0.833-9.319-2.016-13.727l11.797-5.898  c12.031-6.042,26.5-3.688,36.01,5.833c3.24,3.229,8.198,4.042,12.313,2L484.769,62.875C490.04,60.229,492.175,53.833,489.54,48.563z  "/>
<path style="fill:#0288D1;" d="M191.998,458.667c0,17.646-14.354,32-32,32s-32-14.354-32-32V181.333c0-17.646,14.354-32,32-32  s32,14.354,32,32V458.667z"/>
<path style="opacity:0.2;fill:#FFFFFF;enable-background:new    ;" d="M142.221,458.667V181.333c0-17.646,7.974-32,17.777-32  c-17.646,0-32,14.354-32,32v277.333c0,17.646,14.354,32,32,32C150.195,490.667,142.221,476.313,142.221,458.667z"/>
<path style="opacity:0.1;enable-background:new    ;" d="M159.998,149.333c9.803,0,17.777,14.354,17.777,32v277.333  c0,17.646-7.974,32-17.777,32c17.646,0,32-14.354,32-32V181.333C191.998,163.688,177.644,149.333,159.998,149.333z"/>
<path style="fill:#AEBCC4;" d="M268.217,147.292c-15.708-11.604-36.771-13.625-54.646-4.667l-11.829,5.915  c-3.749-4.759-8.181-8.908-13.311-12.164L410.206,25.479c18.938-9.396,43.323-1.208,52.729,17.583l2.75,5.5L268.217,147.292z"/>
<path style="opacity:0.3;fill:#FFFFFF;enable-background:new    ;" d="M457.214,34.965l-208,103.995  c6.736,1.616,13.276,4.102,19.003,8.332l197.469-98.729l-2.75-5.5C461.424,40.042,459.416,37.409,457.214,34.965z"/>
<circle style="fill:#303C42;" cx="160" cy="181.333" r="10.667"/>
<g>
	<polygon style="opacity:0.2;fill:#FFFFFF;enable-background:new    ;" points="282.235,122.533 274.482,144.243 283.666,139.651    300.454,131.258 308.206,109.549  "/>
	<polygon style="opacity:0.2;fill:#FFFFFF;enable-background:new    ;" points="346.294,108.339 369.09,96.94 376.844,75.232    350.873,88.216 343.119,109.926  "/>
	<polygon style="opacity:0.2;fill:#FFFFFF;enable-background:new    ;" points="348.301,107.251 371.098,95.854 371.098,95.853  "/>
	<polygon style="opacity:0.2;fill:#FFFFFF;enable-background:new    ;" points="378.852,74.145 393.193,33.987 367.222,46.973    352.881,87.129  "/>
	<polygon style="opacity:0.2;fill:#FFFFFF;enable-background:new    ;" points="310.214,108.461 324.554,68.309 298.583,81.296    284.243,121.445  "/>
	<polygon style="opacity:0.2;fill:#FFFFFF;enable-background:new    ;" points="285.674,138.564 302.462,130.171 302.462,130.171     "/>
</g>
<linearGradient id="SVGID_1_" gradientUnits="userSpaceOnUse" x1="-44.0314" y1="639.6812" x2="-28.9392" y2="632.644" gradientTransform="matrix(21.3333 0 0 -21.3333 996.3336 13791.667)">
	<stop offset="0" style="stop-color:#FFFFFF;stop-opacity:0.2"/>
	<stop offset="1" style="stop-color:#FFFFFF;stop-opacity:0"/>
</linearGradient>
<path style="fill:url(#SVGID_1_);" d="M489.54,48.563l-7.521-15.042C471.675,12.854,450.904,0,427.79,0  c-9.344,0-18.719,2.208-27.115,6.396L156.839,128.319c-26.254,1.572-47.253,22.073-49.677,48.1l-9.872,9.872  c-17.438,17.438-40.625,27.042-65.292,27.042c-5.896,0-10.667,4.771-10.667,10.667c0,5.896,4.771,10.667,10.667,10.667h18.125  c17.719,0,35.448-4.188,51.26-12.104l5.281-2.639v238.743c0,29.417,23.927,53.333,53.333,53.333s53.333-23.917,53.333-53.333  V181.333c0-4.776-0.833-9.319-2.016-13.727l11.797-5.898c12.031-6.042,26.5-3.688,36.01,5.833c3.24,3.229,8.198,4.042,12.313,2  L484.769,62.875C490.04,60.229,492.175,53.833,489.54,48.563z"/>
<g>
</g>
<g>
</g>
<g>
</g>
<g>
</g>
<g>
</g>
<g>
</g>
<g>
</g>
<g>
</g>
<g>
</g>
<g>
</g>
<g>
</g>
<g>
</g>
<g>
</g>
<g>
</g>
<g>
</g>
</svg>
