<?xml version="1.0" encoding="iso-8859-1"?>
<!-- Generator: Adobe Illustrator 19.0.0, SVG Export Plug-In . SVG Version: 6.00 Build 0)  -->
<svg xmlns="http://www.w3.org/2000/svg" xmlns:xlink="http://www.w3.org/1999/xlink" version="1.1" id="Capa_1" x="0px" y="0px" viewBox="0 0 512 512" style="enable-background:new 0 0 512 512;" xml:space="preserve">
<path style="fill:#303C42;" d="M416,0H96c-5.896,0-10.667,4.771-10.667,10.667V96c0,5.896,4.771,10.667,10.667,10.667h57.966  l59.367,98.944v263.723C213.333,492.854,232.469,512,256,512s42.667-19.146,42.667-42.667V205.611l59.367-98.944H416  c5.896,0,10.667-4.771,10.667-10.667V10.667C426.667,4.771,421.896,0,416,0z"/>
<rect x="106.667" y="21.333" style="fill:#E6E6E6;" width="21.333" height="64"/>
<path style="fill:#6D4C41;" d="M277.333,469.333c0,11.771-9.573,21.333-21.333,21.333c-11.76,0-21.333-9.563-21.333-21.333v-256  h42.667V469.333z"/>
<path style="opacity:0.2;fill:#FFFFFF;enable-background:new    ;" d="M248,469.333v-256h-13.333v256  c0,11.771,9.573,21.333,21.333,21.333c2.363,0,4.54-0.637,6.667-1.349C254.21,486.484,248,478.738,248,469.333z"/>
<polygon style="fill:#AEBCC4;" points="281.966,192 230.034,192 178.833,106.667 333.167,106.667 "/>
<g>
	<rect x="149.333" y="64" style="fill:#E6E6E6;" width="213.333" height="21.333"/>
	<rect x="149.333" y="21.333" style="fill:#E6E6E6;" width="213.333" height="21.333"/>
</g>
<g>
	<rect x="149.333" y="21.333" style="opacity:0.5;fill:#FFFFFF;enable-background:new    ;" width="213.333" height="10.667"/>
	<rect x="149.333" y="64" style="opacity:0.5;fill:#FFFFFF;enable-background:new    ;" width="213.333" height="10.667"/>
</g>
<rect x="384" y="21.333" style="fill:#E6E6E6;" width="21.333" height="64"/>
<linearGradient id="SVGID_1_" gradientUnits="userSpaceOnUse" x1="-36.5117" y1="643.293" x2="-32.0945" y2="638.8758" gradientTransform="matrix(21.3333 0 0 -21.3333 996.3334 13791.667)">
	<stop offset="0" style="stop-color:#000000;stop-opacity:0.1"/>
	<stop offset="1" style="stop-color:#000000;stop-opacity:0"/>
</linearGradient>
<polygon style="fill:url(#SVGID_1_);" points="281.966,192 333.167,106.667 178.833,106.667 264.167,192 "/>
<linearGradient id="SVGID_2_" gradientUnits="userSpaceOnUse" x1="-45.0815" y1="640.9951" x2="-28.4203" y2="633.226" gradientTransform="matrix(21.3333 0 0 -21.3333 996.3334 13791.667)">
	<stop offset="0" style="stop-color:#FFFFFF;stop-opacity:0.2"/>
	<stop offset="1" style="stop-color:#FFFFFF;stop-opacity:0"/>
</linearGradient>
<path style="fill:url(#SVGID_2_);" d="M416,0H96c-5.896,0-10.667,4.771-10.667,10.667V96c0,5.896,4.771,10.667,10.667,10.667h57.966  l59.367,98.944v263.723C213.333,492.854,232.469,512,256,512s42.667-19.146,42.667-42.667V205.611l59.367-98.944H416  c5.896,0,10.667-4.771,10.667-10.667V10.667C426.667,4.771,421.896,0,416,0z"/>
<g>
</g>
<g>
</g>
<g>
</g>
<g>
</g>
<g>
</g>
<g>
</g>
<g>
</g>
<g>
</g>
<g>
</g>
<g>
</g>
<g>
</g>
<g>
</g>
<g>
</g>
<g>
</g>
<g>
</g>
</svg>
