<?xml version="1.0" encoding="iso-8859-1"?>
<!-- Generator: Adobe Illustrator 19.0.0, SVG Export Plug-In . SVG Version: 6.00 Build 0)  -->
<svg xmlns="http://www.w3.org/2000/svg" xmlns:xlink="http://www.w3.org/1999/xlink" version="1.1" id="Capa_1" x="0px" y="0px" viewBox="0 0 512 512" style="enable-background:new 0 0 512 512;" xml:space="preserve">
<path style="fill:#303C42;" d="M362.667,128V32c0-17.646-14.354-32-32-32c-17.646,0-32,14.354-32,32v96h-85.333V32  c0-17.646-14.354-32-32-32s-32,14.354-32,32v96c-23.531,0-42.667,19.135-42.667,42.667v51.198c0,31.646,13.948,61.417,38.25,81.677  c16.948,14.125,27.625,33.979,30.063,55.906l3.25,29.26c2.13,19.155,16.689,34.091,35.104,37.276v75.349  c0,5.896,4.771,10.667,10.667,10.667h64c5.896,0,10.667-4.771,10.667-10.667v-75.349c18.415-3.185,32.974-18.121,35.104-37.276  l3.25-29.26c2.438-21.927,13.115-41.781,30.063-55.906c24.302-20.26,38.25-50.031,38.25-81.677v-51.198  C405.333,147.135,386.198,128,362.667,128z"/>
<g>
	<path style="fill:#AEBCC4;" d="M320,32c0-5.885,4.781-10.667,10.667-10.667c5.885,0,10.667,4.781,10.667,10.667v96H320V32z"/>
	<path style="fill:#AEBCC4;" d="M170.667,32c0-5.885,4.781-10.667,10.667-10.667C187.219,21.333,192,26.115,192,32v96h-21.333V32z"/>
</g>
<g>
	<rect x="234.667" y="426.667" style="fill:#E6E6E6;" width="42.667" height="64"/>
	<path style="fill:#E6E6E6;" d="M384,221.865c0,25.292-11.146,49.094-30.583,65.281c-21.198,17.677-34.552,42.521-37.604,69.948   l-3.25,29.26c-1.198,10.823-10.323,18.979-21.208,18.979h-70.708c-10.885,0-20.01-8.156-21.208-18.979l-3.25-29.26   c-3.052-27.427-16.406-52.271-37.604-69.948C139.146,270.958,128,247.156,128,221.865v-51.198c0-11.76,9.573-21.333,21.333-21.333   h213.333c11.76,0,21.333,9.573,21.333,21.333V221.865z"/>
</g>
<path style="opacity:0.2;fill:#FFFFFF;enable-background:new    ;" d="M218.292,386.354l-2.167-29.26  c-2.035-27.427-10.938-52.271-25.069-69.948c-12.958-16.188-20.389-39.99-20.389-65.281v-51.198c0-11.76,6.382-21.333,14.223-21.333  h-35.556c-11.76,0-21.333,9.573-21.333,21.333v51.198c0,25.292,11.146,49.094,30.583,65.281  c21.198,17.677,34.552,42.521,37.604,69.948l3.25,29.26c1.198,10.823,10.323,18.979,21.208,18.979h11.785  C225.173,405.333,219.09,397.177,218.292,386.354z"/>
<path style="opacity:0.1;enable-background:new    ;" d="M362.667,149.333h-35.556c7.841,0,14.223,9.573,14.223,21.333v51.198  c0,25.292-7.431,49.094-20.389,65.281c-14.132,17.677-23.034,42.521-25.069,69.948l-2.167,29.26  c-0.798,10.823-6.882,18.979-14.139,18.979h11.785c10.885,0,20.01-8.156,21.208-18.979l3.25-29.26  c3.052-27.427,16.406-52.271,37.604-69.948C372.854,270.958,384,247.156,384,221.865v-51.198  C384,158.906,374.427,149.333,362.667,149.333z"/>
<g>
	<path style="fill:#303C42;" d="M309.333,192H202.667c-5.896,0-10.667,4.771-10.667,10.667s4.771,10.667,10.667,10.667h106.667   c5.896,0,10.667-4.771,10.667-10.667S315.229,192,309.333,192z"/>
	<path style="fill:#303C42;" d="M309.333,234.667H202.667c-5.896,0-10.667,4.771-10.667,10.667c0,5.896,4.771,10.667,10.667,10.667   h106.667c5.896,0,10.667-4.771,10.667-10.667C320,239.438,315.229,234.667,309.333,234.667z"/>
</g>
<linearGradient id="SVGID_1_" gradientUnits="userSpaceOnUse" x1="-35.2031" y1="626.9844" x2="-33.2031" y2="624.9844" gradientTransform="matrix(21.3333 0 0 -21.3333 996.3334 13791.667)">
	<stop offset="0" style="stop-color:#000000;stop-opacity:0.1"/>
	<stop offset="1" style="stop-color:#000000;stop-opacity:0"/>
</linearGradient>
<polygon style="fill:url(#SVGID_1_);" points="277.333,426.667 234.667,426.667 277.333,469.333 "/>
<linearGradient id="SVGID_2_" gradientUnits="userSpaceOnUse" x1="-42.7608" y1="638.7595" x2="-28.4146" y2="632.0699" gradientTransform="matrix(21.3333 0 0 -21.3333 996.3334 13791.667)">
	<stop offset="0" style="stop-color:#FFFFFF;stop-opacity:0.2"/>
	<stop offset="1" style="stop-color:#FFFFFF;stop-opacity:0"/>
</linearGradient>
<path style="fill:url(#SVGID_2_);" d="M362.667,128V32c0-17.646-14.354-32-32-32c-17.646,0-32,14.354-32,32v96h-85.333V32  c0-17.646-14.354-32-32-32s-32,14.354-32,32v96c-23.531,0-42.667,19.135-42.667,42.667v51.198c0,31.646,13.948,61.417,38.25,81.677  c16.948,14.125,27.625,33.979,30.063,55.906l3.25,29.26c2.13,19.155,16.689,34.091,35.104,37.276v75.349  c0,5.896,4.771,10.667,10.667,10.667h64c5.896,0,10.667-4.771,10.667-10.667v-75.349c18.415-3.185,32.974-18.121,35.104-37.276  l3.25-29.26c2.438-21.927,13.115-41.781,30.063-55.906c24.302-20.26,38.25-50.031,38.25-81.677v-51.198  C405.333,147.135,386.198,128,362.667,128z"/>
<g>
</g>
<g>
</g>
<g>
</g>
<g>
</g>
<g>
</g>
<g>
</g>
<g>
</g>
<g>
</g>
<g>
</g>
<g>
</g>
<g>
</g>
<g>
</g>
<g>
</g>
<g>
</g>
<g>
</g>
</svg>
