<?xml version="1.0" encoding="iso-8859-1"?>
<!-- Generator: Adobe Illustrator 19.0.0, SVG Export Plug-In . SVG Version: 6.00 Build 0)  -->
<svg xmlns="http://www.w3.org/2000/svg" xmlns:xlink="http://www.w3.org/1999/xlink" version="1.1" id="Capa_1" x="0px" y="0px" viewBox="0 0 512 512" style="enable-background:new 0 0 512 512;" xml:space="preserve">
<path style="fill:#303C42;" d="M490.667,64c-9.957,0-17.63,8.819-20.268,21.917C333.047,91.85,289.674,158.191,235.75,241.344  c-7.229,11.146-14.604,22.5-22.417,34.104V224c0-29.688-81.646-32-106.667-32S0,194.313,0,224v117.333  C0,400.146,47.854,448,106.667,448c19.396,0,85.792-4.156,125.875-57.604c26.333-35.115,45.479-72.948,64-109.531  c40.711-80.445,76.228-150.613,174.789-170.888C474.613,120.895,481.728,128,490.667,128C503.021,128,512,114.542,512,96  S503.021,64,490.667,64z"/>
<path style="fill:#6D4C41;" d="M106.667,213.333c42.125,0,70.104,5.969,81.25,10.667c-11.146,4.698-39.125,10.667-81.25,10.667  S36.563,228.698,25.417,224C36.563,219.302,64.542,213.333,106.667,213.333z"/>
<path style="opacity:0.1;enable-background:new    ;" d="M132.083,224c18.563,0,34.199,1.191,47.039,2.891  c3.52-0.977,6.581-1.958,8.794-2.891c-11.146-4.698-39.125-10.667-81.25-10.667S36.563,219.302,25.417,224  c6.234,2.628,17.914,5.62,34.211,7.776C73.832,227.836,98.322,224,132.083,224z"/>
<path style="fill:#6D4C41;" d="M277.5,271.24c-18.104,35.76-36.813,72.74-62.042,106.365  c-27.125,36.177-73.979,49.063-108.792,49.063c-47.063,0-85.333-38.281-85.333-85.333v-96.188C47.31,254.913,89.807,256,106.667,256  s59.357-1.087,85.333-10.854v64.188c0,4.625,2.979,8.719,7.375,10.146c4.354,1.448,9.208-0.146,11.917-3.875  c15.875-21.833,29.333-42.583,42.354-62.646c40.021-61.719,70.542-108.771,134.104-131.406  C335.208,157.198,306.896,213.146,277.5,271.24z"/>
<path style="opacity:0.1;enable-background:new    ;" d="M277.5,245.688c-18.104,35.76-36.813,72.74-62.042,106.365  c-27.125,36.177-73.979,49.063-108.792,49.063c-47.063,0-85.333-38.281-85.333-85.333v25.552c0,47.052,38.271,85.333,85.333,85.333  c34.813,0,81.667-12.885,108.792-49.063C240.688,343.979,259.396,307,277.5,271.24c29.396-58.094,57.708-114.042,110.25-149.688  c-23.746,8.456-42.87,20.331-59.611,35.094C308.979,183.853,293.332,214.398,277.5,245.688z"/>
<linearGradient id="SVGID_1_" gradientUnits="userSpaceOnUse" x1="-44.922" y1="639.9636" x2="-27.2515" y2="631.7238" gradientTransform="matrix(21.3333 0 0 -21.3333 996.3334 13791.667)">
	<stop offset="0" style="stop-color:#FFFFFF;stop-opacity:0.2"/>
	<stop offset="1" style="stop-color:#FFFFFF;stop-opacity:0"/>
</linearGradient>
<path style="fill:url(#SVGID_1_);" d="M490.667,64c-9.957,0-17.63,8.819-20.268,21.917  C333.047,91.85,289.674,158.191,235.75,241.344c-7.229,11.146-14.604,22.5-22.417,34.104V224c0-29.688-81.646-32-106.667-32  S0,194.313,0,224v117.333C0,400.146,47.854,448,106.667,448c19.396,0,85.792-4.156,125.875-57.604  c26.333-35.115,45.479-72.948,64-109.531c40.711-80.445,76.228-150.613,174.789-170.888C474.613,120.895,481.728,128,490.667,128  C503.021,128,512,114.542,512,96S503.021,64,490.667,64z"/>
<g>
</g>
<g>
</g>
<g>
</g>
<g>
</g>
<g>
</g>
<g>
</g>
<g>
</g>
<g>
</g>
<g>
</g>
<g>
</g>
<g>
</g>
<g>
</g>
<g>
</g>
<g>
</g>
<g>
</g>
</svg>
