<?xml version="1.0" encoding="iso-8859-1"?>
<!-- Generator: Adobe Illustrator 19.0.0, SVG Export Plug-In . SVG Version: 6.00 Build 0)  -->
<svg xmlns="http://www.w3.org/2000/svg" xmlns:xlink="http://www.w3.org/1999/xlink" version="1.1" id="Capa_1" x="0px" y="0px" viewBox="0 0 512 512" style="enable-background:new 0 0 512 512;" xml:space="preserve">
<path style="fill:#303C42;" d="M471.728,0c-11.302,0-22.135,4.781-29.74,13.125L2.79,494.146  c-3.844,4.208-3.698,10.698,0.333,14.729C5.197,510.958,7.936,512,10.665,512c2.573,0,5.156-0.927,7.188-2.792L498.874,70.021  c8.344-7.615,13.125-18.448,13.125-29.75C511.999,18.063,493.936,0,471.728,0z M466.207,60.875l-21.333,21.333  c-2.083,2.083-4.813,3.125-7.542,3.125c-2.729,0-5.458-1.042-7.542-3.125c-4.167-4.167-4.167-10.917,0-15.083l21.333-21.333  c4.167-4.167,10.917-4.167,15.083,0C470.374,49.958,470.374,56.708,466.207,60.875z"/>
<path style="fill:#FFFFFF;" d="M437.332,85.333c-2.729,0-5.458-1.042-7.542-3.125c-4.167-4.167-4.167-10.917,0-15.083l21.333-21.333  c4.167-4.167,10.917-4.167,15.083,0c4.167,4.167,4.167,10.917,0,15.083l-21.333,21.333C442.79,84.292,440.061,85.333,437.332,85.333  z"/>
<path style="fill:#78909C;" d="M471.728,21.333c-5.313,0-10.406,2.25-13.979,6.167L176.79,335.208L484.499,54.26  c3.917-3.583,6.167-8.677,6.167-13.99C490.665,29.833,482.165,21.333,471.728,21.333z M466.207,60.875l-21.333,21.333  c-2.083,2.083-4.813,3.125-7.542,3.125c-2.729,0-5.458-1.042-7.542-3.125c-4.167-4.167-4.167-10.917,0-15.083l21.333-21.333  c4.167-4.167,10.917-4.167,15.083,0C470.374,49.958,470.374,56.708,466.207,60.875z"/>
<g>
	<path style="fill:#303C42;" d="M479.999,469.333c-5.896,0-10.667-4.771-10.667-10.667c0-17.49-11.844-27.719-31.156-42.969   c-24.135-19.052-54.177-42.76-54.177-95.583c0-43.948,20.854-63.208,41.021-81.844c22.792-21.052,44.313-40.948,44.313-99.604   c0-24.698-10.25-48.531-28.865-67.115c-4.177-4.167-4.177-10.917-0.021-15.083c4.167-4.188,10.938-4.167,15.083-0.021   c22.656,22.625,35.135,51.823,35.135,82.219c0,67.99-27.188,93.115-51.167,115.271c-19.094,17.635-34.167,31.563-34.167,66.177   c0,42.49,23.417,60.969,46.063,78.844c19.302,15.229,39.271,30.99,39.271,59.708C490.665,464.563,485.895,469.333,479.999,469.333z   "/>
	<path style="fill:#303C42;" d="M181.332,106.667c-5.896,0-10.667-4.771-10.667-10.667c0-5.896,4.771-10.667,10.667-10.667   c59.552,0,94.01-20.531,124.427-38.656c21.875-13.031,42.542-25.344,67.573-25.344c20.521,0,40.708,5.365,58.385,15.51   c5.104,2.927,6.875,9.448,3.938,14.563c-2.938,5.094-9.469,6.854-14.563,3.938c-14.448-8.292-30.958-12.677-47.76-12.677   c-19.156,0-35.708,9.865-56.656,22.344C285.52,83.573,246.749,106.667,181.332,106.667z"/>
	<path style="fill:#303C42;" d="M466.207,60.875l-21.333,21.333c-2.083,2.083-4.813,3.125-7.542,3.125   c-2.729,0-5.458-1.042-7.542-3.125c-4.167-4.167-4.167-10.917,0-15.083l21.333-21.333c4.167-4.167,10.917-4.167,15.083,0   C470.374,49.958,470.374,56.708,466.207,60.875z"/>
</g>
<linearGradient id="SVGID_1_" gradientUnits="userSpaceOnUse" x1="-41.001" y1="637.1703" x2="-22.0834" y2="628.3451" gradientTransform="matrix(21.3333 0 0 -21.3333 996.3336 13791.667)">
	<stop offset="0" style="stop-color:#FFFFFF;stop-opacity:0.2"/>
	<stop offset="1" style="stop-color:#FFFFFF;stop-opacity:0"/>
</linearGradient>
<path style="fill:url(#SVGID_1_);" d="M511.999,40.271C511.999,18.063,493.936,0,471.728,0c-11.302,0-22.135,4.781-29.74,13.125  l-18.139,19.866c-15.716-7.503-32.944-11.658-50.517-11.658c-25.031,0-45.698,12.313-67.573,25.344  c-30.417,18.125-64.875,38.656-124.427,38.656c-5.896,0-10.667,4.771-10.667,10.667c0,5.896,4.771,10.667,10.667,10.667  c65.417,0,104.188-23.094,135.344-41.656c20.948-12.479,37.5-22.344,56.656-22.344c12.206,0,24.234,2.379,35.453,6.824L2.79,494.146  c-3.844,4.208-3.698,10.698,0.333,14.729C5.197,510.958,7.936,512,10.665,512c2.573,0,5.156-0.927,7.188-2.792l444.268-405.632  c4.685,11.154,7.211,23.008,7.211,35.09c0,58.656-21.521,78.552-44.313,99.604c-20.167,18.635-41.021,37.896-41.021,81.844  c0,52.823,30.042,76.531,54.177,95.583c19.313,15.25,31.156,25.479,31.156,42.969c0,5.896,4.771,10.667,10.667,10.667  c5.896,0,10.667-4.771,10.667-10.667c0-28.719-19.969-44.479-39.271-59.708c-22.646-17.875-46.063-36.354-46.063-78.844  c0-34.615,15.073-48.542,34.167-66.177c23.979-22.156,51.167-47.281,51.167-115.271c0-17.428-4.534-34.289-12.305-49.917  l20.513-18.729C507.218,62.406,511.999,51.573,511.999,40.271z"/>
<g>
</g>
<g>
</g>
<g>
</g>
<g>
</g>
<g>
</g>
<g>
</g>
<g>
</g>
<g>
</g>
<g>
</g>
<g>
</g>
<g>
</g>
<g>
</g>
<g>
</g>
<g>
</g>
<g>
</g>
</svg>
