<?xml version="1.0" encoding="iso-8859-1"?>
<!-- Generator: Adobe Illustrator 19.0.0, SVG Export Plug-In . SVG Version: 6.00 Build 0)  -->
<svg xmlns="http://www.w3.org/2000/svg" xmlns:xlink="http://www.w3.org/1999/xlink" version="1.1" id="Capa_1" x="0px" y="0px" viewBox="0 0 512 512" style="enable-background:new 0 0 512 512;" xml:space="preserve">
<path style="fill:#303C42;" d="M437.426,426.667c-4.365-0.052-42.733-2.042-42.733-53.333c0-51.54-0.237-92.952-74.693-96v-192  c0-23.531-19.116-42.667-42.649-42.667h-21.335v-32C256.016,4.771,251.244,0,245.348,0H138.673c-5.896,0-10.668,4.771-10.668,10.667  v32H106.67C83.137,42.667,64,61.802,64,85.333v341.333c0,23.531,19.137,42.667,42.67,42.667h21.335v32  c0,5.896,4.771,10.667,10.668,10.667h106.675c5.896,0,10.668-4.771,10.668-10.667v-32h21.335c23.533,0,42.649-19.135,42.649-42.667  v-128c53.3,2.309,53.358,23.548,53.358,74.667c0,59.063,41.868,74.667,64.005,74.667c5.865,0,10.595-4.729,10.636-10.594  C448.031,431.542,443.291,426.74,437.426,426.667z"/>
<g>
	<polygon style="fill:#7CB342;" points="270.973,410.667 298.667,406.891 298.667,414.443  "/>
	<polygon style="fill:#7CB342;" points="298.667,385.353 85.333,414.443 85.333,393.314 298.667,364.224  "/>
	<polygon style="fill:#7CB342;" points="298.667,126.647 298.667,147.776 85.333,118.686 85.333,97.557  "/>
	<polygon style="fill:#7CB342;" points="298.667,105.109 270.973,101.333 298.667,97.557  "/>
	<polygon style="fill:#7CB342;" points="298.667,169.314 298.667,190.443 85.333,161.353 85.333,140.224  "/>
	<polygon style="fill:#7CB342;" points="298.667,211.98 298.667,233.109 85.333,204.02 85.333,182.891  "/>
	<polygon style="fill:#7CB342;" points="85.333,268.219 152.266,277.316 85.333,286.443  "/>
	<polygon style="fill:#7CB342;" points="298.667,342.686 85.333,371.776 85.333,350.647 298.667,321.557  "/>
	<polygon style="fill:#7CB342;" points="298.667,300.02 85.333,329.109 85.333,307.98 231.365,288.068 298.667,297.216  "/>
	<polygon style="fill:#7CB342;" points="85.333,246.686 85.333,225.557 298.667,254.647 298.667,275.776  "/>
</g>
<rect x="149.333" y="21.333" style="fill:#FFFFFF;" width="85.333" height="21.333"/>
<path style="fill:#7CB342;" d="M106.667,64h170.667c8.507,0,15.743,5.094,19.165,12.315L192,90.564L87.501,76.315  C90.923,69.094,98.16,64,106.667,64z"/>
<rect x="149.333" y="469.333" style="fill:#FFFFFF;" width="85.333" height="21.333"/>
<path style="fill:#7CB342;" d="M277.333,448H106.667c-8.507,0-15.743-5.094-19.165-12.315L192,421.436l104.499,14.249  C293.077,442.906,285.84,448,277.333,448z"/>
<linearGradient id="SVGID_1_" gradientUnits="userSpaceOnUse" x1="-38.7031" y1="625.4844" x2="-36.2031" y2="622.9844" gradientTransform="matrix(21.3333 0 0 -21.3333 996.3333 13791.667)">
	<stop offset="0" style="stop-color:#000000;stop-opacity:0.1"/>
	<stop offset="1" style="stop-color:#000000;stop-opacity:0"/>
</linearGradient>
<polygon style="fill:url(#SVGID_1_);" points="234.667,490.667 234.667,469.333 149.333,469.333 170.667,490.667 "/>
<path style="opacity:0.2;fill:#FFFFFF;enable-background:new    ;" d="M106.667,143.133l-21.333-2.909v21.129l21.333,2.909V143.133z   M106.667,228.466l-21.333-2.909v21.129l21.333,2.909V228.466z M106.667,185.799l-21.333-2.909v21.129l21.333,2.909V185.799z   M128,64h-21.333c-8.507,0-15.743,5.094-19.165,12.315l20.423,2.785C110.628,70.419,118.428,64,128,64z M106.667,100.466  l-21.333-2.909v21.129l21.333,2.909V100.466z M106.667,347.738l-21.333,2.909v21.129l21.333-2.909V347.738z M107.924,432.9  l-20.423,2.785C90.923,442.906,98.16,448,106.667,448H128C118.428,448,110.628,441.581,107.924,432.9z M106.667,271.118l-21.333-2.9  v18.224l21.333-2.909V271.118z M106.667,390.405l-21.333,2.909v21.129l21.333-2.909V390.405z M106.667,305.072l-21.333,2.909v21.129  l21.333-2.909V305.072z"/>
<path style="opacity:0.1;enable-background:new    ;" d="M277.333,388.262l21.333-2.909v-21.129l-21.333,2.909V388.262z   M277.333,123.738v21.129l21.333,2.909v-21.129L277.333,123.738z M277.333,187.534l21.333,2.909v-21.129l-21.333-2.909V187.534z   M277.333,230.201l21.333,2.909V211.98l-21.333-2.909V230.201z M277.333,345.595l21.333-2.909v-21.129l-21.333,2.909V345.595z   M277.333,302.928l21.333-2.909v-2.803l-21.333-2.9V302.928z M277.333,272.867l21.333,2.909v-21.129l-21.333-2.909V272.867z   M276.076,79.1l20.423-2.785C293.077,69.094,285.84,64,277.333,64H256C265.572,64,273.372,70.419,276.076,79.1z M256,448h21.333  c8.507,0,15.743-5.094,19.165-12.315l-20.423-2.785C273.372,441.581,265.572,448,256,448z"/>
<linearGradient id="SVGID_2_" gradientUnits="userSpaceOnUse" x1="-45.865" y1="638.288" x2="-24.5469" y2="628.3538" gradientTransform="matrix(21.3333 0 0 -21.3333 996.3333 13791.667)">
	<stop offset="0" style="stop-color:#FFFFFF;stop-opacity:0.2"/>
	<stop offset="1" style="stop-color:#FFFFFF;stop-opacity:0"/>
</linearGradient>
<path style="fill:url(#SVGID_2_);" d="M437.426,426.667c-4.365-0.052-42.733-2.042-42.733-53.333c0-51.54-0.237-92.952-74.693-96  v-192c0-23.531-19.116-42.667-42.649-42.667h-21.335v-32C256.016,4.771,251.244,0,245.348,0H138.673  c-5.896,0-10.668,4.771-10.668,10.667v32H106.67C83.137,42.667,64,61.802,64,85.333v341.333c0,23.531,19.137,42.667,42.67,42.667  h21.335v32c0,5.896,4.771,10.667,10.668,10.667h106.675c5.896,0,10.668-4.771,10.668-10.667v-32h21.335  c23.533,0,42.649-19.135,42.649-42.667v-128c53.3,2.309,53.358,23.548,53.358,74.667c0,59.063,41.868,74.667,64.005,74.667  c5.865,0,10.595-4.729,10.636-10.594C448.031,431.542,443.291,426.74,437.426,426.667z"/>
<g>
</g>
<g>
</g>
<g>
</g>
<g>
</g>
<g>
</g>
<g>
</g>
<g>
</g>
<g>
</g>
<g>
</g>
<g>
</g>
<g>
</g>
<g>
</g>
<g>
</g>
<g>
</g>
<g>
</g>
</svg>
