<?xml version="1.0" encoding="iso-8859-1"?>
<!-- Generator: Adobe Illustrator 19.0.0, SVG Export Plug-In . SVG Version: 6.00 Build 0)  -->
<svg xmlns="http://www.w3.org/2000/svg" xmlns:xlink="http://www.w3.org/1999/xlink" version="1.1" id="Capa_1" x="0px" y="0px" viewBox="0 0 512 512" style="enable-background:new 0 0 512 512;" xml:space="preserve">
<path style="fill:#303C42;" d="M504.708,107.182c-4.375-1.354-9.146,0.042-11.906,3.729c-19.094,25.461-30.677,24.065-61.583,20.419  c-12.542-1.5-28.156-3.355-47.219-3.355c-41.333,0-69.854,23.628-92.771,42.608c-13.854,11.48-25.823,21.398-35.229,21.398  s-21.375-9.918-35.229-21.398c-22.917-18.98-51.438-42.608-92.771-42.608c-19.063,0-34.677,1.855-47.219,3.355  c-30.896,3.646-42.479,5.042-61.583-20.419c-2.75-3.688-7.542-5.104-11.906-3.729C2.937,108.641,0,112.724,0,117.309  c0,142.533,45.875,224.999,136.354,245.104c58.5,13.001,80.167,25.898,93.115,33.607c8.74,5.208,15.635,9.314,26.531,9.314  c10.896,0,17.792-4.105,26.531-9.314c12.948-7.708,34.615-20.605,93.115-33.607C466.125,342.307,512,259.841,512,117.309  C512,112.724,509.063,108.641,504.708,107.182z M192,287.584c-46-3.583-76.375-30.021-90.052-52.917H128  c28.073,0,63.396,29.854,64,39.104V287.584z M320,287.584v-13.771c0.604-9.292,35.927-39.146,64-39.146h26.052  C396.375,257.563,366,284,320,287.584z"/>
<path style="fill:#AB47BC;" d="M428.698,152.521c-12.604-1.479-26.896-3.188-44.698-3.188c-33.646,0-57.823,20.021-79.156,37.708  c-17.031,14.104-31.74,26.292-48.844,26.292c-17.104,0-31.813-12.188-48.844-26.292c-21.333-17.688-45.51-37.708-79.156-37.708  c-17.802,0-32.094,1.708-44.698,3.188c-23.646,2.792-42.385,5.063-61.385-8.583c5.219,114.792,45.208,181.229,119.063,197.646  c61.844,13.75,85.354,27.75,99.406,36.104C248.427,382.479,251.198,384,256,384c4.802,0,7.573-1.521,15.615-6.313  c14.052-8.354,37.563-22.354,99.406-36.104c73.854-16.417,113.844-82.854,119.063-197.646  C471.115,157.542,452.302,155.313,428.698,152.521z M213.333,298.667c0,5.896-4.771,10.667-10.667,10.667  c-65.677,0-114.698-42.292-127.49-82.063c-1.042-3.25-0.469-6.792,1.542-9.563c2-2.75,5.208-4.375,8.615-4.375H128  c35.094,0,85.333,35.583,85.333,60.438V298.667z M436.823,227.271c-12.792,39.771-61.813,82.063-127.49,82.063  c-5.896,0-10.667-4.771-10.667-10.667v-24.896c0-24.854,50.24-60.438,85.333-60.438h42.667c3.406,0,6.615,1.625,8.615,4.375  C437.292,220.479,437.865,224.021,436.823,227.271z"/>
<path style="opacity:0.1;enable-background:new    ;" d="M376.548,325.646c-64.815,13.75-89.456,27.75-104.184,36.104  c-8.427,4.792-11.332,6.313-16.365,6.313c-5.033,0-7.938-1.521-16.365-6.313c-14.728-8.354-39.368-22.354-104.184-36.104  c-35.94-7.622-63.885-26.501-84.427-55.526c19.987,38.271,49.776,62.533,89.954,71.464c61.844,13.75,85.354,27.75,99.406,36.104  C248.427,382.479,251.198,384,256,384c4.802,0,7.573-1.521,15.615-6.313c14.052-8.354,37.563-22.354,99.406-36.104  c40.178-8.931,69.967-33.193,89.954-71.464C440.434,299.145,412.488,318.024,376.548,325.646z"/>
<path style="opacity:0.2;fill:#FFFFFF;enable-background:new    ;" d="M83.302,173.854c12.604-1.479,26.896-3.188,44.698-3.188  c33.646,0,57.823,20.021,79.156,37.708c17.031,14.104,31.74,26.292,48.844,26.292c17.104,0,31.813-12.188,48.844-26.292  c21.333-17.688,45.51-37.708,79.156-37.708c17.802,0,32.094,1.708,44.698,3.188c22.783,2.694,41.098,4.723,59.402-7.361  c0.693-7.474,1.622-14.618,1.983-22.556c-18.969,13.604-37.781,11.375-61.385,8.583c-12.604-1.479-26.896-3.188-44.698-3.188  c-33.646,0-57.823,20.021-79.156,37.708c-17.031,14.104-31.74,26.292-48.844,26.292c-17.104,0-31.813-12.188-48.844-26.292  c-21.333-17.688-45.51-37.708-79.156-37.708c-17.802,0-32.094,1.708-44.698,3.188c-23.646,2.792-42.385,5.063-61.385-8.583  c0.361,7.938,1.29,15.083,1.983,22.559C42.225,178.615,60.479,176.548,83.302,173.854z"/>
<linearGradient id="SVGID_1_" gradientUnits="userSpaceOnUse" x1="-46.2102" y1="642.1534" x2="-24.7272" y2="632.1354" gradientTransform="matrix(21.3333 0 0 -21.3333 996.3334 13791.667)">
	<stop offset="0" style="stop-color:#FFFFFF;stop-opacity:0.2"/>
	<stop offset="1" style="stop-color:#FFFFFF;stop-opacity:0"/>
</linearGradient>
<path style="fill:url(#SVGID_1_);" d="M504.708,107.182c-4.375-1.354-9.146,0.042-11.906,3.729  c-19.094,25.461-30.677,24.065-61.583,20.419c-12.542-1.5-28.156-3.355-47.219-3.355c-41.333,0-69.854,23.628-92.771,42.608  c-13.854,11.48-25.823,21.398-35.229,21.398s-21.375-9.918-35.229-21.398c-22.917-18.98-51.438-42.608-92.771-42.608  c-19.063,0-34.677,1.855-47.219,3.355c-30.896,3.646-42.479,5.042-61.583-20.419c-2.75-3.688-7.542-5.104-11.906-3.729  C2.937,108.641,0,112.724,0,117.309c0,142.533,45.875,224.999,136.354,245.104c58.5,13.001,80.167,25.898,93.115,33.607  c8.74,5.208,15.635,9.314,26.531,9.314c10.896,0,17.792-4.105,26.531-9.314c12.948-7.708,34.615-20.605,93.115-33.607  C466.125,342.307,512,259.841,512,117.309C512,112.724,509.063,108.641,504.708,107.182z M192,287.584  c-46-3.583-76.375-30.021-90.052-52.917H128c28.073,0,63.396,29.854,64,39.104V287.584z M320,287.584v-13.771  c0.604-9.292,35.927-39.146,64-39.146h26.052C396.375,257.563,366,284,320,287.584z"/>
<g>
</g>
<g>
</g>
<g>
</g>
<g>
</g>
<g>
</g>
<g>
</g>
<g>
</g>
<g>
</g>
<g>
</g>
<g>
</g>
<g>
</g>
<g>
</g>
<g>
</g>
<g>
</g>
<g>
</g>
</svg>
