<?xml version="1.0" encoding="iso-8859-1"?>
<!-- Generator: Adobe Illustrator 19.0.0, SVG Export Plug-In . SVG Version: 6.00 Build 0)  -->
<svg xmlns="http://www.w3.org/2000/svg" xmlns:xlink="http://www.w3.org/1999/xlink" version="1.1" id="Capa_1" x="0px" y="0px" viewBox="0 0 512 512" style="enable-background:new 0 0 512 512;" xml:space="preserve">
<path style="fill:#303C42;" d="M256,0C126.604,0,21.333,105.271,21.333,234.667c0,96.208,41.229,262.229,42.99,269.25  c1.188,4.75,5.448,8.083,10.344,8.083h106.667c3.26,0,6.344-1.479,8.365-4.042s2.76-5.896,2.021-9.063  c-0.427-1.813-42.385-181.104-42.385-264.229C149.333,175.854,197.188,128,256,128s106.667,47.854,106.667,106.667  c0,83.104-41.958,262.417-42.385,264.229c-0.74,3.167,0,6.5,2.021,9.063c2.031,2.563,5.104,4.042,8.365,4.042h106.667  c4.896,0,9.156-3.333,10.344-8.083c1.76-7.021,42.99-173.042,42.99-269.25C490.667,105.271,385.396,0,256,0z"/>
<path style="fill:#D32F2F;" d="M83.052,490.667c-2.065-8.633-5.589-23.694-9.712-42.667h85.344  c3.728,17.832,7.025,32.793,9.254,42.667H83.052z"/>
<path style="fill:#E6E6E6;" d="M256,106.667c-70.583,0-128,57.417-128,128c0,50.284,14.22,131.797,26.305,192H68.823  c-11.958-57.652-26.156-137.503-26.156-192c0-117.625,95.698-213.333,213.333-213.333s213.333,95.708,213.333,213.333  c0,54.484-14.199,134.342-26.158,192h-85.48C369.78,366.464,384,284.951,384,234.667C384,164.083,326.583,106.667,256,106.667z"/>
<path style="opacity:0.2;fill:#FFFFFF;enable-background:new    ;" d="M256,42.667c114.987,0,208.76,91.512,212.936,205.488  c0.167-4.555,0.397-9.221,0.397-13.488c0-117.625-95.698-213.333-213.333-213.333S42.667,117.042,42.667,234.667  c0,4.271,0.23,8.94,0.397,13.499C47.233,134.184,141.009,42.667,256,42.667z"/>
<path style="fill:#D32F2F;" d="M428.948,490.667h-84.885c2.229-9.874,5.526-24.835,9.254-42.667h85.342  C434.535,466.973,431.013,482.034,428.948,490.667z"/>
<path style="opacity:0.1;enable-background:new    ;" d="M78.09,469.333c2.022,8.893,3.759,16.305,4.962,21.333h84.885  c-1.259-5.577-2.883-12.911-4.708-21.333H78.09z"/>
<path style="opacity:0.1;enable-background:new    ;" d="M348.771,469.333c-1.826,8.422-3.449,15.757-4.708,21.333h84.885  c1.203-5.029,2.939-12.44,4.961-21.333H348.771z"/>
<linearGradient id="SVGID_1_" gradientUnits="userSpaceOnUse" x1="-45.6063" y1="638.1293" x2="-23.4149" y2="627.7811" gradientTransform="matrix(21.3333 0 0 -21.3333 996.3334 13791.667)">
	<stop offset="0" style="stop-color:#FFFFFF;stop-opacity:0.2"/>
	<stop offset="1" style="stop-color:#FFFFFF;stop-opacity:0"/>
</linearGradient>
<path style="fill:url(#SVGID_1_);" d="M256,0C126.604,0,21.333,105.271,21.333,234.667c0,96.208,41.229,262.229,42.99,269.25  c1.188,4.75,5.448,8.083,10.344,8.083h106.667c3.26,0,6.344-1.479,8.365-4.042s2.76-5.896,2.021-9.063  c-0.427-1.813-42.385-181.104-42.385-264.229C149.333,175.854,197.188,128,256,128s106.667,47.854,106.667,106.667  c0,83.104-41.958,262.417-42.385,264.229c-0.74,3.167,0,6.5,2.021,9.063c2.031,2.563,5.104,4.042,8.365,4.042h106.667  c4.896,0,9.156-3.333,10.344-8.083c1.76-7.021,42.99-173.042,42.99-269.25C490.667,105.271,385.396,0,256,0z"/>
<g>
</g>
<g>
</g>
<g>
</g>
<g>
</g>
<g>
</g>
<g>
</g>
<g>
</g>
<g>
</g>
<g>
</g>
<g>
</g>
<g>
</g>
<g>
</g>
<g>
</g>
<g>
</g>
<g>
</g>
</svg>
