<?xml version="1.0" encoding="iso-8859-1"?>
<!-- Generator: Adobe Illustrator 19.0.0, SVG Export Plug-In . SVG Version: 6.00 Build 0)  -->
<svg xmlns="http://www.w3.org/2000/svg" xmlns:xlink="http://www.w3.org/1999/xlink" version="1.1" id="Capa_1" x="0px" y="0px" viewBox="0 0 512 512" style="enable-background:new 0 0 512 512;" xml:space="preserve">
<path style="fill:#303C42;" d="M458.667,256h-21.333c0-5.896-4.771-10.667-10.667-10.667c0-5.896-4.771-10.667-10.667-10.667  c-5.896,0-10.667,4.771-10.667,10.667c-5.896,0-10.667,4.771-10.667,10.667H384v-53.333v-21.333c0-17.646-14.354-32-32-32h-85.333  c-17.646,0-32,14.354-32,32V256h-21.333V10.667C213.333,4.771,208.563,0,202.667,0H97.125C78.25,0,61.438,12.479,56.271,30.354  C50.063,51.792,42.667,87.99,42.667,138.667s7.396,86.875,13.604,108.313c5.167,17.875,21.979,30.354,40.854,30.354H192  c0,11.76,0,192,0,192C192,492.865,211.146,512,234.667,512h192c23.521,0,42.667-19.135,42.667-42.667V266.667  C469.333,260.771,464.563,256,458.667,256z"/>
<path style="fill:#E6E6E6;" d="M256,181.333c0-5.885,4.792-10.667,10.667-10.667H352c5.875,0,10.667,4.781,10.667,10.667V256H256  V181.333z"/>
<linearGradient id="SVGID_1_" gradientUnits="userSpaceOnUse" x1="-34.3801" y1="638.5142" x2="-30.0261" y2="634.1613" gradientTransform="matrix(21.3333 0 0 -21.3333 996.3334 13791.667)">
	<stop offset="0" style="stop-color:#000000;stop-opacity:0.1"/>
	<stop offset="1" style="stop-color:#000000;stop-opacity:0"/>
</linearGradient>
<path style="fill:url(#SVGID_1_);" d="M256,181.333c0-5.885,4.792-10.667,10.667-10.667H352c5.875,0,10.667,4.781,10.667,10.667V256  H256V181.333z"/>
<path style="fill:#78909C;" d="M97.125,256c-9.438,0-17.813-6.146-20.354-14.958C70.938,220.927,64,186.844,64,138.667  s6.938-82.26,12.771-102.375c2.542-8.813,10.917-14.958,20.354-14.958H192V256H97.125z"/>
<path style="opacity:0.1;enable-background:new    ;" d="M97.125,256H192v-21.333H97.125c-9.438,0-17.813-5.029-20.354-12.24  C70.938,205.97,64,178.083,64,138.667c0,48.177,6.938,82.26,12.771,102.375C79.313,249.854,87.688,256,97.125,256z"/>
<path style="opacity:0.2;fill:#FFFFFF;enable-background:new    ;" d="M97.125,42.667H192V21.333H97.125  c-9.438,0-17.813,6.146-20.354,14.958C70.938,56.406,64,90.49,64,138.667c0-39.418,6.938-67.305,12.771-83.762  C79.313,47.695,87.688,42.667,97.125,42.667z"/>
<path style="fill:#78909C;" d="M448,469.333c0,11.76-9.563,21.333-21.333,21.333h-192c-11.771,0-21.333-9.573-21.333-21.333v-192h32  h128H448V469.333z"/>
<path style="opacity:0.2;fill:#FFFFFF;enable-background:new    ;" d="M234.667,469.333v-192h-21.333v192  c0,11.76,9.563,21.333,21.333,21.333h17.454C242.491,490.667,234.667,481.094,234.667,469.333z"/>
<path style="opacity:0.1;enable-background:new    ;" d="M426.667,277.333v192c0,11.76-7.824,21.333-17.454,21.333h17.454  c11.771,0,21.333-9.573,21.333-21.333v-192H426.667z"/>
<path style="opacity:0.2;fill:#FFFFFF;enable-background:new    ;" d="M224,469.333v-192h-10.667v192  c0,11.76,9.563,21.333,21.333,21.333h8.728C232.693,490.667,224,481.094,224,469.333z"/>
<path style="opacity:0.1;enable-background:new    ;" d="M437.333,277.333v192c0,11.76-8.693,21.333-19.395,21.333h8.728  c11.771,0,21.333-9.573,21.333-21.333v-192H437.333z"/>
<circle style="fill:#303C42;" cx="416" cy="202.667" r="32"/>
<circle style="fill:#5C6671;" cx="416" cy="202.667" r="10.667"/>
<path style="fill:#303C42;" d="M309.333,128c29.417,0,53.333-22.469,53.333-50.083c0-1.458-0.104-2.813-0.292-5.115  c-1.583-19.188-11.229-31.156-18.958-40.771c-6.938-8.646-10.875-13.896-10.875-21.365c0-3.927-2.167-7.542-5.625-9.396  c-3.479-1.865-7.646-1.656-10.938,0.5C303.333,10.156,292.729,24.375,289,37.99c-0.354,1.281-0.646,2.563-0.917,3.854  c-0.958-1.417-2.229-2.604-3.771-3.438c-2.917-1.604-6.438-1.729-9.458-0.375c-1.833,0.823-17.917,8.833-18.792,37.052L256,77.917  C256,105.531,279.917,128,309.333,128z"/>
<path style="fill:#FFCA28;" d="M278.104,68.979c4.396,4.625,10.5,8.01,18.688,8.01c5.896,0,10.667-4.771,10.667-10.667  c0-5.594,0-14.958,2.125-22.698c1.167-4.281,3.604-8.875,6.771-13.083c2.958,5.563,6.813,10.354,10.438,14.854  c6.833,8.49,13.271,16.5,14.396,30.104l0.146,2.417c0,15.854-14.354,28.75-32,28.75s-32-12.896-31.958-30.646  C277.458,73.323,277.729,70.99,278.104,68.979z"/>
<path style="fill:#FF6F00;" d="M291.839,85.544c2.464,2.592,5.885,4.49,10.474,4.49c3.304,0,5.978-2.674,5.978-5.978  c0-3.135,0-8.384,1.191-12.722c0.654-2.4,2.02-4.974,3.795-7.333c1.658,3.118,3.818,5.803,5.85,8.325  c3.83,4.758,7.438,9.248,8.068,16.873l0.082,1.354c0,8.886-8.045,16.114-17.935,16.114s-17.935-7.228-17.912-17.176  C291.477,87.978,291.629,86.671,291.839,85.544z"/>
<g>
	<circle style="fill:#303C42;" cx="288" cy="202.667" r="10.667"/>
	<circle style="fill:#303C42;" cx="330.667" cy="202.667" r="10.667"/>
	<circle style="fill:#303C42;" cx="309.333" cy="224" r="10.667"/>
	<circle style="fill:#303C42;" cx="197.333" cy="272" r="26.667"/>
</g>
<circle style="fill:#F2F2F2;" cx="197.333" cy="272" r="5.333"/>
<linearGradient id="SVGID_2_" gradientUnits="userSpaceOnUse" x1="-36.8807" y1="633.3068" x2="-26.6848" y2="623.1119" gradientTransform="matrix(21.3333 0 0 -21.3333 996.3334 13791.667)">
	<stop offset="0" style="stop-color:#000000;stop-opacity:0.05"/>
	<stop offset="1" style="stop-color:#000000;stop-opacity:0"/>
</linearGradient>
<path style="fill:url(#SVGID_2_);" d="M240.335,277.333h-27.001v42.133l171.201,171.201h42.133c7.353,0,13.525-3.969,17.362-9.639  L240.335,277.333z"/>
<linearGradient id="SVGID_3_" gradientUnits="userSpaceOnUse" x1="-46.3086" y1="640.3052" x2="-22.3325" y2="629.1252" gradientTransform="matrix(21.3333 0 0 -21.3333 996.3334 13791.667)">
	<stop offset="0" style="stop-color:#FFFFFF;stop-opacity:0.2"/>
	<stop offset="1" style="stop-color:#FFFFFF;stop-opacity:0"/>
</linearGradient>
<path style="fill:url(#SVGID_3_);" d="M309.333,128c29.417,0,53.333-22.469,53.333-50.083c0-1.458-0.104-2.813-0.292-5.115  c-1.583-19.188-11.229-31.156-18.958-40.771c-6.938-8.646-10.875-13.896-10.875-21.365c0-3.927-2.167-7.542-5.625-9.396  c-3.479-1.865-7.646-1.656-10.938,0.5C303.333,10.156,292.729,24.375,289,37.99c-0.354,1.281-0.646,2.563-0.917,3.854  c-0.958-1.417-2.229-2.604-3.771-3.438c-2.917-1.604-6.438-1.729-9.458-0.375c-1.833,0.823-17.917,8.833-18.792,37.052L256,77.917  C256,105.531,279.917,128,309.333,128z M458.667,256h-21.333c0-5.896-4.771-10.667-10.667-10.667  c0-5.896-4.771-10.667-10.667-10.667c-5.896,0-10.667,4.771-10.667,10.667c-5.896,0-10.667,4.771-10.667,10.667H384v-53.333v-21.333  c0-17.646-14.354-32-32-32h-85.333c-17.646,0-32,14.354-32,32V256h-16.551c-1.405-1.826-2.957-3.378-4.783-4.783V10.667  C213.333,4.771,208.563,0,202.667,0H97.125C78.25,0,61.438,12.479,56.271,30.354C50.063,51.792,42.667,87.99,42.667,138.667  s7.396,86.875,13.604,108.313c5.167,17.875,21.979,30.354,40.854,30.354h74.618c2.167,10.299,9.957,18.09,20.257,20.257  c0,49.723,0,171.743,0,171.743C192,492.865,211.146,512,234.667,512h192c23.521,0,42.667-19.135,42.667-42.667V266.667  C469.333,260.771,464.563,256,458.667,256z M416,234.667c17.646,0,32-14.354,32-32s-14.354-32-32-32c-17.646,0-32,14.354-32,32  S398.354,234.667,416,234.667z"/>
<g>
</g>
<g>
</g>
<g>
</g>
<g>
</g>
<g>
</g>
<g>
</g>
<g>
</g>
<g>
</g>
<g>
</g>
<g>
</g>
<g>
</g>
<g>
</g>
<g>
</g>
<g>
</g>
<g>
</g>
</svg>
