<?xml version="1.0" encoding="iso-8859-1"?>
<!-- Generator: Adobe Illustrator 19.0.0, SVG Export Plug-In . SVG Version: 6.00 Build 0)  -->
<svg xmlns="http://www.w3.org/2000/svg" xmlns:xlink="http://www.w3.org/1999/xlink" version="1.1" id="Capa_1" x="0px" y="0px" viewBox="0 0 512 512" style="enable-background:new 0 0 512 512;" xml:space="preserve">
<path style="fill:#303C42;" d="M256,0C161.896,0,85.333,76.563,85.333,170.667c0,64.25,28.979,100.094,48.156,123.813  c8.5,10.51,15.844,19.594,15.844,25.521v21.333c0,15.725,8.642,29.333,21.333,36.733v67.35c0,11.229,4.552,22.229,12.5,30.167  l20.792,20.792C214.031,506.448,227.427,512,241.677,512h28.646c14.25,0,27.646-5.552,37.719-15.625l20.792-20.792  c7.948-7.938,12.5-18.938,12.5-30.167v-67.35c12.691-7.4,21.333-21.008,21.333-36.733V320c0-5.927,7.344-15.01,15.844-25.521  c19.177-23.719,48.156-59.563,48.156-123.813C426.667,76.563,350.104,0,256,0z"/>
<path style="fill:#BBDEFB;" d="M256,21.333c-82.344,0-149.333,66.99-149.333,149.333c0,56.698,25.094,87.74,43.417,110.406  c11.5,14.219,20.583,25.458,20.583,38.927v21.333c0,11.76,9.573,21.333,21.333,21.333h21.333V340.74  c0-60.781-14.365-121.625-41.542-175.969c-2.635-5.271-0.5-11.677,4.771-14.313c1.542-0.77,3.161-1.022,4.771-1.018v-0.107  c14.156,0,21.677,8.615,26.646,14.313c4.635,5.302,6.479,7.021,10.594,7.021c4.135,0,5.99-1.719,10.625-7.021  c4.99-5.698,12.521-14.313,26.698-14.313c14.188,0,21.427,8.271,26.719,14.302c4.656,5.313,6.51,7.031,10.667,7.031  c4.167,0,6.021-1.719,10.677-7.031c5.292-6.031,12.531-14.302,26.708-14.302v0.107c1.609-0.004,3.229,0.249,4.771,1.018  c5.271,2.635,7.406,9.042,4.771,14.313c-27.177,54.344-41.542,115.188-41.542,175.969v21.927H320  c11.76,0,21.333-9.573,21.333-21.333V320c0-13.469,9.083-24.708,20.583-38.927c18.323-22.667,43.417-53.708,43.417-110.406  C405.333,88.323,338.344,21.333,256,21.333z"/>
<g>
	<path style="fill:#303C42;" d="M319.482,448H192.518c-0.112-0.878-0.518-1.694-0.518-2.583v-18.75h128v18.75   C320,446.306,319.594,447.122,319.482,448z"/>
	<g>
		<path id="SVGCleanerId_0" style="fill:#303C42;" d="M270.323,490.667h-28.646c-8.552,0-16.583-3.333-22.635-9.375l-11.958-11.958    h97.833l-11.958,11.958C286.906,487.333,278.875,490.667,270.323,490.667z"/>
	</g>
	<rect x="192" y="384" style="fill:#303C42;" width="128" height="21.333"/>
</g>
<path style="fill:#BBDEFB;" d="M306.348,188.857c-3.632,1.775-7.741,3.143-13.066,3.143c-14.177,0-21.417-8.271-26.708-14.302  c-4.656-5.313-6.51-7.031-10.677-7.031c-4.146,0-6,1.719-10.635,7.021C240.271,183.385,232.74,192,218.573,192  c-5.219,0-9.297-1.37-12.917-3.133c18.944,48.25,29.01,100.053,29.01,151.872v21.927h42.667V340.74  C277.333,288.917,287.401,237.111,306.348,188.857z"/>
<linearGradient id="SVGID_1_" gradientUnits="userSpaceOnUse" x1="-41.5791" y1="640.3015" x2="-28.8007" y2="634.3423" gradientTransform="matrix(21.3333 0 0 -21.3333 996.3334 13791.667)">
	<stop offset="0" style="stop-color:#FFFFFF;stop-opacity:0.33"/>
	<stop offset="1" style="stop-color:#FFFFFF;stop-opacity:0"/>
</linearGradient>
<path style="fill:url(#SVGID_1_);" d="M256,21.333c-82.344,0-149.333,66.99-149.333,149.333c0,56.698,25.094,87.74,43.417,110.406  c11.5,14.219,20.583,25.458,20.583,38.927v21.333c0,11.76,9.573,21.333,21.333,21.333h21.333V340.74  c0-60.781-14.365-121.625-41.542-175.969c-2.635-5.271-0.5-11.677,4.771-14.313c1.542-0.77,3.161-1.022,4.771-1.018v-0.107  c14.156,0,21.677,8.615,26.646,14.313c4.635,5.302,6.479,7.021,10.594,7.021c4.135,0,5.99-1.719,10.625-7.021  c4.99-5.698,12.521-14.313,26.698-14.313c14.188,0,21.427,8.271,26.719,14.302c4.656,5.313,6.51,7.031,10.667,7.031  c4.167,0,6.021-1.719,10.677-7.031c5.292-6.031,12.531-14.302,26.708-14.302v0.107c1.609-0.004,3.229,0.249,4.771,1.018  c5.271,2.635,7.406,9.042,4.771,14.313c-27.177,54.344-41.542,115.188-41.542,175.969v21.927H320  c11.76,0,21.333-9.573,21.333-21.333V320c0-13.469,9.083-24.708,20.583-38.927c18.323-22.667,43.417-53.708,43.417-110.406  C405.333,88.323,338.344,21.333,256,21.333z M293.281,192c-14.177,0-21.417-8.271-26.708-14.302  c-4.656-5.313-6.51-7.031-10.677-7.031c-4.146,0-6,1.719-10.635,7.021C240.271,183.385,232.74,192,218.573,192  c-5.219,0-9.297-1.37-12.917-3.133c18.944,48.25,29.01,100.053,29.01,151.872v21.927h42.667V340.74  c0-51.823,10.068-103.629,29.014-151.883C302.716,190.632,298.607,192,293.281,192z"/>
<path style="fill:#F2F2F2;" d="M319.482,448H192.518c-0.112-0.878-0.518-1.694-0.518-2.583v-18.75h128v18.75  C320,446.306,319.594,447.122,319.482,448z"/>
<g>
	<path id="SVGCleanerId_0_1_" style="fill:#666666;" d="M270.323,490.667h-28.646c-8.552,0-16.583-3.333-22.635-9.375   l-11.958-11.958h97.833l-11.958,11.958C286.906,487.333,278.875,490.667,270.323,490.667z"/>
</g>
<g>
	<path id="SVGCleanerId_0_2_" d="M270.323,490.667h-28.646c-8.552,0-16.583-3.333-22.635-9.375l-11.958-11.958h97.833   l-11.958,11.958C286.906,487.333,278.875,490.667,270.323,490.667z"/>
</g>
<rect x="192" y="384" style="fill:#F2F2F2;" width="128" height="21.333"/>
<path style="opacity:0.06;enable-background:new    ;" d="M365.365,174.505c0-46.465-29.939-85.854-71.499-100.391  c-7.56-2.645-15.259,3.26-14.363,11.219c0.34,3.009,0.529,6.064,0.529,9.172c0,20.741-6.46,39.938-17.392,55.822  c9.736,2.154,15.632,8.357,19.975,13.309c4.656,5.313,6.51,7.031,10.667,7.031c4.167,0,6.021-1.719,10.677-7.031  c5.292-6.031,12.531-14.302,26.708-14.302v0.107c1.609-0.004,3.229,0.249,4.771,1.018c5.271,2.635,7.406,9.042,4.771,14.313  c-24.107,48.204-38.076,101.525-40.936,155.379c1.357-1.536,2.392-3.374,2.661-5.538c2.966-23.716,16.979-41.038,29.504-56.523  C348.115,237.453,365.365,216.109,365.365,174.505z"/>
<path style="opacity:0.06;enable-background:new    ;" d="M306.348,188.857c-3.632,1.775-7.741,3.143-13.066,3.143  c-14.177,0-21.417-8.271-26.708-14.302c-4.656-5.313-6.51-7.031-10.677-7.031c-4.146,0-6,1.719-10.635,7.021  C240.271,183.385,232.74,192,218.573,192c-4.617,0-8.262-1.152-11.566-2.62c-0.359,0.096-0.701,0.238-1.063,0.331  c16.682,42.757,25.98,88.286,27.909,134.128h44.294C280.089,277.698,289.464,231.857,306.348,188.857z"/>
<path style="opacity:0.06;enable-background:new    ;" d="M210.799,296.783c-4.039-35.632-13.04-70.68-26.487-103.908  c-1.003,0.03-1.938,0.297-2.948,0.297c-4.721,0-9.322-0.431-13.82-1.176c-7.569-1.254-13.668,6.063-11.712,13.48  c5.979,22.678,18.189,37.837,30.126,52.602C195.103,269.391,204.948,281.745,210.799,296.783z"/>
<circle style="opacity:0.3;fill:#FFFFFF;enable-background:new    ;" cx="197.333" cy="90.667" r="37.333"/>
<linearGradient id="SVGID_2_" gradientUnits="userSpaceOnUse" x1="-43.4369" y1="638.6819" x2="-27.8" y2="631.3934" gradientTransform="matrix(21.3333 0 0 -21.3333 996.3334 13791.667)">
	<stop offset="0" style="stop-color:#FFFFFF;stop-opacity:0.2"/>
	<stop offset="1" style="stop-color:#FFFFFF;stop-opacity:0"/>
</linearGradient>
<path style="fill:url(#SVGID_2_);" d="M256,0C161.896,0,85.333,76.563,85.333,170.667c0,64.25,28.979,100.094,48.156,123.813  c8.5,10.51,15.844,19.594,15.844,25.521v21.333c0,15.725,8.642,29.333,21.333,36.733v67.35c0,11.229,4.552,22.229,12.5,30.167  l20.792,20.792C214.031,506.448,227.427,512,241.677,512h28.646c14.25,0,27.646-5.552,37.719-15.625l20.792-20.792  c7.948-7.938,12.5-18.938,12.5-30.167v-67.35c12.691-7.4,21.333-21.008,21.333-36.733V320c0-5.927,7.344-15.01,15.844-25.521  c19.177-23.719,48.156-59.563,48.156-123.813C426.667,76.563,350.104,0,256,0z"/>
<g>
</g>
<g>
</g>
<g>
</g>
<g>
</g>
<g>
</g>
<g>
</g>
<g>
</g>
<g>
</g>
<g>
</g>
<g>
</g>
<g>
</g>
<g>
</g>
<g>
</g>
<g>
</g>
<g>
</g>
</svg>
