<?xml version="1.0" encoding="iso-8859-1"?>
<!-- Generator: Adobe Illustrator 19.0.0, SVG Export Plug-In . SVG Version: 6.00 Build 0)  -->
<svg xmlns="http://www.w3.org/2000/svg" xmlns:xlink="http://www.w3.org/1999/xlink" version="1.1" id="Capa_1" x="0px" y="0px" viewBox="0 0 512 512" style="enable-background:new 0 0 512 512;" xml:space="preserve">
<path style="fill:#303C42;" d="M384,281.385c0-25.01-3.844-49.781-11.427-73.646l-56.646-178.01C310.26,11.948,293.927,0,275.271,0  h-38.542c-18.656,0-34.99,11.948-40.656,29.729L139.427,207.75C131.844,231.604,128,256.375,128,281.385  c0,34.188,7.042,67.375,20.927,98.646l21.083,47.427l-20.271,70.948c-0.917,3.219-0.271,6.677,1.74,9.354  c2.021,2.667,5.177,4.24,8.521,4.24h192c3.344,0,6.5-1.573,8.521-4.24c2.01-2.677,2.656-6.135,1.74-9.354l-20.271-70.948  l21.083-47.427C376.958,348.76,384,315.573,384,281.385z"/>
<path style="fill:#78909C;" d="M216.406,36.208c2.833-8.896,11-14.875,20.323-14.875h38.542c9.323,0,17.49,5.979,20.323,14.875  L304.438,64h-96.875L216.406,36.208z"/>
<path id="SVGCleanerId_0" style="fill:#78909C;" d="M174.146,490.667l17.448-61.073c0.688-2.406,0.5-4.969-0.51-7.26l-7.557-17  h29.807h85.333h29.807l-7.557,17c-1.01,2.292-1.198,4.854-0.51,7.26l17.448,61.073H174.146z"/>
<path style="fill:#FF6F00;" d="M240.323,350.5c-2.781-7.073-5.656-14.375-5.656-30.5c0-11.76,9.573-21.333,21.333-21.333  c11.76,0,21.333,9.573,21.333,21.333c0,16.125-2.875,23.427-5.656,30.5c-2.469,6.26-5.01,12.729-5.01,22.833  c0,3.99,0.646,7.531,1.771,10.667h-24.875c1.125-3.135,1.771-6.677,1.771-10.667C245.333,363.229,242.792,356.76,240.323,350.5z"/>
<linearGradient id="SVGCleanerId_1_2_" gradientUnits="userSpaceOnUse" x1="-37.8598" y1="639.8026" x2="-32.1098" y2="629.9896" gradientTransform="matrix(21.3333 0 0 -21.3333 996.3334 13791.667)">
	<stop offset="0" style="stop-color:#FFCA28"/>
	<stop offset="0.09" style="stop-color:#FFC222"/>
	<stop offset="0.449" style="stop-color:#FFA610"/>
	<stop offset="0.765" style="stop-color:#FF9504"/>
	<stop offset="1" style="stop-color:#FF8F00"/>
</linearGradient>
<path id="SVGCleanerId_1" style="fill:url(#SVGCleanerId_1_2_);" d="M343.573,371.365L337.956,384h-38.378  c-1.449-0.214-11.578-1.974-11.578-10.667c0-6.063,1.406-9.625,3.531-15.021c3.177-8.083,7.135-18.146,7.135-38.313  c0-23.531-19.135-42.667-42.667-42.667S213.333,296.469,213.333,320c0,20.167,3.958,30.229,7.135,38.313  c2.125,5.396,3.531,8.958,3.531,15.021c0,8.237-9.098,10.259-11.633,10.667h-38.323l-5.617-12.635  c-12.667-28.521-19.094-58.792-19.094-89.979c0-22.813,3.51-45.417,10.427-67.167l41.013-128.885h110.453l41.013,128.875  c6.917,21.76,10.427,44.365,10.427,67.177C362.667,312.573,356.24,342.844,343.573,371.365z"/>
<g>
	<path id="SVGCleanerId_0_1_" style="fill:#78909C;" d="M174.146,490.667l17.448-61.073c0.688-2.406,0.5-4.969-0.51-7.26l-7.557-17   h29.807h85.333h29.807l-7.557,17c-1.01,2.292-1.198,4.854-0.51,7.26l17.448,61.073H174.146z"/>
</g>
<g>
	
		<linearGradient id="SVGCleanerId_1_3_" gradientUnits="userSpaceOnUse" x1="-37.8598" y1="639.8026" x2="-32.1098" y2="629.9896" gradientTransform="matrix(21.3333 0 0 -21.3333 996.3334 13791.667)">
		<stop offset="0" style="stop-color:#FFCA28"/>
		<stop offset="0.09" style="stop-color:#FFC222"/>
		<stop offset="0.449" style="stop-color:#FFA610"/>
		<stop offset="0.765" style="stop-color:#FF9504"/>
		<stop offset="1" style="stop-color:#FF8F00"/>
	</linearGradient>
	<path id="SVGCleanerId_1_1_" style="fill:url(#SVGCleanerId_1_3_);" d="M343.573,371.365L337.956,384h-38.378   c-1.449-0.214-11.578-1.974-11.578-10.667c0-6.063,1.406-9.625,3.531-15.021c3.177-8.083,7.135-18.146,7.135-38.313   c0-23.531-19.135-42.667-42.667-42.667S213.333,296.469,213.333,320c0,20.167,3.958,30.229,7.135,38.313   c2.125,5.396,3.531,8.958,3.531,15.021c0,8.237-9.098,10.259-11.633,10.667h-38.323l-5.617-12.635   c-12.667-28.521-19.094-58.792-19.094-89.979c0-22.813,3.51-45.417,10.427-67.167l41.013-128.885h110.453l41.013,128.875   c6.917,21.76,10.427,44.365,10.427,67.177C362.667,312.573,356.24,342.844,343.573,371.365z"/>
</g>
<path style="opacity:0.2;fill:#FFFFFF;enable-background:new    ;" d="M240.583,21.333h-3.854c-9.323,0-17.49,5.979-20.323,14.875  L207.563,64h9.688l7.076-27.792C226.591,27.313,233.125,21.333,240.583,21.333z"/>
<path style="opacity:0.1;enable-background:new    ;" d="M295.594,36.208c-2.833-8.896-11-14.875-20.323-14.875h-3.854  c7.458,0,13.992,5.979,16.258,14.875L294.75,64h9.688L295.594,36.208z"/>
<path style="opacity:0.2;fill:#FFFFFF;enable-background:new    ;" d="M170.667,281.385c0-22.813,2.809-45.417,8.341-67.167  l32.811-128.885h-11.046L159.76,214.219c-6.917,21.75-10.427,44.354-10.427,67.167c0,31.188,6.427,61.458,19.094,89.979L174.044,384  h16.391l-4.493-12.635C175.809,342.844,170.667,312.573,170.667,281.385z"/>
<path style="opacity:0.1;enable-background:new    ;" d="M352.24,214.208L311.227,85.333h-11.046l32.811,128.875  c5.533,21.76,8.341,44.365,8.341,67.177c0,31.188-5.142,61.458-15.275,89.979L321.565,384h16.391l5.617-12.635  c12.667-28.521,19.094-58.792,19.094-89.979C362.667,258.573,359.156,235.969,352.24,214.208z"/>
<circle style="fill:#303C42;" cx="245.333" cy="160" r="32"/>
<circle style="fill:#FF6F00;" cx="245.333" cy="160" r="10.667"/>
<circle style="fill:#303C42;" cx="298.667" cy="234.667" r="42.667"/>
<circle style="fill:#FF6F00;" cx="298.667" cy="234.667" r="21.333"/>
<radialGradient id="SVGID_1_" cx="-34.9061" cy="631.5004" r="1.716" gradientTransform="matrix(21.3333 0 0 -21.3333 996.3334 13791.667)" gradientUnits="userSpaceOnUse">
	<stop offset="0" style="stop-color:#FFFFFF;stop-opacity:0.3"/>
	<stop offset="1" style="stop-color:#FFFFFF;stop-opacity:0"/>
</radialGradient>
<path style="fill:url(#SVGID_1_);" d="M240.323,350.5c-2.781-7.073-5.656-14.375-5.656-30.5c0-11.76,9.573-21.333,21.333-21.333  c11.76,0,21.333,9.573,21.333,21.333c0,16.125-2.875,23.427-5.656,30.5c-2.469,6.26-5.01,12.729-5.01,22.833  c0,3.99,0.646,7.531,1.771,10.667h-24.875c1.125-3.135,1.771-6.677,1.771-10.667C245.333,363.229,242.792,356.76,240.323,350.5z"/>
<radialGradient id="SVGID_2_" cx="-35.4371" cy="639.2654" r="0.444" gradientTransform="matrix(21.3333 0 0 -21.3333 996.3334 13791.667)" gradientUnits="userSpaceOnUse">
	<stop offset="0" style="stop-color:#FFFFFF;stop-opacity:0.3"/>
	<stop offset="1" style="stop-color:#FFFFFF;stop-opacity:0"/>
</radialGradient>
<circle style="fill:url(#SVGID_2_);" cx="245.333" cy="160" r="10.667"/>
<radialGradient id="SVGID_3_" cx="-33.1251" cy="635.8904" r="1.266" gradientTransform="matrix(21.3333 0 0 -21.3333 996.3334 13791.667)" gradientUnits="userSpaceOnUse">
	<stop offset="0" style="stop-color:#FFFFFF;stop-opacity:0.3"/>
	<stop offset="1" style="stop-color:#FFFFFF;stop-opacity:0"/>
</radialGradient>
<circle style="fill:url(#SVGID_3_);" cx="298.667" cy="234.667" r="21.333"/>
<linearGradient id="SVGID_4_" gradientUnits="userSpaceOnUse" x1="-36.4017" y1="629.183" x2="-30.7847" y2="623.5659" gradientTransform="matrix(21.3333 0 0 -21.3333 996.3334 13791.667)">
	<stop offset="0" style="stop-color:#000000;stop-opacity:0.1"/>
	<stop offset="1" style="stop-color:#000000;stop-opacity:0"/>
</linearGradient>
<path style="fill:url(#SVGID_4_);" d="M337.854,490.667l-17.448-61.073c-0.688-2.406-0.5-4.969,0.51-7.26l7.557-17h-29.807h-85.333  h-29.807l85.333,85.333H337.854z"/>
<path style="opacity:0.2;fill:#FFFFFF;enable-background:new    ;" d="M183.526,405.333l7.557,17c1.01,2.292,1.198,4.854,0.51,7.26  l-17.448,61.073h16.371l13.958-61.073c0.266-1.163-0.142-2.322-0.198-3.509L183.526,405.333z"/>
<linearGradient id="SVGID_5_" gradientUnits="userSpaceOnUse" x1="-41.3792" y1="636.8372" x2="-26.44" y2="629.871" gradientTransform="matrix(21.3333 0 0 -21.3333 996.3334 13791.667)">
	<stop offset="0" style="stop-color:#FFFFFF;stop-opacity:0.2"/>
	<stop offset="1" style="stop-color:#FFFFFF;stop-opacity:0"/>
</linearGradient>
<path style="fill:url(#SVGID_5_);" d="M384,281.385c0-25.01-3.844-49.781-11.427-73.646l-56.646-178.01  C310.26,11.948,293.927,0,275.271,0h-38.542c-18.656,0-34.99,11.948-40.656,29.729L139.427,207.75  C131.844,231.604,128,256.375,128,281.385c0,34.188,7.042,67.375,20.927,98.646l21.083,47.427l-20.271,70.948  c-0.917,3.219-0.271,6.677,1.74,9.354c2.021,2.667,5.177,4.24,8.521,4.24h192c3.344,0,6.5-1.573,8.521-4.24  c2.01-2.677,2.656-6.135,1.74-9.354l-20.271-70.948l21.083-47.427C376.958,348.76,384,315.573,384,281.385z"/>
<g>
</g>
<g>
</g>
<g>
</g>
<g>
</g>
<g>
</g>
<g>
</g>
<g>
</g>
<g>
</g>
<g>
</g>
<g>
</g>
<g>
</g>
<g>
</g>
<g>
</g>
<g>
</g>
<g>
</g>
</svg>
