<?xml version="1.0" encoding="iso-8859-1"?>
<!-- Generator: Adobe Illustrator 19.0.0, SVG Export Plug-In . SVG Version: 6.00 Build 0)  -->
<svg xmlns="http://www.w3.org/2000/svg" xmlns:xlink="http://www.w3.org/1999/xlink" version="1.1" id="Capa_1" x="0px" y="0px" viewBox="0 0 512 512" style="enable-background:new 0 0 512 512;" xml:space="preserve">
<path style="fill:#303C42;" d="M501.333,0h-256c-4.583,0-8.667,2.937-10.125,7.292l-128,384c-0.096,0.289,0.031,0.586-0.039,0.879  c-0.203,0.823-0.503,1.611-0.503,2.496c0,16.354-14.396,22.792-39.854,32.76C37.042,439.083,0,453.594,0,501.333  C0,507.229,4.771,512,10.667,512s10.667-4.771,10.667-10.667c0-30.958,20.125-41.063,53.25-54.042  c22.76-8.909,48.031-19.081,52.492-44.633l377.633-125.878c4.354-1.448,7.292-5.521,7.292-10.115v-256  C512,4.771,507.229,0,501.333,0z"/>
<polygon style="fill:#FF6F00;" points="388.417,138.667 490.667,36.417 490.667,240.917 "/>
<polygon style="fill:#FFCA28;" points="481.589,262.005 156.818,370.266 373.333,153.75 "/>
<polygon style="fill:#7CB342;" points="373.333,123.583 271.083,21.333 475.583,21.333 "/>
<polygon style="fill:#8E24AA;" points="249.995,30.411 358.25,138.667 141.754,355.163 "/>
<g>
	<polygon style="opacity:0.2;fill:#FFFFFF;enable-background:new    ;" points="460.5,36.417 475.583,21.333 271.083,21.333    286.167,36.417  "/>
	<polygon style="opacity:0.2;fill:#FFFFFF;enable-background:new    ;" points="265.059,45.495 249.995,30.411 141.754,355.163    171.889,325.027  "/>
</g>
<polygon style="opacity:0.1;enable-background:new    ;" points="475.564,51.52 490.647,36.436 490.647,240.936 475.564,225.853 "/>
<polygon style="opacity:0.1;enable-background:new    ;" points="466.486,246.961 481.569,262.025 156.818,370.266 186.953,340.13   "/>
<linearGradient id="SVGID_1_" gradientUnits="userSpaceOnUse" x1="-40.4538" y1="637.166" x2="-24.6125" y2="629.7789" gradientTransform="matrix(21.3333 0 0 -21.3333 996.3334 13791.667)">
	<stop offset="0" style="stop-color:#FFFFFF;stop-opacity:0.2"/>
	<stop offset="1" style="stop-color:#FFFFFF;stop-opacity:0"/>
</linearGradient>
<path style="fill:url(#SVGID_1_);" d="M501.333,0h-256c-4.583,0-8.667,2.937-10.125,7.292l-128,384  c-0.096,0.289,0.031,0.586-0.039,0.879c-0.203,0.823-0.503,1.611-0.503,2.496c0,16.354-14.396,22.792-39.854,32.76  C37.042,439.083,0,453.594,0,501.333C0,507.229,4.771,512,10.667,512s10.667-4.771,10.667-10.667  c0-30.958,20.125-41.063,53.25-54.042c22.76-8.909,48.031-19.081,52.492-44.633l377.633-125.878  c4.354-1.448,7.292-5.521,7.292-10.115v-256C512,4.771,507.229,0,501.333,0z"/>
<g>
</g>
<g>
</g>
<g>
</g>
<g>
</g>
<g>
</g>
<g>
</g>
<g>
</g>
<g>
</g>
<g>
</g>
<g>
</g>
<g>
</g>
<g>
</g>
<g>
</g>
<g>
</g>
<g>
</g>
</svg>
