<?xml version="1.0" encoding="iso-8859-1"?>
<!-- Generator: Adobe Illustrator 19.0.0, SVG Export Plug-In . SVG Version: 6.00 Build 0)  -->
<svg xmlns="http://www.w3.org/2000/svg" xmlns:xlink="http://www.w3.org/1999/xlink" version="1.1" id="Capa_1" x="0px" y="0px" viewBox="0 0 469.333 469.333" style="enable-background:new 0 0 469.333 469.333;" xml:space="preserve">
<path style="fill:#303C42;" d="M452.208,201.854c-18.521-32.396-53.188-52.521-90.521-52.521H352c-17.646,0-32-14.354-32-32v-10.667  h10.667c5.896,0,10.667-4.771,10.667-10.667V42.667C341.333,19.146,322.188,0,298.667,0h-128C147.146,0,128,19.146,128,42.667V96  c0,5.896,4.771,10.667,10.667,10.667h10.667v10.667c0,17.646-14.354,32-32,32h-9.688c-37.333,0-72,20.125-90.521,52.521  C5.917,221.458,0,243.771,0,266.354c0,15.604,2.792,30.979,8.292,45.667l56.396,150.396c1.563,4.167,5.542,6.917,9.979,6.917h320  c4.438,0,8.417-2.75,9.979-6.917L461.063,312c5.479-14.667,8.271-30.042,8.271-45.646  C469.333,243.771,463.417,221.458,452.208,201.854z"/>
<path style="fill:#666666;" d="M149.333,42.667c0-11.771,9.563-21.333,21.333-21.333h128c11.771,0,21.333,9.563,21.333,21.333  v42.667H149.333V42.667z"/>
<path style="opacity:0.2;fill:#FFFFFF;enable-background:new    ;" d="M202.667,21.333h-32c-11.771,0-21.333,9.563-21.333,21.333  v42.667h32V42.667C181.333,30.896,190.896,21.333,202.667,21.333z"/>
<path style="opacity:0.1;enable-background:new    ;" d="M298.667,21.333h-32c11.771,0,21.333,9.563,21.333,21.333v42.667h32V42.667  C320,30.896,310.438,21.333,298.667,21.333z"/>
<path style="fill:#5E35B1;" d="M441.083,304.521L387.271,448H82.063L28.271,304.542c-4.604-12.292-6.938-25.146-6.938-38.188  c0-18.875,4.958-37.521,14.333-53.917c14.708-25.771,42.292-41.771,71.979-41.771h9.688c29.417,0,53.333-23.917,53.333-53.333  v-10.667h128v10.667c0,29.417,23.917,53.333,53.333,53.333h9.688c29.688,0,57.271,16,71.979,41.771  C443.042,228.833,448,247.479,448,266.354C448,279.396,445.667,292.25,441.083,304.521z"/>
<path style="opacity:0.2;fill:#FFFFFF;enable-background:new    ;" d="M70.938,316.909C66.333,303.849,64,290.191,64,276.335  c0-20.055,4.958-39.866,14.333-57.286c14.708-27.382,42.292-44.382,71.979-44.382H160c29.417,0,53.333-25.411,53.333-56.667v-11.333  h-42.667v10.667c0,29.417-23.917,53.333-53.333,53.333h-9.688c-29.688,0-57.271,16-71.979,41.771  c-9.375,16.396-14.333,35.042-14.333,53.917c0,13.042,2.333,25.896,6.938,38.188L82.063,448h35.138L70.938,316.909z"/>
<path style="opacity:0.1;enable-background:new    ;" d="M398.396,316.909c4.604-13.06,6.938-26.717,6.938-40.574  c0-20.055-4.958-39.866-14.333-57.286c-14.708-27.382-42.292-44.382-71.979-44.382h-9.688C279.917,174.667,256,149.255,256,118  v-11.333h42.667v10.667c0,29.417,23.917,53.333,53.333,53.333h9.688c29.688,0,57.271,16,71.979,41.771  C443.042,228.833,448,247.479,448,266.354c0,13.042-2.333,25.896-6.938,38.188L387.271,448h-35.138L398.396,316.909z"/>
<path style="fill:#303C42;" d="M373.333,213.333H96c-3.063,0-5.979,1.313-8,3.604c-2.021,2.292-2.958,5.354-2.583,8.396L106.75,396  c0.667,5.333,5.208,9.333,10.583,9.333H352c5.375,0,9.917-4,10.583-9.333l21.333-170.667c0.375-3.042-0.563-6.104-2.583-8.396  C379.313,214.646,376.396,213.333,373.333,213.333z"/>
<g>
	<polygon style="fill:#E6E6E6;" points="342.583,384 126.75,384 108.083,234.667 361.25,234.667  "/>
	<polygon style="fill:#E6E6E6;" points="342.583,384 126.75,384 108.083,234.667 361.25,234.667  "/>
</g>
<polygon style="opacity:0.2;fill:#FFFFFF;enable-background:new    ;" points="108.083,234.667 126.75,384 152.823,384   138.667,234.667 "/>
<polygon style="opacity:0.1;enable-background:new    ;" points="330.667,234.667 316.51,384 342.583,384 361.25,234.667 "/>
<linearGradient id="SVGID_1_" gradientUnits="userSpaceOnUse" x1="-65.3928" y1="616.5421" x2="-45.7735" y2="607.3939" gradientTransform="matrix(21.3333 0 0 -21.3333 1430.1112 13315.2227)">
	<stop offset="0" style="stop-color:#FFFFFF;stop-opacity:0.2"/>
	<stop offset="1" style="stop-color:#FFFFFF;stop-opacity:0"/>
</linearGradient>
<path style="fill:url(#SVGID_1_);" d="M452.208,201.854c-18.521-32.396-53.188-52.521-90.521-52.521H352c-17.646,0-32-14.354-32-32  v-10.667h10.667c5.896,0,10.667-4.771,10.667-10.667V42.667C341.333,19.146,322.188,0,298.667,0h-128  C147.146,0,128,19.146,128,42.667V96c0,5.896,4.771,10.667,10.667,10.667h10.667v10.667c0,17.646-14.354,32-32,32h-9.688  c-37.333,0-72,20.125-90.521,52.521C5.917,221.458,0,243.771,0,266.354c0,15.604,2.792,30.979,8.292,45.667l56.396,150.396  c1.563,4.167,5.542,6.917,9.979,6.917h320c4.438,0,8.417-2.75,9.979-6.917L461.063,312c5.479-14.667,8.271-30.042,8.271-45.646  C469.333,243.771,463.417,221.458,452.208,201.854z"/>
<g>
</g>
<g>
</g>
<g>
</g>
<g>
</g>
<g>
</g>
<g>
</g>
<g>
</g>
<g>
</g>
<g>
</g>
<g>
</g>
<g>
</g>
<g>
</g>
<g>
</g>
<g>
</g>
<g>
</g>
</svg>
