<?xml version="1.0" encoding="iso-8859-1"?>
<!-- Generator: Adobe Illustrator 19.0.0, SVG Export Plug-In . SVG Version: 6.00 Build 0)  -->
<svg xmlns="http://www.w3.org/2000/svg" xmlns:xlink="http://www.w3.org/1999/xlink" version="1.1" id="Capa_1" x="0px" y="0px" viewBox="0 0 512 512" style="enable-background:new 0 0 512 512;" xml:space="preserve">
<path style="fill:#303C42;" d="M437.333,277.333h-11.746c-4.956-24.314-26.5-42.667-52.254-42.667h-10.667V192h10.667  c17.646,0,32-14.354,32-32s-14.354-32-32-32h-10.667c0-51.508-36.708-94.598-85.333-104.51V10.667  C277.333,4.771,272.563,0,266.667,0h-21.333c-5.896,0-10.667,4.771-10.667,10.667V23.49c-48.625,9.913-85.333,53.003-85.333,104.51  h-10.667c-17.646,0-32,14.354-32,32s14.354,32,32,32h10.667v42.667h-10.667c-25.754,0-47.298,18.353-52.254,42.667H74.667  C68.771,277.333,64,282.104,64,288v21.333C64,315.229,68.771,320,74.667,320h11.746c4.956,24.314,26.5,42.667,52.254,42.667h10.667  v64c-23.531,0-42.667,19.135-42.667,42.667v32c0,5.896,4.771,10.667,10.667,10.667h277.333c5.896,0,10.667-4.771,10.667-10.667v-32  c0-23.531-19.135-42.667-42.667-42.667v-64h10.667c25.754,0,47.298-18.353,52.254-42.667h11.746c5.896,0,10.667-4.771,10.667-10.667  V288C448,282.104,443.229,277.333,437.333,277.333z"/>
<path style="fill:#D32F2F;" d="M256,42.667c47.052,0,85.333,38.281,85.333,85.333H170.667C170.667,80.948,208.948,42.667,256,42.667  z"/>
<path style="opacity:0.2;fill:#FFFFFF;enable-background:new    ;" d="M170.667,128h32c0-47.052,23.926-85.333,53.333-85.333  C208.948,42.667,170.667,80.948,170.667,128z"/>
<path style="opacity:0.1;enable-background:new    ;" d="M256,42.667c29.408,0,53.333,38.281,53.333,85.333h32  C341.333,80.948,303.052,42.667,256,42.667z"/>
<g>
	<path style="fill:#D32F2F;" d="M128,160c0-5.885,4.781-10.667,10.667-10.667h234.667c5.885,0,10.667,4.781,10.667,10.667   c0,5.885-4.781,10.667-10.667,10.667H138.667C132.781,170.667,128,165.885,128,160z"/>
	<path style="fill:#D32F2F;" d="M138.667,341.333c-17.646,0-32-14.354-32-32V288c0-17.646,14.354-32,32-32h10.667v85.333H138.667z"/>
	<path style="fill:#D32F2F;" d="M384,469.333v21.333H128v-21.333c0-11.76,9.573-21.333,21.333-21.333H160h192h10.667   C374.427,448,384,457.573,384,469.333z"/>
</g>
<path style="opacity:0.2;fill:#FFFFFF;enable-background:new    ;" d="M181.333,448H160h-10.667  c-11.76,0-21.333,9.573-21.333,21.333v21.333h32v-21.333C160,457.573,169.573,448,181.333,448z"/>
<path style="opacity:0.1;enable-background:new    ;" d="M362.667,448H352h-21.333c11.76,0,21.333,9.573,21.333,21.333v21.333h32  v-21.333C384,457.573,374.427,448,362.667,448z"/>
<rect x="170.667" y="192" style="fill:#D32F2F;" width="170.667" height="234.667"/>
<rect x="320" y="192" style="opacity:0.1;enable-background:new    ;" width="21.333" height="234.667"/>
<path style="fill:#D32F2F;" d="M373.333,341.333h-10.667V256h10.667c17.646,0,32,14.354,32,32v21.333  C405.333,326.979,390.979,341.333,373.333,341.333z"/>
<linearGradient id="SVGID_1_" gradientUnits="userSpaceOnUse" x1="-36.7031" y1="639.4844" x2="-28.7031" y2="631.4844" gradientTransform="matrix(21.3333 0 0 -21.3333 996.3334 13791.667)">
	<stop offset="0" style="stop-color:#000000;stop-opacity:0.1"/>
	<stop offset="1" style="stop-color:#000000;stop-opacity:0"/>
</linearGradient>
<path style="fill:url(#SVGID_1_);" d="M341.333,362.667V192H170.667L341.333,362.667z"/>
<g>
	<path style="fill:#303C42;" d="M256,213.333c-5.896,0-10.667,4.771-10.667,10.667v170.667c0,5.896,4.771,10.667,10.667,10.667   c5.896,0,10.667-4.771,10.667-10.667V224C266.667,218.104,261.896,213.333,256,213.333z"/>
	<path style="fill:#303C42;" d="M202.667,213.333c-5.896,0-10.667,4.771-10.667,10.667v170.667c0,5.896,4.771,10.667,10.667,10.667   s10.667-4.771,10.667-10.667V224C213.333,218.104,208.563,213.333,202.667,213.333z"/>
	<path style="fill:#303C42;" d="M309.333,213.333c-5.896,0-10.667,4.771-10.667,10.667v170.667c0,5.896,4.771,10.667,10.667,10.667   S320,400.563,320,394.667V224C320,218.104,315.229,213.333,309.333,213.333z"/>
</g>
<path style="opacity:0.1;enable-background:new    ;" d="M362.667,298.667v42.667h10.667c17.646,0,32-14.354,32-32v-10.667H362.667z  "/>
<path style="opacity:0.1;enable-background:new    ;" d="M149.333,298.667v42.667h-10.667c-17.646,0-32-14.354-32-32v-10.667  H149.333z"/>
<linearGradient id="SVGID_2_" gradientUnits="userSpaceOnUse" x1="-42.8396" y1="636.8796" x2="-25.0418" y2="628.5802" gradientTransform="matrix(21.3333 0 0 -21.3333 996.3334 13791.667)">
	<stop offset="0" style="stop-color:#FFFFFF;stop-opacity:0.2"/>
	<stop offset="1" style="stop-color:#FFFFFF;stop-opacity:0"/>
</linearGradient>
<path style="fill:url(#SVGID_2_);" d="M437.333,277.333h-11.746c-4.956-24.314-26.5-42.667-52.254-42.667h-10.667V192h10.667  c17.646,0,32-14.354,32-32s-14.354-32-32-32h-10.667c0-51.508-36.708-94.598-85.333-104.51V10.667  C277.333,4.771,272.563,0,266.667,0h-21.333c-5.896,0-10.667,4.771-10.667,10.667V23.49c-48.625,9.913-85.333,53.003-85.333,104.51  h-10.667c-17.646,0-32,14.354-32,32s14.354,32,32,32h10.667v42.667h-10.667c-25.754,0-47.298,18.353-52.254,42.667H74.667  C68.771,277.333,64,282.104,64,288v21.333C64,315.229,68.771,320,74.667,320h11.746c4.956,24.314,26.5,42.667,52.254,42.667h10.667  v64c-23.531,0-42.667,19.135-42.667,42.667v32c0,5.896,4.771,10.667,10.667,10.667h277.333c5.896,0,10.667-4.771,10.667-10.667v-32  c0-23.531-19.135-42.667-42.667-42.667v-64h10.667c25.754,0,47.298-18.353,52.254-42.667h11.746c5.896,0,10.667-4.771,10.667-10.667  V288C448,282.104,443.229,277.333,437.333,277.333z"/>
<g>
</g>
<g>
</g>
<g>
</g>
<g>
</g>
<g>
</g>
<g>
</g>
<g>
</g>
<g>
</g>
<g>
</g>
<g>
</g>
<g>
</g>
<g>
</g>
<g>
</g>
<g>
</g>
<g>
</g>
</svg>
