<?xml version="1.0" encoding="iso-8859-1"?>
<!-- Generator: Adobe Illustrator 19.0.0, SVG Export Plug-In . SVG Version: 6.00 Build 0)  -->
<svg xmlns="http://www.w3.org/2000/svg" xmlns:xlink="http://www.w3.org/1999/xlink" version="1.1" id="Capa_1" x="0px" y="0px" viewBox="0 0 512 512" style="enable-background:new 0 0 512 512;" xml:space="preserve">
<path style="fill:#303C42;" d="M419.167,85.333h39.5c5.896,0,10.667-4.771,10.667-10.667v-64C469.333,4.771,464.563,0,458.667,0H352  c-5.896,0-10.667,4.771-10.667,10.667v49.188c0,17.75,3.958,35.208,11.458,50.5c27.396,55.958,41.875,104.458,41.875,140.313  C394.667,324.188,332.458,384,256,384s-138.667-59.813-138.667-133.333c0-35.854,14.479-84.354,41.875-140.313  c7.5-15.292,11.458-32.75,11.458-50.5V10.667C170.667,4.771,165.896,0,160,0H53.333c-5.896,0-10.667,4.771-10.667,10.667v64  c0,5.896,4.771,10.667,10.667,10.667h39.5c-52.354,61.458-71.5,137.813-71.5,192C21.333,417.688,115.646,512,256,512  s234.667-94.313,234.667-234.667C490.667,223.146,471.521,146.792,419.167,85.333z"/>
<path style="fill:#E6E6E6;" d="M256,490.667c-129.604,0-213.333-83.729-213.333-213.333c0-55.375,21.583-135.708,82.125-195.042  c3.104-3.042,4.063-7.646,2.417-11.667c-1.646-4-5.542-6.625-9.875-6.625H64V21.333h85.333v38.521  c0,14.521-3.208,28.729-9.292,41.125C111.229,159.833,96,211.583,96,250.667c0,85.292,71.771,154.667,160,154.667  s160-69.375,160-154.667c0-39.083-15.229-90.833-44.042-149.688c-6.083-12.396-9.292-26.604-9.292-41.125V21.333H448V64h-53.333  c-4.333,0-8.229,2.625-9.875,6.625c-1.646,4.021-0.688,8.625,2.417,11.667c60.542,59.333,82.125,139.667,82.125,195.042  C469.333,406.938,385.604,490.667,256,490.667z"/>
<g>
	<rect x="362.667" y="21.333" style="opacity:0.2;fill:#FFFFFF;enable-background:new    ;" width="85.333" height="19.563"/>
	<rect x="64" y="21.333" style="opacity:0.2;fill:#FFFFFF;enable-background:new    ;" width="85.333" height="19.563"/>
	<path style="opacity:0.2;fill:#FFFFFF;enable-background:new    ;" d="M96.483,259.874C96.264,263.37,96,266.904,96,270.221   c0,85.292,71.771,154.667,160,154.667s160-69.375,160-154.667c0-3.318-0.264-6.852-0.483-10.348   c-4.969,80.997-74.503,145.46-159.517,145.46S101.452,340.871,96.483,259.874z"/>
</g>
<path style="opacity:0.1;enable-background:new    ;" d="M256,472.888c-126.335,0-208.846-79.691-212.941-203.746  c-0.096,2.701-0.392,5.596-0.392,8.191c0,129.604,83.729,213.333,213.333,213.333s213.333-83.729,213.333-213.333  c0-2.595-0.296-5.491-0.392-8.191C464.846,393.197,382.335,472.888,256,472.888z"/>
<g>
	<circle style="fill:#303C42;" cx="448" cy="256" r="10.667"/>
	<circle style="fill:#303C42;" cx="64" cy="256" r="10.667"/>
	<circle style="fill:#303C42;" cx="85.333" cy="341.333" r="10.667"/>
	<circle style="fill:#303C42;" cx="426.667" cy="341.333" r="10.667"/>
	<circle style="fill:#303C42;" cx="373.333" cy="405.333" r="10.667"/>
	<circle style="fill:#303C42;" cx="138.667" cy="405.333" r="10.667"/>
</g>
<linearGradient id="SVGID_1_" gradientUnits="userSpaceOnUse" x1="-46.7606" y1="641.6841" x2="-23.5893" y2="630.8776" gradientTransform="matrix(21.3333 0 0 -21.3333 996.3334 13791.667)">
	<stop offset="0" style="stop-color:#FFFFFF;stop-opacity:0.2"/>
	<stop offset="1" style="stop-color:#FFFFFF;stop-opacity:0"/>
</linearGradient>
<path style="fill:url(#SVGID_1_);" d="M419.167,85.333h39.5c5.896,0,10.667-4.771,10.667-10.667v-64  C469.333,4.771,464.563,0,458.667,0H352c-5.896,0-10.667,4.771-10.667,10.667v49.188c0,17.75,3.958,35.208,11.458,50.5  c27.396,55.958,41.875,104.458,41.875,140.313C394.667,324.188,332.458,384,256,384s-138.667-59.813-138.667-133.333  c0-35.854,14.479-84.354,41.875-140.313c7.5-15.292,11.458-32.75,11.458-50.5V10.667C170.667,4.771,165.896,0,160,0H53.333  c-5.896,0-10.667,4.771-10.667,10.667v64c0,5.896,4.771,10.667,10.667,10.667h39.5c-52.354,61.458-71.5,137.813-71.5,192  C21.333,417.688,115.646,512,256,512s234.667-94.313,234.667-234.667C490.667,223.146,471.521,146.792,419.167,85.333z"/>
<g>
</g>
<g>
</g>
<g>
</g>
<g>
</g>
<g>
</g>
<g>
</g>
<g>
</g>
<g>
</g>
<g>
</g>
<g>
</g>
<g>
</g>
<g>
</g>
<g>
</g>
<g>
</g>
<g>
</g>
</svg>
