<?xml version="1.0" encoding="iso-8859-1"?>
<!-- Generator: Adobe Illustrator 19.0.0, SVG Export Plug-In . SVG Version: 6.00 Build 0)  -->
<svg xmlns="http://www.w3.org/2000/svg" xmlns:xlink="http://www.w3.org/1999/xlink" version="1.1" id="Capa_1" x="0px" y="0px" viewBox="0 0 512 512" style="enable-background:new 0 0 512 512;" xml:space="preserve">
<path style="fill:#303C42;" d="M401.711,280c-3.625-3.208-8.938-3.583-12.958-0.875c-2.75,1.833-67.563,45.479-79.094,91.625  c-2.604,10.396-12,34.583-42.99,34.583c-8.906,0-53.333-2.563-53.333-53.333c0-21.625,23.24-53.688,65.448-90.25  c26.198-22.708,41.219-55.25,41.219-89.271v-3.056c13.155-13.467,21.333-31.824,21.333-52.09c0-28.771-16.927-54.688-42.667-66.965  V32c0-17.646-14.354-32-32-32c-17.646,0-32,14.354-32,32v18.368c-25.74,12.277-42.667,38.194-42.667,66.965  c0,24.746,12.24,46.559,30.839,60.152c-4.188,18.328-23.819,40.49-44.661,63.889c-33.521,37.604-71.51,80.229-71.51,131.958  c0,90.063,76.938,138.667,149.333,138.667c75.365,0,128-52.646,128-128c0-50,20.01-90.833,20.208-91.25  C406.367,288.438,405.346,283.188,401.711,280z M213.336,117.333c0-16.901,8.172-32.487,21.333-42.37V96c0,17.646,14.354,32,32,32  c17.646,0,32-14.354,32-32V74.964c13.161,9.883,21.333,25.469,21.333,42.37c0,29.417-23.927,53.333-53.333,53.333  S213.336,146.75,213.336,117.333z"/>
<path style="fill:#D7CCC8;" d="M362.669,384c0,73.688-53.573,106.667-106.667,106.667c-62.052,0-128-41.125-128-117.333  c0-43.604,35.115-83,66.104-117.771c21.822-24.483,41.003-46.243,48.033-68.039c7.724,2.711,15.893,4.477,24.53,4.477  c10.923,0,21.229-2.49,30.59-6.724c-3.181,23.053-14.284,44.605-32.454,60.349c-48.302,41.854-72.802,77.646-72.802,106.375  c0,58.938,46.938,74.667,74.667,74.667c37.594,0,57.542-26.208,63.677-50.75c5.063-20.25,24.375-41.167,41.479-56.375  C366.981,336.917,362.669,359.313,362.669,384z"/>
<path style="opacity:0.1;enable-background:new    ;" d="M341.089,353.345c-2.582,69.859-54.656,101.322-106.421,101.322  c-37.053,0-75.388-14.773-100.349-42.815c17.898,51.438,71.072,78.815,121.682,78.815c53.094,0,106.667-32.979,106.667-106.667  c0-24.688,4.313-47.083,9.156-64.458C361.091,329.086,349.494,340.879,341.089,353.345z"/>
<path style="fill:#757575;" d="M256.002,32c0-5.875,4.781-10.667,10.667-10.667c5.885,0,10.667,4.792,10.667,10.667v64  c0,5.875-4.781,10.667-10.667,10.667c-5.885,0-10.667-4.792-10.667-10.667V32z"/>
<linearGradient id="SVGID_1_" gradientUnits="userSpaceOnUse" x1="-34.7897" y1="638.2577" x2="-32.9141" y2="636.3831" gradientTransform="matrix(21.3333 0 0 -21.3333 996.3333 13791.667)">
	<stop offset="0" style="stop-color:#000000;stop-opacity:0.1"/>
	<stop offset="1" style="stop-color:#000000;stop-opacity:0"/>
</linearGradient>
<path style="fill:url(#SVGID_1_);" d="M277.511,232.156c10.66-13.659,17.396-29.842,19.747-46.88  c-9.361,4.234-19.667,6.724-30.59,6.724c-8.637,0-16.806-1.766-24.53-4.477c-0.685,2.121-1.975,4.255-2.882,6.379L277.511,232.156z"/>
<linearGradient id="SVGID_2_" gradientUnits="userSpaceOnUse" x1="-40.0272" y1="636.7598" x2="-26.9781" y2="630.6747" gradientTransform="matrix(21.3333 0 0 -21.3333 996.3333 13791.667)">
	<stop offset="0" style="stop-color:#FFFFFF;stop-opacity:0.2"/>
	<stop offset="1" style="stop-color:#FFFFFF;stop-opacity:0"/>
</linearGradient>
<path style="fill:url(#SVGID_2_);" d="M401.711,280c-3.625-3.208-8.938-3.583-12.958-0.875c-2.75,1.833-67.563,45.479-79.094,91.625  c-2.604,10.396-12,34.583-42.99,34.583c-8.906,0-53.333-2.563-53.333-53.333c0-21.625,23.24-53.688,65.448-90.25  c26.198-22.708,41.219-55.25,41.219-89.271v-3.056c13.155-13.467,21.333-31.824,21.333-52.09c0-28.771-16.927-54.688-42.667-66.965  V32c0-17.646-14.354-32-32-32c-17.646,0-32,14.354-32,32v18.368c-25.74,12.277-42.667,38.194-42.667,66.965  c0,24.746,12.24,46.559,30.839,60.152c-4.188,18.328-23.819,40.49-44.661,63.889c-33.521,37.604-71.51,80.229-71.51,131.958  c0,90.063,76.938,138.667,149.333,138.667c75.365,0,128-52.646,128-128c0-50,20.01-90.833,20.208-91.25  C406.367,288.438,405.346,283.188,401.711,280z M213.336,117.333c0-16.901,8.172-32.487,21.333-42.37V96c0,17.646,14.354,32,32,32  c17.646,0,32-14.354,32-32V74.964c13.161,9.883,21.333,25.469,21.333,42.37c0,29.417-23.927,53.333-53.333,53.333  S213.336,146.75,213.336,117.333z"/>
<g>
</g>
<g>
</g>
<g>
</g>
<g>
</g>
<g>
</g>
<g>
</g>
<g>
</g>
<g>
</g>
<g>
</g>
<g>
</g>
<g>
</g>
<g>
</g>
<g>
</g>
<g>
</g>
<g>
</g>
</svg>
