<?xml version="1.0" encoding="iso-8859-1"?>
<!-- Generator: Adobe Illustrator 19.0.0, SVG Export Plug-In . SVG Version: 6.00 Build 0)  -->
<svg xmlns="http://www.w3.org/2000/svg" xmlns:xlink="http://www.w3.org/1999/xlink" version="1.1" id="Capa_1" x="0px" y="0px" viewBox="0 0 512 512" style="enable-background:new 0 0 512 512;" xml:space="preserve">
<path style="fill:#303C42;" d="M469.333,149.333H384c-3.689,0-7.121,0.883-10.31,2.516l-65.846,18.818h-73.177  c0-5.896-4.771-10.667-10.667-10.667h-21.333c-5.896,0-10.667,4.771-10.667,10.667H43.51c-11.802,0-22.552,6.302-28.042,16.448  C5.49,205.531,0,229.99,0,256c0,26.01,5.49,50.469,15.458,68.875c5.49,10.156,16.24,16.458,28.052,16.458h264.333l65.846,18.818  c3.189,1.633,6.621,2.516,10.31,2.516h85.333C498.646,362.667,512,307.375,512,256S498.646,149.333,469.333,149.333z"/>
<g>
	<path style="fill:#546E7A;" d="M426.667,256c0,31.559,5.064,64.543,15.746,85.333h-56.908l-3.132-0.895   c-6.426-4.384-19.707-33.02-19.707-84.439s13.281-80.055,19.707-84.439l3.132-0.895h56.908   C431.73,191.457,426.667,224.441,426.667,256z"/>
	<path style="fill:#546E7A;" d="M308.333,257.379c0-26.182,6.723-50.746,17.448-65.508l36.885-10.538   C354.789,201.944,351,230.171,351,257.379s3.789,55.435,11.667,76.046l-36.885-10.538   C315.056,308.125,308.333,283.561,308.333,257.379z"/>
	<path style="fill:#546E7A;" d="M290.493,192c-8.337,17.622-13.16,40.158-13.16,64c0,23.842,4.823,46.378,13.16,64H101.854   c-10.146-14.902-16.521-38.625-16.521-64s6.375-49.098,16.521-64H290.493z"/>
	<path style="fill:#546E7A;" d="M34.219,314.719C26.031,299.604,21.333,278.198,21.333,256c0-22.198,4.698-43.604,12.896-58.729   c1.76-3.25,5.313-5.271,9.281-5.271h33.65C68.823,209.622,64,232.158,64,256c0,23.842,4.823,46.378,13.16,64H43.51   C39.542,320,35.979,317.979,34.219,314.719z"/>
</g>
<path style="fill:#455A64;" d="M469.333,341.333c-3.008,0-9.092-9.15-14.013-26.382c8.708-14.648,14.013-35.938,14.013-58.952  c0-23.014-5.305-44.303-14.013-58.952c4.921-17.232,11.005-26.382,14.013-26.382c5.479,0,21.333,29.344,21.333,85.333  S474.813,341.333,469.333,341.333z"/>
<path style="opacity:0.1;enable-background:new    ;" d="M469.333,170.667c-1.276,0-3.161,1.992-5.22,5.203  C470.909,186.52,480,213.568,480,256s-9.091,69.48-15.887,80.13c2.059,3.211,3.944,5.203,5.22,5.203  c5.479,0,21.333-29.344,21.333-85.333S474.813,170.667,469.333,170.667z"/>
<g>
	<path style="opacity:0.2;fill:#FFFFFF;enable-background:new    ;" d="M357.305,199.198c1.518-6.366,3.276-12.406,5.362-17.865   l-36.885,10.538c-3.75,5.161-6.786,11.826-9.441,19.034L357.305,199.198z"/>
	<path style="opacity:0.2;fill:#FFFFFF;enable-background:new    ;" d="M43.51,213.333h26.154   c2.047-7.596,4.443-14.878,7.496-21.333H43.51c-3.969,0-7.521,2.021-9.281,5.271c-3.297,6.083-5.852,13.37-7.939,21.128   C31.336,215.211,37.237,213.333,43.51,213.333z"/>
	<path style="opacity:0.2;fill:#FFFFFF;enable-background:new    ;" d="M282.997,213.333c2.047-7.596,4.443-14.878,7.496-21.333   H101.854c-3.96,5.816-7.125,13.258-9.781,21.333H282.997z"/>
	<path style="opacity:0.2;fill:#FFFFFF;enable-background:new    ;" d="M373.69,194.516c3.189-1.633,6.621-2.516,10.31-2.516h50.586   c2.182-7.866,4.689-15.227,7.827-21.333h-56.908l-3.132,0.895c-3.156,2.154-7.96,10.23-12.038,23.913L373.69,194.516z"/>
</g>
<path style="opacity:0.1;enable-background:new    ;" d="M357.137,315.56c1.518,6.366,3.276,12.406,5.362,17.865l-36.885-10.538  c-3.75-5.161-6.786-11.826-9.441-19.034L357.137,315.56z"/>
<path style="opacity:0.1;enable-background:new    ;" d="M43.343,298.689h26.154c2.047,7.596,4.443,14.878,7.496,21.333h-33.65  c-3.969,0-7.521-2.021-9.281-5.271c-3.297-6.083-5.852-13.37-7.939-21.128C31.169,296.812,37.07,298.689,43.343,298.689z"/>
<path style="opacity:0.1;enable-background:new    ;" d="M282.83,298.689c2.047,7.596,4.443,14.878,7.496,21.333H101.687  c-3.96-5.816-7.125-13.258-9.781-21.333H282.83z"/>
<path style="opacity:0.1;enable-background:new    ;" d="M373.523,317.507c3.189,1.633,6.621,2.516,10.31,2.516h50.586  c2.182,7.866,4.689,15.227,7.827,21.333h-56.908l-3.132-0.895c-3.156-2.154-7.96-10.23-12.038-23.913L373.523,317.507z"/>
<linearGradient id="SVGID_1_" gradientUnits="userSpaceOnUse" x1="-45.0231" y1="639.7812" x2="-23.7307" y2="629.852" gradientTransform="matrix(21.3333 0 0 -21.3333 996.3334 13791.667)">
	<stop offset="0" style="stop-color:#FFFFFF;stop-opacity:0.2"/>
	<stop offset="1" style="stop-color:#FFFFFF;stop-opacity:0"/>
</linearGradient>
<path style="fill:url(#SVGID_1_);" d="M469.333,149.333H384c-3.689,0-7.121,0.883-10.31,2.516l-65.846,18.818h-73.177  c0-5.896-4.771-10.667-10.667-10.667h-21.333c-5.896,0-10.667,4.771-10.667,10.667H43.51c-11.802,0-22.552,6.302-28.042,16.448  C5.49,205.531,0,229.99,0,256c0,26.01,5.49,50.469,15.458,68.875c5.49,10.156,16.24,16.458,28.052,16.458h264.333l65.846,18.818  c3.189,1.633,6.621,2.516,10.31,2.516h85.333C498.646,362.667,512,307.375,512,256S498.646,149.333,469.333,149.333z"/>
<g>
</g>
<g>
</g>
<g>
</g>
<g>
</g>
<g>
</g>
<g>
</g>
<g>
</g>
<g>
</g>
<g>
</g>
<g>
</g>
<g>
</g>
<g>
</g>
<g>
</g>
<g>
</g>
<g>
</g>
</svg>
