<?xml version="1.0" encoding="iso-8859-1"?>
<!-- Generator: Adobe Illustrator 19.0.0, SVG Export Plug-In . SVG Version: 6.00 Build 0)  -->
<svg xmlns="http://www.w3.org/2000/svg" xmlns:xlink="http://www.w3.org/1999/xlink" version="1.1" id="Capa_1" x="0px" y="0px" viewBox="0 0 512 512" style="enable-background:new 0 0 512 512;" xml:space="preserve">
<path style="fill:#303C42;" d="M465.231,2.283c-2.594-2.031-6-2.792-9.146-1.937L285.419,43.01  c-4.75,1.187-8.083,5.448-8.083,10.343V64.02h-21.333c0-23.53-19.135-42.665-42.667-42.665h-10.939  c-9.746-12.873-25.04-21.332-42.395-21.332c-29.406,0-53.333,23.926-53.333,53.331c0,15.878,7.116,29.999,18.164,39.777  c-31.435,12.752-64.197,41.249-81.404,84.259c-2.188,5.469,0.479,11.677,5.948,13.864c1.292,0.521,2.635,0.76,3.958,0.76  c4.229,0,8.24-2.531,9.906-6.708c18.232-45.574,55.725-72.272,86.094-77.517v20.989c-36.135,5.187-64,36.353-64,73.903v266.655  c0,23.53,19.135,42.665,42.667,42.665h149.333c23.531,0,42.667-19.135,42.667-42.665V202.68c0-37.55-27.865-68.716-64-73.903V85.352  h21.333v10.666c0,4.896,3.333,9.156,8.083,10.343l170.667,42.665c0.854,0.219,1.719,0.323,2.583,0.323  c2.354,0,4.667-0.781,6.563-2.26c2.594-2.021,4.104-5.125,4.104-8.406V10.689C469.335,7.408,467.825,4.304,465.231,2.283z"/>
<path style="fill:#D32F2F;" d="M213.335,42.667c11.76,0,21.333,9.573,21.333,21.333v64h-64v-22.413  c24.314-4.956,42.667-26.5,42.667-52.254c0-3.652-0.376-7.219-1.079-10.667H213.335z"/>
<circle style="fill:#E6E6E6;" cx="160" cy="53.333" r="32"/>
<path style="opacity:0.1;enable-background:new    ;" d="M138.669,74.667c0-17.646,14.354-32,32-32  c8.105,0,15.431,3.126,21.076,8.111c-1.328-16.435-14.971-29.444-31.742-29.444c-17.646,0-32,14.354-32,32  c0,9.54,4.281,18.022,10.924,23.889C138.858,76.365,138.669,75.542,138.669,74.667z"/>
<path style="fill:#D32F2F;" d="M298.669,202.667v266.667c0,11.76-9.573,21.333-21.333,21.333H128.002  c-11.76,0-21.333-9.573-21.333-21.333V202.667c0-29.406,23.927-53.333,53.333-53.333h85.333  C274.742,149.333,298.669,173.26,298.669,202.667z"/>
<path style="opacity:0.2;fill:#FFFFFF;enable-background:new    ;" d="M128.002,469.333V202.667  c0-29.406,18.609-53.333,41.482-53.333h-9.482c-29.406,0-53.333,23.927-53.333,53.333v266.667c0,11.76,9.573,21.333,21.333,21.333  h16.592C135.447,490.667,128.002,481.094,128.002,469.333z"/>
<path style="opacity:0.1;enable-background:new    ;" d="M245.335,149.333h-9.482c22.872,0,41.482,23.927,41.482,53.333v266.667  c0,11.76-7.445,21.333-16.592,21.333h16.592c11.76,0,21.333-9.573,21.333-21.333V202.667  C298.669,173.26,274.742,149.333,245.335,149.333z"/>
<polygon style="fill:#4D4D4D;" points="448.002,125 298.669,87.667 298.669,61.667 448.002,24.333 "/>
<polygon style="opacity:0.1;enable-background:new    ;" points="448.002,125 298.669,87.667 298.669,74.667 448.002,74.667 "/>
<linearGradient id="SVGID_1_" gradientUnits="userSpaceOnUse" x1="-37.8623" y1="643.3757" x2="-35.337" y2="640.8504" gradientTransform="matrix(21.3333 0 0 -21.3333 996.3333 13791.667)">
	<stop offset="0" style="stop-color:#000000;stop-opacity:0.1"/>
	<stop offset="1" style="stop-color:#000000;stop-opacity:0"/>
</linearGradient>
<path style="fill:url(#SVGID_1_);" d="M234.669,128V64c0-11.76-9.573-21.333-21.333-21.333h-1.079  c0.703,3.448,1.079,7.014,1.079,10.667c0,25.754-18.353,47.298-42.667,52.254L193.082,128H234.669z"/>
<linearGradient id="SVGID_2_" gradientUnits="userSpaceOnUse" x1="-44.027" y1="639.5704" x2="-27.9561" y2="632.0764" gradientTransform="matrix(21.3333 0 0 -21.3333 996.3333 13791.667)">
	<stop offset="0" style="stop-color:#FFFFFF;stop-opacity:0.2"/>
	<stop offset="1" style="stop-color:#FFFFFF;stop-opacity:0"/>
</linearGradient>
<path style="fill:url(#SVGID_2_);" d="M465.231,2.283c-2.594-2.031-6-2.792-9.146-1.937L285.419,43.01  c-4.75,1.187-8.083,5.448-8.083,10.343V64.02h-21.333c0-23.53-19.135-42.665-42.667-42.665h-10.939  c-9.746-12.873-25.04-21.332-42.395-21.332c-29.406,0-53.333,23.926-53.333,53.331c0,15.878,7.116,29.999,18.164,39.777  c-31.435,12.752-64.197,41.249-81.404,84.259c-2.188,5.469,0.479,11.677,5.948,13.864c1.292,0.521,2.635,0.76,3.958,0.76  c4.229,0,8.24-2.531,9.906-6.708c18.232-45.574,55.725-72.272,86.094-77.517v20.989c-36.135,5.187-64,36.353-64,73.903v266.655  c0,23.53,19.135,42.665,42.667,42.665h149.333c23.531,0,42.667-19.135,42.667-42.665V202.68c0-37.55-27.865-68.716-64-73.903V85.352  h21.333v10.666c0,4.896,3.333,9.156,8.083,10.343l170.667,42.665c0.854,0.219,1.719,0.323,2.583,0.323  c2.354,0,4.667-0.781,6.563-2.26c2.594-2.021,4.104-5.125,4.104-8.406V10.689C469.335,7.408,467.825,4.304,465.231,2.283z"/>
<g>
</g>
<g>
</g>
<g>
</g>
<g>
</g>
<g>
</g>
<g>
</g>
<g>
</g>
<g>
</g>
<g>
</g>
<g>
</g>
<g>
</g>
<g>
</g>
<g>
</g>
<g>
</g>
<g>
</g>
</svg>
