<?xml version="1.0" encoding="iso-8859-1"?>
<!-- Generator: Adobe Illustrator 19.0.0, SVG Export Plug-In . SVG Version: 6.00 Build 0)  -->
<svg xmlns="http://www.w3.org/2000/svg" xmlns:xlink="http://www.w3.org/1999/xlink" version="1.1" id="Capa_1" x="0px" y="0px" viewBox="0 0 512 512" style="enable-background:new 0 0 512 512;" xml:space="preserve">
<path style="fill:#303C42;" d="M437.333,277.333c-1.667,0-3.167,0.208-4.854,0.542c-0.896-0.083-1.813-0.063-2.75,0.063  l-212.208,32.375l0.005,0.035c-24.499,4.607-43.245,34.507-46.207,73.652H84.521c-23.083,0-41.854-18.771-41.854-41.854  c0-20.083,14.313-37.375,34.042-41.125l362.583-69.083c29.771-5.646,51.375-31.771,51.375-62.083  c0-34.833-28.354-63.188-63.188-63.188h-86.746c-2.928-38.379-21.199-68.63-46.254-73.688L82.271,0.604l-0.085,0.553  C79.677,0.773,77.251,0,74.667,0C32.792,0,0,51.542,0,117.333s32.792,117.333,74.667,117.333c2.585,0,5.01-0.773,7.52-1.158  l0.085,0.553l212.708-32.458c24.596-4.98,42.831-35.225,45.755-73.604h86.745c23.083,0,41.854,18.771,41.854,41.854  c0,20.083-14.313,37.375-34.042,41.125L72.708,280.063c-29.771,5.646-51.375,31.771-51.375,62.083  c0,34.833,28.354,63.188,63.188,63.188h86.798c2.962,39.146,21.708,69.046,46.207,73.652l-0.005,0.035l212.208,32.375  c0.854,0.146,1.688,0.125,2.563,0.042c1.417,0.271,3.125,0.563,5.042,0.563C479.208,512,512,460.458,512,394.667  S479.208,277.333,437.333,277.333z"/>
<path style="fill:#D32F2F;" d="M21.333,117.333c0-52.042,24.417-96,53.333-96S128,65.292,128,117.333s-24.417,96-53.333,96  S21.333,169.375,21.333,117.333z"/>
<path style="opacity:0.1;enable-background:new    ;" d="M32,135.333c0-52.042,24.417-96,53.333-96  c10.995,0,21.313,6.409,29.911,17.146c-9.872-21.164-24.432-35.146-40.578-35.146c-28.917,0-53.333,43.958-53.333,96  c0,32.255,9.405,61.35,23.422,78.854C36.945,179.448,32,158.318,32,135.333z"/>
<path style="fill:#D32F2F;" d="M291.271,180.604l-167.858,25.609c15.829-21.358,25.921-52.779,25.921-88.88  s-10.091-67.522-25.922-88.882l167.359,25.527C304.833,56.813,320,81.854,320,117.333S304.833,177.854,291.271,180.604z"/>
<path style="opacity:0.2;fill:#FFFFFF;enable-background:new    ;" d="M290.771,53.979L123.411,28.452  c1.609,2.171,2.875,4.872,4.361,7.245l154.832,23.616c14.063,2.833,29.229,27.875,29.229,63.354c0,26.501-8.465,47.158-18.4,57.072  C306.397,174.939,320,150.943,320,117.333C320,81.854,304.833,56.813,290.771,53.979z"/>
<path style="fill:#D32F2F;" d="M192.592,405.333H224c5.896,0,10.667-4.771,10.667-10.667c0-5.896-4.771-10.667-10.667-10.667  h-31.408c2.6-29.326,15.432-49.583,28.13-52.645l0.007,0.04l3.905-0.596C239.613,331.514,256,357.48,256,394.667  c0,37.185-16.387,63.151-31.365,63.867l-3.906-0.596l-0.007,0.04C208.025,454.917,195.193,434.659,192.592,405.333z"/>
<path style="opacity:0.2;fill:#FFFFFF;enable-background:new    ;" d="M220.723,341.689l0.007,0.04l3.905-0.596  c14.257,0.681,29.618,24.367,31.083,58.701c0.074-1.74,0.283-3.374,0.283-5.167c0-37.186-16.387-63.152-31.366-63.867l-3.905,0.596  l-0.007-0.04c-12.698,3.061-25.53,23.319-28.13,52.645h1.405C198.341,360.318,209.578,344.375,220.723,341.689z"/>
<path style="fill:#D32F2F;" d="M436.104,490.354c-0.104,0-0.229,0-0.333,0c-0.229-0.063-2.563-0.521-2.792-0.563  c-1.042-0.125-2.063-0.146-3.125,0.042l-174.059-26.548c13.085-15.408,21.538-40.059,21.538-68.618  c0-28.561-8.452-53.214-21.539-68.621l173.831-26.525c1.104,0.208,2.25,0.208,3.354,0.021l4.354-0.875  c28.917,0,53.333,43.958,53.333,96C490.667,446.521,466.417,490.354,436.104,490.354z"/>
<path style="opacity:0.2;fill:#FFFFFF;enable-background:new    ;" d="M438.958,318.188c1.104,0.208,2.25,0.208,3.354,0.021  l4.354-0.875c13.271,0,25.456,9.548,34.906,24.598c-9.672-25.849-26.053-43.264-44.24-43.264l-4.354,0.875  c-1.104,0.188-2.25,0.188-3.354-0.021l-173.831,26.525c4.323,5.09,7.896,11.487,11.069,18.402L438.958,318.188z"/>
<linearGradient id="SVGID_1_" gradientUnits="userSpaceOnUse" x1="-43.0013" y1="643.0676" x2="-35.7717" y2="635.838" gradientTransform="matrix(21.3333 0 0 -21.3333 996.3334 13791.667)">
	<stop offset="0" style="stop-color:#000000;stop-opacity:0.1"/>
	<stop offset="1" style="stop-color:#000000;stop-opacity:0"/>
</linearGradient>
<path style="fill:url(#SVGID_1_);" d="M123.413,206.214l154.23-23.53L123.411,28.452c15.831,21.359,25.922,52.78,25.922,88.882  S139.242,184.855,123.413,206.214z"/>
<linearGradient id="SVGID_2_" gradientUnits="userSpaceOnUse" x1="-47.7538" y1="640.5709" x2="-21.6532" y2="628.3961" gradientTransform="matrix(21.3333 0 0 -21.3333 996.3334 13791.667)">
	<stop offset="0" style="stop-color:#FFFFFF;stop-opacity:0.2"/>
	<stop offset="1" style="stop-color:#FFFFFF;stop-opacity:0"/>
</linearGradient>
<path style="fill:url(#SVGID_2_);" d="M437.333,277.333c-1.667,0-3.167,0.208-4.854,0.542c-0.896-0.083-1.813-0.063-2.75,0.063  l-212.208,32.375l0.005,0.035c-24.499,4.607-43.245,34.507-46.207,73.652H84.521c-23.083,0-41.854-18.771-41.854-41.854  c0-20.083,14.313-37.375,34.042-41.125l362.583-69.083c29.771-5.646,51.375-31.771,51.375-62.083  c0-34.833-28.354-63.188-63.188-63.188h-86.746c-2.928-38.379-21.199-68.63-46.254-73.688L82.271,0.604l-0.085,0.553  C79.677,0.773,77.251,0,74.667,0C32.792,0,0,51.542,0,117.333s32.792,117.333,74.667,117.333c2.585,0,5.01-0.773,7.52-1.158  l0.085,0.553l212.708-32.458c24.596-4.98,42.831-35.225,45.755-73.604h86.745c23.083,0,41.854,18.771,41.854,41.854  c0,20.083-14.313,37.375-34.042,41.125L72.708,280.063c-29.771,5.646-51.375,31.771-51.375,62.083  c0,34.833,28.354,63.188,63.188,63.188h86.798c2.962,39.146,21.708,69.046,46.207,73.652l-0.005,0.035l212.208,32.375  c0.854,0.146,1.688,0.125,2.563,0.042c1.417,0.271,3.125,0.563,5.042,0.563C479.208,512,512,460.458,512,394.667  S479.208,277.333,437.333,277.333z"/>
<g>
</g>
<g>
</g>
<g>
</g>
<g>
</g>
<g>
</g>
<g>
</g>
<g>
</g>
<g>
</g>
<g>
</g>
<g>
</g>
<g>
</g>
<g>
</g>
<g>
</g>
<g>
</g>
<g>
</g>
</svg>
