<?xml version="1.0" encoding="iso-8859-1"?>
<!-- Generator: Adobe Illustrator 19.0.0, SVG Export Plug-In . SVG Version: 6.00 Build 0)  -->
<svg xmlns="http://www.w3.org/2000/svg" xmlns:xlink="http://www.w3.org/1999/xlink" version="1.1" id="Capa_1" x="0px" y="0px" viewBox="0 0 512 512" style="enable-background:new 0 0 512 512;" xml:space="preserve">
<path style="fill:#303C42;" d="M512,213.333c0-35.292-28.708-64-64-64c-44.867,0-102.556,31.538-144.275,58.941  c27.404-41.719,58.941-99.408,58.941-144.275c0-35.292-28.708-64-64-64C282.646,0,267.646,5.896,256,16.479  C244.354,5.896,229.354,0,213.333,0c-35.292,0-64,28.708-64,64c0,44.867,31.538,102.556,58.941,144.275  C166.556,180.871,108.867,149.333,64,149.333c-35.292,0-64,28.708-64,64C0,229.354,5.896,244.354,16.479,256  C5.896,267.646,0,282.646,0,298.667c0,35.292,28.708,64,64,64c44.867,0,102.556-31.538,144.275-58.941  c-27.404,41.719-58.941,99.408-58.941,144.275c0,35.292,28.708,64,64,64c16.021,0,31.021-5.896,42.667-16.479  C267.646,506.104,282.646,512,298.667,512c35.292,0,64-28.708,64-64c0-38.73-23.526-87.094-47.589-126.436  c46.893,44.138,109.589,110.199,155.839,185.353c2.021,3.271,5.521,5.083,9.083,5.083c1.917,0,3.854-0.5,5.583-1.583  c5.021-3.083,6.583-9.667,3.5-14.667c-37.452-60.858-85.374-115.865-127.497-158.548c29.363,14.513,60.095,25.465,86.414,25.465  c35.292,0,64-28.708,64-64c0-16.021-5.896-31.021-16.479-42.667C506.104,244.354,512,229.354,512,213.333z"/>
<g>
	<path style="fill:#7CB342;" d="M213.333,21.333c13.479,0,25.917,6.313,34.104,17.333c4.042,5.417,13.083,5.417,17.125,0   c8.188-11.021,20.625-17.333,34.104-17.333c23.521,0,42.667,19.146,42.667,42.667c0,57.458-62.458,144.667-85.333,174.688   C233.125,208.667,170.667,121.458,170.667,64C170.667,40.479,189.813,21.333,213.333,21.333z"/>
	<path style="fill:#7CB342;" d="M21.333,298.667c0-13.479,6.313-25.917,17.333-34.104c2.709-2.021,4.292-5.188,4.292-8.563   s-1.583-6.542-4.292-8.563c-11.021-8.188-17.333-20.625-17.333-34.104c0-23.521,19.146-42.667,42.667-42.667   c57.458,0,144.667,62.458,174.688,85.333C208.667,278.875,121.458,341.333,64,341.333   C40.479,341.333,21.333,322.188,21.333,298.667z"/>
</g>
<g>
	<path style="opacity:0.2;fill:#FFFFFF;enable-background:new    ;" d="M184.889,78.221c0-23.521,19.146-42.667,42.667-42.667   c13.479,0,25.917,6.313,34.104,17.333c4.042,5.417,13.083,5.417,17.125,0c8.188-11.021,20.625-17.333,34.104-17.333   c8.113,0,15.628,2.401,22.092,6.35c-7.5-12.279-20.908-20.572-36.315-20.572c-13.479,0-25.917,6.313-34.104,17.333   c-4.042,5.417-13.083,5.417-17.125,0c-8.188-11.021-20.625-17.333-34.104-17.333c-23.521,0-42.667,19.146-42.667,42.667   c0,57.458,62.458,144.667,85.333,174.688c0.568-0.746,1.263-1.68,1.879-2.495C230.326,197.861,184.889,127.263,184.889,78.221z"/>
	<path style="opacity:0.2;fill:#FFFFFF;enable-background:new    ;" d="M35.556,312.888c0-13.479,6.313-25.917,17.333-34.104   c2.708-2.021,4.292-5.188,4.292-8.563s-1.583-6.542-4.292-8.563c-11.021-8.188-17.333-20.625-17.333-34.104   c0-23.521,19.146-42.667,42.667-42.667c49.042,0,119.639,45.438,157.971,72.99c0.815-0.615,1.749-1.31,2.493-1.878   C208.667,233.125,121.458,170.667,64,170.667c-23.521,0-42.667,19.146-42.667,42.667c0,13.479,6.313,25.917,17.333,34.104   c2.709,2.021,4.292,5.188,4.292,8.563s-1.583,6.542-4.292,8.563c-11.021,8.188-17.333,20.625-17.333,34.104   c0,15.408,8.294,28.815,20.574,36.316C37.957,328.517,35.556,321.001,35.556,312.888z"/>
</g>
<g>
	<path style="fill:#7CB342;" d="M298.667,490.667c-13.479,0-25.917-6.313-34.104-17.333c-2.021-2.708-5.188-4.292-8.563-4.292   s-6.542,1.583-8.563,4.292c-8.188,11.021-20.625,17.333-34.104,17.333c-23.521,0-42.667-19.146-42.667-42.667   c0-57.458,62.458-144.667,85.333-174.688c22.875,30.021,85.333,117.229,85.333,174.688   C341.333,471.521,322.188,490.667,298.667,490.667z"/>
	<path style="fill:#7CB342;" d="M473.333,264.563c11.021,8.188,17.334,20.625,17.334,34.104c0,23.521-19.146,42.667-42.667,42.667   c-57.458,0-144.667-62.458-174.688-85.333c30.021-22.875,117.229-85.333,174.688-85.333c23.521,0,42.667,19.146,42.667,42.667   c0,13.479-6.313,25.917-17.334,34.104c-2.708,2.021-4.291,5.188-4.291,8.563S470.625,262.542,473.333,264.563z"/>
</g>
<path style="opacity:0.1;enable-background:new    ;" d="M256,273.313c-0.647,0.849-1.431,1.901-2.138,2.839  c27.672,38.772,71.471,107.697,71.471,155.849c0,23.521-19.146,42.667-42.667,42.667c-13.479,0-25.917-6.313-34.104-17.333  c-2.021-2.708-5.188-4.292-8.563-4.292s-6.542,1.583-8.563,4.292c-8.188,11.021-20.625,17.333-34.104,17.333  c-7.646,0-14.728-2.186-20.941-5.725c7.348,12.902,21.066,21.725,36.941,21.725c13.479,0,25.917-6.313,34.104-17.333  c2.021-2.708,5.188-4.292,8.563-4.292s6.542,1.583,8.563,4.292c8.188,11.021,20.625,17.333,34.104,17.333  c23.521,0,42.667-19.146,42.667-42.667C341.333,390.542,278.875,303.333,256,273.313z"/>
<path style="opacity:0.1;enable-background:new    ;" d="M473.333,264.563c-2.708-2.021-4.291-5.188-4.291-8.563  s1.583-6.542,4.291-8.563c11.021-8.188,17.334-20.625,17.334-34.104c0-15.875-8.823-29.594-21.725-36.941  c3.539,6.214,5.725,13.296,5.725,20.941c0,13.479-6.313,25.917-17.334,34.104c-2.708,2.021-4.291,5.188-4.291,8.563  s1.583,6.542,4.291,8.563c11.021,8.188,17.334,20.625,17.334,34.104c0,23.521-19.146,42.667-42.667,42.667  c-48.152,0-117.077-43.799-155.849-71.471c-0.938,0.707-1.99,1.491-2.839,2.138c30.021,22.875,117.229,85.333,174.688,85.333  c23.521,0,42.667-19.146,42.667-42.667C490.667,285.188,484.354,272.75,473.333,264.563z"/>
<linearGradient id="SVGID_1_" gradientUnits="userSpaceOnUse" x1="-45.5805" y1="639.5566" x2="-21.2207" y2="628.1973" gradientTransform="matrix(21.3333 0 0 -21.3333 996.3334 13791.667)">
	<stop offset="0" style="stop-color:#FFFFFF;stop-opacity:0.2"/>
	<stop offset="1" style="stop-color:#FFFFFF;stop-opacity:0"/>
</linearGradient>
<path style="fill:url(#SVGID_1_);" d="M512,213.333c0-35.292-28.708-64-64-64c-44.867,0-102.556,31.538-144.275,58.941  c27.404-41.719,58.941-99.408,58.941-144.275c0-35.292-28.708-64-64-64C282.646,0,267.646,5.896,256,16.479  C244.354,5.896,229.354,0,213.333,0c-35.292,0-64,28.708-64,64c0,44.867,31.538,102.556,58.941,144.275  C166.556,180.871,108.867,149.333,64,149.333c-35.292,0-64,28.708-64,64C0,229.354,5.896,244.354,16.479,256  C5.896,267.646,0,282.646,0,298.667c0,35.292,28.708,64,64,64c44.867,0,102.556-31.538,144.275-58.941  c-27.404,41.719-58.941,99.408-58.941,144.275c0,35.292,28.708,64,64,64c16.021,0,31.021-5.896,42.667-16.479  C267.646,506.104,282.646,512,298.667,512c35.292,0,64-28.708,64-64c0-38.73-23.526-87.094-47.589-126.436  c46.893,44.138,109.589,110.199,155.839,185.353c2.021,3.271,5.521,5.083,9.083,5.083c1.917,0,3.854-0.5,5.583-1.583  c5.021-3.083,6.583-9.667,3.5-14.667c-37.452-60.858-85.374-115.865-127.497-158.548c29.363,14.513,60.095,25.465,86.414,25.465  c35.292,0,64-28.708,64-64c0-16.021-5.896-31.021-16.479-42.667C506.104,244.354,512,229.354,512,213.333z"/>
<g>
</g>
<g>
</g>
<g>
</g>
<g>
</g>
<g>
</g>
<g>
</g>
<g>
</g>
<g>
</g>
<g>
</g>
<g>
</g>
<g>
</g>
<g>
</g>
<g>
</g>
<g>
</g>
<g>
</g>
</svg>
