<?xml version="1.0" encoding="iso-8859-1"?>
<!-- Generator: Adobe Illustrator 19.0.0, SVG Export Plug-In . SVG Version: 6.00 Build 0)  -->
<svg xmlns="http://www.w3.org/2000/svg" xmlns:xlink="http://www.w3.org/1999/xlink" version="1.1" id="Capa_1" x="0px" y="0px" viewBox="0 0 512 512" style="enable-background:new 0 0 512 512;" xml:space="preserve">
<path style="fill:#303C42;" d="M282.669,0c-32.354,0-58.667,26.323-58.667,58.667v26.667h-42.667c-3.438,0-6.646,1.646-8.646,4.427  c-2.021,2.781-2.563,6.365-1.479,9.615l20.313,60.896c-4.167,14.927-20.854,76.771-20.854,106.396c0,0.875,0.104,1.74,0.313,2.583  l53.021,212.083v20c0,5.896,4.771,10.667,10.667,10.667c5.896,0,10.667-4.771,10.667-10.667v-20l53.021-212.083  c0.208-0.844,0.313-1.708,0.313-2.583c0-29.625-16.688-91.469-20.854-106.396l20.313-60.896c1.083-3.25,0.542-6.833-1.479-9.615  c-2-2.781-5.208-4.427-8.646-4.427h-42.667V58.667c0-20.583,16.75-37.333,37.333-37.333s37.333,16.75,37.333,37.333  c0,7.479-2.208,14.698-6.354,20.865c-3.313,4.885-2.021,11.51,2.875,14.813c1.813,1.229,3.896,1.823,5.958,1.823  c3.417,0,6.771-1.646,8.833-4.698c6.563-9.708,10.021-21.052,10.021-32.802C341.336,26.323,315.024,0,282.669,0z"/>
<path style="fill:#EC407A;" d="M234.669,436.021l-42.646-170.625c0.436-24.81,13.53-75.441,18.759-94.729h47.773  c5.229,19.288,18.323,69.919,18.759,94.729L234.669,436.021z"/>
<polygon style="fill:#E6E6E6;" points="273.211,106.667 258.977,149.333 210.362,149.333 196.128,106.667 "/>
<polygon style="fill:#EC407A;" points="273.211,106.667 258.977,149.333 210.362,149.333 196.128,106.667 "/>
<path style="opacity:0.1;enable-background:new    ;" d="M258.556,170.667h-11.938c2.616,19.288,9.165,69.919,9.384,94.729  l-21.333,170.625l42.646-170.625C276.879,240.586,263.785,189.954,258.556,170.667z"/>
<g>
	<path style="opacity:0.2;fill:#FFFFFF;enable-background:new    ;" d="M222.72,170.667h-11.938   c-5.229,19.288-18.323,69.919-18.759,94.729l42.646,170.625l-21.333-170.625C213.555,240.586,220.104,189.954,222.72,170.667z"/>
	<polygon style="opacity:0.2;fill:#FFFFFF;enable-background:new    ;" points="196.128,106.667 210.362,149.333 222.509,149.333    215.389,106.667  "/>
</g>
<polygon style="opacity:0.1;enable-background:new    ;" points="253.949,106.667 246.83,149.333 258.977,149.333 273.211,106.667   "/>
<linearGradient id="SVGID_1_" gradientUnits="userSpaceOnUse" x1="-40.8372" y1="637.5204" x2="-30.5983" y2="632.7441" gradientTransform="matrix(21.3333 0 0 -21.3333 996.3334 13791.667)">
	<stop offset="0" style="stop-color:#FFFFFF;stop-opacity:0.2"/>
	<stop offset="1" style="stop-color:#FFFFFF;stop-opacity:0"/>
</linearGradient>
<path style="fill:url(#SVGID_1_);" d="M282.669,0c-32.354,0-58.667,26.323-58.667,58.667v26.667h-42.667  c-3.438,0-6.646,1.646-8.646,4.427c-2.021,2.781-2.563,6.365-1.479,9.615l20.313,60.896c-4.167,14.927-20.854,76.771-20.854,106.396  c0,0.875,0.104,1.74,0.313,2.583l53.021,212.083v20c0,5.896,4.771,10.667,10.667,10.667c5.896,0,10.667-4.771,10.667-10.667v-20  l53.021-212.083c0.208-0.844,0.313-1.708,0.313-2.583c0-29.625-16.688-91.469-20.854-106.396l20.313-60.896  c1.083-3.25,0.542-6.833-1.479-9.615c-2-2.781-5.208-4.427-8.646-4.427h-42.667V58.667c0-20.583,16.75-37.333,37.333-37.333  s37.333,16.75,37.333,37.333c0,7.479-2.208,14.698-6.354,20.865c-3.313,4.885-2.021,11.51,2.875,14.813  c1.813,1.229,3.896,1.823,5.958,1.823c3.417,0,6.771-1.646,8.833-4.698c6.563-9.708,10.021-21.052,10.021-32.802  C341.336,26.323,315.024,0,282.669,0z"/>
<g>
</g>
<g>
</g>
<g>
</g>
<g>
</g>
<g>
</g>
<g>
</g>
<g>
</g>
<g>
</g>
<g>
</g>
<g>
</g>
<g>
</g>
<g>
</g>
<g>
</g>
<g>
</g>
<g>
</g>
</svg>
