<?xml version="1.0" encoding="iso-8859-1"?>
<!-- Generator: Adobe Illustrator 19.0.0, SVG Export Plug-In . SVG Version: 6.00 Build 0)  -->
<svg xmlns="http://www.w3.org/2000/svg" xmlns:xlink="http://www.w3.org/1999/xlink" version="1.1" id="Capa_1" x="0px" y="0px" viewBox="0 0 512 512" style="enable-background:new 0 0 512 512;" xml:space="preserve">
<path style="fill:#303C42;" d="M416,149.333V74.667C416,68.771,411.229,64,405.333,64h-42.667h-32V53.333  c0-5.896-4.771-10.667-10.667-10.667h-32v-32C288,4.771,283.229,0,277.333,0h-42.667C228.771,0,224,4.771,224,10.667v10.667h-32  c-5.896,0-10.667,4.771-10.667,10.667v32h-32h-42.667C100.771,64,96,68.771,96,74.667v74.667c-5.896,0-10.667,4.771-10.667,10.667  v309.333C85.333,492.865,104.479,512,128,512h256c23.521,0,42.667-19.135,42.667-42.667V160  C426.667,154.104,421.896,149.333,416,149.333z"/>
<path style="fill:#D32F2F;" d="M106.667,170.667H128c11.771,0,21.333,9.573,21.333,21.333v53.333  c0,5.896,4.771,10.667,10.667,10.667h70.25L106.667,379.583V170.667z"/>
<g>
	<path style="fill:#F2F2F2;" d="M330.667,170.667h16.602c-3.674,6.301-5.935,13.527-5.935,21.333v42.667h-10.667V170.667z"/>
	<rect x="288" y="149.333" style="fill:#F2F2F2;" width="21.333" height="85.333"/>
	<rect x="245.333" y="106.667" style="fill:#F2F2F2;" width="21.333" height="128"/>
	<rect x="202.667" y="128" style="fill:#F2F2F2;" width="21.333" height="106.667"/>
</g>
<rect x="288" y="224" style="opacity:0.1;enable-background:new    ;" width="21.333" height="10.667"/>
<rect x="245.333" y="224" style="opacity:0.1;enable-background:new    ;" width="21.333" height="10.667"/>
<rect x="202.667" y="224" style="opacity:0.1;enable-background:new    ;" width="21.333" height="10.667"/>
<path style="fill:#F2F2F2;" d="M181.333,234.667h-10.667V192c0-7.806-2.26-15.033-5.935-21.333h16.602V234.667z"/>
<path style="fill:#D32F2F;" d="M352,256c5.896,0,10.667-4.771,10.667-10.667V192c0-11.76,9.563-21.333,21.333-21.333h21.333v208.917  L281.75,256H352z"/>
<g>
	<rect x="373.333" y="85.333" style="fill:#FFD54F;" width="21.333" height="64"/>
	<rect x="330.667" y="85.333" style="fill:#FFD54F;" width="21.333" height="64"/>
	<polygon style="fill:#FFD54F;" points="309.333,64 309.333,74.667 309.333,128 288,128 288,64  "/>
	<rect x="245.333" y="21.333" style="fill:#FFD54F;" width="21.333" height="64"/>
	<rect x="202.667" y="42.667" style="fill:#FFD54F;" width="21.333" height="64"/>
	<rect x="160" y="85.333" style="fill:#FFD54F;" width="21.333" height="64"/>
	<rect x="117.333" y="85.333" style="fill:#FFD54F;" width="21.333" height="64"/>
</g>
<path style="fill:#F2F2F2;" d="M384,490.667H128c-11.771,0-21.333-9.573-21.333-21.333V409.75L256,260.417L405.333,409.75v59.583  C405.333,481.094,395.771,490.667,384,490.667z"/>
<polygon style="opacity:0.2;fill:#FFFFFF;enable-background:new    ;" points="128,170.667 106.667,170.667 106.667,379.583   128,358.25 "/>
<polygon style="opacity:0.1;enable-background:new    ;" points="384,170.667 384,358.25 405.333,379.583 405.333,170.667 "/>
<linearGradient id="SVGID_1_" gradientUnits="userSpaceOnUse" x1="-41.9659" y1="626.7139" x2="-38.9876" y2="625.3248" gradientTransform="matrix(21.3333 0 0 -21.3333 996.3334 13791.667)">
	<stop offset="0" style="stop-color:#FFFFFF;stop-opacity:0.2"/>
	<stop offset="1" style="stop-color:#FFFFFF;stop-opacity:0"/>
</linearGradient>
<path style="fill:url(#SVGID_1_);" d="M128,464.641v-72.688l8.355-11.892l-29.689,29.689v54.891  c0,14.348,9.563,26.026,21.333,26.026h18.285C136.197,490.667,128,478.988,128,464.641z"/>
<path style="opacity:0.1;enable-background:new    ;" d="M384,391.953v72.688c0,14.348-8.197,26.026-18.285,26.026H384  c11.771,0,21.333-11.678,21.333-26.026V409.75l-29.689-29.689L384,391.953z"/>
<circle style="fill:#303C42;" cx="256" cy="362.667" r="42.667"/>
<circle style="fill:#D32F2F;" cx="256" cy="362.667" r="21.333"/>
<linearGradient id="SVGID_2_" gradientUnits="userSpaceOnUse" x1="-34.5744" y1="629.3562" x2="-28.4911" y2="623.282" gradientTransform="matrix(21.3333 0 0 -21.3333 996.3334 13791.667)">
	<stop offset="0" style="stop-color:#000000;stop-opacity:0.1"/>
	<stop offset="1" style="stop-color:#000000;stop-opacity:0"/>
</linearGradient>
<path style="fill:url(#SVGID_2_);" d="M289.208,335.926l-0.142,0.112c5.91,7.322,9.6,16.507,9.6,26.629  c0,23.531-19.146,42.667-42.667,42.667c-10.353,0-19.732-3.855-27.129-10.013l95.346,95.346H384  c11.771,0,21.333-9.573,21.333-21.333v-17.283L289.208,335.926z"/>
<path style="opacity:0.1;enable-background:new    ;" d="M117.333,138.667v10.667h21.333v-9.587  c-3.448-0.703-7.013-1.079-10.667-1.079H117.333z"/>
<path style="opacity:0.1;enable-background:new    ;" d="M394.667,138.667H384c-3.654,0-7.219,0.376-10.667,1.079v9.587h21.333  V138.667z"/>
<path style="opacity:0.1;enable-background:new    ;" d="M341.333,234.667V192c0-7.806,2.26-15.033,5.935-21.333h-12.082  c-2.871,6.544-4.52,13.741-4.52,21.333v32v10.667H341.333z"/>
<path style="opacity:0.1;enable-background:new    ;" d="M170.667,192v42.667h10.667V224v-32c0-7.592-1.648-14.789-4.52-21.333  h-12.082C168.406,176.967,170.667,184.194,170.667,192z"/>
<linearGradient id="SVGID_3_" gradientUnits="userSpaceOnUse" x1="-44.6382" y1="637.8748" x2="-24.6083" y2="628.5325" gradientTransform="matrix(21.3333 0 0 -21.3333 996.3334 13791.667)">
	<stop offset="0" style="stop-color:#FFFFFF;stop-opacity:0.2"/>
	<stop offset="1" style="stop-color:#FFFFFF;stop-opacity:0"/>
</linearGradient>
<path style="fill:url(#SVGID_3_);" d="M416,149.333V74.667C416,68.771,411.229,64,405.333,64h-42.667h-32V53.333  c0-5.896-4.771-10.667-10.667-10.667h-32v-32C288,4.771,283.229,0,277.333,0h-42.667C228.771,0,224,4.771,224,10.667v10.667h-32  c-5.896,0-10.667,4.771-10.667,10.667v32h-32h-42.667C100.771,64,96,68.771,96,74.667v74.667c-5.896,0-10.667,4.771-10.667,10.667  v309.333C85.333,492.865,104.479,512,128,512h256c23.521,0,42.667-19.135,42.667-42.667V160  C426.667,154.104,421.896,149.333,416,149.333z"/>
<g>
</g>
<g>
</g>
<g>
</g>
<g>
</g>
<g>
</g>
<g>
</g>
<g>
</g>
<g>
</g>
<g>
</g>
<g>
</g>
<g>
</g>
<g>
</g>
<g>
</g>
<g>
</g>
<g>
</g>
</svg>
