<?xml version="1.0" encoding="iso-8859-1"?>
<!-- Generator: Adobe Illustrator 19.0.0, SVG Export Plug-In . SVG Version: 6.00 Build 0)  -->
<svg xmlns="http://www.w3.org/2000/svg" xmlns:xlink="http://www.w3.org/1999/xlink" version="1.1" id="Capa_1" x="0px" y="0px" viewBox="0 0 512 512" style="enable-background:new 0 0 512 512;" xml:space="preserve">
<path style="fill:#303C42;" d="M288,0H181.333c-52.938,0-96,43.063-96,96v309.333C85.333,464.146,133.188,512,192,512  c40.458,0,76.917-22.729,95.208-59.396L403.604,214.76c12.375-25.271,23.063-47.104,23.063-76.094C426.667,62.208,364.458,0,288,0z   M326.958,177.208L210.583,415.042c-2.667,5.365-9.146,11.625-18.583,11.625c-11.771,0-21.333-9.573-21.333-21.333V96  c0-5.885,4.792-10.667,10.667-10.667H288c29.417,0,53.333,23.927,53.333,53.333C341.333,147.469,336.667,157.385,326.958,177.208z"/>
<path style="fill:#AEBCC4;" d="M383.958,206.354L268.083,443.156c-14.625,29.302-43.771,47.51-76.083,47.51  c-47.063,0-85.333-38.281-85.333-85.333v-27.27C112.969,381.74,120.195,384,128,384s15.031-2.26,21.333-5.936v27.27  C149.333,428.865,168.479,448,192,448c19.188,0,32.292-12.635,37.708-23.521l116.417-237.896  c11.167-22.813,16.542-34.385,16.542-47.917C362.667,97.5,329.167,64,288,64H181.333c-17.646,0-32,14.354-32,32v65.583L125.667,132  c-1.896-2.365-4.708-3.813-7.75-3.979c-2.917-0.188-6,0.958-8.125,3.104l-3.125,3.125V96c0-41.167,33.5-74.667,74.667-74.667H288  c64.688,0,117.333,52.635,117.333,117.333C405.333,162.719,396.104,181.542,383.958,206.354z"/>
<path style="opacity:0.1;enable-background:new    ;" d="M383.958,192.354L268.083,429.156  c-14.625,29.302-43.771,47.51-76.083,47.51c-47.063,0-85.333-38.281-85.333-85.333v14c0,47.052,38.271,85.333,85.333,85.333  c32.313,0,61.458-18.208,76.083-47.51l115.875-236.802c12.146-24.813,21.375-43.635,21.375-67.688c0-3.078-0.228-6.1-0.462-9.12  C403.686,151.26,395.245,169.298,383.958,192.354z"/>
<path style="opacity:0.2;fill:#FFFFFF;enable-background:new    ;" d="M181.333,37.333H288c61.169,0,111.505,47.085,116.806,106.91  c0.117-1.883,0.527-3.632,0.527-5.577c0-64.698-52.646-117.333-117.333-117.333H181.333c-41.167,0-74.667,33.5-74.667,74.667v16  C106.667,70.833,140.167,37.333,181.333,37.333z"/>
<path style="fill:#D7CCC8;" d="M106.667,164.419l9.792-9.784l32.875,41.113v145.585c0,11.76-9.563,21.333-21.333,21.333  c-11.771,0-21.333-9.573-21.333-21.333V164.419z"/>
<path style="opacity:0.1;enable-background:new    ;" d="M128,346c-11.771,0-21.333-9.573-21.333-21.333v16.667  c0,11.76,9.563,21.333,21.333,21.333c11.771,0,21.333-9.573,21.333-21.333v-16.667C149.333,336.427,139.771,346,128,346z"/>
<circle style="fill:#303C42;" cx="128" cy="320" r="10.667"/>
<linearGradient id="SVGID_1_" gradientUnits="userSpaceOnUse" x1="-41.2031" y1="629.2626" x2="-38.925" y2="626.9845" gradientTransform="matrix(21.3333 0 0 -21.3333 996.3334 13791.667)">
	<stop offset="0" style="stop-color:#000000;stop-opacity:0.1"/>
	<stop offset="1" style="stop-color:#000000;stop-opacity:0"/>
</linearGradient>
<path style="fill:url(#SVGID_1_);" d="M149.333,405.333v-27.27C143.031,381.74,135.805,384,128,384s-15.031-2.26-21.333-5.936  l48.6,48.6C151.594,420.363,149.333,413.138,149.333,405.333z"/>
<linearGradient id="SVGID_2_" gradientUnits="userSpaceOnUse" x1="-44.6332" y1="638.8428" x2="-29.8558" y2="631.9517" gradientTransform="matrix(21.3333 0 0 -21.3333 996.3334 13791.667)">
	<stop offset="0" style="stop-color:#FFFFFF;stop-opacity:0.2"/>
	<stop offset="1" style="stop-color:#FFFFFF;stop-opacity:0"/>
</linearGradient>
<path style="fill:url(#SVGID_2_);" d="M288,0H181.333c-52.938,0-96,43.063-96,96v309.333C85.333,464.146,133.188,512,192,512  c40.458,0,76.917-22.729,95.208-59.396L403.604,214.76c12.375-25.271,23.063-47.104,23.063-76.094C426.667,62.208,364.458,0,288,0z   M326.958,177.208L210.583,415.042c-2.667,5.365-9.146,11.625-18.583,11.625c-11.771,0-21.333-9.573-21.333-21.333V96  c0-5.885,4.792-10.667,10.667-10.667H288c29.417,0,53.333,23.927,53.333,53.333C341.333,147.469,336.667,157.385,326.958,177.208z"/>
<g>
</g>
<g>
</g>
<g>
</g>
<g>
</g>
<g>
</g>
<g>
</g>
<g>
</g>
<g>
</g>
<g>
</g>
<g>
</g>
<g>
</g>
<g>
</g>
<g>
</g>
<g>
</g>
<g>
</g>
</svg>
