<?xml version="1.0" encoding="iso-8859-1"?>
<!-- Generator: Adobe Illustrator 19.0.0, SVG Export Plug-In . SVG Version: 6.00 Build 0)  -->
<svg xmlns="http://www.w3.org/2000/svg" xmlns:xlink="http://www.w3.org/1999/xlink" version="1.1" id="Capa_1" x="0px" y="0px" viewBox="0 0 512 512" style="enable-background:new 0 0 512 512;" xml:space="preserve">
<path style="fill:#303C42;" d="M416,149.333h-21.333c-5.896,0-10.667,4.771-10.667,10.667v42.667  c0,5.896,4.771,10.667,10.667,10.667V384c0,43.41-32.68,78.94-74.667,84.255V117.333c0-5.896-4.771-10.667-10.667-10.667h-42.667V64  H352c17.646,0,32-14.354,32-32S369.646,0,352,0H160c-17.646,0-32,14.354-32,32s14.354,32,32,32h85.333v42.667h-42.667  c-5.896,0-10.667,4.771-10.667,10.667v252.823c-9.737-4.661-20.505-7.49-32-7.49c-41.167,0-74.667,33.5-74.667,74.667  S118.833,512,160,512c11.729,0,22.69-2.962,32.577-7.803c1.271,4.469,5.21,7.803,10.09,7.803h106.667  c5.896,0,10.667-4.771,10.667-10.667v-11.745c53.75-5.441,96-50.428,96-105.589V213.333c5.896,0,10.667-4.771,10.667-10.667V160  C426.667,154.104,421.896,149.333,416,149.333z"/>
<circle style="fill:#F2F2F2;" cx="160" cy="437.333" r="53.333"/>
<circle style="fill:#BBDEFB;" cx="160" cy="437.333" r="53.333"/>
<path style="opacity:0.1;enable-background:new    ;" d="M117.333,458.667c0-29.417,23.917-53.333,53.333-53.333  c16.641,0,31.336,7.811,41.122,19.784C206.236,401.598,185.197,384,160,384c-29.417,0-53.333,23.917-53.333,53.333  c0,12.776,4.697,24.357,12.211,33.549C117.948,466.943,117.333,462.887,117.333,458.667z"/>
<path style="fill:#303C42;" d="M150.125,401.292c-5.229,12.792-11.458,29.438-11.458,36.042c0,11.771,9.563,21.333,21.333,21.333  c11.771,0,21.333-9.563,21.333-21.333c0-6.604-6.229-23.25-11.458-36.042C166.583,393.292,153.417,393.292,150.125,401.292z"/>
<path style="fill:#6D4C41;" d="M149.333,32c0-5.875,4.792-10.667,10.667-10.667h192c5.875,0,10.667,4.792,10.667,10.667  S357.875,42.667,352,42.667H160C154.125,42.667,149.333,37.875,149.333,32z"/>
<path style="fill:#546E7A;" d="M298.667,490.667h-85.333v-1.243c13.155-13.467,21.333-31.824,21.333-52.09  s-8.178-38.622-21.333-52.09V128h85.333V490.667z"/>
<linearGradient id="SVGID_1_" gradientUnits="userSpaceOnUse" x1="-35.7217" y1="641.4672" x2="-31.6875" y2="637.439" gradientTransform="matrix(21.3333 0 0 -21.3333 996.3334 13791.667)">
	<stop offset="0" style="stop-color:#000000;stop-opacity:0.1"/>
	<stop offset="1" style="stop-color:#000000;stop-opacity:0"/>
</linearGradient>
<polygon style="fill:url(#SVGID_1_);" points="298.667,128 213.333,128 213.333,129.333 298.667,214.667 "/>
<linearGradient id="SVGID_2_" gradientUnits="userSpaceOnUse" x1="-36.8631" y1="625.7562" x2="-33.6453" y2="622.5414" gradientTransform="matrix(21.3333 0 0 -21.3333 996.3334 13791.667)">
	<stop offset="0" style="stop-color:#000000;stop-opacity:0.1"/>
	<stop offset="1" style="stop-color:#000000;stop-opacity:0"/>
</linearGradient>
<path style="fill:url(#SVGID_2_);" d="M298.667,485.87l-66.207-66.207l-0.129,0.107c1.387,5.659,2.336,11.48,2.336,17.564  c0,20.266-8.178,38.622-21.333,52.09v1.243h85.333V485.87z"/>
<linearGradient id="SVGID_3_" gradientUnits="userSpaceOnUse" x1="-43.8202" y1="638.6327" x2="-25.863" y2="630.2586" gradientTransform="matrix(21.3333 0 0 -21.3333 996.3334 13791.667)">
	<stop offset="0" style="stop-color:#FFFFFF;stop-opacity:0.2"/>
	<stop offset="1" style="stop-color:#FFFFFF;stop-opacity:0"/>
</linearGradient>
<path style="fill:url(#SVGID_3_);" d="M416,149.333h-21.333c-5.896,0-10.667,4.771-10.667,10.667v42.667  c0,5.896,4.771,10.667,10.667,10.667V384c0,43.41-32.68,78.94-74.667,84.255V117.333c0-5.896-4.771-10.667-10.667-10.667h-42.667V64  H352c17.646,0,32-14.354,32-32S369.646,0,352,0H160c-17.646,0-32,14.354-32,32s14.354,32,32,32h85.333v42.667h-42.667  c-5.896,0-10.667,4.771-10.667,10.667v252.823c-9.737-4.661-20.505-7.49-32-7.49c-41.167,0-74.667,33.5-74.667,74.667  S118.833,512,160,512c11.729,0,22.69-2.962,32.577-7.803c1.271,4.469,5.21,7.803,10.09,7.803h106.667  c5.896,0,10.667-4.771,10.667-10.667v-11.745c53.75-5.441,96-50.428,96-105.589V213.333c5.896,0,10.667-4.771,10.667-10.667V160  C426.667,154.104,421.896,149.333,416,149.333z"/>
<g>
</g>
<g>
</g>
<g>
</g>
<g>
</g>
<g>
</g>
<g>
</g>
<g>
</g>
<g>
</g>
<g>
</g>
<g>
</g>
<g>
</g>
<g>
</g>
<g>
</g>
<g>
</g>
<g>
</g>
</svg>
