<?xml version="1.0" encoding="iso-8859-1"?>
<!-- Generator: Adobe Illustrator 19.0.0, SVG Export Plug-In . SVG Version: 6.00 Build 0)  -->
<svg xmlns="http://www.w3.org/2000/svg" xmlns:xlink="http://www.w3.org/1999/xlink" version="1.1" id="Capa_1" x="0px" y="0px" viewBox="0 0 469.34 469.34" style="enable-background:new 0 0 469.34 469.34;" xml:space="preserve">
<path style="fill:#303C42;" d="M467.209,89.611l-64-85.333c-3.229-4.281-9.104-5.531-13.75-2.917L92.499,167.306  c-7.969-4.538-16.715-5.007-24.665-5.32c-10.5-0.427-19.563-0.792-28.292-9.521c-4.167-4.167-10.917-4.167-15.083,0  c-4.167,4.167-4.167,10.917,0,15.083c13.879,13.889,29.063,15.168,40.641,15.664c-27.081,18.079-43.766,48.496-43.766,81.398  c0,6.057,0.733,11.932,1.789,17.689c-13.94,7.172-23.122,21.439-23.122,37.707c0,23.531,19.146,42.667,42.667,42.667  c11.392,0,21.97-4.62,29.859-12.467c13.991,7.697,29.809,12.467,46.87,12.467h8.271c23.396,0,46.063-8.385,63.813-23.615  L465.605,104.1C469.876,100.444,470.584,94.1,467.209,89.611z"/>
<g>
	<path style="fill:#546E7A;" d="M42.667,341.34c-11.771,0-21.333-9.573-21.333-21.333c0-6.656,3.227-12.5,8.174-16.426   c5.723,13.145,14.418,24.559,24.982,33.969C51.025,339.904,46.985,341.34,42.667,341.34z"/>
	<path style="fill:#546E7A;" d="M177.605,322.871c-13.896,11.906-31.625,18.469-49.938,18.469h-8.271   c-42.313,0-76.729-34.417-76.729-76.729c0-27.771,15.063-53.427,39.292-66.969L391.73,24.538l52.417,69.875L177.605,322.871z"/>
</g>
<path style="opacity:0.2;fill:#FFFFFF;enable-background:new    ;" d="M55.261,277.205c0-27.771,15.062-53.427,39.292-66.969  L402.106,38.371L391.73,24.538L81.959,197.642c-24.229,13.542-39.292,39.198-39.292,66.969c0,24.368,11.63,45.863,29.396,59.927  C61.706,311.457,55.261,295.149,55.261,277.205z"/>
<path style="fill:#303C42;" d="M234.667,213.34c-70.583,0-128,57.417-128,128c0,5.487,0.462,10.858,1.135,16.165l-31.24,39.074  c-4.958,6.177-11.979,10.292-19.75,11.594l-33.417,5.563c-13.563,2.26-23.396,13.875-23.396,27.615c0,15.438,12.563,27.99,28,27.99  h32.438c11.458,0,22.833-3.792,32-10.667l45.298-33.974c23.492,27.277,58.191,44.641,96.931,44.641c70.583,0,128-57.417,128-128  S305.251,213.34,234.667,213.34z M129.079,330.673c2.161-21.349,10.484-40.699,23.384-56.464l45.585,45.592  c-1.988,3.366-3.526,6.999-4.533,10.871H129.079z M224.001,446.929c-21.345-2.16-40.69-10.48-56.453-23.376l45.583-45.591  c3.366,1.987,6.997,3.523,10.87,4.53V446.929z M224.001,300.189c-3.872,1.007-7.504,2.543-10.87,4.53l-45.583-45.591  c15.763-12.896,35.108-21.216,56.453-23.376V300.189z M340.256,330.673H275.82c-1.007-3.872-2.544-7.505-4.533-10.871l45.585-45.592  C329.771,289.974,338.094,309.324,340.256,330.673z M245.334,235.751c21.345,2.16,40.69,10.48,56.453,23.376l-45.583,45.591  c-3.366-1.987-6.997-3.523-10.87-4.53V235.751z M245.334,446.929v-64.438c3.872-1.007,7.504-2.543,10.87-4.53l45.583,45.591  C286.024,436.448,266.679,444.768,245.334,446.929z M316.872,408.47l-45.585-45.592c1.988-3.366,3.526-6.999,4.533-10.871h64.436  C338.094,373.356,329.771,392.706,316.872,408.47z"/>
<circle style="fill:#6D4C41;" cx="234.67" cy="341.337" r="21.333"/>
<path style="opacity:0.2;fill:#FFFFFF;enable-background:new    ;" d="M220.361,348.367c0-11.76,9.563-21.333,21.333-21.333  c4.063,0,7.647,1.444,10.882,3.422c-3.75-6.132-10.204-10.449-17.909-10.449c-11.771,0-21.333,9.573-21.333,21.333  c0,7.701,4.315,14.16,10.452,17.911C221.807,356.016,220.361,352.43,220.361,348.367z"/>
<g>
	<path style="fill:#6D4C41;" d="M170.667,373.34l-28.005,21.005c-3.82-6.603-6.868-13.612-9.215-21.005H170.667z"/>
	<path style="fill:#6D4C41;" d="M79.646,441.611c-5.5,4.125-12.333,6.396-19.208,6.396H28c-3.666,0-6.666-2.99-6.666-6.656   c0-3.271,2.333-6.031,5.563-6.573l33.417-5.563c12.958-2.156,24.646-9.01,32.896-19.292l20.862-26.091   c2.93,8.289,6.682,16.169,11.173,23.578L79.646,441.611z"/>
</g>
<path style="opacity:0.1;enable-background:new    ;" d="M140.008,388.297c0.974,1.967,1.553,4.147,2.654,6.048l28.005-21.005  h-8.155L140.008,388.297z"/>
<path style="opacity:0.1;enable-background:new    ;" d="M79.646,436.19c-5.5,4.125-12.333,6.396-19.208,6.396H28  c-2.681,0-4.557-1.835-5.613-4.126c-0.47,0.918-1.053,1.794-1.053,2.891c0,3.667,3,6.656,6.666,6.656h32.438  c6.875,0,13.708-2.271,19.208-6.396l45.598-34.201c-0.757-1.249-1.366-2.586-2.079-3.861L79.646,436.19z"/>
<linearGradient id="SVGID_1_" gradientUnits="userSpaceOnUse" x1="-65.8416" y1="617.1762" x2="-48.892" y2="609.2719" gradientTransform="matrix(21.3333 0 0 -21.3333 1430.0433 13315.2969)">
	<stop offset="0" style="stop-color:#FFFFFF;stop-opacity:0.2"/>
	<stop offset="1" style="stop-color:#FFFFFF;stop-opacity:0"/>
</linearGradient>
<path style="fill:url(#SVGID_1_);" d="M467.209,89.611l-64-85.333c-3.229-4.281-9.104-5.531-13.75-2.917L92.499,167.306  c-7.969-4.538-16.715-5.007-24.665-5.32c-10.5-0.427-19.563-0.792-28.292-9.521c-4.167-4.167-10.917-4.167-15.083,0  c-4.167,4.167-4.167,10.917,0,15.083c13.879,13.889,29.063,15.168,40.641,15.664c-27.081,18.079-43.766,48.496-43.766,81.398  c0,6.057,0.733,11.932,1.789,17.689c-13.94,7.172-23.122,21.439-23.122,37.707c0,23.531,19.146,42.667,42.667,42.667  c11.392,0,21.97-4.62,29.859-12.467c9.874,5.432,20.698,9.293,32.188,11.163L76.563,396.58c-4.958,6.177-11.979,10.292-19.75,11.594  l-33.417,5.563c-13.563,2.26-23.396,13.875-23.396,27.615c0,15.438,12.563,27.99,28,27.99h32.438c11.458,0,22.833-3.792,32-10.667  l45.298-33.974c23.492,27.277,58.191,44.641,96.931,44.641c70.583,0,128-57.417,128-128c0-42.578-20.975-80.259-53.048-103.542  L465.605,104.1C469.876,100.444,470.584,94.1,467.209,89.611z M224.001,446.929c-21.345-2.16-40.69-10.48-56.453-23.376  l45.583-45.591c3.366,1.987,6.997,3.523,10.87,4.53V446.929z M245.334,446.929v-64.438c3.872-1.007,7.504-2.543,10.87-4.53  l45.583,45.591C286.024,436.448,266.679,444.768,245.334,446.929z M316.872,408.47l-45.585-45.592  c1.988-3.366,3.526-6.999,4.533-10.871h64.436C338.094,373.356,329.771,392.706,316.872,408.47z M340.256,330.673H275.82  c-1.007-3.872-2.544-7.505-4.533-10.871l45.585-45.592C329.771,289.974,338.094,309.324,340.256,330.673z M301.787,259.128  l-45.583,45.591c-3.366-1.987-6.997-3.523-10.87-4.53v-7.29l47.096-40.366C295.63,254.62,298.83,256.708,301.787,259.128z"/>
<g>
</g>
<g>
</g>
<g>
</g>
<g>
</g>
<g>
</g>
<g>
</g>
<g>
</g>
<g>
</g>
<g>
</g>
<g>
</g>
<g>
</g>
<g>
</g>
<g>
</g>
<g>
</g>
<g>
</g>
</svg>
