<?xml version="1.0" encoding="iso-8859-1"?>
<!-- Generator: Adobe Illustrator 19.0.0, SVG Export Plug-In . SVG Version: 6.00 Build 0)  -->
<svg xmlns="http://www.w3.org/2000/svg" xmlns:xlink="http://www.w3.org/1999/xlink" version="1.1" id="Capa_1" x="0px" y="0px" viewBox="0 0 512.006 512.006" style="enable-background:new 0 0 512.006 512.006;" xml:space="preserve">
<path style="fill:#303C42;" d="M437.337,448.006h-53.333V250.073c12.691-7.4,21.333-21.008,21.333-36.733  c0-23.531-19.135-42.667-42.667-42.667c-0.781,0-1.552,0.083-2.313,0.25c-10.285,2.284-35.007,7.393-51.021,9.473v-12.793  c30.733-8.156,53.333-33.053,53.333-62.784c0-1.854-0.135-3.573-0.417-6.854c-2.292-25.719-16.271-41.948-27.5-54.979  c-9.646-11.198-17.26-20.042-17.26-32.313c0-3.865-2.094-7.427-5.469-9.313c-3.375-1.896-7.49-1.802-10.802,0.229  c-18.042,11.135-33.167,30.083-38.521,48.281c-2.271,7.771-3.313,16-3.792,23.271c-4.073-4.656-5.365-11.188-5.552-12.25  c-0.531-3.219-2.5-6.021-5.354-7.615c-2.854-1.583-6.313-1.781-9.292-0.51c-0.979,0.417-24.031,10.49-25.271,48.188  c-0.094,1.281-0.104,2.573-0.104,3.865c0,36.313,33.5,65.854,74.667,65.854v9.723c-16.014-2.079-40.736-7.189-51.021-9.473  c-0.76-0.167-1.531-0.25-2.313-0.25c-24.323,0-42.667,32.104-42.667,74.667c0,28.694,8.448,52.352,21.333,64.908v137.759h-53.605  c6.768-8.941,10.939-19.948,10.939-32c0-29.406-23.927-53.333-53.333-53.333S64.003,386.6,64.003,416.006  c0,25.754,18.353,47.298,42.667,52.254v1.079c0,23.531,19.135,42.667,42.667,42.667h256c23.531,0,42.667-19.135,42.667-42.667  v-10.667C448.003,452.777,443.232,448.006,437.337,448.006z M117.337,448.006c-17.646,0-32-14.354-32-32c0-17.646,14.354-32,32-32  s32,14.354,32,32C149.337,433.652,134.982,448.006,117.337,448.006z"/>
<path style="fill:#FFCA28;" d="M234.67,104.819l0.063-2.76c0.313-9.135,2.167-15.615,4.354-20.125  c5.75,9.146,15.344,17.323,30.094,17.323c5.896,0,10.667-4.771,10.667-10.667c0-10.333,0.26-22.229,3.323-32.708  c2.625-8.896,8.802-18.385,16.708-26.188c4.26,10.438,11.563,18.917,18.708,27.208c10.667,12.375,20.729,24.062,22.542,44.479  c0.104,1.115,0.208,2.229,0.208,3.438c0,18.214-13.198,33.858-32,40.747v-6.893c0-5.896-4.771-10.667-10.667-10.667  c-5.896,0-10.667,4.771-10.667,10.667v10.667C258.597,149.34,234.67,129.371,234.67,104.819z"/>
<path style="fill:#FF6F00;" d="M298.67,128.006c5.896,0,10.667,4.771,10.667,10.667v2.262c4.348-4.172,7.195-9.456,7.195-15.41  c0-0.646-0.056-1.242-0.112-1.839c-0.969-10.922-6.352-17.173-12.057-23.793c-3.823-4.435-7.728-8.97-10.008-14.553  c-4.229,4.173-7.533,9.249-8.938,14.008c-1.638,5.605-1.777,11.969-1.777,17.496c0,3.154-2.552,5.706-5.706,5.706  c-7.889,0-13.021-4.374-16.098-9.267c-1.169,2.413-2.161,5.879-2.328,10.766l-0.034,1.477c0,13.133,12.799,23.815,28.529,23.815  v-5.706v-4.961C288.003,132.777,292.774,128.006,298.67,128.006z"/>
<path style="fill:#E6E6E6;" d="M233.805,192.069c9.219,2.031,49.25,10.604,64.865,10.604c15.719,0,56.188-8.698,65.052-10.646  c11.271,0.552,20.281,9.896,20.281,21.313c0,11.76-9.573,21.333-21.333,21.333c-1.156,0-3.479-1.458-5.521-2.75  c-3.979-2.5-10.094-5.885-16.458-5.771c-10.771,0.24-19.74,9.313-28.427,18.083c-4.156,4.198-11.115,11.229-12.406,11.958  c-1.792-0.74-6.156-5.219-8.771-7.896c-7.656-7.875-17.188-17.635-28.604-12.771c-24.302,10.365-26.906,35.281-28.625,51.76  c-0.354,3.385-0.854,8.083-1.51,10.927c-8.458-3.208-19.01-23.125-19.01-52.875C213.337,213.84,225.159,193.371,233.805,192.069z"/>
<path style="opacity:0.2;fill:#FFFFFF;enable-background:new    ;" d="M233.805,200.069c9.219,2.031,49.25,10.604,64.865,10.604  c15.719,0,56.188-8.698,65.052-10.646c9.852,0.483,17.595,7.82,19.484,17.25c0.258-1.322,0.797-2.542,0.797-3.938  c0-11.417-9.01-20.76-20.281-21.313c-8.865,1.948-49.333,10.646-65.052,10.646c-15.615,0-55.646-8.573-64.865-10.604  c-8.646,1.302-20.469,21.771-20.469,53.271c0,1.431,0.134,2.725,0.181,4.111C214.465,220.234,225.532,201.315,233.805,200.069z"/>
<path style="fill:#F2F2F2;" d="M234.67,320.006c17.208,0,19.135-18.354,20.396-30.5c1.656-15.781,3.656-27.604,13.5-33.229  c2.083,1.604,5.208,4.813,7.24,6.906c6.844,7.021,13.677,13.781,23.01,14.156c10.844-0.146,19.875-9.271,28.615-18.104  c4.146-4.188,11.094-11.208,13.708-11.75c0.802,0.073,3.198,1.583,4.635,2.49c4.042,2.542,9.573,6.031,16.896,6.031v192h-128  V320.006z"/>
<path style="fill:#78909C;" d="M405.337,490.673h-256c-11.76,0-21.333-9.573-21.333-21.333H426.67  C426.67,481.1,417.097,490.673,405.337,490.673z"/>
<path style="opacity:0.1;enable-background:new    ;" d="M405.337,482.228h-256c-8.755,0-16.268-5.324-19.552-12.888h-1.781  c0,11.76,9.573,21.333,21.333,21.333h256c11.76,0,21.333-9.573,21.333-21.333h-1.781  C421.605,476.904,414.092,482.228,405.337,482.228z"/>
<linearGradient id="SVGID_1_" gradientUnits="userSpaceOnUse" x1="-34.1729" y1="634.4591" x2="-27.4499" y2="627.7381" gradientTransform="matrix(21.3333 0 0 -21.3333 996.2682 13791.7383)">
	<stop offset="0" style="stop-color:#000000;stop-opacity:0.1"/>
	<stop offset="1" style="stop-color:#000000;stop-opacity:0"/>
</linearGradient>
<path style="fill:url(#SVGID_1_);" d="M345.774,249.975c-1.438-0.906-3.833-2.417-4.635-2.49c-2.615,0.542-9.563,7.563-13.708,11.75  c-8.74,8.833-17.771,17.958-28.615,18.104c-9.333-0.375-16.167-7.135-23.01-14.156c-2.031-2.094-5.156-5.302-7.24-6.906  c-9.844,5.625-11.844,17.448-13.5,33.229c-1.26,12.146-3.188,30.5-20.396,30.5l128,128v-192  C355.347,256.006,349.816,252.517,345.774,249.975z"/>
<linearGradient id="SVGID_2_" gradientUnits="userSpaceOnUse" x1="-39.6966" y1="636.1291" x2="-23.5707" y2="628.6119" gradientTransform="matrix(21.3333 0 0 -21.3333 996.2682 13791.7383)">
	<stop offset="0" style="stop-color:#FFFFFF;stop-opacity:0.2"/>
	<stop offset="1" style="stop-color:#FFFFFF;stop-opacity:0"/>
</linearGradient>
<path style="fill:url(#SVGID_2_);" d="M437.337,448.006h-53.333V250.073c12.691-7.4,21.333-21.008,21.333-36.733  c0-23.531-19.135-42.667-42.667-42.667c-0.781,0-1.552,0.083-2.313,0.25c-10.285,2.284-35.007,7.393-51.021,9.473v-12.793  c30.733-8.156,53.333-33.053,53.333-62.784c0-1.854-0.135-3.573-0.417-6.854c-2.292-25.719-16.271-41.948-27.5-54.979  c-9.646-11.198-17.26-20.042-17.26-32.313c0-3.865-2.094-7.427-5.469-9.313c-3.375-1.896-7.49-1.802-10.802,0.229  c-18.042,11.135-33.167,30.083-38.521,48.281c-2.271,7.771-3.313,16-3.792,23.271c-4.073-4.656-5.365-11.188-5.552-12.25  c-0.531-3.219-2.5-6.021-5.354-7.615c-2.854-1.583-6.313-1.781-9.292-0.51c-0.979,0.417-24.031,10.49-25.271,48.188  c-0.094,1.281-0.104,2.573-0.104,3.865c0,36.313,33.5,65.854,74.667,65.854v9.723c-16.014-2.079-40.736-7.189-51.021-9.473  c-0.76-0.167-1.531-0.25-2.313-0.25c-24.323,0-42.667,32.104-42.667,74.667c0,28.694,8.448,52.352,21.333,64.908v137.759h-53.605  c6.768-8.941,10.939-19.948,10.939-32c0-29.406-23.927-53.333-53.333-53.333S64.003,386.6,64.003,416.006  c0,25.754,18.353,47.298,42.667,52.254v1.079c0,23.531,19.135,42.667,42.667,42.667h256c23.531,0,42.667-19.135,42.667-42.667  v-10.667C448.003,452.777,443.232,448.006,437.337,448.006z M117.337,448.006c-17.646,0-32-14.354-32-32c0-17.646,14.354-32,32-32  s32,14.354,32,32C149.337,433.652,134.982,448.006,117.337,448.006z"/>
<g>
</g>
<g>
</g>
<g>
</g>
<g>
</g>
<g>
</g>
<g>
</g>
<g>
</g>
<g>
</g>
<g>
</g>
<g>
</g>
<g>
</g>
<g>
</g>
<g>
</g>
<g>
</g>
<g>
</g>
</svg>
