<?xml version="1.0" encoding="iso-8859-1"?>
<!-- Generator: Adobe Illustrator 19.0.0, SVG Export Plug-In . SVG Version: 6.00 Build 0)  -->
<svg xmlns="http://www.w3.org/2000/svg" xmlns:xlink="http://www.w3.org/1999/xlink" version="1.1" id="Capa_1" x="0px" y="0px" viewBox="0 0 512 512" style="enable-background:new 0 0 512 512;" xml:space="preserve">
<path style="fill:#303C42;" d="M426.667,405.314c0-0.948-0.073-1.887-0.219-3.105c0.021-0.531,0.01-1.063-0.052-1.594  l-32.167-299.919c-0.073-0.677-0.208-1.333-0.406-1.979C390.042,78.462,372.677,63.918,352,63.918h-10.667V42.581H352  c5.896,0,10.667-6.585,10.667-12.482c0-4.283-2.552-8.137-6.49-9.814c-63.521-27.047-136.833-27.047-200.354,0  c-3.938,1.677-6.49,7.345-6.49,11.626c0,5.897,4.771,10.669,10.667,10.669h10.667v21.337H160c-20.656,0-38,14.513-41.802,34.736  c-0.208,0.656-0.354,1.344-0.427,2.042L85.604,400.615c-0.052,0.51-0.073,1.021-0.052,1.531c-0.125,1.042-0.219,2.095-0.219,3.168  c0,23.535,19.135,42.674,42.667,42.674v5.935c-12.691,7.401-21.333,21.012-21.333,36.74v10.668c0,5.897,4.771,10.669,10.667,10.669  h277.333c5.896,0,10.667-4.772,10.667-10.669v-10.668c0-15.728-8.642-29.339-21.333-36.74v-5.935  C407.531,447.988,426.667,428.849,426.667,405.314z M192,149.333c-23.531,0-42.667,19.135-42.667,42.667v128  c0,20.167,14.092,37.009,32.924,41.44l-17.195,22.924C144.177,387.125,128,405.042,128,426.667c-11.76,0-21.333-9.573-21.333-21.313  l0.281-2.313c0.063-0.573,0.073-1.156,0.042-1.729l31.844-296.896c0.073-0.313,0.146-0.635,0.188-0.958  c1.604-10.5,10.427-18.125,20.979-18.125h10.667v32c0,5.896,4.771,10.667,10.667,10.667H192V149.333z M346.938,384.365  l-17.195-22.924c18.832-4.431,32.924-21.273,32.924-41.44V192c0-23.531-19.135-42.667-42.667-42.667V128h10.667  c5.896,0,10.667-4.771,10.667-10.667v-32H352c10.552,0,19.375,7.625,20.979,18.125c0.042,0.323,0.104,0.635,0.188,0.938  L405.01,401.25c-0.042,0.594-0.021,1.188,0.042,1.792c0.01,0.083,0.271,2.208,0.281,2.292c0,11.76-9.573,21.333-21.333,21.333  C384,405.042,367.823,387.125,346.938,384.365z"/>
<path style="fill:#78909C;" d="M149.333,448v-21.333c0-11.76,9.573-21.333,21.333-21.333c3.354,0,6.521-1.583,8.531-4.271  l28.797-38.396h96.01l28.797,38.396c2.01,2.688,5.177,4.271,8.531,4.271c11.76,0,21.333,9.573,21.333,21.333V448H149.333z"/>
<path style="fill:#BBDEFB;" d="M192,341.333c-11.76,0-21.333-9.573-21.333-21.333V192c0-11.76,9.573-21.333,21.333-21.333h128  c11.76,0,21.333,9.573,21.333,21.333v128c0,11.76-9.573,21.333-21.333,21.333H192z"/>
<path style="opacity:0.2;fill:#FFFFFF;enable-background:new    ;" d="M192,320V192c0-11.76,7.18-21.333,16-21.333h-16  c-11.76,0-21.333,9.573-21.333,21.333v128c0,11.76,9.573,21.333,21.333,21.333h16C199.18,341.333,192,331.76,192,320z"/>
<path style="opacity:0.1;enable-background:new    ;" d="M320,170.667h-16c8.82,0,16,9.573,16,21.333v128  c0,11.76-7.18,21.333-16,21.333h16c11.76,0,21.333-9.573,21.333-21.333V192C341.333,180.24,331.76,170.667,320,170.667z"/>
<g>
	<rect x="213.333" y="128" style="fill:#78909C;" width="85.333" height="21.333"/>
	<path style="fill:#78909C;" d="M320.146,30.219C320.052,30.792,320,31.396,320,32v74.667H192V32c0-0.604-0.052-1.208-0.146-1.781   C233.354,18.406,278.646,18.406,320.146,30.219z"/>
	<path style="fill:#78909C;" d="M128,490.667c0-11.76,9.573-21.333,21.333-21.333h213.333c11.76,0,21.333,9.573,21.333,21.333H128z"/>
</g>
<path style="opacity:0.1;enable-background:new    ;" d="M341.333,405.333c-3.354,0-6.521-1.583-8.531-4.271l-28.797-38.396h-21.333  l28.797,38.396c2.01,2.688,5.177,4.271,8.531,4.271c11.76,0,21.333,9.573,21.333,21.333V448h21.333v-21.333  C362.667,414.906,353.094,405.333,341.333,405.333z"/>
<path style="opacity:0.1;enable-background:new    ;" d="M298.667,25.719v80.948H320V32c0-0.604,0.052-1.208,0.146-1.781  C313.12,28.219,305.874,27.042,298.667,25.719z"/>
<path style="opacity:0.1;enable-background:new    ;" d="M362.667,469.333h-21.333c11.76,0,21.333,9.573,21.333,21.333H384  C384,478.906,374.427,469.333,362.667,469.333z"/>
<g>
	<path style="opacity:0.2;fill:#FFFFFF;enable-background:new    ;" d="M170.667,405.333c3.354,0,6.521-1.583,8.531-4.271   l28.797-38.396h21.333l-28.797,38.396c-2.01,2.688-5.177,4.271-8.531,4.271c-11.76,0-21.333,9.573-21.333,21.333V448h-21.333   v-21.333C149.333,414.906,158.906,405.333,170.667,405.333z"/>
	<path style="opacity:0.2;fill:#FFFFFF;enable-background:new    ;" d="M213.333,25.719v80.948H192V32   c0-0.604-0.052-1.208-0.146-1.781C198.88,28.219,206.126,27.042,213.333,25.719z"/>
	<path style="opacity:0.2;fill:#FFFFFF;enable-background:new    ;" d="M149.333,469.333h21.333   c-11.76,0-21.333,9.573-21.333,21.333H128C128,478.906,137.573,469.333,149.333,469.333z"/>
</g>
<linearGradient id="SVGID_1_" gradientUnits="userSpaceOnUse" x1="-35.8499" y1="630.5878" x2="-30.2248" y2="624.9628" gradientTransform="matrix(21.3333 0 0 -21.3333 996.3334 13791.667)">
	<stop offset="0" style="stop-color:#000000;stop-opacity:0.1"/>
	<stop offset="1" style="stop-color:#000000;stop-opacity:0"/>
</linearGradient>
<path style="fill:url(#SVGID_1_);" d="M288,448h74.667v-21.333c0-11.76-9.573-21.333-21.333-21.333  c-3.354,0-6.521-1.583-8.531-4.271l-28.797-38.396h-96.01l-2.284,3.044L288,448z"/>
<path style="fill:#303C42;" d="M256,384c-11.76,0-21.333,9.573-21.333,21.333s9.573,21.333,21.333,21.333  c11.76,0,21.333-9.573,21.333-21.333S267.76,384,256,384z"/>
<g>
	<polygon style="opacity:0.5;fill:#FFFFFF;enable-background:new    ;" points="170.667,277.333 277.333,170.667 320,170.667    170.667,320  "/>
	<polygon style="opacity:0.5;fill:#FFFFFF;enable-background:new    ;" points="202.667,341.333 341.333,202.667 341.333,234.667    234.667,341.333  "/>
</g>
<linearGradient id="SVGID_2_" gradientUnits="userSpaceOnUse" x1="-35.7031" y1="641.4844" x2="-33.2031" y2="638.9844" gradientTransform="matrix(21.3333 0 0 -21.3333 996.3334 13791.667)">
	<stop offset="0" style="stop-color:#000000;stop-opacity:0.1"/>
	<stop offset="1" style="stop-color:#000000;stop-opacity:0"/>
</linearGradient>
<polygon style="fill:url(#SVGID_2_);" points="298.667,149.333 298.667,128 213.333,128 234.667,149.333 "/>
<linearGradient id="SVGID_3_" gradientUnits="userSpaceOnUse" x1="-43.2447" y1="637.5453" x2="-24.8591" y2="628.9725" gradientTransform="matrix(21.3333 0 0 -21.3333 996.3334 13791.667)">
	<stop offset="0" style="stop-color:#FFFFFF;stop-opacity:0.2"/>
	<stop offset="1" style="stop-color:#FFFFFF;stop-opacity:0"/>
</linearGradient>
<path style="fill:url(#SVGID_3_);" d="M426.667,405.314c0-0.948-0.073-1.887-0.219-3.105c0.021-0.531,0.01-1.063-0.052-1.594  l-32.167-299.919c-0.073-0.677-0.208-1.333-0.406-1.979C390.042,78.462,372.677,63.918,352,63.918h-10.667V42.581H352  c5.896,0,10.667-6.585,10.667-12.482c0-4.283-2.552-8.137-6.49-9.814c-63.521-27.047-136.833-27.047-200.354,0  c-3.938,1.677-6.49,7.345-6.49,11.626c0,5.897,4.771,10.669,10.667,10.669h10.667v21.337H160c-20.656,0-38,14.513-41.802,34.736  c-0.208,0.656-0.354,1.344-0.427,2.042L85.604,400.615c-0.052,0.51-0.073,1.021-0.052,1.531c-0.125,1.042-0.219,2.095-0.219,3.168  c0,23.535,19.135,42.674,42.667,42.674v5.935c-12.691,7.401-21.333,21.012-21.333,36.74v10.668c0,5.897,4.771,10.669,10.667,10.669  h277.333c5.896,0,10.667-4.772,10.667-10.669v-10.668c0-15.728-8.642-29.339-21.333-36.74v-5.935  C407.531,447.988,426.667,428.849,426.667,405.314z M192,149.333c-23.531,0-42.667,19.135-42.667,42.667v128  c0,20.167,14.092,37.009,32.924,41.44l-17.195,22.924C144.177,387.125,128,405.042,128,426.667c-11.76,0-21.333-9.573-21.333-21.313  l0.281-2.313c0.063-0.573,0.073-1.156,0.042-1.729l31.844-296.896c0.073-0.313,0.146-0.635,0.188-0.958  c1.604-10.5,10.427-18.125,20.979-18.125h10.667v32c0,5.896,4.771,10.667,10.667,10.667H192V149.333z M346.938,384.365  l-17.195-22.924c18.832-4.431,32.924-21.273,32.924-41.44V192c0-23.531-19.135-42.667-42.667-42.667V128h10.667  c5.896,0,10.667-4.771,10.667-10.667v-32H352c10.552,0,19.375,7.625,20.979,18.125c0.042,0.323,0.104,0.635,0.188,0.938  L405.01,401.25c-0.042,0.594-0.021,1.188,0.042,1.792c0.01,0.083,0.271,2.208,0.281,2.292c0,11.76-9.573,21.333-21.333,21.333  C384,405.042,367.823,387.125,346.938,384.365z"/>
<g>
</g>
<g>
</g>
<g>
</g>
<g>
</g>
<g>
</g>
<g>
</g>
<g>
</g>
<g>
</g>
<g>
</g>
<g>
</g>
<g>
</g>
<g>
</g>
<g>
</g>
<g>
</g>
<g>
</g>
</svg>
