<?xml version="1.0" encoding="iso-8859-1"?>
<!-- Generator: Adobe Illustrator 19.0.0, SVG Export Plug-In . SVG Version: 6.00 Build 0)  -->
<svg xmlns="http://www.w3.org/2000/svg" xmlns:xlink="http://www.w3.org/1999/xlink" version="1.1" id="Capa_1" x="0px" y="0px" viewBox="0 0 512.006 512.006" style="enable-background:new 0 0 512.006 512.006;" xml:space="preserve">
<path style="fill:#303C42;" d="M256.003,170.673c41.167,0,74.667-29.542,74.667-65.854c0-1.854-0.135-3.573-0.417-6.854  c-2.292-25.719-16.271-41.948-27.5-54.979c-9.646-11.198-17.26-20.042-17.26-32.313c0-3.865-2.094-7.427-5.469-9.313  c-3.365-1.896-7.51-1.802-10.802,0.229c-18.042,11.135-33.167,30.083-38.521,48.281c-2.271,7.771-3.313,16-3.792,23.271  c-4.073-4.656-5.365-11.188-5.552-12.25c-0.531-3.219-2.5-6.021-5.354-7.615c-2.854-1.583-6.313-1.781-9.292-0.51  c-0.979,0.417-24.031,10.49-25.271,48.188c-0.094,1.281-0.104,2.573-0.104,3.865C181.337,141.131,214.837,170.673,256.003,170.673z"/>
<path style="fill:#FFCA28;" d="M202.732,102.058c0.313-9.135,2.167-15.615,4.354-20.125c5.75,9.146,15.344,17.323,30.094,17.323  c5.896,0,10.667-4.771,10.667-10.667c0-10.333,0.26-22.229,3.323-32.708c2.625-8.896,8.802-18.385,16.708-26.188  c4.26,10.438,11.563,18.917,18.708,27.208c10.667,12.375,20.729,24.062,22.542,44.479c0.104,1.115,0.208,2.229,0.208,3.438  c0,24.552-23.927,44.521-53.333,44.521s-53.333-19.969-53.333-44.521L202.732,102.058z"/>
<path style="fill:#FF6F00;" d="M223.946,120.887c0.188-5.497,1.304-9.396,2.62-12.111c3.46,5.504,9.234,10.425,18.11,10.425  c3.548,0,6.419-2.871,6.419-6.419c0-6.218,0.157-13.377,2-19.683c1.58-5.353,5.297-11.064,10.055-15.759  c2.564,6.281,6.958,11.384,11.258,16.373c6.419,7.447,12.474,14.48,13.565,26.766c0.063,0.671,0.125,1.341,0.125,2.069  c0,14.775-14.399,26.792-32.095,26.792s-32.095-12.017-32.095-26.792L223.946,120.887z"/>
<path style="fill:#303C42;" d="M404.524,134.59c-1.646-3.99-5.542-6.583-9.854-6.583h-42.667c-5.896,0-10.667,4.771-10.667,10.667  c0,5.896,4.771,10.667,10.667,10.667h16.917l-70.25,70.25v-16.917c0-5.896-4.771-10.667-10.667-10.667h-64  c-5.896,0-10.667,4.771-10.667,10.667v16.917l-70.25-70.25h16.917c5.896,0,10.667-4.771,10.667-10.667  c0-5.896-4.771-10.667-10.667-10.667h-42.667c-4.313,0-8.208,2.594-9.854,6.583c-1.656,3.99-0.74,8.573,2.313,11.625l91.473,91.473  c-41.941,10.277-73.264,47.919-73.264,92.986V469.34c0,23.531,19.135,42.667,42.667,42.667h170.667  c23.531,0,42.667-19.135,42.667-42.667V330.673c0-45.066-31.323-82.708-73.264-92.986l91.473-91.473  C405.264,143.163,406.18,138.579,404.524,134.59z"/>
<rect x="234.67" y="213.337" style="fill:#E6E6E6;" width="42.667" height="21.333"/>
<path style="fill:#D32F2F;" d="M362.67,330.673V469.34c0,11.76-9.573,21.333-21.333,21.333H170.67  c-11.76,0-21.333-9.573-21.333-21.333V330.673c0-41.167,33.5-74.667,74.667-74.667h64C329.17,256.006,362.67,289.506,362.67,330.673  z"/>
<path style="opacity:0.2;fill:#FFFFFF;enable-background:new    ;" d="M165.337,469.34V330.673  c0-41.167,28.475-74.667,63.466-74.667h-4.799c-41.167,0-74.667,33.5-74.667,74.667V469.34c0,11.76,9.573,21.333,21.333,21.333  h12.799C173.473,490.673,165.337,481.1,165.337,469.34z"/>
<path style="opacity:0.1;enable-background:new    ;" d="M288.003,256.006h-4.799c34.991,0,63.466,33.5,63.466,74.667V469.34  c0,11.76-8.137,21.333-18.133,21.333h12.799c11.76,0,21.333-9.573,21.333-21.333V330.673  C362.67,289.506,329.17,256.006,288.003,256.006z"/>
<path style="fill:#303C42;" d="M170.67,352.006v85.333c0,5.896,4.771,10.667,10.667,10.667H330.67  c5.896,0,10.667-4.771,10.667-10.667v-85.333c0-5.896-4.771-10.667-10.667-10.667H181.337  C175.441,341.34,170.67,346.111,170.67,352.006z"/>
<rect x="192.003" y="362.67" style="fill:#E6E6E6;" width="128" height="64"/>
<rect x="192.003" y="416.003" style="opacity:0.1;enable-background:new    ;" width="128" height="10.667"/>
<linearGradient id="SVGID_1_" gradientUnits="userSpaceOnUse" x1="-42.9069" y1="637.5098" x2="-26.0797" y2="629.6637" gradientTransform="matrix(21.3333 0 0 -21.3333 996.2682 13791.7383)">
	<stop offset="0" style="stop-color:#FFFFFF;stop-opacity:0.2"/>
	<stop offset="1" style="stop-color:#FFFFFF;stop-opacity:0"/>
</linearGradient>
<path style="fill:url(#SVGID_1_);" d="M256.003,170.673c41.167,0,74.667-29.542,74.667-65.854c0-1.854-0.135-3.573-0.417-6.854  c-2.292-25.719-16.271-41.948-27.5-54.979c-9.646-11.198-17.26-20.042-17.26-32.313c0-3.865-2.094-7.427-5.469-9.313  c-3.365-1.896-7.51-1.802-10.802,0.229c-18.042,11.135-33.167,30.083-38.521,48.281c-2.271,7.771-3.313,16-3.792,23.271  c-4.073-4.656-5.365-11.188-5.552-12.25c-0.531-3.219-2.5-6.021-5.354-7.615c-2.854-1.583-6.313-1.781-9.292-0.51  c-0.979,0.417-24.031,10.49-25.271,48.188c-0.094,1.281-0.104,2.573-0.104,3.865C181.337,141.131,214.837,170.673,256.003,170.673z   M404.524,134.59c-1.646-3.99-5.542-6.583-9.854-6.583h-42.667c-5.896,0-10.667,4.771-10.667,10.667  c0,5.896,4.771,10.667,10.667,10.667h16.917l-70.25,70.25v-16.917c0-5.896-4.771-10.667-10.667-10.667h-64  c-5.896,0-10.667,4.771-10.667,10.667v16.917l-70.25-70.25h16.917c5.896,0,10.667-4.771,10.667-10.667  c0-5.896-4.771-10.667-10.667-10.667h-42.667c-4.313,0-8.208,2.594-9.854,6.583c-1.656,3.99-0.74,8.573,2.313,11.625l91.473,91.473  c-41.941,10.277-73.264,47.919-73.264,92.986V469.34c0,23.531,19.135,42.667,42.667,42.667h170.667  c23.531,0,42.667-19.135,42.667-42.667V330.673c0-45.066-31.323-82.708-73.264-92.986l91.473-91.473  C405.264,143.163,406.18,138.579,404.524,134.59z"/>
<g>
</g>
<g>
</g>
<g>
</g>
<g>
</g>
<g>
</g>
<g>
</g>
<g>
</g>
<g>
</g>
<g>
</g>
<g>
</g>
<g>
</g>
<g>
</g>
<g>
</g>
<g>
</g>
<g>
</g>
</svg>
