<?xml version="1.0" encoding="iso-8859-1"?>
<!-- Generator: Adobe Illustrator 19.0.0, SVG Export Plug-In . SVG Version: 6.00 Build 0)  -->
<svg xmlns="http://www.w3.org/2000/svg" xmlns:xlink="http://www.w3.org/1999/xlink" version="1.1" id="Capa_1" x="0px" y="0px" viewBox="0 0 512 512" style="enable-background:new 0 0 512 512;" xml:space="preserve">
<path style="fill:#303C42;" d="M373.333,448c5.896,0,10.667-4.771,10.667-10.667V202.667c0-5.896-4.771-10.667-10.667-10.667h-0.329  C369.616,99.059,322.595,0,256,0S142.384,99.059,138.996,192h-0.329c-5.896,0-10.667,4.771-10.667,10.667v234.667  c0,5.896,4.771,10.667,10.667,10.667c5.885,0,10.667,4.792,10.667,10.667s-4.781,10.667-10.667,10.667  c-5.896,0-10.667,4.771-10.667,10.667v21.333c0,5.896,4.771,10.667,10.667,10.667h234.667c5.896,0,10.667-4.771,10.667-10.667V480  c0-5.896-4.771-10.667-10.667-10.667c-5.885,0-10.667-4.792-10.667-10.667S367.448,448,373.333,448z"/>
<path style="fill:#FFCA28;" d="M256,21.333c47.453,0,92.294,81.521,95.671,170.667H160.329  C163.706,102.854,208.547,21.333,256,21.333z"/>
<path style="opacity:0.2;fill:#FFFFFF;enable-background:new    ;" d="M160.329,192H200c1.977-89.146,28.224-170.667,56-170.667  C208.547,21.333,163.706,102.854,160.329,192z"/>
<path style="opacity:0.1;enable-background:new    ;" d="M256,21.333c27.776,0,54.023,81.521,56,170.667h39.671  C348.294,102.854,303.453,21.333,256,21.333z"/>
<path style="fill:#FFCA28;" d="M362.667,428.5c-12.417,4.396-21.333,16.25-21.333,30.167c0,13.917,8.917,25.771,21.333,30.167v1.833  H149.333v-1.833c12.417-4.396,21.333-16.25,21.333-30.167c0-13.917-8.917-25.771-21.333-30.167V213.333h213.333V428.5z"/>
<path style="opacity:0.2;fill:#FFFFFF;enable-background:new    ;" d="M199.253,458.667c0-13.917-5.93-25.771-14.186-30.167V213.333  h-35.733V428.5c12.417,4.396,21.333,16.25,21.333,30.167c0,13.917-8.917,25.771-21.333,30.167v1.833h35.733v-1.833  C193.323,484.438,199.253,472.583,199.253,458.667z"/>
<path style="opacity:0.1;enable-background:new    ;" d="M362.667,428.5V213.333h-35.733V428.5  c-8.257,4.396-14.186,16.25-14.186,30.167c0,13.917,5.93,25.771,14.186,30.167v1.833h35.733v-1.833  c-12.417-4.396-21.333-16.25-21.333-30.167C341.333,444.75,350.25,432.896,362.667,428.5z"/>
<linearGradient id="SVGID_1_" gradientUnits="userSpaceOnUse" x1="-41.8325" y1="636.6646" x2="-25.7657" y2="629.1722" gradientTransform="matrix(21.3333 0 0 -21.3333 996.3334 13791.667)">
	<stop offset="0" style="stop-color:#FFFFFF;stop-opacity:0.2"/>
	<stop offset="1" style="stop-color:#FFFFFF;stop-opacity:0"/>
</linearGradient>
<path style="fill:url(#SVGID_1_);" d="M373.333,448c5.896,0,10.667-4.771,10.667-10.667V202.667c0-5.896-4.771-10.667-10.667-10.667  h-0.329C369.616,99.059,322.595,0,256,0S142.384,99.059,138.996,192h-0.329c-5.896,0-10.667,4.771-10.667,10.667v234.667  c0,5.896,4.771,10.667,10.667,10.667c5.885,0,10.667,4.792,10.667,10.667s-4.781,10.667-10.667,10.667  c-5.896,0-10.667,4.771-10.667,10.667v21.333c0,5.896,4.771,10.667,10.667,10.667h234.667c5.896,0,10.667-4.771,10.667-10.667V480  c0-5.896-4.771-10.667-10.667-10.667c-5.885,0-10.667-4.792-10.667-10.667S367.448,448,373.333,448z"/>
<g>
</g>
<g>
</g>
<g>
</g>
<g>
</g>
<g>
</g>
<g>
</g>
<g>
</g>
<g>
</g>
<g>
</g>
<g>
</g>
<g>
</g>
<g>
</g>
<g>
</g>
<g>
</g>
<g>
</g>
</svg>
