<?xml version="1.0" encoding="iso-8859-1"?>
<!-- Generator: Adobe Illustrator 19.0.0, SVG Export Plug-In . SVG Version: 6.00 Build 0)  -->
<svg xmlns="http://www.w3.org/2000/svg" xmlns:xlink="http://www.w3.org/1999/xlink" version="1.1" id="Capa_1" x="0px" y="0px" viewBox="0 0 512 512" style="enable-background:new 0 0 512 512;" xml:space="preserve">
<path style="fill:#303C42;" d="M463.435,246.458l-21.333-10.667c-5.25-2.583-11.667-0.5-14.313,4.771  c-0.767,1.539-1.018,3.16-1.014,4.771h-21.863c-4.318-90.408-62.507-126.875-109.727-156.26  c-25.335-15.758-46.676-29.038-55.786-47.365c9.423-2.212,16.599-10.292,16.599-20.375C255.998,9.573,246.435,0,234.664,0  c-10.294,0-18.493,7.47-20.491,17.173c-0.072,0.168-0.051,0.372-0.113,0.544l-0.083-0.03l-73.923,203.285l-4.514-4.514  c-2-2-4.708-3.125-7.542-3.125H53.331c-4.313,0-8.208,2.594-9.854,6.583c-1.646,3.99-0.729,8.573,2.313,11.625L70.248,256  l-24.458,24.458c-3.042,3.052-3.958,7.635-2.313,11.625c1.646,3.99,5.542,6.583,9.854,6.583h74.667c2.833,0,5.542-1.125,7.542-3.125  l4.514-4.514l73.923,203.285l0.083-0.03c0.063,0.172,0.042,0.376,0.113,0.544C216.171,504.53,224.37,512,234.664,512  c11.771,0,21.333-9.573,21.333-21.333c0-10.083-7.176-18.163-16.599-20.375c9.111-18.327,30.452-31.607,55.786-47.365  c47.22-29.385,105.409-65.853,109.727-156.26h21.863c-0.004,1.611,0.247,3.232,1.014,4.771c1.875,3.74,5.646,5.896,9.542,5.896  c1.604,0,3.229-0.365,4.771-1.125l21.333-10.667c3.604-1.813,5.896-5.5,5.896-9.542  C469.331,251.958,467.039,248.271,463.435,246.458z M274.727,382.729c-21.508,18.643-43.323,37.934-54.211,67.16l-63.822-175.503  l7.72-7.72h176.245C337.222,327.815,305.664,355.924,274.727,382.729z M164.414,245.333l-7.72-7.72l63.822-175.503  c10.888,29.227,32.703,48.517,54.211,67.16c30.938,26.805,62.495,54.914,65.932,116.063H164.414z"/>
<path id="SVGCleanerId_0" style="fill:#6D4C41;" d="M283.914,107.188c44.913,27.941,95.423,59.582,99.668,138.146h-21.599  c-3.525-70.895-40.29-103.592-73.277-132.188c-4-3.469-7.938-6.875-11.729-10.281C279.269,104.302,281.581,105.74,283.914,107.188z"/>
<path style="fill:#6D4C41;" d="M283.914,404.813c-2.333,1.448-4.646,2.885-6.938,4.323c3.792-3.406,7.729-6.813,11.729-10.281  c32.987-28.595,69.753-61.293,73.277-132.188h21.599C379.338,345.23,328.827,376.871,283.914,404.813z"/>
<g>
	<path id="SVGCleanerId_0_1_" style="fill:#6D4C41;" d="M283.914,107.188c44.913,27.941,95.423,59.582,99.668,138.146h-21.599   c-3.525-70.895-40.29-103.592-73.277-132.188c-4-3.469-7.938-6.875-11.729-10.281C279.269,104.302,281.581,105.74,283.914,107.188z   "/>
</g>
<path style="fill:#E6E6E6;" d="M123.581,277.333h-44.5l13.792-13.792c4.167-4.167,4.167-10.917,0-15.083l-13.792-13.792h44.5  L144.914,256L123.581,277.333z"/>
<path style="opacity:0.1;enable-background:new    ;" d="M92.873,263.542l-13.792,13.792h44.5L144.914,256H95.998  C95.998,258.729,94.956,261.458,92.873,263.542z"/>
<linearGradient id="SVGID_1_" gradientUnits="userSpaceOnUse" x1="-43.7123" y1="638.2205" x2="-26.6246" y2="630.2531" gradientTransform="matrix(21.3333 0 0 -21.3333 996.3334 13791.667)">
	<stop offset="0" style="stop-color:#FFFFFF;stop-opacity:0.2"/>
	<stop offset="1" style="stop-color:#FFFFFF;stop-opacity:0"/>
</linearGradient>
<path style="fill:url(#SVGID_1_);" d="M463.435,246.458l-21.333-10.667c-5.25-2.583-11.667-0.5-14.313,4.771  c-0.767,1.539-1.018,3.16-1.014,4.771h-21.863c-4.318-90.408-62.507-126.875-109.727-156.26  c-25.335-15.758-46.676-29.038-55.786-47.365c9.423-2.212,16.599-10.292,16.599-20.375C255.998,9.573,246.435,0,234.664,0  c-10.294,0-18.493,7.47-20.491,17.173c-0.072,0.168-0.051,0.372-0.113,0.544l-0.083-0.03l-73.923,203.285l-4.514-4.514  c-2-2-4.708-3.125-7.542-3.125H53.331c-4.313,0-8.208,2.594-9.854,6.583c-1.646,3.99-0.729,8.573,2.313,11.625L70.248,256  l-24.458,24.458c-3.042,3.052-3.958,7.635-2.313,11.625c1.646,3.99,5.542,6.583,9.854,6.583h74.667c2.833,0,5.542-1.125,7.542-3.125  l4.514-4.514l73.923,203.285l0.083-0.03c0.063,0.172,0.042,0.376,0.113,0.544C216.171,504.53,224.37,512,234.664,512  c11.771,0,21.333-9.573,21.333-21.333c0-10.083-7.176-18.163-16.599-20.375c9.111-18.327,30.452-31.607,55.786-47.365  c47.22-29.385,105.409-65.853,109.727-156.26h21.863c-0.004,1.611,0.247,3.232,1.014,4.771c1.875,3.74,5.646,5.896,9.542,5.896  c1.604,0,3.229-0.365,4.771-1.125l21.333-10.667c3.604-1.813,5.896-5.5,5.896-9.542  C469.331,251.958,467.039,248.271,463.435,246.458z M274.727,382.729c-21.508,18.643-43.323,37.934-54.211,67.16l-63.822-175.503  l7.72-7.72h176.245C337.222,327.815,305.664,355.924,274.727,382.729z M164.414,245.333l-7.72-7.72l63.822-175.503  c10.888,29.227,32.703,48.517,54.211,67.16c30.938,26.805,62.495,54.914,65.932,116.063H164.414z"/>
<g>
</g>
<g>
</g>
<g>
</g>
<g>
</g>
<g>
</g>
<g>
</g>
<g>
</g>
<g>
</g>
<g>
</g>
<g>
</g>
<g>
</g>
<g>
</g>
<g>
</g>
<g>
</g>
<g>
</g>
</svg>
