<?xml version="1.0" encoding="iso-8859-1"?>
<!-- Generator: Adobe Illustrator 19.0.0, SVG Export Plug-In . SVG Version: 6.00 Build 0)  -->
<svg xmlns="http://www.w3.org/2000/svg" xmlns:xlink="http://www.w3.org/1999/xlink" version="1.1" id="Capa_1" x="0px" y="0px" viewBox="0 0 512 512" style="enable-background:new 0 0 512 512;" xml:space="preserve">
<path style="fill:#303C42;" d="M501.333,64C471.917,64,448,40.073,448,10.667C448,4.771,443.229,0,437.333,0  s-10.667,4.771-10.667,10.667C426.667,40.073,402.75,64,373.333,64c-5.896,0-10.667,4.771-10.667,10.667  c0,5.896,4.771,10.667,10.667,10.667c8.445,0,16.328,2.151,23.431,5.659c-14.754,6.169-28.514,6.57-41.973,6.81  c-17.768,0.311-36.077,0.656-51.027,16.448c-18.049-9.813-37.24-17.56-57.493-22.365c-4.583-1.094-9.354,0.958-11.688,5.042  l-18.868,32.695l0.004,0.001C207.93,128.658,200.047,128,192,128C86.125,128,0,214.135,0,320s86.125,192,192,192s192-86.135,192-192  c0-43.421-14.659-83.388-39.056-115.589l0.001,0.001l18.93-32.788c2.375-4.083,1.771-9.229-1.479-12.656  c-12.004-12.703-25.591-23.415-39.867-33.035c7.736-6.003,17.305-6.534,32.638-6.809c16.382-0.285,37.064-0.919,59.732-13.466  c7.251,9.111,11.768,20.486,11.768,33.008c0,5.896,4.771,10.667,10.667,10.667S448,144.563,448,138.667  c0-29.406,23.917-53.333,53.333-53.333c5.896,0,10.667-4.771,10.667-10.667C512,68.771,507.229,64,501.333,64z"/>
<circle style="fill:#546E7A;" cx="192" cy="320" r="170.667"/>
<path style="opacity:0.1;enable-background:new    ;" d="M301.044,188.853C313.078,212.216,320,238.626,320,266.667  c0,94.104-76.563,170.667-170.667,170.667c-41.436,0-79.448-14.87-109.044-39.52c28.353,55.047,85.647,92.853,151.711,92.853  c94.104,0,170.667-76.563,170.667-170.667C362.667,267.332,338.661,220.185,301.044,188.853z"/>
<path style="fill:#546E7A;" d="M341.354,167.969l-10.958,18.99l-0.355,0.439c-24.626-25.625-56.027-44.59-91.586-53.477h0.003  c-0.171-0.042-0.328-0.118-0.499-0.16L249,114.604C283.833,124.25,315.5,142.542,341.354,167.969z"/>
<path style="opacity:0.1;enable-background:new    ;" d="M242.219,127.646h0.003c-0.171-0.042-0.328-0.118-0.499-0.16l7.4-12.839  c-0.042-0.012-0.081-0.031-0.122-0.043l-11.042,19.156c0.171,0.042,0.328,0.118,0.499,0.16h-0.003  c35.559,8.887,66.96,27.852,91.586,53.477l0.355-0.439l3.382-5.861C309.154,155.487,277.766,136.53,242.219,127.646z"/>
<path style="fill:#FFCA28;" d="M437.333,100.24c-1.398-2.318-3.344-4.211-4.978-6.358c4.085-3.376,8.212-7.172,12.374-11.527  c4.083-4.25,3.917-11.01-0.333-15.073c-4.25-4.073-11.042-3.917-15.083,0.344c-4.203,4.397-8.279,7.966-12.296,11.161  c-1.805-1.32-3.344-2.964-5.267-4.12c10.479-6.302,19.271-15.115,25.583-25.573c6.313,10.458,15.104,19.271,25.583,25.573  C452.438,80.969,443.646,89.781,437.333,100.24z"/>
<path style="opacity:0.2;fill:#FFFFFF;enable-background:new    ;" d="M192,170.667c-39.896,0-77.396,15.531-105.583,43.74  c-4.167,4.167-4.167,10.917,0,15.083c2.083,2.083,4.813,3.125,7.542,3.125s5.458-1.042,7.542-3.125  C125.667,205.313,157.813,192,192,192c5.896,0,10.667-4.771,10.667-10.667C202.667,175.438,197.896,170.667,192,170.667z"/>
<linearGradient id="SVGID_1_" gradientUnits="userSpaceOnUse" x1="-43.8509" y1="639.5943" x2="-27.5388" y2="631.9864" gradientTransform="matrix(21.3333 0 0 -21.3333 996.3334 13791.667)">
	<stop offset="0" style="stop-color:#FFFFFF;stop-opacity:0.2"/>
	<stop offset="1" style="stop-color:#FFFFFF;stop-opacity:0"/>
</linearGradient>
<path style="fill:url(#SVGID_1_);" d="M501.333,64C471.917,64,448,40.073,448,10.667C448,4.771,443.229,0,437.333,0  s-10.667,4.771-10.667,10.667C426.667,40.073,402.75,64,373.333,64c-5.896,0-10.667,4.771-10.667,10.667  c0,5.896,4.771,10.667,10.667,10.667c8.445,0,16.328,2.151,23.431,5.659c-14.754,6.169-28.514,6.57-41.973,6.81  c-17.768,0.311-36.077,0.656-51.027,16.448c-18.049-9.813-37.24-17.56-57.493-22.365c-4.583-1.094-9.354,0.958-11.688,5.042  l-18.868,32.695l0.004,0.001C207.93,128.658,200.047,128,192,128C86.125,128,0,214.135,0,320s86.125,192,192,192s192-86.135,192-192  c0-43.421-14.659-83.388-39.056-115.589l0.001,0.001l18.93-32.788c2.375-4.083,1.771-9.229-1.479-12.656  c-12.004-12.703-25.591-23.415-39.867-33.035c7.736-6.003,17.305-6.534,32.638-6.809c16.382-0.285,37.064-0.919,59.732-13.466  c7.251,9.111,11.768,20.486,11.768,33.008c0,5.896,4.771,10.667,10.667,10.667S448,144.563,448,138.667  c0-29.406,23.917-53.333,53.333-53.333c5.896,0,10.667-4.771,10.667-10.667C512,68.771,507.229,64,501.333,64z"/>
<g>
</g>
<g>
</g>
<g>
</g>
<g>
</g>
<g>
</g>
<g>
</g>
<g>
</g>
<g>
</g>
<g>
</g>
<g>
</g>
<g>
</g>
<g>
</g>
<g>
</g>
<g>
</g>
<g>
</g>
</svg>
