<?xml version="1.0" encoding="iso-8859-1"?>
<!-- Generator: Adobe Illustrator 19.0.0, SVG Export Plug-In . SVG Version: 6.00 Build 0)  -->
<svg xmlns="http://www.w3.org/2000/svg" xmlns:xlink="http://www.w3.org/1999/xlink" version="1.1" id="Capa_1" x="0px" y="0px" viewBox="0 0 512 512" style="enable-background:new 0 0 512 512;" xml:space="preserve">
<path style="fill:#303C42;" d="M508.875,184.441L475.5,151.058l5.542-5.522c12.813-12.836,12.813-33.696,0-46.511l-68.167-68.183  c-12.792-12.816-33.667-12.774-46.5,0l-5.521,5.543L327.479,3.001c-4-4.001-11.083-4.001-15.083,0L3.125,312.41  c-4.167,4.168-4.167,10.919,0,15.087L36.5,360.88l-5.542,5.543c-6.208,6.21-9.625,14.462-9.625,23.256  c0,8.773,3.417,17.025,9.625,23.235l68.167,68.121c12.813,12.816,33.687,12.774,46.5,0l5.521-5.543l33.375,33.383  c2.083,2.084,4.813,3.126,7.542,3.126c2.729,0,5.458-1.042,7.542-3.126l309.271-309.346  C513.042,195.36,513.042,188.609,508.875,184.441z"/>
<path style="fill:#D6DEE1;" d="M192.063,486.25l-33.375-33.375c-2-2-4.708-3.125-7.542-3.125c-2.833,0-5.542,1.125-7.542,3.125  l-13.063,13.083c-4.5,4.5-11.833,4.5-16.333,0l-68.167-68.104c-4.5-4.5-4.5-11.813,0-16.313l13.083-13.083  c4.167-4.167,4.167-10.917,0-15.083L25.75,320L319.938,25.75l33.375,33.375c4,4,11.083,4,15.083,0l13.063-13.083  c4.5-4.5,11.833-4.5,16.333,0l68.167,68.167c4.5,4.5,4.5,11.833,0,16.333l-13.083,13.063c-2,2-3.125,4.708-3.125,7.542  c0,2.833,1.125,5.542,3.125,7.542l33.375,33.375L192.063,486.25z"/>
<path style="opacity:0.1;enable-background:new    ;" d="M125.396,424c-2.833,0-5.542,1.125-7.542,3.125l-13.063,13.083  c-4.5,4.5-11.833,4.5-16.333,0l25.75,25.75c4.5,4.5,11.833,4.5,16.333,0l13.063-13.083c2-2,4.708-3.125,7.542-3.125  c2.833,0,5.542,1.125,7.542,3.125l-25.75-25.75C130.938,425.125,128.229,424,125.396,424z"/>
<path style="opacity:0.1;enable-background:new    ;" d="M440.208,104.792l-13.083,13.063c-2,2-3.125,4.708-3.125,7.542  c0,2.833,1.125,5.542,3.125,7.542l25.75,25.75c-2-2-3.125-4.708-3.125-7.542c0-2.833,1.125-5.542,3.125-7.542l13.083-13.063  c4.5-4.5,4.5-11.833,0-16.333l-25.75-25.75C444.708,92.958,444.708,100.292,440.208,104.792z"/>
<rect x="118.259" y="308.071" transform="matrix(-0.7071 0.7071 -0.7071 -0.7071 787.7115 326.2783)" style="opacity:0.1;enable-background:new    ;" width="416.045" height="36.416"/>
<path style="fill:#303C42;" d="M380.875,88.458c-4.167-4.167-10.917-4.167-15.083,0c-4.167,4.167-4.167,10.917,0,15.083  l13.792,13.792L368.917,128h-27.583c-5.896,0-10.667,4.771-10.667,10.667v27.583l-21.333,21.333l-13.792-13.792  c-4.167-4.167-10.917-4.167-15.083,0c-4.167,4.167-4.167,10.917,0,15.083l13.792,13.792l-24.54,24.54  C265.538,225.211,260.926,224,256,224c-17.646,0-32,14.354-32,32c0,4.926,1.211,9.538,3.207,13.71l-24.54,24.54l-13.792-13.792  c-4.167-4.167-10.917-4.167-15.083,0s-4.167,10.917,0,15.083l13.792,13.792l-21.333,21.333h-27.583  c-5.896,0-10.667,4.771-10.667,10.667v27.583l-10.667,10.667l-13.792-13.792c-4.167-4.167-10.917-4.167-15.083,0  c-4.167,4.167-4.167,10.917,0,15.083l42.667,42.667c2.083,2.083,4.813,3.125,7.542,3.125s5.458-1.042,7.542-3.125  c4.167-4.167,4.167-10.917,0-15.083l-13.792-13.792L143.083,384h27.583c5.896,0,10.667-4.771,10.667-10.667V345.75l21.333-21.333  l13.792,13.792c2.083,2.083,4.813,3.125,7.542,3.125c2.729,0,5.458-1.042,7.542-3.125c4.167-4.167,4.167-10.917,0-15.083  l-13.792-13.792l24.54-24.54c4.172,1.996,8.784,3.207,13.71,3.207c17.646,0,32-14.354,32-32c0-4.926-1.211-9.538-3.207-13.71  l24.54-24.54l13.792,13.792c2.083,2.083,4.813,3.125,7.542,3.125c2.729,0,5.458-1.042,7.542-3.125  c4.167-4.167,4.167-10.917,0-15.083l-13.792-13.792l21.333-21.333h27.583c5.896,0,10.667-4.771,10.667-10.667v-27.583l10.667-10.667  l13.792,13.792c2.083,2.083,4.813,3.125,7.542,3.125c2.729,0,5.458-1.042,7.542-3.125c4.167-4.167,4.167-10.917,0-15.083  L380.875,88.458z"/>
<linearGradient id="SVGID_1_" gradientUnits="userSpaceOnUse" x1="-43.4519" y1="638.5681" x2="-25.9531" y2="630.4061" gradientTransform="matrix(21.3333 0 0 -21.3333 996.3333 13791.667)">
	<stop offset="0" style="stop-color:#FFFFFF;stop-opacity:0.2"/>
	<stop offset="1" style="stop-color:#FFFFFF;stop-opacity:0"/>
</linearGradient>
<path style="fill:url(#SVGID_1_);" d="M508.875,184.441L475.5,151.058l5.542-5.522c12.813-12.836,12.813-33.696,0-46.511  l-68.167-68.183c-12.792-12.816-33.667-12.774-46.5,0l-5.521,5.543L327.479,3.001c-4-4.001-11.083-4.001-15.083,0L3.125,312.41  c-4.167,4.168-4.167,10.919,0,15.087L36.5,360.88l-5.542,5.543c-6.208,6.21-9.625,14.462-9.625,23.256  c0,8.773,3.417,17.025,9.625,23.235l68.167,68.121c12.813,12.816,33.687,12.774,46.5,0l5.521-5.543l33.375,33.383  c2.083,2.084,4.813,3.126,7.542,3.126c2.729,0,5.458-1.042,7.542-3.126l309.271-309.346  C513.042,195.36,513.042,188.609,508.875,184.441z"/>
<g>
</g>
<g>
</g>
<g>
</g>
<g>
</g>
<g>
</g>
<g>
</g>
<g>
</g>
<g>
</g>
<g>
</g>
<g>
</g>
<g>
</g>
<g>
</g>
<g>
</g>
<g>
</g>
<g>
</g>
</svg>
