<?xml version="1.0" encoding="iso-8859-1"?>
<!-- Generator: Adobe Illustrator 19.0.0, SVG Export Plug-In . SVG Version: 6.00 Build 0)  -->
<svg xmlns="http://www.w3.org/2000/svg" xmlns:xlink="http://www.w3.org/1999/xlink" version="1.1" id="Capa_1" x="0px" y="0px" viewBox="0 0 469.333 469.333" style="enable-background:new 0 0 469.333 469.333;" xml:space="preserve">
<path style="fill:#303C42;" d="M448,347.27v-42.999c12.637-6.874,21.333-20.111,21.333-35.479c0-1.885-0.125-3.76-0.396-5.74  l-17.125-119.75c-2.979-20.885-21.146-36.635-42.229-36.635h-46.917V85.333h10.667c5.896,0,10.667-4.771,10.667-10.667v-64  C384,4.771,379.229,0,373.333,0H266.667C260.771,0,256,4.771,256,10.667v64c0,5.896,4.771,10.667,10.667,10.667h10.667v21.333  h-10.667c-12.801,0-24.172,5.785-32,14.746c-7.828-8.961-19.199-14.746-32-14.746H192V85.333h10.667  c5.896,0,10.667-4.771,10.667-10.667v-64C213.333,4.771,208.563,0,202.667,0H96c-5.896,0-10.667,4.771-10.667,10.667v64  c0,5.896,4.771,10.667,10.667,10.667h10.667v21.333H59.75c-21.084,0-39.25,15.75-42.229,36.635L0.375,263.156  C0.125,265.031,0,266.906,0,268.792c0,15.368,8.697,28.605,21.333,35.479v42.999C8.645,354.671,0,368.277,0,384v42.667  c0,23.531,19.146,42.667,42.667,42.667h128c23.521,0,42.667-19.135,42.667-42.667V384c0-15.723-8.645-29.329-21.333-36.73v-37.936  h10.667c12.801,0,24.172-5.785,32-14.746c7.828,8.961,19.199,14.746,32,14.746h10.667v37.936C264.645,354.671,256,368.277,256,384  v42.667c0,23.531,19.146,42.667,42.667,42.667h128c23.521,0,42.667-19.135,42.667-42.667V384  C469.333,368.277,460.689,354.671,448,347.27z"/>
<g>
	<rect x="277.333" y="21.333" style="fill:#546E7A;" width="85.333" height="42.667"/>
	<rect x="298.667" y="85.333" style="fill:#546E7A;" width="42.667" height="21.333"/>
	<rect x="106.667" y="21.333" style="fill:#546E7A;" width="85.333" height="42.667"/>
</g>
<g>
	<rect x="106.667" y="21.333" style="opacity:0.2;fill:#FFFFFF;enable-background:new    ;" width="85.333" height="10.667"/>
	<rect x="277.333" y="21.333" style="opacity:0.2;fill:#FFFFFF;enable-background:new    ;" width="85.333" height="10.667"/>
</g>
<g>
	<rect x="128" y="85.333" style="fill:#546E7A;" width="42.667" height="21.333"/>
	<path style="fill:#546E7A;" d="M192,426.667c0,11.76-9.563,21.333-21.333,21.333h-128c-11.771,0-21.333-9.573-21.333-21.333V384   c0-11.76,9.563-21.333,21.333-21.333h128C182.438,362.667,192,372.24,192,384V426.667z"/>
	<rect x="42.667" y="309.333" style="fill:#546E7A;" width="128" height="32"/>
	<path style="fill:#546E7A;" d="M202.667,288H40.542c-10.583,0-19.208-8.615-19.208-19.208c0-0.948,0.083-1.885,0.188-2.719   l17.125-119.75C40.125,135.875,49.208,128,59.75,128h142.917c11.771,0,21.333,9.573,21.333,21.333v117.333   C224,278.427,214.438,288,202.667,288z"/>
	<path style="fill:#546E7A;" d="M245.333,266.667V149.333c0-11.76,9.563-21.333,21.333-21.333h142.917   c10.542,0,19.625,7.875,21.104,18.323l17.104,119.646c0.125,0.938,0.208,1.875,0.208,2.823c0,10.594-8.625,19.208-19.208,19.208   H266.667C254.896,288,245.333,278.427,245.333,266.667z"/>
</g>
<g>
	<path style="opacity:0.2;fill:#FFFFFF;enable-background:new    ;" d="M202.667,128H59.75c-10.542,0-19.625,7.875-21.104,18.323   l-0.672,4.703c3.9-3.109,8.854-5.026,14.212-5.026h149.497c12.314,0,22.316,9.573,22.316,21.333v-18   C224,137.573,214.438,128,202.667,128z"/>
	<path style="opacity:0.2;fill:#FFFFFF;enable-background:new    ;" d="M267.122,146h145.973c8.191,0,15.467,4.585,19.171,11.365   l-1.578-11.042C429.208,135.875,420.125,128,409.583,128H266.667c-11.771,0-21.333,9.573-21.333,21.333v18   C245.333,155.573,255.1,146,267.122,146z"/>
</g>
<g>
	<rect x="298.667" y="309.333" style="fill:#546E7A;" width="128" height="32"/>
	<path style="fill:#546E7A;" d="M448,426.667c0,11.76-9.563,21.333-21.333,21.333h-128c-11.771,0-21.333-9.573-21.333-21.333V384   c0-11.76,9.563-21.333,21.333-21.333h128C438.438,362.667,448,372.24,448,384V426.667z"/>
</g>
<g>
	<path style="opacity:0.2;fill:#FFFFFF;enable-background:new    ;" d="M170.667,362.667h-128c-11.771,0-21.333,9.573-21.333,21.333   v21.333c0-11.76,9.563-21.333,21.333-21.333h128c11.771,0,21.333,9.573,21.333,21.333V384   C192,372.24,182.438,362.667,170.667,362.667z"/>
	<path style="opacity:0.2;fill:#FFFFFF;enable-background:new    ;" d="M426.667,362.667h-128c-11.771,0-21.333,9.573-21.333,21.333   v21.333c0-11.76,9.563-21.333,21.333-21.333h128c11.771,0,21.333,9.573,21.333,21.333V384   C448,372.24,438.438,362.667,426.667,362.667z"/>
</g>
<linearGradient id="SVGID_1_" gradientUnits="userSpaceOnUse" x1="-63.5365" y1="611.1511" x2="-59.7865" y2="607.4011" gradientTransform="matrix(21.3333 0 0 -21.3333 1430.1112 13315.2227)">
	<stop offset="0" style="stop-color:#000000;stop-opacity:0.1"/>
	<stop offset="1" style="stop-color:#000000;stop-opacity:0"/>
</linearGradient>
<polygon style="fill:url(#SVGID_1_);" points="170.667,341.333 170.667,309.333 42.667,309.333 74.667,341.333 "/>
<linearGradient id="SVGID_2_" gradientUnits="userSpaceOnUse" x1="-51.5365" y1="611.1511" x2="-47.7865" y2="607.4011" gradientTransform="matrix(21.3333 0 0 -21.3333 1430.1112 13315.2227)">
	<stop offset="0" style="stop-color:#000000;stop-opacity:0.1"/>
	<stop offset="1" style="stop-color:#000000;stop-opacity:0"/>
</linearGradient>
<polygon style="fill:url(#SVGID_2_);" points="426.667,341.333 426.667,309.333 298.667,309.333 330.667,341.333 "/>
<linearGradient id="SVGID_3_" gradientUnits="userSpaceOnUse" x1="-60.5365" y1="620.6511" x2="-59.0365" y2="619.1511" gradientTransform="matrix(21.3333 0 0 -21.3333 1430.1112 13315.2227)">
	<stop offset="0" style="stop-color:#000000;stop-opacity:0.1"/>
	<stop offset="1" style="stop-color:#000000;stop-opacity:0"/>
</linearGradient>
<polygon style="fill:url(#SVGID_3_);" points="170.667,106.667 170.667,85.333 128,85.333 149.333,106.667 "/>
<linearGradient id="SVGID_4_" gradientUnits="userSpaceOnUse" x1="-52.5365" y1="620.6511" x2="-51.0365" y2="619.1511" gradientTransform="matrix(21.3333 0 0 -21.3333 1430.1112 13315.2227)">
	<stop offset="0" style="stop-color:#000000;stop-opacity:0.1"/>
	<stop offset="1" style="stop-color:#000000;stop-opacity:0"/>
</linearGradient>
<polygon style="fill:url(#SVGID_4_);" points="341.333,106.667 341.333,85.333 298.667,85.333 320,106.667 "/>
<linearGradient id="SVGID_5_" gradientUnits="userSpaceOnUse" x1="-66.3677" y1="617.3082" x2="-43.6371" y2="606.709" gradientTransform="matrix(21.3333 0 0 -21.3333 1430.1112 13315.2227)">
	<stop offset="0" style="stop-color:#FFFFFF;stop-opacity:0.2"/>
	<stop offset="1" style="stop-color:#FFFFFF;stop-opacity:0"/>
</linearGradient>
<path style="fill:url(#SVGID_5_);" d="M448,347.27v-42.999c12.637-6.874,21.333-20.111,21.333-35.479c0-1.885-0.125-3.76-0.396-5.74  l-17.125-119.75c-2.979-20.885-21.146-36.635-42.229-36.635h-46.917V85.333h10.667c5.896,0,10.667-4.771,10.667-10.667v-64  C384,4.771,379.229,0,373.333,0H266.667C260.771,0,256,4.771,256,10.667v64c0,5.896,4.771,10.667,10.667,10.667h10.667v21.333  h-10.667c-12.801,0-24.172,5.785-32,14.746c-7.828-8.961-19.199-14.746-32-14.746H192V85.333h10.667  c5.896,0,10.667-4.771,10.667-10.667v-64C213.333,4.771,208.563,0,202.667,0H96c-5.896,0-10.667,4.771-10.667,10.667v64  c0,5.896,4.771,10.667,10.667,10.667h10.667v21.333H59.75c-21.084,0-39.25,15.75-42.229,36.635L0.375,263.156  C0.125,265.031,0,266.906,0,268.792c0,15.368,8.697,28.605,21.333,35.479v42.999C8.645,354.671,0,368.277,0,384v42.667  c0,23.531,19.146,42.667,42.667,42.667h128c23.521,0,42.667-19.135,42.667-42.667V384c0-15.723-8.645-29.329-21.333-36.73v-37.936  h10.667c12.801,0,24.172-5.785,32-14.746c7.828,8.961,19.199,14.746,32,14.746h10.667v37.936C264.645,354.671,256,368.277,256,384  v42.667c0,23.531,19.146,42.667,42.667,42.667h128c23.521,0,42.667-19.135,42.667-42.667V384  C469.333,368.277,460.689,354.671,448,347.27z"/>
<g>
</g>
<g>
</g>
<g>
</g>
<g>
</g>
<g>
</g>
<g>
</g>
<g>
</g>
<g>
</g>
<g>
</g>
<g>
</g>
<g>
</g>
<g>
</g>
<g>
</g>
<g>
</g>
<g>
</g>
</svg>
