<?xml version="1.0" encoding="iso-8859-1"?>
<!-- Generator: Adobe Illustrator 19.0.0, SVG Export Plug-In . SVG Version: 6.00 Build 0)  -->
<svg xmlns="http://www.w3.org/2000/svg" xmlns:xlink="http://www.w3.org/1999/xlink" version="1.1" id="Capa_1" x="0px" y="0px" viewBox="0 0 512 512" style="enable-background:new 0 0 512 512;" xml:space="preserve">
<path style="fill:#303C42;" d="M320,42.667h-21.333v-32C298.667,4.771,293.896,0,288,0h-64c-5.896,0-10.667,4.771-10.667,10.667v32  H192c-23.521,0-42.667,19.135-42.667,42.667v384C149.333,492.865,168.479,512,192,512h128c23.521,0,42.667-19.135,42.667-42.667  v-384C362.667,61.802,343.521,42.667,320,42.667z"/>
<rect x="234.667" y="21.333" style="fill:#D7CCC8;" width="42.667" height="21.333"/>
<path style="fill:#FBC02D;" d="M192,64h128c11.771,0,21.333,9.573,21.333,21.333v85.333H170.667V85.333  C170.667,73.573,180.229,64,192,64z"/>
<path style="fill:#666666;" d="M320,490.667H192c-11.771,0-21.333-9.573-21.333-21.333V192h170.667v277.333  C341.333,481.094,331.771,490.667,320,490.667z"/>
<path style="opacity:0.2;fill:#FFFFFF;enable-background:new    ;" d="M208,64h-16c-11.771,0-21.333,9.573-21.333,21.333v85.333H192  V85.333C192,73.573,199.172,64,208,64z"/>
<path style="opacity:0.1;enable-background:new    ;" d="M320,64h-16c8.828,0,16,9.573,16,21.333v85.333h21.333V85.333  C341.333,73.573,331.771,64,320,64z"/>
<path style="opacity:0.2;fill:#FFFFFF;enable-background:new    ;" d="M192,469.333V192h-21.333v277.333  c0,11.76,9.563,21.333,21.333,21.333h16C199.172,490.667,192,481.094,192,469.333z"/>
<path style="opacity:0.1;enable-background:new    ;" d="M320,192v277.333c0,11.76-7.172,21.333-16,21.333h16  c11.771,0,21.333-9.573,21.333-21.333V192H320z"/>
<g>
	<path style="fill:#303C42;" d="M234.667,128h10.667v10.667c0,5.896,4.771,10.667,10.667,10.667c5.896,0,10.667-4.771,10.667-10.667   V128h10.667c5.896,0,10.667-4.771,10.667-10.667s-4.771-10.667-10.667-10.667h-10.667V96c0-5.896-4.771-10.667-10.667-10.667   c-5.896,0-10.667,4.771-10.667,10.667v10.667h-10.667c-5.896,0-10.667,4.771-10.667,10.667S228.771,128,234.667,128z"/>
	<path style="fill:#303C42;" d="M277.333,426.667h-42.667c-5.896,0-10.667,4.771-10.667,10.667S228.771,448,234.667,448h42.667   c5.896,0,10.667-4.771,10.667-10.667S283.229,426.667,277.333,426.667z"/>
</g>
<linearGradient id="SVGID_1_" gradientUnits="userSpaceOnUse" x1="-42.2074" y1="637.5562" x2="-26.7599" y2="630.3539" gradientTransform="matrix(21.3333 0 0 -21.3333 996.3334 13791.667)">
	<stop offset="0" style="stop-color:#FFFFFF;stop-opacity:0.2"/>
	<stop offset="1" style="stop-color:#FFFFFF;stop-opacity:0"/>
</linearGradient>
<path style="fill:url(#SVGID_1_);" d="M320,42.667h-21.333v-32C298.667,4.771,293.896,0,288,0h-64  c-5.896,0-10.667,4.771-10.667,10.667v32H192c-23.521,0-42.667,19.135-42.667,42.667v384C149.333,492.865,168.479,512,192,512h128  c23.521,0,42.667-19.135,42.667-42.667v-384C362.667,61.802,343.521,42.667,320,42.667z"/>
<g>
</g>
<g>
</g>
<g>
</g>
<g>
</g>
<g>
</g>
<g>
</g>
<g>
</g>
<g>
</g>
<g>
</g>
<g>
</g>
<g>
</g>
<g>
</g>
<g>
</g>
<g>
</g>
<g>
</g>
</svg>
