<?xml version="1.0" encoding="iso-8859-1"?>
<!-- Generator: Adobe Illustrator 19.0.0, SVG Export Plug-In . SVG Version: 6.00 Build 0)  -->
<svg xmlns="http://www.w3.org/2000/svg" xmlns:xlink="http://www.w3.org/1999/xlink" version="1.1" id="Capa_1" x="0px" y="0px" viewBox="0 0 512 512" style="enable-background:new 0 0 512 512;" xml:space="preserve">
<path style="fill:#303C42;" d="M424.104,70.083l-0.186,0.066C409.954,29.798,341.289,0,256,0S102.046,29.798,88.082,70.15  l-0.186-0.066C86.917,72.802,64,138.167,64,256s22.917,183.198,23.896,185.917c0.219,0.625,0.51,1.219,0.844,1.781  C104.177,484.021,172.396,512,256,512c83.573,0,151.76-27.958,167.24-68.24c0.344-0.583,0.635-1.198,0.865-1.844  C425.083,439.198,448,373.833,448,256S425.083,72.802,424.104,70.083z"/>
<g>
	<path style="fill:#6D4C41;" d="M426.667,256c0,33.902-2.008,63.326-4.811,88.073C392.109,368.009,326.5,384,256,384   c-70.501,0-136.112-15.991-165.857-39.928c-2.802-24.747-4.81-54.171-4.81-88.072c0-5.872,0.094-11.529,0.207-17.137   c36.121,23.71,99.328,38.47,170.46,38.47s134.339-14.76,170.46-38.47C426.573,244.471,426.667,250.128,426.667,256z"/>
	<path style="fill:#6D4C41;" d="M256,170.667c72.535,0,133.081-21.553,158.178-52.815c4.508,22.733,9.236,54.607,11.344,94.849   C398.061,238.663,331.13,256,256,256s-142.061-17.337-169.522-43.299c2.108-40.242,6.836-72.116,11.344-94.849   C122.919,149.113,183.465,170.667,256,170.667z"/>
	<path style="fill:#6D4C41;" d="M256,21.333c88,0,149.333,33.729,149.333,64s-61.333,64-149.333,64s-149.333-33.729-149.333-64   S168,21.333,256,21.333z"/>
</g>
<path style="opacity:0.1;enable-background:new    ;" d="M128,96c0-30.271,61.333-64,149.333-64  c40.042,0,74.462,7.022,100.195,17.486C351.371,33.372,308.5,21.333,256,21.333c-88,0-149.333,33.729-149.333,64  c0,16.496,18.318,33.98,49.138,46.513C138.118,120.951,128,108.211,128,96z"/>
<path style="fill:#6D4C41;" d="M404.563,433.115c-0.323,0.563-0.594,1.167-0.802,1.802c-9.24,27.406-67.031,55.75-147.76,55.75  s-138.521-28.344-147.76-55.75c-0.208-0.615-0.469-1.208-0.781-1.76c-1.842-5.702-8.156-26.781-13.573-61.264  c37.319,20.632,97.176,33.441,162.115,33.441s124.796-12.81,162.113-33.44C412.712,406.28,406.419,427.342,404.563,433.115z"/>
<path style="fill:#303C42;" d="M330.667,106.667c18.542,0,32-8.969,32-21.333S349.208,64,330.667,64c-18.542,0-32,8.969-32,21.333  S312.125,106.667,330.667,106.667z"/>
<path style="opacity:0.1;enable-background:new    ;" d="M309.333,96c0-12.365,13.458-21.333,32-21.333  c7.773,0,14.56,1.647,19.93,4.389C357.507,70.077,345.862,64,330.667,64c-18.542,0-32,8.969-32,21.333  c0,7.181,4.633,13.147,12.07,16.945C309.91,100.301,309.333,98.232,309.333,96z"/>
<path style="opacity:0.1;enable-background:new    ;" d="M378.931,365.732c17.704-6.063,32.585-13.339,42.924-21.659  c2.803-24.747,4.811-54.171,4.811-88.073c0-5.872-0.094-11.529-0.207-17.137c-11.542,7.576-26.092,14.113-42.54,19.672  c0.022,2.724,0.081,5.352,0.081,8.132C384,305.092,381.872,338.207,378.931,365.732z"/>
<path style="opacity:0.1;enable-background:new    ;" d="M425.522,212.701c-2.108-40.242-6.836-72.116-11.344-94.849  c-8.645,10.768-21.736,20.267-37.833,28.247c3.298,24.391,6.086,54.648,7.156,90.154  C401.346,229.667,415.948,221.753,425.522,212.701z"/>
<path style="opacity:0.1;enable-background:new    ;" d="M354.434,473.844c26.879-10.603,44.582-24.854,49.327-38.927  c0.208-0.635,0.479-1.24,0.802-1.802c1.857-5.772,8.15-26.835,13.551-61.221c-11.857,6.555-26.186,12.211-42.033,17.026  c-6.474,46.992-14.578,72.27-14.716,72.678C359.896,465.706,357.475,469.802,354.434,473.844z"/>
<linearGradient id="SVGID_1_" gradientUnits="userSpaceOnUse" x1="-44.5195" y1="639.0545" x2="-24.8902" y2="629.9014" gradientTransform="matrix(21.3333 0 0 -21.3333 996.3334 13791.667)">
	<stop offset="0" style="stop-color:#FFFFFF;stop-opacity:0.2"/>
	<stop offset="1" style="stop-color:#FFFFFF;stop-opacity:0"/>
</linearGradient>
<path style="fill:url(#SVGID_1_);" d="M424.104,70.083l-0.186,0.066C409.954,29.798,341.289,0,256,0S102.046,29.798,88.082,70.15  l-0.186-0.066C86.917,72.802,64,138.167,64,256s22.917,183.198,23.896,185.917c0.219,0.625,0.51,1.219,0.844,1.781  C104.177,484.021,172.396,512,256,512c83.573,0,151.76-27.958,167.24-68.24c0.344-0.583,0.635-1.198,0.865-1.844  C425.083,439.198,448,373.833,448,256S425.083,72.802,424.104,70.083z"/>
<g>
</g>
<g>
</g>
<g>
</g>
<g>
</g>
<g>
</g>
<g>
</g>
<g>
</g>
<g>
</g>
<g>
</g>
<g>
</g>
<g>
</g>
<g>
</g>
<g>
</g>
<g>
</g>
<g>
</g>
</svg>
