<?xml version="1.0" encoding="iso-8859-1"?>
<!-- Generator: Adobe Illustrator 19.0.0, SVG Export Plug-In . SVG Version: 6.00 Build 0)  -->
<svg xmlns="http://www.w3.org/2000/svg" xmlns:xlink="http://www.w3.org/1999/xlink" version="1.1" id="Capa_1" x="0px" y="0px" viewBox="0 0 512 512" style="enable-background:new 0 0 512 512;" xml:space="preserve">
<path style="fill:#303C42;" d="M384,64h10.667c5.896,0,10.667-4.771,10.667-10.667V42.667C405.333,19.146,386.198,0,362.667,0  H149.333c-23.531,0-42.667,19.146-42.667,42.667v10.667c0,5.896,4.771,10.667,10.667,10.667H128v384h-10.667  c-5.896,0-10.667,4.771-10.667,10.667v10.667c0,23.521,19.135,42.667,42.667,42.667h213.333c23.531,0,42.667-19.146,42.667-42.667  v-10.667c0-5.896-4.771-10.667-10.667-10.667H384V64z"/>
<path style="fill:#CCCCCC;" d="M149.333,21.333h213.333c11.76,0,21.333,9.563,21.333,21.333H128  C128,30.896,137.573,21.333,149.333,21.333z"/>
<path style="opacity:0.1;enable-background:new    ;" d="M362.667,21.333h-15c10.107,0,18.333,9.563,18.333,21.333h18  C384,30.896,374.427,21.333,362.667,21.333z"/>
<path style="opacity:0.2;fill:#FFFFFF;enable-background:new    ;" d="M164.333,21.333h-15c-11.76,0-21.333,9.563-21.333,21.333h18  C146,30.896,154.227,21.333,164.333,21.333z"/>
<path style="fill:#D32F2F;" d="M218.711,64c-27.535,12.262-52.59,25.561-69.378,41.608V64H218.711z"/>
<path id="SVGCleanerId_0" style="fill:#FFFFFF;" d="M266.885,66.792l6.77-2.792h85.793c-12.318,21.34-58.874,40.533-100.729,57.75  c-41.927,17.233-84.656,34.897-109.385,58.531v-30.948C149.333,115.104,211.781,89.438,266.885,66.792z"/>
<path id="SVGCleanerId_1" style="fill:#1E88E5;" d="M266.833,141.479c37.577-15.449,73.849-30.374,95.833-49.112v39.195  c0,25.667-55.219,48.375-103.938,68.396c-41.928,17.247-84.664,34.917-109.396,58.553V224  C149.333,189.792,211.76,164.125,266.833,141.479z"/>
<path id="SVGCleanerId_2" style="fill:#FFFFFF;" d="M266.844,219.688c37.576-15.448,73.841-30.365,95.823-49.095v39.178  c0,25.667-55.229,48.375-103.948,68.417c-41.927,17.233-84.656,34.897-109.385,58.531v-34.49  C149.333,268.021,211.76,242.354,266.844,219.688z"/>
<path style="fill:#D32F2F;" d="M266.833,297.917c37.577-15.449,73.849-30.374,95.833-49.112V288  c0,25.667-55.229,48.375-103.948,68.417c-41.927,17.233-84.656,34.897-109.385,58.531v-34.51  C149.333,346.229,211.76,320.563,266.833,297.917z"/>
<path style="fill:#CCCCCC;" d="M362.667,490.667H149.333c-11.76,0-21.333-9.563-21.333-21.333h256  C384,481.104,374.427,490.667,362.667,490.667z"/>
<path style="opacity:0.2;fill:#FFFFFF;enable-background:new    ;" d="M149.333,469.333H128c0,11.771,9.573,21.333,21.333,21.333  h17.777C157.311,490.667,149.333,481.104,149.333,469.333z"/>
<path style="opacity:0.1;enable-background:new    ;" d="M362.667,469.333c0,11.771-7.978,21.333-17.777,21.333h17.777  c11.76,0,21.333-9.563,21.333-21.333H362.667z"/>
<path id="SVGCleanerId_3" style="fill:#1E88E5;" d="M273.668,448c35.091-14.469,68.352-28.702,88.999-46.297V448H273.668z"/>
<path id="SVGCleanerId_4" style="fill:#FFFFFF;" d="M258.781,431.063c-13.464,5.527-26.99,11.139-39.995,16.938h-67.263  c11.208-28.975,66.125-51.629,115.31-71.854c37.577-15.449,73.849-30.374,95.833-49.112v35.633  C362.667,388.333,307.479,411.021,258.781,431.063z"/>
<path style="fill:#E53935;" d="M218.711,64c-27.535,12.262-52.59,25.561-69.378,41.608V64H218.711z"/>
<g>
	<path id="SVGCleanerId_0_1_" style="fill:#FFFFFF;" d="M266.885,66.792l6.77-2.792h85.793   c-12.318,21.34-58.874,40.533-100.729,57.75c-41.927,17.233-84.656,34.897-109.385,58.531v-30.948   C149.333,115.104,211.781,89.438,266.885,66.792z"/>
</g>
<g>
	<path id="SVGCleanerId_1_1_" style="fill:#1E88E5;" d="M266.833,141.479c37.577-15.449,73.849-30.374,95.833-49.112v39.195   c0,25.667-55.219,48.375-103.938,68.396c-41.928,17.247-84.664,34.917-109.396,58.553V224   C149.333,189.792,211.76,164.125,266.833,141.479z"/>
</g>
<g>
	<path id="SVGCleanerId_2_1_" style="fill:#FFFFFF;" d="M266.844,219.688c37.576-15.448,73.841-30.365,95.823-49.095v39.178   c0,25.667-55.229,48.375-103.948,68.417c-41.927,17.233-84.656,34.897-109.385,58.531v-34.49   C149.333,268.021,211.76,242.354,266.844,219.688z"/>
</g>
<path style="fill:#E53935;" d="M266.833,297.917c37.577-15.449,73.849-30.374,95.833-49.112V288  c0,25.667-55.229,48.375-103.948,68.417c-41.927,17.233-84.656,34.897-109.385,58.531v-34.51  C149.333,346.229,211.76,320.563,266.833,297.917z"/>
<g>
	<path id="SVGCleanerId_3_1_" style="fill:#1E88E5;" d="M273.668,448c35.091-14.469,68.352-28.702,88.999-46.297V448H273.668z"/>
</g>
<g>
	<path id="SVGCleanerId_4_1_" style="fill:#FFFFFF;" d="M258.781,431.063c-13.464,5.527-26.99,11.139-39.995,16.938h-67.263   c11.208-28.975,66.125-51.629,115.31-71.854c37.577-15.449,73.849-30.374,95.833-49.112v35.633   C362.667,388.333,307.479,411.021,258.781,431.063z"/>
</g>
<g>
	<path style="opacity:0.2;fill:#FFFFFF;enable-background:new    ;" d="M266.833,141.479c-55.073,22.646-117.5,48.313-117.5,82.521   v10.667c0-34.208,62.427-59.875,117.5-82.521c37.577-15.449,73.849-30.374,95.833-49.112V92.367   C340.682,111.105,304.41,126.03,266.833,141.479z M266.833,76.98c10.542-4.335,20.936-8.634,30.986-12.98h-24.164l-6.77,2.792   c-55.104,22.646-117.552,48.313-117.552,82.542v10.168C149.333,125.293,211.76,99.626,266.833,76.98z M149.333,64v20.337   c0-7.141,2.845-13.891,7.651-20.337H149.333z M149.333,302.229v10.667c0-34.208,62.427-59.875,117.51-82.542   c37.576-15.448,73.841-30.365,95.823-49.095v-10.667c-21.982,18.73-58.247,33.647-95.823,49.095   C211.76,242.354,149.333,268.021,149.333,302.229z M149.333,380.438v10.667c0-34.208,62.427-59.875,117.5-82.521   c37.577-15.449,73.849-30.374,95.833-49.112v-10.667c-21.984,18.738-58.257,33.663-95.833,49.112   C211.76,320.563,149.333,346.229,149.333,380.438z M151.523,448h6.242c18.741-23.982,66.086-43.513,109.068-61.188   c37.577-15.449,73.849-30.374,95.833-49.112v-10.667c-21.984,18.738-58.257,33.663-95.833,49.112   C217.648,396.371,162.732,419.025,151.523,448z M298.962,448c25.313-10.993,48.124-22.35,63.704-35.63v-10.667   c-20.647,17.595-53.908,31.828-88.999,46.297H298.962z"/>
	<path style="opacity:0.15;fill:#FFFFFF;enable-background:new    ;" d="M160,171.276c3.363-2.56,6.917-5.053,10.667-7.48V115.26   c-4.027,3.21-7.663,6.49-10.667,9.871V171.276z M160,96.842c3.348-2.559,6.932-5.036,10.667-7.464V64H160V96.842z M160,249.507   c3.363-2.559,6.917-5.053,10.667-7.482v-52.09c-4.029,3.211-7.661,6.491-10.667,9.872V249.507z M160,405.943   c3.363-2.56,6.917-5.053,10.667-7.48v-52.09c-4.029,3.211-7.661,6.491-10.667,9.872V405.943z M160,327.714   c3.363-2.56,6.917-5.053,10.667-7.48v-52.069c-4.029,3.211-7.663,6.491-10.667,9.871V327.714z M160,448h10.667v-23.111   c-4.087,3.286-7.654,6.66-10.667,10.126V448z M181.333,448h21.333v-43.206c-7.634,3.961-14.893,8.017-21.333,12.241V448z    M181.333,235.6c6.737-3.867,13.888-7.587,21.333-11.197v-54.419c-7.673,3.967-14.858,8.06-21.333,12.292V235.6z M181.333,392.038   c6.737-3.867,13.888-7.585,21.333-11.194v-54.422c-7.673,3.967-14.858,8.06-21.333,12.292V392.038z M181.333,64v18.667   c6.721-3.857,13.902-7.548,21.333-11.147V64H181.333z M181.333,157.371c6.737-3.867,13.888-7.585,21.333-11.194V95.31   c-7.673,3.967-14.858,8.059-21.333,12.29V157.371z M181.333,313.809c6.737-3.867,13.888-7.585,21.333-11.194v-54.404   c-7.672,3.969-14.858,8.059-21.333,12.292V313.809z"/>
	<path style="opacity:0.05;fill:#FFFFFF;enable-background:new    ;" d="M309.333,99.763c7.637-3.668,14.826-7.409,21.333-11.233V64   h-21.333V99.763z M309.333,256.259c7.626-3.656,14.824-7.385,21.333-11.195v-53.801c-6.737,3.534-13.875,6.978-21.333,10.362   V256.259z M309.333,178.049c7.626-3.654,14.826-7.383,21.333-11.193v-53.813c-6.736,3.535-13.875,6.982-21.333,10.366V178.049z    M309.333,448h21.333v-25.849c-6.753,3.555-13.85,7.042-21.333,10.441V448z M309.333,334.488   c7.626-3.656,14.824-7.385,21.333-11.195v-53.811c-6.736,3.535-13.875,6.982-21.333,10.366V334.488z M309.333,409.158   c7.626-3.655,14.824-7.384,21.333-11.194v-50.253c-6.736,3.535-13.875,6.982-21.333,10.366V409.158z M341.333,316.509   c4.061-2.837,7.634-5.717,10.667-8.638v-51.053c-3.357,2.296-6.923,4.536-10.667,6.734V316.509z M341.333,64v17.66   c4.036-2.837,7.66-5.711,10.667-8.633V64H341.333z M341.333,448H352v-38.682c-3.432,2.363-6.822,4.745-10.667,7.004V448z    M341.333,160.073c4.063-2.837,7.634-5.716,10.667-8.638V100.38c-3.357,2.296-6.923,4.536-10.667,6.734V160.073z M341.333,391.178   c4.061-2.837,7.634-5.716,10.667-8.637v-47.495c-3.357,2.296-6.923,4.536-10.667,6.734V391.178z M341.333,238.28   c4.061-2.837,7.634-5.717,10.667-8.638v-51.039c-3.357,2.294-6.922,4.536-10.667,6.733V238.28z"/>
</g>
<linearGradient id="SVGID_1_" gradientUnits="userSpaceOnUse" x1="-44.4527" y1="639.0302" x2="-24.9535" y2="629.9385" gradientTransform="matrix(21.3333 0 0 -21.3333 996.3334 13791.667)">
	<stop offset="0" style="stop-color:#FFFFFF;stop-opacity:0.2"/>
	<stop offset="1" style="stop-color:#FFFFFF;stop-opacity:0"/>
</linearGradient>
<path style="fill:url(#SVGID_1_);" d="M384,64h10.667c5.896,0,10.667-4.771,10.667-10.667V42.667  C405.333,19.146,386.198,0,362.667,0H149.333c-23.531,0-42.667,19.146-42.667,42.667v10.667c0,5.896,4.771,10.667,10.667,10.667H128  v384h-10.667c-5.896,0-10.667,4.771-10.667,10.667v10.667c0,23.521,19.135,42.667,42.667,42.667h213.333  c23.531,0,42.667-19.146,42.667-42.667v-10.667c0-5.896-4.771-10.667-10.667-10.667H384V64z"/>
<g>
</g>
<g>
</g>
<g>
</g>
<g>
</g>
<g>
</g>
<g>
</g>
<g>
</g>
<g>
</g>
<g>
</g>
<g>
</g>
<g>
</g>
<g>
</g>
<g>
</g>
<g>
</g>
<g>
</g>
</svg>
