<?xml version="1.0" encoding="iso-8859-1"?>
<!-- Generator: Adobe Illustrator 19.0.0, SVG Export Plug-In . SVG Version: 6.00 Build 0)  -->
<svg xmlns="http://www.w3.org/2000/svg" xmlns:xlink="http://www.w3.org/1999/xlink" version="1.1" id="Capa_1" x="0px" y="0px" viewBox="0 0 512 512" style="enable-background:new 0 0 512 512;" xml:space="preserve">
<path style="fill:#303C42;" d="M484.083,267.479c-3.99-1.667-8.573-0.74-11.625,2.313C441.25,301,388.531,343.25,388,343.667  c-2.354,1.885-3.781,4.698-3.969,7.719c-0.177,3.01,0.948,5.979,3.063,8.125c3.052,3.104,7.573,9.646,7.573,13.823  c0,23.542-46.292,53.333-74.667,53.333c-17.094,0-21.552-58.719-26.844-192.25c49.083-0.885,90.844-5.188,90.844-31.75  c0-26.844-42.979-30.99-93.24-31.792l-1.917-52.063C307.979,107.333,320,86.542,320,64c0-35.292-28.708-64-64-64s-64,28.708-64,64  c0,22.542,12.021,43.333,31.156,54.813l-1.917,52.063c-50.26,0.802-93.24,4.948-93.24,31.792c0,26.563,41.76,30.865,90.844,31.75  c-5.292,133.531-9.75,192.25-26.844,192.25c-28.375,0-74.667-29.792-74.667-53.333c0-4.177,4.521-10.719,7.542-13.792  c2.146-2.146,3.281-5.104,3.104-8.135c-0.167-3.021-1.615-5.844-3.979-7.74c-0.531-0.417-53.24-42.656-84.458-73.875  c-3.052-3.052-7.625-3.969-11.625-2.313c-3.99,1.646-6.583,5.542-6.583,9.854c0,55.042,0,98.521,11.792,122.104  c1.813,3.615,5.5,5.896,9.542,5.896h25.177c7.938,15.885,31.615,55.542,77.531,73.906c27.573,11.031,55.104,16.531,75.198,20.552  c9.646,1.927,21.406,4.281,25.813,6.167C248.104,509.531,251.76,512,256,512c4.24,0,7.896-2.469,9.615-6.042  c4.406-1.885,16.167-4.24,25.813-6.167c20.094-4.021,47.625-9.521,75.198-20.552c45.917-18.365,69.594-58.021,77.531-73.906h25.177  c4.042,0,7.729-2.281,9.542-5.896c11.792-23.583,11.792-67.063,11.792-122.104C490.667,273.021,488.073,269.125,484.083,267.479z"/>
<path style="fill:#78909C;" d="M462.198,384h-24.865c-4.365,0-8.281,2.656-9.906,6.708c-0.198,0.49-20.198,49.313-68.719,68.719  c-25.76,10.302-52.177,15.594-71.469,19.448c-13.604,2.719-24.135,4.823-31.24,8.042c-7.104-3.219-17.635-5.323-31.24-8.042  c-19.292-3.854-45.708-9.146-71.469-19.448c-48.24-19.292-68.531-68.25-68.729-68.74C82.927,386.656,79.01,384,74.667,384H49.802  c-5.792-17.26-6.885-46.823-7.083-81.708c22.177,20.385,47.167,41.115,59.781,51.417c-3.323,5.24-6.5,12.198-6.5,19.625  C96,413.104,155.833,448,192,448c38.323,0,41.708-46.375,48.583-223.677c0.115-2.885-0.948-5.688-2.938-7.771  c-1.979-2.094-4.729-3.281-7.615-3.313c-67.656-0.677-79.042-7.865-80.792-10.219c1.771-3.094,13.344-10.333,82.385-10.938  c5.698-0.052,10.354-4.573,10.563-10.271l2.531-68.917c0.167-4.333-2.313-8.323-6.25-10.115  C223.198,95.865,213.333,80.646,213.333,64c0-23.531,19.135-42.667,42.667-42.667S298.667,40.469,298.667,64  c0,16.646-9.865,31.865-25.135,38.781c-3.938,1.792-6.417,5.781-6.25,10.115l2.531,68.917c0.208,5.698,4.865,10.219,10.563,10.271  c69.042,0.604,80.615,7.844,82.385,10.229c-1.75,3.063-13.135,10.25-80.792,10.927c-2.885,0.031-5.635,1.219-7.615,3.313  c-1.99,2.083-3.052,4.885-2.938,7.771C278.292,401.625,281.677,448,320,448c36.167,0,96-34.896,96-74.667  c0-7.427-3.177-14.385-6.5-19.625c12.615-10.302,37.604-31.031,59.781-51.417C469.083,337.177,467.99,366.74,462.198,384z"/>
<path style="opacity:0.1;enable-background:new    ;" d="M409.5,353.708c3.323,5.24,6.5,12.198,6.5,19.625  C416,413.104,356.167,448,320,448c-38.323,0-41.708-46.375-48.583-223.677c-0.115-2.885,0.948-5.688,2.938-7.771  c1.979-2.094,4.729-3.281,7.615-3.313c67.656-0.677,79.042-7.865,80.792-10.927c-1.771-2.385-13.344-9.625-82.385-10.229  c-5.698-0.052-10.354-4.573-10.563-10.271l-2.531-68.917c-0.167-4.333,2.313-8.323,6.25-10.115  c15.271-6.917,25.135-22.135,25.135-38.781c0-23.531-19.135-42.667-42.667-42.667v465.583c7.104-3.219,17.635-5.323,31.24-8.042  c19.292-3.854,45.708-9.146,71.469-19.448c48.521-19.406,68.521-68.229,68.719-68.719c1.625-4.052,5.542-6.708,9.906-6.708h24.865  c5.792-17.26,6.885-46.823,7.083-81.708C447.104,322.677,422.115,343.406,409.5,353.708z"/>
<path style="fill:#303C42;" d="M277.333,64c0-11.76-9.573-21.333-21.333-21.333c-11.76,0-21.333,9.573-21.333,21.333  S244.24,85.333,256,85.333C267.76,85.333,277.333,75.76,277.333,64z"/>
<linearGradient id="SVGID_1_" gradientUnits="userSpaceOnUse" x1="-43.5103" y1="638.299" x2="-23.6569" y2="629.0433" gradientTransform="matrix(21.3333 0 0 -21.3333 996.3334 13791.667)">
	<stop offset="0" style="stop-color:#FFFFFF;stop-opacity:0.2"/>
	<stop offset="1" style="stop-color:#FFFFFF;stop-opacity:0"/>
</linearGradient>
<path style="fill:url(#SVGID_1_);" d="M484.083,267.479c-3.99-1.667-8.573-0.74-11.625,2.313C441.25,301,388.531,343.25,388,343.667  c-2.354,1.885-3.781,4.698-3.969,7.719c-0.177,3.01,0.948,5.979,3.063,8.125c3.052,3.104,7.573,9.646,7.573,13.823  c0,23.542-46.292,53.333-74.667,53.333c-17.094,0-21.552-58.719-26.844-192.25c49.083-0.885,90.844-5.188,90.844-31.75  c0-26.844-42.979-30.99-93.24-31.792l-1.917-52.063C307.979,107.333,320,86.542,320,64c0-35.292-28.708-64-64-64s-64,28.708-64,64  c0,22.542,12.021,43.333,31.156,54.813l-1.917,52.063c-50.26,0.802-93.24,4.948-93.24,31.792c0,26.563,41.76,30.865,90.844,31.75  c-5.292,133.531-9.75,192.25-26.844,192.25c-28.375,0-74.667-29.792-74.667-53.333c0-4.177,4.521-10.719,7.542-13.792  c2.146-2.146,3.281-5.104,3.104-8.135c-0.167-3.021-1.615-5.844-3.979-7.74c-0.531-0.417-53.24-42.656-84.458-73.875  c-3.052-3.052-7.625-3.969-11.625-2.313c-3.99,1.646-6.583,5.542-6.583,9.854c0,55.042,0,98.521,11.792,122.104  c1.813,3.615,5.5,5.896,9.542,5.896h25.177c7.938,15.885,31.615,55.542,77.531,73.906c27.573,11.031,55.104,16.531,75.198,20.552  c9.646,1.927,21.406,4.281,25.813,6.167C248.104,509.531,251.76,512,256,512c4.24,0,7.896-2.469,9.615-6.042  c4.406-1.885,16.167-4.24,25.813-6.167c20.094-4.021,47.625-9.521,75.198-20.552c45.917-18.365,69.594-58.021,77.531-73.906h25.177  c4.042,0,7.729-2.281,9.542-5.896c11.792-23.583,11.792-67.063,11.792-122.104C490.667,273.021,488.073,269.125,484.083,267.479z"/>
<g>
</g>
<g>
</g>
<g>
</g>
<g>
</g>
<g>
</g>
<g>
</g>
<g>
</g>
<g>
</g>
<g>
</g>
<g>
</g>
<g>
</g>
<g>
</g>
<g>
</g>
<g>
</g>
<g>
</g>
</svg>
