<?xml version="1.0" encoding="iso-8859-1"?>
<!-- Generator: Adobe Illustrator 19.0.0, SVG Export Plug-In . SVG Version: 6.00 Build 0)  -->
<svg xmlns="http://www.w3.org/2000/svg" xmlns:xlink="http://www.w3.org/1999/xlink" version="1.1" id="Capa_1" x="0px" y="0px" viewBox="0 0 512 512" style="enable-background:new 0 0 512 512;" xml:space="preserve">
<path style="fill:#303C42;" d="M490.667,181.333c0-17.646-14.354-32-32-32c-17.646,0-32,14.354-32,32  c0,13.888,8.944,25.617,21.333,30.035v34.475c0,44.711-22.404,86.327-58.853,111.491c-7.395-15.238-17.212-29.293-29.189-41.655  c28.254-33.443,45.375-76.577,45.375-123.68c0-105.865-86.135-192-192-192s-192,86.135-192,192  c0,47.103,17.121,90.237,45.375,123.68c-28.858,29.784-45.375,69.585-45.375,110.987v42.667C21.333,492.865,40.469,512,64,512  h298.667c23.531,0,42.667-19.135,42.667-42.667v-42.667c0-16.87-2.719-33.493-7.889-49.288  c44.419-28.784,71.889-78.264,71.889-131.535v-34.475C481.723,206.951,490.667,195.221,490.667,181.333z"/>
<circle style="fill:#D32F2F;" cx="213.333" cy="192" r="170.667"/>
<path style="opacity:0.1;enable-background:new    ;" d="M316.767,56.566C338.768,85.305,352,121.095,352,160  c0,94.104-76.563,170.667-170.667,170.667c-38.905,0-74.695-13.232-103.434-35.233c31.216,40.773,80.234,67.233,135.434,67.233  C307.438,362.667,384,286.104,384,192C384,136.801,357.54,87.783,316.767,56.566z"/>
<path style="fill:#D32F2F;" d="M384,469.333c0,11.76-9.573,21.333-21.333,21.333H64c-11.76,0-21.333-9.573-21.333-21.333v-42.667  c0-35.572,14.089-69.786,38.729-95.548C115.836,363.797,162.225,384,213.333,384s97.497-20.203,131.938-52.882  C369.911,356.88,384,391.095,384,426.667V469.333z"/>
<path style="opacity:0.2;fill:#FFFFFF;enable-background:new    ;" d="M74.667,469.333v-42.667c0-29.793,8.411-58.314,22.783-82.034  c-5.57-4.249-10.978-8.699-16.053-13.514c-24.641,25.762-38.729,59.977-38.729,95.548v42.667c0,11.76,9.573,21.333,21.333,21.333h28  C82.445,490.667,74.667,481.094,74.667,469.333z"/>
<path style="opacity:0.1;enable-background:new    ;" d="M345.271,331.118c-5.076,4.815-10.483,9.266-16.053,13.514  C343.589,368.353,352,396.874,352,426.667v42.667c0,11.76-7.777,21.333-17.333,21.333h28c11.76,0,21.333-9.573,21.333-21.333  v-42.667C384,391.095,369.911,356.88,345.271,331.118z"/>
<circle style="fill:#78909C;" cx="458.667" cy="181.333" r="10.667"/>
<linearGradient id="SVGID_1_" gradientUnits="userSpaceOnUse" x1="-38.7884" y1="633.1507" x2="-29.2053" y2="623.5687" gradientTransform="matrix(21.3333 0 0 -21.3333 996.3334 13791.667)">
	<stop offset="0" style="stop-color:#000000;stop-opacity:0.1"/>
	<stop offset="1" style="stop-color:#000000;stop-opacity:0"/>
</linearGradient>
<path style="fill:url(#SVGID_1_);" d="M245.333,490.667h117.333c11.76,0,21.333-9.573,21.333-21.333v-42.667  c0-35.572-14.089-69.786-38.729-95.548C310.831,363.797,264.441,384,213.333,384c-40.695,0-78.285-12.962-109.346-34.68  L245.333,490.667z"/>
<g>
	<circle style="fill:#303C42;" cx="320" cy="448" r="21.333"/>
	<circle style="fill:#303C42;" cx="213.333" cy="192" r="42.667"/>
</g>
<g>
	<circle style="fill:#FAFAFA;" cx="213.333" cy="192" r="21.333"/>
	<circle style="fill:#FAFAFA;" cx="213.333" cy="192" r="21.333"/>
</g>
<path style="opacity:0.1;enable-background:new    ;" d="M222.042,172.625c1.21,2.674,1.958,5.589,1.958,8.708  c0,11.76-9.573,21.333-21.333,21.333c-3.12,0-6.034-0.749-8.708-1.958c3.349,7.406,10.734,12.625,19.375,12.625  c11.76,0,21.333-9.573,21.333-21.333C234.667,183.359,229.448,175.974,222.042,172.625z"/>
<linearGradient id="SVGID_2_" gradientUnits="userSpaceOnUse" x1="-46.4951" y1="637.78" x2="-25.7972" y2="628.1281" gradientTransform="matrix(21.3333 0 0 -21.3333 996.3334 13791.667)">
	<stop offset="0" style="stop-color:#FFFFFF;stop-opacity:0.2"/>
	<stop offset="1" style="stop-color:#FFFFFF;stop-opacity:0"/>
</linearGradient>
<path style="fill:url(#SVGID_2_);" d="M490.667,181.333c0-17.646-14.354-32-32-32c-17.646,0-32,14.354-32,32  c0,13.888,8.944,25.617,21.333,30.035v34.475c0,44.711-22.404,86.327-58.853,111.491c-7.395-15.238-17.212-29.293-29.189-41.655  c28.254-33.443,45.375-76.577,45.375-123.68c0-105.865-86.135-192-192-192s-192,86.135-192,192  c0,47.103,17.121,90.237,45.375,123.68c-28.858,29.784-45.375,69.585-45.375,110.987v42.667C21.333,492.865,40.469,512,64,512  h298.667c23.531,0,42.667-19.135,42.667-42.667v-42.667c0-16.87-2.719-33.493-7.889-49.288  c44.419-28.784,71.889-78.264,71.889-131.535v-34.475C481.723,206.951,490.667,195.221,490.667,181.333z"/>
<g>
</g>
<g>
</g>
<g>
</g>
<g>
</g>
<g>
</g>
<g>
</g>
<g>
</g>
<g>
</g>
<g>
</g>
<g>
</g>
<g>
</g>
<g>
</g>
<g>
</g>
<g>
</g>
<g>
</g>
</svg>
