<?xml version="1.0" encoding="iso-8859-1"?>
<!-- Generator: Adobe Illustrator 19.0.0, SVG Export Plug-In . SVG Version: 6.00 Build 0)  -->
<svg version="1.1" id="Capa_1" xmlns="http://www.w3.org/2000/svg" xmlns:xlink="http://www.w3.org/1999/xlink" x="0px" y="0px"
	 viewBox="0 0 469.932 469.932" style="enable-background:new 0 0 469.932 469.932;" xml:space="preserve">
<g>
	<path style="fill:#EDC183;" d="M401.035,42.421c-0.042,0.042-16.241,16.242-16.241,16.242c-0.019,0.02-8.116,8.117-8.116,8.117
		l26.474,26.474l24.336-24.336l24.339-24.335L425.35,18.105L401.035,42.421z"/>
	<path style="fill:#B68B4E;" d="M366.072,77.386L263.365,180.093l-0.121,0.121c-0.002,0.002-48.896,48.887-48.896,48.887
		c5.769,2.631,11.053,6.282,15.627,10.855c4.573,4.573,8.224,9.857,10.855,15.627l48.885-48.894
		c0.001-0.001,0.122-0.122,0.122-0.122L392.546,103.86L366.072,77.386z"/>
	<path style="fill:#6F362D;" d="M164.763,250.566c-15.042,15.051-15.042,39.548,0.004,54.603c7.292,7.287,16.988,11.302,27.3,11.302
		c10.313,0,20.009-4.015,27.304-11.305c8.945-8.954,12.937-21.75,10.672-34.226c-1.399-7.748-5.089-14.792-10.674-20.376
		c-5.584-5.584-12.628-9.275-20.369-10.672c-2.289-0.416-4.623-0.625-6.945-0.625C181.749,239.265,172.057,243.279,164.763,250.566z
		"/>
	<path style="fill:#EDC183;" d="M292.966,224.654l-47.609,47.617c1.675,16.007-3.912,32.021-15.379,43.5
		c-10.131,10.125-23.593,15.699-37.911,15.699c-14.317,0-27.78-5.574-37.907-15.695c-20.893-20.905-20.893-54.915-0.003-75.817
		c10.13-10.121,23.588-15.693,37.897-15.693c1.871,0,3.746,0.11,5.611,0.305l47.613-47.604
		c-32.28-13.245-70.232-6.021-95.332,19.086c-4.799,4.791-9.049,10.154-12.639,15.947c-1.326,2.141-3.638,3.473-6.155,3.547
		c-30.64,0.901-59.459,13.337-81.148,35.018C3.322,297.257,3.322,373.234,50.006,419.927
		c46.693,46.683,122.669,46.683,169.364-0.001c21.679-21.688,34.115-50.507,35.016-81.147c0.074-2.517,1.406-4.829,3.547-6.155
		c5.793-3.589,11.157-7.84,15.941-12.633C298.987,294.887,306.211,256.934,292.966,224.654z M124.164,430.094c-4.411,0-8-3.589-8-8
		s3.589-8,8-8s8,3.589,8,8S128.575,430.094,124.164,430.094z M154.164,420.094c-4.411,0-8-3.589-8-8s3.589-8,8-8s8,3.589,8,8
		S158.575,420.094,154.164,420.094z M175.146,370.603c-1.464,1.464-3.384,2.197-5.303,2.197s-3.839-0.732-5.303-2.197l-65.21-65.21
		c-2.929-2.929-2.929-7.678,0-10.606c2.929-2.929,7.678-2.929,10.606,0l65.21,65.21
		C178.075,362.925,178.075,367.674,175.146,370.603z"/>
	<path style="fill:#34150C;" d="M109.936,294.787c-2.929-2.929-7.678-2.929-10.606,0c-2.929,2.929-2.929,7.678,0,10.606l65.21,65.21
		c1.464,1.464,3.384,2.197,5.303,2.197s3.839-0.732,5.303-2.197c2.929-2.929,2.929-7.678,0-10.606L109.936,294.787z"/>
	<path style="fill:#34150C;" d="M467.735,39.277l-37.08-37.08c-2.929-2.929-7.677-2.929-10.604-0.002l-8.104,8.104l-5.792-5.792
		c-2.929-2.929-7.678-2.929-10.606,0c-2.929,2.929-2.929,7.678,0,10.606l5.792,5.792l-5.629,5.628l-5.797-5.797
		c-2.928-2.929-7.677-2.929-10.606,0c-2.929,2.929-2.929,7.677,0,10.606l5.797,5.797l-5.624,5.624l-5.797-5.797
		c-2.929-2.929-7.678-2.929-10.606,0c-2.929,2.929-2.929,7.677,0,10.606l5.797,5.797L256.624,165.622
		c-38.947-18.828-86.417-11.053-117.28,19.82c-4.67,4.662-8.899,9.791-12.606,15.286c-32.989,1.932-63.872,15.772-87.339,39.229
		c-52.531,52.542-52.531,138.034,0.001,190.577c26.271,26.266,60.778,39.398,95.287,39.398c34.509,0,69.019-13.134,95.29-39.4
		c23.456-23.466,37.295-54.348,39.228-87.337c5.496-3.708,10.624-7.936,15.28-12.601c30.879-30.869,38.654-78.339,19.826-117.286
		l104.145-104.145l8.107-8.106l5.797,5.796c1.464,1.465,3.384,2.197,5.303,2.197s3.839-0.732,5.303-2.197
		c2.929-2.929,2.929-7.678,0-10.606l-5.797-5.796l5.624-5.624l5.797,5.796c1.464,1.465,3.384,2.197,5.303,2.197
		s3.839-0.732,5.303-2.197c2.929-2.929,2.929-7.678,0-10.606l-5.797-5.796l5.629-5.628l5.792,5.792
		c1.464,1.464,3.384,2.197,5.303,2.197s3.839-0.732,5.303-2.197c2.929-2.929,2.929-7.678,0-10.606l-5.792-5.792l8.104-8.104
		C470.665,46.952,470.664,42.205,467.735,39.277z M427.489,68.917l-24.336,24.336L376.679,66.78l8.097-8.097
		c0.019-0.02,16.218-16.219,16.218-16.219c0.042-0.042,24.357-24.359,24.357-24.359l26.478,26.478L427.489,68.917z M254.386,338.779
		c-0.901,30.64-13.337,59.459-35.016,81.147c-46.695,46.684-122.671,46.684-169.364,0.001
		C3.322,373.234,3.322,297.257,50.004,250.564c21.689-21.68,50.509-34.116,81.148-35.018c2.517-0.074,4.829-1.406,6.155-3.547
		c3.589-5.793,7.84-11.157,12.639-15.947c25.1-25.108,63.052-32.331,95.332-19.086l-47.613,47.604
		c-1.865-0.195-3.74-0.305-5.611-0.305c-14.309,0-27.767,5.572-37.897,15.693c-20.89,20.902-20.89,54.912,0.003,75.817
		c10.127,10.121,23.589,15.695,37.907,15.695c14.318,0,27.78-5.574,37.911-15.699c11.468-11.479,17.054-27.493,15.379-43.5
		l47.609-47.617c13.245,32.28,6.02,70.233-19.092,95.338c-4.785,4.793-10.148,9.043-15.941,12.633
		C255.792,333.951,254.46,336.263,254.386,338.779z M199,239.891c7.741,1.397,14.785,5.088,20.369,10.672
		c5.585,5.585,9.275,12.629,10.674,20.376c2.264,12.476-1.727,25.272-10.672,34.226c-7.294,7.29-16.991,11.305-27.304,11.305
		c-10.313,0-20.009-4.015-27.3-11.302c-15.046-15.055-15.046-39.552-0.004-54.603c7.294-7.287,16.986-11.3,27.292-11.3
		C194.376,239.265,196.711,239.475,199,239.891z M289.838,206.568l-0.12,0.12c-0.002,0.002-48.887,48.896-48.887,48.896
		c-2.632-5.77-6.282-11.054-10.855-15.627c-4.574-4.573-9.858-8.224-15.627-10.855l48.894-48.885
		c0.002-0.002,0.123-0.123,0.123-0.123L366.072,77.386l26.474,26.474L289.838,206.568z"/>
	<path style="fill:#34150C;" d="M154.164,404.094c-4.411,0-8,3.589-8,8s3.589,8,8,8s8-3.589,8-8S158.575,404.094,154.164,404.094z"
		/>
	<path style="fill:#34150C;" d="M124.164,414.094c-4.411,0-8,3.589-8,8s3.589,8,8,8s8-3.589,8-8S128.575,414.094,124.164,414.094z"
		/>
</g>
<g>
</g>
<g>
</g>
<g>
</g>
<g>
</g>
<g>
</g>
<g>
</g>
<g>
</g>
<g>
</g>
<g>
</g>
<g>
</g>
<g>
</g>
<g>
</g>
<g>
</g>
<g>
</g>
<g>
</g>
</svg>
