<svg id="Layer_1" enable-background="new 0 0 512 512" height="512" viewBox="0 0 512 512" width="512" xmlns="http://www.w3.org/2000/svg"><g id="XMLID_1_"><g id="XMLID_5018_"><path id="XMLID_1521_" d="m211 65h90v60h-90z" fill="#b23998"/><path id="XMLID_1520_" d="m241 5h30v90h-30z" fill="#b23998"/><path id="XMLID_2716_" d="m241 5h30v45h-30z" fill="#8b2d77"/><path id="XMLID_1522_" d="m5 5h502v30h-502z" fill="#ffc970"/><circle id="XMLID_1957_" cx="256" cy="301" fill="#9cd3fc" r="206"/><circle id="XMLID_1835_" cx="187.5" cy="232.5" fill="#cde9fe" r="68.5"/><path id="XMLID_1838_" d="m416 252.2v2.8c0 114-92 206-206 206-.9 0-1.9 0-2.8 0-23-.3-27.7 32.7-5.5 38.8 17.3 4.7 35.5 7.2 54.3 7.2 113.7 0 206-92.3 206-206 0-18.8-2.5-37-7.2-54.3-6.1-22.2-39.1-17.5-38.8 5.5z" fill="#6abdfb"/><g id="XMLID_1956_" fill="#6abdfb"><path id="XMLID_1997_" d="m256 507c-61.2 0-116.1-26.7-153.8-69h58.2c23.4 42.3 57.6 69 95.6 69z"/><path id="XMLID_2002_" d="m256 507c-14.8 0-28.2-26.7-37.3-69h74.7c-9.2 42.3-22.6 69-37.4 69z"/><path id="XMLID_2001_" d="m351.6 438h58.2c-37.7 42.3-92.7 69-153.8 69 38 0 72.2-26.7 95.6-69z"/><path id="XMLID_2003_" d="m135.4 370h73.5c2.2 25.3 5.5 48.3 9.8 68h-58.3c-10.9-19.7-19.4-42.7-25-68z"/><path id="XMLID_2007_" d="m303.1 370h73.5c-5.6 25.3-14.2 48.3-25 68h-58.3c4.3-19.7 7.6-42.7 9.8-68z"/><path id="XMLID_2000_" d="m50 301h78c0 24.2 2.6 47.4 7.4 69h-73.6c-7.6-21.6-11.8-44.8-11.8-69z"/><path id="XMLID_2008_" d="m206 301h100c0 24.2-1 47.4-2.9 69h-94.2c-1.9-21.6-2.9-44.8-2.9-69z"/><path id="XMLID_2009_" d="m135.4 232h73.5c-1.9 21.6-2.9 44.8-2.9 69h-78c0-24.2 2.6-47.4 7.4-69z"/><path id="XMLID_2005_" d="m303.1 232h73.5c4.8 21.6 7.4 44.8 7.4 69h-78c0-24.2-1-47.4-2.9-69z"/><path id="XMLID_1995_" d="m102.2 164h58.2c-10.9 19.7-19.5 42.7-25 68h-73.6c9-25.3 22.9-48.3 40.4-68z"/><path id="XMLID_2011_" d="m218.7 164h-58.3c23.4-42.3 57.6-69 95.6-69-14.8 0-28.2 26.7-37.3 69z"/><path id="XMLID_2012_" d="m293.3 164c4.3 19.7 7.6 42.7 9.8 68h-94.2c2.2-25.3 5.5-48.3 9.8-68z"/><path id="XMLID_1998_" d="m351.6 164h-58.3c-9.2-42.3-22.5-69-37.3-69 38 0 72.2 26.7 95.6 69z"/><path id="XMLID_2004_" d="m450.2 232h-73.5c-5.6-25.3-14.2-48.3-25-68h58.2c17.4 19.7 31.3 42.7 40.3 68z"/><path id="XMLID_2006_" d="m462 301c0 24.2-4.2 47.4-11.8 69h-73.5c4.8-21.6 7.4-44.8 7.4-69z"/><path id="XMLID_1967_" d=""/><path id="XMLID_1513_" d=""/><path id="XMLID_1974_" d=""/><path id="XMLID_1506_" d=""/><path id="XMLID_1958_" d=""/><path id="XMLID_1519_" d=""/><path id="XMLID_1966_" d=""/><path id="XMLID_1514_" d=""/></g><g fill="#ffc970"><path id="XMLID_1511_" d="m331 507c0-16.6-13.4-30-30-30 16.6 0 30-13.4 30-30 0 16.6 13.4 30 30 30-16.6 0-30 13.4-30 30z"/><path id="XMLID_1512_" d="m151 155c0-16.6-13.4-30-30-30 16.6 0 30-13.4 30-30 0 16.6 13.4 30 30 30-16.6 0-30 13.4-30 30z"/></g></g><g id="XMLID_4265_"><g id="XMLID_2_"><path id="XMLID_4238_" d="m507 40h-502c-2.8 0-5-2.2-5-5v-30c0-2.8 2.2-5 5-5h502c2.8 0 5 2.2 5 5v30c0 2.8-2.2 5-5 5zm-497-10h492v-20h-492z" fill="#4d2162"/></g><g id="XMLID_1575_"><path id="XMLID_4237_" d="m236 35h10v30h-10z" fill="#4d2162"/></g><g id="XMLID_400_"><path id="XMLID_4236_" d="m266 35h10v30h-10z" fill="#4d2162"/></g><g id="XMLID_413_"><path id="XMLID_4233_" d="m256 512c-35.7 0-55-108.7-55-211s19.3-211 55-211 55 108.7 55 211-19.3 211-55 211zm0-412c-8.1 0-20.4 14.8-30.5 56.5-9.3 38.5-14.5 89.9-14.5 144.5s5.2 106 14.5 144.5c10.1 41.7 22.4 56.5 30.5 56.5s20.4-14.8 30.5-56.5c9.3-38.5 14.5-89.9 14.5-144.5s-5.2-106-14.5-144.5c-10.1-41.7-22.4-56.5-30.5-56.5z" fill="#4d2162"/></g><g id="XMLID_405_"><path id="XMLID_4230_" d="m151 160c-2.8 0-5-2.2-5-5 0-13.8-11.2-25-25-25-2.8 0-5-2.2-5-5s2.2-5 5-5c13.8 0 25-11.2 25-25 0-2.8 2.2-5 5-5s5 2.2 5 5c0 13.8 11.2 25 25 25 2.8 0 5 2.2 5 5s-2.2 5-5 5c-13.8 0-25 11.2-25 25 0 2.8-2.2 5-5 5zm-12-35c4.9 3 9 7.1 12 12 3-4.9 7.1-9 12-12-4.9-3-9-7.1-12-12-3 4.9-7.1 9-12 12z" fill="#4d2162"/></g><g id="XMLID_403_"><path id="XMLID_4227_" d="m331 512c-2.8 0-5-2.2-5-5 0-13.8-11.2-25-25-25-2.8 0-5-2.2-5-5s2.2-5 5-5c13.8 0 25-11.2 25-25 0-2.8 2.2-5 5-5s5 2.2 5 5c0 13.8 11.2 25 25 25 2.8 0 5 2.2 5 5s-2.2 5-5 5c-13.8 0-25 11.2-25 25 0 2.8-2.2 5-5 5zm-12-35c4.9 3 9 7.1 12 12 3-4.9 7.1-9 12-12-4.9-3-9-7.1-12-12-3 4.9-7.1 9-12 12z" fill="#4d2162"/></g><g id="XMLID_490_"><path id="XMLID_4214_" d="m102 159h308v10h-308z" fill="#4d2162"/></g><g id="XMLID_491_"><path id="XMLID_4213_" d="m62 227h388v10h-388z" fill="#4d2162"/></g><g id="XMLID_492_"><path id="XMLID_4212_" d="m50 296h412v10h-412z" fill="#4d2162"/></g><g id="XMLID_493_"><path id="XMLID_4211_" d="m61 365h390v10h-390z" fill="#4d2162"/></g><g id="XMLID_494_"><path id="XMLID_4210_" d="m101 433h310v10h-310z" fill="#4d2162"/></g><g id="XMLID_1574_"><path id="XMLID_2492_" d="m216 99.9h-10v-34.9c0-2.8 2.2-5 5-5h90c2.8 0 5 2.2 5 5v14.9h-10v-9.9h-80z" fill="#4d2162"/></g><g id="XMLID_414_"><path id="XMLID_2491_" d="m337.5 495.7-3.9-9.2c75-31.5 123.4-104.3 123.4-185.5 0-110.8-90.2-201-201-201-32.5 0-63.5 7.5-92.1 22.3l-4.6-8.9c29.6-15.3 63.1-23.4 96.7-23.4 116.3 0 211 94.7 211 211 0 85.3-50.8 161.7-129.5 194.7z" fill="#4d2162"/></g><g id="XMLID_415_"><path id="XMLID_2490_" d="m256 512c-36 0-69.6-22.3-94.8-62.7-24.6-39.7-38.2-92.4-38.2-148.3s13.6-108.6 38.2-148.3c25.2-40.4 58.8-62.7 94.8-62.7s69.6 22.3 94.8 62.7c24.6 39.7 38.2 92.4 38.2 148.3 0 64.4-18.1 124.5-49.7 164.7l-7.9-6.2c30.3-38.5 47.6-96.3 47.6-158.5 0-110.8-55.2-201-123-201s-123 90.2-123 201 55.2 201 123 201c20.2 0 40.3-8.3 58-23.9l6.6 7.5c-19.6 17.3-41.9 26.4-64.6 26.4z" fill="#4d2162"/></g><g id="XMLID_1645_"><path id="XMLID_2386_" d="m256 512c-116.3 0-211-94.7-211-211 0-61.8 27-120.3 74-160.5l6.5 7.6c-44.8 38.3-70.5 94-70.5 152.9 0 110.8 90.2 201 201 201 24.2 0 47.9-4.3 70.3-12.6l3.5 9.4c-23.6 8.7-48.4 13.2-73.8 13.2z" fill="#4d2162"/></g></g></g></svg>