<svg id="Layer_1" enable-background="new 0 0 512 512" height="512" viewBox="0 0 512 512" width="512" xmlns="http://www.w3.org/2000/svg"><g id="XMLID_1_"><g id="XMLID_5060_"><path id="XMLID_1345_" d="m151 447h210v60h-210z" fill="#c12944"/><path id="XMLID_1829_" d="m310 507h-159v-15h149c5.5 0 10 4.5 10 10z" fill="#d84861"/><g fill="#c12944"><path id="XMLID_1342_" d="m366 477h-220l-5-60 115-126 115 126z"/><path id="XMLID_1343_" d="m376 417h-240l-25-322 145-60 145 60z"/><path id="XMLID_1344_" d="m406 95h-300l-5-60 155-30 155 30z"/></g><path id="XMLID_590_" d="m142.3 432 3.8 45h176.5l1.9-34.4c.3-5.7-4.2-10.6-10-10.6z" fill="#d84861"/><path id="XMLID_593_" d="m112.2 110 23.8 307h195l8.7-296.7c.2-5.6-4.4-10.3-10-10.3z" fill="#d84861"/><path id="XMLID_1795_" d="m388.9 251h-265.8l.8 10h264.2z" fill="#c12944"/><path id="XMLID_1800_" d="m391.2 221h-270.4l.8 10h268.8z" fill="#c12944"/><path id="XMLID_1341_" d="m386.6 281h-261.2l.8 10h259.6z" fill="#c12944"/><path id="XMLID_739_" d="m106 95h247l1.5-34.6c.3-5.7-4.3-10.4-10-10.4h-242.2z" fill="#d84861"/><path id="XMLID_1470_" d="m422 35h-332c-8.3 0-15-6.7-15-15 0-8.3 6.7-15 15-15h332c8.3 0 15 6.7 15 15 0 8.3-6.7 15-15 15z" fill="#6abdfb"/><path id="XMLID_1802_" d="m320 35h-230c-8.3 0-15-6.7-15-15 0-8.3 6.7-15 15-15h230c8.3 0 15 6.7 15 15 0 8.3-6.7 15-15 15z" fill="#9cd3fc"/></g><g id="XMLID_4294_"><g id="XMLID_512_"><path id="XMLID_4080_" d="m422 40h-332c-11 0-20-9-20-20s9-20 20-20h332c11 0 20 9 20 20s-9 20-20 20zm-332-30c-5.5 0-10 4.5-10 10s4.5 10 10 10h332c5.5 0 10-4.5 10-10s-4.5-10-10-10z" fill="#4d2162"/></g><g id="XMLID_517_"><path id="XMLID_3479_" d="m361 512h-210c-2.8 0-5-2.2-5-5v-30c0-2.8 2.2-5 5-5h210c2.8 0 5 2.2 5 5v30c0 2.8-2.2 5-5 5zm-205-10h200v-20h-200z" fill="#4d2162"/></g><g id="XMLID_1845_"><path id="XMLID_3478_" d="m406 100h-300c-2.6 0-4.8-2-5-4.6l-5-60 10-.8 4.6 55.4h290.8l3-35.4 10 .8-3.3 40c-.3 2.6-2.5 4.6-5.1 4.6z" fill="#4d2162"/></g><g id="XMLID_696_"><path id="XMLID_3474_" d="m376 422h-240c-2.6 0-4.8-2-5-4.6l-25-322c-.1-1.4.4-2.8 1.3-3.8s2.3-1.6 3.7-1.6h290c1.4 0 2.7.6 3.7 1.6.9 1 1.4 2.4 1.3 3.8l-25 322c-.2 2.6-2.4 4.6-5 4.6zm-235.4-10h230.7l24.2-312h-279.1z" fill="#4d2162"/></g><g id="XMLID_519_"><path id="XMLID_3473_" d="m366 482h-220c-2.6 0-4.8-2-5-4.6l-3.3-40 10-.8 3 35.4h210.8l4.6-55.4 10 .8-5 60c-.3 2.6-2.5 4.6-5.1 4.6z" fill="#4d2162"/></g><g id="XMLID_514_"><path id="XMLID_3469_" d="m123 251h266v10h-266z" fill="#4d2162"/></g><g id="XMLID_604_"><path id="XMLID_3468_" d="m121 221h270v10h-270z" fill="#4d2162"/></g><g id="XMLID_605_"><path id="XMLID_3467_" d="m126 281h260v10h-260z" fill="#4d2162"/></g></g></g></svg>