<svg id="Layer_1" enable-background="new 0 0 512 512" height="512" viewBox="0 0 512 512" width="512" xmlns="http://www.w3.org/2000/svg"><g id="XMLID_1_"><g id="XMLID_5074_"><path id="XMLID_1250_" d="m402 5h-24c-44 0-80.6 35.2-81 79.2-.4 44.5 35.6 80.8 80 80.8h19.1c32.9 0 60.4-26.1 60.9-59.1.5-33.5-26.6-60.9-60-60.9h-14.3c-19.1 0-35.2 15-35.6 34.2-.5 19.7 15.4 35.8 35 35.8h15c5.5 0 10-4.5 10-10 0-5.5-4.5-10-10-10h-14.6c-8.1 0-15-6.2-15.4-14.2-.4-8.6 6.5-15.8 15-15.8h14.2c21.8 0 40.2 17.2 40.7 39 .5 22.5-17.6 41-40 41h-19.1c-32.9 0-60.4-26.1-60.9-59.1-.5-33.5 26.6-60.9 60-60.9h23.9c46.8 0 85.6 37.4 86.1 84.2.5 47.3-37.8 85.8-85 85.8h-102c-16.4 0-32.2 6.5-43.8 18.1l-251.2 251.3 42.6 42.6 248.7-248.7c27.7-27.7 65.3-43.3 104.5-43.3 57.9 0 105.8-46.4 106.2-104.4.3-58.2-46.9-105.6-105-105.6z" fill="#3179af"/><path id="XMLID_1252_" d="m-14.4 357.3h278v60.2h-278z" fill="#d84861" transform="matrix(.707 -.707 .707 .707 -237.454 201.566)"/><path id="XMLID_846_" d="m131.1 297h107.5v60.2h-107.5z" fill="#c12944" transform="matrix(.707 -.707 .707 .707 -177.168 226.537)"/><path id="XMLID_1251_" d="m183.4 263.7-39.9 39.9c-3.9 3.9-3.9 10.2 0 14.1l50.8 50.8c3.9 3.9 10.2 3.9 14.1 0l39.9-39.9c3.9-3.9 3.9-10.2 0-14.1l-50.8-50.8c-3.9-3.9-10.2-3.9-14.1 0z" fill="#d84861"/><g id="XMLID_1248_"><path id="XMLID_1249_" d="m159.6 216-17.9-8.9c6.3-12.6 16.3-16 23.6-18.4 6.6-2.2 9.6-3.4 12.1-8.3 2.5-5 1.6-8.1-.6-14.7-2.5-7.3-5.8-17.3.5-30s16.3-16 23.6-18.4c6.6-2.2 9.6-3.4 12.1-8.3l17.9 8.9c-6.3 12.6-16.3 16-23.6 18.4-6.6 2.2-9.6 3.4-12.1 8.3-2.5 5-1.6 8.1.6 14.7 2.5 7.3 5.8 17.3-.5 30-6.3 12.6-16.3 16-23.6 18.4-6.6 2.1-9.6 3.3-12.1 8.3z" fill="#9cd3fc"/></g><g id="XMLID_1246_"><path id="XMLID_1247_" d="m340.7 368.3c-6.8 0-12.4-1.9-16.9-3.5-6.5-2.2-10.7-3.7-17.8-.8l-7.6-18.5c14-5.8 24.3-2.2 31.9.4 6.5 2.2 10.7 3.7 17.8.8 7-2.9 9-6.9 12-13.1 3.5-7.2 8.4-17 22.3-22.7 14-5.8 24.3-2.2 31.9.4 6.5 2.2 10.7 3.7 17.8.8l7.6 18.5c-14 5.8-24.3 2.2-31.9-.4-6.5-2.2-10.7-3.7-17.8-.8-7 2.9-9 6.9-12 13.1-3.5 7.2-8.4 17-22.3 22.7-5.6 2.2-10.6 3.1-15 3.1z" fill="#9cd3fc"/></g></g><g id="XMLID_4722_"><g id="XMLID_711_"><path id="XMLID_2688_" d="m201.3 376.4c-4 0-7.8-1.6-10.6-4.4l-50.7-50.7c-2.8-2.8-4.4-6.6-4.4-10.6s1.6-7.8 4.4-10.6l39.9-39.9c2.8-2.8 6.6-4.4 10.6-4.4s7.8 1.6 10.6 4.4l50.8 50.8c2.8 2.8 4.4 6.6 4.4 10.6s-1.6 7.8-4.4 10.6l-40 39.8c-2.8 2.9-6.6 4.4-10.6 4.4zm-10.9-110.6c-1.3 0-2.6.5-3.5 1.5l-39.9 39.8c-.9.9-1.5 2.2-1.5 3.5s.5 2.6 1.5 3.5l50.8 50.8c.9.9 2.2 1.5 3.5 1.5s2.6-.5 3.5-1.5l39.9-39.9c.9-.9 1.5-2.2 1.5-3.5s-.5-2.6-1.5-3.5l-50.7-50.7c-1-1-2.2-1.5-3.6-1.5z" fill="#4d2162"/></g><g id="XMLID_83_"><g id="XMLID_463_"><path id="XMLID_2671_" d="m159.6 221c-.8 0-1.5-.2-2.2-.5l-17.9-8.9c-1.2-.6-2.1-1.6-2.5-2.9s-.3-2.6.3-3.8c7.2-14.5 18.9-18.3 26.5-20.9 6.4-2.1 7.6-2.7 9.2-5.8 1.5-3.1 1.3-4.5-.8-10.8-2.6-7.7-6.5-19.3.8-33.8 7.2-14.5 18.9-18.3 26.5-20.9 6.4-2.1 7.6-2.7 9.2-5.8 1.2-2.5 4.2-3.5 6.7-2.2l17.9 8.9c1.2.6 2.1 1.6 2.5 2.9s.3 2.6-.3 3.8c-7.2 14.5-18.9 18.3-26.5 20.9-6.4 2.1-7.6 2.7-9.2 5.8-1.5 3.1-1.3 4.5.8 10.8 2.6 7.7 6.5 19.3-.8 33.8-7.2 14.5-18.9 18.3-26.5 20.9-6.4 2.1-7.6 2.7-9.2 5.8-.9 1.7-2.7 2.7-4.5 2.7zm-10.8-16 9.1 4.6c3.2-3.7 7.3-5 12.2-6.6 6.8-2.3 15.4-5.1 20.7-15.9 5.4-10.8 2.5-19.3.2-26.1-2.1-6.4-3.8-11.4-.3-18.5s8.6-8.7 15-10.9c5.8-1.9 12.9-4.3 18.2-11.6l-9.1-4.6c-3.2 3.7-7.3 5-12.2 6.7-6.8 2.3-15.4 5.1-20.7 15.9-5.4 10.8-2.5 19.3-.2 26.1 2.1 6.4 3.8 11.4.3 18.5s-8.6 8.7-15 10.9c-5.9 1.9-13 4.2-18.2 11.5z" fill="#4d2162"/></g></g><g id="XMLID_90_"><g id="XMLID_373_"><path id="XMLID_2668_" d="m340.7 373.3c-7.6 0-13.7-2.1-18.5-3.7-6.2-2.1-9-3.1-14.2-.9-1.2.5-2.6.5-3.8 0s-2.2-1.5-2.7-2.7l-7.6-18.5c-.5-1.2-.5-2.6 0-3.8s1.5-2.2 2.7-2.7c15.7-6.5 27.6-2.4 35.4.3 6.2 2.1 9 3.1 14.2.9 5.3-2.2 6.6-4.8 9.5-10.7 3.7-7.4 9.2-18.7 24.9-25.2s27.6-2.4 35.4.3c6.2 2.1 9 3.1 14.2.9 1.2-.5 2.6-.5 3.8 0s2.2 1.5 2.7 2.7l7.6 18.5c1.1 2.6-.2 5.5-2.7 6.5-15.7 6.5-27.6 2.4-35.4-.3-6.2-2.1-9-3.1-14.2-.9s-6.6 4.8-9.5 10.7c-3.7 7.4-9.2 18.7-24.9 25.1-5.7 2.3-11.4 3.5-16.9 3.5zm-27.3-15.9c4.2 0 8 1.3 12 2.7 4.4 1.5 9.3 3.2 15.3 3.2 4.3 0 8.6-.9 13.1-2.7 12.2-5.1 16.4-13.5 19.8-20.3 3.1-6.4 5.9-11.9 14.6-15.5 8.8-3.6 14.6-1.6 21.3.7 6.2 2.1 13.7 4.7 23.6 2.1l-3.9-9.3c-6.3 1.3-11.1-.3-16.5-2.2-7.2-2.5-16.1-5.5-28.4-.5-12.2 5.1-16.4 13.5-19.8 20.3-3.1 6.4-5.9 11.9-14.6 15.5-8.8 3.6-14.6 1.6-21.3-.7-6.2-2.1-13.7-4.7-23.6-2.1l3.9 9.3c1.6-.4 3-.5 4.5-.5z" fill="#4d2162"/></g></g><g id="XMLID_1927_"><path id="XMLID_2385_" d="m47.6 512c-1.3 0-2.6-.5-3.5-1.5l-42.6-42.6c-1-.9-1.5-2.2-1.5-3.5s.5-2.6 1.5-3.5l142.5-142.6 7.1 7.1-139 139 35.5 35.5 124.7-124.7 7.1 7.1-128.3 128.2c-.9 1-2.2 1.5-3.5 1.5z" fill="#4d2162"/></g><g id="XMLID_710_"><path id="XMLID_2382_" d="m247.7 314-7.1-7.1 52.1-52.1c28.9-28.9 67.3-44.8 108.1-44.8 55.5 0 100.8-44.6 101.2-99.4.2-26.8-10.2-52-29.1-71.1-19-19-44.1-29.5-70.9-29.5h-24c-41.5 0-75.6 33.3-76 74.3-.2 20.1 7.5 39.1 21.7 53.5s33.1 22.3 53.3 22.3h19.1c30.4 0 55.4-24.3 55.9-54.1.2-14.8-5.4-28.8-15.8-39.4-10.5-10.8-24.4-16.6-39.2-16.6h-14.3c-16.5 0-30.3 13.1-30.6 29.3-.2 8.1 2.8 15.8 8.5 21.7 5.7 5.8 13.3 9.1 21.5 9.1h15c2.8 0 5-2.2 5-5s-2.2-5-5-5h-14.6c-10.9 0-19.9-8.3-20.4-19-.3-5.5 1.7-10.8 5.5-14.8s9-6.2 14.5-6.2h14.2c24.6 0 45.2 19.7 45.7 43.9.3 12.2-4.3 23.8-12.8 32.5-8.5 8.8-20 13.6-32.2 13.6h-19.1c-35.8 0-65.4-28.7-65.9-64-.3-17.5 6.4-34.1 18.7-46.6 12.3-12.6 28.8-19.5 46.3-19.5h23.9c49.7 0 90.6 40 91.1 89.1.2 24.2-9 47-26.1 64.2-17 17.2-39.7 26.7-63.9 26.7h-102c-15.2 0-29.5 5.9-40.2 16.7l-40.6 40.6-7.1-7.1 40.6-40.6c12.7-12.6 29.5-19.6 47.3-19.6h102c21.5 0 41.7-8.4 56.8-23.7 15.2-15.3 23.4-35.6 23.2-57.1-.4-43.7-36.8-79.2-81.1-79.2h-23.9c-14.8 0-28.7 5.8-39.2 16.4-10.4 10.6-16 24.6-15.8 39.5.5 29.9 25.5 54.1 55.9 54.1h19.1c9.5 0 18.4-3.8 25-10.6s10.2-15.8 10-25.3c-.5-18.8-16.5-34.1-35.8-34.1h-14.2c-2.8 0-5.3 1.1-7.2 3.1s-2.9 4.6-2.7 7.4c.3 5.2 4.9 9.5 10.4 9.5h14.5c8.3 0 15 6.7 15 15s-6.7 15-15 15h-15c-10.8 0-21-4.3-28.6-12.1s-11.6-18-11.4-28.9c.5-21.5 18.7-39 40.6-39h14.4c17.5 0 34 6.9 46.3 19.4s19 29.1 18.7 46.6c-.5 35.3-30.1 64-65.9 64h-19.1c-22.8 0-44.3-9-60.4-25.2-16.1-16.3-24.8-37.8-24.6-60.6.5-46.4 39-84.2 86-84.2h24c29.5 0 57.1 11.5 78 32.5 20.8 20.9 32.2 48.7 32 78.2-.3 60.2-50.2 109.3-111.2 109.3-38.2 0-74 14.9-101 41.9z" fill="#4d2162"/></g></g></g></svg>