<svg id="Layer_1" enable-background="new 0 0 512 512" height="512" viewBox="0 0 512 512" width="512" xmlns="http://www.w3.org/2000/svg"><g id="XMLID_2_"><g id="XMLID_5116_"><path id="XMLID_1480_" d="m347.7 312h24v195h-24z" fill="#9cd3fc"/><path id="XMLID_1876_" d="m347.7 312h24v60h-24z" fill="#6abdfb"/><path id="XMLID_1485_" d="m215 142v-117c0-11-9-20-20-20h-30c-11 0-20 9-20 20v117c0 36.9-12.3 72.8-35 102-22.7 29.2-35 65.1-35 102v141c0 11 9 20 20 20h170c11 0 20-9 20-20v-141c0-36.9-12.3-72.8-35-102-22.7-29.2-35-65.1-35-102z" fill="#ffb233"/><path id="XMLID_820_" d="m190 25c0-11-9-20-20-20h-5c-11 0-20 9-20 20v16h45z" fill="#ffc970"/><path id="XMLID_823_" d="m202.5 244c-8.3-29.9-12.5-60.7-12.5-91.7v-47.3c0-5.5-4.5-10-10-10h-35v47c0 36.9-12.3 72.8-35 102-22.7 29.2-35 65.1-35 102v141c0 11 9 20 20 20h100c11 0 20-9 20-20v-151.3c0-31-4.3-61.8-12.5-91.7z" fill="#ffc970"/><path id="XMLID_1697_" d="m110 243.9c-23 29.2-35 65.2-35 102.1v141c0 11 8.9 20 20 20h170c11 0 20-9 20-20v-141c0-36.9-12-72.8-35-102v-.1c-3-4.1-6.4-7.9-9.2-12.9h-121.7c-2.8 5-6.1 8.8-9.1 12.9z" fill="#8b2d77"/><path id="XMLID_1484_" d="m218 77h-76c-5.5 0-10-4.5-10-10v-16c0-5.5 4.5-10 10-10h76c5.5 0 10 4.5 10 10v16c0 5.5-4.5 10-10 10z" fill="#ffc970"/><path id="XMLID_624_" d="m155 77c-5.5 0-10-4.5-10-10v-16c0-5.5 4.5-10 10-10 5.5 0 10 4.5 10 10v16c0 5.5-4.5 10-10 10z" fill="#ffdca3"/><path id="XMLID_1483_" d="m180 231.2-48.3-24.2c-5.4 12.7-12.3 24.7-20.8 35.8l69 45 69-45c-8.4-11.1-15.4-23.1-20.8-35.8z" fill="#6abdfb"/><path id="XMLID_1481_" d="m414.9 507h-110.5c-5.4 0-9.7-4.4-9.7-9.7 0-3.8 2.2-7.3 5.7-8.9l47.3-21.4h24l47.3 21.4c3.5 1.6 5.7 5 5.7 8.9 0 5.3-4.4 9.7-9.8 9.7z" fill="#6abdfb"/><path id="XMLID_1903_" d="m375 507h-70.6c-5.4 0-9.7-4.4-9.7-9.7 0-3.8 2.2-7.3 5.7-8.9l47.3-21.4h24l13.7 20.9c1.3 2 2 4.3 2 6.7-.1 6.9-5.6 12.4-12.4 12.4z" fill="#9cd3fc"/><path id="XMLID_1479_" d="m371.7 352h-24l-13-13c-46.2-46.3-63.5-114.2-45-177h140c18.5 62.8 1.2 130.7-45 177z" fill="#cde9fe"/><path id="XMLID_1906_" d="m429.7 162h-20.8l1.7 5.7c16.4 55.8 1.1 116-40 157.2l-7.1 7.1h-7.5l-7.1-7.1c-41.1-41.2-56.4-101.4-40-157.2l1.7-5.7h-20.8c-18.5 62.8-1.2 130.7 45 177l13 13h24l13-13c46.1-46.3 63.4-114.2 44.9-177z" fill="#9cd3fc"/><path id="XMLID_1478_" d="m303.6 232c4.3 35 19.8 67.4 45.3 92.9l7.1 7.1h7.4l7.1-7.1c25.5-25.5 41-57.9 45.3-92.9z" fill="#ffb233"/><path id="XMLID_1908_" d="m386.8 232h-83.2c3 24.4 11.4 47.5 24.9 67.9 7.9 12 25.5 12 33.4 0 13.4-20.4 21.9-43.5 24.9-67.9z" fill="#ffc970"/><path id="XMLID_1482_" d="m246 352h-132c-5.5 0-10 4.5-10 10v80c0 5.5 4.5 10 10 10h132c5.5 0 10-4.5 10-10v-80c0-5.5-4.5-10-10-10z" fill="#6abdfb"/><path id="XMLID_1625_" d="m215 487v-151.3c0-31-4.2-61.8-12.5-91.7-1.2-4.3-2.3-8.6-3.3-13h-80c-2.8 4.5-5.9 9-9.1 13-22.5 29-35 65.3-35 102v141c0 10.8 9.1 20 20 20h100c10.9 0 19.9-9 19.9-20z" fill="#b23998"/><path id="XMLID_625_" d="m133 314c-8.8 0-16 7.2-16 16v135c0 8.8 7.2 16 16 16 8.8 0 16-7.2 16-16v-135c0-8.8-7.2-16-16-16z" fill="#c955b0"/><path id="XMLID_1628_" d="m180 287.8 28.5-18.6c-1.7-8.5-3.7-16.9-6-25.2-2-7.1-3.7-14.3-5.2-21.5l-17.3 8.7-48.3-24.2c-5.4 12.7-12.4 24.8-20.8 35.8z" fill="#9cd3fc"/><path id="XMLID_1624_" d="m215 352h-101c-5.5 0-10 4.5-10 10v80c0 5.5 4.4 10 10 10h101z" fill="#9cd3fc"/><circle id="XMLID_1476_" cx="180" cy="231.2" fill="#b23998" r="22"/></g><g id="XMLID_4766_"><g id="XMLID_608_"><path id="XMLID_4118_" d="m218 82h-76c-8.3 0-15-6.7-15-15v-16c0-8.3 6.7-15 15-15h76c8.3 0 15 6.7 15 15v16c0 8.3-6.8 15-15 15zm-76-36c-2.8 0-5 2.2-5 5v16c0 2.8 2.2 5 5 5h76c2.8 0 5-2.2 5-5v-16c0-2.8-2.2-5-5-5z" fill="#4d2162"/></g><g id="XMLID_1_"><path id="XMLID_4115_" d="m246 457h-132c-8.3 0-15-6.7-15-15v-80c0-8.3 6.7-15 15-15h132c8.3 0 15 6.7 15 15v80c0 8.3-6.8 15-15 15zm-132-100c-2.8 0-5 2.2-5 5v80c0 2.8 2.2 5 5 5h132c2.8 0 5-2.2 5-5v-80c0-2.8-2.2-5-5-5z" fill="#4d2162"/></g><g id="XMLID_2065_"><path id="XMLID_4114_" d="m414.9 512h-110.5c-8.1 0-14.7-6.6-14.7-14.7 0-5.8 3.4-11 8.7-13.4l44.3-20.1v-109.7l-11.5-11.5c-47.6-47.6-65.3-117.4-46.3-181.9.6-2.1 2.6-3.6 4.8-3.6h140c2.2 0 4.2 1.5 4.8 3.6 19 64.6 1.3 134.3-46.3 181.9l-11.5 11.5v92.9h-10v-95c0-1.3.5-2.6 1.5-3.5l13-13c44.1-44.2 61.1-108.4 44.8-168.5h-132.6c-16.3 60.1.7 124.3 44.8 168.5l13 13c.9.9 1.5 2.2 1.5 3.5v115c0 2-1.1 3.7-2.9 4.6l-47.4 21.4c-1.7.8-2.8 2.5-2.8 4.3 0 2.6 2.1 4.7 4.7 4.7h110.5c2.6 0 4.7-2.1 4.7-4.7 0-1.9-1.1-3.5-2.8-4.3l-47.3-21.4 4.1-9.1 47.3 21.4c5.3 2.4 8.7 7.6 8.7 13.4.2 8.1-6.5 14.7-14.6 14.7z" fill="#4d2162"/></g><g id="XMLID_391_"><path id="XMLID_4111_" d="m363.4 337h-7.4c-1.3 0-2.6-.5-3.5-1.5l-7.1-7.1c-26.1-26.1-42.2-59.3-46.7-95.8-.2-1.4.3-2.8 1.2-3.9s2.3-1.7 3.7-1.7h112.2c1.4 0 2.8.6 3.7 1.7s1.4 2.5 1.2 3.9c-4.4 36.5-20.6 69.6-46.7 95.8l-7.1 7.1c-.9 1-2.2 1.5-3.5 1.5zm-5.4-10h3.3l5.7-5.7c23.2-23.2 38-52.3 43.1-84.3h-100.8c5.1 32.1 19.9 61.1 43.1 84.3z" fill="#4d2162"/></g><g id="XMLID_21_"><path id="XMLID_4091_" d="m180 258.2c-14.9 0-27-12.1-27-27s12.1-27 27-27 27 12.1 27 27-12.2 27-27 27zm0-44c-9.4 0-17 7.6-17 17s7.6 17 17 17 17-7.6 17-17-7.7-17-17-17z" fill="#4d2162"/></g><g id="XMLID_1648_"><path id="XMLID_2483_" d="m265 512h-170c-13.8 0-25-11.2-25-25v-141c0-37.9 12.8-75.2 36.1-105.1 21.9-28.1 33.9-63.3 33.9-98.9v-45h10v45c0 37.9-12.8 75.2-36.1 105.1-21.9 28.1-33.9 63.3-33.9 98.9v141c0 8.3 6.7 15 15 15h170c8.3 0 15-6.7 15-15v-141c0-35.7-12.1-70.8-33.9-98.9-23.3-29.9-36.1-67.2-36.1-105.1v-65h10v65c0 35.7 12.1 70.8 33.9 98.9 23.2 29.9 36.1 67.2 36.1 105.1v141c0 13.8-11.3 25-25 25z" fill="#4d2162"/></g><g id="XMLID_611_"><path id="XMLID_2482_" d="m220 41h-10v-16c0-8.3-6.7-15-15-15h-30c-8.3 0-15 6.7-15 15v16h-10v-16c0-13.8 11.2-25 25-25h30c13.8 0 25 11.2 25 25z" fill="#4d2162"/></g><g id="XMLID_2064_"><path id="XMLID_2479_" d="m208.9 198.2h10v32h-10z" fill="#4d2162" transform="matrix(.449 .894 -.894 .449 309.205 -73.134)"/></g><g id="XMLID_1647_"><path id="XMLID_2478_" d="m180 292.8c-1 0-1.9-.3-2.7-.8l-69-45 5.5-8.4 66.3 43.3 66.3-43.3 5.5 8.4-69 45c-1 .5-2 .8-2.9.8z" fill="#4d2162"/></g><g id="XMLID_2057_"><path id="XMLID_2477_" d="m130 209.1h32v10h-32z" fill="#4d2162" transform="matrix(.894 .449 -.449 .894 111.695 -42.754)"/></g></g></g></svg>