<svg id="Layer_1" enable-background="new 0 0 512 512" height="512" viewBox="0 0 512 512" width="512" xmlns="http://www.w3.org/2000/svg"><g id="XMLID_1_"><g id="XMLID_5144_"><path id="XMLID_1536_" d="m497 395h-482c-5.5 0-10-4.5-10-10v-258c0-5.5 4.5-10 10-10h482c5.5 0 10 4.5 10 10v258c0 5.5-4.5 10-10 10z" fill="#c955b0"/><path id="XMLID_1382_" d="m482 395h-452c-5.5 0-10-4.5-10-10v-243c0-5.5 4.5-10 10-10h452c5.5 0 10 4.5 10 10v243c0 5.5-4.5 10-10 10z" fill="#b23998"/><path id="XMLID_1412_" d="m35 290h442v105h-442z" fill="#9cd3fc"/><path id="XMLID_1718_" d="m35 290h442v20h-442z" fill="#6abdfb"/><g id="XMLID_1401_"><path id="XMLID_3038_" d="m62 322h10v73h-10z" fill="#6abdfb"/></g><g id="XMLID_1400_"><path id="XMLID_3037_" d="m93 322h10v73h-10z" fill="#6abdfb"/></g><g id="XMLID_1399_"><path id="XMLID_3036_" d="m125 290h10v105h-10z" fill="#6abdfb"/></g><g id="XMLID_1398_"><path id="XMLID_3035_" d="m156 322h10v73h-10z" fill="#6abdfb"/></g><g id="XMLID_1397_"><path id="XMLID_3034_" d="m188 322h10v73h-10z" fill="#6abdfb"/></g><g id="XMLID_1396_"><path id="XMLID_3033_" d="m219 322h10v73h-10z" fill="#6abdfb"/></g><g id="XMLID_1395_"><path id="XMLID_3032_" d="m251 290h10v105h-10z" fill="#6abdfb"/></g><g id="XMLID_1394_"><path id="XMLID_3031_" d="m283 322h10v73h-10z" fill="#6abdfb"/></g><g id="XMLID_1393_"><path id="XMLID_3030_" d="m314 322h10v73h-10z" fill="#6abdfb"/></g><g id="XMLID_1392_"><path id="XMLID_3029_" d="m346 290h10v105h-10z" fill="#6abdfb"/></g><g id="XMLID_1391_"><path id="XMLID_3028_" d="m377 322h10v73h-10z" fill="#6abdfb"/></g><g id="XMLID_1390_"><path id="XMLID_3027_" d="m409 322h10v73h-10z" fill="#6abdfb"/></g><g id="XMLID_1389_"><path id="XMLID_3026_" d="m440 322h10v73h-10z" fill="#6abdfb"/></g><path id="XMLID_1388_" d="m35 190h113v70h-113z" fill="#ffc970"/><path id="XMLID_1387_" d="m35 147h113v27h-113z" fill="#9cd3fc"/><g id="XMLID_1386_"><path id="XMLID_1585_" d="m465 147h10v113h-10z" fill="#8b2d77"/></g><g id="XMLID_1385_"><path id="XMLID_1584_" d="m434 147h10v113h-10z" fill="#8b2d77"/></g><g id="XMLID_1384_"><path id="XMLID_1580_" d="m402 147h10v113h-10z" fill="#8b2d77"/></g><g id="XMLID_1383_"><path id="XMLID_1579_" d="m371 147h10v113h-10z" fill="#8b2d77"/></g><circle id="XMLID_1378_" cx="191" cy="174" fill="#3179af" r="15"/><circle id="XMLID_1377_" cx="236" cy="174" fill="#3179af" r="15"/><circle id="XMLID_1376_" cx="281" cy="174" fill="#3179af" r="15"/><circle id="XMLID_1375_" cx="326" cy="174" fill="#3179af" r="15"/><circle id="XMLID_1374_" cx="191" cy="233" fill="#3179af" r="15"/><circle id="XMLID_1373_" cx="236" cy="233" fill="#3179af" r="15"/><circle id="XMLID_1372_" cx="281" cy="233" fill="#3179af" r="15"/><circle id="XMLID_1371_" cx="326" cy="233" fill="#3179af" r="15"/><g id="XMLID_1370_"><path id="XMLID_2263_" d="m35 220h113v10h-113z" fill="#ffb233"/></g><g id="XMLID_1369_"><path id="XMLID_2262_" d="m58 190h10v70h-10z" fill="#ffb233"/></g><g id="XMLID_1368_"><path id="XMLID_2261_" d="m86 190h10v70h-10z" fill="#ffb233"/></g><g id="XMLID_1367_"><path id="XMLID_2260_" d="m115 190h10v70h-10z" fill="#ffb233"/></g><g fill="#3179af"><path id="XMLID_1411_" d="m60 290h14v63h-14z"/><path id="XMLID_1410_" d="m91 290h14v63h-14z"/><path id="XMLID_1409_" d="m281 290h14v63h-14z"/><path id="XMLID_1408_" d="m312 290h14v63h-14z"/><path id="XMLID_1407_" d="m375 290h14v63h-14z"/><path id="XMLID_1406_" d="m407 290h14v63h-14z"/><path id="XMLID_1405_" d="m438 290h14v63h-14z"/><path id="XMLID_1404_" d="m154 290h14v63h-14z"/><path id="XMLID_1403_" d="m186 290h14v63h-14z"/><path id="XMLID_1402_" d="m217 290h14v63h-14z"/></g><g id="XMLID_1381_"><path id="XMLID_1620_" d="m458 185h24v10h-24z" fill="#ffc970"/></g><g id="XMLID_1380_"><path id="XMLID_1616_" d="m364 185h24v10h-24z" fill="#ffc970"/></g><g id="XMLID_397_"><path id="XMLID_1615_" d="m427 213h24v10h-24z" fill="#ffc970"/></g><g id="XMLID_387_"><path id="XMLID_1614_" d="m395 198h24v10h-24z" fill="#ffc970"/></g></g><g id="XMLID_4794_"><g id="XMLID_2223_"><path id="XMLID_3871_" d="m497 400h-20c-2.8 0-5-2.2-5-5v-100h-432v80h-10v-85c0-2.8 2.2-5 5-5h442c2.8 0 5 2.2 5 5v100h15c2.8 0 5-2.2 5-5v-258c0-2.8-2.2-5-5-5h-482c-2.8 0-5 2.2-5 5v258c0 2.8 2.2 5 5 5h442v10h-442c-8.3 0-15-6.7-15-15v-258c0-8.3 6.7-15 15-15h482c8.3 0 15 6.7 15 15v258c0 8.3-6.7 15-15 15z" fill="#4d2162"/></g><g id="XMLID_402_"><path id="XMLID_3868_" d="m74 358h-14c-2.8 0-5-2.2-5-5v-63c0-2.8 2.2-5 5-5h14c2.8 0 5 2.2 5 5v63c0 2.8-2.2 5-5 5zm-9-10h4v-53h-4z" fill="#4d2162"/></g><g id="XMLID_378_"><path id="XMLID_3865_" d="m105 358h-14c-2.8 0-5-2.2-5-5v-63c0-2.8 2.2-5 5-5h14c2.8 0 5 2.2 5 5v63c0 2.8-2.2 5-5 5zm-9-10h4v-53h-4z" fill="#4d2162"/></g><g id="XMLID_449_"><path id="XMLID_3862_" d="m295 358h-14c-2.8 0-5-2.2-5-5v-63c0-2.8 2.2-5 5-5h14c2.8 0 5 2.2 5 5v63c0 2.8-2.2 5-5 5zm-9-10h4v-53h-4z" fill="#4d2162"/></g><g id="XMLID_450_"><path id="XMLID_3859_" d="m326 358h-14c-2.8 0-5-2.2-5-5v-63c0-2.8 2.2-5 5-5h14c2.8 0 5 2.2 5 5v63c0 2.8-2.2 5-5 5zm-9-10h4v-53h-4z" fill="#4d2162"/></g><g id="XMLID_376_"><path id="XMLID_3856_" d="m389 358h-14c-2.8 0-5-2.2-5-5v-63c0-2.8 2.2-5 5-5h14c2.8 0 5 2.2 5 5v63c0 2.8-2.2 5-5 5zm-9-10h4v-53h-4z" fill="#4d2162"/></g><g id="XMLID_377_"><path id="XMLID_3853_" d="m421 358h-14c-2.8 0-5-2.2-5-5v-63c0-2.8 2.2-5 5-5h14c2.8 0 5 2.2 5 5v63c0 2.8-2.2 5-5 5zm-9-10h4v-53h-4z" fill="#4d2162"/></g><g id="XMLID_385_"><path id="XMLID_3850_" d="m452 358h-14c-2.8 0-5-2.2-5-5v-63c0-2.8 2.2-5 5-5h14c2.8 0 5 2.2 5 5v63c0 2.8-2.2 5-5 5zm-9-10h4v-53h-4z" fill="#4d2162"/></g><g id="XMLID_446_"><path id="XMLID_3847_" d="m168 358h-14c-2.8 0-5-2.2-5-5v-63c0-2.8 2.2-5 5-5h14c2.8 0 5 2.2 5 5v63c0 2.8-2.2 5-5 5zm-9-10h4v-53h-4z" fill="#4d2162"/></g><g id="XMLID_447_"><path id="XMLID_3837_" d="m200 358h-14c-2.8 0-5-2.2-5-5v-63c0-2.8 2.2-5 5-5h14c2.8 0 5 2.2 5 5v63c0 2.8-2.2 5-5 5zm-9-10h4v-53h-4z" fill="#4d2162"/></g><g id="XMLID_448_"><path id="XMLID_3834_" d="m231 358h-14c-2.8 0-5-2.2-5-5v-63c0-2.8 2.2-5 5-5h14c2.8 0 5 2.2 5 5v63c0 2.8-2.2 5-5 5zm-9-10h4v-53h-4z" fill="#4d2162"/></g><g id="XMLID_379_"><path id="XMLID_3833_" d="m62 353h10v42h-10z" fill="#4d2162"/></g><g id="XMLID_380_"><path id="XMLID_3832_" d="m93 353h10v42h-10z" fill="#4d2162"/></g><g id="XMLID_381_"><path id="XMLID_3831_" d="m125 290h10v105h-10z" fill="#4d2162"/></g><g id="XMLID_382_"><path id="XMLID_3830_" d="m156 353h10v42h-10z" fill="#4d2162"/></g><g id="XMLID_384_"><path id="XMLID_3829_" d="m188 353h10v42h-10z" fill="#4d2162"/></g><g id="XMLID_420_"><path id="XMLID_3828_" d="m219 353h10v42h-10z" fill="#4d2162"/></g><g id="XMLID_426_"><path id="XMLID_3827_" d="m251 290h10v105h-10z" fill="#4d2162"/></g><g id="XMLID_440_"><path id="XMLID_3826_" d="m283 353h10v42h-10z" fill="#4d2162"/></g><g id="XMLID_441_"><path id="XMLID_3825_" d="m314 353h10v42h-10z" fill="#4d2162"/></g><g id="XMLID_442_"><path id="XMLID_3824_" d="m346 290h10v105h-10z" fill="#4d2162"/></g><g id="XMLID_443_"><path id="XMLID_3823_" d="m377 353h10v42h-10z" fill="#4d2162"/></g><g id="XMLID_444_"><path id="XMLID_3822_" d="m409 353h10v42h-10z" fill="#4d2162"/></g><g id="XMLID_445_"><path id="XMLID_3821_" d="m440 353h10v42h-10z" fill="#4d2162"/></g><g id="XMLID_386_"><path id="XMLID_3818_" d="m148 265h-113c-2.8 0-5-2.2-5-5v-70c0-2.8 2.2-5 5-5h113c2.8 0 5 2.2 5 5v70c0 2.8-2.2 5-5 5zm-108-10h103v-60h-103z" fill="#4d2162"/></g><g id="XMLID_375_"><path id="XMLID_3815_" d="m148 179h-113c-2.8 0-5-2.2-5-5v-27c0-2.8 2.2-5 5-5h113c2.8 0 5 2.2 5 5v27c0 2.8-2.2 5-5 5zm-108-10h103v-17h-103z" fill="#4d2162"/></g><g id="XMLID_1677_"><path id="XMLID_3814_" d="m465 147h10v113h-10z" fill="#4d2162"/></g><g id="XMLID_401_"><path id="XMLID_3813_" d="m434 147h10v113h-10z" fill="#4d2162"/></g><g id="XMLID_398_"><path id="XMLID_3812_" d="m402 147h10v113h-10z" fill="#4d2162"/></g><g id="XMLID_451_"><path id="XMLID_3811_" d="m371 147h10v113h-10z" fill="#4d2162"/></g><g id="XMLID_395_"><path id="XMLID_3808_" d="m191 194c-11 0-20-9-20-20s9-20 20-20 20 9 20 20-9 20-20 20zm0-30c-5.5 0-10 4.5-10 10s4.5 10 10 10 10-4.5 10-10-4.5-10-10-10z" fill="#4d2162"/></g><g id="XMLID_456_"><path id="XMLID_3805_" d="m236 194c-11 0-20-9-20-20s9-20 20-20 20 9 20 20-9 20-20 20zm0-30c-5.5 0-10 4.5-10 10s4.5 10 10 10 10-4.5 10-10-4.5-10-10-10z" fill="#4d2162"/></g><g id="XMLID_457_"><path id="XMLID_3686_" d="m281 194c-11 0-20-9-20-20s9-20 20-20 20 9 20 20-9 20-20 20zm0-30c-5.5 0-10 4.5-10 10s4.5 10 10 10 10-4.5 10-10-4.5-10-10-10z" fill="#4d2162"/></g><g id="XMLID_458_"><path id="XMLID_3683_" d="m326 194c-11 0-20-9-20-20s9-20 20-20 20 9 20 20-9 20-20 20zm0-30c-5.5 0-10 4.5-10 10s4.5 10 10 10 10-4.5 10-10-4.5-10-10-10z" fill="#4d2162"/></g><g id="XMLID_462_"><path id="XMLID_3680_" d="m191 253c-11 0-20-9-20-20s9-20 20-20 20 9 20 20-9 20-20 20zm0-30c-5.5 0-10 4.5-10 10s4.5 10 10 10 10-4.5 10-10-4.5-10-10-10z" fill="#4d2162"/></g><g id="XMLID_461_"><path id="XMLID_3676_" d="m236 253c-11 0-20-9-20-20s9-20 20-20 20 9 20 20-9 20-20 20zm0-30c-5.5 0-10 4.5-10 10s4.5 10 10 10 10-4.5 10-10-4.5-10-10-10z" fill="#4d2162"/></g><g id="XMLID_460_"><path id="XMLID_3644_" d="m281 253c-11 0-20-9-20-20s9-20 20-20 20 9 20 20-9 20-20 20zm0-30c-5.5 0-10 4.5-10 10s4.5 10 10 10 10-4.5 10-10-4.5-10-10-10z" fill="#4d2162"/></g><g id="XMLID_459_"><path id="XMLID_3641_" d="m326 253c-11 0-20-9-20-20s9-20 20-20 20 9 20 20-9 20-20 20zm0-30c-5.5 0-10 4.5-10 10s4.5 10 10 10 10-4.5 10-10-4.5-10-10-10z" fill="#4d2162"/></g><g id="XMLID_455_"><path id="XMLID_3640_" d="m35 220h113v10h-113z" fill="#4d2162"/></g><g id="XMLID_465_"><path id="XMLID_3639_" d="m58 190h10v70h-10z" fill="#4d2162"/></g><g id="XMLID_467_"><path id="XMLID_3638_" d="m86 190h10v70h-10z" fill="#4d2162"/></g><g id="XMLID_468_"><path id="XMLID_3631_" d="m115 190h10v70h-10z" fill="#4d2162"/></g><g id="XMLID_1379_"><path id="XMLID_2449_" d="m458 185h24v10h-24z" fill="#4d2162"/></g><g id="XMLID_452_"><path id="XMLID_2409_" d="m364 185h24v10h-24z" fill="#4d2162"/></g><g id="XMLID_454_"><path id="XMLID_2398_" d="m427 213h24v10h-24z" fill="#4d2162"/></g><g id="XMLID_453_"><path id="XMLID_2393_" d="m395 198h24v10h-24z" fill="#4d2162"/></g></g></g></svg>