<svg id="Layer_1" enable-background="new 0 0 512 512" height="512" viewBox="0 0 512 512" width="512" xmlns="http://www.w3.org/2000/svg"><g id="XMLID_1_"><g id="XMLID_5186_"><ellipse id="XMLID_1175_" cx="256" cy="390" fill="#9cd3fc" rx="251" ry="117"/><ellipse id="XMLID_1736_" cx="256" cy="390" fill="#6abdfb" rx="200" ry="66"/><path id="XMLID_1266_" d="m67.7 214.3 188.3-188.3c110.5 0 200 89.5 200 200v180c0 11-9 20-20 20h-360c-11 0-20-9-20-20v-163.4c0-10.6 4.2-20.8 11.7-28.3z" fill="#8b2d77"/><path id="XMLID_1264_" d="m56 251h375v150h-375z" fill="#ffc970"/><path id="XMLID_1263_" d="m56 301h375v50h-375z" fill="#d84861"/><path id="XMLID_1265_" d="m256 26-182.9 182.9c-6.3 6.3-1.8 17.1 7.1 17.1h160.7c13.2 0 23.9 10.7 23.9 23.9v2.2c0 13.2 10.7 23.9 23.9 23.9 13.2 0 23.9-10.7 23.9-23.9v-2.2c0-13.2 10.7-23.9 23.9-23.9h47.8c13.2 0 23.9 10.7 23.9 23.9v27.2c0 13.2 10.7 23.9 23.9 23.9 13.2 0 23.9-10.7 23.9-23.9v-51.1c0-110.5-89.5-200-200-200z" fill="#b23998"/><ellipse id="XMLID_1783_" cx="371" cy="136" fill="#8b2d77" rx="54" ry="20.3"/><circle id="XMLID_1352_" cx="340" cy="82" fill="#d84861" r="54"/><path id="XMLID_1741_" d="m375.9 66.8v.7c-1.7 26.9-23.5 48.6-50.4 50.4-.2 0-.5 0-.7 0-8.7.4-10.3 12.5-2 15.3 5.4 1.8 11.2 2.8 17.2 2.8 29.7 0 54-24.3 54-54 0-6-1-11.8-2.8-17.2-2.8-8.3-14.8-6.7-15.3 2z" fill="#c12944"/><circle id="XMLID_1669_" cx="322" cy="64" fill="#e17084" r="18"/><g id="XMLID_1351_"><path id="XMLID_2128_" d="m344.9 70.1-9.8-2.2 3.4-15.4c3.3-14.8 11.6-28.3 23.5-37.8s26.8-14.7 42-14.7v10c-27 0-49.9 18.4-55.7 44.7z" fill="#b23998"/></g><g id="XMLID_1350_"><path id="XMLID_2127_" d="m151 180h24v10h-24z" fill="#ffc970"/></g><g id="XMLID_1349_"><path id="XMLID_2126_" d="m262 158h24v10h-24z" fill="#ffc970"/></g><g id="XMLID_1348_"><path id="XMLID_2125_" d="m190 119h10v24h-10z" fill="#ffc970" transform="matrix(.707 .707 -.707 .707 149.761 -99.52)"/></g><g id="XMLID_1347_"><path id="XMLID_2124_" d="m223 177h10v24h-10z" fill="#ffc970"/></g><g id="XMLID_1346_"><path id="XMLID_2123_" d="m231 118h24v10h-24z" fill="#ffc970" transform="matrix(.707 .707 -.707 .707 158.147 -135.801)"/></g></g><g id="XMLID_4836_"><g id="XMLID_667_"><path id="XMLID_3489_" d="m340 141c-32.5 0-59-26.5-59-59s26.5-59 59-59 59 26.5 59 59-26.5 59-59 59zm0-108c-27 0-49 22-49 49s22 49 49 49 49-22 49-49-22-49-49-49z" fill="#4d2162"/></g><g id="XMLID_648_"><path id="XMLID_3488_" d="m344.9 70.1-9.8-2.2 3.4-15.4c3.3-14.8 11.6-28.3 23.5-37.8s26.8-14.7 42-14.7v10c-27 0-49.9 18.4-55.7 44.7z" fill="#4d2162"/></g><g id="XMLID_675_"><path id="XMLID_3487_" d="m151 180h24v10h-24z" fill="#4d2162"/></g><g id="XMLID_674_"><path id="XMLID_3485_" d="m262 158h24v10h-24z" fill="#4d2162"/></g><g id="XMLID_673_"><path id="XMLID_3484_" d="m190 119h10v24h-10z" fill="#4d2162" transform="matrix(.707 .707 -.707 .707 149.761 -99.52)"/></g><g id="XMLID_670_"><path id="XMLID_3483_" d="m223 177h10v24h-10z" fill="#4d2162"/></g><g id="XMLID_669_"><path id="XMLID_3482_" d="m231 118h24v10h-24z" fill="#4d2162" transform="matrix(.707 .707 -.707 .707 158.147 -135.801)"/></g><g id="XMLID_646_"><path id="XMLID_2985_" d="m432.1 306c-15.9 0-28.9-13-28.9-28.9v-27.2c0-10.4-8.5-18.9-18.9-18.9h-47.8c-10.4 0-18.9 8.5-18.9 18.9v2.2c0 15.9-13 28.9-28.9 28.9s-28.9-13-28.9-28.9v-2.2c0-10.4-8.5-18.9-18.9-18.9h-160.8c-6.2 0-11.5-3.5-13.9-9.3-2.4-5.7-1.1-12 3.3-16.3l7.1 7.1c-2.2 2.2-1.4 4.7-1.1 5.4s1.5 3.1 4.6 3.1h160.7c15.9 0 28.9 13 28.9 28.9v2.2c0 10.4 8.5 18.9 18.9 18.9s18.9-8.5 18.9-18.9v-2.2c0-15.9 13-28.9 28.9-28.9h47.8c15.9 0 28.9 13 28.9 28.9v27.2c0 10.4 8.5 18.9 18.9 18.9s18.9-8.5 18.9-18.9v-51.1h10v51.1c.1 15.9-12.9 28.9-28.8 28.9z" fill="#4d2162"/></g><g id="XMLID_1721_"><path id="XMLID_2982_" d="m56 346h375v10h-375z" fill="#4d2162"/></g><g id="XMLID_649_"><path id="XMLID_2920_" d="m56 296h375v10h-375z" fill="#4d2162"/></g><g id="XMLID_2319_"><path id="XMLID_2560_" d="m256 512c-67.8 0-131.5-12.3-179.6-34.7-49.3-23-76.4-54-76.4-87.3 0-21.2 11.3-42 32.8-60.2l6.5 7.6c-19.2 16.2-29.3 34.4-29.3 52.6 0 29.2 25.1 57 70.6 78.2 46.8 21.8 109.1 33.8 175.4 33.8s128.6-12 175.4-33.8c45.5-21.2 70.6-49 70.6-78.2 0-24-16.8-46.9-48.6-66.4l5.2-8.5c34.9 21.4 53.4 47.4 53.4 75 0 33.3-27.1 64.3-76.4 87.3-48.1 22.3-111.8 34.6-179.6 34.6z" fill="#4d2162"/></g><g id="XMLID_1720_"><path id="XMLID_2474_" d="m56 246h208.8v10h-208.8z" fill="#4d2162"/></g><g id="XMLID_594_"><path id="XMLID_2473_" d="m431 406h-375v-10h370v-95h10v100c0 2.8-2.2 5-5 5z" fill="#4d2162"/></g><g id="XMLID_597_"><path id="XMLID_2472_" d="m312.6 246h95.6v10h-95.6z" fill="#4d2162"/></g><g id="XMLID_1719_"><path id="XMLID_2380_" d="m436 431h-360c-13.8 0-25-11.2-25-25v-163.4c0-12 4.7-23.3 13.2-31.8l188.3-188.3c.9-.9 2.2-1.5 3.5-1.5 20.3 0 40.3 3 59.6 8.8l-2.9 9.6c-17.7-5.4-36-8.2-54.6-8.4l-186.8 186.8c-6.6 6.6-10.3 15.4-10.3 24.7v163.5c0 8.3 6.7 15 15 15h360c8.3 0 15-6.7 15-15v-180c0-46.5-16.6-91.5-46.9-126.8l7.6-6.5c31.8 37.1 49.3 84.4 49.3 133.3v180c0 13.8-11.2 25-25 25z" fill="#4d2162"/></g></g></g></svg>