<svg id="Layer_1" enable-background="new 0 0 512 512" height="512" viewBox="0 0 512 512" width="512" xmlns="http://www.w3.org/2000/svg"><g id="XMLID_1_"><g id="XMLID_5200_"><g fill="#3179af"><path id="XMLID_1317_" d="m417 115h50c5.5 0 10 4.5 10 10v90h-70v-90c0-5.5 4.5-10 10-10z"/><path id="XMLID_1311_" d="m145 115h-50c-5.5 0-10 4.5-10 10v90h70v-90c0-5.5-4.5-10-10-10z"/><path id="XMLID_1310_" d="m55 133.5h-20c-5.5 0-10 4.5-10 10v71.5h40v-71.5c0-5.5-4.5-10-10-10z"/></g><path id="XMLID_1535_" d="m487 437h-462c-11 0-20-9-20-20v-242c0-11 9-20 20-20h462c11 0 20 9 20 20v242c0 11-9 20-20 20z" fill="#9cd3fc"/><path id="XMLID_837_" d="m85 155h30v282h-30z" fill="#6abdfb"/><path id="XMLID_1534_" d="m5 215h502v182h-502z" fill="#d84861"/><path id="XMLID_758_" d="m85 215h30v182h-30z" fill="#c12944"/><path id="XMLID_1313_" d="m334.8 75h-107.6c-3.8 0-7.3 2.1-8.9 5.5l-22.3 44.5v50c0 5.5 4.5 10 10 10h150c5.5 0 10-4.5 10-10v-50l-22.2-44.5c-1.7-3.4-5.2-5.5-9-5.5z" fill="#d84861"/><path id="XMLID_1184_" d="m366 125h-170l22.2-44.5c1.7-3.4 5.2-5.5 8.9-5.5h107.6c3.8 0 7.3 2.1 8.9 5.5z" fill="#e17084"/><circle id="XMLID_1309_" cx="155" cy="185" fill="#3179af" r="15"/><circle id="XMLID_1308_" cx="162.5" cy="374.5" fill="#ffc970" r="22.5"/><circle id="XMLID_1316_" cx="281" cy="311" fill="#3179af" r="126"/><circle id="XMLID_1315_" cx="281" cy="311" fill="#265e87" r="96"/><circle id="XMLID_1314_" cx="281" cy="311" fill="#3179af" r="30"/><circle id="XMLID_2516_" cx="251" cy="281" fill="#4893cc" r="30"/></g><g id="XMLID_4850_"><g id="XMLID_615_"><path id="XMLID_3439_" d="m477 160h-70c-2.8 0-5-2.2-5-5v-30c0-8.3 6.7-15 15-15h50c8.3 0 15 6.7 15 15v30c0 2.8-2.2 5-5 5zm-65-10h60v-25c0-2.8-2.2-5-5-5h-50c-2.8 0-5 2.2-5 5z" fill="#4d2162"/></g><g id="XMLID_616_"><path id="XMLID_3436_" d="m281 442c-72.2 0-131-58.8-131-131s58.8-131 131-131 131 58.8 131 131-58.8 131-131 131zm0-252c-66.7 0-121 54.3-121 121s54.3 121 121 121 121-54.3 121-121-54.3-121-121-121z" fill="#4d2162"/></g><g id="XMLID_633_"><path id="XMLID_3432_" d="m281 412c-55.7 0-101-45.3-101-101s45.3-101 101-101 101 45.3 101 101-45.3 101-101 101zm0-192c-50.2 0-91 40.8-91 91s40.8 91 91 91 91-40.8 91-91-40.8-91-91-91z" fill="#4d2162"/></g><g id="XMLID_636_"><path id="XMLID_3429_" d="m281 346c-19.3 0-35-15.7-35-35s15.7-35 35-35 35 15.7 35 35-15.7 35-35 35zm0-60c-13.8 0-25 11.2-25 25s11.2 25 25 25 25-11.2 25-25-11.2-25-25-25z" fill="#4d2162"/></g><g id="XMLID_621_"><path id="XMLID_3418_" d="m356 190h-150c-8.3 0-15-6.7-15-15v-50c0-.8.2-1.5.5-2.2l22.2-44.5c2.6-5.1 7.7-8.3 13.4-8.3h107.6c5.7 0 10.9 3.2 13.4 8.3l22.2 44.5c.3.7.5 1.5.5 2.2v50c.2 8.3-6.5 15-14.8 15zm-155-63.8v48.8c0 2.8 2.2 5 5 5h150c2.8 0 5-2.2 5-5v-48.8l-21.7-43.4c-.9-1.7-2.6-2.8-4.5-2.8h-107.6c-1.9 0-3.6 1.1-4.5 2.8z" fill="#4d2162"/></g><g id="XMLID_614_"><path id="XMLID_3410_" d="m196 120h170v10h-170z" fill="#4d2162"/></g><g id="XMLID_635_"><path id="XMLID_3406_" d="m155 160h-70c-2.8 0-5-2.2-5-5v-30c0-8.3 6.7-15 15-15h50c8.3 0 15 6.7 15 15v30c0 2.8-2.2 5-5 5zm-65-10h60v-25c0-2.8-2.2-5-5-5h-50c-2.8 0-5 2.2-5 5z" fill="#4d2162"/></g><g id="XMLID_617_"><path id="XMLID_3401_" d="m65 160h-40c-2.8 0-5-2.2-5-5v-11.5c0-8.3 6.7-15 15-15h20c8.3 0 15 6.7 15 15v11.5c0 2.8-2.2 5-5 5zm-35-10h30v-6.5c0-2.8-2.2-5-5-5h-20c-2.8 0-5 2.2-5 5z" fill="#4d2162"/></g><g id="XMLID_618_"><path id="XMLID_3397_" d="m155 205c-11 0-20-9-20-20s9-20 20-20 20 9 20 20-9 20-20 20zm0-30c-5.5 0-10 4.5-10 10s4.5 10 10 10 10-4.5 10-10-4.5-10-10-10z" fill="#4d2162"/></g><g id="XMLID_1139_"><path id="XMLID_3396_" d="m162.5 402c-15.2 0-27.5-12.3-27.5-27.5 0-15 11.7-27 26.7-27.5l.3 10c-9.5.3-17 8-17 17.5 0 9.6 7.9 17.5 17.5 17.5 5.7 0 11-2.8 14.3-7.4l8.2 5.8c-5.2 7.3-13.6 11.6-22.5 11.6z" fill="#4d2162"/></g><g id="XMLID_25_"><path id="XMLID_3395_" d="m80 185h10v212h-10z" fill="#4d2162"/></g><g id="XMLID_1734_"><path id="XMLID_2471_" d="m487 442h-462c-13.8 0-25-11.2-25-25v-242c0-13.8 11.2-25 25-25h151v10h-151c-8.3 0-15 6.7-15 15v242c0 8.3 6.7 15 15 15h462c8.3 0 15-6.7 15-15v-242c0-8.3-6.7-15-15-15h-121v-10h121c13.8 0 25 11.2 25 25v242c0 13.8-11.2 25-25 25z" fill="#4d2162"/></g><g id="XMLID_1138_"><path id="XMLID_2470_" d="m5 210h194.4v10h-194.4z" fill="#4d2162"/></g><g id="XMLID_609_"><path id="XMLID_2468_" d="m5 392h183.9v10h-183.9z" fill="#4d2162"/></g><g id="XMLID_607_"><path id="XMLID_2467_" d="m393.1 392h113.9v10h-113.9z" fill="#4d2162"/></g><g id="XMLID_26_"><path id="XMLID_2462_" d="m362.6 210h144.4v10h-144.4z" fill="#4d2162"/></g></g></g></svg>