<svg id="Layer_1" enable-background="new 0 0 512 512" height="512" viewBox="0 0 512 512" width="512" xmlns="http://www.w3.org/2000/svg"><g id="XMLID_1_"><g id="XMLID_5364_"><path id="XMLID_1627_" d="m407 143c-5.5 7.4-58.3 76-151 76s-145.5-68.6-151-76h-60v50h60c24.8 61.5 84.7 102 151 102s126.2-40.5 151-102h60v-50z" fill="#d84861"/><path id="XMLID_1599_" d="m125 228.8v-63.7c-11.5-10.8-18.2-19.7-20-22.1h-60v50h60c5.2 12.9 12 24.9 20 35.8z" fill="#c12944"/><path id="XMLID_1601_" d="m407 143c-1.8 2.4-8.5 11.2-20 22.1v63.7c8-10.9 14.8-22.9 20-35.8h60v-50z" fill="#c12944"/><path id="XMLID_1236_" d="m45 105h60v402h-60z" fill="#b23998"/><path id="XMLID_14_" d="m45 105h30v402h-30z" fill="#c955b0"/><path id="XMLID_1233_" d="m407 105h60v402h-60z" fill="#b23998"/><path id="XMLID_1731_" d="m407 105h30v402h-30z" fill="#c955b0"/><path id="XMLID_1976_" d="m45 105h60v62h-60z" fill="#8b2d77"/><path id="XMLID_1975_" d="m407 105h60v62h-60z" fill="#8b2d77"/><circle id="XMLID_1237_" cx="75" cy="55" fill="#ffc970" r="50"/><path id="XMLID_1790_" d="m110 41.9v.7c-1.3 25.4-22 46.1-47.4 47.3-.2 0-.4 0-.7 0-7.4.3-8.8 10.6-1.7 12.8 5.3 1.6 11 2.4 16.9 2.2 25.8-1.1 46.8-22.1 47.9-47.9.2-5.9-.5-11.6-2.2-16.9-2.2-7-12.6-5.6-12.8 1.8z" fill="#ffb233"/><circle id="XMLID_1729_" cx="60" cy="40" fill="#ffdca3" r="15"/><path id="XMLID_1235_" d="m131.7 507h-113.4c-7.3 0-13.3-6-13.3-13.3 0-4.2 2-8.1 5.3-10.7l34.7-26h60l34.7 26c3.4 2.5 5.3 6.5 5.3 10.7 0 7.3-6 13.3-13.3 13.3z" fill="#ffb233"/><path id="XMLID_1727_" d="m79.6 507h-61.3c-7.3 0-13.3-6-13.3-13.3 0-4.2 2-8.1 5.3-10.7l34.7-26h30l17.4 26.1c1.7 2.5 2.6 5.5 2.6 8.5 0 8.5-6.9 15.4-15.4 15.4z" fill="#ffc970"/><circle id="XMLID_1234_" cx="437" cy="55" fill="#ffc970" r="50"/><path id="XMLID_1232_" d="m493.7 507h-113.4c-7.4 0-13.3-6-13.3-13.3 0-4.2 2-8.1 5.3-10.7l34.7-26h60l34.7 26c3.4 2.5 5.3 6.5 5.3 10.7 0 7.3-6 13.3-13.3 13.3z" fill="#ffb233"/><path id="XMLID_1231_" d="m136.3 135.2-31.3 7.8h-60l-31.3-7.8c-5.1-1.3-8.7-5.9-8.7-11.2 0-5.3 3.6-9.9 8.7-11.2l31.3-7.8h60l31.3 7.8c5.1 1.3 8.7 5.9 8.7 11.2 0 5.3-3.6 9.9-8.7 11.2z" fill="#ffb233"/><path id="XMLID_1684_" d="m91.6 136.3-16.6 6.7h-30l-31.3-7.8c-5.1-1.3-8.7-5.9-8.7-11.2 0-5.3 3.6-9.9 8.7-11.2l31.3-7.8h30l16.6 6.7c5 2 8.4 6.9 8.4 12.3 0 5.4-3.3 10.3-8.4 12.3z" fill="#ffc970"/><path id="XMLID_1230_" d="m498.3 135.2-31.3 7.8h-60l-31.3-7.8c-5.1-1.3-8.7-5.9-8.7-11.2 0-5.3 3.6-9.9 8.7-11.2l31.3-7.8h60l31.3 7.8c5.1 1.3 8.7 5.9 8.7 11.2 0 5.3-3.6 9.9-8.7 11.2z" fill="#ffb233"/><g id="XMLID_1228_"><path id="XMLID_1949_" d="m45 188h60v10h-60z" fill="#d84861"/></g><g id="XMLID_1227_"><path id="XMLID_1948_" d="m407 188h60v10h-60z" fill="#d84861"/></g><path id="XMLID_1728_" d="m453.6 136.3-16.6 6.7h-30l-31.3-7.8c-5.1-1.3-8.7-5.9-8.7-11.2 0-5.3 3.6-9.9 8.7-11.2l31.3-7.8h30l16.6 6.7c5 2 8.4 6.9 8.4 12.3 0 5.4-3.3 10.3-8.4 12.3z" fill="#ffc970"/><path id="XMLID_1730_" d="m441.6 507h-61.3c-7.4 0-13.3-6-13.3-13.3 0-4.2 2-8.1 5.3-10.7l34.7-26h30l17.4 26.1c1.7 2.5 2.6 5.5 2.6 8.5 0 8.5-6.9 15.4-15.4 15.4z" fill="#ffc970"/><path id="XMLID_1789_" d="m472 41.9v.7c-1.3 25.4-22 46.1-47.4 47.3-.2 0-.4 0-.7 0-7.4.3-8.8 10.6-1.7 12.8 5.3 1.6 11 2.4 16.9 2.2 25.8-1.1 46.8-22.1 47.9-47.9.2-5.9-.5-11.6-2.2-16.9-2.2-7-12.6-5.6-12.8 1.8z" fill="#ffb233"/><circle id="XMLID_1788_" cx="422" cy="40" fill="#ffdca3" r="15"/></g><g id="XMLID_4962_"><g id="XMLID_657_"><path id="XMLID_2652_" d="m75 110c-30.3 0-55-24.7-55-55s24.7-55 55-55 55 24.7 55 55-24.7 55-55 55zm0-100c-24.8 0-45 20.2-45 45s20.2 45 45 45 45-20.2 45-45-20.2-45-45-45z" fill="#4d2162"/></g><g id="XMLID_768_"><path id="XMLID_2651_" d="m110 457h-10v-309h-50v289h-10v-294c0-2.8 2.2-5 5-5h60c2.8 0 5 2.2 5 5z" fill="#4d2162"/></g><g id="XMLID_763_"><path id="XMLID_2648_" d="m131.7 512h-113.4c-10.1 0-18.3-8.2-18.3-18.3 0-5.7 2.7-11.2 7.3-14.7l34.7-26c.9-.6 1.9-1 3-1h60c1.1 0 2.1.4 3 1l34.7 26c4.6 3.4 7.3 8.9 7.3 14.7 0 10.1-8.2 18.3-18.3 18.3zm-85-50-33.3 25c-2.1 1.6-3.3 4.1-3.3 6.7 0 4.6 3.7 8.3 8.3 8.3h113.3c4.6 0 8.3-3.7 8.3-8.3 0-2.6-1.2-5.1-3.3-6.7l-33.3-25z" fill="#4d2162"/></g><g id="XMLID_769_"><path id="XMLID_2645_" d="m437 110c-30.3 0-55-24.7-55-55s24.7-55 55-55 55 24.7 55 55-24.7 55-55 55zm0-100c-24.8 0-45 20.2-45 45s20.2 45 45 45 45-20.2 45-45-20.2-45-45-45z" fill="#4d2162"/></g><g id="XMLID_767_"><path id="XMLID_2634_" d="m467 462h-60c-2.8 0-5-2.2-5-5v-314c0-2.8 2.2-5 5-5h60c2.8 0 5 2.2 5 5v314c0 2.8-2.2 5-5 5zm-55-10h50v-304h-50z" fill="#4d2162"/></g><g id="XMLID_766_"><path id="XMLID_2631_" d="m493.7 512h-113.4c-10.1 0-18.3-8.2-18.3-18.3 0-5.7 2.7-11.2 7.3-14.7l34.7-26c.9-.6 1.9-1 3-1h60c1.1 0 2.1.4 3 1l34.7 26c4.6 3.4 7.3 8.9 7.3 14.7 0 10.1-8.2 18.3-18.3 18.3zm-85-50-33.3 25c-2.1 1.6-3.3 4.1-3.3 6.7 0 4.6 3.7 8.3 8.3 8.3h113.3c4.6 0 8.3-3.7 8.3-8.3 0-2.6-1.2-5.1-3.3-6.7l-33.3-25z" fill="#4d2162"/></g><g id="XMLID_765_"><path id="XMLID_2628_" d="m105 148h-60c-.4 0-.8 0-1.2-.1l-31.3-7.9c-7.4-1.8-12.5-8.4-12.5-16s5.1-14.2 12.5-16l31.3-7.8c.4-.1.8-.1 1.2-.1h60c.4 0 .8 0 1.2.1l31.3 7.8c7.4 1.8 12.5 8.4 12.5 16s-5.1 14.2-12.5 16l-31.3 7.8c-.4.2-.8.2-1.2.2zm-59.4-10h58.8l30.7-7.7c2.9-.7 4.9-3.3 4.9-6.3s-2-5.6-4.9-6.3l-30.7-7.7h-58.8l-30.7 7.7c-2.9.7-4.9 3.3-4.9 6.3s2 5.6 4.9 6.3z" fill="#4d2162"/></g><g id="XMLID_795_"><path id="XMLID_2625_" d="m467 148h-60c-.4 0-.8 0-1.2-.1l-31.3-7.8c-7.4-1.8-12.5-8.4-12.5-16s5.1-14.2 12.5-16l31.3-7.8c.4-.1.8-.1 1.2-.1h60c.4 0 .8 0 1.2.1l31.3 7.8c7.4 1.8 12.5 8.4 12.5 16s-5.1 14.2-12.5 16l-31.3 7.8c-.4.1-.8.1-1.2.1zm-59.4-10h58.8l30.7-7.7c2.9-.7 4.9-3.3 4.9-6.3s-2-5.6-4.9-6.3l-30.7-7.7h-58.8l-30.7 7.7c-2.9.7-4.9 3.3-4.9 6.3s2 5.6 4.9 6.3z" fill="#4d2162"/></g><g id="XMLID_2055_"><path id="XMLID_2624_" d="m256 300c-33.5 0-66-10-93.9-28.8s-49.2-45.2-61.8-76.3c-.2-.6-.4-1.2-.4-1.9v-50c0-2.2 1.4-4.1 3.4-4.7 2-.7 4.3 0 5.6 1.8 5.6 7.6 57.5 74 147 74 59.5 0 102.2-28.6 127.6-52.6l6.9 7.3c-26.7 25.1-71.6 55.2-134.4 55.2-39.9 0-77.3-12.2-111.1-36.2-15.7-11.1-27.4-22.6-34.9-31v35.2c24.4 59.6 81.6 98 146 98 64.7 0 122.2-38.8 146.4-98.9l9.3 3.7c-12.5 31.1-33.9 57.5-61.8 76.3-27.9 18.9-60.4 28.9-93.9 28.9z" fill="#4d2162"/></g><g id="XMLID_796_"><path id="XMLID_2623_" d="m45 188h60v10h-60z" fill="#4d2162"/></g><g id="XMLID_797_"><path id="XMLID_2622_" d="m407 188h60v10h-60z" fill="#4d2162"/></g></g></g></svg>