<svg height="512pt" viewBox="1 0 511 512" width="512pt" xmlns="http://www.w3.org/2000/svg"><path d="m13.414062 499.082031c-7.234374-7.238281-7.234374-18.972656 0-26.207031l328.210938-328.210938 26.210938 26.210938-328.210938 328.207031c-7.238281 7.238281-18.972656 7.238281-26.210938 0zm0 0" fill="#ffde55"/><path d="m145.042969 341.246094c3.949219 4.695312 8.117187 9.261718 12.53125 13.679687 4.414062 4.414063 8.984375 8.582031 13.679687 12.53125l196.582032-196.582031-26.210938-26.210938zm0 0" fill="#ffcd00"/><path d="m341.625 144.664062-328.210938 328.210938c-7.234374 7.234375-7.234374 18.96875 0 26.207031l341.316407-341.3125zm0 0" fill="#ffcd00"/><path d="m447.632812 64.863281c-76.476562-76.480469-200.476562-76.480469-276.953124 0-76.480469 76.476563-76.480469 200.476563 0 276.957031 76.476562 76.476563 200.476562 76.476563 276.953124 0 76.480469-76.480468 76.480469-200.480468 0-276.957031zm0 0" fill="#d7f3ff"/><path d="m377.164062 135.332031c-37.558593-37.5625-98.457031-37.5625-136.015624 0-37.5625 37.558594-37.5625 98.457031 0 136.015625 37.558593 37.5625 98.457031 37.5625 136.015624 0 37.5625-37.558594 37.5625-98.457031 0-136.015625zm0 0" fill="#bdebff"/><path d="m205.628906 99.808594c70.558594-70.5625 181.566406-76.019532 258.390625-16.378906-5.003906-6.445313-10.460937-12.648438-16.378906-18.566407-76.480469-76.480469-200.480469-76.480469-276.960937 0-76.480469 76.476563-76.480469 200.476563 0 276.957031 5.917968 5.917969 12.125 11.378907 18.566406 16.378907-59.636719-76.820313-54.179688-187.832031 16.382812-258.390625zm0 0" fill="#bdebff"/><path d="m307.886719 202.582031c-69.925781 14.320313-152.46875-17.195312-177.980469-78.238281 9.496094-21.582031 23.089844-41.804688 40.769531-59.484375 6.136719-6.132813 12.582031-11.777344 19.28125-16.929687.898438 5.695312 2.15625 12.542968 3.859375 20.144531 13.503906 60.882812 56.605469 112.957031 114.070313 134.507812zm0 0" fill="#b25f6f"/><path d="m231.503906 146.574219c-10.820312 14.761719-16.875 31.914062-18.214844 49.363281 29.949219 10.3125 63.515626 13.007812 94.59375 6.644531-30.148437-11.304687-56.335937-31.027343-76.378906-56.007812zm0 0" fill="#854753"/><path d="m308.785156 203.484375c-46.292968-54.714844-61.035156-142.578125-21.261718-194.789063 32.582031-3.609374 65.902343.957032 96.628906 13.6875-4.480469 3.628907-9.78125 8.132813-15.507813 13.410157-46.390625 41.078125-68.84375 106.632812-59.859375 167.691406zm0 0" fill="#b25f6f"/><path d="m267.707031 116.542969c6.050781 31.503906 20.417969 62.523437 41.078125 86.941406-4.71875-32.074219-.75-65.386719 10.789063-95.742187-17.585938-1.902344-35.589844 1.027343-51.867188 8.800781zm0 0" fill="#854753"/><path d="m503.335938 177.8125c-5.359376-2.066406-11.886719-4.394531-19.269532-6.703125-58.085937-17.761719-125.703125-7.300781-174.109375 31.433594-.042969.023437-.089843.058593-.132812.097656-.339844.277344-.691407.558594-1.039063.84375 23.691406-67.710937 92.046875-125.828125 158.476563-115.757813 19.875 27.105469 31.902343 58.179688 36.074219 90.085938zm0 0" fill="#b25f6f"/><path d="m377.167969 135.332031c-4.386719-4.390625-9.105469-8.246093-14.054688-11.609375-24.25 21.195313-43.75 49.519532-54.332031 79.761719.351562-.285156.699219-.566406 1.042969-.84375.039062-.039063.089843-.074219.132812-.097656 25.261719-20.21875 55.765625-32.714844 87.410157-37.535157-4.675782-10.769531-11.390626-20.871093-20.199219-29.675781zm0 0" fill="#854753"/><path d="m447.640625 341.820312c-6.136719 6.136719-12.578125 11.78125-19.28125 16.933594-.898437-5.675781-2.136719-12.496094-3.835937-20.054687-12.46875-60.648438-57.304688-112.675781-114.699219-136.058594-.050781-.015625-.089844-.039063-.140625-.058594.089844-.007812.183594-.03125.273437-.039062 70.40625-10.921875 151.941407 18.1875 178.804688 79.011719-9.523438 21.875-23.226563 42.371093-41.121094 60.265624zm0 0" fill="#b25f6f"/><path d="m386.820312 260.097656c10.742188-14.660156 16.789063-31.675781 18.183594-48.996094-30-10.328124-63.628906-13.433593-95.046875-8.558593-.089843.007812-.183593.03125-.273437.042969.050781.015624.089844.039062.140625.058593 30.066406 12.246094 56.671875 32.363281 76.996093 57.453125zm0 0" fill="#854753"/><path d="m331.800781 397.878906c-32.914062 3.808594-66.59375-.71875-97.652343-13.578125 4.480468-3.628906 9.789062-8.140625 15.527343-13.425781 46.539063-41.699219 69.878907-106.34375 59.109375-167.390625 47.03125 53.738281 61.054688 142.050781 23.015625 194.394531zm0 0" fill="#b25f6f"/><path d="m350.410156 290.234375c-6.101562-31.625-20.542968-62.660156-41.625-86.75 5.667969 32.125 1.878906 65.238281-9.753906 95.488281 17.421875 1.832032 35.242188-1.078125 51.378906-8.738281zm0 0" fill="#854753"/><path d="m151.390625 319.421875c-20.078125-27.21875-32.214844-58.46875-36.410156-90.550781 5.378906 2.0625 11.929687 4.402344 19.363281 6.726562 59.515625 18.164063 126.851562 8.28125 174.441406-32.113281-23.535156 67.214844-92.683594 125.027344-157.394531 115.9375zm0 0" fill="#b25f6f"/><g fill="#854753"><path d="m221.207031 242.265625c4.664063 10.546875 11.296875 20.4375 19.941407 29.085937 4.226562 4.222657 8.757812 7.945313 13.507812 11.222657 24.136719-21.121094 43.652344-49.171875 54.125-79.089844-25.054688 21.269531-55.589844 34.070313-87.574219 38.78125zm0 0"/><path d="m148.277344 239.285156c-4.679688-1.066406-9.332032-2.285156-13.9375-3.6875-7.429688-2.320312-13.980469-4.660156-19.359375-6.726562 4.195312 32.082031 16.332031 63.332031 36.410156 90.550781 4.929687.691406 9.886719.992187 14.847656.933594-11.835937-25.660157-17.816406-53.351563-17.960937-81.070313zm0 0"/><path d="m204.371094 101.09375c-4.480469-10.605469-8.03125-21.660156-10.554688-33.019531-1.703125-7.601563-2.960937-14.449219-3.859375-20.144531-6.703125 5.152343-13.144531 10.796874-19.28125 16.929687-17.679687 17.679687-31.273437 37.902344-40.769531 59.484375 6.886719 16.476562 17.933594 30.796875 31.761719 42.652344 9.34375-23.949219 23.578125-46.425782 42.703125-65.902344zm0 0"/><path d="m360.839844 43.171875c2.523437-2.535156 5.117187-5.003906 7.804687-7.378906 5.726563-5.277344 11.027344-9.78125 15.507813-13.410157-30.726563-12.730468-64.046875-17.296874-96.628906-13.6875-10.925782 14.347657-17.730469 31.382813-20.90625 49.683594 29.890624-12.859375 62.324218-17.925781 94.222656-15.207031zm0 0"/></g><path d="m198.371094 407.113281c-17.683594-17.683593-66.738282-26.25-66.738282-26.25s-8.5625-49.050781-26.246093-66.734375c-17.683594-17.683594-94.90625 59.542969-77.222657 77.226563 17.683594 17.683593 66.734376 26.246093 66.734376 26.246093s8.5625 49.050782 26.246093 66.734376c17.683594 17.683593 94.90625-59.539063 77.226563-77.222657zm0 0" fill="#f46262"/><path d="m105.386719 314.128906c-17.683594-17.683594-94.90625 59.542969-77.222657 77.226563 17.683594 17.683593 66.734376 26.246093 66.734376 26.246093l36.734374-36.738281s-8.5625-49.050781-26.246093-66.734375zm0 0" fill="#d65b5b"/><path d="m83.085938 429.414062c-12.367188-12.367187-12.367188-32.417968 0-44.785156l15.574218-15.578125c12.367188-12.367187 32.417969-12.367187 44.785156 0 12.367188 12.371094 12.367188 32.421875 0 44.789063l-15.574218 15.574218c-12.367188 12.367188-32.417969 12.367188-44.785156 0zm0 0" fill="#ff737d"/><path d="m97.226562 398.769531 15.578126-15.574219c9.894531-9.894531 24.707031-11.867187 36.570312-5.925781-1.484375-2.960937-3.453125-5.746093-5.925781-8.21875-12.367188-12.367187-32.421875-12.367187-44.789063 0l-15.574218 15.578125c-12.367188 12.367188-12.367188 32.417969 0 44.785156 2.472656 2.472657 5.253906 4.441407 8.21875 5.925782-5.941407-11.863282-3.972657-26.675782 5.921874-36.570313zm0 0" fill="#f46262"/><path d="m452.941406 347.125c38.40625-38.40625 59.558594-89.472656 59.558594-143.785156s-21.152344-105.375-59.558594-143.78125c-38.402344-38.40625-89.46875-59.558594-143.78125-59.558594-45.328125 0-88.386718 14.742188-123.71875 41.941406-.027344.019532-.054687.042969-.082031.0625-6.972656 5.375-13.652344 11.222656-19.984375 17.554688-38.402344 38.40625-59.554688 89.46875-59.554688 143.78125 0 45.539062 14.875 88.785156 42.3125 124.207031l-17.878906 17.878906c-5.660156-16.96875-12.21875-29.25-19.5625-36.597656-13.6875-13.6875-41.253906 4.121094-62.484375 25.351563-21.230469 21.230468-39.035156 48.792968-25.347656 62.480468 7.347656 7.34375 19.632813 13.90625 36.597656 19.566406l-51.34375 51.34375c-10.152343 10.148438-10.152343 26.667969 0 36.816407 5.074219 5.078125 11.742188 7.613281 18.40625 7.613281 6.667969 0 13.335938-2.539062 18.410157-7.613281l51.347656-51.347657c5.660156 16.96875 12.21875 29.253907 19.5625 36.601563 3.339844 3.335937 7.5 4.800781 12.195312 4.800781 14.558594 0 34.230469-14.097656 50.285156-30.152344 21.230469-21.230468 39.039063-48.792968 25.351563-62.480468-7.347656-7.347656-19.632813-13.90625-36.597656-19.566406l17.875-17.875c35.425781 27.4375 78.671875 42.3125 124.210937 42.3125 45.332032 0 88.390625-14.746094 123.726563-41.945313.019531-.019531.042969-.035156.0625-.050781 6.980469-5.375 13.660156-11.226563 19.992187-17.558594zm-93.308594-46.894531c-3.617187-27.574219-13.527343-54.964844-28.035156-78.367188 43.644532 26.011719 75.519532 69.421875 85.578125 118.347657.011719.046874.019531.089843.03125.132812 1.125 5.007812 2.128907 10.085938 3.007813 15.148438-21.957032 16.097656-46.960938 27.125-73.554688 32.472656 12.652344-24.535156 17.253906-55.046875 12.972656-87.734375zm-115.042968 65.128906c-3.828125 3.527344-7.761719 6.972656-11.726563 10.285156-20.941406-9.28125-40.199219-22.445312-56.878906-39.128906-2.824219-2.824219-5.535156-5.726563-8.152344-8.695313 27.402344-.714843 56.039063-11.6875 82.261719-31.800781 21.882812-16.785156 40.632812-38.988281 53.816406-63.253906.285156 49.453125-21.140625 98.386719-59.242187 132.519531-.027344.027344-.050781.050782-.078125.074219zm13.851562-259.261719c3.429688 26.949219 12.984375 54.015625 27.039063 77.53125-41.949219-24.519531-73.300781-67.394531-84.34375-117.199218-1.148438-5.113282-2.164063-10.21875-3.035157-15.238282 22.132813-16.226562 47.359376-27.308594 74.1875-32.601562-13.109374 24.359375-18.015624 54.78125-13.847656 87.507812zm204.644532-11.363281c15.257812 21.527344 25.71875 45.871094 30.820312 71.703125-2.527344-.855469-5.078125-1.695312-7.648438-2.5-54.011718-16.519531-113.125-9.394531-159.898437 18.210938 27.070313-50.757813 80.984375-94.03125 136.726563-87.414063zm24.59375 168.898437c-6.949219-11.023437-15.855469-21.097656-26.621094-30.078124-3.183594-2.652344-7.910156-2.226563-10.5625.957031-2.652344 3.179687-2.226563 7.910156.957031 10.5625 12.746094 10.628906 22.519531 22.921875 29.089844 36.574219-9.222657 20.160156-22.0625 38.722656-38.207031 54.867187-2.875 2.875-5.835938 5.636719-8.859376 8.300781-.515624-2.574218-1.046874-5.144531-1.621093-7.695312-11.070313-53.726563-46.34375-101.296875-94.53125-129.296875 32.230469-.335938 65.128906 7.390625 91.722656 22.042969 3.632813 2 8.191406.679687 10.1875-2.949219 2-3.625.679687-8.1875-2.945313-10.1875-29.027343-15.992188-63.65625-24.304688-98.253906-23.972657 42.519532-23.582031 95.363282-29.300781 143.792969-14.488281 4.941406 1.542969 9.835937 3.207031 14.605469 4.960938.699218 6.636719 1.066406 13.34375 1.066406 20.109375 0 20.820312-3.367188 41.121094-9.820312 60.292968zm-36.960938-184.515624c-27.953125.359374-56.949219 11.175781-83.285156 31.367187-21.382813 16.386719-39.824219 38.175781-53.007813 62.15625 1.171875-49.796875 22.859375-99.0625 59.1875-131.234375.039063-.03125.074219-.066406.113281-.097656 3.816407-3.523438 7.75-6.964844 11.71875-10.277344 20.945313 9.28125 40.207032 22.449219 56.890626 39.132812 2.90625 2.90625 5.691406 5.898438 8.382812 8.953126zm-81.128906-54.25c-2.011719 1.765624-4.007813 3.550781-5.976563 5.359374-23.519531 20.847657-41.757812 48.3125-52.738281 79.421876-7.777344 22.050781-11.671875 45.1875-11.539062 68.097656-32.824219-52.894532-36.933594-120.609375-7.695313-161.9375 5.789063-.53125 11.632813-.808594 17.519531-.808594 20.871094 0 41.21875 3.382812 60.429688 9.867188zm-193.605469 45.296874c2.875-2.875 5.835937-5.636718 8.859375-8.300781.523438 2.605469 1.066406 5.21875 1.652344 7.832031 12.222656 55.105469 47.511718 102.425782 94.617187 128.714844-61.273437 3.003906-121.53125-27.160156-143.019531-74.074218 9.203125-19.890626 21.929688-38.214844 37.890625-54.171876zm-45.160156 72.355469c14.566406 23.8125 38.34375 43.410157 68.507812 56.117188 23.203125 9.773437 49.035157 14.824219 74.335938 14.824219 2.804687 0 5.597656-.070313 8.382812-.195313-25.378906 14.917969-55.367187 23.160156-86.785156 23.558594-4.144531.050781-7.457031 3.453125-7.40625 7.59375s3.492187 7.453125 7.59375 7.402343c34.496094-.433593 67.480469-9.632812 95.339844-26.289062-12.175781 22.460938-29.546875 43.027344-49.828125 58.585938-27.609375 21.175781-57.808594 31.132812-85.421875 28.253906-15.421875-21.632813-25.992188-46.128906-31.128907-72.132813 2.5625.871094 5.140626 1.722657 7.738282 2.535157 11.15625 3.402343 22.695312 5.882812 34.292968 7.375.324219.039062.648438.058593.964844.058593 3.71875 0 6.945313-2.761719 7.429688-6.542969.527344-4.109374-2.375-7.867187-6.480469-8.394531-10.765625-1.382812-21.472656-3.6875-31.777344-6.832031-4.957031-1.546875-9.878906-3.21875-14.695312-4.988281-.699219-6.632813-1.0625-13.34375-1.0625-20.109375-.003907-21.011719 3.425781-41.492188 10-60.820313zm7.320312 266.015625-15.574219 15.574219c-4.566406 4.566406-10.636718 7.082031-17.089843 7.082031-6.457031 0-12.527344-2.515625-17.089844-7.082031-9.425781-9.421875-9.425781-24.753906 0-34.179687l15.574219-15.574219c4.5625-4.566407 10.632812-7.078125 17.089844-7.078125 6.453124 0 12.523437 2.511718 17.089843 7.078125 9.421875 9.421875 9.421875 24.757812 0 34.179687zm-101.242187-35.667968c4.460937-8.382813 12.449218-18.617188 21.914062-28.082032s19.699219-17.453125 28.082032-21.914062c8.195312-4.363282 12.421874-4.199219 13.183593-3.4375 5.859375 5.859375 11.671875 17.4375 16.695313 33.082031-8.84375.953125-17.039063 4.855469-23.421875 11.234375l-15.574219 15.574219c-6.550781 6.550781-10.28125 14.863281-11.214844 23.429687-15.648437-5.027344-27.238281-10.839844-33.097656-16.703125-.761719-.761719-.925781-4.988281 3.433594-13.183593zm-2.578125 120.914062c-4.300781 4.300781-11.304688 4.300781-15.605469 0-4.300781-4.304688-4.300781-11.304688 0-15.605469l52.386719-52.386719c1.75 3.203126 3.96875 6.21875 6.675781 8.925782 2.679688 2.679687 5.683594 4.917968 8.917969 6.691406zm133.390625-40.097656c-21.976563 21.972656-38.890625 27.730468-41.265625 25.347656-5.859375-5.855469-11.667969-17.4375-16.695313-33.078125 8.84375-.953125 17.039063-4.855469 23.421875-11.234375l15.574219-15.578125c6.550781-6.550781 10.285156-14.863281 11.214844-23.425781 15.648437 5.023437 27.238281 10.835937 33.097656 16.699218 2.382812 2.382813-3.371094 19.292969-25.347656 41.269532zm-12.289063-81.007813c-1.746093-3.207031-3.964843-6.21875-6.675781-8.929687-2.679688-2.675782-5.683594-4.914063-8.917969-6.6875l17.953125-17.953125c2.453125 2.726562 4.976563 5.402343 7.589844 8.015625 2.613281 2.613281 5.289062 5.136718 8.015625 7.589844zm93.289063 9.132813c2.019531-1.773438 4.027344-3.566406 6.003906-5.386719 23.835938-21.363281 42.1875-48.847656 53.070312-79.476563 7.773438-21.882812 11.496094-44.710937 11.050782-67.226562 13.410156 21.597656 22.574218 46.929688 25.917968 72.460938 4.484376 34.230468-1.605468 65.539062-17.160156 88.613281-6.089844.585937-12.242187.886719-18.4375.886719-20.875 0-41.226562-3.382813-60.445312-9.871094zm0 0"/></svg>