<svg height="511pt" viewBox="0 -3 511.99952 511" width="511pt" xmlns="http://www.w3.org/2000/svg"><path d="m274.5625 67.582031-248.394531 66.558594c-13.433594 3.601563-21.40625 17.40625-17.808594 30.839844l84.148437 314.042969c3.601563 13.433593 17.410157 21.40625 30.84375 17.804687l248.394532-66.554687c13.433594-3.601563 21.40625-17.410157 17.804687-30.84375l-84.144531-314.039063c-3.601562-13.4375-17.410156-21.40625-30.84375-17.808594zm0 0" fill="#eaeaea"/><path d="m131.421875 468.597656-84.144531-314.042968c-3.601563-13.433594 4.371094-27.242188 17.804687-30.84375l-38.914062 10.429687c-13.433594 3.597656-21.40625 17.40625-17.808594 30.839844l84.148437 314.042969c3.601563 13.433593 17.410157 21.40625 30.84375 17.804687l38.914063-10.425781c-13.433594 3.597656-27.242187-4.371094-30.84375-17.804688zm0 0" fill="#d8d7da"/><path d="m339.464844 368.160156-61.800782-230.648437c-15.476562 4.144531-31.378906-5.035157-35.527343-20.511719l-163.179688 43.726562c4.148438 15.472657-5.035156 31.375-20.507812 35.523438l61.800781 230.652344c15.472656-4.148438 31.378906 5.035156 35.523438 20.507812l163.183593-43.722656c-4.148437-15.476562 5.035157-31.378906 20.507813-35.527344zm0 0" fill="#f46262"/><path d="m155.773438 447.410156 10.898437-2.917968-76.816406-286.6875-10.898438 2.921874c4.148438 15.472657-5.035156 31.375-20.507812 35.523438l61.800781 230.652344c15.472656-4.148438 31.378906 5.035156 35.523438 20.507812zm0 0" fill="#d65b5b"/><path d="m485.820312 75.429688-248.394531-66.558594c-13.433593-3.597656-27.242187 4.375-30.84375 17.808594l-84.144531 314.039062c-3.601562 13.433594 4.371094 27.242188 17.804688 30.84375l248.394531 66.558594c13.4375 3.597656 27.242187-4.375 30.84375-17.808594l84.148437-314.042969c3.597656-13.433593-4.375-27.242187-17.808594-30.839843zm0 0" fill="#eaeaea"/><path d="m161.351562 351.148438 84.148438-314.042969c3.597656-13.433594 17.40625-21.40625 30.839844-17.808594l-38.914063-10.425781c-13.433593-3.597656-27.242187 4.375-30.84375 17.808594l-84.144531 314.039062c-3.601562 13.433594 4.371094 27.242188 17.804688 30.84375l38.917968 10.425781c-13.4375-3.597656-21.410156-17.40625-17.808594-30.839843zm0 0" fill="#d8d7da"/><g fill="#f46262"><path d="m219.496094 96.894531c.03125-.117187.164062-.398437.402344-.839843l29.917968-47.738282c.609375-.953125 1.636719-1.542968 3.085938-1.769531 1.449218-.222656 3-.113281 4.65625.332031 1.652344.441406 3.058594 1.160156 4.210937 2.144532 1.152344.992187 1.738281 2.109374 1.761719 3.355468l2.023438 56.296875c-.011719.472657-.027344.761719-.058594.871094-.324219 1.214844-1.347656 2.0625-3.074219 2.546875s-3.359375.515625-4.902344.105469c-2.042969-.546875-3.0625-1.589844-3.0625-3.128907l-.195312-11.839843-17.722657-4.75-6.03125 10.183593c-.816406 1.3125-2.375 1.660157-4.671874 1.042969-1.804688-.480469-3.402344-1.398437-4.792969-2.753906-1.394531-1.347656-1.910157-2.703125-1.546875-4.058594zm21.667968-12.214843 14.300782 3.832031-.390625-27.320313zm0 0"/><path d="m406.566406 350.097656c-.027344.117188-.164062.398438-.398437.839844l-29.917969 47.738281c-.613281.953125-1.640625 1.542969-3.089844 1.765625-1.449218.226563-3 .117188-4.65625-.328125-1.652344-.441406-3.054687-1.160156-4.210937-2.148437-1.152344-.988282-1.738281-2.105469-1.757813-3.351563l-2.023437-56.300781c.007812-.46875.027343-.761719.054687-.871094.324219-1.210937 1.351563-2.0625 3.074219-2.542968 1.726563-.484376 3.359375-.519532 4.902344-.105469 2.042969.546875 3.066406 1.589843 3.066406 3.125l.195313 11.84375 17.71875 4.746093 6.03125-10.179687c.820312-1.3125 2.375-1.660156 4.671874-1.046875 1.804688.484375 3.402344 1.402344 4.796876 2.753906 1.394531 1.351563 1.90625 2.707032 1.542968 4.0625zm-21.664062 12.214844-14.304688-3.832031.394532 27.316406zm0 0"/><path d="m386.539062 191.132812c-9.761718-16.90625-31.378906-22.699218-48.285156-12.9375l-15.480468 8.933594-8.933594-15.476562c-9.761719-16.90625-31.378906-22.699219-48.285156-12.9375-16.90625 9.761718-22.699219 31.378906-12.9375 48.285156l8.933593 15.476562 33.300781 57.679688c1.132813 1.960938 3.636719 2.628906 5.59375 1.5l57.679688-33.300781 15.476562-8.933594c16.90625-9.761719 22.699219-31.382813 12.9375-48.289063zm0 0"/></g><path d="m292.683594 230.820312-8.9375-15.476562c-9.757813-16.90625-3.964844-38.523438 12.9375-48.285156 3.28125-1.894532 6.738281-3.195313 10.253906-3.949219-11.074219-10.019531-27.757812-12.261719-41.382812-4.394531-16.910157 9.761718-22.703126 31.382812-12.941407 48.289062l8.9375 15.476563 33.300781 57.679687c1.128907 1.957032 3.632813 2.628906 5.59375 1.496094l16.1875-9.347656zm0 0" fill="#d65b5b"/><path d="m507.605469 83.410156c-4.363281-7.558594-11.410157-12.964844-19.84375-15.226562l-248.394531-66.558594c-8.433594-2.257812-17.242188-1.097656-24.800782 3.265625-7.5625 4.367187-12.96875 11.414063-15.226562 19.847656l-15.949219 59.507813-44.683594 11.972656c-4.003906 1.074219-6.375 5.1875-5.304687 9.1875.898437 3.351562 3.929687 5.5625 7.238281 5.5625.644531 0 1.296875-.085938 1.949219-.257812l36.320312-9.730469-7.277344 27.148437-94.617187 25.351563c-1.921875.515625-3.5625 1.773437-4.554687 3.496093-.996094 1.722657-1.265626 3.769532-.75 5.691407 1.488281 5.546875.726562 11.34375-2.148438 16.320312-2.871094 4.972657-7.507812 8.53125-13.058594 10.019531-1.921875.515626-3.558594 1.769532-4.554687 3.492188-.992188 1.726562-1.261719 3.773438-.746094 5.691406l61.804687 230.648438c.515626 1.921875 1.769532 3.5625 3.492188 4.554687 1.726562.996094 3.773438 1.265625 5.691406.75 11.449219-3.070312 23.269532 3.753907 26.339844 15.207031.898438 3.351563 3.925781 5.5625 7.238281 5.5625.644531 0 1.296875-.082031 1.945313-.257812l131.828125-35.324219 47.027343 12.601563-215.164062 57.652344c-9.414062 2.519531-19.132812-3.085938-21.652344-12.503907l-84.148437-314.039062c-2.523438-9.417969 3.085937-19.132813 12.503906-21.660157l87.765625-23.515624c4.003906-1.070313 6.375-5.183594 5.304688-9.1875-1.070313-4-5.183594-6.371094-9.1875-5.300782l-87.765626 23.515625c-17.40625 4.664063-27.773437 22.621094-23.109374 40.027344l84.148437 314.042969c3.90625 14.582031 17.144531 24.226562 31.574219 24.226562 2.792968 0 5.628906-.363281 8.453125-1.117187l240.257812-64.378907 21.144531 5.667969c2.824219.753907 5.660157 1.117188 8.453126 1.117188 14.429687-.003907 27.667968-9.644531 31.574218-24.230469l27.835938-103.875c1.070312-4-1.304688-8.113281-5.304688-9.183594-4-1.074218-8.113281 1.300782-9.1875 5.300782l-27.832031 103.878906c-2.523437 9.417968-12.238281 15.023437-21.65625 12.503906l-248.394531-66.558594c-9.417969-2.523437-15.027344-12.238281-12.503906-21.65625l67.132812-250.539062v-.003906l17.015625-63.496094c1.222656-4.5625 4.148437-8.375 8.238281-10.738282 4.089844-2.363281 8.855469-2.988281 13.417969-1.765624l248.394531 66.558593c4.5625 1.222657 8.375 4.148438 10.738282 8.238281 2.359374 4.089844 2.984374 8.855469 1.765624 13.417969l-48.898437 182.492188c-1.074219 4 1.300781 8.113281 5.300781 9.183593 4.003906 1.070313 8.117188-1.300781 9.1875-5.304687l48.898438-182.492187c2.261718-8.429688 1.101562-17.238282-3.265625-24.800782zm-392.414063 255.367188c-4.664062 17.40625 5.703125 35.363281 23.109375 40.027344l122.265625 32.761718-100.234375 26.859375c-6.519531-12.878906-20.199219-20.75-34.574219-19.964843l-58.320312-217.648438c6.285156-3.164062 11.519531-8.089844 15.117188-14.328125 3.601562-6.234375 5.25-13.230469 4.851562-20.257813l79.746094-21.367187zm0 0"/><path d="m355.894531 165.953125c-7.484375 0-14.878906 1.988281-21.390625 5.746094l-8.984375 5.1875-5.183593-8.980469c-7.632813-13.21875-21.863282-21.429688-37.140626-21.429688-7.484374 0-14.878906 1.988282-21.390624 5.746094-20.460938 11.8125-27.5 38.070313-15.6875 58.53125l42.238281 73.15625c2.0625 3.574219 5.910156 5.796875 10.042969 5.796875h.003906c2.027344 0 4.03125-.535156 5.789062-1.554687l73.15625-42.234375c20.460938-11.8125 27.496094-38.070313 15.683594-58.53125-7.628906-13.222657-21.863281-21.433594-37.136719-21.433594zm13.957031 66.972656-70.207031 40.53125-40.535156-70.203125c-7.675781-13.300781-3.101563-30.363281 10.195313-38.042968 4.234374-2.445313 9.035156-3.738282 13.890624-3.738282 9.9375 0 19.1875 5.339844 24.148438 13.929688l8.9375 15.476562c2.070312 3.589844 6.660156 4.820313 10.246094 2.746094l15.476562-8.933594c4.234375-2.445312 9.035156-3.738281 13.890625-3.738281 9.9375 0 19.1875 5.335937 24.148438 13.929687 7.679687 13.300782 3.105469 30.363282-10.191407 38.042969zm0 0"/></svg>