<svg height="512pt" viewBox="-5 0 512 512.00099" width="512pt" xmlns="http://www.w3.org/2000/svg"><path d="m282.441406 199.488281c-7.8125-6.808593-15.417968-14.027343-22.636718-21.464843-.949219-.96875-2.398438-1.179688-3.484376-.503907-9.523437 5.898438-14.003906 8.886719-21.90625 15.019531-1.621093 1.257813-4.550781-.492187-4.804687-2.917968-.898437-38.160156 18.414063-72.09375 17.515625-110.25-.253906-2.425782 2.230469-3.394532 4.261719-1.609375 7.8125 6.808593 15.417969 14.027343 22.636719 21.464843.949218.972657 2.398437 1.179688 3.488281.507813 9.519531-5.898437 14-8.890625 21.90625-15.023437 1.621093-1.257813 4.550781.496093 4.804687 2.921874.894532 38.15625-18.414062 72.089844-17.519531 110.25.253906 2.425782-2.226563 3.394532-4.261719 1.605469zm0 0" fill="#7ec66a"/><path d="m40.769531 500.996094-29.765625-29.765625c-3.632812-3.632813-4.445312-9.21875-2.003906-13.738281l179.242188-331.289063 197.554687 197.554687-331.289063 179.242188c-4.519531 2.445312-10.105468 1.628906-13.738281-2.003906zm0 0" fill="#b25f6f"/><path d="m44.957031 493.445312 179.238281-331.289062-35.953124-35.953125-179.242188 331.289063c-2.445312 4.519531-1.628906 10.105468 2.003906 13.738281l29.765625 29.765625c1.085938 1.085937 2.347657 1.914062 3.703125 2.484375-1.335937-3.175781-1.230468-6.867188.484375-10.035157zm0 0" fill="#854753"/><path d="m123.71875 465.554688 76.824219-41.566407-112.53125-112.53125-41.566407 76.824219zm0 0" fill="#eaeaea"/><path d="m88.011719 311.457031-41.566407 76.824219 35.953126 35.957031 41.566406-76.828125zm0 0" fill="#d8d7da"/><path d="m277.367188 382.425781 76.828124-41.566406-183.054687-183.054687-41.5625 76.828124zm0 0" fill="#eaeaea"/><path d="m171.140625 157.804688-41.5625 76.828124 35.953125 35.953126 41.566406-76.824219zm0 0" fill="#d8d7da"/><path d="m163.566406 171.804688 176.628906 176.628906 14-7.574219-183.054687-183.054687zm0 0" fill="#d8d7da"/><path d="m366.746094 353.410156-208.15625-208.15625c-6.378906-6.378906-6.378906-16.726562 0-23.109375l25.597656-25.59375c6.378906-6.382812 16.726562-6.382812 23.109375 0l208.15625 208.15625c6.378906 6.378907 6.378906 16.726563 0 23.109375l-25.597656 25.59375c-6.382813 6.382813-16.726563 6.382813-23.109375 0zm0 0" fill="#b25f6f"/><path d="m194.542969 158.097656 25.597656-25.59375c6.378906-6.382812 16.726563-6.382812 23.109375 0l-35.953125-35.953125c-6.382813-6.382812-16.730469-6.382812-23.109375 0l-25.597656 25.59375c-6.378906 6.382813-6.378906 16.730469 0 23.109375l35.953125 35.957032c-6.378907-6.382813-6.378907-16.730469 0-23.113282zm0 0" fill="#854753"/><path d="m393.234375 49.578125c0 14.039063-11.382813 25.421875-25.425781 25.421875-14.039063 0-25.421875-11.382812-25.421875-25.421875 0-14.042969 11.382812-25.425781 25.421875-25.425781 14.042968 0 25.425781 11.382812 25.425781 25.425781zm0 0" fill="#92d8ff"/><path d="m468.785156 419.792969c0 14.039062-11.382812 25.421875-25.421875 25.421875-14.042969 0-25.425781-11.382813-25.425781-25.421875 0-14.042969 11.382812-25.421875 25.425781-25.421875 14.039063 0 25.421875 11.378906 25.421875 25.421875zm0 0" fill="#7ec66a"/><path d="m116.300781 54.703125c0 14.042969-11.382812 25.425781-25.421875 25.425781-14.042968 0-25.425781-11.382812-25.425781-25.425781 0-14.039063 11.382813-25.421875 25.425781-25.421875 14.039063 0 25.421875 11.382812 25.421875 25.421875zm0 0" fill="#f46262"/><path d="m368.433594 216.644531c5.617187-8.707031 11.675781-17.269531 18-25.480469.824218-1.074218.824218-2.539062 0-3.519531-7.199219-8.582031-10.800782-12.585937-18-19.53125-1.476563-1.421875-.164063-4.574219 2.199218-5.171875 37.640626-6.351562 73.988282 7.898438 111.625 1.546875 2.363282-.597656 3.679688 1.71875 2.203126 3.988281-5.621094 8.707032-11.675782 17.269532-18.003907 25.476563-.824219 1.078125-.824219 2.542969 0 3.523437 7.199219 8.582032 10.800781 12.585938 18.003907 19.53125 1.476562 1.421876.160156 4.574219-2.203126 5.171876-37.636718 6.351562-73.984374-7.898438-111.625-1.546876-2.363281.597657-3.675781-1.722656-2.199218-3.988281zm0 0" fill="#f46262"/><path d="m420.84375 299.3125-81.90625-81.90625c-2.976562-2.976562-7.804688-2.976562-10.785156 0-2.976563 2.980469-2.976563 7.808594 0 10.789062l81.90625 81.902344c1.644531 1.648438 2.550781 3.835938 2.550781 6.164063s-.90625 4.515625-2.550781 6.160156l-25.597656 25.597656c-1.644532 1.644531-3.832032 2.550781-6.160157 2.550781s-4.515625-.90625-6.164062-2.550781l-12.589844-12.59375c-.015625-.015625-.027344-.027343-.042969-.042969l-182.890625-182.890624c-.011719-.011719-.019531-.019532-.03125-.03125l-12.597656-12.597657c-1.648437-1.648437-2.554687-3.835937-2.554687-6.164062s.90625-4.515625 2.554687-6.160157l25.59375-25.597656c1.644531-1.644531 3.835937-2.550781 6.160156-2.550781 2.328125 0 4.515625.90625 6.164063 2.550781l106.125 106.125c2.976562 2.976563 7.804687 2.976563 10.785156 0 2.976562-2.980468 2.976562-7.808594 0-10.785156l-22.6875-22.6875c1.625-9.953125 4.109375-19.699219 6.726562-29.953125 4.65625-18.21875 9.46875-37.058594 8.996094-57.1875-.007812-.207031-.019531-.410156-.042968-.617187-.421876-4.027344-3.152344-7.679688-6.953126-9.304688-3.488281-1.484375-7.269531-1.054688-10.109374 1.15625-6.6875 5.1875-10.859376 8.058594-17.925782 12.492188-6.59375-6.65625-13.445312-13.089844-20.394531-19.144532-3.390625-2.980468-7.996094-3.660156-11.734375-1.730468-3.445312 1.78125-5.449219 5.460937-5.183594 9.457031.253906 11.761719-1.570312 23.226562-3.988281 34.222656l-22.828125-22.828125c-9.34375-9.34375-24.550781-9.34375-33.894531 0l-25.597657 25.597656c-9.34375 9.34375-9.34375 24.550782 0 33.894532l8.53125 8.53125-38.886718 71.878906c-.011719.015625-.019532.03125-.023438.046875l-56.511718 104.445312c-2.003907 3.703125-.625 8.332031 3.078124 10.335938 1.15625.625 2.398438.917969 3.625.917969 2.707032 0 5.332032-1.445313 6.714844-3.996094l10.085938-18.644532 98.125 97.976563-62.691406 33.917969-69.378907-69.15625 9.722657-17.964844c2.003906-3.707031.625-8.332031-3.078126-10.339844-3.707031-2.003906-8.335937-.625-10.339843 3.078125l-12.460938 23.035157c-.011719.019531-.019531.035156-.03125.054687l-37.382812 69.097656c-4.019531 7.429688-2.652344 16.789063 3.316406 22.761719l29.765625 29.765625c3.679688 3.679687 8.648438 5.609375 13.652344 5.609375 3.121094 0 6.257812-.75 9.113281-2.292969l68.261719-36.933593c.8125-.269532 1.585937-.679688 2.285156-1.234376l224.136719-121.265624 8.527343 8.53125c4.675782 4.671874 10.8125 7.007812 16.949219 7.007812s12.273438-2.335938 16.949219-7.007812l25.59375-25.597657c9.347656-9.34375 9.347656-24.550781 0-33.894531zm-166.371094-208.527344c4.800782 4.449219 9.519532 9.054688 14.101563 13.777344 3.46875 3.546875 8.792969 4.226562 12.949219 1.652344 6.339843-3.925782 10.515624-6.601563 14.925781-9.753906-.835938 14.890624-4.515625 29.296874-8.375 44.40625-1.730469 6.765624-3.484375 13.667968-4.988281 20.6875l-34.882813-34.882813c2.796875-11.347656 5.394531-23.28125 6.269531-35.886719zm-157.09375 219.382813 34.039063-62.910157 133.324219 133.324219-62.808594 33.984375zm-46.5 186.125c-1.539062.832031-3.480468.546875-4.714844-.691407l-29.765624-29.765624c-1.242188-1.234376-1.523438-3.175782-.691407-4.714844l32.585938-60.226563 62.941406 62.738281zm227.863282-123.285157-139.75-139.746093 33.988281-62.828125 168.585937 168.585937zm0 0"/><path d="m367.808594 82.628906c18.226562 0 33.050781-14.828125 33.050781-33.050781 0-18.226563-14.824219-33.050781-33.050781-33.050781-18.222656 0-33.050782 14.824218-33.050782 33.050781 0 18.222656 14.828126 33.050781 33.050782 33.050781zm0-50.847656c9.8125 0 17.796875 7.984375 17.796875 17.796875s-7.984375 17.796875-17.796875 17.796875-17.796875-7.984375-17.796875-17.796875 7.984375-17.796875 17.796875-17.796875zm0 0"/><path d="m443.363281 386.742188c-18.226562 0-33.050781 14.824218-33.050781 33.050781 0 18.222656 14.824219 33.050781 33.050781 33.050781 18.222657 0 33.050781-14.828125 33.050781-33.050781 0-18.226563-14.828124-33.050781-33.050781-33.050781zm0 50.847656c-9.8125 0-17.796875-7.984375-17.796875-17.796875s7.984375-17.796875 17.796875-17.796875 17.796875 7.984375 17.796875 17.796875-7.984375 17.796875-17.796875 17.796875zm0 0"/><path d="m90.878906 87.753906c18.222656 0 33.050782-14.824218 33.050782-33.050781 0-18.222656-14.828126-33.046875-33.050782-33.046875s-33.050781 14.824219-33.050781 33.046875c0 18.226563 14.828125 33.050781 33.050781 33.050781zm0-50.84375c9.8125 0 17.796875 7.980469 17.796875 17.792969s-7.984375 17.796875-17.796875 17.796875-17.796875-7.984375-17.796875-17.796875 7.984375-17.792969 17.796875-17.792969zm0 0"/><path d="m361.375 223.324219c1.683594 3.101562 4.949219 5.027343 8.527344 5.027343.734375 0 1.476562-.078124 2.214844-.238281 6.175781-1.027343 12.6875-1.527343 19.890624-1.527343 11.125 0 22.566407 1.222656 33.628907 2.402343 11.460937 1.222657 23.3125 2.488281 35.246093 2.488281 8.148438 0 15.554688-.582031 22.644532-1.777343.203125-.035157.40625-.078125.609375-.128907 3.921875-.996093 7.144531-4.21875 8.207031-8.214843.972656-3.660157.003906-7.339844-2.589844-9.839844-6.089844-5.871094-9.527344-9.589844-14.933594-15.953125 5.640626-7.46875 11.027344-15.171875 16.03125-22.929688 2.203126-3.382812 2.457032-7.535156.664063-10.84375-1.683594-3.097656-4.949219-5.023437-8.527344-5.023437-.734375 0-1.476562.078125-2.210937.238281-6.179688 1.027344-12.691406 1.527344-19.894532 1.527344-11.125 0-22.5625-1.222656-33.625-2.402344-11.460937-1.222656-23.3125-2.488281-35.246093-2.488281-8.148438 0-15.558594.582031-22.648438 1.777344-.199219.035156-.402343.078125-.601562.128906-3.925781.996094-7.152344 4.21875-8.210938 8.214844-.972656 3.660156-.007812 7.339843 2.585938 9.84375 6.089843 5.867187 9.53125 9.585937 14.933593 15.949219-5.644531 7.480468-11.03125 15.183593-16.027343 22.925781-2.203125 3.382812-2.460938 7.539062-.667969 10.84375zm30.636719-54.429688c11.121093 0 22.5625 1.222657 33.625 2.402344 11.460937 1.226563 23.3125 2.488281 35.246093 2.488281 3.859376 0 7.554688-.128906 11.128907-.394531-3.71875 5.394531-7.601563 10.726563-11.621094 15.933594-3.007813 3.945312-2.917969 9.3125.222656 13.054687 4.792969 5.710938 8.039063 9.460938 11.789063 13.367188-3.664063.320312-7.484375.476562-11.519532.476562-11.121093 0-22.5625-1.222656-33.628906-2.402344-11.457031-1.222656-23.308594-2.488281-35.246094-2.488281-3.859374 0-7.554687.128907-11.128906.394531 3.714844-5.390624 7.597656-10.71875 11.613282-15.925781 3.019531-3.945312 2.929687-9.316406-.214844-13.058593-4.792969-5.710938-8.039063-9.460938-11.789063-13.371094 3.664063-.316406 7.484375-.476563 11.523438-.476563zm0 0"/><path d="m324.941406 157.875c1.402344 1.109375 3.070313 1.644531 4.730469 1.644531 2.246094 0 4.472656-.988281 5.980469-2.882812.121094-.152344 12.378906-15.417969 37.015625-32.761719 22.6875-15.96875 60.839843-37.039062 113.785156-46.710938 4.144531-.757812 6.886719-4.730468 6.132813-8.875-.757813-4.144531-4.726563-6.882812-8.875-6.132812-55.988282 10.234375-96.371094 32.644531-120.390626 49.644531-26.230468 18.566407-39.097656 34.695313-39.632812 35.371094-2.605469 3.304687-2.042969 8.089844 1.253906 10.703125zm0 0"/><path d="m498.226562 270.023438c-1.640624-1.085938-40.722656-26.496094-86.671874-17.335938-4.132813.824219-6.8125 4.839844-5.988282 8.96875.820313 4.132812 4.84375 6.816406 8.96875 5.988281 39.554688-7.878906 74.75 14.757813 75.277344 15.105469 1.292969.851562 2.753906 1.261719 4.195312 1.261719 2.472657 0 4.898438-1.203125 6.367188-3.417969 2.328125-3.515625 1.363281-8.246094-2.148438-10.570312zm0 0"/><path d="m216.582031 70.105469c.238281 4.054687 3.597657 7.183593 7.605469 7.183593.148438 0 .296875-.003906.449219-.015624 4.203125-.242188 7.414062-3.847657 7.171875-8.054688-.097656-1.683594-2.648438-41.597656-25.167969-66.6875-2.8125-3.132812-7.636719-3.394531-10.769531-.578125-3.136719 2.8125-3.398438 7.636719-.582032 10.769531 18.882813 21.039063 21.265626 56.933594 21.292969 57.382813zm0 0"/></svg>