<svg height="511pt" viewBox="-49 1 511 511.999" width="511pt" xmlns="http://www.w3.org/2000/svg"><path d="m184.859375 186.539062h45v293.824219h-45zm0 0" fill="#92d8ff"/><path d="m184.859375 331.808594c6.785156 3.835937 14.507813 5.925781 22.5 5.925781 7.996094 0 15.71875-2.089844 22.5-5.925781v-145.269532h-45zm0 0" fill="#66d3d0"/><path d="m184.859375 186.539062h20v293.828126h-20zm0 0" fill="#66d3d0"/><path d="m357.886719 19.910156c-16.542969-16.546875-43.367188-16.546875-59.914063 0l-15.144531 15.144532-15.144531-15.144532c-16.546875-16.546875-43.371094-16.546875-59.914063 0-16.546875 16.542969-16.546875 43.367188 0 59.914063l15.144531 15.144531 56.445313 56.441406c1.914063 1.917969 5.023437 1.917969 6.9375 0l56.445313-56.441406 15.144531-15.144531c16.542969-16.546875 16.542969-43.371094 0-59.914063zm0 0" fill="#f46262"/><path d="m342.742188 94.96875 14.394531-14.398438h-148.617188l14.394531 14.398438 56.445313 56.441406c1.914063 1.917969 5.023437 1.917969 6.9375 0zm0 0" fill="#d65b5b"/><path d="m252.914062 94.96875-15.144531-15.148438c-16.546875-16.542968-16.546875-43.367187 0-59.910156 4.390625-4.390625 9.503907-7.601562 14.957031-9.664062-15.101562-5.707032-32.800781-2.492188-44.957031 9.664062-16.546875 16.542969-16.546875 43.367188 0 59.910156l15.144531 15.148438 56.445313 56.441406c1.914063 1.917969 5.023437 1.917969 6.9375 0l11.53125-11.527344zm0 0" fill="#d65b5b"/><path d="m183.898438 311.855469-174.410157-206.097657c-3.40625-4.023437-.546875-10.1875 4.722657-10.1875h386.300781c5.269531 0 8.125 6.164063 4.722656 10.1875l-174.410156 206.097657c-12.277344 14.507812-34.648438 14.507812-46.925781 0zm0 0" fill="#bdebff"/><path d="m69.488281 105.757812c-3.40625-4.023437-.546875-10.1875 4.722657-10.1875h-60c-5.269532 0-8.128907 6.164063-4.722657 10.1875l174.410157 206.097657c12.277343 14.507812 34.648437 14.507812 46.925781 0l6.535156-7.726563zm0 0" fill="#92d8ff"/><path d="m173.304688 468.96875-62.9375 23.546875c-6.457032 2.414063-4.726563 11.984375 2.167968 11.984375h189.652344c6.890625 0 8.625-9.570312 2.167969-11.984375l-62.941407-23.546875c-21.960937-8.214844-46.148437-8.214844-68.109374 0zm0 0" fill="#bdebff"/><path d="m61.917969 167.714844 121.980469 144.140625c12.277343 14.507812 34.648437 14.507812 46.925781 0l121.980469-144.140625zm0 0" fill="#92dd7a"/><path d="m121.917969 167.714844h-60l121.980469 144.140625c12.277343 14.507812 34.648437 14.507812 46.925781 0l6.535156-7.726563zm0 0" fill="#7ec66a"/><path d="m277.828125 209.125c0 10.59375-8.585937 19.179688-19.179687 19.179688-10.589844 0-19.179688-8.585938-19.179688-19.179688 0-10.589844 8.589844-19.179688 19.179688-19.179688 10.59375 0 19.179687 8.589844 19.179687 19.179688zm0 0" fill="#b1ef97"/><path d="m244.753906 250.226562c0 6.84375-5.546875 12.394532-12.394531 12.394532-6.84375 0-12.394531-5.550782-12.394531-12.394532 0-6.847656 5.550781-12.398437 12.394531-12.398437 6.847656 0 12.394531 5.550781 12.394531 12.398437zm0 0" fill="#b1ef97"/><path d="m412.929688 96.003906c-2.269532-4.894531-7.027344-7.933594-12.417969-7.933594h-40.269531l2.949218-2.945312c9.417969-9.417969 14.605469-21.941406 14.605469-35.261719 0-13.316406-5.191406-25.839843-14.605469-35.257812-9.421875-9.417969-21.941406-14.605469-35.261718-14.605469-13.320313 0-25.84375 5.1875-35.257813 14.605469l-9.84375 9.839843-9.839844-9.839843c-9.417969-9.417969-21.941406-14.605469-35.261719-14.605469-13.320312 0-25.84375 5.1875-35.261718 14.605469-9.417969 9.417969-14.605469 21.941406-14.605469 35.257812 0 13.320313 5.1875 25.84375 14.605469 35.261719l2.949218 2.945312h-75.875l-85.875-85.875c-2.929687-2.925781-7.675781-2.925781-10.605468 0-2.929688 2.929688-2.929688 7.679688 0 10.609376l75.269531 75.265624h-94.117187c-5.390626 0-10.152344 3.039063-12.417969 7.933594-2.269531 4.890625-1.515625 10.484375 1.96875 14.597656l52.363281 61.878907.011719.011719 121.222656 143.246093v143.984375c-2.242187.671875-4.476563 1.398438-6.679687 2.222656l-62.941407 23.546876c-6.304687 2.355468-9.871093 8.628906-8.675781 15.253906 1.199219 6.625 6.738281 11.253906 13.472656 11.253906h189.652344c6.730469 0 12.269531-4.628906 13.46875-11.253906s-2.367188-12.898438-8.671875-15.253906l-62.941406-23.546876c-2.207031-.824218-4.4375-1.550781-6.683594-2.222656v-56.527344c0-4.144531-3.355469-7.5-7.5-7.5-4.140625 0-7.5 3.355469-7.5 7.5v53.207032c-4.949219-.71875-9.953125-1.09375-15-1.09375-5.042969 0-10.050781.375-15 1.09375v-129.238282c4.6875 1.996094 9.773437 3.070313 15 3.070313 5.230469 0 10.316406-1.074219 15-3.070313v48.03125c0 4.140626 3.359375 7.5 7.5 7.5 4.144531 0 7.5-3.359374 7.5-7.5v-59.457031l121.230469-143.25s0-.003906.003906-.003906l52.363281-61.878906c3.484375-4.117188 4.242188-9.710938 1.972657-14.601563zm-210.070313-46.140625c0-9.3125 3.628906-18.066406 10.214844-24.652343 6.585937-6.585938 15.339843-10.210938 24.652343-10.210938s18.066407 3.625 24.652344 10.210938l15.144532 15.144531c1.40625 1.410156 3.316406 2.199219 5.304687 2.199219 1.992187 0 3.894531-.789063 5.304687-2.199219l15.144532-15.144531c6.585937-6.585938 15.339844-10.210938 24.652344-10.210938s18.066406 3.625 24.652343 10.210938c6.585938 6.585937 10.214844 15.339843 10.214844 24.652343 0 9.316407-3.628906 18.070313-10.214844 24.65625l-13.550781 13.550781h-112.40625l-13.550781-13.550781c-6.585938-6.585937-10.214844-15.339843-10.214844-24.65625zm-185.820313 53.207031h106.289063l57.140625 57.144532h-115.074219zm190.320313 367.238282c10.769531 0 21.34375 1.914062 31.425781 5.683594l56.152344 21.007812h-175.152344l56.148438-21.007812c10.085937-3.769532 20.660156-5.683594 31.425781-5.683594zm141.964844-310.09375h-76.675781c-4.140626 0-7.5 3.355468-7.5 7.5 0 4.140625 3.359374 7.5 7.5 7.5h63.984374l-111.535156 131.796875c-4.425781 5.226562-10.890625 8.222656-17.738281 8.222656s-13.3125-2.996094-17.734375-8.222656l-111.535156-131.796875h166.558594c4.144531 0 7.5-3.359375 7.5-7.5 0-4.144532-3.355469-7.5-7.5-7.5h-42.96875l-57.140626-57.144532h253.144532zm0 0"/></svg>