<svg height="511pt" viewBox="-59 1 511 511.999" width="511pt" xmlns="http://www.w3.org/2000/svg"><path d="m257.5 7.5h-31.75c-24.164062 0-43.75 19.589844-43.75 43.75v137.25h30v-133.25c0-9.804688 7.945312-17.75 17.75-17.75h27.75c8.285156 0 15-6.714844 15-15s-6.714844-15-15-15zm0 0" fill="#444346"/><path d="m212 188.5v-133.25c0-9.804688 7.945312-17.75 17.75-17.75h27.75c8.285156 0 15-6.714844 15-15h-46.75c-15.851562 0-28.75 12.898438-28.75 28.75v137.25zm0 0" fill="#222223"/><path d="m318.683594 504.5h-243.367188c-6.75 0-12.402344-5.125-13.058594-11.84375l-29.757812-304.15625h329l-29.757812 304.15625c-.65625 6.71875-6.308594 11.84375-13.058594 11.84375zm0 0" fill="#f46262"/><path d="m112.257812 492.65625-29.757812-304.15625h-50l29.757812 304.15625c.65625 6.71875 6.308594 11.84375 13.058594 11.84375h50c-6.753906 0-12.402344-5.125-13.058594-11.84375zm0 0" fill="#d65b5b"/><path d="m353.085938 274.503906c-103.558594-31.347656-206.835938 48.269532-310.390626 18.1875l12.667969 129.480469c95.292969 19.792969 190.371094-45.726563 285.671875-24.492187zm0 0" fill="#d7f3ff"/><path d="m42.695312 292.691406 12.667969 129.480469c16.785157 3.484375 33.5625 4.316406 50.335938 3.449219l-12.328125-126.019532c-16.886719-.027343-33.78125-2-50.675782-6.910156zm0 0" fill="#bdebff"/><path d="m36.953125 234h320.09375l4.453125-45.5h-329zm0 0" fill="#d65b5b"/><path d="m323.792969 179h-253.585938c-5.085937 0-9.207031-4.121094-9.207031-9.207031v-61.585938c0-5.085937 4.121094-9.207031 9.207031-9.207031h253.585938c5.082031 0 9.207031 4.121094 9.207031 9.207031v61.585938c0 5.085937-4.121094 9.207031-9.207031 9.207031zm0 0" fill="#bdebff"/><path d="m61 124v45.792969c0 5.085937 4.121094 9.207031 9.207031 9.207031h253.585938c5.082031 0 9.207031-4.121094 9.207031-9.207031v-45.792969zm0 0" fill="#92d8ff"/><path d="m111 169.792969v-61.585938c0-5.085937 4.121094-9.207031 9.207031-9.207031h-50c-5.085937 0-9.207031 4.121094-9.207031 9.207031v61.585938c0 5.085937 4.121094 9.207031 9.207031 9.207031h50c-5.085937 0-9.207031-4.121094-9.207031-9.207031zm0 0" fill="#92d8ff"/><path d="m375.144531 219h-356.292969c-5.992187 0-10.851562-4.859375-10.851562-10.855469v-58.289062c0-5.996094 4.859375-10.855469 10.851562-10.855469h356.292969c5.996094 0 10.855469 4.859375 10.855469 10.855469v58.289062c0 5.996094-4.859375 10.855469-10.855469 10.855469zm0 0" fill="#d7f3ff"/><path d="m197 199.316406c-9.5 0-17.199219-7.699218-17.199219-17.199218v-9.925782c0-1.640625 1.332031-2.972656 2.972657-2.972656h28.449218c1.644532 0 2.976563 1.332031 2.976563 2.972656v9.925782c0 9.5-7.699219 17.199218-17.199219 17.199218zm0 0" fill="#222223"/><path d="m58 208.144531v-58.289062c0-5.996094 4.859375-10.855469 10.851562-10.855469h-50c-5.992187 0-10.851562 4.859375-10.851562 10.855469v58.289062c0 5.996094 4.859375 10.855469 10.851562 10.855469h50c-5.992187 0-10.851562-4.859375-10.851562-10.855469zm0 0" fill="#bdebff"/><path d="m375.144531 131.5h-34.644531v-23.292969c0-9.210937-7.496094-16.707031-16.707031-16.707031h-104.292969v-36.25c0-5.652344 4.597656-10.25 10.25-10.25h27.75c12.40625 0 22.5-10.09375 22.5-22.5s-10.09375-22.5-22.5-22.5h-31.75c-28.261719 0-51.25 22.992188-51.25 51.25v40.25h-104.292969c-9.210937 0-16.707031 7.496094-16.707031 16.707031v23.292969h-34.648438c-10.117187 0-18.351562 8.234375-18.351562 18.355469v58.289062c0 10.121094 8.234375 18.355469 18.351562 18.355469h9.828126l6.558593 67.042969c.003907.011719.003907.023437.003907.03125l12.648437 129.265625c.003906.039062.007813.078125.011719.117187l6.890625 70.429688c1.035156 10.609375 9.859375 18.613281 20.519531 18.613281h243.367188c10.664062 0 19.484374-8.003906 20.523437-18.613281l12.230469-125.015625c.402344-4.125-2.609375-7.792969-6.734375-8.195313-4.117188-.402343-7.789063 2.609375-8.191407 6.734375l-2.136718 21.816406c-46.949219-8.132812-93.753906 2.917969-139.097656 13.640626-10.433594 2.464843-21.222657 5.015624-31.792969 7.277343-4.050781.867188-6.632813 4.851563-5.765625 8.902344.75 3.519531 3.863281 5.933594 7.324218 5.933594.519532 0 1.046876-.054688 1.578126-.167969 10.726562-2.292969 21.59375-4.863281 32.105468-7.347656 46.234375-10.929688 90.019532-21.269532 134.183594-13.261719l-8.632812 88.222656c-.28125 2.894531-2.6875 5.074219-5.59375 5.074219h-243.363282c-2.90625 0-5.3125-2.179688-5.59375-5.074219l-5.933594-60.636719c9.546876 1.4375 19.410157 2.160157 29.800782 2.160157 13.789062 0 28.503906-1.265625 44.621094-3.792969 4.09375-.640625 6.890624-4.476562 6.25-8.570312-.640626-4.089844-4.484376-6.886719-8.570313-6.246094-28.335937 4.441406-51.902344 4.769531-73.613281 1.003906l-11.078125-113.238281c14.171875 3.164062 28.324219 4.484375 42.429687 4.484375 35.488282 0 70.6875-8.320313 105.09375-16.457032 50.417969-11.921874 98.148438-23.195312 146.285156-10.601562l-5.761718 58.878906c-.402344 4.121094 2.613281 7.792969 6.734375 8.195313.25.023437.496093.035156.738281.035156 3.816406 0 7.078125-2.894531 7.457031-6.769531l6.375-65.148438c0-.023437.003907-.042968.007813-.066406l4.757812-48.65625h9.828125c10.121094 0 18.355469-8.234375 18.355469-18.355469v-58.289062c0-10.121094-8.234375-18.355469-18.355469-18.355469zm-185.644531-80.25c0-19.988281 16.261719-36.25 36.25-36.25h31.75c4.136719 0 7.5 3.363281 7.5 7.5s-3.363281 7.5-7.5 7.5h-27.75c-13.921875 0-25.25 11.328125-25.25 25.25v36.25h-15zm-121 56.957031c0-.941406.765625-1.707031 1.707031-1.707031h253.585938c.941406 0 1.707031.765625 1.707031 1.707031v23.292969h-257zm277.984375 156.730469c-51.0625-12.566406-101.933594-.554688-151.210937 11.097656-50.191407 11.867188-97.691407 23.09375-145.617188 10.78125l-5.902344-60.316406h306.492188zm32.015625-56.792969c0 1.851563-1.503906 3.355469-3.355469 3.355469h-16.640625c-.015625 0-.035156 0-.050781 0h-322.902344c-.023437 0-.042969 0-.0625 0h-16.636719c-1.847656 0-3.351562-1.503906-3.351562-3.355469v-58.289062c0-1.851563 1.503906-3.355469 3.351562-3.355469h356.292969c1.851563 0 3.355469 1.503906 3.355469 3.355469zm0 0"/><path d="m211.226562 161.71875h-28.453124c-5.773438 0-10.472657 4.699219-10.472657 10.472656v9.925782c0 13.621093 11.078125 24.699218 24.699219 24.699218 13.617188 0 24.699219-11.078125 24.699219-24.699218v-9.925782c0-5.773437-4.699219-10.472656-10.472657-10.472656zm-4.527343 20.398438c0 5.347656-4.351563 9.699218-9.699219 9.699218s-9.699219-4.351562-9.699219-9.699218v-5.398438h19.398438zm0 0"/><path d="m260.6875 151.183594c-4.140625 0-7.5 3.359375-7.5 7.5v11.355468c0 4.140626 3.359375 7.5 7.5 7.5 4.144531 0 7.5-3.359374 7.5-7.5v-11.355468c0-4.140625-3.355469-7.5-7.5-7.5zm0 0"/><path d="m133.308594 151.183594c-4.140625 0-7.5 3.359375-7.5 7.5v11.355468c0 4.140626 3.359375 7.5 7.5 7.5 4.144531 0 7.5-3.359374 7.5-7.5v-11.355468c0-4.140625-3.355469-7.5-7.5-7.5zm0 0"/><g fill="#f46262"><path d="m266.367188 199.003906h-11.355469c-4.144531 0-7.5-3.355468-7.5-7.5 0-4.140625 3.355469-7.5 7.5-7.5h11.355469c4.140624 0 7.5 3.359375 7.5 7.5 0 4.144532-3.359376 7.5-7.5 7.5zm0 0"/><path d="m138.988281 199.003906h-11.355469c-4.144531 0-7.5-3.355468-7.5-7.5 0-4.140625 3.355469-7.5 7.5-7.5h11.355469c4.140625 0 7.5 3.359375 7.5 7.5 0 4.144532-3.359375 7.5-7.5 7.5zm0 0"/></g></svg>