<svg height="511pt" viewBox="0 -76 511.99962 511" width="511pt" xmlns="http://www.w3.org/2000/svg"><path d="m233.667969 39.144531h44.660156v49.734375h-44.660156zm0 0" fill="#c6c5ca"/><path d="m282.894531 53.675781h-53.792969c-12.613281 0-22.835937-10.226562-22.835937-22.835937 0-12.613282 10.226563-22.835938 22.835937-22.835938h53.792969c12.613281 0 22.835938 10.222656 22.835938 22.835938.003906 12.613281-10.222657 22.835937-22.835938 22.835937zm0 0" fill="#ffde55"/><path d="m246.863281 30.839844c0-12.613282 10.226563-22.839844 22.835938-22.839844h-40.597657c-12.613281 0-22.835937 10.226562-22.835937 22.835938 0 12.613281 10.226563 22.839843 22.835937 22.839843h40.597657c-12.609375 0-22.835938-10.226562-22.835938-22.835937zm0 0" fill="#ffcd00"/><path d="m256 76.210938c-124.71875 0-225.824219 101.101562-225.824219 225.824218v25.371094h451.648438v-25.371094c0-124.722656-101.105469-225.824218-225.824219-225.824218zm0 0" fill="#eaeaea"/><path d="m256 180.015625c-9.5 0-17.199219-7.699219-17.199219-17.199219v-9.925781c0-1.640625 1.328125-2.972656 2.972657-2.972656h28.453124c1.640626 0 2.972657 1.332031 2.972657 2.972656v9.925781c0 9.5-7.699219 17.199219-17.199219 17.199219zm0 0" fill="#444346"/><path d="m291.523438 79c-11.574219-1.832031-23.4375-2.792969-35.523438-2.792969-124.71875 0-225.824219 101.105469-225.824219 225.824219v25.375h71.046875v-25.375c0-112.628906 82.460938-205.992188 190.300782-223.03125zm0 0" fill="#d8d7da"/><path d="m467.761719 352.78125h-423.527344c-7.335937 0-14.132813-3.847656-17.90625-10.140625l-17.804687-29.671875c-2.886719-4.8125.582031-10.9375 6.195312-10.9375h482.5625c5.613281 0 9.078125 6.125 6.191406 10.9375l-17.804687 29.671875c-3.773438 6.292969-10.570313 10.140625-17.90625 10.140625zm0 0" fill="#ffde55"/><path d="m98.542969 342.640625-17.804688-29.671875c-2.886719-4.8125.582031-10.9375 6.195313-10.9375h-72.214844c-5.613281 0-9.082031 6.125-6.191406 10.9375l17.800781 29.671875c3.773437 6.292969 10.574219 10.140625 17.910156 10.140625h72.214844c-7.335937 0-14.136719-3.847656-17.910156-10.140625zm0 0" fill="#ffcd00"/><path d="m325.371094 179.707031h-11.355469c-4.144531 0-7.5-3.359375-7.5-7.5 0-4.144531 3.355469-7.5 7.5-7.5h11.355469c4.140625 0 7.5 3.355469 7.5 7.5 0 4.140625-3.359375 7.5-7.5 7.5zm0 0" fill="#f46262"/><path d="m197.984375 179.707031h-11.355469c-4.144531 0-7.5-3.359375-7.5-7.5 0-4.144531 3.355469-7.5 7.5-7.5h11.355469c4.140625 0 7.5 3.355469 7.5 7.5 0 4.140625-3.359375 7.5-7.5 7.5zm0 0" fill="#f46262"/><path d="m319.691406 125.050781c-9.015625 0-17.410156 4.859375-21.90625 12.679688-2.066406 3.589843-.828125 8.175781 2.761719 10.242187 3.589844 2.0625 8.175781.828125 10.242187-2.765625 1.828126-3.179687 5.242188-5.15625 8.902344-5.15625 3.664063 0 7.074219 1.976563 8.902344 5.160157 1.390625 2.410156 3.914062 3.761718 6.511719 3.761718 1.265625 0 2.550781-.320312 3.730469-1 3.589843-2.0625 4.828124-6.648437 2.761718-10.238281-4.496094-7.824219-12.890625-12.683594-21.90625-12.683594zm0 0"/><path d="m192.304688 125.050781c-9.015626 0-17.410157 4.859375-21.90625 12.679688-2.0625 3.59375-.828126 8.179687 2.765624 10.242187 3.589844 2.066406 8.175782.828125 10.238282-2.765625 1.832031-3.179687 5.242187-5.15625 8.902344-5.15625 3.664062 0 7.074218 1.976563 8.902343 5.15625 1.386719 2.414063 3.914063 3.765625 6.511719 3.765625 1.265625 0 2.550781-.320312 3.730469-1 3.589843-2.0625 4.828125-6.648437 2.765625-10.238281-4.5-7.824219-12.894532-12.683594-21.910156-12.683594zm0 0"/><path d="m241.773438 142.417969c-5.777344 0-10.476563 4.699219-10.476563 10.472656v9.925781c0 13.621094 11.082031 24.703125 24.703125 24.703125 13.617188 0 24.699219-11.082031 24.699219-24.703125v-9.925781c0-5.773437-4.699219-10.472656-10.472657-10.472656zm23.925781 20.398437c0 5.351563-4.351563 9.699219-9.699219 9.699219s-9.699219-4.351563-9.699219-9.699219v-5.398437h19.398438zm0 0"/><path d="m510.09375 302c-2.609375-4.605469-7.519531-7.46875-12.8125-7.46875h-8.09375c-1.738281-54.253906-22.269531-106.179688-58.289062-146.941406-2.746094-3.101563-7.484376-3.394532-10.589844-.652344-3.101563 2.742188-3.394532 7.484375-.652344 10.589844 33.59375 38.015625 52.792969 86.414062 54.523438 137.003906h-313.332032c-4.140625 0-7.5 3.359375-7.5 7.503906 0 4.140625 3.359375 7.5 7.5 7.5h335.941406l-17.550781 29.246094c-2.402343 4.007812-6.800781 6.5-11.476562 6.5h-423.523438c-4.675781 0-9.074219-2.492188-11.480469-6.5l-17.546874-29.246094h117.636718c4.140625 0 7.5-3.359375 7.5-7.5 0-4.144531-3.359375-7.503906-7.5-7.503906h-95.027344c3.964844-116.921875 100.304688-210.824219 218.179688-210.824219 53.292969 0 104.613281 19.414063 144.507812 54.667969 3.101563 2.742188 7.84375 2.449219 10.585938-.652344 2.742188-3.105468 2.449219-7.84375-.652344-10.589844-35.128906-31.042968-78.554687-50.582031-124.613281-56.503906v-9.597656c15.359375-1.480469 27.40625-14.457031 27.40625-30.195312 0-16.726563-13.609375-30.335938-30.335937-30.335938h-53.796876c-16.726562 0-30.335937 13.609375-30.335937 30.335938 0 15.738281 12.046875 28.714843 27.402344 30.195312v9.5625c-51.019531 6.46875-98.195313 29.496094-135.152344 66.453125-42.296875 42.296875-66.34375 97.976563-68.207031 157.484375h-8.089844c-5.292969 0-10.203125 2.863281-12.8125 7.46875-2.605469 4.609375-2.535156 10.289062.1875 14.828125l17.804688 29.671875c5.097656 8.5 14.425781 13.78125 24.339843 13.78125h423.523438c9.914062 0 19.242187-5.28125 24.339843-13.78125l17.804688-29.671875c2.722656-4.539063 2.796875-10.21875.1875-14.828125zm-239.265625-232.8125c-4.921875-.3125-9.867187-.480469-14.828125-.480469-4.96875 0-9.914062.171875-14.828125.480469v-8.011719h29.65625zm-57.0625-38.347656c0-8.457032 6.878906-15.339844 15.335937-15.339844h53.796876c8.453124 0 15.335937 6.882812 15.335937 15.339844 0 8.457031-6.882813 15.335937-15.335937 15.335937h-53.796876c-8.457031 0-15.335937-6.878906-15.335937-15.335937zm0 0"/></svg>