<svg height="511pt" viewBox="-51 1 511 511.999" width="511pt" xmlns="http://www.w3.org/2000/svg"><path d="m45.550781 504.5c0-88.144531 71.457031-159.601562 159.605469-159.601562 88.144531 0 159.601562 71.457031 159.601562 159.601562zm0 0" fill="#545454"/><path d="m143.820312 357.117188v147.382812h122.667969v-147.382812c-18.882812-7.867188-39.597656-12.21875-61.332031-12.21875s-42.453125 4.351562-61.335938 12.21875zm0 0" fill="#d8d7da"/><path d="m143.820312 504.5h61.335938v-159.601562c-21.734375 0-42.453125 4.351562-61.335938 12.21875zm0 0" fill="#eaeaea"/><path d="m205.15625 331h-61.335938v44.617188s22.335938 22.960937 61.335938 22.960937 61.332031-22.960937 61.332031-22.960937v-44.617188zm0 0" fill="#eaeaea"/><path d="m143.820312 331v44.617188s22.335938 22.960937 61.335938 22.960937v-67.578125zm0 0" fill="#d8d7da"/><path d="m402.308594 209.4375c0 18.753906-15.199219 33.953125-33.953125 33.953125-18.75 0-33.953125-15.199219-33.953125-33.953125 0-18.75 15.203125-33.953125 33.953125-33.953125 18.753906 0 33.953125 15.203125 33.953125 33.953125zm0 0" fill="#ffcfc2"/><path d="m75.90625 209.4375c0 18.753906-15.203125 33.953125-33.953125 33.953125-18.753906 0-33.953125-15.199219-33.953125-33.953125 0-18.75 15.199219-33.953125 33.953125-33.953125 18.75 0 33.953125 15.203125 33.953125 33.953125zm0 0" fill="#ffaea1"/><path d="m376.4375 199.90625c0 94.597656-76.6875 171.28125-171.28125 171.28125-94.597656 0-171.285156-76.683594-171.285156-171.28125s76.6875-171.28125 171.285156-171.28125c94.59375 0 171.28125 76.683594 171.28125 171.28125zm0 0" fill="#ffe2d9"/><path d="m376.40625 197.378906c-1.355469-93.429687-77.5-168.753906-171.25-168.753906-94.597656 0-171.285156 76.683594-171.285156 171.28125s76.6875 171.28125 171.285156 171.28125c5.054688 0 10.054688-.230469 15-.660156-87.570312-7.597656-156.285156-81.082032-156.285156-170.621094 0-.84375.019531-1.6875.03125-2.527344zm0 0" fill="#ffcfc2"/><path d="m204.96875 28.625c-94.898438.097656-171.125 76.433594-171.097656 171.335938.007812 25.867187 5.761718 50.386718 16.039062 72.371093 19.339844 0 35.023438-15.679687 35.023438-35.023437v-80.621094h240.441406v80.621094c0 19.34375 15.683594 35.023437 35.027344 35.023437 10.277344-22 16.035156-46.539062 16.035156-72.425781 0-94.660156-76.785156-171.382812-171.46875-171.28125zm0 0" fill="#b2785b"/><path d="m63.871094 199.90625c0-89.542969 68.714844-163.019531 156.28125-170.621094-5.003906-.433594-10.066406-.667968-15.183594-.660156-94.898438.097656-171.125 76.433594-171.097656 171.335938.007812 25.867187 5.761718 50.386718 16.039062 72.371093 9.980469 0 18.984375-4.183593 25.363282-10.886719-7.359376-19.097656-11.402344-39.84375-11.402344-61.539062zm0 0" fill="#935b45"/><path d="m249.277344 302.332031h-88.242188c-4.71875 0-8.539062-3.820312-8.539062-8.539062v-8.785157c0-29.082031 23.574218-52.660156 52.660156-52.660156 29.082031 0 52.660156 23.578125 52.660156 52.660156v8.785157c0 4.71875-3.824218 8.539062-8.539062 8.539062zm0 0" fill="#b2785b"/><path d="m182.496094 293.792969v-8.785157c0-23.871093 15.886718-44.019531 37.660156-50.480468-4.757812-1.410156-9.789062-2.179688-15-2.179688-29.085938 0-52.660156 23.578125-52.660156 52.660156v8.785157c0 4.71875 3.820312 8.539062 8.539062 8.539062h30c-4.71875 0-8.539062-3.820312-8.539062-8.539062zm0 0" fill="#935b45"/><path d="m202.863281 437.609375-59.042969-26.308594v93.199219h122.667969v-93.199219l-59.042969 26.308594c-1.457031.652344-3.125.652344-4.582031 0zm0 0" fill="#444346"/><path d="m249.023438 470.332031c0 7.292969-5.910157 13.199219-13.203126 13.199219-7.289062 0-13.199218-5.90625-13.199218-13.199219 0-7.289062 5.910156-13.199219 13.199218-13.199219 7.292969 0 13.203126 5.910157 13.203126 13.199219zm0 0" fill="#ffde55"/><path d="m231.621094 470.332031c0-5.707031 3.628906-10.554687 8.699218-12.394531-1.40625-.511719-2.914062-.804688-4.5-.804688-7.289062 0-13.199218 5.910157-13.199218 13.199219 0 7.289063 5.910156 13.199219 13.199218 13.199219 1.585938 0 3.09375-.292969 4.5-.800781-5.070312-1.84375-8.699218-6.691407-8.699218-12.398438zm0 0" fill="#ffcd00"/><path d="m202.863281 437.609375-59.042969-26.308594v93.199219h61.335938v-66.402344c-.785156 0-1.566406-.160156-2.292969-.488281zm0 0" fill="#222223"/><path d="m363.152344 7.5h-315.996094c-8.007812 0-14.5 6.492188-14.5 14.5v119.65625c0 8.007812 6.492188 14.5 14.5 14.5h315.996094c8.007812 0 14.5-6.492188 14.5-14.5v-119.65625c0-8.007812-6.492188-14.5-14.5-14.5zm0 0" fill="#444346"/><path d="m82.65625 141.65625v-119.65625c0-8.007812 6.492188-14.5 14.5-14.5h-50c-8.007812 0-14.5 6.492188-14.5 14.5v119.65625c0 8.007812 6.492188 14.5 14.5 14.5h50c-8.007812 0-14.5-6.492188-14.5-14.5zm0 0" fill="#222223"/><path d="m32.65625 86v55.65625c0 8.007812 6.492188 14.5 14.5 14.5h315.996094c8.007812 0 14.5-6.492188 14.5-14.5v-55.65625zm0 0" fill="#f46262"/><path d="m82.65625 141.65625v-55.65625h-50v55.65625c0 8.007812 6.492188 14.5 14.5 14.5h50c-8.007812 0-14.5-6.492188-14.5-14.5zm0 0" fill="#d65b5b"/><path d="m385.4375 131h-360.566406c-5.125 0-9.28125 4.15625-9.28125 9.28125v32.8125c0 5.128906 4.15625 9.285156 9.28125 9.285156h360.566406c5.128906 0 9.28125-4.15625 9.28125-9.285156v-32.8125c0-5.125-4.152344-9.28125-9.28125-9.28125zm0 0" fill="#57565c"/><path d="m65.589844 173.09375v-32.8125c0-5.125 4.15625-9.28125 9.28125-9.28125h-50c-5.125 0-9.28125 4.15625-9.28125 9.28125v32.8125c0 5.128906 4.15625 9.285156 9.28125 9.285156h50c-5.125 0-9.28125-4.15625-9.28125-9.285156zm0 0" fill="#444346"/><path d="m274.523438 249.570312h-11.355469c-4.144531 0-7.5-3.359374-7.5-7.5 0-4.140624 3.355469-7.5 7.5-7.5h11.355469c4.140624 0 7.5 3.359376 7.5 7.5 0 4.140626-3.359376 7.5-7.5 7.5zm0 0" fill="#f46262"/><path d="m147.140625 249.570312h-11.351563c-4.144531 0-7.5-3.359374-7.5-7.5 0-4.140624 3.355469-7.5 7.5-7.5h11.351563c4.144531 0 7.5 3.359376 7.5 7.5 0 4.140626-3.355469 7.5-7.5 7.5zm0 0" fill="#f46262"/><path d="m268.84375 201.75c-4.144531 0-7.5 3.355469-7.5 7.5v11.355469c0 4.140625 3.355469 7.5 7.5 7.5s7.5-3.359375 7.5-7.5v-11.355469c0-4.144531-3.355469-7.5-7.5-7.5zm0 0"/><path d="m148.964844 220.605469v-11.355469c0-4.144531-3.355469-7.5-7.5-7.5-4.140625 0-7.5 3.355469-7.5 7.5v11.355469c0 4.140625 3.359375 7.5 7.5 7.5 4.144531 0 7.5-3.359375 7.5-7.5zm0 0"/><path d="m399.550781 182.140625c1.683594-2.613281 2.667969-5.714844 2.667969-9.046875v-32.8125c0-9.253906-7.527344-16.78125-16.78125-16.78125h-.285156v-37.460938c0-.011718.003906-.027343.003906-.039062s-.003906-.027344-.003906-.039062v-63.960938c0-12.132812-9.867188-22-22-22h-315.996094c-12.128906 0-22 9.867188-22 22v63.960938.039062.039062 37.460938h-.285156c-9.253906 0-16.78125 7.527344-16.78125 16.78125v32.8125c0 3.339844.992187 6.445312 2.675781 9.0625-6.527344 7.488281-10.265625 17.179688-10.265625 27.28125 0 19.984375 13.914062 36.695312 33.035156 40.59375 2.492188 8.511719 5.597656 16.765625 9.273438 24.703125.179687.523437.410156 1.019531.691406 1.480469 16.824219 35.492187 44.992188 64.597656 79.796875 82.601562-52.21875 29.394532-85.246094 85.0625-85.246094 145.683594 0 4.140625 3.359375 7.5 7.5 7.5h319.207031c4.144532 0 7.5-3.359375 7.5-7.5 0-60.570312-33.039062-116.289062-85.242187-145.683594 34.808594-18.003906 62.972656-47.113281 79.796875-82.601562.277344-.460938.511719-.953125.6875-1.476563 3.675781-7.9375 6.785156-16.191406 9.277344-24.707031 19.074218-3.917969 33.035156-20.75 33.035156-40.59375-.003906-10.226562-3.675781-19.8125-10.261719-27.296875zm-359.394531-88.640625h228.6875c4.144531 0 7.5-3.359375 7.5-7.5s-3.355469-7.5-7.5-7.5h-228.6875v-56.5c0-3.859375 3.140625-7 7-7h315.996094c3.859375 0 7 3.140625 7 7v56.5h-73.308594c-4.144531 0-7.5 3.359375-7.5 7.5s3.355469 7.5 7.5 7.5h73.308594v30h-329.996094zm-24.65625 115.9375c0-7.476562 3.207031-14.605469 8.691406-19.59375.226563.007812.449219.035156.679688.035156h1.789062c-.1875 3.339844-.285156 6.6875-.285156 10.027344 0 11.222656 1.050781 22.203125 3.039062 32.859375-8.359374-4.460937-13.914062-13.238281-13.914062-23.328125zm25.871094-9.53125c0-3.339844.117187-6.691406.316406-10.027344h35.746094v47.429688c0 13.570312-9.875 24.867187-22.808594 27.113281-8.523438-19.808594-13.253906-41.621094-13.253906-64.515625zm94.949218 297.09375h-83.082031c2.691407-54.386719 34.503907-103.457031 83.082031-128.152344v42.929688c0 .007812.003907.011718.003907.019531v85.203125zm61.335938 0h-46.335938v-74.148438l46.335938 20.652344zm0-69.921875-46.335938-20.648437v-15.648438c10.046876 6.320312 25.734376 13.570312 46.335938 15.03125zm0-36.316406c-24.5-2.078125-40.773438-13.824219-46.335938-18.480469v-1.882812c14.71875 4.660156 30.257813 7.453124 46.335938 8.121093zm61.332031 106.238281h-46.332031v-53.5l46.332031-20.648438zm0-90.570312-46.332031 20.648437v-21.265625c20.597656-1.460938 36.285156-8.710938 46.332031-15.03125zm0-34.148438c-5.582031 4.667969-21.851562 16.402344-46.332031 18.480469v-12.242188c16.078125-.667969 31.613281-3.460937 46.332031-8.121093zm98.082031 124.71875h-83.082031v-128.15625c48.566407 24.691406 80.390625 73.804688 83.082031 128.15625zm-151.914062-133.3125c-61.949219 0-115.972656-34.574219-143.792969-85.433594 17.898438-5.015625 31.070313-21.464844 31.070313-40.945312v-47.429688h225.441406v47.429688c0 19.480468 13.171875 35.929687 31.074219 40.945312-27.824219 50.859375-81.847657 85.433594-143.792969 85.433594zm150.527344-99.265625c-12.9375-2.246094-22.808594-13.542969-22.808594-27.113281v-47.429688h35.746094c.203125 3.335938.316406 6.6875.316406 10.027344 0 22.894531-4.730469 44.707031-13.253906 64.515625zm-30.296875-89.542969c-.003907 0-.007813 0-.011719 0s-.003906 0-.007812 0h-240.425782s-.003906 0-.007812 0-.007813 0-.011719 0h-60.050781c-.984375 0-1.78125-.800781-1.78125-1.785156v-32.8125c0-.980469.796875-1.78125 1.78125-1.78125h7.777344.007812.011719 344.976562.007813.011718 7.773438c.984375 0 1.785156.800781 1.785156 1.78125v32.8125c0 .984375-.800781 1.785156-1.785156 1.785156zm55.515625 57.863282c1.984375-10.648438 3.035156-21.621094 3.035156-32.835938 0-3.335938-.101562-6.6875-.289062-10.027344h1.789062c.230469 0 .449219-.023437.679688-.035156 5.546874 5.015625 8.691406 12.03125 8.691406 19.59375 0 10.011719-5.566406 18.820312-13.90625 23.304688zm0 0"/><path d="m235.820312 491.03125c11.414063 0 20.699219-9.285156 20.699219-20.699219 0-11.414062-9.285156-20.699219-20.699219-20.699219-11.414062 0-20.699218 9.285157-20.699218 20.699219 0 11.414063 9.285156 20.699219 20.699218 20.699219zm0-26.398438c3.144532 0 5.699219 2.558594 5.699219 5.699219 0 3.144531-2.554687 5.699219-5.699219 5.699219-3.144531 0-5.699218-2.554688-5.699218-5.699219 0-3.140625 2.554687-5.699219 5.699218-5.699219zm0 0"/><path d="m205.15625 224.847656c-33.171875 0-60.160156 26.988282-60.160156 60.160156v8.789063c0 8.84375 7.195312 16.039063 16.039062 16.039063h88.242188c8.84375 0 16.039062-7.195313 16.039062-16.039063v-8.789063c0-33.171874-26.988281-60.160156-60.160156-60.160156zm45.160156 68.945313c0 .574219-.46875 1.042969-1.039062 1.042969h-88.242188c-.574218 0-1.042968-.46875-1.042968-1.042969v-8.785157c0-24.902343 20.261718-45.160156 45.160156-45.160156 24.902344 0 45.160156 20.257813 45.160156 45.160156v8.785157zm0 0"/></svg>