<svg height="512pt" viewBox="-54 0 512 512.00132" width="512pt" xmlns="http://www.w3.org/2000/svg"><path d="m365.398438 54.109375-112.460938-46.609375-51.09375 89.59375-51.097656-89.59375-112.460938 46.609375c-18.636718 7.722656-30.785156 25.90625-30.785156 46.078125v394.960938c0 5.164062 4.1875 9.351562 9.351562 9.351562h369.980469c5.164063 0 9.351563-4.1875 9.351563-9.351562v-394.960938c0-20.171875-12.148438-38.355469-30.785156-46.078125zm0 0" fill="#444346"/><path d="m150.746094 7.5-112.460938 46.609375c-18.636718 7.722656-30.785156 25.90625-30.785156 46.078125v394.960938c0 5.164062 4.1875 9.351562 9.351562 9.351562h184.992188v-407.40625zm0 0" fill="#222223"/><path d="m150.746094 7.5 51.097656 297.957031-117.421875-212.316406c-5.019531-9.070313-3.238281-20.394531 4.324219-27.484375zm0 0" fill="#444346"/><path d="m196.152344 46.171875-45.40625-38.671875 51.097656 297.957031 51.09375-297.957031-45.40625 38.671875c-3.277344 2.792969-8.097656 2.792969-11.378906 0zm0 0" fill="#d7f3ff"/><path d="m196.152344 46.171875-45.40625-38.671875 51.097656 297.957031v-257.191406c-2.027344 0-4.050781-.695313-5.691406-2.09375zm0 0" fill="#92d8ff"/><path d="m252.9375 7.5-51.09375 297.957031 117.417969-212.316406c5.019531-9.070313 3.238281-20.394531-4.324219-27.484375zm0 0" fill="#57565c"/><path d="m251.015625 56.253906c-18.703125 0-49.171875 21.410156-49.171875 21.410156s-30.472656-21.410156-49.175781-21.410156c-18.707031 0-18.707031 81.679688 0 81.679688 18.703125 0 49.175781-21.410156 49.175781-21.410156s30.46875 21.410156 49.171875 21.410156c18.707031 0 18.707031-81.679688 0-81.679688zm0 0" fill="#d65b5b"/><path d="m201.84375 131.332031c-14.03125 0-25.40625-11.375-25.40625-25.40625v-17.667969c0-14.03125 11.375-25.402343 25.40625-25.402343 14.027344 0 25.402344 11.371093 25.402344 25.402343v17.667969c0 14.03125-11.375 25.40625-25.402344 25.40625zm0 0" fill="#f46262"/><path d="m222.742188 368.835938c0 11.539062-9.355469 20.898437-20.898438 20.898437s-20.902344-9.359375-20.902344-20.898437c0-11.542969 9.359375-20.902344 20.902344-20.902344s20.898438 9.359375 20.898438 20.902344zm0 0" fill="#ffde55"/><path d="m197.226562 368.835938c0-8.65625 5.261719-16.082032 12.757813-19.257813-2.503906-1.058594-5.253906-1.644531-8.144531-1.644531-11.542969 0-20.898438 9.355468-20.898438 20.898437s9.355469 20.902344 20.898438 20.902344c2.890625 0 5.640625-.585937 8.144531-1.648437-7.496094-3.171876-12.757813-10.597657-12.757813-19.25zm0 0" fill="#ffcd00"/><path d="m340.339844 130.535156c-4.140625 0-7.5 3.355469-7.5 7.5v87.964844c0 4.144531 3.359375 7.5 7.5 7.5 4.144531 0 7.5-3.355469 7.5-7.5v-87.964844c0-4.144531-3.355469-7.5-7.5-7.5zm0 0"/><path d="m368.269531 47.179688-112.460937-46.609376c-.019532-.007812-.042969-.011718-.0625-.023437-.070313-.027344-.140625-.054687-.210938-.078125-.050781-.019531-.097656-.035156-.148437-.050781-.035157-.011719-.070313-.023438-.101563-.035157-.089844-.027343-.175781-.058593-.261718-.085937-.121094-.035156-.242188-.0625-.367188-.089844-.058594-.015625-.117188-.03125-.179688-.042969-.0625-.015624-.125-.027343-.1875-.039062-.097656-.019531-.195312-.03125-.292968-.0429688-.148438-.0234374-.292969-.0429687-.4375-.0585937-.003906 0-.003906 0-.007813 0 0 0 0 0-.003906 0-.070313-.0039063-.144531-.0039063-.21875-.0078125-.164063-.0078125-.328125-.015625-.492187-.015625-.066407 0-.132813.0078125-.195313.0117188-.070313.0039062-.132813.0078124-.203125.0117187-.101562.0078125-.207031.0117187-.3125.0195313-.136719.015625-.269531.0429687-.40625.0625002-.027344.007812-.054688.011719-.082031.015625-.042969.007812-.082031.011718-.121094.019531-.03125.003906-.0625.007813-.089844.015625-.179687.035156-.359375.085938-.535156.136719-.050781.011719-.105469.023437-.15625.039062s-.101563.035157-.152344.050781c-.011719.003907-.019531.003907-.03125.007813-.023437.007813-.046875.019531-.070312.03125-.089844.03125-.183594.0625-.273438.097656-.050781.023438-.101562.039063-.152343.058594-.117188.046875-.230469.105469-.34375.160156-.058594.027344-.117188.054688-.171876.082031-.054687.027344-.105468.050782-.152343.078126-.109375.058593-.214844.125-.320313.1875-.105468.0625-.210937.125-.3125.191406-.015625.011718-.023437.015625-.035156.023437-.070312.046875-.136719.101563-.203125.152344-.132813.09375-.261719.191406-.390625.296875-.015625.015625-.03125.027344-.050781.039062l-45.40625 38.675782c-.476563.40625-1.171875.40625-1.648438 0l-45.410156-38.675782c-.015625-.015624-.035156-.027343-.050781-.039062-.125-.105469-.253906-.199219-.382813-.296875-.070312-.046875-.136719-.101563-.203125-.148437-.015625-.011719-.027344-.019532-.042968-.03125-.105469-.066407-.210938-.128907-.316407-.191407s-.207031-.128906-.3125-.183593c-.046875-.027344-.097656-.050782-.148437-.074219-.0625-.035157-.125-.0625-.1875-.09375-.109375-.050781-.21875-.105469-.328125-.152344-.070313-.027344-.140625-.050781-.207031-.074219-.070313-.027344-.132813-.050781-.203126-.074218-.03125-.011719-.0625-.03125-.09375-.039063-.011718-.003906-.023437-.007813-.035156-.011719-.046875-.015625-.09375-.03125-.140625-.046875-.082031-.023437-.167969-.042969-.253906-.066406-.144531-.039063-.289063-.078125-.4375-.109375-.03125-.007812-.0625-.011719-.09375-.019531-.042969-.007813-.085937-.011719-.128906-.019531-.066407-.011719-.128907-.0195318-.195313-.0273442-.09375-.015625-.1875-.0351563-.28125-.0429688-.105468-.0117188-.210937-.015625-.320312-.0234375-.066406-.0039063-.136719-.0078125-.207032-.0117187-.019531 0-.035156-.0039063-.050781-.0039063-.042969 0-.085937-.0078125-.132812-.0078125-.199219 0-.398438.0078125-.597657.0195312-.039062.0039063-.078124 0-.117187.0039063-.003906 0-.007813 0-.011719 0-.171875.015625-.339844.0429687-.507812.0664063-.070313.0117182-.144532.0195312-.21875.0312502-.066406.011718-.132813.027344-.199219.042968-.0625.011719-.121094.03125-.179687.042969-.007813.003907-.011719.003907-.019532.003907-.113281.027343-.226562.050781-.335937.085937-.101563.027344-.199219.0625-.296875.097656-.023438.007813-.042969.015625-.066406.019531-.054688.019532-.105469.035157-.160157.054688-.066406.023438-.132812.050781-.199219.078125-.023437.007813-.046874.015625-.070312.023437l-112.464844 46.609376c-21.507812 8.917968-35.410156 29.722656-35.410156 53.007812v394.960938c0 9.292968 7.5625 16.851562 16.851562 16.851562h369.980469c9.292969 0 16.851563-7.558594 16.851563-16.851562v-394.960938c0-23.285156-13.898438-44.09375-35.414063-53.007812zm-110.296875-24.671876 51.832032 48.617188c5.066406 4.75 6.253906 12.3125 2.894531 18.386719l-95.976563 173.542969 20.570313-119.949219c5.109375 1.546875 9.695312 2.328125 13.722656 2.328125 5.554687 0 13.132813-3.132813 17.695313-18.070313 2.472656-8.101562 3.832031-18.847656 3.832031-30.269531 0-10.863281-1.433594-45.242188-19.109375-48.125zm-56.128906 238.574219-21.199219-123.613281c1.753907-.832031 3.550781-1.730469 5.386719-2.691406 4.695312 2.582031 10.082031 4.054687 15.8125 4.054687 5.726562 0 11.113281-1.472656 15.808594-4.054687 1.835937.960937 3.632812 1.859375 5.386718 2.691406zm48.84375-197.328125c2.417969 1.792969 6.855469 13.277344 6.855469 33.339844s-4.4375 31.546875-6.855469 33.335938c-5.144531-.09375-12.527344-2.382813-21.292969-6.550782 3.378907-5.164062 5.351563-11.332031 5.351563-17.949218v-17.671876c0-6.621093-1.972656-12.785156-5.351563-17.953124 8.765625-4.164063 16.148438-6.457032 21.292969-6.550782zm-38.292969-11.871094 29.652344-25.257812-4.164063 24.28125c-6.011718 1.761719-12.773437 4.601562-20.230468 8.503906-3.863282-2.125-8.195313-3.492187-12.800782-3.910156 2.703126-.511719 5.308594-1.714844 7.542969-3.617188zm-10.550781 18.472657c9.871094 0 17.902344 8.03125 17.902344 17.902343v17.667969c0 9.875-8.03125 17.90625-17.902344 17.90625-9.875 0-17.90625-8.03125-17.90625-17.90625v-17.667969c0-9.871093 8.03125-17.902343 17.90625-17.902343zm-10.554688-18.472657c2.234376 1.902344 4.839844 3.105469 7.542969 3.617188-4.605469.417969-8.9375 1.785156-12.800781 3.910156-7.457031-3.902344-14.21875-6.742187-20.230469-8.503906l-4.164062-24.28125zm-38.292968 11.871094c5.144531.09375 12.527344 2.386719 21.292968 6.550782-3.378906 5.167968-5.351562 11.332031-5.351562 17.953124v17.667969c0 6.621094 1.972656 12.789063 5.351562 17.953125-8.765624 4.167969-16.144531 6.457032-21.292968 6.550782-2.417969-1.789063-6.855469-13.273438-6.855469-33.335938s4.4375-31.546875 6.855469-33.339844zm41.347656 433.246094h-123.5v-358.964844c0-4.144531-3.359375-7.5-7.5-7.5-4.144531 0-7.5 3.355469-7.5 7.5v358.964844h-38.992188c-1.019531 0-1.851562-.828125-1.851562-1.851562v-394.960938c0-17.195312 10.265625-32.566406 26.15625-39.148438l74.445312-30.851562-31.984374 30c-10.078126 9.449219-12.445313 24.496094-5.757813 36.585938l50.722656 91.71875c1.367188 2.472656 3.929688 3.871093 6.570313 3.871093 1.230468 0 2.472656-.300781 3.625-.9375 3.625-2.003906 4.9375-6.566406 2.929687-10.191406l-50.722656-91.71875c-3.359375-6.078125-2.167969-13.636719 2.894531-18.386719l51.835938-48.621094 4.535156 26.457032c-5.183594.890625-11.347656 5-15.277344 17.863281-2.472656 8.097656-3.832031 18.847656-3.832031 30.269531 0 11.339844 1.550781 48.339844 21.527344 48.339844 4.027343 0 8.613281-.78125 13.726562-2.328125l20.566407 119.949219-32.25-58.316406c-2.003907-3.625-6.566407-4.9375-10.191407-2.933594s-4.941406 6.570312-2.933593 10.195312l52.757812 95.394532v34.050781c-12.03125 3.300781-20.902344 14.324219-20.902344 27.390625 0 13.0625 8.871094 24.089844 20.902344 27.386718zm-5.902344-128.164062c0-7.390626 6.011719-13.402344 13.398438-13.402344 7.390625 0 13.402344 6.011718 13.402344 13.402344 0 7.386718-6.011719 13.398437-13.402344 13.398437-7.386719 0-13.398438-6.011719-13.398438-13.398437zm200.242188 126.3125c0 1.019531-.832032 1.851562-1.851563 1.851562h-38.992187v-243c0-4.140625-3.355469-7.5-7.5-7.5-4.140625 0-7.5 3.359375-7.5 7.5v243h-123.496094v-100.777344c12.03125-3.300781 20.898438-14.324218 20.898438-27.386718 0-13.066407-8.867188-24.089844-20.898438-27.390626v-34.050781l116.484375-210.621093c6.683594-12.09375 4.316406-27.136719-5.761719-36.589844l-31.980468-30 74.445312 30.855468c15.886719 6.582032 26.152344 21.949219 26.152344 39.148438zm0 0"/></svg>