<svg height="512pt" viewBox="0 -15 512 512" width="512pt" xmlns="http://www.w3.org/2000/svg"><path d="m7.5 17v448c0 5.246094 4.253906 9.5 9.5 9.5h478c5.246094 0 9.5-4.253906 9.5-9.5v-448c0-5.246094-4.253906-9.5-9.5-9.5h-478c-5.246094 0-9.5 4.253906-9.5 9.5zm68.332031 427.5h-28.832031c-5.246094 0-9.5-4.253906-9.5-9.5v-23.007812c0-5.246094 4.253906-9.5 9.5-9.5h28.832031c5.246094 0 9.5 4.253906 9.5 9.5v23.007812c0 5.246094-4.253906 9.5-9.5 9.5zm0-364.992188h-28.832031c-5.246094 0-9.5-4.253906-9.5-9.5v-23.007812c0-5.246094 4.253906-9.5 9.5-9.5h28.832031c5.246094 0 9.5 4.253906 9.5 9.5v23.007812c0 5.246094-4.253906 9.5-9.5 9.5zm77.835938 364.992188h-28.832031c-5.25 0-9.5-4.253906-9.5-9.5v-23.007812c0-5.246094 4.25-9.5 9.5-9.5h28.832031c5.246093 0 9.5 4.253906 9.5 9.5v23.007812c0 5.246094-4.253907 9.5-9.5 9.5zm0-364.992188h-28.832031c-5.25 0-9.5-4.253906-9.5-9.5v-23.007812c0-5.246094 4.25-9.5 9.5-9.5h28.832031c5.246093 0 9.5 4.253906 9.5 9.5v23.007812c0 5.246094-4.253907 9.5-9.5 9.5zm77.832031 364.992188h-28.832031c-5.246094 0-9.5-4.253906-9.5-9.5v-23.007812c0-5.246094 4.253906-9.5 9.5-9.5h28.832031c5.246094 0 9.5 4.253906 9.5 9.5v23.007812c0 5.246094-4.253906 9.5-9.5 9.5zm0-364.992188h-28.832031c-5.246094 0-9.5-4.253906-9.5-9.5v-23.007812c0-5.246094 4.253906-9.5 9.5-9.5h28.832031c5.246094 0 9.5 4.253906 9.5 9.5v23.007812c0 5.246094-4.253906 9.5-9.5 9.5zm77.832031 364.992188h-28.832031c-5.246094 0-9.5-4.253906-9.5-9.5v-23.007812c0-5.246094 4.253906-9.5 9.5-9.5h28.832031c5.246094 0 9.5 4.253906 9.5 9.5v23.007812c0 5.246094-4.253906 9.5-9.5 9.5zm0-364.992188h-28.832031c-5.246094 0-9.5-4.253906-9.5-9.5v-23.007812c0-5.246094 4.253906-9.5 9.5-9.5h28.832031c5.246094 0 9.5 4.253906 9.5 9.5v23.007812c0 5.246094-4.253906 9.5-9.5 9.5zm77.835938 364.992188h-28.832031c-5.25 0-9.5-4.253906-9.5-9.5v-23.007812c0-5.246094 4.25-9.5 9.5-9.5h28.832031c5.246093 0 9.5 4.253906 9.5 9.5v23.007812c0 5.246094-4.253907 9.5-9.5 9.5zm0-364.992188h-28.832031c-5.25 0-9.5-4.253906-9.5-9.5v-23.007812c0-5.246094 4.25-9.5 9.5-9.5h28.832031c5.246093 0 9.5 4.253906 9.5 9.5v23.007812c0 5.246094-4.253907 9.5-9.5 9.5zm77.832031 364.992188h-28.832031c-5.246094 0-9.5-4.253906-9.5-9.5v-23.007812c0-5.246094 4.253906-9.5 9.5-9.5h28.832031c5.246094 0 9.5 4.253906 9.5 9.5v23.007812c0 5.246094-4.253906 9.5-9.5 9.5zm0-364.992188h-28.832031c-5.246094 0-9.5-4.253906-9.5-9.5v-23.007812c0-5.246094 4.253906-9.5 9.5-9.5h28.832031c5.246094 0 9.5 4.253906 9.5 9.5v23.007812c0 5.246094-4.253906 9.5-9.5 9.5zm0 0" fill="#57565c"/><path d="m124.832031 444.5c-5.246093 0-9.5-4.253906-9.5-9.5v-23.007812c0-5.246094 4.253907-9.5 9.5-9.5h14.167969v-322.984376h-14.167969c-5.246093 0-9.5-4.253906-9.5-9.5v-23.007812c0-5.246094 4.253907-9.5 9.5-9.5h14.167969v-30h-122c-5.246094 0-9.5 4.253906-9.5 9.5v448c0 5.246094 4.253906 9.5 9.5 9.5h122v-30zm-39.5-9.5c0 5.246094-4.253906 9.5-9.5 9.5h-28.832031c-5.246094 0-9.5-4.253906-9.5-9.5v-23.007812c0-5.246094 4.253906-9.5 9.5-9.5h28.832031c5.246094 0 9.5 4.253906 9.5 9.5zm0-364.992188c0 5.246094-4.253906 9.5-9.5 9.5h-28.832031c-5.246094 0-9.5-4.253906-9.5-9.5v-23.007812c0-5.246094 4.253906-9.5 9.5-9.5h28.832031c5.246094 0 9.5 4.253906 9.5 9.5zm0 0" fill="#444346"/><path d="m454.5 119.003906v243.992188c0 5.246094 4.253906 9.496094 9.496094 9.496094h40.503906v-262.984376h-40.503906c-5.242188 0-9.496094 4.25-9.496094 9.496094zm0 0" fill="#d7f3ff"/><path d="m116.996094 372.492188h278.007812c5.246094 0 9.496094-4.253907 9.496094-9.496094v-243.992188c0-5.246094-4.253906-9.496094-9.496094-9.496094h-278.007812c-5.246094 0-9.496094 4.253907-9.496094 9.496094v243.992188c0 5.246094 4.253906 9.496094 9.496094 9.496094zm0 0" fill="#d7f3ff"/><path d="m177.5 362.996094v-243.992188c0-5.246094 4.253906-9.496094 9.496094-9.496094h-70c-5.246094 0-9.496094 4.25-9.496094 9.496094v243.992188c0 5.246094 4.253906 9.496094 9.496094 9.496094h70c-5.242188 0-9.496094-4.25-9.496094-9.496094zm0 0" fill="#bdebff"/><path d="m48.003906 109.507812h-40.503906v262.984376h40.503906c5.246094 0 9.496094-4.253907 9.496094-9.496094v-243.992188c0-5.246094-4.253906-9.496094-9.496094-9.496094zm0 0" fill="#bdebff"/><path d="m356.882812 160c-22.238281-22.234375-58.289062-22.234375-80.527343 0l-18.902344 18.902344c-.800781.800781-2.105469.800781-2.90625 0l-18.902344-18.902344c-22.234375-22.234375-58.289062-22.234375-80.527343 0-22.234376 22.238281-22.234376 58.289062 0 80.527344l20.355468 20.355468 75.863282 75.859376c2.574218 2.578124 6.75 2.578124 9.328124 0l75.859376-75.859376 20.359374-20.355468c22.234376-22.238282 22.234376-58.289063 0-80.527344zm0 0" fill="#f46262"/><path d="m218.964844 260.882812-20.355469-20.355468c-22.234375-22.238282-22.234375-58.289063 0-80.527344 5.472656-5.472656 11.785156-9.589844 18.519531-12.367188-20.632812-8.515624-45.246094-4.394531-62.011718 12.367188-22.234376 22.238281-22.234376 58.289062 0 80.527344l20.355468 20.355468 75.863282 75.859376c2.574218 2.578124 6.75 2.578124 9.328124 0l17.082032-17.082032zm0 0" fill="#d65b5b"/><path d="m358.332031 87.007812h28.835938c9.371093 0 17-7.625 17-17v-23.007812c0-9.375-7.628907-17-17-17h-28.835938c-9.371093 0-17 7.625-17 17v23.007812c0 9.375 7.628907 17 17 17zm-2-40.007812c0-1.101562.898438-2 2-2h28.835938c1.101562 0 2 .898438 2 2v23.007812c0 1.101563-.898438 2-2 2h-28.835938c-1.101562 0-2-.898437-2-2zm0 0"/><path d="m280.5 87.007812h28.832031c9.375 0 17-7.625 17-17v-23.007812c0-9.375-7.625-17-17-17h-28.832031c-9.375 0-17 7.625-17 17v23.007812c0 9.375 7.625 17 17 17zm-2-40.007812c0-1.101562.898438-2 2-2h28.832031c1.105469 0 2 .898438 2 2v23.007812c0 1.101563-.894531 2-2 2h-28.832031c-1.101562 0-2-.898437-2-2zm0 0"/><path d="m419.167969 411.992188v23.007812c0 9.375 7.625 17 17 17h28.832031c9.375 0 17-7.625 17-17v-23.007812c0-9.375-7.625-17-17-17h-28.832031c-9.375 0-17 7.625-17 17zm47.832031 0v23.007812c0 1.101562-.898438 2-2 2h-28.832031c-1.105469 0-2-.898438-2-2v-23.007812c0-1.101563.894531-2 2-2h28.832031c1.101562 0 2 .898437 2 2zm0 0"/><path d="m309.332031 394.992188h-28.832031c-9.375 0-17 7.625-17 17v23.007812c0 9.375 7.625 17 17 17h28.832031c9.375 0 17-7.625 17-17v-23.007812c0-9.375-7.625-17-17-17zm2 40.007812c0 1.101562-.894531 2-2 2h-28.832031c-1.101562 0-2-.898438-2-2v-23.007812c0-1.101563.898438-2 2-2h28.832031c1.105469 0 2 .898437 2 2zm0 0"/><path d="m495 0h-478c-9.375 0-17 7.625-17 17v448c0 9.375 7.625 17 17 17h478c9.375 0 17-7.625 17-17v-448c0-9.375-7.625-17-17-17zm-480 117.007812h33.003906c1.101563 0 1.996094.894532 1.996094 1.996094v243.992188c0 1.101562-.894531 1.996094-1.996094 1.996094h-33.003906zm482 247.984376h-33.003906c-1.101563 0-1.996094-.894532-1.996094-1.996094v-243.992188c0-1.101562.894531-1.996094 1.996094-1.996094h33.003906zm0-262.984376h-33.003906c-9.371094 0-16.996094 7.625-16.996094 16.996094v243.992188c0 9.371094 7.625 16.996094 16.996094 16.996094h33.003906v85.007812c0 1.101562-.898438 2-2 2h-478c-1.101562 0-2-.898438-2-2v-85.007812h33.003906c9.371094 0 16.996094-7.625 16.996094-16.996094v-243.992188c0-9.371094-7.625-16.996094-16.996094-16.996094h-33.003906v-85.007812c0-1.101562.898438-2 2-2h478c1.101562 0 2 .898438 2 2zm0 0"/><path d="m202.667969 87.007812h28.832031c9.375 0 17-7.625 17-17v-23.007812c0-9.375-7.625-17-17-17h-28.832031c-9.375 0-17 7.625-17 17v23.007812c0 9.375 7.625 17 17 17zm-2-40.007812c0-1.101562.894531-2 2-2h28.832031c1.101562 0 2 .898438 2 2v23.007812c0 1.101563-.898438 2-2 2h-28.832031c-1.105469 0-2-.898437-2-2zm0 0"/><path d="m465 30h-28.832031c-9.375 0-17 7.625-17 17v23.007812c0 9.375 7.625 17 17 17h28.832031c9.375 0 17-7.625 17-17v-23.007812c0-9.375-7.625-17-17-17zm2 40.007812c0 1.101563-.898438 2-2 2h-28.832031c-1.105469 0-2-.898437-2-2v-23.007812c0-1.101562.894531-2 2-2h28.832031c1.101562 0 2 .898438 2 2zm0 0"/><path d="m387.167969 394.992188h-28.835938c-9.371093 0-17 7.625-17 17v23.007812c0 9.375 7.628907 17 17 17h28.835938c9.371093 0 17-7.625 17-17v-23.007812c0-9.375-7.628907-17-17-17zm2 40.007812c0 1.101562-.898438 2-2 2h-28.835938c-1.101562 0-2-.898438-2-2v-23.007812c0-1.101563.898438-2 2-2h28.835938c1.101562 0 2 .898437 2 2zm0 0"/><path d="m75.832031 394.992188h-28.832031c-9.375 0-17 7.625-17 17v23.007812c0 9.375 7.625 17 17 17h28.832031c9.375 0 17-7.625 17-17v-23.007812c0-9.375-7.625-17-17-17zm2 40.007812c0 1.101562-.894531 2-2 2h-28.832031c-1.101562 0-2-.898438-2-2v-23.007812c0-1.101563.898438-2 2-2h28.832031c1.105469 0 2 .898437 2 2zm0 0"/><path d="m153.667969 394.992188h-28.832031c-9.375 0-17 7.625-17 17v23.007812c0 9.375 7.625 17 17 17h28.832031c9.371093 0 17-7.625 17-17v-23.007812c0-9.375-7.628907-17-17-17zm2 40.007812c0 1.101562-.898438 2-2 2h-28.832031c-1.105469 0-2-.898438-2-2v-23.007812c0-1.101563.894531-2 2-2h28.832031c1.101562 0 2 .898437 2 2zm0 0"/><path d="m124.832031 87.007812h28.832031c9.375 0 17-7.625 17-17v-23.007812c0-9.375-7.625-17-17-17h-28.832031c-9.371093 0-17 7.625-17 17v23.007812c0 9.375 7.628907 17 17 17zm-2-40.007812c0-1.101562.898438-2 2-2h28.832031c1.105469 0 2 .898438 2 2v23.007812c0 1.101563-.894531 2-2 2h-28.832031c-1.101562 0-2-.898437-2-2zm0 0"/><path d="m75.832031 30h-28.832031c-9.375 0-17 7.625-17 17v23.007812c0 9.375 7.625 17 17 17h28.832031c9.375 0 17-7.625 17-17v-23.007812c0-9.375-7.625-17-17-17zm2 40.007812c0 1.101563-.894531 2-2 2h-28.832031c-1.101562 0-2-.898437-2-2v-23.007812c0-1.101562.898438-2 2-2h28.832031c1.105469 0 2 .898438 2 2zm0 0"/><path d="m231.5 394.992188h-28.832031c-9.375 0-17 7.625-17 17v23.007812c0 9.375 7.625 17 17 17h28.832031c9.375 0 17-7.625 17-17v-23.007812c0-9.375-7.625-17-17-17zm2 40.007812c0 1.101562-.898438 2-2 2h-28.832031c-1.105469 0-2-.898438-2-2v-23.007812c0-1.101563.894531-2 2-2h28.832031c1.101562 0 2 .898437 2 2zm0 0"/><path d="m395.003906 102.007812h-278.007812c-9.371094 0-16.996094 7.625-16.996094 16.996094v243.992188c0 9.371094 7.625 16.996094 16.996094 16.996094h218.003906c4.144531 0 7.5-3.355469 7.5-7.5 0-4.144532-3.355469-7.5-7.5-7.5h-218.003906c-1.101563 0-1.996094-.894532-1.996094-1.996094v-243.992188c0-1.101562.894531-1.996094 1.996094-1.996094h278.007812c1.101563 0 1.996094.894532 1.996094 1.996094v243.992188c0 1.101562-.894531 1.996094-1.996094 1.996094h-32.003906c-4.144531 0-7.5 3.355468-7.5 7.5 0 4.144531 3.355469 7.5 7.5 7.5h32.003906c9.371094 0 16.996094-7.625 16.996094-16.996094v-243.992188c0-9.371094-7.625-16.996094-16.996094-16.996094zm0 0"/><path d="m150.285156 164.6875c-3.558594-2.121094-8.160156-.960938-10.28125 2.597656-15.117187 25.351563-11.082031 57.648438 9.8125 78.546875l96.214844 96.214844c2.664062 2.664063 6.203125 4.128906 9.96875 4.128906s7.304688-1.464843 9.96875-4.125l96.214844-96.21875c25.125-25.125 25.125-66.007812 0-91.132812-12.171875-12.171875-28.351563-18.875-45.566406-18.875-17.210938 0-33.394532 6.703125-45.5625 18.875l-15.054688 15.050781-15.050781-15.054688c-20.898438-20.894531-53.195313-24.925781-78.546875-9.808593-3.558594 2.121093-4.71875 6.726562-2.597656 10.28125 2.121093 3.558593 6.722656 4.722656 10.28125 2.601562 19.441406-11.597656 44.222656-8.5 60.253906 7.535157l18.902344 18.898437c3.726562 3.726563 9.789062 3.726563 13.515624 0l18.898438-18.898437c19.277344-19.277344 50.644531-19.277344 69.917969 0 19.277343 19.273437 19.277343 50.640624 0 69.917968l-95.574219 95.578125-95.578125-95.578125c-16.03125-16.03125-19.132813-40.8125-7.535156-60.253906 2.121093-3.558594.957031-8.160156-2.601563-10.28125zm0 0"/><path d="m256 240.484375c9.570312 0 18.484375-5.160156 23.261719-13.464844 2.0625-3.59375.828125-8.175781-2.765625-10.242187-3.585938-2.0625-8.175782-.828125-10.238282 2.765625-2.109374 3.664062-6.039062 5.941406-10.257812 5.941406s-8.148438-2.277344-10.257812-5.945313c-2.0625-3.589843-6.648438-4.828124-10.238282-2.761718-3.59375 2.0625-4.828125 6.648437-2.765625 10.238281 4.777344 8.308594 13.691407 13.46875 23.261719 13.46875zm0 0"/><path d="m327.1875 203.707031v-11.355469c0-4.144531-3.355469-7.5-7.5-7.5-4.140625 0-7.5 3.355469-7.5 7.5v11.355469c0 4.140625 3.359375 7.5 7.5 7.5 4.144531 0 7.5-3.359375 7.5-7.5zm0 0"/><path d="m199.8125 203.707031v-11.355469c0-4.144531-3.359375-7.5-7.5-7.5-4.144531 0-7.5 3.355469-7.5 7.5v11.355469c0 4.140625 3.355469 7.5 7.5 7.5 4.140625 0 7.5-3.359375 7.5-7.5zm0 0"/><g fill="#eaeaea"><path d="m325.367188 232.671875h-11.355469c-4.144531 0-7.5-3.355469-7.5-7.5s3.355469-7.5 7.5-7.5h11.355469c4.144531 0 7.5 3.355469 7.5 7.5s-3.355469 7.5-7.5 7.5zm0 0"/><path d="m197.988281 232.671875h-11.355469c-4.140624 0-7.5-3.355469-7.5-7.5s3.359376-7.5 7.5-7.5h11.355469c4.140625 0 7.5 3.355469 7.5 7.5s-3.359375 7.5-7.5 7.5zm0 0"/></g></svg>