<svg height="512pt" viewBox="-60 0 512 512.001" width="512pt" xmlns="http://www.w3.org/2000/svg"><path d="m288.964844 369.464844h-186.386719v-353.785156c0-4.519532 3.664063-8.179688 8.179687-8.179688h170.027344c4.519532 0 8.179688 3.660156 8.179688 8.179688zm0 0" fill="#f46262"/><path d="m140.757812 7.5h-30c-4.515624 0-8.179687 3.660156-8.179687 8.179688v353.785156h30v-353.785156c0-4.519532 3.664063-8.179688 8.179687-8.179688zm0 0" fill="#d65b5b"/><path d="m164.707031 7.5h62.128907v361.964844h-62.128907zm0 0" fill="#eaeaea"/><path d="m164.707031 7.5h30v361.964844h-30zm0 0" fill="#d8d7da"/><path d="m226.835938 7.5h30v361.964844h-30zm0 0" fill="#d65b5b"/><path d="m204.785156 146.773438c18.320313-32.980469 68.5625-19.519532 67.9375 18.203124-.136718 8.085938 8.671875 13.171876 15.605469 9.011719 32.359375-19.402343 69.136719 17.375 49.734375 49.734375-4.15625 6.9375.925781 15.742188 9.011719 15.609375 37.722656-.625 51.1875 49.617188 18.203125 67.9375-7.070313 3.925781-7.070313 14.09375 0 18.019531 32.984375 18.324219 19.519531 68.5625-18.203125 67.941407-8.085938-.136719-13.167969 8.671875-9.011719 15.605469 19.402344 32.359374-17.375 69.136718-49.734375 49.734374-6.933594-4.160156-15.742187.925782-15.605469 9.011719.621094 37.722657-49.617187 51.1875-67.9375 18.203125-3.929687-7.070312-14.097656-7.070312-18.023437 0-18.320313 32.984375-68.5625 19.519532-67.9375-18.203125.132812-8.085937-8.671875-13.171875-15.609375-9.011719-32.355469 19.402344-69.136719-17.375-49.734375-49.734374 4.160156-6.933594-.925781-15.742188-9.011719-15.605469-37.722656.621093-51.183594-49.617188-18.203125-67.941407 7.070313-3.925781 7.070313-14.09375 0-18.019531-32.980469-18.320312-19.519531-68.5625 18.203125-67.9375 8.085938.132813 13.171875-8.671875 9.011719-15.609375-19.402344-32.359375 17.378906-69.136718 49.734375-49.734375 6.9375 4.160157 15.742187-.925781 15.609375-9.011719-.625-37.722656 49.617187-51.183593 67.9375-18.203124 3.925781 7.070312 14.09375 7.070312 18.023437 0zm0 0" fill="#ffcd00"/><path d="m341.242188 316.28125c0 80.339844-65.128907 145.46875-145.46875 145.46875-80.34375 0-145.472657-65.128906-145.472657-145.46875 0-80.34375 65.128907-145.472656 145.472657-145.472656 80.339843 0 145.46875 65.128906 145.46875 145.472656zm0 0" fill="#ffde55"/><path d="m195.773438 431.75c-63.671876 0-115.472657-51.800781-115.472657-115.46875 0-63.671875 51.800781-115.472656 115.472657-115.472656 63.671874 0 115.46875 51.800781 115.46875 115.472656s-51.796876 115.46875-115.46875 115.46875zm0 0" fill="#ffde55"/><path d="m195.773438 336.597656c-9.5 0-17.199219-7.699218-17.199219-17.199218v-9.925782c0-1.644531 1.332031-2.972656 2.972656-2.972656h28.449219c1.644531 0 2.972656 1.328125 2.972656 2.972656v9.925782c0 9.5-7.699219 17.199218-17.195312 17.199218zm0 0" fill="#222223"/><path d="m368.921875 318.734375c-1.257813-.699219-1.445313-1.835937-1.445313-2.453125s.1875-1.757812 1.445313-2.457031c17.980469-9.988281 26.269531-29.300781 21.113281-49.203125-5.085937-19.617188-22.070312-32.796875-42.265625-32.796875-.269531 0-.542969.003906-.875.007812-1.414062 0-2.132812-.894531-2.433593-1.425781-.300782-.53125-.699219-1.605469.035156-2.828125 8.359375-13.941406 8.660156-29.871094.828125-43.703125-7.957031-14.050781-22.605469-22.777344-38.230469-22.777344-3.601562 0-7.152344.476563-10.628906 1.382813v-146.800781c0-8.644532-7.035156-15.679688-15.679688-15.679688h-170.027344c-8.644531 0-15.679687 7.035156-15.679687 15.679688v146.804687c-3.476563-.910156-7.027344-1.386719-10.628906-1.386719-15.621094 0-30.269531 8.726563-38.230469 22.78125-7.832031 13.832032-7.53125 29.757813.828125 43.699219.734375 1.222656.339844 2.296875.039063 2.828125-.304688.53125-1.019532 1.425781-2.492188 1.425781-.277344-.003906-.546875-.007812-.820312-.007812-20.191407 0-37.175782 13.179687-42.257813 32.796875-5.15625 19.902344 3.128906 39.214844 21.109375 49.203125 1.253906.699219 1.445312 1.839843 1.445312 2.457031s-.191406 1.753906-1.445312 2.453125c-17.980469 9.992187-26.269531 29.304687-21.113281 49.207031 5.082031 19.617188 22.066406 32.796875 42.261719 32.796875.273437 0 .546874-.003906.878906-.007812 1.414062 0 2.128906.894531 2.429687 1.425781s.699219 1.605469-.035156 2.824219c-8.359375 13.945312-8.664063 29.875-.828125 43.707031 7.957031 14.050781 22.605469 22.777344 38.230469 22.777344 7.863281 0 15.472656-2.171875 22.621093-6.457032 1.175782-.707031 2.582032-.453124 3.484376.464844.523437.53125.78125 1.203125.769531 1.988282-.203125 12.171874 4 22.980468 12.144531 31.265624 8.300781 8.4375 19.976562 13.277344 32.039062 13.273438h.007813c16.058594 0 29.835937-8.226562 37.800781-22.570312.699219-1.257813 1.839844-1.445313 2.457032-1.445313.617187 0 1.757812.191406 2.453124 1.445313 7.96875 14.34375 21.75 22.570312 37.804688 22.570312 12.0625 0 23.742188-4.839844 32.042969-13.28125 8.148437-8.28125 12.347656-19.089844 12.144531-31.257812-.011719-.789063.246094-1.457032.773438-1.992188.898437-.914062 2.304687-1.171875 3.480468-.464844 7.148438 4.285156 14.757813 6.460938 22.617188 6.460938h.007812c15.621094-.003906 30.269532-8.734375 38.226563-22.785156 7.835937-13.832032 7.53125-29.757813-.828125-43.699219-.730469-1.222657-.335938-2.296875-.035156-2.828125.300781-.53125 1.019531-1.421875 2.488281-1.421875h.003906c.277344.003906.542969.003906.820313.003906 20.195312 0 37.179687-13.183594 42.257812-32.800781 5.15625-19.902344-3.132812-39.210938-21.109375-49.199219zm-196.714844-303.734375h47.128907v34.054688c0 4.140624 3.359374 7.5 7.5 7.5 4.144531 0 7.5-3.359376 7.5-7.5v-34.054688h46.449218c.375 0 .679688.304688.679688.679688v151.792968c-.167969-.109375-.328125-.234375-.476563-.382812-.523437-.53125-.78125-1.199219-.769531-1.988282.203125-12.171874-3.996094-22.980468-12.144531-31.261718-8.300781-8.441406-19.980469-13.28125-32.042969-13.28125-.570312 0-1.132812.035156-1.695312.054687v-43.558593c0-4.144532-3.355469-7.5-7.5-7.5-4.144532 0-7.5 3.355468-7.5 7.5v46.78125c-8.753907 3.652343-16.085938 10.253906-21.109376 19.296874-.699218 1.257813-1.839843 1.441407-2.453124 1.441407-.617188 0-1.757813-.1875-2.457032-1.441407-5.023437-9.042968-12.355468-15.644531-21.109375-19.296874zm-62.128906.679688c0-.375.304687-.679688.679687-.679688h46.449219v105.613281c-.5625-.019531-1.125-.050781-1.695312-.050781-12.0625 0-23.742188 4.839844-32.042969 13.277344-8.144531 8.285156-12.34375 19.09375-12.144531 31.261718.011719.789063-.246094 1.457032-.769531 1.988282-.144532.148437-.308594.273437-.476563.386718zm265.433594 348.492187c-2.578125 9.945313-11.390625 21.5625-27.742188 21.5625l-.875-.003906c-6.492187 0-12.28125 3.375-15.484375 9.03125-3.203125 5.652343-3.121094 12.359375.222656 17.933593 5.5 9.175782 5.734376 19.597657.640626 28.59375-5.21875 9.21875-15.101563 15.175782-25.179688 15.175782-5.105469 0-10.121094-1.453125-14.90625-4.324219-2.785156-1.671875-5.945312-2.550781-9.140625-2.550781-4.75 0-9.398437 1.953125-12.75 5.363281-3.351563 3.40625-5.152344 7.9375-5.074219 12.753906.136719 8.058594-2.578125 15.144531-7.839844 20.496094-5.5 5.589844-13.28125 8.796875-21.351562 8.796875-10.445312 0-19.445312-5.414062-24.691406-14.855469-3.136719-5.648437-9.101563-9.160156-15.566406-9.160156-6.460938 0-12.429688 3.511719-15.566407 9.160156-5.246093 9.441407-14.246093 14.855469-24.691406 14.855469-8.070313 0-15.851563-3.203125-21.347656-8.792969-5.265625-5.351562-7.976563-12.441406-7.84375-20.5.082031-4.816406-1.722657-9.347656-5.074219-12.753906-3.351562-3.410156-8-5.363281-12.75-5.363281-3.195312 0-6.351562.878906-9.140625 2.550781-4.785156 2.867187-9.800781 4.324219-14.90625 4.324219-10.074219 0-19.957031-5.953125-25.175781-15.167969-5.097656-9-4.863282-19.421875.640625-28.601563 3.339843-5.574218 3.425781-12.277343.222656-17.933593s-8.992187-9.03125-15.484375-9.03125l-.878906.003906c-16.351563 0-25.164063-11.613281-27.742188-21.554687-2.574218-9.929688-.480468-24.355469 13.875-32.332032 5.652344-3.136718 9.160156-9.105468 9.160156-15.566406 0-6.464844-3.507812-12.429688-9.160156-15.566406-14.355468-7.976563-16.445312-22.402344-13.871094-32.332032 2.574219-9.945312 11.386719-21.558593 27.738282-21.558593l.878906.007812c6.492188 0 12.28125-3.378906 15.484375-9.035156 3.203125-5.652344 3.117187-12.355469-.226563-17.933594-5.5-9.175781-5.734374-19.597656-.636718-28.59375 5.21875-9.21875 15.101562-15.171875 25.175781-15.171875 5.105469 0 10.121094 1.453125 14.90625 4.324219 2.785156 1.667969 5.945313 2.550781 9.140625 2.550781 4.75 0 9.398438-1.957031 12.75-5.363281 3.351562-3.410156 5.152344-7.9375 5.074219-12.757813-.132813-8.054687 2.578125-15.140624 7.839843-20.492187 5.5-5.59375 13.28125-8.800781 21.351563-8.800781 10.445313 0 19.445313 5.417968 24.691406 14.855468 3.136719 5.652344 9.105469 9.160157 15.566407 9.160157 6.464843 0 12.429687-3.507813 15.570312-9.160157 5.242188-9.441406 14.242188-14.855468 24.6875-14.855468 8.070312 0 15.851562 3.207031 21.351562 8.796875 5.265626 5.351562 7.976563 12.4375 7.84375 20.496093-.082031 4.820313 1.71875 9.347657 5.070313 12.753907 3.355469 3.410156 8 5.367187 12.753906 5.367187 3.191407 0 6.351563-.882812 9.140625-2.554687 4.78125-2.867188 9.800782-4.324219 14.90625-4.324219 10.074219 0 19.957032 5.957031 25.179688 15.171875 5.09375 8.996094 4.859375 19.421875-.644532 28.597656-3.339843 5.574219-3.425781 12.277344-.222656 17.933594s8.992188 9.035156 15.484375 9.035156l.878907-.007812c16.351562 0 25.164062 11.613281 27.742187 21.558593 2.570313 9.929688.480469 24.351563-13.878906 32.328126-5.648438 3.140624-9.160157 9.105468-9.160157 15.570312 0 6.460938 3.511719 12.429688 9.160157 15.566406 14.355469 7.972656 16.445312 22.394532 13.875 32.324219zm0 0"/><path d="m195.773438 163.308594c-84.351563 0-152.972657 68.625-152.972657 152.972656s68.625 152.972656 152.972657 152.972656c84.347656 0 152.96875-68.625 152.96875-152.972656s-68.621094-152.972656-152.96875-152.972656zm0 290.941406c-76.078126 0-137.972657-61.894531-137.972657-137.96875 0-76.078125 61.894531-137.972656 137.972657-137.972656 76.078124 0 137.96875 61.894531 137.96875 137.972656s-61.890626 137.96875-137.96875 137.96875zm0 0"/><path d="m195.773438 193.308594c-61.765626 0-114.210938 46.167968-121.988282 107.386718-.523437 4.109376 2.382813 7.863282 6.496094 8.386719 4.109375.53125 7.863281-2.386719 8.382812-6.496093 6.832032-53.746094 52.875-94.277344 107.109376-94.277344 59.535156 0 107.96875 48.4375 107.96875 107.972656s-48.433594 107.972656-107.96875 107.972656c-54.539063 0-100.617188-40.789062-107.183594-94.875-.5-4.113281-4.234375-7.042968-8.347656-6.542968-4.113282.5-7.042969 4.234374-6.542969 8.347656 7.480469 61.609375 59.957031 108.070312 122.074219 108.070312 67.804687 0 122.96875-55.167968 122.96875-122.972656 0-67.808594-55.164063-122.972656-122.96875-122.972656zm0 0"/><path d="m220.46875 319.398438v-9.925782c0-5.777344-4.695312-10.472656-10.472656-10.472656h-28.449219c-5.773437 0-10.472656 4.695312-10.472656 10.472656v9.925782c0 13.617187 11.078125 24.699218 24.699219 24.699218 13.617187 0 24.695312-11.082031 24.695312-24.699218zm-34.394531 0v-5.398438h19.394531v5.398438c0 5.347656-4.347656 9.699218-9.695312 9.699218-5.347657 0-9.699219-4.351562-9.699219-9.699218zm0 0"/><path d="m266.960938 307.320312v-11.355468c0-4.144532-3.355469-7.5-7.5-7.5-4.140626 0-7.5 3.355468-7.5 7.5v11.355468c0 4.140626 3.359374 7.5 7.5 7.5 4.144531 0 7.5-3.359374 7.5-7.5zm0 0"/><path d="m139.582031 307.320312v-11.355468c0-4.144532-3.355469-7.5-7.5-7.5-4.140625 0-7.5 3.355468-7.5 7.5v11.355468c0 4.140626 3.359375 7.5 7.5 7.5 4.144531 0 7.5-3.359374 7.5-7.5zm0 0"/><g fill="#f46262"><path d="m265.140625 336.285156h-11.355469c-4.144531 0-7.5-3.359375-7.5-7.5s3.355469-7.5 7.5-7.5h11.355469c4.140625 0 7.5 3.359375 7.5 7.5s-3.359375 7.5-7.5 7.5zm0 0"/><path d="m137.761719 336.285156h-11.355469c-4.144531 0-7.5-3.359375-7.5-7.5s3.355469-7.5 7.5-7.5h11.355469c4.140625 0 7.5 3.359375 7.5 7.5s-3.359375 7.5-7.5 7.5zm0 0"/></g></svg>