<svg height="512pt" viewBox="-10 0 512 512.00235" width="512pt" xmlns="http://www.w3.org/2000/svg"><path d="m223.285156 11.515625c-34.222656-12.457031-72.0625 5.191406-84.519531 39.414063-6.296875 17.300781-25.425781 26.222656-42.726563 19.921874-34.222656-12.453124-72.066406 5.191407-84.519531 39.414063-12.457031 34.222656 5.1875 72.0625 39.410157 84.519531l31.328124 11.402344 116.753907 42.496094c3.964843 1.441406 8.347656-.601563 9.789062-4.566406l42.496094-116.753907 11.402344-31.328125c12.453125-34.222656-5.191407-72.0625-39.414063-84.519531zm0 0" fill="#f46262"/><path d="m122.277344 187.523438-31.328125-11.402344c-34.222657-12.457032-51.867188-50.296875-39.410157-84.519532 3.46875-9.53125 8.910157-17.769531 15.6875-24.4375-24.519531 2.355469-46.722656 18.410157-55.710937 43.101563-12.453125 34.222656 5.191406 72.0625 39.414063 84.519531l31.328124 11.402344 116.753907 42.496094c3.960937 1.441406 8.34375-.601563 9.789062-4.566406l8.066407-22.164063zm0 0" fill="#d65b5b"/><path d="m228.34375 250.210938-37.226562 17.355468c-9.171876 4.277344-20.070313.3125-24.347657-8.859375-4.273437-9.167969-.308593-20.070312 8.863281-24.347656l37.226563-17.359375c9.167969-4.273438 20.070313-.308594 24.34375 8.863281 4.277344 9.167969.3125 20.070313-8.859375 24.347657zm0 0" fill="#ff737d"/><path d="m481.433594 142.820312c-12.457032-34.222656-50.296875-51.867187-84.519532-39.414062-17.300781 6.296875-36.433593-2.625-42.730468-19.925781-12.457032-34.222657-50.296875-51.867188-84.519532-39.410157-34.222656 12.457032-51.867187 50.296876-39.410156 84.519532l11.402344 31.328125 42.496094 116.753906c1.441406 3.960937 5.824218 6.003906 9.789062 4.5625l116.753906-42.496094 31.328126-11.402343c34.222656-12.453126 51.867187-50.292969 39.410156-84.515626zm0 0" fill="#ffde55"/><path d="m281.675781 178.578125-11.402343-31.328125c-12.457032-34.222656 5.191406-72.0625 39.414062-84.519531 9.53125-3.46875 19.339844-4.597657 28.804688-3.6875-17.5625-17.273438-44.136719-23.960938-68.828126-14.972657-34.222656 12.457032-51.867187 50.296876-39.410156 84.519532l11.402344 31.328125 42.496094 116.753906c1.441406 3.960937 5.824218 6.003906 9.789062 4.5625l22.164063-8.066406zm0 0" fill="#ffcd00"/><path d="m301.835938 300.121094-37.226563-17.359375c-9.171875-4.273438-13.136719-15.175781-8.863281-24.34375 4.277344-9.167969 15.175781-13.136719 24.347656-8.863281l37.226562 17.359374c9.167969 4.277344 13.136719 15.175782 8.863282 24.347657-4.277344 9.167969-15.179688 13.136719-24.347656 8.859375zm0 0" fill="#ffeb99"/><path d="m488.480469 140.253906c-6.707031-18.433594-20.195313-33.152344-37.972657-41.441406-17.78125-8.292969-37.726562-9.164062-56.160156-2.453125-13.386718 4.875-28.242187-2.054687-33.117187-15.441406-6.707031-18.433594-20.191407-33.152344-37.972657-41.445313-17.777343-8.289062-37.722656-9.160156-56.160156-2.449218-.722656.261718-1.433594.554687-2.148437.839843-8.542969-15.371093-22.457031-27.339843-39.097657-33.394531-18.4375-6.710938-38.378906-5.839844-56.15625 2.453125-17.78125 8.289063-31.265624 23.007813-37.976562 41.441406-4.875 13.386719-19.730469 20.316407-33.117188 15.441407-18.4375-6.707032-38.378906-5.839844-56.15625 2.453124-17.78125 8.289063-31.265624 23.007813-37.976562 41.441407-6.710938 18.433593-5.839844 38.378906 2.453125 56.15625 8.289063 17.78125 23.007813 31.265625 41.441406 37.976562l35.917969 13.074219c.847656.304688 1.710938.453125 2.5625.453125 3.066406 0 5.941406-1.894531 7.050781-4.9375 1.414063-3.894531-.59375-8.195313-4.484375-9.613281l-35.917968-13.074219c-14.667969-5.335937-26.382813-16.070313-32.976563-30.21875-6.597656-14.148437-7.289063-30.015625-1.949219-44.6875 5.335938-14.667969 16.070313-26.378906 30.21875-32.976563 14.144532-6.597656 30.015625-7.289062 44.6875-1.949218 21.160156 7.699218 44.640625-3.25 52.339844-24.410156 5.339844-14.667969 16.070312-26.378907 30.222656-32.976563 14.144532-6.597656 30.015625-7.289063 44.683594-1.949219 13.335938 4.851563 24.121094 14.054688 30.933594 26.230469-11.199219 7.390625-20.179688 17.734375-25.996094 30.199219-8.289062 17.78125-9.160156 37.722656-2.449219 56.160156l9.363281 25.726562-18.867187 51.835938c-1.367187.382812-2.707031.875-4.015625 1.488281l-37.226562 17.359375c-1.316407.613282-2.550782 1.328125-3.710938 2.121094l-52.417969-19.078125c-3.898437-1.417969-8.199219.589844-9.613281 4.480469-1.417969 3.894531.589844 8.199218 4.480469 9.613281l47.921875 17.441406c-2.261719 6.210938-2.15625 13.285157.851562 19.734375 4.222656 9.058594 13.414063 14.910156 23.410156 14.910156 3.785157 0 7.453126-.8125 10.902344-2.421874l11.816406-5.507813 5.074219 10.882813c4.515625 9.683593 2.210938 16.375-.707031 24.847656-3.207031 9.308594-7.195312 20.894531-.117188 36.070312 2.25 4.824219 4.9375 8.558594 7.855469 11.519532-2.917969 11.492187.25 20.707031 2.890625 28.375 2.917969 8.472656 5.222656 15.164062.707032 24.847656-4.515626 9.6875-11.125 12.222656-19.488282 15.433594-9.148437 3.511718-20.523437 7.878906-27.609375 22.878906l-10.851562 19.941406c-1.980469 3.636719-.636719 8.191406 3.003906 10.171875 1.136719.621094 2.367187.914063 3.578125.914063 2.65625 0 5.230469-1.417969 6.59375-3.914063l10.960938-20.140625c.074218-.136719.144531-.273438.207031-.414062 4.519531-9.6875 11.125-12.222657 19.492187-15.433594 9.191406-3.527344 20.632813-7.917969 27.707032-23.097656 7.078124-15.175782 3.089843-26.761719-.117188-36.070313-1.75-5.074219-3.265625-9.515625-3.238281-14.339844 2.0625.90625 4.089843 1.6875 6.015625 2.425781 8.367187 3.210938 14.972656 5.746094 19.492187 15.429688 4.515625 9.6875 2.210938 16.378906-.707031 24.851562-3.207031 9.308594-7.195312 20.894532-.117188 36.074219 7.074219 15.175781 18.515626 19.566407 27.707032 23.097657 8.367187 3.210937 14.976562 5.746093 19.492187 15.429687.058594.132813.125.261719.191407.390625l15.648437 29.027344c1.351563 2.515625 3.9375 3.945312 6.605469 3.945312 1.203125 0 2.421875-.292968 3.554687-.902344 3.644531-1.964843 5.007813-6.511718 3.042969-10.15625l-15.546875-28.847656c-7.085937-15.011718-18.460937-19.378906-27.613281-22.890625-8.367188-3.210937-14.972656-5.746093-19.488282-15.433593-4.519531-9.683594-2.210937-16.375.703126-24.851563 3.207031-9.308594 7.195312-20.894531.117187-36.074219-7.074219-15.175781-18.515625-19.566406-27.707031-23.09375-2.386719-.917968-4.621094-1.78125-6.714844-2.769531 4.367188-6.597656 10.214844-8.859375 17.34375-11.59375 9.191406-3.527344 20.632812-7.917969 27.710938-23.09375l5.074218-10.886719 11.816406 5.511719c3.449219 1.605469 7.117188 2.421875 10.902344 2.421875 9.996094 0 19.1875-5.851562 23.410156-14.910156 2.914063-6.25 3.222657-13.261719.863282-19.738282l43.808594-15.945312c3.890624-1.417969 5.898437-5.71875 4.480468-9.613281-1.414062-3.890625-5.71875-5.898438-9.609375-4.480469l-48.34375 17.59375c-1.164062-.796875-2.382812-1.523438-3.6875-2.128906l-37.226562-17.359375c-1.308594-.609375-2.648438-1.105469-4.015625-1.488281l-41.945313-115.246094c-5.339843-14.671875-4.648437-30.542969 1.949219-44.6875 6.597656-14.148438 18.308594-24.882813 32.976562-30.222656 14.671876-5.335938 30.539063-4.644532 44.6875 1.953124 14.148438 6.597657 24.882813 18.308594 30.21875 32.976563 7.703126 21.160156 31.175782 32.109375 52.34375 24.410156 14.671876-5.339843 30.539063-4.648437 44.6875 1.949219 14.148438 6.597656 24.878907 18.308594 30.21875 32.980469 5.339844 14.667969 4.644532 30.539062-1.949218 44.683593-6.597656 14.148438-18.308594 24.882813-32.980469 30.21875l-39.410156 14.347657c-3.890625 1.414062-5.898438 5.71875-4.480469 9.609375 1.414062 3.890625 5.714844 5.902344 9.609375 4.484375l39.414063-14.34375c18.433593-6.710938 33.148437-20.195313 41.441406-37.976563 8.292968-17.777344 9.164062-37.722656 2.453125-56.15625zm-281.851563 111.804688c-.023437.011718-.046875.019531-.070312.03125-.023438.007812-.046875.023437-.070313.035156l-18.542969 8.644531c-1.449218.675781-2.984374 1.019531-4.5625 1.019531-4.191406 0-8.046874-2.453124-9.816406-6.25-2.523437-5.410156-.175781-11.859374 5.234375-14.382812l37.226563-17.359375c1.449218-.675781 2.980468-1.015625 4.5625-1.015625 4.191406 0 8.046875 2.453125 9.816406 6.25 2.523438 5.40625.175781 11.859375-5.234375 14.378906zm65.734375 3.273437c1.578125 0 3.109375.34375 4.5625 1.019531l37.226563 17.359376c2.617187 1.222656 4.605468 3.390624 5.59375 6.105468.988281 2.71875.859375 5.65625-.359375 8.273438-1.769531 3.800781-5.625 6.253906-9.816407 6.253906-1.578124 0-3.113281-.34375-4.5625-1.019531l-37.226562-17.359375c-5.410156-2.523438-7.757812-8.972656-5.234375-14.378906 1.769531-3.796876 5.621094-6.253907 9.816406-6.253907zm-31.8125-76.523437 22.96875 63.105468c-6.320312 2.316407-11.640625 7.050782-14.566406 13.332032-6.019531 12.902344-.417969 28.296875 12.484375 34.3125l11.820312 5.511718-5.078124 10.886719c-4.515626 9.683594-11.125 12.21875-19.488282 15.429688-7.46875 2.863281-16.421875 6.300781-23.3125 15.628906-.496094-.835937-.976562-1.71875-1.433594-2.695313-4.515624-9.683593-2.210937-16.375.707032-24.847656 3.207031-9.308594 7.195312-20.894531.121094-36.070312l-5.078126-10.886719 11.820313-5.507813c12.902344-6.019531 18.503906-21.410156 12.484375-34.3125-2.929688-6.285156-8.25-11.019531-14.566406-13.335937zm0 0"/></svg>