<svg height="512pt" viewBox="-70 0 511 512" width="512pt" xmlns="http://www.w3.org/2000/svg"><path d="m256.996094 477.425781-20.945313-89.648437 124.382813-186.605469h-349.234375l124.382812 186.605469-20.945312 89.648437c-2.921875 12.511719 5.34375 25.175781 18.078125 26.890625.886718.117188 1.84375.183594 2.890625.183594 12.554687 0 12.554687-9.375 25.105469-9.375 12.554687 0 12.554687 9.375 25.105468 9.375 12.550782 0 12.550782-9.375 25.105469-9.375 12.550781 0 12.550781 9.375 25.105469 9.375 1.046875 0 2.003906-.066406 2.894531-.183594 12.730469-1.71875 20.996094-14.378906 18.074219-26.890625zm0 0" fill="#bdebff"/><path d="m182.457031 387.777344-124.382812-186.605469h-46.875l124.382812 186.605469-20.945312 89.648437c-2.921875 12.511719 5.34375 25.175781 18.078125 26.890625.886718.117188 1.84375.183594 2.890625.183594 11.300781 0 12.433593-7.597656 21.707031-9.109375zm0 0" fill="#92d8ff"/><path d="m11.199219 201.171875 34.371093 51.5625h280.496094l34.367188-51.5625zm0 0" fill="#92d8ff"/><path d="m356.152344 224.609375h-340.671875c-4.128907 0-7.476563-3.347656-7.476563-7.476563v-51.917968c0-4.132813 3.347656-7.480469 7.476563-7.480469h340.671875c4.132812 0 7.480468 3.351563 7.480468 7.480469v51.917968c0 4.128907-3.347656 7.476563-7.480468 7.476563zm0 0" fill="#d7f3ff"/><path d="m54.878906 217.132812v-51.917968c0-4.132813 3.347656-7.480469 7.476563-7.480469h-46.875c-4.128907 0-7.480469 3.351563-7.480469 7.480469v51.917968c0 4.128907 3.351562 7.476563 7.480469 7.476563h46.875c-4.128907 0-7.476563-3.347656-7.476563-7.476563zm0 0" fill="#bdebff"/><path d="m108.433594 70.960938c4.546875 7.882812 12.957031 12.734374 22.054687 12.734374 19.609375 0 31.863281 21.226563 22.058594 38.207032-4.550781 7.878906-4.550781 17.589844 0 25.46875 9.800781 16.980468-2.453125 38.207031-22.058594 38.207031-9.097656 0-17.507812 4.855469-22.054687 12.734375-9.804688 16.980469-34.3125 16.980469-44.117188 0-4.550781-7.878906-12.957031-12.734375-22.054687-12.734375-19.609375 0-31.863281-21.226563-22.058594-38.207031 4.550781-7.878906 4.550781-17.589844 0-25.46875-9.804687-16.980469 2.449219-38.207032 22.058594-38.207032 9.097656 0 17.507812-4.851562 22.054687-12.734374 9.804688-16.980469 34.3125-16.980469 44.117188 0zm0 0" fill="#ff8da3"/><path d="m307.316406 70.960938c4.550782 7.882812 12.957032 12.734374 22.058594 12.734374 19.605469 0 31.859375 21.226563 22.054688 38.207032-4.546876 7.878906-4.546876 17.589844 0 25.46875 9.804687 16.980468-2.449219 38.207031-22.054688 38.207031-9.101562 0-17.507812 4.855469-22.058594 12.734375-9.800781 16.980469-34.3125 16.980469-44.113281 0-4.550781-7.878906-12.960937-12.734375-22.058594-12.734375-19.605469 0-31.859375-21.226563-22.054687-38.207031 4.546875-7.878906 4.546875-17.589844 0-25.46875-9.804688-16.980469 2.449218-38.207032 22.054687-38.207032 9.097657 0 17.507813-4.851562 22.058594-12.734374 9.804687-16.980469 34.3125-16.980469 44.113281 0zm0 0" fill="#ff8da3"/><path d="m243.585938 408.40625h-115.535157c-2.972656 0-5.570312-2.007812-6.316406-4.882812l-8.796875-33.828126c-1.074219-4.132812 2.046875-8.167968 6.316406-8.167968h133.128906c4.269532 0 7.386719 4.035156 6.3125 8.167968l-8.792968 33.828126c-.75 2.875-3.34375 4.882812-6.316406 4.882812zm0 0" fill="#f46262"/><path d="m159.234375 403.523438-8.792969-33.828126c-1.078125-4.132812 2.042969-8.167968 6.3125-8.167968h-37.5c-4.269531 0-7.390625 4.035156-6.316406 8.167968l8.796875 33.828126c.746094 2.875 3.34375 4.882812 6.316406 4.882812h37.5c-2.972656 0-5.570312-2.007812-6.316406-4.882812zm0 0" fill="#d65b5b"/><path d="m111.679688 134.636719c0 13.976562-11.332032 25.304687-25.304688 25.304687-13.976562 0-25.304688-11.328125-25.304688-25.304687 0-13.976563 11.328126-25.304688 25.304688-25.304688 13.972656 0 25.304688 11.328125 25.304688 25.304688zm0 0" fill="#ffde55"/><path d="m310.566406 134.636719c0 13.976562-11.332031 25.304687-25.304687 25.304687-13.976563 0-25.308594-11.328125-25.308594-25.304687 0-13.976563 11.332031-25.304688 25.308594-25.304688 13.972656 0 25.304687 11.328125 25.304687 25.304688zm0 0" fill="#ffde55"/><path d="m234.253906 391.996094h-96.875c-3.882812 0-7.03125-3.144532-7.03125-7.027344s3.148438-7.03125 7.03125-7.03125h96.875c3.882813 0 7.03125 3.148438 7.03125 7.03125s-3.148437 7.027344-7.03125 7.027344zm0 0" fill="#d65b5b"/><path d="m213.773438 23.640625c5.769531 9.992187 16.425781 16.144531 27.960937 16.144531 24.851563 0 40.382813 26.902344 27.957031 48.425782-5.765625 9.988281-5.765625 22.292968 0 32.28125 12.425782 21.523437-3.105468 48.425781-27.957031 48.425781-11.535156 0-22.191406 6.152343-27.960937 16.140625-12.425782 21.523437-43.488282 21.523437-55.914063 0-5.769531-9.988282-16.425781-16.140625-27.960937-16.140625-24.851563 0-40.382813-26.902344-27.957032-48.425781 5.769532-9.988282 5.769532-22.292969 0-32.28125-12.425781-21.523438 3.105469-48.425782 27.957032-48.425782 11.535156 0 22.195312-6.152344 27.960937-16.144531 12.425781-21.523437 43.488281-21.523437 55.914063 0zm0 0" fill="#ffa5b5"/><path d="m219.484375 104.351562c0 18.59375-15.074219 33.667969-33.667969 33.667969s-33.667968-15.074219-33.667968-33.667969 15.074218-33.667968 33.667968-33.667968 33.667969 15.074218 33.667969 33.667968zm0 0" fill="#ffde55"/><path d="m361.101562 151.09375c-.742187-2.566406-1.789062-5.074219-3.175781-7.472656-3.199219-5.542969-3.199219-12.425782 0-17.96875 5.960938-10.324219 5.960938-22.644532 0-32.96875-5.957031-10.324219-16.632812-16.488282-28.550781-16.488282-6.398438 0-12.363281-3.441406-15.5625-8.984374-7.675781-13.292969-23.5-19.25-37.722656-15.191407-7.210938-12.359375-20.035156-19.734375-34.355469-19.734375-8.828125 0-17.050781-4.75-21.464844-12.394531-7.191406-12.453125-20.070312-19.890625-34.453125-19.890625-14.382812 0-27.261718 7.4375-34.453125 19.890625-4.414062 7.644531-12.636719 12.394531-21.464843 12.394531-14.320313 0-27.144532 7.375-34.355469 19.734375-14.222657-4.058593-30.046875 1.898438-37.722657 15.191407-3.199218 5.542968-9.160156 8.984374-15.5625 8.984374-11.917968 0-22.59375 6.164063-28.550781 16.488282-5.960937 10.320312-5.960937 22.644531 0 32.96875 3.199219 5.542968 3.199219 12.425781 0 17.96875-1.386719 2.398437-2.433593 4.90625-3.175781 7.472656-5.832031 2.046875-10.03125 7.597656-10.03125 14.121094v51.917968c0 8.257813 6.71875 14.976563 14.980469 14.976563h7.328125l85.117187 127.703125c-2.484375 3.40625-3.3125 7.667969-2.246093 11.769531l8.796874 33.824219c1.03125 3.976562 3.714844 7.171875 7.191407 8.953125l-14.332031 61.359375c-1.914063 8.179688-.273438 16.839844 4.496093 23.753906 4.636719 6.722656 11.882813 11.199219 19.878907 12.273438 1.238281.167968 2.550781.253906 3.894531.253906 8.769531 0 13.550781-3.570312 17.042969-6.179688 2.757812-2.0625 4.277343-3.195312 8.0625-3.195312 3.785156 0 5.304687 1.132812 8.0625 3.195312 3.492187 2.609376 8.277343 6.179688 17.042968 6.179688 8.769532 0 13.546875-3.570312 17.039063-6.179688 2.761719-2.058593 4.28125-3.195312 8.0625-3.195312 3.785156 0 5.304687 1.136719 8.066406 3.195312 3.488281 2.609376 8.273437 6.179688 17.039063 6.179688 1.34375 0 2.652343-.085938 3.898437-.253906 7.996094-1.074219 15.242187-5.550782 19.878906-12.273438 4.769531-6.917968 6.410157-15.574218 4.5-23.753906l-14.335937-61.359375c3.476562-1.777344 6.160156-4.972656 7.195312-8.949219l8.792969-33.828125c1.066406-4.097656.238281-8.359375-2.246094-11.769531l40.402344-60.617188c2.296875-3.445312 1.367187-8.101562-2.078125-10.398437-3.449219-2.296875-8.105469-1.367187-10.402344 2.082031l-42.09375 63.152344h-49.71875c-4.140625 0-7.5 3.355469-7.5 7.5 0 4.140625 3.359375 7.5 7.5 7.5h51.300782l-8.285157 31.875h-44.03125c-.023437 0-.042969 0-.066406 0h-25.820313c-.035156 0-.070312 0-.101562 0h-44.007812l-8.289063-31.875h52.277344c4.144531 0 7.5-3.359375 7.5-7.5 0-4.144531-3.355469-7.5-7.5-7.5h-50.691407l-81.265624-121.921875h289.964843l-23.777343 35.671875c-2.296876 3.445312-1.363282 8.101562 2.082031 10.398438 1.277343.851562 2.722656 1.261718 4.152343 1.261718 2.425782 0 4.804688-1.175781 6.25-3.34375l29.316407-43.988281h7.328125c8.261718 0 14.980468-6.71875 14.980468-14.980469v-51.914062c0-6.523438-4.199218-12.074219-10.03125-14.121094zm-224.386718 264.8125h25.769531l-11.160156 34.503906c-1.273438 3.941406.890625 8.171875 4.828125 9.445313.769531.25 1.546875.367187 2.3125.367187 3.164062 0 6.105468-2.019531 7.132812-5.195312l12.652344-39.121094h15.136719l12.652343 39.121094c1.023438 3.175781 3.96875 5.195312 7.132813 5.195312.765625 0 1.542969-.121094 2.308594-.367187 3.941406-1.273438 6.105469-5.503907 4.828125-9.445313l-11.15625-34.503906h25.769531l14.773437 63.226562c.949219 4.070313.132813 8.382813-2.242187 11.824219-2.273437 3.300781-5.660156 5.402344-9.53125 5.925781-.582031.078126-1.21875.117188-1.894531.117188-3.785156 0-5.304688-1.132812-8.0625-3.195312-3.492188-2.609376-8.273438-6.179688-17.042969-6.179688s-13.550781 3.570312-17.039063 6.179688c-2.761718 2.058593-4.28125 3.195312-8.066406 3.195312s-5.304687-1.136719-8.0625-3.195312c-3.492187-2.609376-8.273437-6.179688-17.042968-6.179688-8.765626 0-13.546876 3.570312-17.039063 6.179688-2.761719 2.058593-4.28125 3.195312-8.066406 3.195312-.675781 0-1.3125-.039062-1.890625-.117188-3.871094-.523437-7.257813-2.625-9.53125-5.921874-2.375-3.445313-3.191406-7.757813-2.242188-11.828126zm-28.277344-331.445312c-4.480469-7.761719-4.480469-17.027344 0-24.785157 4.476562-7.757812 12.503906-12.390625 21.460938-12.390625 14.167968 0 27.371093-7.625 34.457031-19.894531 4.480469-7.757813 12.5-12.390625 21.460937-12.390625 8.960938 0 16.984375 4.632812 21.464844 12.394531 7.082031 12.265625 20.285156 19.890625 34.453125 19.890625 8.960937 0 16.984375 4.632813 21.464844 12.390625 4.476562 7.757813 4.476562 17.023438-.003907 24.785157-7.082031 12.269531-7.082031 27.511718 0 39.78125 4.480469 7.761718 4.480469 17.023437.003907 24.785156-4.480469 7.757812-12.503907 12.390625-21.464844 12.390625-14.167969 0-27.371094 7.621093-34.453125 19.890625-4.480469 7.761718-12.503906 12.394531-21.464844 12.394531-8.960937 0-16.980468-4.632813-21.460937-12.394531-7.085938-12.269532-20.289063-19.890625-34.457031-19.890625-8.957032 0-16.980469-4.632813-21.460938-12.394531-4.480469-7.757813-4.480469-17.023438 0-24.78125 7.082031-12.269532 7.082031-27.511719 0-39.78125zm-81.269531 132.667968c-.230469-.011718-.460938-.011718-.695313 0l-10.972656.003906-.015625-37.804687c6.171875 8.65625 15.957031 13.75 26.777344 13.75 6.398437 0 12.359375 3.441406 15.5625 8.984375 4.289062 7.433594 11.035156 12.695312 18.921875 15.066406zm43.644531-22.566406c-5.871094-10.167969-16.8125-16.488281-28.554688-16.488281-6.496093 0-12.3125-3.355469-15.5625-8.984375-3.246093-5.625-3.246093-12.34375 0-17.96875 5.871094-10.167969 5.871094-22.800782 0-32.96875-3.246093-5.625-3.246093-12.34375 0-17.96875 3.25-5.625 9.066407-8.984375 15.5625-8.984375 11.742188 0 22.683594-6.316407 28.554688-16.484375 4.421875-7.660156 12.738281-10.039063 19.699219-8.484375-1.320313 8.71875.3125 17.722656 4.933593 25.730469 2.191407 3.792968 3.292969 8.042968 3.308594 12.296874-3.894531-1.585937-8.085937-2.425781-12.378906-2.425781-18.089844 0-32.804688 14.71875-32.804688 32.804688 0 18.089843 14.714844 32.804687 32.804688 32.804687 5.09375 0 10.109375-1.199218 14.628906-3.445312 7.402344 7.890625 17.6875 12.425781 28.898438 12.425781 2.105468 0 4.171875.277344 6.164062.792969-1.765625.566406-3.640625.863281-5.578125.863281-11.738281 0-22.679687 6.316406-28.550781 16.484375-3.25 5.628906-9.066406 8.988281-15.5625 8.988281-6.496094-.003906-12.316406-3.363281-15.5625-8.988281zm22.070312-43.355469c-2.046874.804688-4.238281 1.234375-6.507812 1.234375-9.820312 0-17.808594-7.988281-17.808594-17.804687 0-9.816407 7.988282-17.804688 17.808594-17.804688 2.8125 0 5.546875.660157 8.007812 1.898438-5.203124 10.265625-5.699218 21.941406-1.5 32.476562zm3.125 65.917969c7.882813-2.371094 14.628907-7.628906 18.917969-15.0625 3.203125-5.542969 9.164063-8.988281 15.5625-8.988281 7.179688 0 13.921875-2.226563 19.507813-6.355469.484375.675781.949218 1.367188 1.367187 2.089844 7.191407 12.457031 20.070313 19.894531 34.453125 19.894531 14.382813 0 27.261719-7.4375 34.453125-19.894531.417969-.722656.878907-1.410156 1.363281-2.078125 5.570313 4.125 12.292969 6.34375 19.511719 6.34375 6.402344 0 12.363281 3.445312 15.566407 8.988281 4.28125 7.421875 11.011718 12.675781 18.882812 15.050781zm173.691407-22.5625c-5.871094-10.167969-16.8125-16.488281-28.554688-16.488281-1.941406 0-3.816406-.296875-5.582031-.863281 1.996094-.515626 4.066406-.792969 6.171875-.792969 11.210937 0 21.492187-4.535157 28.894531-12.425781 4.519532 2.25 9.542969 3.449218 14.632813 3.449218 18.085937 0 32.804687-14.714844 32.804687-32.804687 0-18.085938-14.71875-32.804688-32.804687-32.804688-4.292969 0-8.488281.839844-12.378907 2.425781.015626-4.253906 1.113282-8.503906 3.304688-12.296874 4.621094-8.007813 6.257812-17.007813 4.9375-25.726563 6.960938-1.554687 15.277344.824219 19.699219 8.480469 5.871093 10.167968 16.8125 16.484375 28.550781 16.484375 6.496094 0 12.316406 3.359375 15.5625 8.984375 3.25 5.625 3.25 12.34375 0 17.96875-5.871094 10.167968-5.871094 22.800781 0 32.96875 3.25 5.625 3.25 12.34375 0 17.96875-3.246094 5.628906-9.066406 8.984375-15.5625 8.984375-11.738281 0-22.679688 6.316406-28.550781 16.488281-3.25 5.625-9.066407 8.984375-15.5625 8.984375-6.5 0-12.316407-3.359375-15.5625-8.984375zm7.554687-75.828125c2.460938-1.242187 5.191406-1.902344 8.003906-1.902344 9.820313 0 17.808594 7.988281 17.808594 17.804688 0 9.816406-7.988281 17.804687-17.808594 17.804687-2.269531 0-4.457031-.429687-6.503906-1.234375 4.199219-10.539062 3.699219-22.210937-1.5-32.472656zm67.542969 98.375c-.015625 0-.03125 0-.042969 0l-49.824218.003906c7.871093-2.375 14.597656-7.628906 18.882812-15.050781 3.199219-5.542969 9.164062-8.984375 15.5625-8.984375 10.8125 0 20.59375-5.085937 26.765625-13.738281l.011719 37.769531zm0 0"/><path d="m185.816406 145.519531c22.699219 0 41.167969-18.46875 41.167969-41.167969 0-22.699218-18.46875-41.167968-41.167969-41.167968-22.699218 0-41.167968 18.46875-41.167968 41.167968 0 22.699219 18.46875 41.167969 41.167968 41.167969zm0-67.335937c14.429688 0 26.167969 11.738281 26.167969 26.167968 0 14.425782-11.738281 26.167969-26.167969 26.167969-14.429687 0-26.167968-11.738281-26.167968-26.167969 0-14.429687 11.738281-26.167968 26.167968-26.167968zm0 0"/></svg>