<svg height="512pt" viewBox="0 0 512 512" width="512pt" xmlns="http://www.w3.org/2000/svg"><path d="m7.511719 125.996094v84.890625c-.003907.683593-.003907 1.371093 0 2.054687v1.027344h.011719c.511718 30.113281 12.25 60.070312 35.230468 83.050781l43.023438 43.027344 160.359375 160.355469c5.445312 5.445312 14.269531 5.445312 19.714843 0l160.359376-160.355469 43.023437-43.027344c22.980469-22.980469 34.71875-52.9375 35.230469-83.054687h.035156v-87.96875zm0 0" fill="#d65b5b"/><path d="m7.511719 125.996094v84.890625c-.003907.683593-.003907 1.371093 0 2.054687v1.027344h.011719c.511718 30.113281 12.25 60.070312 35.230468 83.050781l43.023438 43.027344 160.359375 160.355469c2.722656 2.722656 6.289062 4.085937 9.855469 4.085937v-378.492187zm0 0" fill="#bf4c4c"/><path d="m87.847656 342.113281 74.300782 74.300781v-290.417968h-74.300782zm0 0" fill="#ffcd00"/><path d="m469.234375 42.753906c-47.003906-47.003906-123.210937-47.003906-170.214844 0l-43.027343 43.027344-43.023438-43.027344c-47.003906-47.003906-123.210938-47.003906-170.214844 0s-47.003906 123.210938 0 170.214844l43.027344 43.023438 160.355469 160.359374c5.445312 5.445313 14.269531 5.445313 19.714843 0l160.355469-160.359374 43.027344-43.023438c47.003906-47.003906 47.003906-123.210938 0-170.214844zm0 0" fill="#f46262"/><path d="m87.847656 14.320312v243.742188l74.300782 74.300781v-319.898437c-24.265626-7.1875-50.347657-6.566406-74.300782 1.855468zm0 0" fill="#ffde55"/><path d="m424.140625 342.113281-74.300781 74.300781v-290.417968h74.300781zm0 0" fill="#ffde55"/><path d="m424.140625 14.320312v243.742188l-74.300781 74.300781v-319.898437c24.265625-7.1875 50.347656-6.566406 74.300781 1.855468zm0 0" fill="#ffeb99"/><path d="m361.613281 90.980469c-40.171875 0-105.621093 45.988281-105.621093 45.988281s-65.445313-45.988281-105.617188-45.988281c-40.175781 0-40.175781 175.441406 0 175.441406 40.171875 0 105.617188-45.992187 105.617188-45.992187s65.449218 45.992187 105.621093 45.992187c40.175781 0 40.175781-175.441406 0-175.441406zm0 0" fill="#ffde55"/><path d="m150.375 90.980469c-40.175781 0-40.175781 175.441406 0 175.441406 40.171875 0 105.617188-45.992187 105.617188-45.992187v-83.460938s-65.445313-45.988281-105.617188-45.988281zm0 0" fill="#ffcd00"/><path d="m255.992188 252.238281c-30.132813 0-54.5625-24.429687-54.5625-54.5625v-37.953125c0-30.132812 24.429687-54.5625 54.5625-54.5625 30.136718 0 54.566406 24.429688 54.566406 54.5625v37.953125c0 30.132813-24.429688 54.5625-54.566406 54.5625zm0 0" fill="#ffeb99"/><path d="m231.429688 197.675781v-37.953125c0-24.929687 16.726562-45.9375 39.5625-52.457031-4.765626-1.363281-9.792969-2.105469-15-2.105469-30.132813 0-54.5625 24.429688-54.5625 54.5625v37.953125c0 30.132813 24.429687 54.5625 54.5625 54.5625 5.203124 0 10.234374-.742187 15-2.105469-22.835938-6.519531-39.5625-27.527343-39.5625-52.457031zm0 0" fill="#ffde55"/><path d="m511.890625 124.765625c-.761719-31.703125-13.210937-63.175781-37.351563-87.316406-24.148437-24.148438-56.257812-37.449219-90.410156-37.449219-12.285156 0-24.304687 1.730469-35.78125 5.058594-.371094.074218-.726562.183594-1.074218.308594-20.019532 5.996093-38.363282 16.890624-53.554688 32.082031l-37.726562 37.722656-37.722657-37.722656c-15.175781-15.179688-33.5-26.066407-53.5-32.066407-.375-.140624-.757812-.253906-1.160156-.335937-11.46875-3.320313-23.476563-5.046875-35.75-5.046875-34.152344 0-66.261719 13.300781-90.410156 37.449219-23.644531 23.644531-36.878907 54.921875-37.4218752 88.273437-.0039063.09375-.015625.183594-.015625.273438v.859375c0 .335937-.0117188.667969-.0117188 1.003906s.0117188.671875.0117188 1.003906v81.957031c-.0039063.730469-.0039063 1.457032 0 2.121094v1.027344c0 .191406.0078124.382812.0195312.570312.679688 33.164063 13.953125 64.320313 37.417969 87.785157l45.089843 45.089843s.003907.003907.003907.003907l74.300781 74.300781s0 0 .003906.003906l83.984375 83.984375c3.980469 3.980469 9.25 6.191407 14.867188 6.265625.097656.003906.195312.015625.292969.015625.089843 0 .179687-.011719.269531-.011719 5.625-.070312 10.90625-2.28125 14.890625-6.269531l203.386718-203.382812c23.386719-23.386719 36.65625-54.421875 37.40625-87.464844.035157-.292969.054688-.589844.054688-.890625v-87.972656c0-.417969-.042969-.828125-.109375-1.230469zm-47.957031 82.898437-32.292969 32.289063v-214.523437c11.855469 5.507812 22.773437 13.109374 32.292969 22.625 44.003906 44.003906 44.003906 115.605468 0 159.609374zm-47.292969-187.929687v235.21875l-59.300781 59.304687v-40.496093c1.457031.09375 2.890625.160156 4.273437.160156 30.878907 0 36.339844-61.886719 37.277344-80.851563.207031-4.136718-2.980469-7.65625-7.121094-7.859374-4.128906-.210938-7.65625 2.980468-7.859375 7.117187-2.140625 43.253906-13.085937 66.59375-22.296875 66.59375-2.871093 0-6-.285156-9.347656-.820313-.699219-.238281-1.445313-.378906-2.222656-.398437-13.03125-2.460937-29.308594-8.6875-48.050781-18.410156 8.308593-9.171875 13.898437-20.835938 15.542968-33.714844l37.699219 28.582031c1.355469 1.027344 2.949219 1.523438 4.527344 1.523438 2.265625 0 4.507812-1.023438 5.980469-2.96875 2.503906-3.300782 1.855468-8.003906-1.445313-10.507813l-46.238281-35.058593v-16.894532l46.238281-35.058594c3.300781-2.503906 3.949219-7.207031 1.445313-10.507812-2.503907-3.300781-7.203126-3.953125-10.507813-1.445312l-37.699219 28.582031c-1.644531-12.882813-7.234375-24.546875-15.542968-33.71875 24.777343-12.855469 45.269531-19.625 59.621093-19.625 9.210938 0 20.15625 23.339843 22.296875 66.589843.199219 4.011719 3.511719 7.128907 7.484375 7.128907.125 0 .25-.003907.375-.007813 4.136719-.207031 7.324219-3.722656 7.121094-7.863281-.9375-18.964844-6.398437-80.847656-37.277344-80.847656-1.386719 0-2.816406.0625-4.273437.15625v-65.449219c8.667968-2.097656 17.644531-3.1875 26.789062-3.1875 11.175782 0 22.101563 1.617188 32.511719 4.734375zm0 256.433594v62.839843l-59.300781 59.300782v-62.839844zm-254.695313-18.464844c-.773437.019531-1.523437.160156-2.222656.398437-3.347656.535157-6.476562.820313-9.347656.820313-10.929688 0-22.632812-32.234375-22.632812-80.222656 0-21.9375 2.628906-43.117188 7.207031-58.117188 4.226562-13.839843 9.992187-22.101562 15.425781-22.101562 14.351562 0 34.84375 6.769531 59.621094 19.625-8.308594 9.171875-13.898438 20.835937-15.542969 33.71875l-37.699219-28.585938c-3.304687-2.5-8.007812-1.851562-10.511718 1.445313-2.5 3.300781-1.851563 8.007812 1.445312 10.507812l46.242188 35.0625v16.894532l-46.242188 35.058593c-3.300781 2.5-3.945312 7.207031-1.445312 10.507813 1.476562 1.945312 3.71875 2.96875 5.984374 2.96875 1.578126 0 3.171876-.496094 4.527344-1.523438l37.699219-28.585937c1.644531 12.882812 7.234375 24.546875 15.542969 33.71875-18.742188 9.722656-35.019532 15.949219-48.050782 18.410156zm46.984376-60.027344v-37.953125c0-25.949218 21.113281-47.0625 47.0625-47.0625 25.953124 0 47.066406 21.113282 47.066406 47.0625v37.953125c0 25.949219-21.113282 47.0625-47.066406 47.0625-25.949219 0-47.0625-21.113281-47.0625-47.0625zm41.761718-106.59375c2.925782 2.929688 7.675782 2.929688 10.605469 0l43.027344-43.027343c11.03125-11.03125 23.945312-19.488282 38.015625-25.089844v63.027344c-14.882813 3.527343-32.503906 10.773437-52.648438 21.652343-9.710937-6.304687-21.28125-9.984375-33.699218-9.984375-12.417969 0-23.984376 3.679688-33.695313 9.984375-20.144531-10.878906-37.765625-18.128906-52.648437-21.652343v-63.027344c14.070312 5.601562 26.984374 14.058594 38.015624 25.089844zm-96.042968-72.894531v65.449219c-1.457032-.09375-2.890626-.15625-4.273438-.15625-9.023438 0-21.515625 5.675781-29.773438 32.722656-5.066406 16.597656-7.859374 38.792969-7.859374 62.496094 0 43.925781 9.855468 95.222656 37.632812 95.222656 1.386719 0 2.816406-.066406 4.273438-.160156v40.496093l-59.300782-59.304687v-235.21875c10.410156-3.117187 21.335938-4.734375 32.511719-4.734375 9.144531 0 18.121094 1.085938 26.789063 3.1875zm0 317.28125v62.839844l-59.300782-59.300782v-62.84375zm-106.59375-287.414062c9.519531-9.515626 20.4375-17.117188 32.292968-22.625v214.523437l-32.292968-32.289063c-21.078126-21.078124-32.785157-49.03125-33.042969-78.800781v-2.007812c.257812-29.769531 11.964843-57.71875 33.042969-78.800781zm-33.03125 165.785156c-.003907-.101563-.003907-.203125-.011719-.304688v-.65625c-.003907-.644531-.003907-1.289062 0-1.996094v-22.78125c5.871093 10.964844 13.394531 21.125 22.4375 30.167969l42.898437 42.898438v62.839843l-32.292968-32.289062c-20.800782-20.804688-32.53125-48.460938-33.03125-77.878906zm154.625 199.46875v-62.839844l24.554687 24.554688c2.929687 2.929687 7.679687 2.929687 10.605469 0 2.929687-2.929688 2.929687-7.675782 0-10.605469l-35.160156-35.160157v-57.851562c14.882812-3.523438 32.503906-10.773438 52.648437-21.652344 9.710937 6.304688 21.277344 9.984375 33.695313 9.984375 12.417968 0 23.988281-3.679687 33.699218-9.984375 20.144532 10.878906 37.765625 18.128906 52.648438 21.652344v57.851562l-81.792969 81.789063c-2.511719 2.511719-6.597656 2.511719-9.109375 0l-26.765625-26.765625c-2.929687-2.929688-7.679687-2.929688-10.605469 0-2.929687 2.929688-2.929687 7.675781 0 10.605469l26.765625 26.765625c2.242188 2.242187 4.867188 3.863281 7.660157 4.902344v65.597656zm93.84375 78.847656v-65.601562c2.796874-1.039063 5.421874-2.660157 7.664062-4.898438l71.183594-71.1875v62.839844zm233.472656-278.316406c-.5 29.417968-12.230469 57.074218-33.03125 77.878906l-32.292969 32.289062v-62.839843l42.898437-42.898438c9.179688-9.179687 16.660157-19.421875 22.460938-30.328125v25.285156c-.019531.203126-.03125.40625-.035156.613282zm0 0"/></svg>