<svg height="511pt" viewBox="0 -29 511.99998 511" width="511pt" xmlns="http://www.w3.org/2000/svg"><path d="m13.703125 110.726562v316.097657c0 10.867187 8.808594 19.671875 19.671875 19.671875s19.671875-8.804688 19.671875-19.671875v-94.210938c0-42.425781 34.394531-76.824219 76.824219-76.824219v-145.0625zm0 0" fill="#92d8ff"/><path d="m63.539062 16.371094-31.15625 31.625c-33.953124 34.460937-33.042968 90.070312 2.015626 123.402344l33.261718 31.621093c54.441406 51.753907 94.804688 116.523438 117.289063 188.195313 10.316406 32.898437 40.800781 55.28125 75.277343 55.28125h222.566407c11.988281 0 21.707031-9.714844 21.707031-21.707032 0-6.890624-3.273438-13.378906-8.824219-17.46875l-108.957031-80.34375c-5.046875-3.722656-11.152344-5.730468-17.421875-5.730468-9.816406 0-18.984375 4.90625-24.429687 13.074218l-2.859376 4.289063c-5.445312 8.167969-14.609374 13.074219-24.425781 13.074219-31.476562 0-60.167969-18.054688-73.78125-46.4375l-134.949219-281.3125c-4.671874-9.738282-14.511718-15.933594-25.3125-15.933594-7.519531 0-14.722656 3.015625-20 8.371094zm0 0" fill="#d7f3ff"/><path d="m234.949219 391.21875c-22.484375-71.675781-62.847657-136.441406-117.289063-188.199219l-33.257812-31.621093c-35.0625-33.332032-35.972656-88.9375-2.019532-123.402344l25.507813-25.890625c-4.976563-8.675781-14.246094-14.105469-24.351563-14.105469-7.519531 0-14.722656 3.015625-20 8.371094l-31.15625 31.625c-33.953124 34.460937-33.042968 90.070312 2.019532 123.402344l33.257812 31.621093c54.441406 51.753907 94.808594 116.523438 117.289063 188.195313 10.320312 32.898437 40.800781 55.28125 75.277343 55.28125h50c-34.472656 0-64.957031-22.382813-75.277343-55.277344zm0 0" fill="#bdebff"/><path d="m474.519531 374.761719c0 23.175781-18.789062 41.964843-41.964843 41.964843-23.175782 0-41.960938-18.789062-41.960938-41.964843s18.785156-41.964844 41.960938-41.964844c23.175781 0 41.964843 18.789063 41.964843 41.964844zm0 0" fill="#ffeb99"/><path d="m420.59375 374.761719c0-17.890625 11.195312-33.15625 26.960938-39.191407-4.65625-1.785156-9.710938-2.773437-15-2.773437-23.175782 0-41.960938 18.789063-41.960938 41.964844s18.785156 41.964843 41.960938 41.964843c5.289062 0 10.34375-.988281 15-2.773437-15.765626-6.035156-26.960938-21.300781-26.960938-39.191406zm0 0" fill="#ffde55"/><path d="m500.128906 401.285156-19.605468-14.457031c.972656-3.863281 1.496093-7.902344 1.496093-12.066406 0-27.273438-22.191406-49.464844-49.464843-49.464844-9.402344 0-18.203126 2.640625-25.695313 7.214844l-15.691406-11.570313c-6.382813-4.707031-13.945313-7.191406-21.875-7.191406-12.351563 0-23.816407 6.136719-30.664063 16.410156l-2.863281 4.292969c-4.0625 6.09375-10.863281 9.734375-18.1875 9.734375-28.417969 0-54.726563-16.558594-67.019531-42.183594l-71.144532-148.316406c-1.792968-3.734375-6.269531-5.304688-10.007812-3.515625-3.730469 1.789063-5.308594 6.269531-3.515625 10.003906l71.144531 148.316407c14.773438 30.792968 46.390625 50.691406 80.542969 50.691406 12.351563 0 23.816406-6.132813 30.667969-16.410156l2.859375-4.292969c4.066406-6.09375 10.863281-9.734375 18.1875-9.734375 4.703125 0 9.1875 1.476562 12.972656 4.269531l12.851563 9.472656c-7.484376 8.671875-12.023438 19.949219-12.023438 32.273438 0 27.273437 22.1875 49.464843 49.460938 49.464843 17.644531 0 33.148437-9.292968 41.90625-23.230468l16.765624 12.363281c3.613282 2.664063 5.773438 6.941406 5.773438 11.433594 0 7.832031-6.371094 14.207031-14.207031 14.207031h-222.566407c-31.359374 0-58.734374-20.105469-68.121093-50.027344-15.359375-48.964844-39.09375-94.964844-69.816407-135.824218-.246093-.398438-.523437-.769532-.835937-1.113282-14.675781-19.394531-30.929687-37.628906-48.621094-54.449218l-33.261719-31.621094c-15.488281-14.726563-24.210937-34.601563-24.558593-55.964844-.351563-21.363281 7.714843-41.515625 22.710937-56.738281l31.15625-31.625c3.84375-3.898438 9.1875-6.136719 14.660156-6.136719 7.867188 0 15.148438 4.582031 18.550782 11.675781l50.363281 104.996094c1.792969 3.734375 6.277344 5.308594 10.007813 3.519531 3.734374-1.792968 5.3125-6.273437 3.519531-10.007812l-50.367188-104.996094c-5.882812-12.261719-18.472656-20.1875-32.074219-20.1875-9.464843 0-18.699218 3.867188-25.34375 10.605469l-31.15625 31.628906c-17.84375 18.113281-27.441406 42.085937-27.0273432 67.511719.1835932 11.21875 2.3125002 22.09375 6.2109372 32.246094-.007812.148437-.019531.289062-.019531.4375v283.894531c0 14.984375 12.1875 27.171875 27.171875 27.171875s27.171875-12.1875 27.171875-27.171875v-38.0625c0-4.144531-3.355469-7.5-7.5-7.5-4.140625 0-7.5 3.355469-7.5 7.5v38.0625c0 6.710937-5.460937 12.171875-12.171875 12.171875s-12.171875-5.460938-12.171875-12.171875v-258.625c2.476563 3.019531 5.152344 5.898437 8.027344 8.632812l33.261719 31.621094c14.523437 13.808594 28.039062 28.601563 40.476562 44.226563-33.882812 11.351562-57.421875 43.273437-57.421875 79.9375v28.144531c0 4.144531 3.355469 7.5 7.5 7.5s7.5-3.355469 7.5-7.5v-28.144531c0-31.917969 21.695313-59.460938 52.207031-67.179688 28.515625 38.671875 50.601563 81.996094 65.039063 128.023438 11.355469 36.210937 44.484375 60.535156 82.433593 60.535156h222.566407c16.105469 0 29.207031-13.101563 29.207031-29.203125 0-9.238281-4.4375-18.023438-11.871094-23.507813zm-67.574218 7.941406c-19.003907 0-34.460938-15.460937-34.460938-34.464843 0-19.003907 15.457031-34.464844 34.460938-34.464844 19.003906 0 34.464843 15.460937 34.464843 34.464844 0 19.003906-15.460937 34.464843-34.464843 34.464843zm0 0"/></svg>