<svg height="511pt" viewBox="0 -31 511.99942 511" width="511pt" xmlns="http://www.w3.org/2000/svg"><path d="m438.273438 8h-364.546876c-5.1875 0-9.871093 3.105469-11.890624 7.882812l-53.308594 126.128907c-1.878906 4.449219-1.117188 9.574219 1.96875 13.28125l235.585937 283.003906c5.160157 6.199219 14.675781 6.199219 19.835938 0l235.585937-283.003906c3.085938-3.707031 3.847656-8.832031 1.96875-13.28125l-53.308594-126.128907c-2.019531-4.777343-6.703124-7.882812-11.890624-7.882812zm0 0" fill="#bdebff"/><path d="m7.710938 149.253906c.378906 2.183594 1.316406 4.273438 2.785156 6.039063l235.585937 283.003906c5.160157 6.199219 14.675781 6.199219 19.835938 0l235.585937-283.003906c1.46875-1.765625 2.40625-3.855469 2.789063-6.039063zm0 0" fill="#92d8ff"/><path d="m350.859375 8h-189.71875l-29.675781 141.253906 124.535156 300.957032 124.535156-300.957032zm0 0" fill="#d7f3ff"/><path d="m131.464844 149.253906 121.359375 293.28125c2.082031.527344 4.269531.527344 6.351562 0l121.359375-293.28125zm0 0" fill="#bdebff"/><path d="m273.875 91.417969c0 9.875-8.003906 17.875-17.875 17.875s-17.875-8-17.875-17.875c0-9.871094 8.003906-17.875 17.875-17.875s17.875 8.003906 17.875 17.875zm0 0" fill="#444346"/><path d="m325.363281 106.984375h-11.355469c-4.140624 0-7.496093-3.359375-7.496093-7.5 0-4.144531 3.355469-7.5 7.496093-7.5h11.355469c4.144531 0 7.5 3.355469 7.5 7.5 0 4.140625-3.355469 7.5-7.5 7.5zm0 0" fill="#f46262"/><path d="m197.992188 106.984375h-11.355469c-4.144531 0-7.5-3.359375-7.5-7.5 0-4.144531 3.355469-7.5 7.5-7.5h11.355469c4.140624 0 7.496093 3.355469 7.496093 7.5 0 4.140625-3.355469 7.5-7.496093 7.5zm0 0" fill="#f46262"/><path d="m256 66.042969c-13.992188 0-25.375 11.382812-25.375 25.375 0 13.992187 11.382812 25.375 25.375 25.375s25.375-11.382813 25.375-25.375c0-13.992188-11.382812-25.375-25.375-25.375zm0 35.753906c-5.722656 0-10.375-4.65625-10.375-10.378906 0-5.71875 4.652344-10.375 10.375-10.375s10.375 4.65625 10.375 10.375c0 5.722656-4.652344 10.378906-10.375 10.378906zm0 0"/><path d="m327.1875 66.664062c0-4.144531-3.359375-7.5-7.5-7.5-4.144531 0-7.5 3.355469-7.5 7.5v11.355469c0 4.140625 3.355469 7.5 7.5 7.5 4.140625 0 7.5-3.359375 7.5-7.5zm0 0"/><path d="m192.3125 59.164062c-4.144531 0-7.5 3.355469-7.5 7.5v11.355469c0 4.140625 3.355469 7.5 7.5 7.5s7.5-3.359375 7.5-7.5v-11.355469c0-4.144531-3.355469-7.5-7.5-7.5zm0 0"/><path d="m510.378906 139.09375-53.308594-126.132812c-3.199218-7.570313-10.574218-12.460938-18.796874-12.460938h-87.417969c-.015625 0-.035157 0-.050781 0h-189.585938c-.035156 0-.070312 0-.105469 0h-87.386719c-8.222656 0-15.597656 4.890625-18.796874 12.460938l-53.308594 126.132812c-2.984375 7.0625-1.792969 15.105469 3.113281 21l89.121094 107.058594c2.648437 3.183594 7.375 3.613281 10.5625.964844 3.183593-2.648438 3.613281-7.378907.964843-10.5625l-83.914062-100.800782h104.980469l103.765625 250.761719-106.921875-128.441406c-2.648438-3.1875-7.378907-3.617188-10.5625-.96875-3.183594 2.648437-3.613281 7.378906-.964844 10.5625l128.550781 154.425781c2.722656 3.273438 6.34375 5.5625 10.355469 6.644531.011719.003907.023437.007813.035156.011719 1.707031.457031 3.484375.699219 5.292969.699219 6.078125 0 11.792969-2.683594 15.683594-7.355469l235.582031-283c4.90625-5.894531 6.097656-13.941406 3.113281-21zm-385.003906 2.660156h-108.59375l51.964844-122.953125c.847656-2.003906 2.800781-3.300781 4.976562-3.300781h78.175782zm130.625 288.84375-113.316406-273.84375h163.003906c4.140625 0 7.5-3.359375 7.5-7.5 0-4.144531-3.359375-7.5-7.5-7.5h-164.984375l26.523437-126.253906h177.542969l26.527344 126.253906h-37.609375c-4.144531 0-7.5 3.355469-7.5 7.5 0 4.140625 3.355469 7.5 7.5 7.5h35.628906zm25.78125-23.082031 103.769531-250.761719h104.976563zm104.84375-265.761719-26.527344-126.253906h78.175782c2.179687 0 4.132812 1.296875 4.980468 3.300781l51.964844 122.953125zm0 0"/></svg>