<svg height="512pt" viewBox="0 -47 512.00012 512" width="512pt" xmlns="http://www.w3.org/2000/svg"><path d="m316.332031 315.847656c-64.761719-17.351562-103.195312-83.921875-85.839843-148.683594l38.785156-144.75c2.871094-10.722656 13.894531-17.085937 24.617187-14.210937l195.691407 52.433594c10.722656 2.875 17.085937 13.894531 14.214843 24.617187l-38.785156 144.75c-17.355469 64.761719-83.921875 103.195313-148.683594 85.84375zm0 0" fill="#f46262"/><path d="m277.394531 179.734375 43.988281-164.167969-27.488281-7.363281c-10.722656-2.875-21.746093 3.488281-24.621093 14.210937l-38.785157 144.75c-17.351562 64.761719 21.082031 131.332032 85.84375 148.683594 8.03125 2.152344 16.089844 3.441406 24.082031 3.933594-50.613281-25.203125-78.21875-83.316406-63.019531-140.046875zm0 0" fill="#d65b5b"/><path d="m195.398438 405.683594c-64.761719 17.351562-131.328126-21.078125-148.679688-85.839844l-38.785156-144.75c-2.875-10.726562 3.488281-21.746094 14.210937-24.621094l195.691407-52.433594c10.726562-2.875 21.746093 3.488282 24.621093 14.214844l38.785157 144.746094c17.351562 64.761719-21.082032 131.328125-85.84375 148.683594zm0 0" fill="#bdebff"/><path d="m93.621094 307.273438-43.984375-164.167969-27.492188 7.367187c-10.722656 2.875-17.085937 13.894532-14.210937 24.621094l38.785156 144.75c17.351562 64.761719 83.917969 103.191406 148.679688 85.839844 8.03125-2.152344 15.660156-5.0625 22.824218-8.632813-56.433594 3.476563-109.398437-33.046875-124.601562-89.777343zm0 0" fill="#92d8ff"/><path d="m425.585938 172.800781c-.644532 0-1.296876-.082031-1.949219-.257812l-10.523438-2.820313c-4.003906-1.070312-6.378906-5.1875-5.304687-9.191406 1.070312-4 5.1875-6.382812 9.191406-5.304688l10.523438 2.820313c4.003906 1.070313 6.378906 5.183594 5.304687 9.1875-.898437 3.355469-3.929687 5.566406-7.242187 5.566406zm0 0" fill="#eaeaea"/><path d="m307.523438 141.164062c-.640626 0-1.296876-.082031-1.945313-.257812l-10.523437-2.820312c-4.003907-1.070313-6.378907-5.183594-5.308594-9.1875 1.074218-4.003907 5.1875-6.386719 9.191406-5.308594l10.523438 2.820312c4.003906 1.074219 6.378906 5.1875 5.308593 9.191406-.898437 3.351563-3.929687 5.5625-7.246093 5.5625zm0 0" fill="#eaeaea"/><path d="m363.703125 139.066406c-8.980469-2.40625-18.636719.191406-25.203125 6.78125-2.925781 2.933594-2.917969 7.6875.019531 10.609375 2.9375 2.925781 7.6875 2.917969 10.613281-.015625 2.785157-2.796875 6.878907-3.902344 10.683594-2.882812 3.804688 1.023437 6.800782 4.023437 7.8125 7.835937.894532 3.359375 3.929688 5.578125 7.25 5.578125.636719 0 1.285156-.082031 1.933594-.253906 4.003906-1.0625 6.386719-5.175781 5.320312-9.179688-2.390624-8.988281-9.453124-16.066406-18.429687-18.472656zm0 0"/><path d="m421.222656 131.523438-2.820312 10.523437c-1.074219 4.003906 1.300781 8.117187 5.304687 9.191406.652344.175781 1.304688.257813 1.949219.257813 3.3125 0 6.34375-2.210938 7.242188-5.5625l2.820312-10.527344c1.070312-4.003906-1.304688-8.117188-5.308594-9.191406-3.996094-1.070313-8.117187 1.300781-9.1875 5.308594zm0 0"/><path d="m303.160156 99.886719-2.820312 10.527343c-1.070313 4.003907 1.304687 8.117188 5.308594 9.191407.648437.171875 1.300781.257812 1.945312.257812 3.3125 0 6.34375-2.210937 7.242188-5.566406l2.820312-10.523437c1.074219-4.003907-1.300781-8.117188-5.304688-9.191407-4-1.074219-8.117187 1.300781-9.191406 5.304688zm0 0"/><path d="m508.289062 66.25c-3.683593-6.386719-9.636718-10.953125-16.761718-12.859375l-29.328125-7.859375c-4.003907-1.074219-8.117188 1.300781-9.191407 5.304688-1.074218 4.003906 1.304688 8.117187 5.304688 9.191406l29.332031 7.859375c3.25.871093 5.964844 2.953125 7.648438 5.867187 1.683593 2.914063 2.128906 6.308594 1.257812 9.558594l-38.785156 144.75c-13.617187 50.832031-59.753906 84.433594-110.039063 84.433594-9.730468-.003906-19.617187-1.261719-29.453124-3.894532-9.046876-2.425781-17.714844-5.925781-25.824219-10.421874 1.074219-14.007813-.136719-28.421876-3.933594-42.75l-2.90625-10.972657c-1.0625-4.003906-5.171875-6.390625-9.175781-5.332031-4.003906 1.0625-6.390625 5.171875-5.332032 9.175781l2.90625 10.972657c7.792969 29.40625 3.664063 60.089843-11.621093 86.390624-15.285157 26.304688-39.898438 45.082032-69.304688 52.875-9.738281 2.578126-19.515625 3.8125-29.144531 3.8125-50.40625-.003906-96.617188-33.773437-110.121094-84.742187l-38.375-144.863281c-.863281-3.25-.40625-6.644532 1.28125-9.554688 1.691406-2.90625 4.414063-4.984375 7.667969-5.847656l195.835937-51.882812c3.253907-.863282 6.648438-.402344 9.558594 1.285156 2.90625 1.691406 4.984375 4.414062 5.847656 7.667968l29.121094 109.917969c1.058594 4.003907 5.167969 6.390625 9.175782 5.332031 4.003906-1.0625 6.390624-5.171874 5.332031-9.175781l-27.492188-103.757812 24.753907-92.375c.871093-3.25 2.953124-5.964844 5.867187-7.648438 2.914063-1.683593 6.308594-2.128906 9.558594-1.257812l139.054687 37.257812c4.003906 1.078125 8.117188-1.300781 9.191406-5.304687 1.074219-4.003906-1.304687-8.117188-5.304687-9.191406l-139.054687-37.257813c-7.121094-1.910156-14.5625-.9296875-20.945313 2.757813-6.386719 3.6875-10.953125 9.640624-12.863281 16.761718l-20.453125 76.335938c-1.304688-1.128906-2.722657-2.148438-4.25-3.035156-6.378907-3.707032-13.8125-4.703126-20.941407-2.816407l-195.835937 51.882813c-7.128906 1.886718-13.09375 6.4375-16.796875 12.8125-3.7070312 6.375-4.707031 13.8125-2.816406 20.941406l38.375 144.855469c15.285156 57.691406 67.578125 95.910156 124.632812 95.90625 10.894532 0 21.964844-1.394531 32.984375-4.3125 48.925781-12.964844 83.839844-52.554688 93.316407-99.085938 7.695312 3.824219 15.777343 6.894531 24.148437 9.136719 11.132813 2.984375 22.316406 4.40625 33.332031 4.40625 56.90625-.003906 109.125-38.03125 124.539063-95.554688l38.785156-144.75c1.910156-7.121093.929687-14.558593-2.757813-20.945312zm0 0"/><path d="m158.253906 230.058594c-1.011718 3.816406-4.007812 6.816406-7.8125 7.835937-3.808594 1.019531-7.902344-.082031-10.6875-2.878906-2.925781-2.9375-7.675781-2.945313-10.609375-.019531-2.9375 2.925781-2.945312 7.675781-.019531 10.609375 4.945312 4.96875 11.648438 7.667969 18.492188 7.667969 2.242187 0 4.496093-.289063 6.707031-.882813 8.976562-2.40625 16.039062-9.484375 18.433593-18.472656 1.0625-4.007813-1.316406-8.117188-5.324218-9.183594-4-1.058594-8.109375 1.320313-9.179688 5.324219zm0 0"/><path d="m199.378906 184.417969c-4 1.074219-6.375 5.1875-5.304687 9.191406l2.820312 10.523437c.898438 3.351563 3.929688 5.566407 7.242188 5.566407.644531 0 1.296875-.085938 1.949219-.261719 4-1.070312 6.375-5.1875 5.304687-9.1875l-2.820313-10.527344c-1.070312-4.003906-5.1875-6.382812-9.191406-5.304687zm0 0"/><path d="m81.320312 216.050781c-4.003906 1.074219-6.378906 5.1875-5.304687 9.191407l2.820313 10.527343c.894531 3.351563 3.929687 5.5625 7.242187 5.5625.640625 0 1.296875-.082031 1.945313-.257812 4.003906-1.074219 6.378906-5.1875 5.304687-9.191407l-2.820313-10.523437c-1.070312-4.003906-5.183593-6.382813-9.1875-5.308594zm0 0"/><g fill="#f46262"><path d="m204.207031 231c-3.3125 0-6.34375-2.210938-7.242187-5.5625-1.074219-4.003906 1.300781-8.117188 5.304687-9.191406l10.523438-2.820313c4.003906-1.070312 8.121093 1.304688 9.191406 5.308594 1.074219 4.003906-1.300781 8.117187-5.304687 9.1875l-10.523438 2.820313c-.652344.175781-1.308594.257812-1.949219.257812zm0 0"/><path d="m86.144531 262.636719c-3.3125 0-6.34375-2.210938-7.242187-5.5625-1.070313-4.003907 1.304687-8.117188 5.308594-9.191407l10.523437-2.820312c4.003906-1.078125 8.117187 1.304688 9.191406 5.304688 1.070313 4.003906-1.304687 8.117187-5.304687 9.191406l-10.527344 2.820312c-.652344.175782-1.304688.257813-1.949219.257813zm0 0"/></g></svg>