<svg height="512pt" viewBox="-8 0 512 512.00002" width="512pt" xmlns="http://www.w3.org/2000/svg"><path d="m247.78125 86.660156c0 43.714844-82.886719 79.15625-126.609375 79.15625-43.71875 0-79.15625-35.441406-79.15625-79.15625 0-43.71875 35.441406-79.160156 79.160156-79.160156s126.605469 35.441406 126.605469 79.160156zm0 0" fill="#ffcd00"/><path d="m453.542969 86.660156c0 43.714844-35.441407 79.15625-79.15625 79.15625-43.71875 0-126.605469-35.441406-126.605469-79.15625 0-43.71875 82.886719-79.160156 126.605469-79.160156 43.714843 0 79.15625 35.441406 79.15625 79.160156zm0 0" fill="#ffcd00"/><path d="m301.65625 186.238281h-107.75v-98.191406c0-29.753906 24.121094-53.875 53.875-53.875s53.875 24.121094 53.875 53.875zm0 0" fill="#ffeb99"/><path d="m301.65625 88.046875c0-1.027344-.035156-2.046875-.09375-3.0625h-107.566406c-.054688 1.015625-.089844 2.035156-.089844 3.0625v98.1875h107.75zm0 0" fill="#ffde55"/><path d="m442.019531 504.5h-388.480469c-9.125 0-16.523437-7.398438-16.523437-16.523438v-285.21875c0-9.125 7.398437-16.523437 16.523437-16.523437h388.480469c9.125 0 16.523438 7.398437 16.523438 16.523437v285.21875c0 9.125-7.398438 16.523438-16.523438 16.523438zm0 0" fill="#ff7956"/><path d="m442.019531 186.238281h-388.480469c-9.125 0-16.523437 7.394531-16.523437 16.519531v65.96875h421.527344v-65.96875c0-9.125-7.398438-16.519531-16.523438-16.519531zm0 0" fill="#ff6243"/><path d="m357.65625 420c-30.929688 0-56 25.070312-56 56 0 10.410156 2.847656 20.148438 7.796875 28.5h96.402344c4.949219-8.351562 7.796875-18.089844 7.796875-28.5 0-30.929688-25.070313-56-55.996094-56zm0 0" fill="#d7f3ff"/><path d="m458.542969 228.101562c-7.886719-4.238281-16.902344-6.652343-26.480469-6.652343-30.929688 0-56 25.074219-56 56 0 30.929687 25.070312 56 56 56 9.578125 0 18.59375-2.410157 26.480469-6.648438zm0 0" fill="#d7f3ff"/><path d="m376.742188 268.726562h81.800781v-40.625c-7.886719-4.238281-16.902344-6.652343-26.480469-6.652343-27.960938 0-51.132812 20.496093-55.320312 47.277343zm0 0" fill="#bdebff"/><path d="m168.6875 186.238281h158.1875v318.261719h-158.1875zm0 0" fill="#ffeb99"/><path d="m168.6875 186.238281h158.1875v82.488281h-158.1875zm0 0" fill="#ffde55"/><path d="m168.6875 186.238281h50v318.261719h-50zm0 0" fill="#ffde55"/><path d="m87.015625 487.976562v-285.21875c0-9.125 7.398437-16.523437 16.523437-16.523437h-50c-9.125 0-16.523437 7.398437-16.523437 16.523437v285.21875c0 9.125 7.398437 16.523438 16.523437 16.523438h50c-9.125 0-16.523437-7.398438-16.523437-16.523438zm0 0" fill="#ff6243"/><path d="m471.539062 238.726562h-447.515624c-9.125 0-16.523438-7.394531-16.523438-16.523437v-71.875c0-9.125 7.394531-16.523437 16.523438-16.523437h447.515624c9.125 0 16.523438 7.394531 16.523438 16.523437v71.875c0 9.128906-7.398438 16.523437-16.523438 16.523437zm0 0" fill="#ff9478"/><path d="m57.5 222.207031v-71.878906c0-9.125 7.394531-16.523437 16.523438-16.523437h-50c-9.125 0-16.523438 7.398437-16.523438 16.523437v71.878906c0 9.125 7.394531 16.519531 16.523438 16.519531h50c-9.125 0-16.523438-7.394531-16.523438-16.519531zm0 0" fill="#ff7956"/><path d="m373.445312 238.726562h-251.332031v-105.566406c0-10.039062 8.136719-18.175781 18.175781-18.175781h214.984376c10.035156 0 18.175781 8.136719 18.175781 18.175781v105.566406zm0 0" fill="#ffeb99"/><path d="m247.78125 200.589844c-9.5 0-17.199219-7.703125-17.199219-17.199219v-9.925781c0-1.644532 1.332031-2.972656 2.972657-2.972656h28.449218c1.644532 0 2.972656 1.328124 2.972656 2.972656v9.925781c0 9.496094-7.699218 17.199219-17.195312 17.199219zm0 0" fill="#444346"/><path d="m186.929688 114.984375h-50c-8.183594 0-14.816407 6.632813-14.816407 14.816406v108.925781h50v-108.925781c0-8.183593 6.632813-14.816406 14.816407-14.816406zm0 0" fill="#ffde55"/><path d="m74.023438 304c-14.191407 0-27.136719 5.285156-37.003907 13.984375v84.027344c9.867188 8.699219 22.8125 13.988281 37.003907 13.988281 30.925781 0 56-25.074219 56-56 0-30.929688-25.074219-56-56-56zm0 0" fill="#d7f3ff"/><path d="m87.015625 414.46875v-108.9375c-4.171875-.992188-8.519531-1.53125-12.992187-1.53125-14.191407 0-27.136719 5.285156-37.003907 13.984375v84.027344c9.867188 8.699219 22.8125 13.988281 37.003907 13.988281 4.472656 0 8.820312-.539062 12.992187-1.53125zm0 0" fill="#bdebff"/><path d="m471.539062 126.304688h-20.070312c6.292969-12.179688 9.574219-25.660157 9.574219-39.644532 0-47.785156-38.875-86.660156-86.65625-86.660156-29.308594 0-70.714844 14.210938-98.53125 33.5-8.421875-4.351562-17.960938-6.824219-28.074219-6.824219-10.117188 0-19.65625 2.472657-28.078125 6.824219-27.8125-19.289062-69.226563-33.5-98.527344-33.5-24.777343 0-48.421875 10.640625-64.867187 29.195312-2.75 3.101563-2.464844 7.839844.636718 10.585938 3.097657 2.75 7.839844 2.460938 10.585938-.636719 13.601562-15.34375 33.15625-24.144531 53.644531-24.144531 21.777344 0 57.925781 10.242188 85.300781 27.691406-12.324218 11.234375-20.070312 27.40625-20.070312 45.355469v19.4375h-46.117188c-11.785156 0-21.730468 7.980469-24.738281 18.820313h-54.066406c-7.835937-11.753907-11.96875-25.378907-11.96875-39.644532 0-8.394531 1.4375-16.613281 4.269531-24.425781 1.410156-3.894531-.601562-8.195313-4.496094-9.609375-3.894531-1.410156-8.195312.601562-9.605468 4.496094-3.429688 9.457031-5.167969 19.394531-5.167969 29.539062 0 13.984375 3.28125 27.464844 9.574219 39.644532h-20.066406c-13.246094 0-24.023438 10.777343-24.023438 24.023437v71.878906c0 13.246094 10.777344 24.023438 24.023438 24.023438h5.496093v241.746093c-.003906 13.246094 10.773438 24.023438 24.019531 24.023438h352.296876.011718.015625 36.15625c13.246094 0 24.023438-10.777344 24.023438-24.023438v-161.125c0-.019531 0-.039062 0-.058593v-80.566407h5.496093c13.246094 0 24.023438-10.773437 24.023438-24.019531v-71.878906c0-13.246094-10.777344-24.023437-24.023438-24.023437zm-97.152343-111.304688c39.511719 0 71.65625 32.144531 71.65625 71.660156 0 14.265625-4.132813 27.890625-11.96875 39.644532h-54.066407c-3.007812-10.839844-12.953124-18.820313-24.738281-18.820313h-46.113281v-19.4375c0-17.949219-7.746094-34.121094-20.070312-45.355469 27.371093-17.449218 63.511718-27.691406 85.300781-27.691406zm-172.980469 73.046875c0-25.570313 20.804688-46.375 46.375-46.375 8.796875 0 17.03125 2.464844 24.046875 6.738281.277344.207032.5625.390625.863281.550782 12.890625 8.246093 21.464844 22.679687 21.464844 39.085937v19.4375h-92.75zm-71.792969 45.113281c0-5.886718 4.789063-10.675781 10.675781-10.675781h53.605469.011719.007812 107.730469.011719.007812 53.609376c5.886718 0 10.675781 4.789063 10.675781 10.675781v98.066406h-236.335938zm-105.589843 98.066406c-4.976563 0-9.023438-4.046874-9.023438-9.019531v-71.878906c0-4.976563 4.046875-9.023437 9.023438-9.023437h33.53125c.011718 0 .023437.003906.035156.003906.007812 0 .015625-.003906.023437-.003906h57v89.921874zm20.492187 90.308594c8.449219-6.484375 18.800781-10.035156 29.503906-10.035156 26.746094 0 48.5 21.757812 48.5 48.5s-21.753906 48.5-48.5 48.5c-10.703125 0-21.054687-3.550781-29.503906-10.039062zm116.671875 175.464844h-107.648438c-4.972656 0-9.023437-4.046875-9.023437-9.023438v-71.769531c9.039063 4.75 19.144531 7.292969 29.503906 7.292969 35.015625 0 63.5-28.488281 63.5-63.5 0-35.015625-28.484375-63.5-63.5-63.5-10.359375 0-20.464843 2.542969-29.503906 7.289062v-57.5625h116.671875zm240.160156 0h-66.972656v-63.554688c7.105469-3.894531 15.078125-5.945312 23.28125-5.945312 26.742188 0 48.5 21.757812 48.5 48.5-.003906 7.296875-1.667969 14.472656-4.808594 21zm49.695313-9.023438c0 4.976563-4.046875 9.023438-9.023438 9.023438h-24.441406c2.355469-6.71875 3.574219-13.820312 3.574219-21 0-35.015625-28.484375-63.5-63.496094-63.5-8.046875 0-15.921875 1.511719-23.285156 4.414062v-83.464843c0-4.140625-3.355469-7.5-7.5-7.5-4.140625 0-7.5 3.359375-7.5 7.5v95.644531.101562 67.804688h-143.183594v-250.773438h143.1875v59.222657c0 4.144531 3.355469 7.5 7.5 7.5 4.140625 0 7.5-3.355469 7.5-7.5v-59.222657h42.386719c-5.34375 9.4375-8.203125 20.136719-8.203125 31.222657 0 35.015625 28.488281 63.5 63.5 63.5 6.449218 0 12.863281-.992188 18.984375-2.90625zm0-165.914062c-5.972657 2.539062-12.449219 3.886719-18.980469 3.886719-26.746094 0-48.5-21.753907-48.5-48.5 0-11.519531 4.03125-22.488281 11.398438-31.222657h56.082031zm29.519531-99.855469c0 4.972657-4.046875 9.019531-9.023438 9.019531h-12.984374c-.003907 0-.007813 0-.011719 0-.003907 0-.003907 0-.011719 0h-77.585938v-89.921874h57c.011719 0 .019532.003906.027344.003906.011719 0 .023438-.003906.035156-.003906h33.53125c4.972657 0 9.019532 4.046874 9.019532 9.023437v71.878906zm0 0"/><path d="m311.46875 145.625c-9.015625 0-17.410156 4.859375-21.90625 12.679688-2.0625 3.59375-.824219 8.175781 2.765625 10.242187s8.175781.828125 10.238281-2.765625c1.828125-3.179688 5.238282-5.15625 8.902344-5.15625s7.074219 1.976562 8.902344 5.15625c1.386718 2.414062 3.910156 3.765625 6.507812 3.765625 1.269532 0 2.554688-.320313 3.730469-1 3.59375-2.0625 4.828125-6.648437 2.765625-10.238281-4.496094-7.824219-12.890625-12.683594-21.90625-12.683594zm0 0"/><path d="m184.089844 145.625c-9.015625 0-17.40625 4.859375-21.90625 12.679688-2.0625 3.59375-.824219 8.175781 2.765625 10.242187 3.589843 2.066406 8.175781.828125 10.238281-2.765625 1.832031-3.179688 5.242188-5.15625 8.902344-5.15625 3.664062 0 7.074218 1.976562 8.902344 5.15625 1.386718 2.414062 3.910156 3.765625 6.507812 3.765625 1.269531 0 2.554688-.320313 3.730469-1 3.59375-2.0625 4.832031-6.648437 2.765625-10.238281-4.496094-7.824219-12.890625-12.683594-21.90625-12.683594zm0 0"/><path d="m262.003906 162.992188h-28.449218c-5.773438 0-10.472657 4.695312-10.472657 10.472656v9.925781c0 13.617187 11.078125 24.699219 24.699219 24.699219 13.617188 0 24.699219-11.082032 24.699219-24.699219v-9.925781c-.003907-5.777344-4.699219-10.472656-10.476563-10.472656zm-4.527344 20.398437c0 5.347656-4.347656 9.699219-9.695312 9.699219-5.351562 0-9.699219-4.351563-9.699219-9.699219v-5.398437h19.394531zm0 0"/><g fill="#f46262"><path d="m317.148438 200.277344h-11.355469c-4.140625 0-7.5-3.359375-7.5-7.5 0-4.144532 3.359375-7.5 7.5-7.5h11.355469c4.140624 0 7.5 3.355468 7.5 7.5 0 4.140625-3.359376 7.5-7.5 7.5zm0 0"/><path d="m189.769531 200.277344h-11.355469c-4.140624 0-7.5-3.359375-7.5-7.5 0-4.144532 3.359376-7.5 7.5-7.5h11.355469c4.140625 0 7.5 3.355468 7.5 7.5 0 4.140625-3.359375 7.5-7.5 7.5zm0 0"/></g></svg>