<svg height="512pt" viewBox="-5 0 512 512" width="512pt" xmlns="http://www.w3.org/2000/svg"><path d="m224.171875 24.28125 35.707031 72.347656c4.316406 8.746094 12.660156 14.808594 22.3125 16.210938l79.839844 11.605468c24.308594 3.53125 34.011719 33.402344 16.425781 50.546876l-57.773437 56.316406c-6.988282 6.804687-10.171875 16.617187-8.523438 26.230468l13.636719 79.515626c4.152344 24.210937-21.257813 42.671874-42.996094 31.242187l-71.414062-37.546875c-8.632813-4.535156-18.945313-4.535156-27.578125 0l-71.414063 37.546875c-21.738281 11.429687-47.148437-7.03125-42.996093-31.242187l13.636718-79.515626c1.652344-9.613281-1.535156-19.421874-8.519531-26.230468l-57.777344-56.316406c-17.585937-17.144532-7.882812-47.015626 16.425781-50.546876l79.839844-11.605468c9.652344-1.402344 17.996094-7.464844 22.3125-16.210938l35.707032-72.347656c10.871093-22.023438 42.277343-22.023438 53.148437 0zm0 0" fill="#dda22c"/><path d="m216.621094 71.308594 25.558594 51.789062c3.089843 6.261719 9.0625 10.601563 15.96875 11.605469l57.152343 8.304687c17.398438 2.527344 24.347657 23.910157 11.757813 36.179688l-41.355469 40.3125c-5 4.875-7.28125 11.894531-6.101563 18.777344l9.761719 56.917968c2.972657 17.332032-15.214843 30.542969-30.777343 22.363282l-51.117188-26.875c-6.179688-3.25-13.5625-3.25-19.742188 0l-51.117187 26.875c-15.5625 8.179687-33.75-5.035156-30.78125-22.363282l9.765625-56.917968c1.179688-6.882813-1.101562-13.902344-6.101562-18.777344l-41.355469-40.3125c-12.589844-12.269531-5.644531-33.652344 11.753906-36.179688l57.152344-8.304687c6.910156-1.003906 12.882812-5.34375 15.972656-11.605469l25.558594-51.789062c7.78125-15.765625 30.261719-15.765625 38.046875 0zm0 0" fill="#f9d643"/><path d="m377.558594 255.550781 25.558594 51.78125c3.089843 6.261719 9.0625 10.597657 15.96875 11.605469l57.144531 8.300781c17.398437 2.527344 24.34375 23.90625 11.757812 36.179688l-41.351562 40.304687c-5 4.875-7.28125 11.894532-6.101563 18.773438l9.761719 56.914062c2.972656 17.328125-15.214844 30.539063-30.773437 22.359375l-51.113282-26.871093c-6.179687-3.246094-13.558594-3.246094-19.738281 0l-51.113281 26.871093c-15.558594 8.179688-33.746094-5.03125-30.773438-22.359375l9.761719-56.914062c1.179687-6.878906-1.101563-13.898438-6.097656-18.773438l-41.351563-40.304687c-12.589844-12.273438-5.644531-33.652344 11.753906-36.179688l57.144532-8.300781c6.910156-1.007812 12.882812-5.34375 15.972656-11.605469l25.554688-51.78125c7.777343-15.765625 30.257812-15.765625 38.035156 0zm0 0" fill="#dda22c"/><path d="m370.050781 302.324219 15.460938 31.332031c1.871093 3.789062 5.484375 6.414062 9.664062 7.019531l34.578125 5.027344c10.527344 1.527344 14.730469 14.464844 7.113282 21.890625l-25.019532 24.386719c-3.027344 2.949219-4.40625 7.199219-3.691406 11.359375l5.90625 34.4375c1.796875 10.484375-9.207031 18.480468-18.621094 13.53125l-30.929687-16.257813c-3.738281-1.96875-8.203125-1.96875-11.941407 0l-30.929687 16.257813c-9.414063 4.949218-20.417969-3.046875-18.621094-13.53125l5.90625-34.4375c.714844-4.160156-.664062-8.410156-3.6875-11.359375l-25.023437-24.386719c-7.617188-7.425781-3.414063-20.363281 7.113281-21.890625l34.578125-5.027344c4.179688-.605469 7.792969-3.230469 9.664062-7.019531l15.464844-31.332031c4.703125-9.539063 18.304688-9.539063 23.015625 0zm0 0" fill="#f9d643"/><path d="m493.40625 368.976562c7.953125-7.753906 10.761719-19.136718 7.332031-29.703124-3.433593-10.566407-12.398437-18.121094-23.390625-19.71875l-57.148437-8.300782c-4.378907-.636718-8.164063-3.386718-10.121094-7.359375l-25.554687-51.78125c-4.917969-9.960937-14.871094-16.152343-25.980469-16.152343s-21.066407 6.191406-25.984375 16.152343l-9.984375 20.226563-2.765625-16.113282c-1.214844-7.097656 1.136718-14.335937 6.285156-19.359374l57.777344-56.320313c10.269531-10.007813 13.894531-24.699219 9.460937-38.335937-4.429687-13.636719-16-23.386719-30.1875-25.449219l-29.988281-4.355469c-4.25-.613281-8.183594 2.324219-8.796875 6.566406-.617187 4.242188 2.320313 8.183594 6.5625 8.800782l29.988281 4.355468c8.425782 1.222656 15.027344 6.789063 17.660156 14.882813 2.628907 8.09375.5625 16.476562-5.535156 22.417969l-57.78125 56.320312c-8.804687 8.597656-12.824218 20.96875-10.746094 33.097656l6.382813 37.175782-3.886719 7.871093c-1.960937 3.972657-5.746094 6.722657-10.125 7.359375l-57.144531 8.300782c-6.535156.949218-12.339844 4.015624-16.703125 8.554687l-8.03125-4.222656c-10.898438-5.738281-23.910156-5.738281-34.800781-.003907l-71.421875 37.542969c-7.53125 3.960938-16.144532 3.339844-23.03125-1.667969-6.886719-5-10.140625-12.996093-8.699219-21.386718l13.640625-79.527344c2.078125-12.132812-1.945312-24.503906-10.761719-33.097656l-57.765625-56.320313c-6.097656-5.9375-8.167968-14.320312-5.535156-22.417969 2.628906-8.09375 9.230469-13.660156 17.660156-14.878906l79.835938-11.605468c12.1875-1.777344 22.714844-9.421876 28.15625-20.453126l35.710937-72.351562c3.769531-7.636719 11.097657-12.191406 19.609375-12.191406 8.511719 0 15.84375 4.554687 19.609375 12.191406l35.707031 72.351562c5.445313 11.03125 15.972657 18.675782 28.160157 20.453126l16.675781 2.425781c4.246094.613281 8.183594-2.324219 8.800781-6.566407.617188-4.242187-2.324219-8.179687-6.566406-8.796874l-16.671875-2.425782c-7.132812-1.039062-13.292969-5.511718-16.472656-11.960937l-35.710938-72.351563c-6.34375-12.859375-19.191406-20.847656-33.53125-20.847656s-27.1875 7.988281-33.53125 20.847656l-35.710937 72.351563c-3.183594 6.449219-9.339844 10.921875-16.472657 11.960937l-79.832031 11.601563c-14.191406 2.0625-25.761719 11.8125-30.191406 25.449219-4.433594 13.640624-.808594 28.328124 9.460937 38.335937l57.769532 56.320313c5.15625 5.027343 7.507812 12.261718 6.296875 19.355468l-13.644531 79.523438c-2.421876 14.132812 3.28125 28.148437 14.878906 36.574218 6.558594 4.765626 14.222656 7.183594 21.945312 7.183594 5.941406 0 11.917969-1.433594 17.4375-4.335937l71.421875-37.542969c6.371094-3.351562 13.972657-3.351562 20.34375 0l7.894531 4.15625c-2.265624 9.824219.683594 20.050781 8.011719 27.195312l41.351563 40.304688c3.167968 3.089844 4.613281 7.539062 3.867187 11.902344l-9.761719 56.914062c-1.878906 10.949219 2.535157 21.808594 11.523438 28.335938 5.078125 3.691406 11.019531 5.566406 17.003906 5.566406 4.605469 0 9.234375-1.109375 13.511719-3.359375l10.148437-5.335937c3.792969-1.992188 5.253907-6.6875 3.257813-10.480469-1.992187-3.796875-6.6875-5.257813-10.484375-3.261719l-10.148438 5.335938c-4.636718 2.4375-9.929687 2.054687-14.164062-1.023438-4.234375-3.074219-6.230469-7.992188-5.347656-13.152344l9.761718-56.914062c1.613282-9.398438-1.503906-18.984375-8.332031-25.644532l-41.351562-40.304687c-3.746094-3.652344-5.019531-8.804687-3.402344-13.785156 1.617187-4.976563 5.675781-8.398438 10.855469-9.152344l57.144531-8.304687c9.4375-1.371094 17.59375-7.292969 21.816406-15.847657l5.011719-10.15625c.039062-.082031.085938-.167969.125-.253906l20.417969-41.375c2.316406-4.691406 6.824219-7.496094 12.058593-7.496094 5.234376 0 9.742188 2.804688 12.058594 7.496094l25.554688 51.785156c4.222656 8.550781 12.375 14.476563 21.8125 15.847657l57.144531 8.304687c5.179687.75 9.238281 4.171875 10.855469 9.148437 1.617187 4.980469.347656 10.132813-3.402344 13.785157l-41.347656 40.308593c-6.832032 6.65625-9.945313 16.246094-8.332032 25.644532l9.761719 56.914062c.882813 5.160156-1.117187 10.074219-5.351562 13.152344-4.234375 3.074219-9.527344 3.460938-14.160157 1.023438l-51.113281-26.871094c-8.441406-4.4375-18.519531-4.4375-26.964843 0l-12.984376 6.828125c-3.796874 1.992187-5.253906 6.6875-3.257812 10.480469 1.996094 3.796874 6.691406 5.253906 10.484375 3.257812l12.984375-6.824219c3.917969-2.058593 8.59375-2.058593 12.511719 0l51.113281 26.871094c9.832031 5.167969 21.523438 4.324219 30.511719-2.207031s13.40625-17.386719 11.527343-28.335938l-9.761718-56.914062c-.75-4.363282.695312-8.8125 3.867187-11.902344zm0 0"/></svg>