<svg id="Capa_1" enable-background="new 0 0 512 512" height="512" viewBox="0 0 512 512" width="512" xmlns="http://www.w3.org/2000/svg"><g><circle cx="256" cy="256" fill="#384949" r="256"/><path d="m512 256c0-140.61-115.39-256-256-256v512c140.61 0 256-115.39 256-256z" fill="#293939"/><circle cx="256" cy="256" fill="#ffe477" r="226"/><path d="m482 256c0-124.072-101.928-226-226-226v452c124.072 0 226-101.928 226-226z" fill="#ffcd00"/><g><path d="m328.993 437.45-53.188-107.563 13.418-6.65c25.766-12.789 41.777-38.555 41.777-67.237 0-3.988-.191-4.497-1.201-19.79l120.839-7.734c.713 12.207 1.362 17.742 1.362 27.524 0 74.561-42.602 141.533-109.56 174.771z" fill="#293939"/></g><g><path d="m183.007 437.45-13.447-6.68c-66.958-33.237-109.56-100.209-109.56-174.77 0-9.782.649-15.328 1.362-27.524l120.839 7.734c-1.02 15.45-1.201 15.81-1.201 19.79 0 28.682 16.011 54.448 41.777 67.236l13.418 6.65z" fill="#384949"/></g><g fill="#384949"><circle cx="256" cy="256" r="45"/><path d="m364.149 92.813c-32.08-21.46-70.115-32.19-108.149-32.19s-76.069 10.73-108.149 32.19l-12.451 8.32 66.548 100.814 12.48-8.35c12.334-8.232 26.953-12.349 41.572-12.349s29.238 4.116 41.572 12.349l12.48 8.35 66.548-100.814z"/></g><g fill="#293939"><path d="m301 256c0-24.814-20.186-45-45-45v90c24.814 0 45-20.186 45-45z"/><path d="m310.053 201.947 66.548-100.814-12.451-8.32c-32.08-21.46-70.115-32.19-108.149-32.19v120.626c14.619 0 29.238 4.116 41.572 12.349z"/></g></g></svg>